%
M48
M72
T01C0.01181
T02C0.02362
T03C0.03150
T04C0.03200
T05C0.03543
T06C0.03937
T07C0.04724
T08C0.05118
T09C0.12598
%
T01
X124888Y35732
X118888Y42732
X132888Y43732
X163888Y52732
X223888Y47732
X280888Y63732
X280888Y76732
X272888Y92732
X246888Y97732
X242888Y107732
X242888Y112732
X252888Y122732
X220888Y123732
X198888Y117732
X156888Y115732
X152888Y129732
X120888Y135732
X96888Y129732
X84888Y125732
X69888Y128732
X152888Y91732
X156888Y81732
X220888Y76732
X227888Y83732
X199888Y102732
X208888Y139732
X157888Y178732
X172888Y180732
X141888Y178732
X132888Y180732
X114888Y180732
X104888Y179732
X83888Y184732
X93888Y195732
X132888Y191732
X146888Y211732
X149888Y214732
X153888Y214732
X157888Y216732
X204888Y227732
X231888Y220732
X259888Y219732
X261888Y223732
X261888Y229732
X267888Y232732
X269888Y235732
X271888Y243732
X266888Y254732
X269888Y257732
X263888Y260732
X287888Y255732
X292888Y255732
X297888Y255732
X306888Y258732
X297888Y250732
X224888Y251732
X224888Y243732
X309888Y273732
X280888Y279732
X270888Y281732
X260888Y281732
X280888Y293732
X233888Y281732
X187888Y295732
X88888Y325732
X129888Y331732
X160888Y368732
X152888Y371732
X148988Y374732
X144888Y377732
X141188Y380732
X255888Y360732
X260888Y357732
X263888Y359732
X266888Y357732
X270888Y359732
X274888Y357732
X270888Y368732
X266888Y371732
X260888Y377732
X263888Y380732
X274888Y374732
X329188Y380732
X332888Y377732
X336988Y374732
X340888Y371732
X348888Y368732
X433188Y380732
X436888Y377732
X440988Y374732
X444888Y371732
X452888Y368732
X500888Y374732
X504888Y371732
X537088Y380732
X540888Y377732
X544988Y374732
X548888Y371732
X556888Y368732
X600888Y380732
X644888Y377732
X649188Y380732
X652888Y371732
X656888Y374732
X660888Y368732
X600888Y343732
X680888Y319732
X692888Y315732
X688888Y311732
X676888Y287732
X688888Y279732
X685888Y275732
X672888Y227732
X684888Y219732
X696888Y211732
X700888Y207732
X708888Y203732
X704888Y199732
X634888Y203732
X604888Y210732
X584888Y207732
X562888Y207732
X547888Y198232
X559888Y191732
X592888Y186732
X604888Y181732
X634888Y187732
X607888Y192732
X600888Y198732
X595888Y192732
X551888Y176732
X554888Y173732
X551888Y170732
X544439Y165708
X556888Y162732
X572888Y151732
X593888Y148732
X612888Y143732
X636888Y144732
X646888Y150732
X655888Y150732
X661888Y136732
X667888Y136732
X684888Y130732
X688888Y127732
X692888Y126732
X696888Y121732
X704888Y111732
X708888Y107732
X668888Y102732
X643888Y108732
X636888Y108732
X652888Y117732
X649888Y121732
X652888Y125732
X630888Y127732
X636888Y135732
X607888Y132732
X596888Y135196
X567888Y140732
X515888Y159732
X504888Y163732
X520888Y171732
X517888Y177732
X495888Y177732
X504888Y183732
X531888Y170732
X577888Y166732
X614888Y167732
X636888Y171732
X661888Y171732
X667888Y171732
X672888Y167732
X676888Y164732
X680888Y162732
X700888Y158732
X660888Y111732
X548888Y112732
X498935Y114519
X500888Y128732
X461888Y135732
X440888Y140732
X472888Y149732
X452888Y115732
X448888Y107732
X440888Y108732
X427888Y118732
X544888Y56732
X744888Y79732
X313888Y214732
X316888Y217732
X319888Y220732
X322888Y223732
X288888Y186732
X288888Y182732
X292888Y182732
X317888Y315732
X500888Y338732
X504888Y341732
X1005888Y264732
X1051888Y281732
X1036888Y306732
X1125888Y292732
X1130888Y263732
X1072888Y251732
X1056888Y237732
X1227888Y272732
X1235888Y267732
X1144888Y319732
X1168888Y323732
X1132888Y339732
X1115888Y355732
X1062888Y339732
X1057888Y339732
X1052888Y339732
X1041888Y351732
X1224888Y323732
T02
X1169888Y297732
X1141888Y300732
X1067888Y300732
X940888Y315732
X888888Y347732
X1012888Y351732
X1181888Y256732
X676888Y339732
X668888Y339732
X660888Y339732
X652888Y339732
X572888Y335732
X564888Y335732
X556888Y335732
X548888Y335732
X468888Y335732
X460888Y335732
X452888Y335732
X444888Y335732
X376888Y335732
X368888Y335732
X360888Y335732
X352888Y335732
X352888Y303732
X360888Y303732
X368888Y303732
X376888Y303732
X448888Y287732
X456888Y287732
X464888Y287732
X472888Y287732
X548888Y287732
X556888Y287732
X564888Y287732
X572888Y287732
X612888Y283732
X612888Y275732
X612888Y267732
X612888Y259732
X612888Y251732
X308888Y234732
X264888Y247732
X228888Y231732
X192888Y235732
X192888Y251732
X224888Y295732
X248888Y295732
X200888Y331732
X192888Y331732
X184888Y331732
X176888Y331732
X168888Y331732
X160888Y331732
X160888Y347732
X168888Y347732
X176888Y347732
X184888Y347732
X192888Y347732
X200888Y347732
X277888Y209732
X284888Y209732
X252888Y191732
X224888Y191732
X224888Y179732
X232888Y179732
X236888Y171732
X244888Y171732
X228888Y171732
X220888Y171732
X212888Y171732
X284888Y123732
X142888Y72732
X207888Y63732
X174888Y43732
X479888Y58732
X485888Y58732
X491888Y58732
X508888Y55732
X520888Y51732
X528888Y59732
X536888Y59732
X540888Y39732
X544888Y35732
X540888Y31732
X544888Y27732
X536888Y23732
X532888Y27732
X528888Y23732
X524888Y27732
X520888Y23732
X516888Y27732
X512888Y23732
X508888Y27732
X504888Y23732
X500888Y27732
X572888Y113196
X908888Y31732
X912888Y27732
X916888Y31732
X920888Y27732
X924888Y31732
X928888Y27732
X932888Y31732
X936888Y35732
X940888Y31732
X944888Y35732
X944888Y27732
X936888Y27732
T03
X928888Y38810
X928888Y48653
X779281Y69598
X779281Y79598
X752037Y45228
X742037Y35228
X732037Y35228
X722037Y35228
X762037Y35228
X632825Y35795
X624951Y35795
X624951Y43669
X632825Y43669
X510888Y38810
X510888Y48653
X534746Y112732
X534746Y122574
X490888Y123732
X470888Y123732
X480888Y133732
X508888Y193732
X518888Y203732
X498888Y203732
X115266Y224204
X105266Y224204
X95266Y224204
X75266Y224204
X85266Y214204
X85266Y253574
X95266Y263574
X105266Y263574
X115266Y263574
X75266Y263574
X85266Y292944
X95266Y302944
X105266Y302944
X115266Y302944
X75266Y302944
X85266Y351999
X95266Y361999
X105266Y361999
X115266Y361999
X137203Y363669
X145077Y363669
X152951Y363669
X160825Y363669
X168699Y363669
X176573Y363669
X176573Y355795
X168699Y355795
X160825Y355795
X152951Y355795
X145077Y355795
X137203Y355795
X75266Y361999
X325203Y363669
X333077Y363669
X340951Y363669
X348825Y363669
X356699Y363669
X364573Y363669
X364573Y355795
X356699Y355795
X348825Y355795
X340951Y355795
X333077Y355795
X325203Y355795
X429203Y355795
X437077Y355795
X444951Y355795
X452825Y355795
X460699Y355795
X468573Y355795
X468573Y363669
X460699Y363669
X452825Y363669
X444951Y363669
X437077Y363669
X429203Y363669
X533203Y363669
X541077Y363669
X548951Y363669
X556825Y363669
X564699Y363669
X572573Y363669
X572573Y355795
X564699Y355795
X556825Y355795
X548951Y355795
X541077Y355795
X533203Y355795
X637203Y355795
X645077Y355795
X652951Y355795
X660825Y355795
X668699Y355795
X676573Y355795
X676573Y363669
X668699Y363669
X660825Y363669
X652951Y363669
X645077Y363669
X637203Y363669
X988951Y255606
X996825Y255606
X996825Y247732
X988951Y247732
X988951Y239858
X996825Y239858
X1243848Y294007
X1243848Y304007
X1226447Y354125
X1206447Y354125
X1196447Y354125
X1186447Y354125
X1216447Y364125
X256888Y40653
X256888Y30810
T04
X104951Y74732
X104951Y84732
X666888Y47732
X686888Y47732
X846888Y67732
X866888Y67732
X884888Y319732
X894888Y319732
T05
X920888Y303732
X1120888Y239732
X1118888Y203732
X1128888Y203732
X1138888Y203732
X1148888Y203732
X1158888Y203732
X1168888Y203732
X1178888Y203732
X1188888Y203732
X1198888Y203732
X1208888Y203732
X1218888Y203732
X1228888Y203732
X1238888Y203732
X1238888Y193732
X1228888Y193732
X1218888Y193732
X1208888Y193732
X1198888Y193732
X1188888Y193732
X1178888Y193732
X1168888Y193732
X1158888Y193732
X1148888Y193732
X1138888Y193732
X1128888Y193732
X1118888Y193732
X1108888Y193732
X1098888Y193732
X1088888Y193732
X1078888Y193732
X1068888Y193732
X1058888Y193732
X1048888Y193732
X1038888Y193732
X1028888Y193732
X1018888Y193732
X1008888Y193732
X998888Y193732
X988888Y193732
X978888Y193732
X968888Y193732
X968888Y183732
X978888Y183732
X988888Y183732
X998888Y183732
X1008888Y183732
X1018888Y183732
X1028888Y183732
X1038888Y183732
X1048888Y183732
X1058888Y183732
X1068888Y183732
X1078888Y183732
X1088888Y183732
X1098888Y183732
X1108888Y183732
X1118888Y183732
X1128888Y183732
X1138888Y183732
X1148888Y183732
X1158888Y183732
X1168888Y183732
X1178888Y183732
X1188888Y183732
X1198888Y183732
X1208888Y183732
X1218888Y183732
X1228888Y183732
X1238888Y183732
X1238888Y173732
X1228888Y173732
X1218888Y173732
X1208888Y173732
X1198888Y173732
X1188888Y173732
X1178888Y173732
X1168888Y173732
X1158888Y173732
X1148888Y173732
X1138888Y173732
X1128888Y173732
X1118888Y173732
X1108888Y173732
X1098888Y173732
X1088888Y173732
X1078888Y173732
X1068888Y173732
X1058888Y173732
X1048888Y173732
X1038888Y173732
X1028888Y173732
X1018888Y173732
X1008888Y173732
X998888Y173732
X988888Y173732
X978888Y173732
X968888Y173732
X968888Y163732
X978888Y163732
X988888Y163732
X998888Y163732
X1008888Y163732
X1018888Y163732
X1028888Y163732
X1038888Y163732
X1048888Y163732
X1058888Y163732
X1068888Y163732
X1078888Y163732
X1088888Y163732
X1098888Y163732
X1108888Y163732
X1118888Y163732
X1128888Y163732
X1138888Y163732
X1148888Y163732
X1158888Y163732
X1168888Y163732
X1178888Y163732
X1188888Y163732
X1198888Y163732
X1208888Y163732
X1218888Y163732
X1228888Y163732
X1238888Y163732
X1238888Y153732
X1228888Y153732
X1218888Y153732
X1208888Y153732
X1198888Y153732
X1188888Y153732
X1178888Y153732
X1168888Y153732
X1158888Y153732
X1148888Y153732
X1138888Y153732
X1128888Y153732
X1118888Y153732
X1108888Y153732
X1098888Y153732
X1088888Y153732
X1078888Y153732
X1068888Y153732
X1058888Y153732
X1048888Y153732
X1038888Y153732
X1028888Y153732
X1018888Y153732
X1008888Y153732
X998888Y153732
X988888Y153732
X978888Y153732
X968888Y153732
X968888Y143732
X978888Y143732
X988888Y143732
X998888Y143732
X1008888Y143732
X1018888Y143732
X1028888Y143732
X1038888Y143732
X1048888Y143732
X1058888Y143732
X1068888Y143732
X1078888Y143732
X1088888Y143732
X1098888Y143732
X1108888Y143732
X1118888Y143732
X1128888Y143732
X1138888Y143732
X1148888Y143732
X1158888Y143732
X1168888Y143732
X1178888Y143732
X1188888Y143732
X1198888Y143732
X1208888Y143732
X1218888Y143732
X1228888Y143732
X1238888Y143732
X1238888Y133732
X1228888Y133732
X1218888Y133732
X1208888Y133732
X1198888Y133732
X1188888Y133732
X1178888Y133732
X1168888Y133732
X1158888Y133732
X1148888Y133732
X1138888Y133732
X1128888Y133732
X1118888Y133732
X1108888Y133732
X1098888Y133732
X1088888Y133732
X1078888Y133732
X1068888Y133732
X1058888Y133732
X1048888Y133732
X1038888Y133732
X1028888Y133732
X1018888Y133732
X1008888Y133732
X998888Y133732
X988888Y133732
X978888Y133732
X968888Y133732
X968888Y123732
X978888Y123732
X988888Y123732
X998888Y123732
X1008888Y123732
X1018888Y123732
X1028888Y123732
X1038888Y123732
X1048888Y123732
X1058888Y123732
X1068888Y123732
X1078888Y123732
X1088888Y123732
X1098888Y123732
X1108888Y123732
X1118888Y123732
X1128888Y123732
X1138888Y123732
X1148888Y123732
X1158888Y123732
X1168888Y123732
X1178888Y123732
X1188888Y123732
X1198888Y123732
X1208888Y123732
X1218888Y123732
X1228888Y123732
X1238888Y123732
X1238888Y113732
X1228888Y113732
X1218888Y113732
X1208888Y113732
X1198888Y113732
X1188888Y113732
X1178888Y113732
X1168888Y113732
X1158888Y113732
X1148888Y113732
X1138888Y113732
X1128888Y113732
X1118888Y113732
X1108888Y113732
X1098888Y113732
X1088888Y113732
X1078888Y113732
X1068888Y113732
X1058888Y113732
X1048888Y113732
X1038888Y113732
X1028888Y113732
X1018888Y113732
X1008888Y113732
X998888Y113732
X988888Y113732
X978888Y113732
X968888Y113732
X968888Y103732
X978888Y103732
X988888Y103732
X998888Y103732
X1008888Y103732
X1018888Y103732
X1028888Y103732
X1038888Y103732
X1048888Y103732
X1058888Y103732
X1068888Y103732
X1078888Y103732
X1088888Y103732
X1098888Y103732
X1108888Y103732
X1118888Y103732
X1128888Y103732
X1138888Y103732
X1148888Y103732
X1158888Y103732
X1168888Y103732
X1178888Y103732
X1188888Y103732
X1198888Y103732
X1208888Y103732
X1218888Y103732
X1228888Y103732
X1238888Y103732
X1238888Y93732
X1228888Y93732
X1218888Y93732
X1208888Y93732
X1198888Y93732
X1188888Y93732
X1178888Y93732
X1168888Y93732
X1158888Y93732
X1148888Y93732
X1138888Y93732
X1128888Y93732
X1118888Y93732
X1108888Y93732
X1098888Y93732
X1088888Y93732
X1078888Y93732
X1068888Y93732
X1058888Y93732
X1048888Y93732
X1038888Y93732
X1028888Y93732
X1018888Y93732
X1008888Y93732
X998888Y93732
X988888Y93732
X978888Y93732
X968888Y93732
X938888Y93732
X938888Y103732
X938888Y83732
X968888Y83732
X978888Y83732
X988888Y83732
X998888Y83732
X1008888Y83732
X1018888Y83732
X1028888Y83732
X1038888Y83732
X1048888Y83732
X1058888Y83732
X1068888Y83732
X1078888Y83732
X1088888Y83732
X1098888Y83732
X1108888Y83732
X1118888Y83732
X1128888Y83732
X1138888Y83732
X1148888Y83732
X1158888Y83732
X1168888Y83732
X1178888Y83732
X1188888Y83732
X1198888Y83732
X1208888Y83732
X1218888Y83732
X1228888Y83732
X1238888Y83732
X938888Y183732
X938888Y193732
X938888Y203732
X968888Y203732
X978888Y203732
X988888Y203732
X998888Y203732
X1008888Y203732
X1018888Y203732
X1028888Y203732
X1038888Y203732
X1048888Y203732
X1058888Y203732
X1068888Y203732
X1078888Y203732
X1088888Y203732
X1098888Y203732
X1108888Y203732
X616888Y147732
X580888Y135732
X616888Y119732
X528888Y151732
X420888Y135732
X512888Y87732
X456888Y83732
X584888Y47732
X576888Y35732
X328888Y39732
X328888Y47732
X292888Y48732
X220888Y34732
X168888Y35732
X172888Y131732
X468888Y199732
T06
X305888Y287732
X295888Y287732
X295888Y297732
X305888Y297732
X305888Y307732
X295888Y307732
X295888Y317732
X305888Y317732
X305888Y327732
X295888Y327732
X831565Y323692
X831565Y313692
X861565Y313692
X861565Y303692
X861565Y293692
X861565Y283692
X831565Y283692
X861565Y323692
X861565Y333692
X861565Y343692
X861565Y353692
X831565Y353692
X82037Y117472
X82037Y107472
X82037Y97472
X82037Y87472
X82037Y77472
X82037Y67472
X82037Y57472
X82037Y47472
X52037Y47472
X52037Y77472
X52037Y87472
X52037Y117472
T07
X759990Y117905
X779675Y137590
X789518Y137590
X789518Y157275
X779675Y157275
X759990Y176960
X779675Y196645
X789518Y196645
X789518Y216330
X779675Y216330
X759990Y236015
X779675Y255700
X789518Y255700
X789518Y275385
X779675Y275385
X759990Y295070
X779675Y314755
X789518Y314755
X789518Y334440
X779675Y334440
X759990Y354125
X779675Y373810
X789518Y373810
X789518Y98220
X779675Y98220
T08
X759990Y98220
X759990Y108062
X779675Y117905
X759990Y127747
X759990Y137590
X759990Y157275
X759990Y167118
X779675Y176960
X759990Y186803
X759990Y196645
X759990Y216330
X759990Y226173
X779675Y236015
X759990Y245858
X759990Y255700
X759990Y275385
X759990Y285228
X779675Y295070
X759990Y304913
X759990Y314755
X759990Y334440
X759990Y344283
X779675Y354125
X759990Y363968
X759990Y373810
T09
X656888Y257370
X552888Y257370
X448888Y257370
X344888Y257370
X156888Y257370
X46604Y161212
X826132Y239952
M30
