G75*
%MOIN*%
%OFA0B0*%
%FSLAX25Y25*%
%IPPOS*%
%LPD*%
%AMOC8*
5,1,8,0,0,1.08239X$1,22.5*
%
%ADD10C,0.00000*%
%ADD11C,0.00600*%
%ADD12R,0.07874X0.23622*%
%ADD13C,0.00800*%
%ADD14R,0.02500X0.02500*%
%ADD15C,0.00500*%
%ADD16C,0.01000*%
%ADD17C,0.01600*%
%ADD18C,0.01500*%
%ADD19C,0.00787*%
%ADD20C,0.00700*%
D10*
X0003000Y0003031D02*
X0003000Y0105394D01*
X0278591Y0105394D01*
X0278591Y0003031D01*
X0003000Y0003031D01*
X0154181Y0054213D02*
X0154183Y0054371D01*
X0154189Y0054529D01*
X0154199Y0054687D01*
X0154213Y0054845D01*
X0154231Y0055002D01*
X0154252Y0055159D01*
X0154278Y0055315D01*
X0154308Y0055471D01*
X0154341Y0055626D01*
X0154379Y0055779D01*
X0154420Y0055932D01*
X0154465Y0056084D01*
X0154514Y0056235D01*
X0154567Y0056384D01*
X0154623Y0056532D01*
X0154683Y0056678D01*
X0154747Y0056823D01*
X0154815Y0056966D01*
X0154886Y0057108D01*
X0154960Y0057248D01*
X0155038Y0057385D01*
X0155120Y0057521D01*
X0155204Y0057655D01*
X0155293Y0057786D01*
X0155384Y0057915D01*
X0155479Y0058042D01*
X0155576Y0058167D01*
X0155677Y0058289D01*
X0155781Y0058408D01*
X0155888Y0058525D01*
X0155998Y0058639D01*
X0156111Y0058750D01*
X0156226Y0058859D01*
X0156344Y0058964D01*
X0156465Y0059066D01*
X0156588Y0059166D01*
X0156714Y0059262D01*
X0156842Y0059355D01*
X0156972Y0059445D01*
X0157105Y0059531D01*
X0157240Y0059615D01*
X0157376Y0059694D01*
X0157515Y0059771D01*
X0157656Y0059843D01*
X0157798Y0059913D01*
X0157942Y0059978D01*
X0158088Y0060040D01*
X0158235Y0060098D01*
X0158384Y0060153D01*
X0158534Y0060204D01*
X0158685Y0060251D01*
X0158837Y0060294D01*
X0158990Y0060333D01*
X0159145Y0060369D01*
X0159300Y0060400D01*
X0159456Y0060428D01*
X0159612Y0060452D01*
X0159769Y0060472D01*
X0159927Y0060488D01*
X0160084Y0060500D01*
X0160243Y0060508D01*
X0160401Y0060512D01*
X0160559Y0060512D01*
X0160717Y0060508D01*
X0160876Y0060500D01*
X0161033Y0060488D01*
X0161191Y0060472D01*
X0161348Y0060452D01*
X0161504Y0060428D01*
X0161660Y0060400D01*
X0161815Y0060369D01*
X0161970Y0060333D01*
X0162123Y0060294D01*
X0162275Y0060251D01*
X0162426Y0060204D01*
X0162576Y0060153D01*
X0162725Y0060098D01*
X0162872Y0060040D01*
X0163018Y0059978D01*
X0163162Y0059913D01*
X0163304Y0059843D01*
X0163445Y0059771D01*
X0163584Y0059694D01*
X0163720Y0059615D01*
X0163855Y0059531D01*
X0163988Y0059445D01*
X0164118Y0059355D01*
X0164246Y0059262D01*
X0164372Y0059166D01*
X0164495Y0059066D01*
X0164616Y0058964D01*
X0164734Y0058859D01*
X0164849Y0058750D01*
X0164962Y0058639D01*
X0165072Y0058525D01*
X0165179Y0058408D01*
X0165283Y0058289D01*
X0165384Y0058167D01*
X0165481Y0058042D01*
X0165576Y0057915D01*
X0165667Y0057786D01*
X0165756Y0057655D01*
X0165840Y0057521D01*
X0165922Y0057385D01*
X0166000Y0057248D01*
X0166074Y0057108D01*
X0166145Y0056966D01*
X0166213Y0056823D01*
X0166277Y0056678D01*
X0166337Y0056532D01*
X0166393Y0056384D01*
X0166446Y0056235D01*
X0166495Y0056084D01*
X0166540Y0055932D01*
X0166581Y0055779D01*
X0166619Y0055626D01*
X0166652Y0055471D01*
X0166682Y0055315D01*
X0166708Y0055159D01*
X0166729Y0055002D01*
X0166747Y0054845D01*
X0166761Y0054687D01*
X0166771Y0054529D01*
X0166777Y0054371D01*
X0166779Y0054213D01*
X0166777Y0054055D01*
X0166771Y0053897D01*
X0166761Y0053739D01*
X0166747Y0053581D01*
X0166729Y0053424D01*
X0166708Y0053267D01*
X0166682Y0053111D01*
X0166652Y0052955D01*
X0166619Y0052800D01*
X0166581Y0052647D01*
X0166540Y0052494D01*
X0166495Y0052342D01*
X0166446Y0052191D01*
X0166393Y0052042D01*
X0166337Y0051894D01*
X0166277Y0051748D01*
X0166213Y0051603D01*
X0166145Y0051460D01*
X0166074Y0051318D01*
X0166000Y0051178D01*
X0165922Y0051041D01*
X0165840Y0050905D01*
X0165756Y0050771D01*
X0165667Y0050640D01*
X0165576Y0050511D01*
X0165481Y0050384D01*
X0165384Y0050259D01*
X0165283Y0050137D01*
X0165179Y0050018D01*
X0165072Y0049901D01*
X0164962Y0049787D01*
X0164849Y0049676D01*
X0164734Y0049567D01*
X0164616Y0049462D01*
X0164495Y0049360D01*
X0164372Y0049260D01*
X0164246Y0049164D01*
X0164118Y0049071D01*
X0163988Y0048981D01*
X0163855Y0048895D01*
X0163720Y0048811D01*
X0163584Y0048732D01*
X0163445Y0048655D01*
X0163304Y0048583D01*
X0163162Y0048513D01*
X0163018Y0048448D01*
X0162872Y0048386D01*
X0162725Y0048328D01*
X0162576Y0048273D01*
X0162426Y0048222D01*
X0162275Y0048175D01*
X0162123Y0048132D01*
X0161970Y0048093D01*
X0161815Y0048057D01*
X0161660Y0048026D01*
X0161504Y0047998D01*
X0161348Y0047974D01*
X0161191Y0047954D01*
X0161033Y0047938D01*
X0160876Y0047926D01*
X0160717Y0047918D01*
X0160559Y0047914D01*
X0160401Y0047914D01*
X0160243Y0047918D01*
X0160084Y0047926D01*
X0159927Y0047938D01*
X0159769Y0047954D01*
X0159612Y0047974D01*
X0159456Y0047998D01*
X0159300Y0048026D01*
X0159145Y0048057D01*
X0158990Y0048093D01*
X0158837Y0048132D01*
X0158685Y0048175D01*
X0158534Y0048222D01*
X0158384Y0048273D01*
X0158235Y0048328D01*
X0158088Y0048386D01*
X0157942Y0048448D01*
X0157798Y0048513D01*
X0157656Y0048583D01*
X0157515Y0048655D01*
X0157376Y0048732D01*
X0157240Y0048811D01*
X0157105Y0048895D01*
X0156972Y0048981D01*
X0156842Y0049071D01*
X0156714Y0049164D01*
X0156588Y0049260D01*
X0156465Y0049360D01*
X0156344Y0049462D01*
X0156226Y0049567D01*
X0156111Y0049676D01*
X0155998Y0049787D01*
X0155888Y0049901D01*
X0155781Y0050018D01*
X0155677Y0050137D01*
X0155576Y0050259D01*
X0155479Y0050384D01*
X0155384Y0050511D01*
X0155293Y0050640D01*
X0155204Y0050771D01*
X0155120Y0050905D01*
X0155038Y0051041D01*
X0154960Y0051178D01*
X0154886Y0051318D01*
X0154815Y0051460D01*
X0154747Y0051603D01*
X0154683Y0051748D01*
X0154623Y0051894D01*
X0154567Y0052042D01*
X0154514Y0052191D01*
X0154465Y0052342D01*
X0154420Y0052494D01*
X0154379Y0052647D01*
X0154341Y0052800D01*
X0154308Y0052955D01*
X0154278Y0053111D01*
X0154252Y0053267D01*
X0154231Y0053424D01*
X0154213Y0053581D01*
X0154199Y0053739D01*
X0154189Y0053897D01*
X0154183Y0054055D01*
X0154181Y0054213D01*
D11*
X0141700Y0054569D02*
X0140566Y0053434D01*
X0140566Y0054001D02*
X0140566Y0052300D01*
X0141700Y0052300D02*
X0138297Y0052300D01*
X0138297Y0054001D01*
X0138864Y0054569D01*
X0139999Y0054569D01*
X0140566Y0054001D01*
X0141133Y0055983D02*
X0141700Y0056550D01*
X0141700Y0057685D01*
X0141133Y0058252D01*
X0140566Y0058252D01*
X0139999Y0057685D01*
X0139999Y0057117D01*
X0139999Y0057685D02*
X0139431Y0058252D01*
X0138864Y0058252D01*
X0138297Y0057685D01*
X0138297Y0056550D01*
X0138864Y0055983D01*
X0139999Y0059666D02*
X0139999Y0061368D01*
X0140566Y0061935D01*
X0141133Y0061935D01*
X0141700Y0061368D01*
X0141700Y0060233D01*
X0141133Y0059666D01*
X0139999Y0059666D01*
X0138864Y0060801D01*
X0138297Y0061935D01*
X0130700Y0061368D02*
X0130700Y0060233D01*
X0130133Y0059666D01*
X0128999Y0059666D02*
X0128431Y0060801D01*
X0128431Y0061368D01*
X0128999Y0061935D01*
X0130133Y0061935D01*
X0130700Y0061368D01*
X0128999Y0059666D02*
X0127297Y0059666D01*
X0127297Y0061935D01*
X0125200Y0060752D02*
X0125200Y0058483D01*
X0122931Y0060752D01*
X0122364Y0060752D01*
X0121797Y0060185D01*
X0121797Y0059050D01*
X0122364Y0058483D01*
X0121797Y0057069D02*
X0124633Y0057069D01*
X0125200Y0056501D01*
X0125200Y0055367D01*
X0124633Y0054800D01*
X0121797Y0054800D01*
X0127297Y0054001D02*
X0127297Y0052300D01*
X0130700Y0052300D01*
X0129566Y0052300D02*
X0129566Y0054001D01*
X0128999Y0054569D01*
X0127864Y0054569D01*
X0127297Y0054001D01*
X0129566Y0053434D02*
X0130700Y0054569D01*
X0130133Y0055983D02*
X0130700Y0056550D01*
X0130700Y0057685D01*
X0130133Y0058252D01*
X0129566Y0058252D01*
X0128999Y0057685D01*
X0128999Y0057117D01*
X0128999Y0057685D02*
X0128431Y0058252D01*
X0127864Y0058252D01*
X0127297Y0057685D01*
X0127297Y0056550D01*
X0127864Y0055983D01*
X0131297Y0048868D02*
X0132999Y0047166D01*
X0132999Y0049435D01*
X0134700Y0048868D02*
X0131297Y0048868D01*
X0134700Y0045752D02*
X0134700Y0043483D01*
X0134700Y0044617D02*
X0131297Y0044617D01*
X0132431Y0043483D01*
X0131864Y0042069D02*
X0131297Y0041501D01*
X0131297Y0040367D01*
X0131864Y0039800D01*
X0134133Y0039800D01*
X0134700Y0040367D01*
X0134700Y0041501D01*
X0134133Y0042069D01*
X0164297Y0041001D02*
X0164297Y0039300D01*
X0167700Y0039300D01*
X0166566Y0039300D02*
X0166566Y0041001D01*
X0165999Y0041569D01*
X0164864Y0041569D01*
X0164297Y0041001D01*
X0166566Y0040434D02*
X0167700Y0041569D01*
X0167133Y0042983D02*
X0167700Y0043550D01*
X0167700Y0044685D01*
X0167133Y0045252D01*
X0166566Y0045252D01*
X0165999Y0044685D01*
X0165999Y0042983D01*
X0167133Y0042983D01*
X0165999Y0042983D02*
X0164864Y0044117D01*
X0164297Y0045252D01*
X0170297Y0045252D02*
X0170297Y0042983D01*
X0170864Y0041569D02*
X0170297Y0041001D01*
X0170297Y0039300D01*
X0173700Y0039300D01*
X0172566Y0039300D02*
X0172566Y0041001D01*
X0171999Y0041569D01*
X0170864Y0041569D01*
X0172566Y0040434D02*
X0173700Y0041569D01*
X0173700Y0042983D02*
X0173133Y0042983D01*
X0170864Y0045252D01*
X0170297Y0045252D01*
X0176318Y0055300D02*
X0177452Y0055300D01*
X0178019Y0055867D01*
X0179434Y0055300D02*
X0181702Y0055300D01*
X0180568Y0055300D02*
X0180568Y0058703D01*
X0179434Y0057569D01*
X0178019Y0058136D02*
X0177452Y0058703D01*
X0176318Y0058703D01*
X0175751Y0058136D01*
X0175751Y0055867D01*
X0176318Y0055300D01*
X0183117Y0055300D02*
X0185385Y0055300D01*
X0184251Y0055300D02*
X0184251Y0058703D01*
X0183117Y0057569D01*
X0190457Y0060640D02*
X0192726Y0060640D01*
X0191592Y0060640D02*
X0191592Y0057237D01*
X0194141Y0057237D02*
X0194141Y0060640D01*
X0195842Y0060640D01*
X0196409Y0060073D01*
X0196409Y0058938D01*
X0195842Y0058371D01*
X0194141Y0058371D01*
X0197824Y0057237D02*
X0200092Y0057237D01*
X0198958Y0057237D02*
X0198958Y0060640D01*
X0197824Y0059506D01*
X0201297Y0059300D02*
X0201297Y0061001D01*
X0201864Y0061569D01*
X0202999Y0061569D01*
X0203566Y0061001D01*
X0203566Y0059300D01*
X0204700Y0059300D02*
X0201297Y0059300D01*
X0203566Y0060434D02*
X0204700Y0061569D01*
X0204700Y0062983D02*
X0202431Y0065252D01*
X0201864Y0065252D01*
X0201297Y0064685D01*
X0201297Y0063550D01*
X0201864Y0062983D01*
X0204700Y0062983D02*
X0204700Y0065252D01*
X0204133Y0066666D02*
X0204700Y0067233D01*
X0204700Y0068368D01*
X0204133Y0068935D01*
X0202999Y0068935D01*
X0202431Y0068368D01*
X0202431Y0067801D01*
X0202999Y0066666D01*
X0201297Y0066666D01*
X0201297Y0068935D01*
X0200100Y0067900D02*
X0200100Y0072800D01*
X0200100Y0075200D01*
X0200100Y0080100D01*
X0201297Y0078685D02*
X0201297Y0077550D01*
X0201864Y0076983D01*
X0201864Y0075569D02*
X0202999Y0075569D01*
X0203566Y0075001D01*
X0203566Y0073300D01*
X0204700Y0073300D02*
X0201297Y0073300D01*
X0201297Y0075001D01*
X0201864Y0075569D01*
X0203566Y0074434D02*
X0204700Y0075569D01*
X0204700Y0076983D02*
X0202431Y0079252D01*
X0201864Y0079252D01*
X0201297Y0078685D01*
X0202999Y0080666D02*
X0202999Y0082368D01*
X0203566Y0082935D01*
X0204133Y0082935D01*
X0204700Y0082368D01*
X0204700Y0081233D01*
X0204133Y0080666D01*
X0202999Y0080666D01*
X0201864Y0081801D01*
X0201297Y0082935D01*
X0204700Y0079252D02*
X0204700Y0076983D01*
X0200100Y0075200D02*
X0200031Y0075198D01*
X0199963Y0075192D01*
X0199895Y0075182D01*
X0199828Y0075169D01*
X0199762Y0075151D01*
X0199697Y0075130D01*
X0199633Y0075105D01*
X0199571Y0075077D01*
X0199510Y0075045D01*
X0199451Y0075010D01*
X0199395Y0074971D01*
X0199340Y0074929D01*
X0199289Y0074884D01*
X0199239Y0074836D01*
X0199193Y0074786D01*
X0199150Y0074733D01*
X0199109Y0074677D01*
X0199072Y0074620D01*
X0199039Y0074560D01*
X0199008Y0074498D01*
X0198982Y0074435D01*
X0198959Y0074371D01*
X0198939Y0074305D01*
X0198924Y0074238D01*
X0198912Y0074171D01*
X0198904Y0074103D01*
X0198900Y0074034D01*
X0198900Y0073966D01*
X0198904Y0073897D01*
X0198912Y0073829D01*
X0198924Y0073762D01*
X0198939Y0073695D01*
X0198959Y0073629D01*
X0198982Y0073565D01*
X0199008Y0073502D01*
X0199039Y0073440D01*
X0199072Y0073380D01*
X0199109Y0073323D01*
X0199150Y0073267D01*
X0199193Y0073214D01*
X0199239Y0073164D01*
X0199289Y0073116D01*
X0199340Y0073071D01*
X0199395Y0073029D01*
X0199451Y0072990D01*
X0199510Y0072955D01*
X0199571Y0072923D01*
X0199633Y0072895D01*
X0199697Y0072870D01*
X0199762Y0072849D01*
X0199828Y0072831D01*
X0199895Y0072818D01*
X0199963Y0072808D01*
X0200031Y0072802D01*
X0200100Y0072800D01*
X0187900Y0067900D02*
X0187900Y0080100D01*
X0187733Y0087300D02*
X0187166Y0087867D01*
X0187166Y0089001D01*
X0188868Y0089001D01*
X0189435Y0088434D01*
X0189435Y0087867D01*
X0188868Y0087300D01*
X0187733Y0087300D01*
X0187166Y0089001D02*
X0188301Y0090136D01*
X0189435Y0090703D01*
X0190800Y0091367D02*
X0191367Y0090800D01*
X0192501Y0090800D01*
X0193069Y0091367D01*
X0193069Y0094203D01*
X0194483Y0094203D02*
X0194483Y0092501D01*
X0195617Y0093069D01*
X0196185Y0093069D01*
X0196752Y0092501D01*
X0196752Y0091367D01*
X0196185Y0090800D01*
X0195050Y0090800D01*
X0194483Y0091367D01*
X0190800Y0091367D02*
X0190800Y0094203D01*
X0194483Y0094203D02*
X0196752Y0094203D01*
X0205300Y0093703D02*
X0205300Y0090300D01*
X0205300Y0091434D02*
X0207001Y0091434D01*
X0207569Y0092001D01*
X0207569Y0093136D01*
X0207001Y0093703D01*
X0205300Y0093703D01*
X0208983Y0092569D02*
X0210117Y0093703D01*
X0210117Y0090300D01*
X0208983Y0090300D02*
X0211252Y0090300D01*
X0212666Y0090867D02*
X0213233Y0090300D01*
X0214368Y0090300D01*
X0214935Y0090867D01*
X0214935Y0092001D01*
X0214368Y0092569D01*
X0213801Y0092569D01*
X0212666Y0092001D01*
X0212666Y0093703D01*
X0214935Y0093703D01*
X0207569Y0090300D02*
X0206434Y0091434D01*
X0226300Y0094300D02*
X0226300Y0097703D01*
X0228001Y0097703D01*
X0228569Y0097136D01*
X0228569Y0096001D01*
X0228001Y0095434D01*
X0226300Y0095434D01*
X0227434Y0095434D02*
X0228569Y0094300D01*
X0229983Y0094867D02*
X0230550Y0094300D01*
X0231685Y0094300D01*
X0232252Y0094867D01*
X0232252Y0095434D01*
X0231685Y0096001D01*
X0231117Y0096001D01*
X0231685Y0096001D02*
X0232252Y0096569D01*
X0232252Y0097136D01*
X0231685Y0097703D01*
X0230550Y0097703D01*
X0229983Y0097136D01*
X0233666Y0097703D02*
X0235935Y0097703D01*
X0235935Y0097136D01*
X0233666Y0094867D01*
X0233666Y0094300D01*
X0245300Y0086001D02*
X0247001Y0087703D01*
X0247001Y0084300D01*
X0247569Y0086001D02*
X0245300Y0086001D01*
X0248983Y0084300D02*
X0251252Y0084300D01*
X0252666Y0084300D02*
X0254935Y0087703D01*
X0256349Y0087703D02*
X0258618Y0087703D01*
X0258618Y0087136D01*
X0256349Y0084867D01*
X0256349Y0084300D01*
X0260033Y0084867D02*
X0262301Y0087136D01*
X0262301Y0084867D01*
X0261734Y0084300D01*
X0260600Y0084300D01*
X0260033Y0084867D01*
X0260033Y0087136D01*
X0260600Y0087703D01*
X0261734Y0087703D01*
X0262301Y0087136D01*
X0263716Y0086569D02*
X0265984Y0084300D01*
X0267399Y0084300D02*
X0269667Y0086569D01*
X0269667Y0087136D01*
X0269100Y0087703D01*
X0267966Y0087703D01*
X0267399Y0087136D01*
X0265984Y0086569D02*
X0263716Y0084300D01*
X0267399Y0084300D02*
X0269667Y0084300D01*
X0271082Y0084867D02*
X0271649Y0084300D01*
X0272783Y0084300D01*
X0273351Y0084867D01*
X0273351Y0086001D01*
X0272783Y0086569D01*
X0272216Y0086569D01*
X0271082Y0086001D01*
X0271082Y0087703D01*
X0273351Y0087703D01*
X0273100Y0095300D02*
X0273667Y0095867D01*
X0273667Y0096434D01*
X0273100Y0097001D01*
X0271399Y0097001D01*
X0271399Y0095867D01*
X0271966Y0095300D01*
X0273100Y0095300D01*
X0271399Y0097001D02*
X0272533Y0098136D01*
X0273667Y0098703D01*
X0269984Y0098136D02*
X0267716Y0095867D01*
X0268283Y0095300D01*
X0269417Y0095300D01*
X0269984Y0095867D01*
X0269984Y0098136D01*
X0269417Y0098703D01*
X0268283Y0098703D01*
X0267716Y0098136D01*
X0267716Y0095867D01*
X0266301Y0098703D02*
X0264033Y0095300D01*
X0262051Y0095300D02*
X0262051Y0098703D01*
X0260349Y0097001D01*
X0262618Y0097001D01*
X0258935Y0095300D02*
X0256666Y0095300D01*
X0257801Y0095300D02*
X0257801Y0098703D01*
X0256666Y0097569D01*
X0255252Y0098136D02*
X0252983Y0095867D01*
X0253550Y0095300D01*
X0254685Y0095300D01*
X0255252Y0095867D01*
X0255252Y0098136D01*
X0254685Y0098703D01*
X0253550Y0098703D01*
X0252983Y0098136D01*
X0252983Y0095867D01*
X0251569Y0095300D02*
X0249300Y0095300D01*
X0251569Y0097569D01*
X0251569Y0098136D01*
X0251001Y0098703D01*
X0249867Y0098703D01*
X0249300Y0098136D01*
X0248983Y0087703D02*
X0248983Y0084300D01*
X0235100Y0080100D02*
X0235100Y0075200D01*
X0235100Y0072800D01*
X0235100Y0067900D01*
X0222900Y0067900D02*
X0222900Y0080100D01*
X0222133Y0074252D02*
X0222700Y0073685D01*
X0222700Y0072550D01*
X0222133Y0071983D01*
X0221566Y0071983D01*
X0220999Y0072550D01*
X0220999Y0073685D01*
X0221566Y0074252D01*
X0222133Y0074252D01*
X0220999Y0073685D02*
X0220431Y0074252D01*
X0219864Y0074252D01*
X0219297Y0073685D01*
X0219297Y0072550D01*
X0219864Y0071983D01*
X0220431Y0071983D01*
X0220999Y0072550D01*
X0220999Y0070569D02*
X0221566Y0070001D01*
X0221566Y0068300D01*
X0222700Y0068300D02*
X0219297Y0068300D01*
X0219297Y0070001D01*
X0219864Y0070569D01*
X0220999Y0070569D01*
X0221566Y0069434D02*
X0222700Y0070569D01*
X0235100Y0072800D02*
X0235031Y0072802D01*
X0234963Y0072808D01*
X0234895Y0072818D01*
X0234828Y0072831D01*
X0234762Y0072849D01*
X0234697Y0072870D01*
X0234633Y0072895D01*
X0234571Y0072923D01*
X0234510Y0072955D01*
X0234451Y0072990D01*
X0234395Y0073029D01*
X0234340Y0073071D01*
X0234289Y0073116D01*
X0234239Y0073164D01*
X0234193Y0073214D01*
X0234150Y0073267D01*
X0234109Y0073323D01*
X0234072Y0073380D01*
X0234039Y0073440D01*
X0234008Y0073502D01*
X0233982Y0073565D01*
X0233959Y0073629D01*
X0233939Y0073695D01*
X0233924Y0073762D01*
X0233912Y0073829D01*
X0233904Y0073897D01*
X0233900Y0073966D01*
X0233900Y0074034D01*
X0233904Y0074103D01*
X0233912Y0074171D01*
X0233924Y0074238D01*
X0233939Y0074305D01*
X0233959Y0074371D01*
X0233982Y0074435D01*
X0234008Y0074498D01*
X0234039Y0074560D01*
X0234072Y0074620D01*
X0234109Y0074677D01*
X0234150Y0074733D01*
X0234193Y0074786D01*
X0234239Y0074836D01*
X0234289Y0074884D01*
X0234340Y0074929D01*
X0234395Y0074971D01*
X0234451Y0075010D01*
X0234510Y0075045D01*
X0234571Y0075077D01*
X0234633Y0075105D01*
X0234697Y0075130D01*
X0234762Y0075151D01*
X0234828Y0075169D01*
X0234895Y0075182D01*
X0234963Y0075192D01*
X0235031Y0075198D01*
X0235100Y0075200D01*
X0229161Y0058766D02*
X0229728Y0058199D01*
X0229728Y0057632D01*
X0229161Y0057064D01*
X0229728Y0056497D01*
X0229728Y0055930D01*
X0229161Y0055363D01*
X0228027Y0055363D01*
X0227459Y0055930D01*
X0228594Y0057064D02*
X0229161Y0057064D01*
X0227459Y0058199D02*
X0228027Y0058766D01*
X0229161Y0058766D01*
X0226045Y0058199D02*
X0226045Y0057064D01*
X0225478Y0056497D01*
X0223776Y0056497D01*
X0223776Y0055363D02*
X0223776Y0058766D01*
X0225478Y0058766D01*
X0226045Y0058199D01*
X0222362Y0058766D02*
X0220093Y0058766D01*
X0221227Y0058766D02*
X0221227Y0055363D01*
X0217385Y0054867D02*
X0216818Y0054300D01*
X0215684Y0054300D01*
X0215117Y0054867D01*
X0215117Y0056001D02*
X0216251Y0056569D01*
X0216818Y0056569D01*
X0217385Y0056001D01*
X0217385Y0054867D01*
X0215117Y0056001D02*
X0215117Y0057703D01*
X0217385Y0057703D01*
X0212568Y0057703D02*
X0211434Y0056569D01*
X0210019Y0057136D02*
X0209452Y0057703D01*
X0208318Y0057703D01*
X0207751Y0057136D01*
X0207751Y0054867D01*
X0208318Y0054300D01*
X0209452Y0054300D01*
X0210019Y0054867D01*
X0211434Y0054300D02*
X0213702Y0054300D01*
X0212568Y0054300D02*
X0212568Y0057703D01*
X0236297Y0056818D02*
X0236297Y0055684D01*
X0236864Y0055117D01*
X0236297Y0056818D02*
X0236864Y0057385D01*
X0237431Y0057385D01*
X0239700Y0055117D01*
X0239700Y0057385D01*
X0239700Y0053702D02*
X0239700Y0051434D01*
X0239700Y0052568D02*
X0236297Y0052568D01*
X0237431Y0051434D01*
X0236864Y0050019D02*
X0236297Y0049452D01*
X0236297Y0048318D01*
X0236864Y0047751D01*
X0239133Y0047751D01*
X0239700Y0048318D01*
X0239700Y0049452D01*
X0239133Y0050019D01*
X0238999Y0042885D02*
X0238999Y0040617D01*
X0237297Y0042318D01*
X0240700Y0042318D01*
X0242297Y0042385D02*
X0242297Y0040117D01*
X0243999Y0040117D01*
X0243431Y0041251D01*
X0243431Y0041818D01*
X0243999Y0042385D01*
X0245133Y0042385D01*
X0245700Y0041818D01*
X0245700Y0040684D01*
X0245133Y0040117D01*
X0245133Y0038702D02*
X0245700Y0038135D01*
X0245700Y0037001D01*
X0245133Y0036434D01*
X0242864Y0036434D01*
X0242297Y0037001D01*
X0242297Y0038135D01*
X0242864Y0038702D01*
X0240700Y0039202D02*
X0240700Y0036934D01*
X0238431Y0039202D01*
X0237864Y0039202D01*
X0237297Y0038635D01*
X0237297Y0037501D01*
X0237864Y0036934D01*
X0237864Y0035519D02*
X0238999Y0035519D01*
X0239566Y0034952D01*
X0239566Y0033251D01*
X0239566Y0034385D02*
X0240700Y0035519D01*
X0237864Y0035519D02*
X0237297Y0034952D01*
X0237297Y0033251D01*
X0240700Y0033251D01*
X0240550Y0028703D02*
X0239983Y0028136D01*
X0240550Y0028703D02*
X0241685Y0028703D01*
X0242252Y0028136D01*
X0242252Y0027569D01*
X0239983Y0025300D01*
X0242252Y0025300D01*
X0243666Y0025867D02*
X0244233Y0025300D01*
X0245368Y0025300D01*
X0245935Y0025867D01*
X0245935Y0026434D01*
X0245368Y0027001D01*
X0244801Y0027001D01*
X0245368Y0027001D02*
X0245935Y0027569D01*
X0245935Y0028136D01*
X0245368Y0028703D01*
X0244233Y0028703D01*
X0243666Y0028136D01*
X0238569Y0028136D02*
X0238569Y0027001D01*
X0238001Y0026434D01*
X0236300Y0026434D01*
X0236300Y0025300D02*
X0236300Y0028703D01*
X0238001Y0028703D01*
X0238569Y0028136D01*
X0237434Y0026434D02*
X0238569Y0025300D01*
X0237569Y0020703D02*
X0235300Y0020703D01*
X0235300Y0017300D01*
X0237569Y0017300D01*
X0238983Y0017867D02*
X0239550Y0018434D01*
X0241252Y0018434D01*
X0241252Y0019001D02*
X0241252Y0017300D01*
X0239550Y0017300D01*
X0238983Y0017867D01*
X0240685Y0019569D02*
X0241252Y0019001D01*
X0240685Y0019569D02*
X0239550Y0019569D01*
X0236434Y0019001D02*
X0235300Y0019001D01*
X0242666Y0019001D02*
X0242666Y0017867D01*
X0243233Y0017300D01*
X0244935Y0017300D01*
X0244935Y0016733D02*
X0244935Y0019569D01*
X0243233Y0019569D01*
X0242666Y0019001D01*
X0246349Y0017300D02*
X0247484Y0017300D01*
X0246917Y0017300D02*
X0246917Y0020703D01*
X0246349Y0020703D01*
X0248805Y0019001D02*
X0249372Y0019569D01*
X0250506Y0019569D01*
X0251073Y0019001D01*
X0251073Y0018434D01*
X0248805Y0018434D01*
X0248805Y0017867D02*
X0248805Y0019001D01*
X0248805Y0017867D02*
X0249372Y0017300D01*
X0250506Y0017300D01*
X0244935Y0016733D02*
X0244368Y0016166D01*
X0243801Y0016166D01*
X0243417Y0012703D02*
X0243984Y0012136D01*
X0241716Y0009867D01*
X0242283Y0009300D01*
X0243417Y0009300D01*
X0243984Y0009867D01*
X0243984Y0012136D01*
X0243417Y0012703D02*
X0242283Y0012703D01*
X0241716Y0012136D01*
X0241716Y0009867D01*
X0240301Y0009867D02*
X0239734Y0009300D01*
X0238600Y0009300D01*
X0238033Y0009867D01*
X0240301Y0012136D01*
X0240301Y0009867D01*
X0238033Y0009867D02*
X0238033Y0012136D01*
X0238600Y0012703D01*
X0239734Y0012703D01*
X0240301Y0012136D01*
X0236618Y0012136D02*
X0236618Y0009867D01*
X0236051Y0009300D01*
X0234917Y0009300D01*
X0234349Y0009867D01*
X0236618Y0012136D01*
X0236051Y0012703D01*
X0234917Y0012703D01*
X0234349Y0012136D01*
X0234349Y0009867D01*
X0232935Y0009300D02*
X0230666Y0009300D01*
X0232935Y0011569D01*
X0232935Y0012136D01*
X0232368Y0012703D01*
X0231233Y0012703D01*
X0230666Y0012136D01*
X0229252Y0012136D02*
X0229252Y0011001D01*
X0228685Y0010434D01*
X0226983Y0010434D01*
X0226983Y0009300D02*
X0226983Y0012703D01*
X0228685Y0012703D01*
X0229252Y0012136D01*
X0228117Y0010434D02*
X0229252Y0009300D01*
X0225569Y0009867D02*
X0225569Y0012136D01*
X0225001Y0012703D01*
X0223300Y0012703D01*
X0223300Y0009300D01*
X0225001Y0009300D01*
X0225569Y0009867D01*
X0223557Y0016639D02*
X0221288Y0016639D01*
X0223557Y0018907D01*
X0223557Y0019474D01*
X0222990Y0020041D01*
X0221855Y0020041D01*
X0221288Y0019474D01*
X0219874Y0019474D02*
X0219307Y0020041D01*
X0217605Y0020041D01*
X0217605Y0016639D01*
X0217605Y0017773D02*
X0219307Y0017773D01*
X0219874Y0018340D01*
X0219874Y0019474D01*
X0216191Y0020041D02*
X0213922Y0020041D01*
X0215056Y0020041D02*
X0215056Y0016639D01*
X0210700Y0016934D02*
X0207297Y0016934D01*
X0207297Y0018635D01*
X0207864Y0019202D01*
X0208999Y0019202D01*
X0209566Y0018635D01*
X0209566Y0016934D01*
X0209566Y0018068D02*
X0210700Y0019202D01*
X0210133Y0020617D02*
X0210700Y0021184D01*
X0210700Y0022318D01*
X0210133Y0022885D01*
X0207864Y0022885D01*
X0207297Y0022318D01*
X0207297Y0021184D01*
X0207864Y0020617D01*
X0208431Y0020617D01*
X0208999Y0021184D01*
X0208999Y0022885D01*
X0200251Y0015703D02*
X0200251Y0012300D01*
X0199117Y0012300D02*
X0201385Y0012300D01*
X0197702Y0012867D02*
X0197135Y0012300D01*
X0196001Y0012300D01*
X0195434Y0012867D01*
X0195434Y0015136D01*
X0196001Y0015703D01*
X0197135Y0015703D01*
X0197702Y0015136D01*
X0199117Y0014569D02*
X0200251Y0015703D01*
X0187385Y0015569D02*
X0186818Y0015001D01*
X0187385Y0014434D01*
X0187385Y0013867D01*
X0186818Y0013300D01*
X0185684Y0013300D01*
X0185117Y0013867D01*
X0183702Y0013867D02*
X0183135Y0013300D01*
X0182001Y0013300D01*
X0181434Y0013867D01*
X0181434Y0016136D01*
X0182001Y0016703D01*
X0183135Y0016703D01*
X0183702Y0016136D01*
X0185117Y0016136D02*
X0185684Y0016703D01*
X0186818Y0016703D01*
X0187385Y0016136D01*
X0187385Y0015569D01*
X0186818Y0015001D02*
X0186251Y0015001D01*
X0175318Y0027300D02*
X0175885Y0027867D01*
X0175885Y0028434D01*
X0175318Y0029001D01*
X0173617Y0029001D01*
X0173617Y0027867D01*
X0174184Y0027300D01*
X0175318Y0027300D01*
X0173617Y0029001D02*
X0174751Y0030136D01*
X0175885Y0030703D01*
X0171068Y0030703D02*
X0171068Y0027300D01*
X0169934Y0027300D02*
X0172202Y0027300D01*
X0168519Y0027300D02*
X0167385Y0028434D01*
X0167952Y0028434D02*
X0166251Y0028434D01*
X0166251Y0027300D02*
X0166251Y0030703D01*
X0167952Y0030703D01*
X0168519Y0030136D01*
X0168519Y0029001D01*
X0167952Y0028434D01*
X0169934Y0029569D02*
X0171068Y0030703D01*
X0161192Y0013971D02*
X0160058Y0013971D01*
X0159491Y0013403D01*
X0159491Y0012836D01*
X0160058Y0012269D01*
X0161759Y0012269D01*
X0161759Y0011135D02*
X0161759Y0013403D01*
X0161192Y0013971D01*
X0158076Y0013403D02*
X0157509Y0013971D01*
X0156375Y0013971D01*
X0155808Y0013403D01*
X0155808Y0011135D01*
X0156375Y0010568D01*
X0157509Y0010568D01*
X0158076Y0011135D01*
X0159491Y0011135D02*
X0160058Y0010568D01*
X0161192Y0010568D01*
X0161759Y0011135D01*
X0123700Y0011519D02*
X0122566Y0010385D01*
X0122566Y0010952D02*
X0122566Y0009251D01*
X0123700Y0009251D02*
X0120297Y0009251D01*
X0120297Y0010952D01*
X0120864Y0011519D01*
X0121999Y0011519D01*
X0122566Y0010952D01*
X0123133Y0012934D02*
X0123700Y0013501D01*
X0123700Y0014635D01*
X0123133Y0015202D01*
X0122566Y0015202D01*
X0121999Y0014635D01*
X0121999Y0014068D01*
X0121999Y0014635D02*
X0121431Y0015202D01*
X0120864Y0015202D01*
X0120297Y0014635D01*
X0120297Y0013501D01*
X0120864Y0012934D01*
X0120864Y0016617D02*
X0120297Y0017184D01*
X0120297Y0018318D01*
X0120864Y0018885D01*
X0121431Y0018885D01*
X0123700Y0016617D01*
X0123700Y0018885D01*
X0115700Y0018818D02*
X0115700Y0017684D01*
X0115133Y0017117D01*
X0114566Y0017117D01*
X0113999Y0017684D01*
X0113999Y0018818D01*
X0114566Y0019385D01*
X0115133Y0019385D01*
X0115700Y0018818D01*
X0113999Y0018818D02*
X0113431Y0019385D01*
X0112864Y0019385D01*
X0112297Y0018818D01*
X0112297Y0017684D01*
X0112864Y0017117D01*
X0113431Y0017117D01*
X0113999Y0017684D01*
X0115133Y0015702D02*
X0115700Y0015135D01*
X0115700Y0014001D01*
X0115133Y0013434D01*
X0112864Y0013434D01*
X0112297Y0014001D01*
X0112297Y0015135D01*
X0112864Y0015702D01*
X0107700Y0014685D02*
X0107700Y0013550D01*
X0107133Y0012983D01*
X0107700Y0011569D02*
X0106566Y0010434D01*
X0106566Y0011001D02*
X0106566Y0009300D01*
X0107700Y0009300D02*
X0104297Y0009300D01*
X0104297Y0011001D01*
X0104864Y0011569D01*
X0105999Y0011569D01*
X0106566Y0011001D01*
X0104864Y0012983D02*
X0104297Y0013550D01*
X0104297Y0014685D01*
X0104864Y0015252D01*
X0105431Y0015252D01*
X0105999Y0014685D01*
X0106566Y0015252D01*
X0107133Y0015252D01*
X0107700Y0014685D01*
X0105999Y0014685D02*
X0105999Y0014117D01*
X0107133Y0016666D02*
X0107700Y0017233D01*
X0107700Y0018368D01*
X0107133Y0018935D01*
X0106566Y0018935D01*
X0105999Y0018368D01*
X0105999Y0017801D01*
X0105999Y0018368D02*
X0105431Y0018935D01*
X0104864Y0018935D01*
X0104297Y0018368D01*
X0104297Y0017233D01*
X0104864Y0016666D01*
X0089700Y0038300D02*
X0086297Y0038300D01*
X0086297Y0040001D01*
X0086864Y0040569D01*
X0087999Y0040569D01*
X0088566Y0040001D01*
X0088566Y0038300D01*
X0088566Y0039434D02*
X0089700Y0040569D01*
X0089133Y0041983D02*
X0089700Y0042550D01*
X0089700Y0043685D01*
X0089133Y0044252D01*
X0088566Y0044252D01*
X0087999Y0043685D01*
X0087999Y0043117D01*
X0087999Y0043685D02*
X0087431Y0044252D01*
X0086864Y0044252D01*
X0086297Y0043685D01*
X0086297Y0042550D01*
X0086864Y0041983D01*
X0087431Y0045666D02*
X0086297Y0046801D01*
X0089700Y0046801D01*
X0089700Y0047935D02*
X0089700Y0045666D01*
X0081368Y0054300D02*
X0081368Y0057703D01*
X0079666Y0056001D01*
X0081935Y0056001D01*
X0085251Y0056300D02*
X0085251Y0059703D01*
X0086952Y0059703D01*
X0087519Y0059136D01*
X0087519Y0058001D01*
X0086952Y0057434D01*
X0085251Y0057434D01*
X0086385Y0057434D02*
X0087519Y0056300D01*
X0088934Y0056300D02*
X0091202Y0056300D01*
X0090068Y0056300D02*
X0090068Y0059703D01*
X0088934Y0058569D01*
X0092617Y0059703D02*
X0094885Y0059703D01*
X0094885Y0059136D01*
X0092617Y0056867D01*
X0092617Y0056300D01*
X0078252Y0054300D02*
X0075983Y0054300D01*
X0077117Y0054300D02*
X0077117Y0057703D01*
X0075983Y0056569D01*
X0074569Y0057136D02*
X0074001Y0057703D01*
X0072300Y0057703D01*
X0072300Y0054300D01*
X0072300Y0055434D02*
X0074001Y0055434D01*
X0074569Y0056001D01*
X0074569Y0057136D01*
X0073434Y0055434D02*
X0074569Y0054300D01*
X0065435Y0056867D02*
X0065435Y0057434D01*
X0064868Y0058001D01*
X0064301Y0058001D01*
X0064868Y0058001D02*
X0065435Y0058569D01*
X0065435Y0059136D01*
X0064868Y0059703D01*
X0063733Y0059703D01*
X0063166Y0059136D01*
X0060617Y0059703D02*
X0059483Y0058569D01*
X0058069Y0059136D02*
X0057501Y0059703D01*
X0056367Y0059703D01*
X0055800Y0059136D01*
X0055800Y0056867D01*
X0056367Y0056300D01*
X0057501Y0056300D01*
X0058069Y0056867D01*
X0059483Y0056300D02*
X0061752Y0056300D01*
X0060617Y0056300D02*
X0060617Y0059703D01*
X0063166Y0056867D02*
X0063733Y0056300D01*
X0064868Y0056300D01*
X0065435Y0056867D01*
X0065297Y0064251D02*
X0065297Y0065952D01*
X0065864Y0066519D01*
X0066999Y0066519D01*
X0067566Y0065952D01*
X0067566Y0064251D01*
X0067566Y0065385D02*
X0068700Y0066519D01*
X0068700Y0067934D02*
X0068700Y0070202D01*
X0068700Y0069068D02*
X0065297Y0069068D01*
X0066431Y0067934D01*
X0065297Y0064251D02*
X0068700Y0064251D01*
X0068700Y0071617D02*
X0066431Y0073885D01*
X0065864Y0073885D01*
X0065297Y0073318D01*
X0065297Y0072184D01*
X0065864Y0071617D01*
X0068700Y0071617D02*
X0068700Y0073885D01*
X0074297Y0089300D02*
X0077133Y0089300D01*
X0077700Y0089867D01*
X0077700Y0091001D01*
X0077133Y0091569D01*
X0074297Y0091569D01*
X0074297Y0092983D02*
X0074297Y0095252D01*
X0074864Y0095252D01*
X0077133Y0092983D01*
X0077700Y0092983D01*
X0085751Y0093867D02*
X0086318Y0093300D01*
X0087452Y0093300D01*
X0088019Y0093867D01*
X0089434Y0093300D02*
X0091702Y0093300D01*
X0090568Y0093300D02*
X0090568Y0096703D01*
X0089434Y0095569D01*
X0088019Y0096136D02*
X0087452Y0096703D01*
X0086318Y0096703D01*
X0085751Y0096136D01*
X0085751Y0093867D01*
X0093117Y0093867D02*
X0093684Y0093300D01*
X0094818Y0093300D01*
X0095385Y0093867D01*
X0095385Y0096136D01*
X0093117Y0093867D01*
X0093117Y0096136D01*
X0093684Y0096703D01*
X0094818Y0096703D01*
X0095385Y0096136D01*
X0109300Y0096434D02*
X0111001Y0096434D01*
X0111569Y0097001D01*
X0111569Y0098136D01*
X0111001Y0098703D01*
X0109300Y0098703D01*
X0109300Y0095300D01*
X0110434Y0096434D02*
X0111569Y0095300D01*
X0112983Y0095300D02*
X0115252Y0097569D01*
X0115252Y0098136D01*
X0114685Y0098703D01*
X0113550Y0098703D01*
X0112983Y0098136D01*
X0112983Y0095300D02*
X0115252Y0095300D01*
X0104700Y0086685D02*
X0104700Y0085550D01*
X0104133Y0084983D01*
X0104700Y0083569D02*
X0103566Y0082434D01*
X0103566Y0083001D02*
X0103566Y0081300D01*
X0104700Y0081300D02*
X0101297Y0081300D01*
X0101297Y0083001D01*
X0101864Y0083569D01*
X0102999Y0083569D01*
X0103566Y0083001D01*
X0101864Y0084983D02*
X0101297Y0085550D01*
X0101297Y0086685D01*
X0101864Y0087252D01*
X0102431Y0087252D01*
X0102999Y0086685D01*
X0103566Y0087252D01*
X0104133Y0087252D01*
X0104700Y0086685D01*
X0102999Y0086685D02*
X0102999Y0086117D01*
X0102999Y0079252D02*
X0102999Y0076983D01*
X0101297Y0078685D01*
X0104700Y0078685D01*
X0104700Y0075569D02*
X0103566Y0074434D01*
X0103566Y0075001D02*
X0103566Y0073300D01*
X0104700Y0073300D02*
X0101297Y0073300D01*
X0101297Y0075001D01*
X0101864Y0075569D01*
X0102999Y0075569D01*
X0103566Y0075001D01*
X0120300Y0069703D02*
X0120300Y0066300D01*
X0120300Y0067434D02*
X0122001Y0067434D01*
X0122569Y0068001D01*
X0122569Y0069136D01*
X0122001Y0069703D01*
X0120300Y0069703D01*
X0121434Y0067434D02*
X0122569Y0066300D01*
X0123983Y0066867D02*
X0124550Y0066300D01*
X0125685Y0066300D01*
X0126252Y0066867D01*
X0126252Y0068001D01*
X0125685Y0068569D01*
X0125117Y0068569D01*
X0123983Y0068001D01*
X0123983Y0069703D01*
X0126252Y0069703D01*
X0137751Y0077867D02*
X0138318Y0077300D01*
X0139452Y0077300D01*
X0140019Y0077867D01*
X0141434Y0077300D02*
X0143702Y0077300D01*
X0142568Y0077300D02*
X0142568Y0080703D01*
X0141434Y0079569D01*
X0140019Y0080136D02*
X0139452Y0080703D01*
X0138318Y0080703D01*
X0137751Y0080136D01*
X0137751Y0077867D01*
X0145117Y0077867D02*
X0145117Y0078434D01*
X0145684Y0079001D01*
X0146818Y0079001D01*
X0147385Y0078434D01*
X0147385Y0077867D01*
X0146818Y0077300D01*
X0145684Y0077300D01*
X0145117Y0077867D01*
X0145684Y0079001D02*
X0145117Y0079569D01*
X0145117Y0080136D01*
X0145684Y0080703D01*
X0146818Y0080703D01*
X0147385Y0080136D01*
X0147385Y0079569D01*
X0146818Y0079001D01*
X0150387Y0079734D02*
X0150387Y0076899D01*
X0150954Y0076331D01*
X0152088Y0076331D01*
X0152655Y0076899D01*
X0152655Y0079734D01*
X0154070Y0079167D02*
X0154637Y0079734D01*
X0155771Y0079734D01*
X0156338Y0079167D01*
X0156338Y0078600D01*
X0154070Y0076331D01*
X0156338Y0076331D01*
X0157753Y0076899D02*
X0158320Y0076331D01*
X0159454Y0076331D01*
X0160022Y0076899D01*
X0160022Y0077466D01*
X0159454Y0078033D01*
X0158887Y0078033D01*
X0159454Y0078033D02*
X0160022Y0078600D01*
X0160022Y0079167D01*
X0159454Y0079734D01*
X0158320Y0079734D01*
X0157753Y0079167D01*
X0174251Y0071703D02*
X0175952Y0071703D01*
X0176519Y0071136D01*
X0176519Y0070001D01*
X0175952Y0069434D01*
X0174251Y0069434D01*
X0175385Y0069434D02*
X0176519Y0068300D01*
X0177934Y0068867D02*
X0178501Y0068300D01*
X0179635Y0068300D01*
X0180202Y0068867D01*
X0180202Y0069434D01*
X0179635Y0070001D01*
X0179068Y0070001D01*
X0179635Y0070001D02*
X0180202Y0070569D01*
X0180202Y0071136D01*
X0179635Y0071703D01*
X0178501Y0071703D01*
X0177934Y0071136D01*
X0181617Y0071136D02*
X0181617Y0070569D01*
X0182184Y0070001D01*
X0183318Y0070001D01*
X0183885Y0069434D01*
X0183885Y0068867D01*
X0183318Y0068300D01*
X0182184Y0068300D01*
X0181617Y0068867D01*
X0181617Y0069434D01*
X0182184Y0070001D01*
X0183318Y0070001D02*
X0183885Y0070569D01*
X0183885Y0071136D01*
X0183318Y0071703D01*
X0182184Y0071703D01*
X0181617Y0071136D01*
X0174251Y0071703D02*
X0174251Y0068300D01*
X0180367Y0087300D02*
X0181501Y0087300D01*
X0182069Y0087867D01*
X0183483Y0087300D02*
X0185752Y0087300D01*
X0184617Y0087300D02*
X0184617Y0090703D01*
X0183483Y0089569D01*
X0182069Y0090136D02*
X0181501Y0090703D01*
X0180367Y0090703D01*
X0179800Y0090136D01*
X0179800Y0087867D01*
X0180367Y0087300D01*
X0180752Y0097300D02*
X0178483Y0097300D01*
X0179617Y0097300D02*
X0179617Y0100703D01*
X0178483Y0099569D01*
X0177069Y0100136D02*
X0176501Y0100703D01*
X0175367Y0100703D01*
X0174800Y0100136D01*
X0174800Y0097867D01*
X0175367Y0097300D01*
X0176501Y0097300D01*
X0177069Y0097867D01*
X0182166Y0097867D02*
X0182166Y0097300D01*
X0182166Y0097867D02*
X0184435Y0100136D01*
X0184435Y0100703D01*
X0182166Y0100703D01*
X0142935Y0099001D02*
X0140666Y0099001D01*
X0142368Y0100703D01*
X0142368Y0097300D01*
X0139252Y0097867D02*
X0138685Y0097300D01*
X0137550Y0097300D01*
X0136983Y0097867D01*
X0135569Y0097300D02*
X0134434Y0098434D01*
X0135001Y0098434D02*
X0133300Y0098434D01*
X0133300Y0097300D02*
X0133300Y0100703D01*
X0135001Y0100703D01*
X0135569Y0100136D01*
X0135569Y0099001D01*
X0135001Y0098434D01*
X0136983Y0100136D02*
X0137550Y0100703D01*
X0138685Y0100703D01*
X0139252Y0100136D01*
X0139252Y0099569D01*
X0138685Y0099001D01*
X0139252Y0098434D01*
X0139252Y0097867D01*
X0138685Y0099001D02*
X0138117Y0099001D01*
X0132700Y0087885D02*
X0132700Y0085617D01*
X0132700Y0086751D02*
X0129297Y0086751D01*
X0130431Y0085617D01*
X0129864Y0084202D02*
X0130999Y0084202D01*
X0131566Y0083635D01*
X0131566Y0081934D01*
X0132700Y0081934D02*
X0129297Y0081934D01*
X0129297Y0083635D01*
X0129864Y0084202D01*
X0131566Y0083068D02*
X0132700Y0084202D01*
X0060700Y0091251D02*
X0057297Y0091251D01*
X0057297Y0092952D01*
X0057864Y0093519D01*
X0058999Y0093519D01*
X0059566Y0092952D01*
X0059566Y0091251D01*
X0059566Y0092385D02*
X0060700Y0093519D01*
X0060700Y0094934D02*
X0060700Y0097202D01*
X0060700Y0096068D02*
X0057297Y0096068D01*
X0058431Y0094934D01*
X0058431Y0098617D02*
X0057297Y0099751D01*
X0060700Y0099751D01*
X0060700Y0098617D02*
X0060700Y0100885D01*
X0016700Y0101368D02*
X0016700Y0100233D01*
X0016133Y0099666D01*
X0013864Y0101935D01*
X0016133Y0101935D01*
X0016700Y0101368D01*
X0016133Y0099666D02*
X0013864Y0099666D01*
X0013297Y0100233D01*
X0013297Y0101368D01*
X0013864Y0101935D01*
X0016700Y0098252D02*
X0016700Y0095983D01*
X0016700Y0097117D02*
X0013297Y0097117D01*
X0014431Y0095983D01*
X0013864Y0094569D02*
X0014999Y0094569D01*
X0015566Y0094001D01*
X0015566Y0092300D01*
X0016700Y0092300D02*
X0013297Y0092300D01*
X0013297Y0094001D01*
X0013864Y0094569D01*
X0015566Y0093434D02*
X0016700Y0094569D01*
X0015885Y0082703D02*
X0013617Y0082703D01*
X0013617Y0081001D01*
X0014751Y0081569D01*
X0015318Y0081569D01*
X0015885Y0081001D01*
X0015885Y0079867D01*
X0015318Y0079300D01*
X0014184Y0079300D01*
X0013617Y0079867D01*
X0012202Y0081001D02*
X0011635Y0080434D01*
X0009934Y0080434D01*
X0009934Y0079300D02*
X0009934Y0082703D01*
X0011635Y0082703D01*
X0012202Y0082136D01*
X0012202Y0081001D01*
X0008519Y0082703D02*
X0006251Y0082703D01*
X0007385Y0082703D02*
X0007385Y0079300D01*
X0006999Y0076252D02*
X0006999Y0073983D01*
X0005297Y0075685D01*
X0008700Y0075685D01*
X0008133Y0072569D02*
X0008700Y0072001D01*
X0008700Y0070867D01*
X0008133Y0070300D01*
X0005864Y0070300D01*
X0005297Y0070867D01*
X0005297Y0072001D01*
X0005864Y0072569D01*
X0020297Y0073233D02*
X0020864Y0072666D01*
X0021431Y0072666D01*
X0021999Y0073233D01*
X0021999Y0074935D01*
X0023133Y0074935D02*
X0020864Y0074935D01*
X0020297Y0074368D01*
X0020297Y0073233D01*
X0023133Y0072666D02*
X0023700Y0073233D01*
X0023700Y0074368D01*
X0023133Y0074935D01*
X0023700Y0071252D02*
X0023700Y0068983D01*
X0023700Y0070117D02*
X0020297Y0070117D01*
X0021431Y0068983D01*
X0020864Y0067569D02*
X0021999Y0067569D01*
X0022566Y0067001D01*
X0022566Y0065300D01*
X0023700Y0065300D02*
X0020297Y0065300D01*
X0020297Y0067001D01*
X0020864Y0067569D01*
X0022566Y0066434D02*
X0023700Y0067569D01*
X0008700Y0061368D02*
X0008700Y0060233D01*
X0008133Y0059666D01*
X0005864Y0061935D01*
X0008133Y0061935D01*
X0008700Y0061368D01*
X0008133Y0059666D02*
X0005864Y0059666D01*
X0005297Y0060233D01*
X0005297Y0061368D01*
X0005864Y0061935D01*
X0005864Y0058252D02*
X0005297Y0057685D01*
X0005297Y0056550D01*
X0005864Y0055983D01*
X0005864Y0054569D02*
X0006999Y0054569D01*
X0007566Y0054001D01*
X0007566Y0052300D01*
X0008700Y0052300D02*
X0005297Y0052300D01*
X0005297Y0054001D01*
X0005864Y0054569D01*
X0007566Y0053434D02*
X0008700Y0054569D01*
X0008700Y0055983D02*
X0006431Y0058252D01*
X0005864Y0058252D01*
X0008700Y0058252D02*
X0008700Y0055983D01*
X0008501Y0046203D02*
X0007934Y0045636D01*
X0007934Y0043367D01*
X0008501Y0042800D01*
X0009635Y0042800D01*
X0010202Y0043367D01*
X0011617Y0043367D02*
X0012184Y0042800D01*
X0013318Y0042800D01*
X0013885Y0043367D01*
X0013885Y0043934D01*
X0013318Y0044501D01*
X0011617Y0044501D01*
X0011617Y0043367D01*
X0011617Y0044501D02*
X0012751Y0045636D01*
X0013885Y0046203D01*
X0010202Y0045636D02*
X0009635Y0046203D01*
X0008501Y0046203D01*
X0008001Y0041703D02*
X0008569Y0041136D01*
X0008569Y0040001D01*
X0008001Y0039434D01*
X0006300Y0039434D01*
X0006300Y0038300D02*
X0006300Y0041703D01*
X0008001Y0041703D01*
X0009983Y0041136D02*
X0010550Y0041703D01*
X0011685Y0041703D01*
X0012252Y0041136D01*
X0012252Y0040569D01*
X0009983Y0038300D01*
X0012252Y0038300D01*
X0013666Y0038300D02*
X0015935Y0038300D01*
X0014801Y0038300D02*
X0014801Y0041703D01*
X0013666Y0040569D01*
X0008569Y0038300D02*
X0007434Y0039434D01*
X0029297Y0039251D02*
X0029297Y0040952D01*
X0029864Y0041519D01*
X0030999Y0041519D01*
X0031566Y0040952D01*
X0031566Y0039251D01*
X0031566Y0040385D02*
X0032700Y0041519D01*
X0032700Y0042934D02*
X0032700Y0045202D01*
X0032700Y0044068D02*
X0029297Y0044068D01*
X0030431Y0042934D01*
X0029297Y0039251D02*
X0032700Y0039251D01*
X0032133Y0046617D02*
X0031566Y0046617D01*
X0030999Y0047184D01*
X0030999Y0048318D01*
X0031566Y0048885D01*
X0032133Y0048885D01*
X0032700Y0048318D01*
X0032700Y0047184D01*
X0032133Y0046617D01*
X0030999Y0047184D02*
X0030431Y0046617D01*
X0029864Y0046617D01*
X0029297Y0047184D01*
X0029297Y0048318D01*
X0029864Y0048885D01*
X0030431Y0048885D01*
X0030999Y0048318D01*
X0051251Y0042703D02*
X0051251Y0039300D01*
X0051251Y0040434D02*
X0052952Y0040434D01*
X0053519Y0041001D01*
X0053519Y0042136D01*
X0052952Y0042703D01*
X0051251Y0042703D01*
X0054934Y0042136D02*
X0055501Y0042703D01*
X0056635Y0042703D01*
X0057202Y0042136D01*
X0057202Y0041569D01*
X0054934Y0039300D01*
X0057202Y0039300D01*
X0058617Y0039300D02*
X0060885Y0041569D01*
X0060885Y0042136D01*
X0060318Y0042703D01*
X0059184Y0042703D01*
X0058617Y0042136D01*
X0058617Y0039300D02*
X0060885Y0039300D01*
X0063592Y0039237D02*
X0063592Y0042640D01*
X0064726Y0042640D02*
X0062457Y0042640D01*
X0066141Y0042640D02*
X0067842Y0042640D01*
X0068409Y0042073D01*
X0068409Y0040938D01*
X0067842Y0040371D01*
X0066141Y0040371D01*
X0066141Y0039237D02*
X0066141Y0042640D01*
X0069824Y0040938D02*
X0072092Y0040938D01*
X0071525Y0039237D02*
X0071525Y0042640D01*
X0069824Y0040938D01*
X0053519Y0039300D02*
X0052385Y0040434D01*
X0051318Y0025203D02*
X0050184Y0025203D01*
X0049617Y0024636D01*
X0048202Y0024636D02*
X0047635Y0025203D01*
X0046501Y0025203D01*
X0045934Y0024636D01*
X0045934Y0022367D01*
X0046501Y0021800D01*
X0047635Y0021800D01*
X0048202Y0022367D01*
X0049617Y0021800D02*
X0051885Y0024069D01*
X0051885Y0024636D01*
X0051318Y0025203D01*
X0051885Y0021800D02*
X0049617Y0021800D01*
X0050400Y0020600D02*
X0050400Y0018400D01*
X0050400Y0020600D02*
X0053600Y0020600D01*
X0041700Y0020117D02*
X0038297Y0020117D01*
X0039431Y0018983D01*
X0038864Y0017569D02*
X0039999Y0017569D01*
X0040566Y0017001D01*
X0040566Y0015300D01*
X0041700Y0015300D02*
X0038297Y0015300D01*
X0038297Y0017001D01*
X0038864Y0017569D01*
X0040566Y0016434D02*
X0041700Y0017569D01*
X0041700Y0018983D02*
X0041700Y0021252D01*
X0041133Y0022666D02*
X0041700Y0023233D01*
X0041700Y0024368D01*
X0041133Y0024935D01*
X0040566Y0024935D01*
X0039999Y0024368D01*
X0039999Y0023801D01*
X0039999Y0024368D02*
X0039431Y0024935D01*
X0038864Y0024935D01*
X0038297Y0024368D01*
X0038297Y0023233D01*
X0038864Y0022666D01*
X0050400Y0011600D02*
X0050400Y0009400D01*
X0053600Y0009400D01*
X0048949Y0007729D02*
X0046680Y0007729D01*
X0047814Y0007729D02*
X0047814Y0011132D01*
X0046680Y0009998D01*
X0045265Y0010565D02*
X0044698Y0011132D01*
X0042997Y0011132D01*
X0042997Y0007729D01*
X0044698Y0007729D01*
X0045265Y0008296D01*
X0045265Y0010565D01*
X0245399Y0009867D02*
X0245966Y0009300D01*
X0247100Y0009300D01*
X0247667Y0009867D01*
X0247667Y0012136D01*
X0245399Y0009867D01*
X0245399Y0012136D01*
X0245966Y0012703D01*
X0247100Y0012703D01*
X0247667Y0012136D01*
X0249082Y0011569D02*
X0250216Y0012703D01*
X0250216Y0009300D01*
X0249082Y0009300D02*
X0251351Y0009300D01*
X0252765Y0009300D02*
X0255034Y0009300D01*
X0253899Y0009300D02*
X0253899Y0012703D01*
X0252765Y0011569D01*
X0256448Y0011001D02*
X0258717Y0011001D01*
X0260131Y0011001D02*
X0262400Y0011001D01*
X0263815Y0009867D02*
X0264382Y0009300D01*
X0265516Y0009300D01*
X0266083Y0009867D01*
X0266083Y0012136D01*
X0263815Y0009867D01*
X0263815Y0012136D01*
X0264382Y0012703D01*
X0265516Y0012703D01*
X0266083Y0012136D01*
X0267498Y0011001D02*
X0269766Y0011001D01*
X0269199Y0009300D02*
X0269199Y0012703D01*
X0267498Y0011001D01*
X0258150Y0009300D02*
X0258150Y0012703D01*
X0256448Y0011001D01*
X0257305Y0017300D02*
X0257305Y0020703D01*
X0256171Y0020703D02*
X0258440Y0020703D01*
X0259854Y0019001D02*
X0260421Y0019569D01*
X0261556Y0019569D01*
X0262123Y0019001D01*
X0262123Y0018434D01*
X0259854Y0018434D01*
X0259854Y0017867D02*
X0259854Y0019001D01*
X0259854Y0017867D02*
X0260421Y0017300D01*
X0261556Y0017300D01*
X0263537Y0017867D02*
X0263537Y0019001D01*
X0264105Y0019569D01*
X0265806Y0019569D01*
X0267221Y0019001D02*
X0267788Y0019569D01*
X0268922Y0019569D01*
X0269489Y0019001D01*
X0269489Y0017300D01*
X0267221Y0017300D02*
X0267221Y0020703D01*
X0265806Y0017300D02*
X0264105Y0017300D01*
X0263537Y0017867D01*
D12*
X0065992Y0087677D03*
D13*
X0055780Y0098780D02*
X0055780Y0071220D01*
X0028220Y0071220D01*
X0028220Y0098780D01*
X0055780Y0098780D01*
X0050906Y0058331D02*
X0039094Y0058331D01*
X0039094Y0049669D01*
X0050906Y0049669D01*
X0050906Y0058331D01*
X0063000Y0048000D02*
X0063002Y0048126D01*
X0063008Y0048252D01*
X0063018Y0048378D01*
X0063032Y0048504D01*
X0063050Y0048629D01*
X0063072Y0048753D01*
X0063097Y0048877D01*
X0063127Y0049000D01*
X0063160Y0049121D01*
X0063198Y0049242D01*
X0063239Y0049361D01*
X0063284Y0049480D01*
X0063332Y0049596D01*
X0063384Y0049711D01*
X0063440Y0049824D01*
X0063500Y0049936D01*
X0063563Y0050045D01*
X0063629Y0050153D01*
X0063698Y0050258D01*
X0063771Y0050361D01*
X0063848Y0050462D01*
X0063927Y0050560D01*
X0064009Y0050656D01*
X0064095Y0050749D01*
X0064183Y0050840D01*
X0064274Y0050927D01*
X0064368Y0051012D01*
X0064464Y0051093D01*
X0064563Y0051172D01*
X0064664Y0051247D01*
X0064768Y0051319D01*
X0064874Y0051388D01*
X0064982Y0051454D01*
X0065092Y0051516D01*
X0065204Y0051574D01*
X0065317Y0051629D01*
X0065433Y0051680D01*
X0065550Y0051728D01*
X0065668Y0051772D01*
X0065788Y0051812D01*
X0065909Y0051848D01*
X0066031Y0051881D01*
X0066154Y0051910D01*
X0066278Y0051934D01*
X0066402Y0051955D01*
X0066527Y0051972D01*
X0066653Y0051985D01*
X0066779Y0051994D01*
X0066905Y0051999D01*
X0067032Y0052000D01*
X0067158Y0051997D01*
X0067284Y0051990D01*
X0067410Y0051979D01*
X0067535Y0051964D01*
X0067660Y0051945D01*
X0067784Y0051922D01*
X0067908Y0051896D01*
X0068030Y0051865D01*
X0068152Y0051831D01*
X0068272Y0051792D01*
X0068391Y0051750D01*
X0068509Y0051705D01*
X0068625Y0051655D01*
X0068740Y0051602D01*
X0068852Y0051545D01*
X0068963Y0051485D01*
X0069072Y0051421D01*
X0069179Y0051354D01*
X0069284Y0051284D01*
X0069387Y0051210D01*
X0069487Y0051133D01*
X0069585Y0051053D01*
X0069680Y0050970D01*
X0069772Y0050884D01*
X0069862Y0050795D01*
X0069949Y0050703D01*
X0070032Y0050609D01*
X0070113Y0050512D01*
X0070191Y0050412D01*
X0070266Y0050310D01*
X0070337Y0050206D01*
X0070405Y0050099D01*
X0070469Y0049991D01*
X0070530Y0049880D01*
X0070588Y0049768D01*
X0070642Y0049654D01*
X0070692Y0049538D01*
X0070739Y0049421D01*
X0070782Y0049302D01*
X0070821Y0049182D01*
X0070857Y0049061D01*
X0070888Y0048938D01*
X0070916Y0048815D01*
X0070940Y0048691D01*
X0070960Y0048566D01*
X0070976Y0048441D01*
X0070988Y0048315D01*
X0070996Y0048189D01*
X0071000Y0048063D01*
X0071000Y0047937D01*
X0070996Y0047811D01*
X0070988Y0047685D01*
X0070976Y0047559D01*
X0070960Y0047434D01*
X0070940Y0047309D01*
X0070916Y0047185D01*
X0070888Y0047062D01*
X0070857Y0046939D01*
X0070821Y0046818D01*
X0070782Y0046698D01*
X0070739Y0046579D01*
X0070692Y0046462D01*
X0070642Y0046346D01*
X0070588Y0046232D01*
X0070530Y0046120D01*
X0070469Y0046009D01*
X0070405Y0045901D01*
X0070337Y0045794D01*
X0070266Y0045690D01*
X0070191Y0045588D01*
X0070113Y0045488D01*
X0070032Y0045391D01*
X0069949Y0045297D01*
X0069862Y0045205D01*
X0069772Y0045116D01*
X0069680Y0045030D01*
X0069585Y0044947D01*
X0069487Y0044867D01*
X0069387Y0044790D01*
X0069284Y0044716D01*
X0069179Y0044646D01*
X0069072Y0044579D01*
X0068963Y0044515D01*
X0068852Y0044455D01*
X0068740Y0044398D01*
X0068625Y0044345D01*
X0068509Y0044295D01*
X0068391Y0044250D01*
X0068272Y0044208D01*
X0068152Y0044169D01*
X0068030Y0044135D01*
X0067908Y0044104D01*
X0067784Y0044078D01*
X0067660Y0044055D01*
X0067535Y0044036D01*
X0067410Y0044021D01*
X0067284Y0044010D01*
X0067158Y0044003D01*
X0067032Y0044000D01*
X0066905Y0044001D01*
X0066779Y0044006D01*
X0066653Y0044015D01*
X0066527Y0044028D01*
X0066402Y0044045D01*
X0066278Y0044066D01*
X0066154Y0044090D01*
X0066031Y0044119D01*
X0065909Y0044152D01*
X0065788Y0044188D01*
X0065668Y0044228D01*
X0065550Y0044272D01*
X0065433Y0044320D01*
X0065317Y0044371D01*
X0065204Y0044426D01*
X0065092Y0044484D01*
X0064982Y0044546D01*
X0064874Y0044612D01*
X0064768Y0044681D01*
X0064664Y0044753D01*
X0064563Y0044828D01*
X0064464Y0044907D01*
X0064368Y0044988D01*
X0064274Y0045073D01*
X0064183Y0045160D01*
X0064095Y0045251D01*
X0064009Y0045344D01*
X0063927Y0045440D01*
X0063848Y0045538D01*
X0063771Y0045639D01*
X0063698Y0045742D01*
X0063629Y0045847D01*
X0063563Y0045955D01*
X0063500Y0046064D01*
X0063440Y0046176D01*
X0063384Y0046289D01*
X0063332Y0046404D01*
X0063284Y0046520D01*
X0063239Y0046639D01*
X0063198Y0046758D01*
X0063160Y0046879D01*
X0063127Y0047000D01*
X0063097Y0047123D01*
X0063072Y0047247D01*
X0063050Y0047371D01*
X0063032Y0047496D01*
X0063018Y0047622D01*
X0063008Y0047748D01*
X0063002Y0047874D01*
X0063000Y0048000D01*
X0034780Y0036780D02*
X0007220Y0036780D01*
X0007220Y0009220D01*
X0034780Y0009220D01*
X0034780Y0036780D01*
X0109094Y0044669D02*
X0120906Y0044669D01*
X0120906Y0053331D01*
X0109094Y0053331D01*
X0109094Y0044669D01*
X0168814Y0018551D02*
X0170215Y0019952D01*
X0171616Y0019952D01*
X0173017Y0018551D01*
X0168814Y0016750D02*
X0168814Y0013947D01*
X0173017Y0013947D01*
X0173017Y0012146D02*
X0168814Y0012146D01*
X0170916Y0012146D02*
X0170916Y0009343D01*
X0173017Y0009343D02*
X0168814Y0009343D01*
X0168814Y0007675D02*
X0170215Y0006274D01*
X0171616Y0006274D01*
X0173017Y0007675D01*
X0170916Y0013947D02*
X0170916Y0015348D01*
X0202669Y0033094D02*
X0202669Y0044906D01*
X0211331Y0044906D01*
X0211331Y0033094D01*
X0202669Y0033094D01*
X0211000Y0025000D02*
X0211002Y0025126D01*
X0211008Y0025252D01*
X0211018Y0025378D01*
X0211032Y0025504D01*
X0211050Y0025629D01*
X0211072Y0025753D01*
X0211097Y0025877D01*
X0211127Y0026000D01*
X0211160Y0026121D01*
X0211198Y0026242D01*
X0211239Y0026361D01*
X0211284Y0026480D01*
X0211332Y0026596D01*
X0211384Y0026711D01*
X0211440Y0026824D01*
X0211500Y0026936D01*
X0211563Y0027045D01*
X0211629Y0027153D01*
X0211698Y0027258D01*
X0211771Y0027361D01*
X0211848Y0027462D01*
X0211927Y0027560D01*
X0212009Y0027656D01*
X0212095Y0027749D01*
X0212183Y0027840D01*
X0212274Y0027927D01*
X0212368Y0028012D01*
X0212464Y0028093D01*
X0212563Y0028172D01*
X0212664Y0028247D01*
X0212768Y0028319D01*
X0212874Y0028388D01*
X0212982Y0028454D01*
X0213092Y0028516D01*
X0213204Y0028574D01*
X0213317Y0028629D01*
X0213433Y0028680D01*
X0213550Y0028728D01*
X0213668Y0028772D01*
X0213788Y0028812D01*
X0213909Y0028848D01*
X0214031Y0028881D01*
X0214154Y0028910D01*
X0214278Y0028934D01*
X0214402Y0028955D01*
X0214527Y0028972D01*
X0214653Y0028985D01*
X0214779Y0028994D01*
X0214905Y0028999D01*
X0215032Y0029000D01*
X0215158Y0028997D01*
X0215284Y0028990D01*
X0215410Y0028979D01*
X0215535Y0028964D01*
X0215660Y0028945D01*
X0215784Y0028922D01*
X0215908Y0028896D01*
X0216030Y0028865D01*
X0216152Y0028831D01*
X0216272Y0028792D01*
X0216391Y0028750D01*
X0216509Y0028705D01*
X0216625Y0028655D01*
X0216740Y0028602D01*
X0216852Y0028545D01*
X0216963Y0028485D01*
X0217072Y0028421D01*
X0217179Y0028354D01*
X0217284Y0028284D01*
X0217387Y0028210D01*
X0217487Y0028133D01*
X0217585Y0028053D01*
X0217680Y0027970D01*
X0217772Y0027884D01*
X0217862Y0027795D01*
X0217949Y0027703D01*
X0218032Y0027609D01*
X0218113Y0027512D01*
X0218191Y0027412D01*
X0218266Y0027310D01*
X0218337Y0027206D01*
X0218405Y0027099D01*
X0218469Y0026991D01*
X0218530Y0026880D01*
X0218588Y0026768D01*
X0218642Y0026654D01*
X0218692Y0026538D01*
X0218739Y0026421D01*
X0218782Y0026302D01*
X0218821Y0026182D01*
X0218857Y0026061D01*
X0218888Y0025938D01*
X0218916Y0025815D01*
X0218940Y0025691D01*
X0218960Y0025566D01*
X0218976Y0025441D01*
X0218988Y0025315D01*
X0218996Y0025189D01*
X0219000Y0025063D01*
X0219000Y0024937D01*
X0218996Y0024811D01*
X0218988Y0024685D01*
X0218976Y0024559D01*
X0218960Y0024434D01*
X0218940Y0024309D01*
X0218916Y0024185D01*
X0218888Y0024062D01*
X0218857Y0023939D01*
X0218821Y0023818D01*
X0218782Y0023698D01*
X0218739Y0023579D01*
X0218692Y0023462D01*
X0218642Y0023346D01*
X0218588Y0023232D01*
X0218530Y0023120D01*
X0218469Y0023009D01*
X0218405Y0022901D01*
X0218337Y0022794D01*
X0218266Y0022690D01*
X0218191Y0022588D01*
X0218113Y0022488D01*
X0218032Y0022391D01*
X0217949Y0022297D01*
X0217862Y0022205D01*
X0217772Y0022116D01*
X0217680Y0022030D01*
X0217585Y0021947D01*
X0217487Y0021867D01*
X0217387Y0021790D01*
X0217284Y0021716D01*
X0217179Y0021646D01*
X0217072Y0021579D01*
X0216963Y0021515D01*
X0216852Y0021455D01*
X0216740Y0021398D01*
X0216625Y0021345D01*
X0216509Y0021295D01*
X0216391Y0021250D01*
X0216272Y0021208D01*
X0216152Y0021169D01*
X0216030Y0021135D01*
X0215908Y0021104D01*
X0215784Y0021078D01*
X0215660Y0021055D01*
X0215535Y0021036D01*
X0215410Y0021021D01*
X0215284Y0021010D01*
X0215158Y0021003D01*
X0215032Y0021000D01*
X0214905Y0021001D01*
X0214779Y0021006D01*
X0214653Y0021015D01*
X0214527Y0021028D01*
X0214402Y0021045D01*
X0214278Y0021066D01*
X0214154Y0021090D01*
X0214031Y0021119D01*
X0213909Y0021152D01*
X0213788Y0021188D01*
X0213668Y0021228D01*
X0213550Y0021272D01*
X0213433Y0021320D01*
X0213317Y0021371D01*
X0213204Y0021426D01*
X0213092Y0021484D01*
X0212982Y0021546D01*
X0212874Y0021612D01*
X0212768Y0021681D01*
X0212664Y0021753D01*
X0212563Y0021828D01*
X0212464Y0021907D01*
X0212368Y0021988D01*
X0212274Y0022073D01*
X0212183Y0022160D01*
X0212095Y0022251D01*
X0212009Y0022344D01*
X0211927Y0022440D01*
X0211848Y0022538D01*
X0211771Y0022639D01*
X0211698Y0022742D01*
X0211629Y0022847D01*
X0211563Y0022955D01*
X0211500Y0023064D01*
X0211440Y0023176D01*
X0211384Y0023289D01*
X0211332Y0023404D01*
X0211284Y0023520D01*
X0211239Y0023639D01*
X0211198Y0023758D01*
X0211160Y0023879D01*
X0211127Y0024000D01*
X0211097Y0024123D01*
X0211072Y0024247D01*
X0211050Y0024371D01*
X0211032Y0024496D01*
X0211018Y0024622D01*
X0211008Y0024748D01*
X0211002Y0024874D01*
X0211000Y0025000D01*
X0199600Y0082200D02*
X0199602Y0082240D01*
X0199608Y0082279D01*
X0199618Y0082318D01*
X0199631Y0082355D01*
X0199649Y0082391D01*
X0199670Y0082425D01*
X0199694Y0082457D01*
X0199721Y0082486D01*
X0199751Y0082513D01*
X0199783Y0082536D01*
X0199818Y0082556D01*
X0199854Y0082572D01*
X0199892Y0082585D01*
X0199931Y0082594D01*
X0199970Y0082599D01*
X0200010Y0082600D01*
X0200050Y0082597D01*
X0200089Y0082590D01*
X0200127Y0082579D01*
X0200165Y0082565D01*
X0200200Y0082546D01*
X0200233Y0082525D01*
X0200265Y0082500D01*
X0200293Y0082472D01*
X0200319Y0082442D01*
X0200341Y0082409D01*
X0200360Y0082374D01*
X0200376Y0082337D01*
X0200388Y0082299D01*
X0200396Y0082260D01*
X0200400Y0082220D01*
X0200400Y0082180D01*
X0200396Y0082140D01*
X0200388Y0082101D01*
X0200376Y0082063D01*
X0200360Y0082026D01*
X0200341Y0081991D01*
X0200319Y0081958D01*
X0200293Y0081928D01*
X0200265Y0081900D01*
X0200233Y0081875D01*
X0200200Y0081854D01*
X0200165Y0081835D01*
X0200127Y0081821D01*
X0200089Y0081810D01*
X0200050Y0081803D01*
X0200010Y0081800D01*
X0199970Y0081801D01*
X0199931Y0081806D01*
X0199892Y0081815D01*
X0199854Y0081828D01*
X0199818Y0081844D01*
X0199783Y0081864D01*
X0199751Y0081887D01*
X0199721Y0081914D01*
X0199694Y0081943D01*
X0199670Y0081975D01*
X0199649Y0082009D01*
X0199631Y0082045D01*
X0199618Y0082082D01*
X0199608Y0082121D01*
X0199602Y0082160D01*
X0199600Y0082200D01*
X0234600Y0082200D02*
X0234602Y0082240D01*
X0234608Y0082279D01*
X0234618Y0082318D01*
X0234631Y0082355D01*
X0234649Y0082391D01*
X0234670Y0082425D01*
X0234694Y0082457D01*
X0234721Y0082486D01*
X0234751Y0082513D01*
X0234783Y0082536D01*
X0234818Y0082556D01*
X0234854Y0082572D01*
X0234892Y0082585D01*
X0234931Y0082594D01*
X0234970Y0082599D01*
X0235010Y0082600D01*
X0235050Y0082597D01*
X0235089Y0082590D01*
X0235127Y0082579D01*
X0235165Y0082565D01*
X0235200Y0082546D01*
X0235233Y0082525D01*
X0235265Y0082500D01*
X0235293Y0082472D01*
X0235319Y0082442D01*
X0235341Y0082409D01*
X0235360Y0082374D01*
X0235376Y0082337D01*
X0235388Y0082299D01*
X0235396Y0082260D01*
X0235400Y0082220D01*
X0235400Y0082180D01*
X0235396Y0082140D01*
X0235388Y0082101D01*
X0235376Y0082063D01*
X0235360Y0082026D01*
X0235341Y0081991D01*
X0235319Y0081958D01*
X0235293Y0081928D01*
X0235265Y0081900D01*
X0235233Y0081875D01*
X0235200Y0081854D01*
X0235165Y0081835D01*
X0235127Y0081821D01*
X0235089Y0081810D01*
X0235050Y0081803D01*
X0235010Y0081800D01*
X0234970Y0081801D01*
X0234931Y0081806D01*
X0234892Y0081815D01*
X0234854Y0081828D01*
X0234818Y0081844D01*
X0234783Y0081864D01*
X0234751Y0081887D01*
X0234721Y0081914D01*
X0234694Y0081943D01*
X0234670Y0081975D01*
X0234649Y0082009D01*
X0234631Y0082045D01*
X0234618Y0082082D01*
X0234608Y0082121D01*
X0234602Y0082160D01*
X0234600Y0082200D01*
X0164512Y0085457D02*
X0164512Y0092543D01*
X0153488Y0092543D02*
X0153488Y0085457D01*
D14*
X0119250Y0051750D03*
X0049250Y0056750D03*
X0204250Y0043250D03*
D15*
X0210000Y0048800D02*
X0212000Y0048800D01*
X0212000Y0053200D02*
X0210000Y0053200D01*
X0198756Y0055756D02*
X0198756Y0050244D01*
X0193244Y0050244D01*
X0193244Y0055756D01*
X0198756Y0055756D01*
X0186000Y0054200D02*
X0184000Y0054200D01*
X0184000Y0049800D02*
X0186000Y0049800D01*
X0211250Y0031768D02*
X0211250Y0029433D01*
X0211250Y0030601D02*
X0207747Y0030601D01*
X0208915Y0029433D01*
X0207747Y0028085D02*
X0210666Y0028085D01*
X0211250Y0027501D01*
X0211250Y0026334D01*
X0210666Y0025750D01*
X0207747Y0025750D01*
X0201000Y0021200D02*
X0199000Y0021200D01*
X0199000Y0016800D02*
X0201000Y0016800D01*
X0185500Y0018500D02*
X0182500Y0018500D01*
X0182500Y0023500D02*
X0185500Y0023500D01*
X0230500Y0037500D02*
X0230500Y0040500D01*
X0235500Y0040500D02*
X0235500Y0037500D01*
X0227756Y0049244D02*
X0222244Y0049244D01*
X0222244Y0054756D01*
X0227756Y0054756D01*
X0227756Y0049244D01*
X0230800Y0051000D02*
X0230800Y0053000D01*
X0235200Y0053000D02*
X0235200Y0051000D01*
X0238334Y0079750D02*
X0237750Y0080334D01*
X0237750Y0083253D01*
X0240085Y0083253D02*
X0240085Y0080334D01*
X0239501Y0079750D01*
X0238334Y0079750D01*
X0241433Y0080334D02*
X0242017Y0079750D01*
X0243185Y0079750D01*
X0243768Y0080334D01*
X0243768Y0080918D01*
X0243185Y0081501D01*
X0242601Y0081501D01*
X0243185Y0081501D02*
X0243768Y0082085D01*
X0243768Y0082669D01*
X0243185Y0083253D01*
X0242017Y0083253D01*
X0241433Y0082669D01*
X0178000Y0091800D02*
X0176000Y0091800D01*
X0176000Y0096200D02*
X0178000Y0096200D01*
X0174500Y0087500D02*
X0171500Y0087500D01*
X0171500Y0082500D02*
X0174500Y0082500D01*
X0145500Y0082500D02*
X0142500Y0082500D01*
X0142500Y0087500D02*
X0145500Y0087500D01*
X0092000Y0087800D02*
X0090000Y0087800D01*
X0090000Y0092200D02*
X0092000Y0092200D01*
X0038250Y0066185D02*
X0034747Y0066185D01*
X0036499Y0064433D01*
X0036499Y0066768D01*
X0037666Y0063085D02*
X0034747Y0063085D01*
X0037666Y0063085D02*
X0038250Y0062501D01*
X0038250Y0061334D01*
X0037666Y0060750D01*
X0034747Y0060750D01*
X0015500Y0070500D02*
X0015500Y0073500D01*
X0010500Y0073500D02*
X0010500Y0070500D01*
X0009244Y0085244D02*
X0014756Y0085244D01*
X0014756Y0090756D01*
X0009244Y0090756D01*
X0009244Y0085244D01*
X0054800Y0051000D02*
X0054800Y0049000D01*
X0059200Y0049000D02*
X0059200Y0051000D01*
X0051500Y0033500D02*
X0051500Y0030500D01*
X0046500Y0030500D02*
X0046500Y0033500D01*
X0023500Y0042500D02*
X0020500Y0042500D01*
X0020500Y0047500D02*
X0023500Y0047500D01*
X0111800Y0029000D02*
X0111800Y0027000D01*
X0116200Y0027000D02*
X0116200Y0029000D01*
X0125800Y0044000D02*
X0125800Y0046000D01*
X0130200Y0046000D02*
X0130200Y0044000D01*
D16*
X0098800Y0044800D02*
X0097200Y0044800D01*
X0097200Y0049200D02*
X0098800Y0049200D01*
X0098800Y0054800D02*
X0097200Y0054800D01*
X0092299Y0062567D02*
X0079701Y0062567D01*
X0079628Y0062559D01*
X0079555Y0062554D01*
X0079483Y0062553D01*
X0079410Y0062556D01*
X0079337Y0062563D01*
X0079265Y0062574D01*
X0079194Y0062588D01*
X0079123Y0062606D01*
X0079054Y0062628D01*
X0078985Y0062653D01*
X0078918Y0062682D01*
X0078853Y0062714D01*
X0078790Y0062750D01*
X0078728Y0062789D01*
X0078669Y0062831D01*
X0078612Y0062877D01*
X0078557Y0062925D01*
X0078505Y0062976D01*
X0078456Y0063029D01*
X0078409Y0063085D01*
X0078366Y0063144D01*
X0078325Y0063205D01*
X0078288Y0063267D01*
X0078254Y0063332D01*
X0078224Y0063398D01*
X0078197Y0063466D01*
X0078174Y0063535D01*
X0078154Y0063605D01*
X0078138Y0063676D01*
X0078126Y0063748D01*
X0078126Y0082055D01*
X0078125Y0082055D02*
X0078132Y0082130D01*
X0078143Y0082204D01*
X0078157Y0082278D01*
X0078175Y0082351D01*
X0078197Y0082422D01*
X0078222Y0082493D01*
X0078251Y0082562D01*
X0078284Y0082630D01*
X0078320Y0082696D01*
X0078359Y0082760D01*
X0078401Y0082822D01*
X0078446Y0082881D01*
X0078495Y0082939D01*
X0078546Y0082994D01*
X0078600Y0083046D01*
X0078656Y0083095D01*
X0078715Y0083142D01*
X0078776Y0083185D01*
X0078839Y0083225D01*
X0078904Y0083262D01*
X0078971Y0083296D01*
X0079040Y0083326D01*
X0079110Y0083353D01*
X0079181Y0083376D01*
X0079254Y0083395D01*
X0079327Y0083411D01*
X0079401Y0083423D01*
X0079476Y0083432D01*
X0079551Y0083436D01*
X0079626Y0083437D01*
X0079700Y0083434D01*
X0079701Y0083433D02*
X0084031Y0083433D01*
X0087969Y0083433D01*
X0092299Y0083433D01*
X0092372Y0083441D01*
X0092444Y0083446D01*
X0092517Y0083447D01*
X0092590Y0083444D01*
X0092663Y0083437D01*
X0092735Y0083426D01*
X0092806Y0083412D01*
X0092877Y0083394D01*
X0092946Y0083372D01*
X0093015Y0083347D01*
X0093081Y0083318D01*
X0093147Y0083286D01*
X0093210Y0083250D01*
X0093272Y0083211D01*
X0093331Y0083169D01*
X0093388Y0083123D01*
X0093443Y0083075D01*
X0093495Y0083024D01*
X0093544Y0082971D01*
X0093591Y0082914D01*
X0093634Y0082856D01*
X0093675Y0082795D01*
X0093712Y0082733D01*
X0093746Y0082668D01*
X0093776Y0082602D01*
X0093803Y0082534D01*
X0093826Y0082465D01*
X0093846Y0082395D01*
X0093862Y0082324D01*
X0093874Y0082252D01*
X0093874Y0063748D01*
X0093862Y0063676D01*
X0093846Y0063605D01*
X0093826Y0063535D01*
X0093803Y0063466D01*
X0093776Y0063398D01*
X0093746Y0063332D01*
X0093712Y0063267D01*
X0093675Y0063205D01*
X0093634Y0063144D01*
X0093591Y0063085D01*
X0093544Y0063029D01*
X0093495Y0062976D01*
X0093443Y0062925D01*
X0093388Y0062877D01*
X0093331Y0062831D01*
X0093272Y0062789D01*
X0093210Y0062750D01*
X0093147Y0062714D01*
X0093082Y0062682D01*
X0093015Y0062653D01*
X0092946Y0062628D01*
X0092877Y0062606D01*
X0092806Y0062588D01*
X0092735Y0062574D01*
X0092663Y0062563D01*
X0092590Y0062556D01*
X0092517Y0062553D01*
X0092445Y0062554D01*
X0092372Y0062559D01*
X0092299Y0062567D01*
X0111200Y0065200D02*
X0112800Y0065200D01*
X0112800Y0070800D02*
X0111200Y0070800D01*
X0111200Y0073200D02*
X0112800Y0073200D01*
X0112800Y0078800D02*
X0111200Y0078800D01*
X0111200Y0081200D02*
X0112800Y0081200D01*
X0122200Y0081800D02*
X0122200Y0080200D01*
X0127800Y0080200D02*
X0127800Y0081800D01*
X0112800Y0086800D02*
X0111200Y0086800D01*
X0111200Y0089200D02*
X0112800Y0089200D01*
X0112800Y0094800D02*
X0111200Y0094800D01*
X0087969Y0083433D02*
X0087967Y0083346D01*
X0087961Y0083259D01*
X0087952Y0083172D01*
X0087938Y0083086D01*
X0087921Y0083001D01*
X0087900Y0082916D01*
X0087875Y0082833D01*
X0087847Y0082750D01*
X0087815Y0082669D01*
X0087779Y0082590D01*
X0087740Y0082512D01*
X0087698Y0082436D01*
X0087652Y0082362D01*
X0087603Y0082290D01*
X0087551Y0082220D01*
X0087496Y0082153D01*
X0087438Y0082088D01*
X0087377Y0082025D01*
X0087313Y0081966D01*
X0087247Y0081909D01*
X0087178Y0081856D01*
X0087107Y0081805D01*
X0087034Y0081758D01*
X0086959Y0081713D01*
X0086882Y0081673D01*
X0086804Y0081635D01*
X0086723Y0081602D01*
X0086642Y0081571D01*
X0086559Y0081545D01*
X0086474Y0081522D01*
X0086389Y0081503D01*
X0086304Y0081488D01*
X0086217Y0081476D01*
X0086131Y0081468D01*
X0086044Y0081464D01*
X0085956Y0081464D01*
X0085869Y0081468D01*
X0085783Y0081476D01*
X0085696Y0081488D01*
X0085611Y0081503D01*
X0085526Y0081522D01*
X0085441Y0081545D01*
X0085358Y0081571D01*
X0085277Y0081602D01*
X0085196Y0081635D01*
X0085118Y0081673D01*
X0085041Y0081713D01*
X0084966Y0081758D01*
X0084893Y0081805D01*
X0084822Y0081856D01*
X0084753Y0081909D01*
X0084687Y0081966D01*
X0084623Y0082025D01*
X0084562Y0082088D01*
X0084504Y0082153D01*
X0084449Y0082220D01*
X0084397Y0082290D01*
X0084348Y0082362D01*
X0084302Y0082436D01*
X0084260Y0082512D01*
X0084221Y0082590D01*
X0084185Y0082669D01*
X0084153Y0082750D01*
X0084125Y0082833D01*
X0084100Y0082916D01*
X0084079Y0083001D01*
X0084062Y0083086D01*
X0084048Y0083172D01*
X0084039Y0083259D01*
X0084033Y0083346D01*
X0084031Y0083433D01*
X0074086Y0086000D02*
X0074088Y0086075D01*
X0074094Y0086149D01*
X0074104Y0086223D01*
X0074117Y0086296D01*
X0074135Y0086369D01*
X0074156Y0086440D01*
X0074181Y0086511D01*
X0074210Y0086580D01*
X0074243Y0086647D01*
X0074279Y0086712D01*
X0074318Y0086776D01*
X0074360Y0086837D01*
X0074406Y0086896D01*
X0074455Y0086953D01*
X0074507Y0087006D01*
X0074561Y0087057D01*
X0074618Y0087106D01*
X0074678Y0087150D01*
X0074740Y0087192D01*
X0074804Y0087231D01*
X0074870Y0087266D01*
X0074937Y0087297D01*
X0075007Y0087325D01*
X0075077Y0087349D01*
X0075149Y0087370D01*
X0075222Y0087386D01*
X0075295Y0087399D01*
X0075370Y0087408D01*
X0075444Y0087413D01*
X0075519Y0087414D01*
X0075593Y0087411D01*
X0075668Y0087404D01*
X0075741Y0087393D01*
X0075815Y0087379D01*
X0075887Y0087360D01*
X0075958Y0087338D01*
X0076028Y0087312D01*
X0076097Y0087282D01*
X0076163Y0087249D01*
X0076228Y0087212D01*
X0076291Y0087172D01*
X0076352Y0087128D01*
X0076410Y0087082D01*
X0076466Y0087032D01*
X0076519Y0086980D01*
X0076570Y0086925D01*
X0076617Y0086867D01*
X0076661Y0086807D01*
X0076702Y0086744D01*
X0076740Y0086680D01*
X0076774Y0086614D01*
X0076805Y0086545D01*
X0076832Y0086476D01*
X0076855Y0086405D01*
X0076874Y0086333D01*
X0076890Y0086260D01*
X0076902Y0086186D01*
X0076910Y0086112D01*
X0076914Y0086037D01*
X0076914Y0085963D01*
X0076910Y0085888D01*
X0076902Y0085814D01*
X0076890Y0085740D01*
X0076874Y0085667D01*
X0076855Y0085595D01*
X0076832Y0085524D01*
X0076805Y0085455D01*
X0076774Y0085386D01*
X0076740Y0085320D01*
X0076702Y0085256D01*
X0076661Y0085193D01*
X0076617Y0085133D01*
X0076570Y0085075D01*
X0076519Y0085020D01*
X0076466Y0084968D01*
X0076410Y0084918D01*
X0076352Y0084872D01*
X0076291Y0084828D01*
X0076228Y0084788D01*
X0076163Y0084751D01*
X0076097Y0084718D01*
X0076028Y0084688D01*
X0075958Y0084662D01*
X0075887Y0084640D01*
X0075815Y0084621D01*
X0075741Y0084607D01*
X0075668Y0084596D01*
X0075593Y0084589D01*
X0075519Y0084586D01*
X0075444Y0084587D01*
X0075370Y0084592D01*
X0075295Y0084601D01*
X0075222Y0084614D01*
X0075149Y0084630D01*
X0075077Y0084651D01*
X0075007Y0084675D01*
X0074937Y0084703D01*
X0074870Y0084734D01*
X0074804Y0084769D01*
X0074740Y0084808D01*
X0074678Y0084850D01*
X0074618Y0084894D01*
X0074561Y0084943D01*
X0074507Y0084994D01*
X0074455Y0085047D01*
X0074406Y0085104D01*
X0074360Y0085163D01*
X0074318Y0085224D01*
X0074279Y0085288D01*
X0074243Y0085353D01*
X0074210Y0085420D01*
X0074181Y0085489D01*
X0074156Y0085560D01*
X0074135Y0085631D01*
X0074117Y0085704D01*
X0074104Y0085777D01*
X0074094Y0085851D01*
X0074088Y0085925D01*
X0074086Y0086000D01*
X0063800Y0068800D02*
X0063800Y0067200D01*
X0058200Y0067200D02*
X0058200Y0068800D01*
X0033800Y0057800D02*
X0033800Y0056200D01*
X0028200Y0056200D02*
X0028200Y0057800D01*
X0024800Y0057800D02*
X0024800Y0056200D01*
X0019200Y0056200D02*
X0019200Y0057800D01*
X0015800Y0057800D02*
X0015800Y0056200D01*
X0010200Y0056200D02*
X0010200Y0057800D01*
X0038200Y0032800D02*
X0038200Y0031200D01*
X0043800Y0031200D02*
X0043800Y0032800D01*
X0054200Y0032800D02*
X0054200Y0031200D01*
X0059800Y0031200D02*
X0059800Y0032800D01*
X0075200Y0045200D02*
X0075200Y0046800D01*
X0080800Y0046800D02*
X0080800Y0045200D01*
X0097200Y0039200D02*
X0098800Y0039200D01*
X0103200Y0027800D02*
X0103200Y0026200D01*
X0108800Y0026200D02*
X0108800Y0027800D01*
X0119200Y0027800D02*
X0119200Y0026200D01*
X0124800Y0026200D02*
X0124800Y0027800D01*
X0131220Y0024000D02*
X0131224Y0024338D01*
X0131237Y0024676D01*
X0131257Y0025014D01*
X0131286Y0025351D01*
X0131324Y0025687D01*
X0131369Y0026022D01*
X0131423Y0026356D01*
X0131485Y0026688D01*
X0131555Y0027019D01*
X0131633Y0027348D01*
X0131719Y0027675D01*
X0131813Y0028000D01*
X0131916Y0028323D01*
X0132026Y0028642D01*
X0132143Y0028959D01*
X0132269Y0029273D01*
X0132402Y0029584D01*
X0132543Y0029892D01*
X0132691Y0030196D01*
X0132847Y0030496D01*
X0133010Y0030792D01*
X0133180Y0031084D01*
X0133358Y0031372D01*
X0133542Y0031656D01*
X0133734Y0031935D01*
X0133932Y0032209D01*
X0134137Y0032478D01*
X0134348Y0032742D01*
X0134566Y0033001D01*
X0134790Y0033254D01*
X0135020Y0033502D01*
X0135256Y0033744D01*
X0135498Y0033980D01*
X0135746Y0034210D01*
X0135999Y0034434D01*
X0136258Y0034652D01*
X0136522Y0034863D01*
X0136791Y0035068D01*
X0137065Y0035266D01*
X0137344Y0035458D01*
X0137628Y0035642D01*
X0137916Y0035820D01*
X0138208Y0035990D01*
X0138504Y0036153D01*
X0138804Y0036309D01*
X0139108Y0036457D01*
X0139416Y0036598D01*
X0139727Y0036731D01*
X0140041Y0036857D01*
X0140358Y0036974D01*
X0140677Y0037084D01*
X0141000Y0037187D01*
X0141325Y0037281D01*
X0141652Y0037367D01*
X0141981Y0037445D01*
X0142312Y0037515D01*
X0142644Y0037577D01*
X0142978Y0037631D01*
X0143313Y0037676D01*
X0143649Y0037714D01*
X0143986Y0037743D01*
X0144324Y0037763D01*
X0144662Y0037776D01*
X0145000Y0037780D01*
X0145338Y0037776D01*
X0145676Y0037763D01*
X0146014Y0037743D01*
X0146351Y0037714D01*
X0146687Y0037676D01*
X0147022Y0037631D01*
X0147356Y0037577D01*
X0147688Y0037515D01*
X0148019Y0037445D01*
X0148348Y0037367D01*
X0148675Y0037281D01*
X0149000Y0037187D01*
X0149323Y0037084D01*
X0149642Y0036974D01*
X0149959Y0036857D01*
X0150273Y0036731D01*
X0150584Y0036598D01*
X0150892Y0036457D01*
X0151196Y0036309D01*
X0151496Y0036153D01*
X0151792Y0035990D01*
X0152084Y0035820D01*
X0152372Y0035642D01*
X0152656Y0035458D01*
X0152935Y0035266D01*
X0153209Y0035068D01*
X0153478Y0034863D01*
X0153742Y0034652D01*
X0154001Y0034434D01*
X0154254Y0034210D01*
X0154502Y0033980D01*
X0154744Y0033744D01*
X0154980Y0033502D01*
X0155210Y0033254D01*
X0155434Y0033001D01*
X0155652Y0032742D01*
X0155863Y0032478D01*
X0156068Y0032209D01*
X0156266Y0031935D01*
X0156458Y0031656D01*
X0156642Y0031372D01*
X0156820Y0031084D01*
X0156990Y0030792D01*
X0157153Y0030496D01*
X0157309Y0030196D01*
X0157457Y0029892D01*
X0157598Y0029584D01*
X0157731Y0029273D01*
X0157857Y0028959D01*
X0157974Y0028642D01*
X0158084Y0028323D01*
X0158187Y0028000D01*
X0158281Y0027675D01*
X0158367Y0027348D01*
X0158445Y0027019D01*
X0158515Y0026688D01*
X0158577Y0026356D01*
X0158631Y0026022D01*
X0158676Y0025687D01*
X0158714Y0025351D01*
X0158743Y0025014D01*
X0158763Y0024676D01*
X0158776Y0024338D01*
X0158780Y0024000D01*
X0158776Y0023662D01*
X0158763Y0023324D01*
X0158743Y0022986D01*
X0158714Y0022649D01*
X0158676Y0022313D01*
X0158631Y0021978D01*
X0158577Y0021644D01*
X0158515Y0021312D01*
X0158445Y0020981D01*
X0158367Y0020652D01*
X0158281Y0020325D01*
X0158187Y0020000D01*
X0158084Y0019677D01*
X0157974Y0019358D01*
X0157857Y0019041D01*
X0157731Y0018727D01*
X0157598Y0018416D01*
X0157457Y0018108D01*
X0157309Y0017804D01*
X0157153Y0017504D01*
X0156990Y0017208D01*
X0156820Y0016916D01*
X0156642Y0016628D01*
X0156458Y0016344D01*
X0156266Y0016065D01*
X0156068Y0015791D01*
X0155863Y0015522D01*
X0155652Y0015258D01*
X0155434Y0014999D01*
X0155210Y0014746D01*
X0154980Y0014498D01*
X0154744Y0014256D01*
X0154502Y0014020D01*
X0154254Y0013790D01*
X0154001Y0013566D01*
X0153742Y0013348D01*
X0153478Y0013137D01*
X0153209Y0012932D01*
X0152935Y0012734D01*
X0152656Y0012542D01*
X0152372Y0012358D01*
X0152084Y0012180D01*
X0151792Y0012010D01*
X0151496Y0011847D01*
X0151196Y0011691D01*
X0150892Y0011543D01*
X0150584Y0011402D01*
X0150273Y0011269D01*
X0149959Y0011143D01*
X0149642Y0011026D01*
X0149323Y0010916D01*
X0149000Y0010813D01*
X0148675Y0010719D01*
X0148348Y0010633D01*
X0148019Y0010555D01*
X0147688Y0010485D01*
X0147356Y0010423D01*
X0147022Y0010369D01*
X0146687Y0010324D01*
X0146351Y0010286D01*
X0146014Y0010257D01*
X0145676Y0010237D01*
X0145338Y0010224D01*
X0145000Y0010220D01*
X0144662Y0010224D01*
X0144324Y0010237D01*
X0143986Y0010257D01*
X0143649Y0010286D01*
X0143313Y0010324D01*
X0142978Y0010369D01*
X0142644Y0010423D01*
X0142312Y0010485D01*
X0141981Y0010555D01*
X0141652Y0010633D01*
X0141325Y0010719D01*
X0141000Y0010813D01*
X0140677Y0010916D01*
X0140358Y0011026D01*
X0140041Y0011143D01*
X0139727Y0011269D01*
X0139416Y0011402D01*
X0139108Y0011543D01*
X0138804Y0011691D01*
X0138504Y0011847D01*
X0138208Y0012010D01*
X0137916Y0012180D01*
X0137628Y0012358D01*
X0137344Y0012542D01*
X0137065Y0012734D01*
X0136791Y0012932D01*
X0136522Y0013137D01*
X0136258Y0013348D01*
X0135999Y0013566D01*
X0135746Y0013790D01*
X0135498Y0014020D01*
X0135256Y0014256D01*
X0135020Y0014498D01*
X0134790Y0014746D01*
X0134566Y0014999D01*
X0134348Y0015258D01*
X0134137Y0015522D01*
X0133932Y0015791D01*
X0133734Y0016065D01*
X0133542Y0016344D01*
X0133358Y0016628D01*
X0133180Y0016916D01*
X0133010Y0017208D01*
X0132847Y0017504D01*
X0132691Y0017804D01*
X0132543Y0018108D01*
X0132402Y0018416D01*
X0132269Y0018727D01*
X0132143Y0019041D01*
X0132026Y0019358D01*
X0131916Y0019677D01*
X0131813Y0020000D01*
X0131719Y0020325D01*
X0131633Y0020652D01*
X0131555Y0020981D01*
X0131485Y0021312D01*
X0131423Y0021644D01*
X0131369Y0021978D01*
X0131324Y0022313D01*
X0131286Y0022649D01*
X0131257Y0022986D01*
X0131237Y0023324D01*
X0131224Y0023662D01*
X0131220Y0024000D01*
X0177200Y0040200D02*
X0177200Y0041800D01*
X0182800Y0041800D02*
X0182800Y0040200D01*
X0185200Y0040200D02*
X0185200Y0041800D01*
X0190800Y0041800D02*
X0190800Y0040200D01*
X0184800Y0031800D02*
X0183200Y0031800D01*
X0183200Y0026200D02*
X0184800Y0026200D01*
X0199200Y0028800D02*
X0200800Y0028800D01*
X0200800Y0023200D02*
X0199200Y0023200D01*
X0228200Y0024200D02*
X0229800Y0024200D01*
X0229800Y0029800D02*
X0228200Y0029800D01*
X0227800Y0038200D02*
X0227800Y0039800D01*
X0222200Y0039800D02*
X0222200Y0038200D01*
X0212800Y0059200D02*
X0211200Y0059200D01*
X0211200Y0064800D02*
X0212800Y0064800D01*
X0212800Y0067200D02*
X0211200Y0067200D01*
X0211200Y0072800D02*
X0212800Y0072800D01*
X0212800Y0075200D02*
X0211200Y0075200D01*
X0211200Y0080800D02*
X0212800Y0080800D01*
X0212800Y0083200D02*
X0211200Y0083200D01*
X0211200Y0088800D02*
X0212800Y0088800D01*
X0228200Y0087200D02*
X0229800Y0087200D01*
X0229800Y0092800D02*
X0228200Y0092800D01*
X0179800Y0079800D02*
X0178200Y0079800D01*
X0178200Y0074200D02*
X0179800Y0074200D01*
X0143800Y0069800D02*
X0143800Y0068200D01*
X0138200Y0068200D02*
X0138200Y0069800D01*
X0135800Y0069800D02*
X0135800Y0068200D01*
X0130200Y0068200D02*
X0130200Y0069800D01*
X0139200Y0091200D02*
X0140800Y0091200D01*
X0140800Y0096800D02*
X0139200Y0096800D01*
X0023800Y0092800D02*
X0023800Y0091200D01*
X0018200Y0091200D02*
X0018200Y0092800D01*
D17*
X0139488Y0035811D02*
X0150512Y0035811D01*
X0148937Y0036598D02*
X0141063Y0036598D01*
D18*
X0137126Y0035024D02*
X0152874Y0035024D01*
D19*
X0253000Y0026654D02*
X0272685Y0026654D01*
X0272685Y0034528D01*
X0253000Y0026654D02*
X0253000Y0081772D01*
X0272685Y0081772D01*
X0272685Y0073898D01*
X0274654Y0077835D02*
X0276622Y0075866D01*
X0276622Y0079803D01*
X0274654Y0077835D01*
D20*
X0250367Y0067627D02*
X0250367Y0065425D01*
X0250367Y0066526D02*
X0247064Y0066526D01*
X0248165Y0065425D01*
X0247064Y0063944D02*
X0250367Y0063944D01*
X0247064Y0061742D01*
X0250367Y0061742D01*
X0249816Y0060261D02*
X0250367Y0059710D01*
X0250367Y0058609D01*
X0249816Y0058059D01*
X0247614Y0058059D01*
X0247064Y0058609D01*
X0247064Y0059710D01*
X0247614Y0060261D01*
M02*
