G75*
%MOIN*%
%OFA0B0*%
%FSLAX25Y25*%
%IPPOS*%
%LPD*%
%AMOC8*
5,1,8,0,0,1.08239X$1,22.5*
%
%ADD10C,0.12992*%
%ADD11R,0.01969X0.03543*%
%ADD12R,0.01732X0.05079*%
%ADD13R,0.05079X0.01732*%
%ADD14R,0.01494X0.05394*%
%ADD15R,0.04331X0.01535*%
%ADD16R,0.04724X0.04331*%
%ADD17R,0.03150X0.04724*%
%ADD18R,0.04724X0.03150*%
%ADD19C,0.05118*%
%ADD20R,0.05906X0.04331*%
%ADD21R,0.04331X0.04724*%
%ADD22R,0.03543X0.03543*%
%ADD23C,0.05709*%
%ADD24C,0.02165*%
%ADD25R,0.05118X0.05118*%
%ADD26R,0.02756X0.04528*%
%ADD27C,0.03937*%
D10*
X0160480Y0054213D03*
D11*
X0079559Y0032740D03*
X0074441Y0032740D03*
X0074441Y0025260D03*
X0077000Y0025260D03*
X0079559Y0025260D03*
D12*
X0111161Y0040220D03*
X0113720Y0040220D03*
X0116280Y0040220D03*
X0118839Y0040220D03*
X0118839Y0057780D03*
X0116280Y0057780D03*
X0113720Y0057780D03*
X0111161Y0057780D03*
X0048839Y0062780D03*
X0046280Y0062780D03*
X0043720Y0062780D03*
X0041161Y0062780D03*
X0041161Y0045220D03*
X0043720Y0045220D03*
X0046280Y0045220D03*
X0048839Y0045220D03*
D13*
X0198220Y0042839D03*
X0198220Y0040280D03*
X0198220Y0037720D03*
X0198220Y0035161D03*
X0215780Y0035161D03*
X0215780Y0037720D03*
X0215780Y0040280D03*
X0215780Y0042839D03*
D14*
X0225100Y0066000D03*
X0227000Y0066000D03*
X0229000Y0066000D03*
X0231000Y0066000D03*
X0232900Y0066000D03*
X0232900Y0082000D03*
X0231000Y0082000D03*
X0229000Y0082000D03*
X0227000Y0082000D03*
X0225100Y0082000D03*
X0197900Y0082000D03*
X0196000Y0082000D03*
X0194000Y0082000D03*
X0192000Y0082000D03*
X0190100Y0082000D03*
X0190100Y0066000D03*
X0192000Y0066000D03*
X0194000Y0066000D03*
X0196000Y0066000D03*
X0197900Y0066000D03*
D15*
X0097417Y0066602D03*
X0097417Y0064043D03*
X0097417Y0069161D03*
X0097417Y0071720D03*
X0097417Y0074280D03*
X0097417Y0076839D03*
X0097417Y0079398D03*
X0097417Y0081957D03*
X0074583Y0081957D03*
X0074583Y0079398D03*
X0074583Y0076839D03*
X0074583Y0074280D03*
X0074583Y0071720D03*
X0074583Y0069161D03*
X0074583Y0066602D03*
X0074583Y0064043D03*
D16*
X0061000Y0064063D03*
X0061000Y0071937D03*
X0031000Y0060937D03*
X0022000Y0060937D03*
X0013000Y0060937D03*
X0013000Y0053063D03*
X0022000Y0053063D03*
X0031000Y0053063D03*
X0041000Y0035937D03*
X0041000Y0028063D03*
X0057000Y0028063D03*
X0057000Y0035937D03*
X0078000Y0042063D03*
X0078000Y0049937D03*
X0088000Y0032937D03*
X0097000Y0032937D03*
X0106000Y0030937D03*
X0097000Y0025063D03*
X0088000Y0025063D03*
X0106000Y0023063D03*
X0122000Y0023063D03*
X0122000Y0030937D03*
X0180000Y0037063D03*
X0188000Y0037063D03*
X0188000Y0044937D03*
X0180000Y0044937D03*
X0141000Y0065063D03*
X0133000Y0065063D03*
X0133000Y0072937D03*
X0141000Y0072937D03*
X0125000Y0077063D03*
X0125000Y0084937D03*
X0225000Y0042937D03*
X0225000Y0035063D03*
X0021000Y0088063D03*
X0021000Y0095937D03*
D17*
X0018260Y0045000D03*
X0025740Y0045000D03*
X0140260Y0085000D03*
X0147740Y0085000D03*
X0169260Y0085000D03*
X0176740Y0085000D03*
X0180260Y0021000D03*
X0187740Y0021000D03*
D18*
X0233000Y0035260D03*
X0233000Y0042740D03*
X0049000Y0035740D03*
X0049000Y0028260D03*
X0013000Y0068260D03*
X0013000Y0075740D03*
D19*
X0011000Y0023000D03*
X0021000Y0033000D03*
X0031000Y0023000D03*
X0042000Y0075000D03*
X0032000Y0085000D03*
X0052000Y0085000D03*
X0145000Y0019079D03*
X0258906Y0034528D03*
X0266780Y0034528D03*
X0266780Y0042402D03*
X0258906Y0042402D03*
X0258906Y0050276D03*
X0266780Y0050276D03*
X0266780Y0058150D03*
X0258906Y0058150D03*
X0258906Y0066024D03*
X0266780Y0066024D03*
X0266780Y0073898D03*
X0258906Y0073898D03*
D20*
X0057331Y0018740D03*
X0048669Y0015000D03*
X0057331Y0011260D03*
D21*
X0071063Y0013000D03*
X0078937Y0013000D03*
X0087063Y0013000D03*
X0094937Y0013000D03*
X0094063Y0042000D03*
X0101937Y0042000D03*
X0101937Y0052000D03*
X0094063Y0052000D03*
X0108063Y0068000D03*
X0115937Y0068000D03*
X0115937Y0076000D03*
X0108063Y0076000D03*
X0108063Y0084000D03*
X0115937Y0084000D03*
X0115937Y0092000D03*
X0108063Y0092000D03*
X0136063Y0094000D03*
X0143937Y0094000D03*
X0175063Y0077000D03*
X0182937Y0077000D03*
X0208063Y0078000D03*
X0215937Y0078000D03*
X0215937Y0070000D03*
X0208063Y0070000D03*
X0208063Y0062000D03*
X0215937Y0062000D03*
X0215937Y0086000D03*
X0208063Y0086000D03*
X0225063Y0090000D03*
X0232937Y0090000D03*
X0187937Y0029000D03*
X0180063Y0029000D03*
X0196063Y0026000D03*
X0203937Y0026000D03*
X0225063Y0027000D03*
X0232937Y0027000D03*
D22*
X0203150Y0019000D03*
X0196850Y0019000D03*
X0233000Y0048850D03*
X0233000Y0055150D03*
X0214150Y0051000D03*
X0207850Y0051000D03*
X0188150Y0052000D03*
X0181850Y0052000D03*
X0128000Y0048150D03*
X0128000Y0041850D03*
X0114000Y0031150D03*
X0114000Y0024850D03*
X0067000Y0025850D03*
X0067000Y0032150D03*
X0057000Y0046850D03*
X0057000Y0053150D03*
X0087850Y0090000D03*
X0094150Y0090000D03*
X0173850Y0094000D03*
X0180150Y0094000D03*
D23*
X0067000Y0048000D03*
X0215000Y0025000D03*
D24*
X0226083Y0050917D02*
X0226083Y0053083D01*
X0226083Y0050917D02*
X0223917Y0050917D01*
X0223917Y0053083D01*
X0226083Y0053083D01*
X0226083Y0053081D02*
X0223917Y0053081D01*
X0197083Y0054083D02*
X0197083Y0051917D01*
X0194917Y0051917D01*
X0194917Y0054083D01*
X0197083Y0054083D01*
X0197083Y0054081D02*
X0194917Y0054081D01*
X0013083Y0086917D02*
X0010917Y0086917D01*
X0010917Y0089083D01*
X0013083Y0089083D01*
X0013083Y0086917D01*
X0013083Y0089081D02*
X0010917Y0089081D01*
D25*
X0145000Y0028921D03*
D26*
X0155260Y0083685D03*
X0162740Y0083685D03*
X0162740Y0094315D03*
X0159000Y0094315D03*
X0155260Y0094315D03*
D27*
X0169000Y0094000D03*
X0163000Y0079000D03*
X0128000Y0023000D03*
M02*
