G75*
%MOIN*%
%OFA0B0*%
%FSLAX25Y25*%
%IPPOS*%
%LPD*%
%AMOC8*
5,1,8,0,0,1.08239X$1,22.5*
%
%ADD10R,0.01575X0.03150*%
%ADD11R,0.01339X0.04685*%
%ADD12R,0.04685X0.01339*%
%ADD13R,0.01100X0.05000*%
%ADD14R,0.03937X0.01142*%
%ADD15R,0.04331X0.03937*%
%ADD16R,0.02756X0.04331*%
%ADD17R,0.04331X0.02756*%
%ADD18C,0.04724*%
%ADD19R,0.05512X0.03937*%
%ADD20R,0.03937X0.04331*%
%ADD21R,0.03150X0.03150*%
%ADD22C,0.05315*%
%ADD23C,0.01969*%
%ADD24R,0.04724X0.04724*%
%ADD25R,0.02362X0.04134*%
%ADD26C,0.01000*%
%ADD27C,0.00800*%
%ADD28C,0.02362*%
%ADD29C,0.01200*%
%ADD30C,0.03543*%
%ADD31C,0.02400*%
D10*
X0074441Y0025260D03*
X0077000Y0025260D03*
X0079559Y0025260D03*
X0079559Y0032740D03*
X0074441Y0032740D03*
D11*
X0048839Y0045220D03*
X0046280Y0045220D03*
X0043720Y0045220D03*
X0041161Y0045220D03*
X0041161Y0062780D03*
X0043720Y0062780D03*
X0046280Y0062780D03*
X0048839Y0062780D03*
X0111161Y0057780D03*
X0113720Y0057780D03*
X0116280Y0057780D03*
X0118839Y0057780D03*
X0118839Y0040220D03*
X0116280Y0040220D03*
X0113720Y0040220D03*
X0111161Y0040220D03*
D12*
X0198220Y0040280D03*
X0198220Y0037720D03*
X0198220Y0035161D03*
X0198220Y0042839D03*
X0215780Y0042839D03*
X0215780Y0040280D03*
X0215780Y0037720D03*
X0215780Y0035161D03*
D13*
X0225100Y0066000D03*
X0227000Y0066000D03*
X0229000Y0066000D03*
X0231000Y0066000D03*
X0232900Y0066000D03*
X0232900Y0082000D03*
X0231000Y0082000D03*
X0229000Y0082000D03*
X0227000Y0082000D03*
X0225100Y0082000D03*
X0197900Y0082000D03*
X0196000Y0082000D03*
X0194000Y0082000D03*
X0192000Y0082000D03*
X0190100Y0082000D03*
X0190100Y0066000D03*
X0192000Y0066000D03*
X0194000Y0066000D03*
X0196000Y0066000D03*
X0197900Y0066000D03*
D14*
X0097417Y0066602D03*
X0097417Y0064043D03*
X0097417Y0069161D03*
X0097417Y0071720D03*
X0097417Y0074280D03*
X0097417Y0076839D03*
X0097417Y0079398D03*
X0097417Y0081957D03*
X0074583Y0081957D03*
X0074583Y0079398D03*
X0074583Y0076839D03*
X0074583Y0074280D03*
X0074583Y0071720D03*
X0074583Y0069161D03*
X0074583Y0066602D03*
X0074583Y0064043D03*
D15*
X0061000Y0064063D03*
X0061000Y0071937D03*
X0031000Y0060937D03*
X0022000Y0060937D03*
X0013000Y0060937D03*
X0013000Y0053063D03*
X0022000Y0053063D03*
X0031000Y0053063D03*
X0041000Y0035937D03*
X0041000Y0028063D03*
X0057000Y0028063D03*
X0057000Y0035937D03*
X0078000Y0042063D03*
X0078000Y0049937D03*
X0088000Y0032937D03*
X0097000Y0032937D03*
X0106000Y0030937D03*
X0097000Y0025063D03*
X0088000Y0025063D03*
X0106000Y0023063D03*
X0122000Y0023063D03*
X0122000Y0030937D03*
X0180000Y0037063D03*
X0188000Y0037063D03*
X0188000Y0044937D03*
X0180000Y0044937D03*
X0141000Y0065063D03*
X0133000Y0065063D03*
X0133000Y0072937D03*
X0141000Y0072937D03*
X0125000Y0077063D03*
X0125000Y0084937D03*
X0225000Y0042937D03*
X0225000Y0035063D03*
X0021000Y0088063D03*
X0021000Y0095937D03*
D16*
X0018260Y0045000D03*
X0025740Y0045000D03*
X0140260Y0085000D03*
X0147740Y0085000D03*
X0169260Y0085000D03*
X0176740Y0085000D03*
X0180260Y0021000D03*
X0187740Y0021000D03*
D17*
X0233000Y0035260D03*
X0233000Y0042740D03*
X0049000Y0035740D03*
X0049000Y0028260D03*
X0013000Y0068260D03*
X0013000Y0075740D03*
D18*
X0032000Y0085000D03*
X0042000Y0075000D03*
X0052000Y0085000D03*
X0021000Y0033000D03*
X0011000Y0023000D03*
X0031000Y0023000D03*
X0145000Y0019079D03*
X0258906Y0034528D03*
X0266780Y0034528D03*
X0266780Y0042402D03*
X0258906Y0042402D03*
X0258906Y0050276D03*
X0266780Y0050276D03*
X0266780Y0058150D03*
X0258906Y0058150D03*
X0258906Y0066024D03*
X0266780Y0066024D03*
X0266780Y0073898D03*
X0258906Y0073898D03*
D19*
X0057331Y0018740D03*
X0048669Y0015000D03*
X0057331Y0011260D03*
D20*
X0071063Y0013000D03*
X0078937Y0013000D03*
X0087063Y0013000D03*
X0094937Y0013000D03*
X0094063Y0042000D03*
X0101937Y0042000D03*
X0101937Y0052000D03*
X0094063Y0052000D03*
X0108063Y0068000D03*
X0115937Y0068000D03*
X0115937Y0076000D03*
X0108063Y0076000D03*
X0108063Y0084000D03*
X0115937Y0084000D03*
X0115937Y0092000D03*
X0108063Y0092000D03*
X0136063Y0094000D03*
X0143937Y0094000D03*
X0175063Y0077000D03*
X0182937Y0077000D03*
X0208063Y0078000D03*
X0215937Y0078000D03*
X0215937Y0070000D03*
X0208063Y0070000D03*
X0208063Y0062000D03*
X0215937Y0062000D03*
X0215937Y0086000D03*
X0208063Y0086000D03*
X0225063Y0090000D03*
X0232937Y0090000D03*
X0187937Y0029000D03*
X0180063Y0029000D03*
X0196063Y0026000D03*
X0203937Y0026000D03*
X0225063Y0027000D03*
X0232937Y0027000D03*
D21*
X0203150Y0019000D03*
X0196850Y0019000D03*
X0233000Y0048850D03*
X0233000Y0055150D03*
X0214150Y0051000D03*
X0207850Y0051000D03*
X0188150Y0052000D03*
X0181850Y0052000D03*
X0128000Y0048150D03*
X0128000Y0041850D03*
X0114000Y0031150D03*
X0114000Y0024850D03*
X0067000Y0025850D03*
X0067000Y0032150D03*
X0057000Y0046850D03*
X0057000Y0053150D03*
X0087850Y0090000D03*
X0094150Y0090000D03*
X0173850Y0094000D03*
X0180150Y0094000D03*
D22*
X0067000Y0048000D03*
X0215000Y0025000D03*
D23*
X0225984Y0051016D02*
X0225984Y0052984D01*
X0225984Y0051016D02*
X0224016Y0051016D01*
X0224016Y0052984D01*
X0225984Y0052984D01*
X0224016Y0052984D01*
X0196984Y0052016D02*
X0196984Y0053984D01*
X0196984Y0052016D02*
X0195016Y0052016D01*
X0195016Y0053984D01*
X0196984Y0053984D01*
X0195016Y0053984D01*
X0012984Y0087016D02*
X0011016Y0087016D01*
X0011016Y0088984D01*
X0012984Y0088984D01*
X0012984Y0087016D01*
X0012984Y0088984D02*
X0011016Y0088984D01*
D24*
X0145000Y0028921D03*
D25*
X0155260Y0083685D03*
X0162740Y0083685D03*
X0162740Y0094315D03*
X0159000Y0094315D03*
X0155260Y0094315D03*
D26*
X0125000Y0092000D02*
X0125000Y0084937D01*
X0057000Y0058000D02*
X0057000Y0053150D01*
X0127417Y0042031D02*
X0128000Y0041850D01*
X0207567Y0070094D02*
X0208063Y0070000D01*
X0215937Y0078000D02*
X0221000Y0078000D01*
X0221000Y0062000D02*
X0215937Y0062000D01*
X0213969Y0051417D02*
X0214150Y0051000D01*
X0213969Y0051417D02*
X0214000Y0047000D01*
X0215748Y0044787D01*
X0215780Y0042839D01*
D27*
X0007337Y0022012D02*
X0007337Y0007368D01*
X0041086Y0007368D01*
X0041036Y0007419D01*
X0040487Y0007419D01*
X0039538Y0007812D01*
X0038812Y0008538D01*
X0038419Y0009487D01*
X0038419Y0010513D01*
X0038812Y0011462D01*
X0039538Y0012188D01*
X0040487Y0012581D01*
X0041513Y0012581D01*
X0042462Y0012188D01*
X0043188Y0011462D01*
X0043581Y0010513D01*
X0043581Y0009964D01*
X0043746Y0009800D01*
X0053175Y0009800D01*
X0053175Y0013808D01*
X0053995Y0014628D01*
X0055531Y0014628D01*
X0055531Y0015372D01*
X0053995Y0015372D01*
X0053175Y0016192D01*
X0053175Y0021289D01*
X0053995Y0022109D01*
X0060667Y0022109D01*
X0061487Y0021289D01*
X0061487Y0020800D01*
X0062150Y0020800D01*
X0062538Y0021188D01*
X0063487Y0021581D01*
X0064513Y0021581D01*
X0065462Y0021188D01*
X0066188Y0020462D01*
X0066581Y0019513D01*
X0066581Y0018487D01*
X0066188Y0017538D01*
X0065462Y0016812D01*
X0064513Y0016419D01*
X0063487Y0016419D01*
X0062538Y0016812D01*
X0062150Y0017200D01*
X0061746Y0017200D01*
X0061487Y0016941D01*
X0061487Y0016192D01*
X0060667Y0015372D01*
X0059131Y0015372D01*
X0059131Y0014628D01*
X0060667Y0014628D01*
X0061487Y0013808D01*
X0061487Y0008711D01*
X0060667Y0007891D01*
X0056437Y0007891D01*
X0055914Y0007368D01*
X0274254Y0007368D01*
X0274254Y0101057D01*
X0007337Y0101057D01*
X0007337Y0023988D01*
X0007811Y0025131D01*
X0008869Y0026189D01*
X0009200Y0026327D01*
X0009200Y0049746D01*
X0009702Y0050247D01*
X0009435Y0050515D01*
X0007337Y0050515D01*
X0007337Y0049717D02*
X0009200Y0049717D01*
X0009200Y0048918D02*
X0007337Y0048918D01*
X0007337Y0048120D02*
X0009200Y0048120D01*
X0009200Y0047321D02*
X0007337Y0047321D01*
X0007337Y0046523D02*
X0009200Y0046523D01*
X0009200Y0045724D02*
X0007337Y0045724D01*
X0007337Y0044926D02*
X0009200Y0044926D01*
X0009200Y0044127D02*
X0007337Y0044127D01*
X0007337Y0043329D02*
X0009200Y0043329D01*
X0009200Y0042530D02*
X0007337Y0042530D01*
X0007337Y0041732D02*
X0009200Y0041732D01*
X0009200Y0040933D02*
X0007337Y0040933D01*
X0007337Y0040134D02*
X0009200Y0040134D01*
X0009200Y0039336D02*
X0007337Y0039336D01*
X0007337Y0038537D02*
X0009200Y0038537D01*
X0009200Y0037739D02*
X0007337Y0037739D01*
X0007337Y0036940D02*
X0009200Y0036940D01*
X0009200Y0036142D02*
X0007337Y0036142D01*
X0007337Y0035343D02*
X0009200Y0035343D01*
X0009200Y0034545D02*
X0007337Y0034545D01*
X0007337Y0033746D02*
X0009200Y0033746D01*
X0009200Y0032948D02*
X0007337Y0032948D01*
X0007337Y0032149D02*
X0009200Y0032149D01*
X0009200Y0031351D02*
X0007337Y0031351D01*
X0007337Y0030552D02*
X0009200Y0030552D01*
X0009200Y0029754D02*
X0007337Y0029754D01*
X0007337Y0028955D02*
X0009200Y0028955D01*
X0009200Y0028157D02*
X0007337Y0028157D01*
X0007337Y0027358D02*
X0009200Y0027358D01*
X0009200Y0026560D02*
X0007337Y0026560D01*
X0007337Y0025761D02*
X0008441Y0025761D01*
X0007741Y0024963D02*
X0007337Y0024963D01*
X0007337Y0024164D02*
X0007410Y0024164D01*
X0011000Y0023000D02*
X0011000Y0049000D01*
X0012000Y0050000D01*
X0013000Y0053063D01*
X0016565Y0052911D02*
X0018435Y0052911D01*
X0018435Y0053709D02*
X0016565Y0053709D01*
X0016565Y0054508D02*
X0018435Y0054508D01*
X0018435Y0055306D02*
X0016565Y0055306D01*
X0016565Y0055611D02*
X0015745Y0056431D01*
X0010255Y0056431D01*
X0009435Y0055611D01*
X0009435Y0050515D01*
X0009435Y0051314D02*
X0007337Y0051314D01*
X0007337Y0052112D02*
X0009435Y0052112D01*
X0009435Y0052911D02*
X0007337Y0052911D01*
X0007337Y0053709D02*
X0009435Y0053709D01*
X0009435Y0054508D02*
X0007337Y0054508D01*
X0007337Y0055306D02*
X0009435Y0055306D01*
X0009928Y0056105D02*
X0007337Y0056105D01*
X0007337Y0056903D02*
X0023656Y0056903D01*
X0023117Y0056431D02*
X0019255Y0056431D01*
X0018435Y0055611D01*
X0018435Y0050515D01*
X0016565Y0050515D01*
X0016565Y0055611D01*
X0016072Y0056105D02*
X0018928Y0056105D01*
X0019255Y0057569D02*
X0024416Y0057569D01*
X0023117Y0056431D01*
X0025565Y0058574D02*
X0025565Y0063485D01*
X0024745Y0064305D01*
X0019255Y0064305D01*
X0018435Y0063485D01*
X0018435Y0062737D01*
X0016565Y0062737D01*
X0016565Y0063485D01*
X0015745Y0064305D01*
X0014800Y0064305D01*
X0014800Y0065482D01*
X0015745Y0065482D01*
X0016565Y0066302D01*
X0016565Y0070218D01*
X0015745Y0071038D01*
X0010255Y0071038D01*
X0009435Y0070218D01*
X0009435Y0066302D01*
X0010255Y0065482D01*
X0011200Y0065482D01*
X0011200Y0064305D01*
X0010255Y0064305D01*
X0009435Y0063485D01*
X0009435Y0058389D01*
X0010255Y0057569D01*
X0015745Y0057569D01*
X0016565Y0058389D01*
X0016565Y0059137D01*
X0018435Y0059137D01*
X0018435Y0058389D01*
X0019255Y0057569D01*
X0019121Y0057702D02*
X0015878Y0057702D01*
X0016565Y0058500D02*
X0018435Y0058500D01*
X0022000Y0060937D02*
X0013000Y0060937D01*
X0013000Y0068260D01*
X0016565Y0068082D02*
X0044200Y0068082D01*
X0044200Y0067284D02*
X0016565Y0067284D01*
X0016565Y0066485D02*
X0040171Y0066485D01*
X0040308Y0066522D02*
X0039952Y0066427D01*
X0039633Y0066242D01*
X0039372Y0065982D01*
X0039188Y0065662D01*
X0039092Y0065306D01*
X0039092Y0062780D01*
X0041161Y0062780D01*
X0041161Y0066522D01*
X0040308Y0066522D01*
X0041161Y0066522D02*
X0041161Y0062780D01*
X0041161Y0062780D01*
X0041161Y0062779D01*
X0041161Y0062779D01*
X0041161Y0059037D01*
X0040308Y0059037D01*
X0039952Y0059132D01*
X0039633Y0059317D01*
X0039372Y0059577D01*
X0039188Y0059897D01*
X0039092Y0060253D01*
X0039092Y0062779D01*
X0041161Y0062779D01*
X0041161Y0059037D01*
X0041920Y0059037D01*
X0041920Y0055466D01*
X0041254Y0054800D01*
X0034565Y0054800D01*
X0034565Y0055611D01*
X0033745Y0056431D01*
X0028584Y0056431D01*
X0029883Y0057569D01*
X0033745Y0057569D01*
X0034565Y0058389D01*
X0034565Y0063485D01*
X0033745Y0064305D01*
X0028255Y0064305D01*
X0027435Y0063485D01*
X0027435Y0060209D01*
X0025565Y0058574D01*
X0025565Y0059299D02*
X0026394Y0059299D01*
X0025565Y0060097D02*
X0027307Y0060097D01*
X0027435Y0060896D02*
X0025565Y0060896D01*
X0025565Y0061694D02*
X0027435Y0061694D01*
X0027435Y0062493D02*
X0025565Y0062493D01*
X0025565Y0063291D02*
X0027435Y0063291D01*
X0028039Y0064090D02*
X0024961Y0064090D01*
X0019039Y0064090D02*
X0015961Y0064090D01*
X0016565Y0063291D02*
X0018435Y0063291D01*
X0014800Y0064888D02*
X0039092Y0064888D01*
X0039092Y0064090D02*
X0033961Y0064090D01*
X0034565Y0063291D02*
X0039092Y0063291D01*
X0039092Y0062493D02*
X0034565Y0062493D01*
X0034565Y0061694D02*
X0039092Y0061694D01*
X0039092Y0060896D02*
X0034565Y0060896D01*
X0034565Y0060097D02*
X0039134Y0060097D01*
X0039664Y0059299D02*
X0034565Y0059299D01*
X0034565Y0058500D02*
X0041920Y0058500D01*
X0041920Y0057702D02*
X0033878Y0057702D01*
X0034072Y0056105D02*
X0041920Y0056105D01*
X0041920Y0056903D02*
X0029123Y0056903D01*
X0028063Y0053063D02*
X0027000Y0052000D01*
X0027000Y0049000D01*
X0026000Y0048000D01*
X0026000Y0045260D01*
X0025740Y0045000D01*
X0022962Y0044926D02*
X0021038Y0044926D01*
X0021038Y0045724D02*
X0022962Y0045724D01*
X0022962Y0046523D02*
X0021038Y0046523D01*
X0021038Y0047321D02*
X0022962Y0047321D01*
X0022962Y0047745D02*
X0022962Y0042255D01*
X0023782Y0041435D01*
X0027698Y0041435D01*
X0028518Y0042255D01*
X0028518Y0047745D01*
X0028404Y0047859D01*
X0028800Y0048254D01*
X0028800Y0049694D01*
X0033745Y0049694D01*
X0034565Y0050515D01*
X0034970Y0050515D01*
X0035254Y0050800D02*
X0034200Y0049746D01*
X0033200Y0048746D01*
X0033200Y0039254D01*
X0034200Y0038254D01*
X0034200Y0029254D01*
X0035254Y0028200D01*
X0035254Y0028200D01*
X0037254Y0026200D01*
X0037435Y0026200D01*
X0037435Y0025515D01*
X0038255Y0024694D01*
X0043745Y0024694D01*
X0044565Y0025515D01*
X0044565Y0030149D01*
X0045435Y0029280D01*
X0045435Y0026302D01*
X0046255Y0025482D01*
X0051745Y0025482D01*
X0052565Y0026302D01*
X0052565Y0030218D01*
X0051745Y0031038D01*
X0048768Y0031038D01*
X0046843Y0032962D01*
X0051745Y0032962D01*
X0052565Y0033782D01*
X0052565Y0034137D01*
X0053435Y0034137D01*
X0053435Y0033389D01*
X0054255Y0032569D01*
X0059745Y0032569D01*
X0060565Y0033389D01*
X0060565Y0038485D01*
X0059745Y0039305D01*
X0058851Y0039305D01*
X0059746Y0040200D01*
X0074435Y0040200D01*
X0074435Y0039515D01*
X0075255Y0038694D01*
X0076149Y0038694D01*
X0075200Y0037746D01*
X0075200Y0035715D01*
X0073074Y0035715D01*
X0072504Y0035146D01*
X0072462Y0035188D01*
X0071513Y0035581D01*
X0070487Y0035581D01*
X0069538Y0035188D01*
X0069314Y0034965D01*
X0069155Y0035124D01*
X0064845Y0035124D01*
X0064025Y0034304D01*
X0064025Y0029995D01*
X0064845Y0029175D01*
X0069155Y0029175D01*
X0069975Y0029995D01*
X0069975Y0030631D01*
X0070487Y0030419D01*
X0071513Y0030419D01*
X0072254Y0030725D01*
X0072254Y0030585D01*
X0073074Y0029765D01*
X0074220Y0029765D01*
X0072641Y0028187D01*
X0072641Y0027802D01*
X0072254Y0027415D01*
X0072254Y0023105D01*
X0072407Y0022952D01*
X0072200Y0022746D01*
X0072200Y0021850D01*
X0071812Y0021462D01*
X0071419Y0020513D01*
X0071419Y0019487D01*
X0071812Y0018538D01*
X0072538Y0017812D01*
X0073487Y0017419D01*
X0074513Y0017419D01*
X0075462Y0017812D01*
X0076188Y0018538D01*
X0076581Y0019487D01*
X0076581Y0020513D01*
X0076188Y0021462D01*
X0076098Y0021552D01*
X0076241Y0021695D01*
X0076241Y0022285D01*
X0077000Y0022285D01*
X0077972Y0022285D01*
X0078145Y0022332D01*
X0078192Y0022285D01*
X0080926Y0022285D01*
X0081746Y0023105D01*
X0081746Y0023460D01*
X0081995Y0023460D01*
X0082254Y0023200D01*
X0084435Y0023200D01*
X0084435Y0022515D01*
X0085255Y0021694D01*
X0086200Y0021694D01*
X0086200Y0019746D01*
X0085200Y0018746D01*
X0085200Y0016565D01*
X0084515Y0016565D01*
X0083694Y0015745D01*
X0083694Y0014800D01*
X0082305Y0014800D01*
X0082305Y0015745D01*
X0081485Y0016565D01*
X0076389Y0016565D01*
X0075569Y0015745D01*
X0075569Y0010255D01*
X0076389Y0009435D01*
X0081485Y0009435D01*
X0082305Y0010255D01*
X0082305Y0011200D01*
X0083694Y0011200D01*
X0083694Y0010255D01*
X0084515Y0009435D01*
X0089611Y0009435D01*
X0090431Y0010255D01*
X0090431Y0015745D01*
X0089611Y0016565D01*
X0088800Y0016565D01*
X0088800Y0017254D01*
X0089800Y0018254D01*
X0089800Y0021694D01*
X0090745Y0021694D01*
X0091565Y0022515D01*
X0091565Y0027611D01*
X0090745Y0028431D01*
X0085255Y0028431D01*
X0084435Y0027611D01*
X0084435Y0026800D01*
X0083746Y0026800D01*
X0083486Y0027060D01*
X0081746Y0027060D01*
X0081746Y0027415D01*
X0080926Y0028235D01*
X0078192Y0028235D01*
X0078145Y0028188D01*
X0077972Y0028235D01*
X0077780Y0028235D01*
X0078800Y0029254D01*
X0078800Y0029765D01*
X0080926Y0029765D01*
X0081746Y0030585D01*
X0081746Y0030940D01*
X0083486Y0030940D01*
X0083746Y0031200D01*
X0084435Y0031200D01*
X0084435Y0030389D01*
X0085255Y0029569D01*
X0090745Y0029569D01*
X0091565Y0030389D01*
X0091565Y0031137D01*
X0093435Y0031137D01*
X0093435Y0030389D01*
X0094255Y0029569D01*
X0099745Y0029569D01*
X0100565Y0030389D01*
X0100565Y0035485D01*
X0099745Y0036305D01*
X0094255Y0036305D01*
X0093435Y0035485D01*
X0093435Y0034737D01*
X0091565Y0034737D01*
X0091565Y0035485D01*
X0090745Y0036305D01*
X0085255Y0036305D01*
X0084435Y0035485D01*
X0084435Y0034800D01*
X0082254Y0034800D01*
X0081995Y0034540D01*
X0081746Y0034540D01*
X0081746Y0034895D01*
X0080926Y0035715D01*
X0078800Y0035715D01*
X0078800Y0036254D01*
X0079800Y0037254D01*
X0079800Y0038694D01*
X0080745Y0038694D01*
X0081565Y0039515D01*
X0081565Y0044611D01*
X0080977Y0045200D01*
X0091149Y0045200D01*
X0090694Y0044745D01*
X0090694Y0044000D01*
X0090650Y0044000D01*
X0090462Y0044188D01*
X0089513Y0044581D01*
X0088487Y0044581D01*
X0087538Y0044188D01*
X0086812Y0043462D01*
X0086419Y0042513D01*
X0086419Y0041487D01*
X0086812Y0040538D01*
X0087538Y0039812D01*
X0088487Y0039419D01*
X0089513Y0039419D01*
X0090462Y0039812D01*
X0090650Y0040000D01*
X0090694Y0040000D01*
X0090694Y0039255D01*
X0091515Y0038435D01*
X0096611Y0038435D01*
X0097431Y0039255D01*
X0097431Y0044745D01*
X0096977Y0045200D01*
X0099023Y0045200D01*
X0098569Y0044745D01*
X0098569Y0043051D01*
X0098263Y0042746D01*
X0098263Y0041254D01*
X0098569Y0040949D01*
X0098569Y0039255D01*
X0099389Y0038435D01*
X0104485Y0038435D01*
X0105200Y0039149D01*
X0105200Y0036746D01*
X0104200Y0035746D01*
X0104200Y0034305D01*
X0103255Y0034305D01*
X0102435Y0033485D01*
X0102435Y0028389D01*
X0103255Y0027569D01*
X0108745Y0027569D01*
X0109565Y0028389D01*
X0109565Y0029137D01*
X0110683Y0029137D01*
X0110746Y0029200D01*
X0111025Y0029200D01*
X0111025Y0028995D01*
X0111845Y0028175D01*
X0116155Y0028175D01*
X0116975Y0028995D01*
X0116975Y0033304D01*
X0116155Y0034124D01*
X0111845Y0034124D01*
X0111025Y0033304D01*
X0111025Y0032800D01*
X0109565Y0032800D01*
X0109565Y0033485D01*
X0108745Y0034305D01*
X0107851Y0034305D01*
X0108800Y0035254D01*
X0108800Y0038420D01*
X0109092Y0038420D01*
X0109092Y0037298D01*
X0109912Y0036478D01*
X0111920Y0036478D01*
X0111920Y0035534D01*
X0113254Y0034200D01*
X0119149Y0034200D01*
X0118435Y0033485D01*
X0118435Y0028389D01*
X0119255Y0027569D01*
X0124745Y0027569D01*
X0125565Y0028389D01*
X0125565Y0033485D01*
X0124745Y0034305D01*
X0123800Y0034305D01*
X0123800Y0035746D01*
X0122800Y0036746D01*
X0121746Y0037800D01*
X0120908Y0037800D01*
X0120908Y0038420D01*
X0121966Y0038420D01*
X0122964Y0039419D01*
X0123513Y0039419D01*
X0124462Y0039812D01*
X0124882Y0040231D01*
X0125025Y0040231D01*
X0125025Y0039696D01*
X0125845Y0038876D01*
X0130155Y0038876D01*
X0130975Y0039696D01*
X0130975Y0044005D01*
X0130155Y0044825D01*
X0125845Y0044825D01*
X0125025Y0044005D01*
X0125025Y0043831D01*
X0124819Y0043831D01*
X0124462Y0044188D01*
X0123513Y0044581D01*
X0122487Y0044581D01*
X0121538Y0044188D01*
X0120812Y0043462D01*
X0120746Y0043304D01*
X0120088Y0043963D01*
X0117589Y0043963D01*
X0117559Y0043933D01*
X0117529Y0043963D01*
X0115030Y0043963D01*
X0115000Y0043933D01*
X0114970Y0043963D01*
X0112471Y0043963D01*
X0112441Y0043933D01*
X0112411Y0043963D01*
X0109912Y0043963D01*
X0109092Y0043143D01*
X0109092Y0042020D01*
X0107525Y0042020D01*
X0106800Y0042746D01*
X0105746Y0043800D01*
X0105305Y0043800D01*
X0105305Y0044745D01*
X0104485Y0045565D01*
X0102111Y0045565D01*
X0102746Y0046200D01*
X0103800Y0047254D01*
X0103800Y0048435D01*
X0104485Y0048435D01*
X0105305Y0049255D01*
X0105305Y0050200D01*
X0113746Y0050200D01*
X0114800Y0051254D01*
X0115520Y0051975D01*
X0115520Y0054037D01*
X0117529Y0054037D01*
X0117559Y0054067D01*
X0117589Y0054037D01*
X0120088Y0054037D01*
X0120908Y0054857D01*
X0120908Y0056141D01*
X0127313Y0056141D01*
X0131200Y0052254D01*
X0131200Y0038254D01*
X0133200Y0036254D01*
X0134254Y0035200D01*
X0162254Y0035200D01*
X0165200Y0032254D01*
X0165200Y0016254D01*
X0169200Y0012254D01*
X0170254Y0011200D01*
X0195746Y0011200D01*
X0198650Y0014105D01*
X0198650Y0016025D01*
X0199005Y0016025D01*
X0199825Y0016845D01*
X0199825Y0021155D01*
X0199005Y0021975D01*
X0194696Y0021975D01*
X0193876Y0021155D01*
X0193876Y0016845D01*
X0194696Y0016025D01*
X0195050Y0016025D01*
X0195050Y0015596D01*
X0194254Y0014800D01*
X0171746Y0014800D01*
X0168800Y0017746D01*
X0168800Y0033746D01*
X0167746Y0034800D01*
X0163746Y0038800D01*
X0135746Y0038800D01*
X0134800Y0039746D01*
X0134800Y0053746D01*
X0133746Y0054800D01*
X0128805Y0059741D01*
X0120908Y0059741D01*
X0120908Y0060702D01*
X0120800Y0060810D01*
X0120800Y0065746D01*
X0119746Y0066800D01*
X0119305Y0067240D01*
X0119305Y0070745D01*
X0118485Y0071565D01*
X0114048Y0071565D01*
X0114917Y0072435D01*
X0118485Y0072435D01*
X0119305Y0073255D01*
X0119305Y0078745D01*
X0118485Y0079565D01*
X0114048Y0079565D01*
X0114917Y0080435D01*
X0118485Y0080435D01*
X0119305Y0081255D01*
X0119305Y0086745D01*
X0118485Y0087565D01*
X0114048Y0087565D01*
X0114917Y0088435D01*
X0118485Y0088435D01*
X0119305Y0089255D01*
X0119305Y0094200D01*
X0123200Y0094200D01*
X0123200Y0093850D01*
X0122812Y0093462D01*
X0122419Y0092513D01*
X0122419Y0091487D01*
X0122812Y0090538D01*
X0123100Y0090250D01*
X0123100Y0088305D01*
X0122255Y0088305D01*
X0121435Y0087485D01*
X0121435Y0082389D01*
X0122255Y0081569D01*
X0127745Y0081569D01*
X0128565Y0082389D01*
X0128565Y0087485D01*
X0127745Y0088305D01*
X0126900Y0088305D01*
X0126900Y0090250D01*
X0127188Y0090538D01*
X0127581Y0091487D01*
X0127581Y0092513D01*
X0127188Y0093462D01*
X0126800Y0093850D01*
X0126800Y0095746D01*
X0125746Y0096800D01*
X0124746Y0097800D01*
X0111254Y0097800D01*
X0110200Y0096746D01*
X0109020Y0095565D01*
X0105515Y0095565D01*
X0104694Y0094745D01*
X0104694Y0093956D01*
X0104462Y0094188D01*
X0103513Y0094581D01*
X0102487Y0094581D01*
X0101538Y0094188D01*
X0100812Y0093462D01*
X0100419Y0092513D01*
X0100419Y0091487D01*
X0100812Y0090538D01*
X0101538Y0089812D01*
X0102487Y0089419D01*
X0103513Y0089419D01*
X0104462Y0089812D01*
X0104694Y0090044D01*
X0104694Y0089255D01*
X0105515Y0088435D01*
X0109826Y0088435D01*
X0108957Y0087565D01*
X0105515Y0087565D01*
X0104694Y0086745D01*
X0104694Y0085800D01*
X0102254Y0085800D01*
X0101200Y0084746D01*
X0100200Y0083746D01*
X0100200Y0083693D01*
X0099966Y0083928D01*
X0099350Y0083928D01*
X0099581Y0084487D01*
X0099581Y0085513D01*
X0099188Y0086462D01*
X0098800Y0086850D01*
X0098800Y0087746D01*
X0097746Y0088800D01*
X0097124Y0089421D01*
X0097124Y0092155D01*
X0096304Y0092975D01*
X0091995Y0092975D01*
X0091175Y0092155D01*
X0091175Y0087845D01*
X0091995Y0087025D01*
X0094429Y0087025D01*
X0094902Y0086552D01*
X0094812Y0086462D01*
X0094419Y0085513D01*
X0094419Y0084487D01*
X0094714Y0083773D01*
X0094049Y0083107D01*
X0094049Y0080806D01*
X0094178Y0080677D01*
X0094049Y0080548D01*
X0094049Y0078247D01*
X0094178Y0078118D01*
X0094049Y0077989D01*
X0094049Y0076080D01*
X0091534Y0076080D01*
X0091254Y0075800D01*
X0087254Y0075800D01*
X0086200Y0074746D01*
X0083200Y0071746D01*
X0083200Y0061254D01*
X0084254Y0060200D01*
X0086254Y0058200D01*
X0100746Y0058200D01*
X0101800Y0059254D01*
X0103746Y0061200D01*
X0109590Y0061200D01*
X0109372Y0060982D01*
X0109188Y0060662D01*
X0109092Y0060306D01*
X0109092Y0057780D01*
X0111161Y0057780D01*
X0111161Y0057779D01*
X0111161Y0057779D01*
X0111161Y0054037D01*
X0110308Y0054037D01*
X0109952Y0054132D01*
X0109633Y0054317D01*
X0109372Y0054577D01*
X0109188Y0054897D01*
X0109092Y0055253D01*
X0109092Y0057779D01*
X0111161Y0057779D01*
X0111161Y0054037D01*
X0111920Y0054037D01*
X0111920Y0053800D01*
X0105305Y0053800D01*
X0105305Y0054745D01*
X0104485Y0055565D01*
X0099389Y0055565D01*
X0098569Y0054745D01*
X0098569Y0049255D01*
X0099023Y0048800D01*
X0096977Y0048800D01*
X0097431Y0049255D01*
X0097431Y0054745D01*
X0096611Y0055565D01*
X0091515Y0055565D01*
X0090694Y0054745D01*
X0090694Y0054000D01*
X0090650Y0054000D01*
X0090462Y0054188D01*
X0089513Y0054581D01*
X0088487Y0054581D01*
X0087538Y0054188D01*
X0086812Y0053462D01*
X0086419Y0052513D01*
X0086419Y0051487D01*
X0086812Y0050538D01*
X0087538Y0049812D01*
X0088487Y0049419D01*
X0089513Y0049419D01*
X0090462Y0049812D01*
X0090650Y0050000D01*
X0090694Y0050000D01*
X0090694Y0049255D01*
X0091149Y0048800D01*
X0081746Y0048800D01*
X0081565Y0048980D01*
X0081565Y0052485D01*
X0080745Y0053305D01*
X0075255Y0053305D01*
X0074435Y0052485D01*
X0074435Y0047389D01*
X0075255Y0046569D01*
X0078886Y0046569D01*
X0079200Y0046254D01*
X0080023Y0045431D01*
X0075255Y0045431D01*
X0074435Y0044611D01*
X0074435Y0043800D01*
X0068800Y0043800D01*
X0068800Y0044354D01*
X0069298Y0044560D01*
X0070440Y0045702D01*
X0071057Y0047193D01*
X0071057Y0048807D01*
X0070440Y0050298D01*
X0069298Y0051440D01*
X0067807Y0052057D01*
X0066193Y0052057D01*
X0064702Y0051440D01*
X0063560Y0050298D01*
X0062943Y0048807D01*
X0062943Y0047193D01*
X0063560Y0045702D01*
X0064702Y0044560D01*
X0065200Y0044354D01*
X0065200Y0043800D01*
X0058254Y0043800D01*
X0057200Y0042746D01*
X0055200Y0040746D01*
X0055200Y0039305D01*
X0054255Y0039305D01*
X0053435Y0038485D01*
X0053435Y0037737D01*
X0052526Y0037737D01*
X0051745Y0038518D01*
X0050800Y0038518D01*
X0050800Y0039746D01*
X0049746Y0040800D01*
X0049068Y0041478D01*
X0050088Y0041478D01*
X0050908Y0042298D01*
X0050908Y0043420D01*
X0051483Y0043420D01*
X0051487Y0043419D01*
X0052513Y0043419D01*
X0053462Y0043812D01*
X0054186Y0044535D01*
X0054845Y0043876D01*
X0059155Y0043876D01*
X0059975Y0044696D01*
X0059975Y0049005D01*
X0059155Y0049825D01*
X0054845Y0049825D01*
X0054025Y0049005D01*
X0054025Y0048800D01*
X0052254Y0048800D01*
X0052036Y0048581D01*
X0051487Y0048581D01*
X0050768Y0048283D01*
X0050088Y0048963D01*
X0047589Y0048963D01*
X0047559Y0048933D01*
X0047529Y0048963D01*
X0045030Y0048963D01*
X0045000Y0048933D01*
X0044970Y0048963D01*
X0042471Y0048963D01*
X0042441Y0048933D01*
X0042411Y0048963D01*
X0041509Y0048963D01*
X0041746Y0049200D01*
X0047746Y0049200D01*
X0048746Y0050200D01*
X0049800Y0051254D01*
X0049800Y0056418D01*
X0050213Y0056991D01*
X0050639Y0057416D01*
X0050639Y0057580D01*
X0050734Y0057712D01*
X0050639Y0058306D01*
X0050639Y0059588D01*
X0050908Y0059857D01*
X0050908Y0060980D01*
X0052525Y0060980D01*
X0053746Y0062200D01*
X0057435Y0062200D01*
X0057435Y0061515D01*
X0058255Y0060694D01*
X0063745Y0060694D01*
X0064565Y0061515D01*
X0064565Y0066611D01*
X0063745Y0067431D01*
X0058255Y0067431D01*
X0057435Y0066611D01*
X0057435Y0065800D01*
X0052254Y0065800D01*
X0051200Y0064746D01*
X0051034Y0064580D01*
X0050908Y0064580D01*
X0050908Y0065702D01*
X0050639Y0065971D01*
X0050639Y0070907D01*
X0049800Y0071746D01*
X0049800Y0078746D01*
X0046746Y0081800D01*
X0036254Y0081800D01*
X0035200Y0080746D01*
X0031995Y0077540D01*
X0016565Y0077540D01*
X0016565Y0077698D01*
X0015745Y0078518D01*
X0010255Y0078518D01*
X0009435Y0077698D01*
X0009435Y0073782D01*
X0010255Y0072962D01*
X0015745Y0072962D01*
X0016565Y0073782D01*
X0016565Y0073940D01*
X0033486Y0073940D01*
X0037746Y0078200D01*
X0039894Y0078200D01*
X0039869Y0078189D01*
X0038811Y0077131D01*
X0038238Y0075748D01*
X0038238Y0074252D01*
X0038811Y0072869D01*
X0039869Y0071811D01*
X0041252Y0071238D01*
X0042748Y0071238D01*
X0043079Y0071375D01*
X0044200Y0070254D01*
X0044200Y0066522D01*
X0042471Y0066522D01*
X0042374Y0066425D01*
X0042371Y0066427D01*
X0042015Y0066522D01*
X0041161Y0066522D01*
X0041161Y0066485D02*
X0041161Y0066485D01*
X0041161Y0065687D02*
X0041161Y0065687D01*
X0041161Y0064888D02*
X0041161Y0064888D01*
X0041161Y0064090D02*
X0041161Y0064090D01*
X0041161Y0063291D02*
X0041161Y0063291D01*
X0041161Y0062493D02*
X0041161Y0062493D01*
X0041161Y0061694D02*
X0041161Y0061694D01*
X0041161Y0060896D02*
X0041161Y0060896D01*
X0041161Y0060097D02*
X0041161Y0060097D01*
X0041161Y0059299D02*
X0041161Y0059299D01*
X0043720Y0062780D02*
X0043720Y0054720D01*
X0042000Y0053000D01*
X0031063Y0053000D01*
X0031000Y0053063D01*
X0028063Y0053063D01*
X0034565Y0051200D02*
X0038654Y0051200D01*
X0038254Y0050800D01*
X0035254Y0050800D01*
X0034565Y0050515D02*
X0034565Y0051200D01*
X0034171Y0049717D02*
X0033767Y0049717D01*
X0033373Y0048918D02*
X0028800Y0048918D01*
X0028665Y0048120D02*
X0033200Y0048120D01*
X0033200Y0047321D02*
X0028518Y0047321D01*
X0028518Y0046523D02*
X0033200Y0046523D01*
X0033200Y0045724D02*
X0028518Y0045724D01*
X0028518Y0044926D02*
X0033200Y0044926D01*
X0033200Y0044127D02*
X0028518Y0044127D01*
X0028518Y0043329D02*
X0033200Y0043329D01*
X0033200Y0042530D02*
X0028518Y0042530D01*
X0027995Y0041732D02*
X0033200Y0041732D01*
X0033200Y0040933D02*
X0020060Y0040933D01*
X0020060Y0040590D02*
X0020060Y0041435D01*
X0020218Y0041435D01*
X0021038Y0042255D01*
X0021038Y0047745D01*
X0020218Y0048565D01*
X0016302Y0048565D01*
X0015482Y0047745D01*
X0015482Y0042255D01*
X0016302Y0041435D01*
X0016460Y0041435D01*
X0016460Y0041110D01*
X0015812Y0040462D01*
X0015419Y0039513D01*
X0015419Y0038487D01*
X0015812Y0037538D01*
X0016538Y0036812D01*
X0017487Y0036419D01*
X0018513Y0036419D01*
X0019462Y0036812D01*
X0020188Y0037538D01*
X0020581Y0038487D01*
X0020581Y0039513D01*
X0020188Y0040462D01*
X0020060Y0040590D01*
X0020324Y0040134D02*
X0033200Y0040134D01*
X0033200Y0039336D02*
X0020581Y0039336D01*
X0020581Y0038537D02*
X0033917Y0038537D01*
X0034200Y0037739D02*
X0020271Y0037739D01*
X0020252Y0036762D02*
X0018869Y0036189D01*
X0017811Y0035131D01*
X0017238Y0033748D01*
X0017238Y0032252D01*
X0017811Y0030869D01*
X0018869Y0029811D01*
X0020252Y0029238D01*
X0021748Y0029238D01*
X0022079Y0029375D01*
X0027375Y0024079D01*
X0027238Y0023748D01*
X0027238Y0022252D01*
X0027811Y0020869D01*
X0028869Y0019811D01*
X0030252Y0019238D01*
X0031748Y0019238D01*
X0032079Y0019375D01*
X0038254Y0013200D01*
X0044513Y0013200D01*
X0044513Y0012452D01*
X0045333Y0011631D01*
X0052005Y0011631D01*
X0052825Y0012452D01*
X0052825Y0017548D01*
X0052005Y0018368D01*
X0049914Y0018368D01*
X0056240Y0024694D01*
X0059745Y0024694D01*
X0060565Y0025515D01*
X0060565Y0030611D01*
X0059745Y0031431D01*
X0054255Y0031431D01*
X0053435Y0030611D01*
X0053435Y0026980D01*
X0047254Y0020800D01*
X0046200Y0019746D01*
X0046200Y0018368D01*
X0045333Y0018368D01*
X0044513Y0017548D01*
X0044513Y0016800D01*
X0039746Y0016800D01*
X0034625Y0021921D01*
X0034762Y0022252D01*
X0034762Y0023748D01*
X0034189Y0025131D01*
X0033131Y0026189D01*
X0031748Y0026762D01*
X0030252Y0026762D01*
X0029921Y0026625D01*
X0024625Y0031921D01*
X0024762Y0032252D01*
X0024762Y0033748D01*
X0024189Y0035131D01*
X0023131Y0036189D01*
X0021748Y0036762D01*
X0020252Y0036762D01*
X0019591Y0036940D02*
X0034200Y0036940D01*
X0034200Y0036142D02*
X0023179Y0036142D01*
X0023977Y0035343D02*
X0034200Y0035343D01*
X0034200Y0034545D02*
X0024432Y0034545D01*
X0024762Y0033746D02*
X0034200Y0033746D01*
X0034200Y0032948D02*
X0024762Y0032948D01*
X0024720Y0032149D02*
X0034200Y0032149D01*
X0034200Y0031351D02*
X0025195Y0031351D01*
X0025993Y0030552D02*
X0034200Y0030552D01*
X0034200Y0029754D02*
X0026792Y0029754D01*
X0027590Y0028955D02*
X0034499Y0028955D01*
X0035298Y0028157D02*
X0028389Y0028157D01*
X0029187Y0027358D02*
X0036096Y0027358D01*
X0036895Y0026560D02*
X0032237Y0026560D01*
X0033559Y0025761D02*
X0037435Y0025761D01*
X0037986Y0024963D02*
X0034259Y0024963D01*
X0034590Y0024164D02*
X0050619Y0024164D01*
X0051417Y0024963D02*
X0044014Y0024963D01*
X0044565Y0025761D02*
X0045975Y0025761D01*
X0045435Y0026560D02*
X0044565Y0026560D01*
X0044565Y0027358D02*
X0045435Y0027358D01*
X0045435Y0028157D02*
X0044565Y0028157D01*
X0044565Y0028955D02*
X0045435Y0028955D01*
X0044960Y0029754D02*
X0044565Y0029754D01*
X0041000Y0028063D02*
X0041000Y0028000D01*
X0038000Y0028000D01*
X0036000Y0030000D01*
X0036000Y0039000D01*
X0035000Y0040000D01*
X0035000Y0048000D01*
X0036000Y0049000D01*
X0039000Y0049000D01*
X0041000Y0051000D01*
X0047000Y0051000D01*
X0048000Y0052000D01*
X0048000Y0057000D01*
X0048839Y0058161D01*
X0048839Y0062780D01*
X0048839Y0070161D01*
X0048000Y0071000D01*
X0048000Y0078000D01*
X0046000Y0080000D01*
X0037000Y0080000D01*
X0032740Y0075740D01*
X0013000Y0075740D01*
X0009435Y0076068D02*
X0007337Y0076068D01*
X0007337Y0076866D02*
X0009435Y0076866D01*
X0009435Y0077665D02*
X0007337Y0077665D01*
X0007337Y0078463D02*
X0010200Y0078463D01*
X0007337Y0079262D02*
X0033716Y0079262D01*
X0034514Y0080060D02*
X0022710Y0080060D01*
X0022462Y0079812D02*
X0023188Y0080538D01*
X0023581Y0081487D01*
X0023581Y0082513D01*
X0023188Y0083462D01*
X0022800Y0083850D01*
X0022800Y0084694D01*
X0023745Y0084694D01*
X0024565Y0085515D01*
X0024565Y0090611D01*
X0023745Y0091431D01*
X0018255Y0091431D01*
X0017435Y0090611D01*
X0017435Y0089800D01*
X0015368Y0089800D01*
X0015368Y0089972D01*
X0013972Y0091368D01*
X0010028Y0091368D01*
X0008631Y0089972D01*
X0008631Y0086028D01*
X0010028Y0084631D01*
X0013972Y0084631D01*
X0015368Y0086028D01*
X0015368Y0086200D01*
X0017435Y0086200D01*
X0017435Y0085515D01*
X0018255Y0084694D01*
X0019200Y0084694D01*
X0019200Y0083850D01*
X0018812Y0083462D01*
X0018419Y0082513D01*
X0018419Y0081487D01*
X0018812Y0080538D01*
X0019538Y0079812D01*
X0020487Y0079419D01*
X0021513Y0079419D01*
X0022462Y0079812D01*
X0023321Y0080859D02*
X0035313Y0080859D01*
X0036112Y0081657D02*
X0033761Y0081657D01*
X0034131Y0081811D02*
X0035189Y0082869D01*
X0035762Y0084252D01*
X0035762Y0085748D01*
X0035189Y0087131D01*
X0034131Y0088189D01*
X0033800Y0088327D01*
X0033800Y0094746D01*
X0032746Y0095800D01*
X0030809Y0097737D01*
X0024565Y0097737D01*
X0024565Y0098485D01*
X0023745Y0099305D01*
X0018255Y0099305D01*
X0017435Y0098485D01*
X0017435Y0093389D01*
X0018255Y0092569D01*
X0023745Y0092569D01*
X0024565Y0093389D01*
X0024565Y0094137D01*
X0029317Y0094137D01*
X0030200Y0093254D01*
X0030200Y0088327D01*
X0029869Y0088189D01*
X0028811Y0087131D01*
X0028238Y0085748D01*
X0028238Y0084252D01*
X0028811Y0082869D01*
X0029869Y0081811D01*
X0031252Y0081238D01*
X0032748Y0081238D01*
X0034131Y0081811D01*
X0034776Y0082456D02*
X0049224Y0082456D01*
X0048811Y0082869D02*
X0049869Y0081811D01*
X0050200Y0081673D01*
X0050200Y0078254D01*
X0052200Y0076254D01*
X0053254Y0075200D01*
X0055191Y0075200D01*
X0057435Y0072957D01*
X0057435Y0069389D01*
X0058255Y0068569D01*
X0063745Y0068569D01*
X0064565Y0069389D01*
X0064565Y0074485D01*
X0063745Y0075305D01*
X0060177Y0075305D01*
X0056683Y0078800D01*
X0054746Y0078800D01*
X0053800Y0079746D01*
X0053800Y0081673D01*
X0054131Y0081811D01*
X0055189Y0082869D01*
X0055762Y0084252D01*
X0055762Y0085748D01*
X0055189Y0087131D01*
X0054131Y0088189D01*
X0052748Y0088762D01*
X0051252Y0088762D01*
X0049869Y0088189D01*
X0048811Y0087131D01*
X0048238Y0085748D01*
X0048238Y0084252D01*
X0048811Y0082869D01*
X0048651Y0083254D02*
X0035349Y0083254D01*
X0035680Y0084053D02*
X0048320Y0084053D01*
X0048238Y0084851D02*
X0035762Y0084851D01*
X0035762Y0085650D02*
X0048238Y0085650D01*
X0048528Y0086448D02*
X0035472Y0086448D01*
X0035074Y0087247D02*
X0048926Y0087247D01*
X0049725Y0088045D02*
X0034275Y0088045D01*
X0033800Y0088844D02*
X0084876Y0088844D01*
X0084876Y0088241D02*
X0084971Y0087885D01*
X0085155Y0087566D01*
X0085416Y0087305D01*
X0085735Y0087121D01*
X0086091Y0087025D01*
X0087463Y0087025D01*
X0087463Y0089613D01*
X0084876Y0089613D01*
X0084876Y0088241D01*
X0084928Y0088045D02*
X0054275Y0088045D01*
X0055074Y0087247D02*
X0085517Y0087247D01*
X0087463Y0087247D02*
X0088238Y0087247D01*
X0088238Y0087025D02*
X0089610Y0087025D01*
X0089966Y0087121D01*
X0090285Y0087305D01*
X0090545Y0087566D01*
X0090730Y0087885D01*
X0090825Y0088241D01*
X0090825Y0089613D01*
X0088238Y0089613D01*
X0088238Y0090387D01*
X0090825Y0090387D01*
X0090825Y0091759D01*
X0090730Y0092115D01*
X0090545Y0092434D01*
X0090285Y0092695D01*
X0089966Y0092879D01*
X0089610Y0092975D01*
X0088238Y0092975D01*
X0088238Y0090387D01*
X0087463Y0090387D01*
X0087463Y0089613D01*
X0088238Y0089613D01*
X0088238Y0087025D01*
X0088238Y0088045D02*
X0087463Y0088045D01*
X0087463Y0088844D02*
X0088238Y0088844D01*
X0088238Y0089642D02*
X0091175Y0089642D01*
X0091175Y0088844D02*
X0090825Y0088844D01*
X0090773Y0088045D02*
X0091175Y0088045D01*
X0091773Y0087247D02*
X0090184Y0087247D01*
X0094475Y0085650D02*
X0055762Y0085650D01*
X0055762Y0084851D02*
X0094419Y0084851D01*
X0094599Y0084053D02*
X0055680Y0084053D01*
X0055349Y0083254D02*
X0071361Y0083254D01*
X0071214Y0083107D02*
X0071214Y0080806D01*
X0071343Y0080677D01*
X0071214Y0080548D01*
X0071214Y0078247D01*
X0071343Y0078118D01*
X0071214Y0077989D01*
X0071214Y0075688D01*
X0071343Y0075559D01*
X0071214Y0075430D01*
X0071214Y0073129D01*
X0071343Y0073000D01*
X0071214Y0072871D01*
X0071214Y0070570D01*
X0071383Y0070400D01*
X0071310Y0070273D01*
X0071214Y0069917D01*
X0071214Y0069161D01*
X0071214Y0068406D01*
X0071310Y0068050D01*
X0071407Y0067882D01*
X0071310Y0067714D01*
X0071214Y0067358D01*
X0071214Y0066602D01*
X0071214Y0065847D01*
X0071310Y0065491D01*
X0071407Y0065323D01*
X0071310Y0065155D01*
X0071214Y0064798D01*
X0071214Y0064043D01*
X0071214Y0063288D01*
X0071310Y0062932D01*
X0071494Y0062613D01*
X0071755Y0062352D01*
X0072074Y0062168D01*
X0072430Y0062072D01*
X0074583Y0062072D01*
X0076735Y0062072D01*
X0077092Y0062168D01*
X0077411Y0062352D01*
X0077671Y0062613D01*
X0077856Y0062932D01*
X0077951Y0063288D01*
X0077951Y0064043D01*
X0074583Y0064043D01*
X0074583Y0064043D01*
X0074583Y0062072D01*
X0074583Y0064043D01*
X0074583Y0064043D01*
X0077951Y0064043D01*
X0077951Y0064798D01*
X0077856Y0065155D01*
X0077759Y0065323D01*
X0077856Y0065491D01*
X0077951Y0065847D01*
X0077951Y0066602D01*
X0074583Y0066602D01*
X0074583Y0066602D01*
X0074583Y0064043D01*
X0071214Y0064043D01*
X0074583Y0064043D01*
X0074583Y0064043D01*
X0074583Y0064043D01*
X0074583Y0066014D01*
X0074583Y0066602D01*
X0074583Y0066602D01*
X0077951Y0066602D01*
X0077951Y0067358D01*
X0077856Y0067714D01*
X0077759Y0067882D01*
X0077856Y0068050D01*
X0077951Y0068406D01*
X0077951Y0069161D01*
X0074583Y0069161D01*
X0074583Y0066602D01*
X0071214Y0066602D01*
X0074583Y0066602D01*
X0074583Y0066602D01*
X0074583Y0066602D01*
X0074583Y0068573D01*
X0074583Y0069161D01*
X0074583Y0069161D01*
X0074583Y0069161D01*
X0077951Y0069161D01*
X0077951Y0069917D01*
X0077856Y0070273D01*
X0077782Y0070400D01*
X0077951Y0070570D01*
X0077951Y0072871D01*
X0077822Y0073000D01*
X0077951Y0073129D01*
X0077951Y0075430D01*
X0077822Y0075559D01*
X0077951Y0075688D01*
X0077951Y0077989D01*
X0077822Y0078118D01*
X0077951Y0078247D01*
X0077951Y0080548D01*
X0077822Y0080677D01*
X0077951Y0080806D01*
X0077951Y0083107D01*
X0077131Y0083928D01*
X0072034Y0083928D01*
X0071214Y0083107D01*
X0071214Y0082456D02*
X0054776Y0082456D01*
X0053800Y0081657D02*
X0071214Y0081657D01*
X0071214Y0080859D02*
X0053800Y0080859D01*
X0053800Y0080060D02*
X0071214Y0080060D01*
X0071214Y0079262D02*
X0054284Y0079262D01*
X0054000Y0077000D02*
X0055937Y0077000D01*
X0061000Y0071937D01*
X0057435Y0072075D02*
X0049800Y0072075D01*
X0049800Y0072873D02*
X0057435Y0072873D01*
X0056719Y0073672D02*
X0049800Y0073672D01*
X0049800Y0074470D02*
X0055921Y0074470D01*
X0053185Y0075269D02*
X0049800Y0075269D01*
X0049800Y0076068D02*
X0052387Y0076068D01*
X0051588Y0076866D02*
X0049800Y0076866D01*
X0049800Y0077665D02*
X0050790Y0077665D01*
X0050200Y0078463D02*
X0049800Y0078463D01*
X0050200Y0079262D02*
X0049284Y0079262D01*
X0048486Y0080060D02*
X0050200Y0080060D01*
X0050200Y0080859D02*
X0047687Y0080859D01*
X0046888Y0081657D02*
X0050200Y0081657D01*
X0052000Y0079000D02*
X0054000Y0077000D01*
X0052000Y0079000D02*
X0052000Y0085000D01*
X0055472Y0086448D02*
X0094806Y0086448D01*
X0097000Y0087000D02*
X0097000Y0085000D01*
X0097000Y0082374D01*
X0097417Y0081957D01*
X0094049Y0081657D02*
X0077951Y0081657D01*
X0077951Y0080859D02*
X0094049Y0080859D01*
X0094049Y0080060D02*
X0077951Y0080060D01*
X0077951Y0079262D02*
X0094049Y0079262D01*
X0094049Y0078463D02*
X0077951Y0078463D01*
X0077951Y0077665D02*
X0094049Y0077665D01*
X0094049Y0076866D02*
X0077951Y0076866D01*
X0077951Y0076068D02*
X0091522Y0076068D01*
X0092280Y0074280D02*
X0092000Y0074000D01*
X0088000Y0074000D01*
X0085000Y0071000D01*
X0085000Y0062000D01*
X0087000Y0060000D01*
X0100000Y0060000D01*
X0103000Y0063000D01*
X0115000Y0063000D01*
X0116280Y0061720D01*
X0116280Y0057780D01*
X0118839Y0057780D02*
X0119000Y0057941D01*
X0128059Y0057941D01*
X0133000Y0053000D01*
X0133000Y0039000D01*
X0135000Y0037000D01*
X0163000Y0037000D01*
X0167000Y0033000D01*
X0167000Y0017000D01*
X0171000Y0013000D01*
X0195000Y0013000D01*
X0196850Y0014850D01*
X0196850Y0019000D01*
X0193876Y0019373D02*
X0190518Y0019373D01*
X0190518Y0018575D02*
X0193876Y0018575D01*
X0193876Y0017776D02*
X0190040Y0017776D01*
X0189698Y0017435D02*
X0190518Y0018255D01*
X0190518Y0023200D01*
X0191746Y0023200D01*
X0192694Y0024149D01*
X0192694Y0023255D01*
X0193515Y0022435D01*
X0198611Y0022435D01*
X0199431Y0023255D01*
X0199431Y0026886D01*
X0200569Y0028023D01*
X0200569Y0023255D01*
X0201350Y0022474D01*
X0201350Y0021975D01*
X0200995Y0021975D01*
X0200175Y0021155D01*
X0200175Y0016845D01*
X0200995Y0016025D01*
X0205304Y0016025D01*
X0206124Y0016845D01*
X0206124Y0021155D01*
X0205304Y0021975D01*
X0204950Y0021975D01*
X0204950Y0022435D01*
X0206485Y0022435D01*
X0207251Y0023200D01*
X0211354Y0023200D01*
X0211560Y0022702D01*
X0212702Y0021560D01*
X0214193Y0020943D01*
X0215807Y0020943D01*
X0217298Y0021560D01*
X0218440Y0022702D01*
X0218646Y0023200D01*
X0219746Y0023200D01*
X0220800Y0024254D01*
X0221694Y0025149D01*
X0221694Y0024255D01*
X0222515Y0023435D01*
X0227611Y0023435D01*
X0228431Y0024255D01*
X0228431Y0029745D01*
X0227611Y0030565D01*
X0222515Y0030565D01*
X0221694Y0029745D01*
X0221694Y0028800D01*
X0220254Y0028800D01*
X0218531Y0027077D01*
X0218440Y0027298D01*
X0217298Y0028440D01*
X0215807Y0029057D01*
X0214193Y0029057D01*
X0212702Y0028440D01*
X0211560Y0027298D01*
X0211354Y0026800D01*
X0207305Y0026800D01*
X0207305Y0028745D01*
X0206485Y0029565D01*
X0202111Y0029565D01*
X0204746Y0032200D01*
X0205800Y0033254D01*
X0205800Y0036746D01*
X0203025Y0039520D01*
X0201963Y0039520D01*
X0201963Y0041529D01*
X0201933Y0041559D01*
X0201963Y0041589D01*
X0201963Y0044088D01*
X0201143Y0044908D01*
X0199800Y0044908D01*
X0199800Y0046654D01*
X0200254Y0046200D01*
X0207975Y0038480D01*
X0212037Y0038480D01*
X0212037Y0037364D01*
X0211513Y0037581D01*
X0210487Y0037581D01*
X0209538Y0037188D01*
X0208812Y0036462D01*
X0208419Y0035513D01*
X0208419Y0034487D01*
X0208812Y0033538D01*
X0209538Y0032812D01*
X0210487Y0032419D01*
X0211513Y0032419D01*
X0212462Y0032812D01*
X0212800Y0033150D01*
X0212857Y0033092D01*
X0218702Y0033092D01*
X0219522Y0033912D01*
X0219522Y0035920D01*
X0221435Y0035920D01*
X0221435Y0032515D01*
X0222255Y0031694D01*
X0227745Y0031694D01*
X0228565Y0032515D01*
X0228565Y0033263D01*
X0229474Y0033263D01*
X0230255Y0032482D01*
X0231137Y0032482D01*
X0231137Y0030565D01*
X0230389Y0030565D01*
X0229569Y0029745D01*
X0229569Y0024255D01*
X0230389Y0023435D01*
X0235485Y0023435D01*
X0236305Y0024255D01*
X0236305Y0029745D01*
X0235485Y0030565D01*
X0234737Y0030565D01*
X0234737Y0032482D01*
X0235745Y0032482D01*
X0236565Y0033302D01*
X0236565Y0037218D01*
X0235745Y0038038D01*
X0230255Y0038038D01*
X0229435Y0037218D01*
X0229435Y0036863D01*
X0228565Y0036863D01*
X0228565Y0037611D01*
X0227745Y0038431D01*
X0224177Y0038431D01*
X0223609Y0039000D01*
X0224177Y0039569D01*
X0227745Y0039569D01*
X0228565Y0040389D01*
X0228565Y0041137D01*
X0229435Y0041137D01*
X0229435Y0040782D01*
X0230255Y0039962D01*
X0235745Y0039962D01*
X0236565Y0040782D01*
X0236565Y0044698D01*
X0235745Y0045518D01*
X0230255Y0045518D01*
X0229474Y0044737D01*
X0228565Y0044737D01*
X0228565Y0045485D01*
X0227745Y0046305D01*
X0226800Y0046305D01*
X0226800Y0048631D01*
X0226972Y0048631D01*
X0228368Y0050028D01*
X0228368Y0053972D01*
X0226972Y0055368D01*
X0223028Y0055368D01*
X0221631Y0053972D01*
X0221631Y0050028D01*
X0223028Y0048631D01*
X0223200Y0048631D01*
X0223200Y0046305D01*
X0222255Y0046305D01*
X0221435Y0045485D01*
X0221435Y0042080D01*
X0219522Y0042080D01*
X0219522Y0044088D01*
X0218702Y0044908D01*
X0217675Y0044908D01*
X0217727Y0045348D01*
X0217637Y0045461D01*
X0217635Y0045605D01*
X0217160Y0046064D01*
X0216581Y0046798D01*
X0216581Y0047513D01*
X0216350Y0048071D01*
X0217124Y0048845D01*
X0217124Y0053155D01*
X0216304Y0053975D01*
X0211995Y0053975D01*
X0211175Y0053155D01*
X0211175Y0048845D01*
X0211738Y0048283D01*
X0211419Y0047513D01*
X0211419Y0046487D01*
X0211812Y0045538D01*
X0212538Y0044812D01*
X0212696Y0044746D01*
X0212037Y0044088D01*
X0212037Y0042080D01*
X0209466Y0042080D01*
X0202800Y0048746D01*
X0202800Y0058746D01*
X0199700Y0061846D01*
X0199700Y0062770D01*
X0199850Y0062920D01*
X0199850Y0068200D01*
X0200200Y0068200D01*
X0200200Y0062254D01*
X0201200Y0061254D01*
X0202254Y0060200D01*
X0204694Y0060200D01*
X0204694Y0059255D01*
X0205515Y0058435D01*
X0210611Y0058435D01*
X0211431Y0059255D01*
X0211431Y0064745D01*
X0210611Y0065565D01*
X0205515Y0065565D01*
X0204694Y0064745D01*
X0204694Y0063800D01*
X0203800Y0063800D01*
X0203800Y0069746D01*
X0203346Y0070200D01*
X0204694Y0070200D01*
X0204694Y0067255D01*
X0205515Y0066435D01*
X0210611Y0066435D01*
X0211431Y0067255D01*
X0211431Y0071960D01*
X0212569Y0070823D01*
X0212569Y0067255D01*
X0213389Y0066435D01*
X0218485Y0066435D01*
X0219305Y0067255D01*
X0219305Y0068200D01*
X0219746Y0068200D01*
X0220746Y0069200D01*
X0223270Y0069200D01*
X0223150Y0069080D01*
X0223150Y0068317D01*
X0222513Y0068581D01*
X0221487Y0068581D01*
X0220538Y0068188D01*
X0219812Y0067462D01*
X0219419Y0066513D01*
X0219419Y0065487D01*
X0219812Y0064538D01*
X0219979Y0064371D01*
X0219538Y0064188D01*
X0219305Y0063956D01*
X0219305Y0064745D01*
X0218485Y0065565D01*
X0213389Y0065565D01*
X0212569Y0064745D01*
X0212569Y0059255D01*
X0213389Y0058435D01*
X0218485Y0058435D01*
X0219305Y0059255D01*
X0219305Y0060044D01*
X0219538Y0059812D01*
X0220487Y0059419D01*
X0221513Y0059419D01*
X0222462Y0059812D01*
X0222850Y0060200D01*
X0226419Y0060200D01*
X0226419Y0059487D01*
X0226812Y0058538D01*
X0227538Y0057812D01*
X0228487Y0057419D01*
X0229513Y0057419D01*
X0230462Y0057812D01*
X0230850Y0058200D01*
X0231200Y0058200D01*
X0231200Y0058124D01*
X0230845Y0058124D01*
X0230025Y0057304D01*
X0230025Y0052995D01*
X0230845Y0052175D01*
X0235155Y0052175D01*
X0235975Y0052995D01*
X0235975Y0057304D01*
X0235155Y0058124D01*
X0234800Y0058124D01*
X0234800Y0059746D01*
X0233746Y0060800D01*
X0232746Y0061800D01*
X0230850Y0061800D01*
X0230800Y0061850D01*
X0230800Y0062100D01*
X0234030Y0062100D01*
X0234850Y0062920D01*
X0234850Y0064200D01*
X0237746Y0064200D01*
X0238746Y0065200D01*
X0239800Y0066254D01*
X0239800Y0067254D01*
X0240746Y0068200D01*
X0255761Y0068200D01*
X0255716Y0068155D01*
X0255143Y0066772D01*
X0255143Y0065275D01*
X0255716Y0063892D01*
X0256774Y0062834D01*
X0258157Y0062261D01*
X0259654Y0062261D01*
X0261037Y0062834D01*
X0262095Y0063892D01*
X0262668Y0065275D01*
X0262668Y0066772D01*
X0262095Y0068155D01*
X0262050Y0068200D01*
X0263627Y0068200D01*
X0265700Y0070273D01*
X0266031Y0070135D01*
X0267528Y0070135D01*
X0268911Y0070708D01*
X0269969Y0071767D01*
X0270200Y0072324D01*
X0270200Y0070746D01*
X0268739Y0069284D01*
X0267528Y0069786D01*
X0266031Y0069786D01*
X0264648Y0069213D01*
X0263590Y0068155D01*
X0263017Y0066772D01*
X0263017Y0065275D01*
X0263590Y0063892D01*
X0264648Y0062834D01*
X0266031Y0062261D01*
X0267528Y0062261D01*
X0268911Y0062834D01*
X0269969Y0063892D01*
X0270542Y0065275D01*
X0270542Y0065996D01*
X0272746Y0068200D01*
X0273800Y0069254D01*
X0273800Y0079746D01*
X0270800Y0082746D01*
X0269746Y0083800D01*
X0234850Y0083800D01*
X0234850Y0085080D01*
X0234030Y0085900D01*
X0229870Y0085900D01*
X0229841Y0085871D01*
X0229734Y0085900D01*
X0229000Y0085900D01*
X0229000Y0082000D01*
X0229000Y0082000D01*
X0229000Y0085900D01*
X0228266Y0085900D01*
X0228159Y0085871D01*
X0228130Y0085900D01*
X0226863Y0085900D01*
X0226863Y0086435D01*
X0227611Y0086435D01*
X0228431Y0087255D01*
X0228431Y0092745D01*
X0227611Y0093565D01*
X0222515Y0093565D01*
X0221694Y0092745D01*
X0221694Y0087255D01*
X0222515Y0086435D01*
X0223263Y0086435D01*
X0223263Y0085193D01*
X0223150Y0085080D01*
X0223150Y0079500D01*
X0222462Y0080188D01*
X0221513Y0080581D01*
X0220487Y0080581D01*
X0219538Y0080188D01*
X0219305Y0079956D01*
X0219305Y0080745D01*
X0218485Y0081565D01*
X0214111Y0081565D01*
X0214980Y0082435D01*
X0218485Y0082435D01*
X0219305Y0083255D01*
X0219305Y0088745D01*
X0218485Y0089565D01*
X0213389Y0089565D01*
X0212569Y0088745D01*
X0212569Y0085114D01*
X0211431Y0083977D01*
X0211431Y0088745D01*
X0210611Y0089565D01*
X0206980Y0089565D01*
X0203746Y0092800D01*
X0192254Y0092800D01*
X0190200Y0090746D01*
X0190200Y0085900D01*
X0188970Y0085900D01*
X0188150Y0085080D01*
X0188150Y0078920D01*
X0188270Y0078800D01*
X0186305Y0078800D01*
X0186305Y0079745D01*
X0185485Y0080565D01*
X0180389Y0080565D01*
X0179569Y0079745D01*
X0179569Y0074255D01*
X0180389Y0073435D01*
X0185485Y0073435D01*
X0186305Y0074255D01*
X0186305Y0075200D01*
X0194150Y0075200D01*
X0194538Y0074812D01*
X0195487Y0074419D01*
X0196513Y0074419D01*
X0197462Y0074812D01*
X0198188Y0075538D01*
X0198581Y0076487D01*
X0198581Y0077036D01*
X0199700Y0078154D01*
X0199700Y0078770D01*
X0199850Y0078920D01*
X0199850Y0083604D01*
X0200200Y0083254D01*
X0199850Y0083254D01*
X0200200Y0083254D02*
X0200200Y0079254D01*
X0201254Y0078200D01*
X0203254Y0076200D01*
X0204694Y0076200D01*
X0204694Y0075255D01*
X0205515Y0074435D01*
X0210200Y0074435D01*
X0210200Y0073565D01*
X0207043Y0073565D01*
X0206809Y0073800D01*
X0193254Y0073800D01*
X0192200Y0072746D01*
X0190200Y0070746D01*
X0190200Y0069900D01*
X0188970Y0069900D01*
X0188150Y0069080D01*
X0188150Y0062920D01*
X0188300Y0062770D01*
X0188300Y0060950D01*
X0187812Y0060462D01*
X0187419Y0059513D01*
X0187419Y0058487D01*
X0187812Y0057538D01*
X0188538Y0056812D01*
X0189487Y0056419D01*
X0189873Y0056419D01*
X0188429Y0054975D01*
X0185995Y0054975D01*
X0185175Y0054155D01*
X0185175Y0049845D01*
X0185995Y0049025D01*
X0190304Y0049025D01*
X0191124Y0049845D01*
X0191124Y0052579D01*
X0192631Y0054086D01*
X0192631Y0051028D01*
X0194028Y0049631D01*
X0194200Y0049631D01*
X0194200Y0047254D01*
X0194419Y0047036D01*
X0194419Y0046487D01*
X0194812Y0045538D01*
X0195442Y0044908D01*
X0195298Y0044908D01*
X0195029Y0044639D01*
X0194907Y0044639D01*
X0193800Y0045746D01*
X0192746Y0046800D01*
X0191565Y0046800D01*
X0191565Y0047485D01*
X0190745Y0048305D01*
X0185255Y0048305D01*
X0184435Y0047485D01*
X0184435Y0042389D01*
X0185255Y0041569D01*
X0190745Y0041569D01*
X0191565Y0042389D01*
X0191565Y0042889D01*
X0192954Y0041500D01*
X0191316Y0039861D01*
X0190745Y0040431D01*
X0185255Y0040431D01*
X0184435Y0039611D01*
X0184435Y0038863D01*
X0183565Y0038863D01*
X0183565Y0039611D01*
X0182745Y0040431D01*
X0178284Y0040431D01*
X0179435Y0041569D01*
X0182745Y0041569D01*
X0183565Y0042389D01*
X0183565Y0047485D01*
X0182745Y0048305D01*
X0177255Y0048305D01*
X0176435Y0047485D01*
X0176435Y0044227D01*
X0174768Y0042581D01*
X0174487Y0042581D01*
X0173538Y0042188D01*
X0172812Y0041462D01*
X0172419Y0040513D01*
X0172419Y0039487D01*
X0172812Y0038538D01*
X0173538Y0037812D01*
X0174487Y0037419D01*
X0175513Y0037419D01*
X0176435Y0037801D01*
X0176435Y0034515D01*
X0177255Y0033694D01*
X0182745Y0033694D01*
X0183565Y0034515D01*
X0183565Y0035263D01*
X0184435Y0035263D01*
X0184435Y0034515D01*
X0185255Y0033694D01*
X0190745Y0033694D01*
X0191565Y0034515D01*
X0191565Y0035263D01*
X0191809Y0035263D01*
X0194478Y0037932D01*
X0194478Y0036471D01*
X0194575Y0036374D01*
X0194573Y0036371D01*
X0194478Y0036015D01*
X0194478Y0035161D01*
X0194478Y0034308D01*
X0194573Y0033952D01*
X0194758Y0033633D01*
X0195018Y0033372D01*
X0195338Y0033188D01*
X0195694Y0033092D01*
X0198220Y0033092D01*
X0198220Y0035161D01*
X0194478Y0035161D01*
X0198220Y0035161D01*
X0198220Y0035161D01*
X0198221Y0035161D01*
X0198221Y0035161D01*
X0201963Y0035161D01*
X0201963Y0034509D01*
X0202200Y0034746D01*
X0202200Y0035254D01*
X0201963Y0035491D01*
X0201963Y0035161D01*
X0198221Y0035161D01*
X0198221Y0033092D01*
X0200547Y0033092D01*
X0197020Y0029565D01*
X0193515Y0029565D01*
X0192694Y0028745D01*
X0192694Y0027800D01*
X0191305Y0027800D01*
X0191305Y0031745D01*
X0190485Y0032565D01*
X0185389Y0032565D01*
X0184569Y0031745D01*
X0184569Y0026255D01*
X0185389Y0025435D01*
X0185940Y0025435D01*
X0185940Y0024565D01*
X0185782Y0024565D01*
X0184962Y0023745D01*
X0184962Y0018255D01*
X0185782Y0017435D01*
X0189698Y0017435D01*
X0185441Y0017776D02*
X0182559Y0017776D01*
X0182218Y0017435D02*
X0183038Y0018255D01*
X0183038Y0023745D01*
X0182218Y0024565D01*
X0182063Y0024565D01*
X0182063Y0025435D01*
X0182611Y0025435D01*
X0183431Y0026255D01*
X0183431Y0031745D01*
X0182611Y0032565D01*
X0177515Y0032565D01*
X0176694Y0031745D01*
X0176694Y0026255D01*
X0177515Y0025435D01*
X0178063Y0025435D01*
X0178063Y0024326D01*
X0177482Y0023745D01*
X0177482Y0022997D01*
X0176252Y0022997D01*
X0176029Y0023220D01*
X0175080Y0023613D01*
X0174054Y0023613D01*
X0173105Y0023220D01*
X0172379Y0022494D01*
X0171986Y0021545D01*
X0171986Y0020518D01*
X0172379Y0019569D01*
X0173105Y0018843D01*
X0174054Y0018450D01*
X0175080Y0018450D01*
X0176029Y0018843D01*
X0176582Y0019397D01*
X0177482Y0019397D01*
X0177482Y0018255D01*
X0178302Y0017435D01*
X0182218Y0017435D01*
X0183038Y0018575D02*
X0184962Y0018575D01*
X0184962Y0019373D02*
X0183038Y0019373D01*
X0183038Y0020172D02*
X0184962Y0020172D01*
X0184962Y0020970D02*
X0183038Y0020970D01*
X0183038Y0021769D02*
X0184962Y0021769D01*
X0184962Y0022567D02*
X0183038Y0022567D01*
X0183038Y0023366D02*
X0184962Y0023366D01*
X0185381Y0024164D02*
X0182619Y0024164D01*
X0182063Y0024963D02*
X0185940Y0024963D01*
X0185062Y0025761D02*
X0182938Y0025761D01*
X0183431Y0026560D02*
X0184569Y0026560D01*
X0184569Y0027358D02*
X0183431Y0027358D01*
X0183431Y0028157D02*
X0184569Y0028157D01*
X0184569Y0028955D02*
X0183431Y0028955D01*
X0183431Y0029754D02*
X0184569Y0029754D01*
X0184569Y0030552D02*
X0183431Y0030552D01*
X0183431Y0031351D02*
X0184569Y0031351D01*
X0184973Y0032149D02*
X0183027Y0032149D01*
X0182797Y0033746D02*
X0185203Y0033746D01*
X0184435Y0034545D02*
X0183565Y0034545D01*
X0180000Y0037063D02*
X0188000Y0037063D01*
X0191063Y0037063D01*
X0194280Y0040280D01*
X0198220Y0040280D01*
X0198220Y0037720D02*
X0202280Y0037720D01*
X0204000Y0036000D01*
X0204000Y0034000D01*
X0196063Y0026063D01*
X0196063Y0026000D01*
X0192000Y0026000D01*
X0191000Y0025000D01*
X0187740Y0025000D01*
X0187740Y0028803D01*
X0187937Y0029000D01*
X0191305Y0028955D02*
X0192905Y0028955D01*
X0192694Y0028157D02*
X0191305Y0028157D01*
X0191305Y0029754D02*
X0197208Y0029754D01*
X0198007Y0030552D02*
X0191305Y0030552D01*
X0191305Y0031351D02*
X0198805Y0031351D01*
X0199604Y0032149D02*
X0190901Y0032149D01*
X0190797Y0033746D02*
X0194692Y0033746D01*
X0194478Y0034545D02*
X0191565Y0034545D01*
X0191889Y0035343D02*
X0194478Y0035343D01*
X0194512Y0036142D02*
X0192688Y0036142D01*
X0193486Y0036940D02*
X0194478Y0036940D01*
X0194478Y0037739D02*
X0194285Y0037739D01*
X0191589Y0040134D02*
X0191042Y0040134D01*
X0192387Y0040933D02*
X0178791Y0040933D01*
X0174363Y0042530D02*
X0166770Y0042530D01*
X0167814Y0042988D02*
X0167814Y0042988D01*
X0171061Y0045977D01*
X0171061Y0045977D01*
X0173162Y0049859D01*
X0173888Y0054213D01*
X0173162Y0058566D01*
X0171061Y0062448D01*
X0167814Y0065437D01*
X0167814Y0065437D01*
X0163772Y0067210D01*
X0159373Y0067575D01*
X0155094Y0066491D01*
X0151399Y0064077D01*
X0148688Y0060594D01*
X0147255Y0056419D01*
X0147255Y0052006D01*
X0148688Y0047831D01*
X0151399Y0044348D01*
X0151399Y0044348D01*
X0155094Y0041934D01*
X0155094Y0041934D01*
X0159373Y0040851D01*
X0159373Y0040851D01*
X0163772Y0041215D01*
X0167814Y0042988D01*
X0168184Y0043329D02*
X0175525Y0043329D01*
X0176333Y0044127D02*
X0169051Y0044127D01*
X0169918Y0044926D02*
X0176435Y0044926D01*
X0176435Y0045724D02*
X0170786Y0045724D01*
X0171356Y0046523D02*
X0176435Y0046523D01*
X0176435Y0047321D02*
X0171788Y0047321D01*
X0172220Y0048120D02*
X0177069Y0048120D01*
X0179155Y0049566D02*
X0179416Y0049305D01*
X0179735Y0049121D01*
X0180091Y0049025D01*
X0181463Y0049025D01*
X0181463Y0051613D01*
X0178876Y0051613D01*
X0178876Y0050241D01*
X0178971Y0049885D01*
X0179155Y0049566D01*
X0179068Y0049717D02*
X0173085Y0049717D01*
X0173162Y0049859D02*
X0173162Y0049859D01*
X0173271Y0050515D02*
X0178876Y0050515D01*
X0178876Y0051314D02*
X0173404Y0051314D01*
X0173538Y0052112D02*
X0181463Y0052112D01*
X0181463Y0052387D02*
X0181463Y0051613D01*
X0182238Y0051613D01*
X0182238Y0052387D01*
X0184825Y0052387D01*
X0184825Y0053759D01*
X0184730Y0054115D01*
X0184545Y0054434D01*
X0184285Y0054695D01*
X0183966Y0054879D01*
X0183610Y0054975D01*
X0182238Y0054975D01*
X0182238Y0052387D01*
X0181463Y0052387D01*
X0178876Y0052387D01*
X0178876Y0053759D01*
X0178971Y0054115D01*
X0179155Y0054434D01*
X0179416Y0054695D01*
X0179735Y0054879D01*
X0180091Y0054975D01*
X0181463Y0054975D01*
X0181463Y0052387D01*
X0181463Y0052911D02*
X0182238Y0052911D01*
X0182238Y0053709D02*
X0181463Y0053709D01*
X0181463Y0054508D02*
X0182238Y0054508D01*
X0184472Y0054508D02*
X0185528Y0054508D01*
X0185175Y0053709D02*
X0184825Y0053709D01*
X0184825Y0052911D02*
X0185175Y0052911D01*
X0185175Y0052112D02*
X0182238Y0052112D01*
X0182238Y0051613D02*
X0184825Y0051613D01*
X0184825Y0050241D01*
X0184730Y0049885D01*
X0184545Y0049566D01*
X0184285Y0049305D01*
X0183966Y0049121D01*
X0183610Y0049025D01*
X0182238Y0049025D01*
X0182238Y0051613D01*
X0182238Y0051314D02*
X0181463Y0051314D01*
X0181463Y0050515D02*
X0182238Y0050515D01*
X0182238Y0049717D02*
X0181463Y0049717D01*
X0182931Y0048120D02*
X0185069Y0048120D01*
X0184435Y0047321D02*
X0183565Y0047321D01*
X0183565Y0046523D02*
X0184435Y0046523D01*
X0184435Y0045724D02*
X0183565Y0045724D01*
X0183565Y0044926D02*
X0184435Y0044926D01*
X0184435Y0044127D02*
X0183565Y0044127D01*
X0183565Y0043329D02*
X0184435Y0043329D01*
X0184435Y0042530D02*
X0183565Y0042530D01*
X0182908Y0041732D02*
X0185092Y0041732D01*
X0184958Y0040134D02*
X0183042Y0040134D01*
X0183565Y0039336D02*
X0184435Y0039336D01*
X0190908Y0041732D02*
X0192723Y0041732D01*
X0191924Y0042530D02*
X0191565Y0042530D01*
X0192000Y0045000D02*
X0194161Y0042839D01*
X0198220Y0042839D01*
X0198000Y0043059D01*
X0198000Y0046000D01*
X0197000Y0047000D01*
X0196000Y0048000D01*
X0196000Y0053000D01*
X0192631Y0052911D02*
X0191456Y0052911D01*
X0191124Y0052112D02*
X0192631Y0052112D01*
X0192631Y0051314D02*
X0191124Y0051314D01*
X0191124Y0050515D02*
X0193145Y0050515D01*
X0193943Y0049717D02*
X0190996Y0049717D01*
X0190931Y0048120D02*
X0194200Y0048120D01*
X0194200Y0048918D02*
X0172652Y0048918D01*
X0173671Y0052911D02*
X0178876Y0052911D01*
X0178876Y0053709D02*
X0173804Y0053709D01*
X0173839Y0054508D02*
X0179229Y0054508D01*
X0173706Y0055306D02*
X0188761Y0055306D01*
X0189559Y0056105D02*
X0173572Y0056105D01*
X0173439Y0056903D02*
X0188447Y0056903D01*
X0187744Y0057702D02*
X0173306Y0057702D01*
X0173173Y0058500D02*
X0187419Y0058500D01*
X0187419Y0059299D02*
X0172765Y0059299D01*
X0173162Y0058566D02*
X0173162Y0058566D01*
X0172333Y0060097D02*
X0187661Y0060097D01*
X0188246Y0060896D02*
X0171901Y0060896D01*
X0171469Y0061694D02*
X0188300Y0061694D01*
X0188300Y0062493D02*
X0171012Y0062493D01*
X0171061Y0062448D02*
X0171061Y0062448D01*
X0170145Y0063291D02*
X0188150Y0063291D01*
X0188150Y0064090D02*
X0169277Y0064090D01*
X0168410Y0064888D02*
X0188150Y0064888D01*
X0188150Y0065687D02*
X0167245Y0065687D01*
X0165424Y0066485D02*
X0188150Y0066485D01*
X0188150Y0067284D02*
X0162882Y0067284D01*
X0163772Y0067210D02*
X0163772Y0067210D01*
X0159373Y0067575D02*
X0159373Y0067575D01*
X0158225Y0067284D02*
X0145811Y0067284D01*
X0145948Y0067419D02*
X0146513Y0067419D01*
X0147462Y0067812D01*
X0148188Y0068538D01*
X0148581Y0069487D01*
X0148581Y0070513D01*
X0148188Y0071462D01*
X0147462Y0072188D01*
X0146513Y0072581D01*
X0145487Y0072581D01*
X0144565Y0072199D01*
X0144565Y0075485D01*
X0143745Y0076305D01*
X0138255Y0076305D01*
X0137435Y0075485D01*
X0137435Y0074737D01*
X0136565Y0074737D01*
X0136565Y0075485D01*
X0135745Y0076305D01*
X0134800Y0076305D01*
X0134800Y0077150D01*
X0135188Y0077538D01*
X0135581Y0078487D01*
X0135581Y0079513D01*
X0135188Y0080462D01*
X0134462Y0081188D01*
X0133513Y0081581D01*
X0132487Y0081581D01*
X0131538Y0081188D01*
X0130812Y0080462D01*
X0130419Y0079513D01*
X0130419Y0078487D01*
X0130812Y0077538D01*
X0131200Y0077150D01*
X0131200Y0076305D01*
X0130255Y0076305D01*
X0129435Y0075485D01*
X0129435Y0070389D01*
X0130255Y0069569D01*
X0135745Y0069569D01*
X0136565Y0070389D01*
X0136565Y0071137D01*
X0137435Y0071137D01*
X0137435Y0070389D01*
X0138255Y0069569D01*
X0143001Y0069569D01*
X0141850Y0068431D01*
X0138255Y0068431D01*
X0137435Y0067611D01*
X0137435Y0062515D01*
X0138255Y0061694D01*
X0143745Y0061694D01*
X0144565Y0062515D01*
X0144565Y0066054D01*
X0145948Y0067419D01*
X0145002Y0066485D02*
X0155086Y0066485D01*
X0155094Y0066491D02*
X0155094Y0066491D01*
X0153863Y0065687D02*
X0144565Y0065687D01*
X0144565Y0064888D02*
X0152641Y0064888D01*
X0151419Y0064090D02*
X0144565Y0064090D01*
X0144565Y0063291D02*
X0150788Y0063291D01*
X0151399Y0064077D02*
X0151399Y0064077D01*
X0151399Y0064077D01*
X0150166Y0062493D02*
X0144544Y0062493D01*
X0141000Y0065063D02*
X0146000Y0070000D01*
X0148330Y0068881D02*
X0188150Y0068881D01*
X0188150Y0068082D02*
X0147733Y0068082D01*
X0148581Y0069679D02*
X0188750Y0069679D01*
X0190200Y0070478D02*
X0148581Y0070478D01*
X0148265Y0071276D02*
X0190731Y0071276D01*
X0191529Y0072075D02*
X0147575Y0072075D01*
X0144565Y0072873D02*
X0192328Y0072873D01*
X0193126Y0073672D02*
X0185723Y0073672D01*
X0186305Y0074470D02*
X0195362Y0074470D01*
X0196638Y0074470D02*
X0205479Y0074470D01*
X0204694Y0075269D02*
X0197919Y0075269D01*
X0198407Y0076068D02*
X0204694Y0076068D01*
X0204000Y0078000D02*
X0202000Y0080000D01*
X0202000Y0084000D01*
X0200000Y0086000D01*
X0197000Y0086000D01*
X0196000Y0085000D01*
X0196000Y0082000D01*
X0197900Y0082000D02*
X0197900Y0078900D01*
X0196000Y0077000D01*
X0190000Y0077000D01*
X0190100Y0077100D01*
X0190100Y0082000D01*
X0192000Y0082000D02*
X0192000Y0090000D01*
X0193000Y0091000D01*
X0203000Y0091000D01*
X0207000Y0087000D01*
X0208063Y0086000D01*
X0211431Y0085650D02*
X0212569Y0085650D01*
X0212569Y0086448D02*
X0211431Y0086448D01*
X0211431Y0087247D02*
X0212569Y0087247D01*
X0212569Y0088045D02*
X0211431Y0088045D01*
X0211333Y0088844D02*
X0212667Y0088844D01*
X0215937Y0086000D02*
X0215937Y0085937D01*
X0212000Y0082000D01*
X0212000Y0073937D01*
X0215937Y0070000D01*
X0219000Y0070000D01*
X0220000Y0071000D01*
X0230000Y0071000D01*
X0231000Y0070000D01*
X0231000Y0066000D01*
X0232900Y0066000D02*
X0237000Y0066000D01*
X0238000Y0067000D01*
X0238000Y0068000D01*
X0240000Y0070000D01*
X0262882Y0070000D01*
X0266780Y0073898D01*
X0269479Y0071276D02*
X0270200Y0071276D01*
X0270200Y0072075D02*
X0270097Y0072075D01*
X0269932Y0070478D02*
X0268355Y0070478D01*
X0267785Y0069679D02*
X0269134Y0069679D01*
X0272000Y0070000D02*
X0272000Y0079000D01*
X0269000Y0082000D01*
X0232900Y0082000D01*
X0232900Y0077900D01*
X0232000Y0077000D01*
X0226000Y0077000D01*
X0225100Y0077900D01*
X0225100Y0082000D01*
X0225063Y0082037D01*
X0225063Y0090000D01*
X0228431Y0089642D02*
X0229569Y0089642D01*
X0229569Y0088844D02*
X0228431Y0088844D01*
X0228431Y0088045D02*
X0229569Y0088045D01*
X0229569Y0087255D02*
X0230389Y0086435D01*
X0235485Y0086435D01*
X0236305Y0087255D01*
X0236305Y0088044D01*
X0236538Y0087812D01*
X0237487Y0087419D01*
X0238513Y0087419D01*
X0239462Y0087812D01*
X0240188Y0088538D01*
X0240581Y0089487D01*
X0240581Y0090513D01*
X0240188Y0091462D01*
X0239462Y0092188D01*
X0238513Y0092581D01*
X0237487Y0092581D01*
X0236538Y0092188D01*
X0236305Y0091956D01*
X0236305Y0092745D01*
X0235485Y0093565D01*
X0230389Y0093565D01*
X0229569Y0092745D01*
X0229569Y0087255D01*
X0229577Y0087247D02*
X0228423Y0087247D01*
X0227625Y0086448D02*
X0230375Y0086448D01*
X0229000Y0085650D02*
X0229000Y0085650D01*
X0229000Y0084851D02*
X0229000Y0084851D01*
X0229000Y0084053D02*
X0229000Y0084053D01*
X0229000Y0083254D02*
X0229000Y0083254D01*
X0229000Y0082456D02*
X0229000Y0082456D01*
X0223150Y0082456D02*
X0218506Y0082456D01*
X0219305Y0083254D02*
X0223150Y0083254D01*
X0223150Y0084053D02*
X0219305Y0084053D01*
X0219305Y0084851D02*
X0223150Y0084851D01*
X0223263Y0085650D02*
X0219305Y0085650D01*
X0219305Y0086448D02*
X0222501Y0086448D01*
X0221703Y0087247D02*
X0219305Y0087247D01*
X0219305Y0088045D02*
X0221694Y0088045D01*
X0221694Y0088844D02*
X0219207Y0088844D01*
X0221694Y0089642D02*
X0206903Y0089642D01*
X0206105Y0090441D02*
X0221694Y0090441D01*
X0221694Y0091239D02*
X0205306Y0091239D01*
X0204508Y0092038D02*
X0221694Y0092038D01*
X0221785Y0092836D02*
X0183124Y0092836D01*
X0183124Y0092241D02*
X0183124Y0093613D01*
X0180537Y0093613D01*
X0180537Y0094387D01*
X0183124Y0094387D01*
X0183124Y0095759D01*
X0183029Y0096115D01*
X0182845Y0096434D01*
X0182584Y0096695D01*
X0182265Y0096879D01*
X0181909Y0096975D01*
X0180537Y0096975D01*
X0180537Y0094387D01*
X0179762Y0094387D01*
X0179762Y0093613D01*
X0177175Y0093613D01*
X0177175Y0092241D01*
X0177270Y0091885D01*
X0177455Y0091566D01*
X0177715Y0091305D01*
X0178034Y0091121D01*
X0178390Y0091025D01*
X0179762Y0091025D01*
X0179762Y0093613D01*
X0180537Y0093613D01*
X0180537Y0091025D01*
X0181909Y0091025D01*
X0182265Y0091121D01*
X0182584Y0091305D01*
X0182845Y0091566D01*
X0183029Y0091885D01*
X0183124Y0092241D01*
X0183070Y0092038D02*
X0191492Y0092038D01*
X0190694Y0091239D02*
X0182470Y0091239D01*
X0180537Y0091239D02*
X0179762Y0091239D01*
X0179762Y0092038D02*
X0180537Y0092038D01*
X0180537Y0092836D02*
X0179762Y0092836D01*
X0179762Y0093635D02*
X0176825Y0093635D01*
X0176825Y0094433D02*
X0177175Y0094433D01*
X0177175Y0094387D02*
X0179762Y0094387D01*
X0179762Y0096975D01*
X0178390Y0096975D01*
X0178034Y0096879D01*
X0177715Y0096695D01*
X0177455Y0096434D01*
X0177270Y0096115D01*
X0177175Y0095759D01*
X0177175Y0094387D01*
X0177175Y0095232D02*
X0176825Y0095232D01*
X0176825Y0096030D02*
X0177247Y0096030D01*
X0176825Y0096155D02*
X0176005Y0096975D01*
X0171696Y0096975D01*
X0171103Y0096382D01*
X0170797Y0096689D01*
X0169631Y0097172D01*
X0168369Y0097172D01*
X0167203Y0096689D01*
X0166515Y0096000D01*
X0165321Y0096000D01*
X0165321Y0096962D01*
X0165000Y0097283D01*
X0165000Y0098828D01*
X0163828Y0100000D01*
X0162828Y0101000D01*
X0140172Y0101000D01*
X0139000Y0099828D01*
X0138226Y0099054D01*
X0138214Y0099054D01*
X0137641Y0098470D01*
X0137063Y0097891D01*
X0137063Y0097879D01*
X0136756Y0097565D01*
X0133515Y0097565D01*
X0132694Y0096745D01*
X0132694Y0091255D01*
X0133515Y0090435D01*
X0138611Y0090435D01*
X0139431Y0091255D01*
X0139431Y0094581D01*
X0140485Y0095656D01*
X0140569Y0095740D01*
X0140569Y0091255D01*
X0141389Y0090435D01*
X0146485Y0090435D01*
X0147305Y0091255D01*
X0147305Y0092000D01*
X0148350Y0092000D01*
X0148538Y0091812D01*
X0149487Y0091419D01*
X0150513Y0091419D01*
X0151462Y0091812D01*
X0151965Y0092315D01*
X0152679Y0092315D01*
X0152679Y0091668D01*
X0153499Y0090848D01*
X0157021Y0090848D01*
X0157176Y0091003D01*
X0157279Y0090943D01*
X0157635Y0090848D01*
X0158809Y0090848D01*
X0158809Y0094124D01*
X0159191Y0094124D01*
X0159191Y0090848D01*
X0160365Y0090848D01*
X0160721Y0090943D01*
X0160824Y0091003D01*
X0160979Y0090848D01*
X0164501Y0090848D01*
X0165321Y0091668D01*
X0165321Y0092000D01*
X0166515Y0092000D01*
X0167203Y0091311D01*
X0168369Y0090828D01*
X0169631Y0090828D01*
X0170797Y0091311D01*
X0171103Y0091618D01*
X0171696Y0091025D01*
X0176005Y0091025D01*
X0176825Y0091845D01*
X0176825Y0096155D01*
X0176151Y0096829D02*
X0177947Y0096829D01*
X0179762Y0096829D02*
X0180537Y0096829D01*
X0180537Y0096030D02*
X0179762Y0096030D01*
X0179762Y0095232D02*
X0180537Y0095232D01*
X0180537Y0094433D02*
X0179762Y0094433D01*
X0180537Y0093635D02*
X0274254Y0093635D01*
X0274254Y0094433D02*
X0183124Y0094433D01*
X0183124Y0095232D02*
X0274254Y0095232D01*
X0274254Y0096030D02*
X0183052Y0096030D01*
X0182352Y0096829D02*
X0274254Y0096829D01*
X0274254Y0097627D02*
X0165000Y0097627D01*
X0165000Y0098426D02*
X0274254Y0098426D01*
X0274254Y0099224D02*
X0164604Y0099224D01*
X0163806Y0100023D02*
X0274254Y0100023D01*
X0274254Y0100821D02*
X0163007Y0100821D01*
X0165321Y0096829D02*
X0167541Y0096829D01*
X0166545Y0096030D02*
X0165321Y0096030D01*
X0170459Y0096829D02*
X0171550Y0096829D01*
X0176825Y0092836D02*
X0177175Y0092836D01*
X0177229Y0092038D02*
X0176825Y0092038D01*
X0176219Y0091239D02*
X0177829Y0091239D01*
X0178302Y0088565D02*
X0177029Y0088565D01*
X0177029Y0085289D01*
X0176451Y0085289D01*
X0176451Y0084711D01*
X0173962Y0084711D01*
X0173962Y0082650D01*
X0174058Y0082294D01*
X0174242Y0081975D01*
X0174503Y0081714D01*
X0174822Y0081530D01*
X0175178Y0081435D01*
X0176451Y0081435D01*
X0176451Y0084711D01*
X0177029Y0084711D01*
X0177029Y0081435D01*
X0178302Y0081435D01*
X0178658Y0081530D01*
X0178978Y0081714D01*
X0179238Y0081975D01*
X0179423Y0082294D01*
X0179518Y0082650D01*
X0179518Y0084711D01*
X0177029Y0084711D01*
X0177029Y0085289D01*
X0179518Y0085289D01*
X0179518Y0087350D01*
X0179423Y0087706D01*
X0179238Y0088025D01*
X0178978Y0088286D01*
X0178658Y0088470D01*
X0178302Y0088565D01*
X0179218Y0088045D02*
X0190200Y0088045D01*
X0190200Y0087247D02*
X0179518Y0087247D01*
X0179518Y0086448D02*
X0190200Y0086448D01*
X0188720Y0085650D02*
X0179518Y0085650D01*
X0179518Y0084053D02*
X0188150Y0084053D01*
X0188150Y0084851D02*
X0177029Y0084851D01*
X0176451Y0084851D02*
X0172038Y0084851D01*
X0172038Y0084053D02*
X0173962Y0084053D01*
X0173962Y0083254D02*
X0172038Y0083254D01*
X0172038Y0082456D02*
X0174014Y0082456D01*
X0174602Y0081657D02*
X0171440Y0081657D01*
X0171218Y0081435D02*
X0172038Y0082255D01*
X0172038Y0087745D01*
X0171218Y0088565D01*
X0167302Y0088565D01*
X0166482Y0087745D01*
X0166482Y0087000D01*
X0166172Y0087000D01*
X0165321Y0086150D01*
X0165321Y0086332D01*
X0164501Y0087152D01*
X0160979Y0087152D01*
X0160159Y0086332D01*
X0160159Y0081038D01*
X0160356Y0080841D01*
X0160311Y0080797D01*
X0159828Y0079631D01*
X0159828Y0078369D01*
X0160311Y0077203D01*
X0161203Y0076311D01*
X0162369Y0075828D01*
X0163631Y0075828D01*
X0164797Y0076311D01*
X0165689Y0077203D01*
X0166172Y0078369D01*
X0166172Y0079631D01*
X0165689Y0080797D01*
X0165321Y0081164D01*
X0165321Y0082000D01*
X0166737Y0082000D01*
X0167302Y0081435D01*
X0171218Y0081435D01*
X0172515Y0080565D02*
X0171694Y0079745D01*
X0171694Y0078956D01*
X0171462Y0079188D01*
X0170513Y0079581D01*
X0169487Y0079581D01*
X0168538Y0079188D01*
X0167812Y0078462D01*
X0167419Y0077513D01*
X0167419Y0076487D01*
X0167812Y0075538D01*
X0168538Y0074812D01*
X0169487Y0074419D01*
X0170513Y0074419D01*
X0171462Y0074812D01*
X0171694Y0075044D01*
X0171694Y0074255D01*
X0172515Y0073435D01*
X0177611Y0073435D01*
X0178431Y0074255D01*
X0178431Y0079745D01*
X0177611Y0080565D01*
X0172515Y0080565D01*
X0172009Y0080060D02*
X0165994Y0080060D01*
X0166172Y0079262D02*
X0168715Y0079262D01*
X0167813Y0078463D02*
X0166172Y0078463D01*
X0165880Y0077665D02*
X0167481Y0077665D01*
X0167419Y0076866D02*
X0165351Y0076866D01*
X0164208Y0076068D02*
X0167592Y0076068D01*
X0168081Y0075269D02*
X0144565Y0075269D01*
X0144565Y0074470D02*
X0169362Y0074470D01*
X0170638Y0074470D02*
X0171694Y0074470D01*
X0172277Y0073672D02*
X0144565Y0073672D01*
X0141000Y0072937D02*
X0133000Y0072937D01*
X0133000Y0079000D01*
X0131208Y0080859D02*
X0118909Y0080859D01*
X0119305Y0081657D02*
X0122166Y0081657D01*
X0121435Y0082456D02*
X0119305Y0082456D01*
X0119305Y0083254D02*
X0121435Y0083254D01*
X0121435Y0084053D02*
X0119305Y0084053D01*
X0119305Y0084851D02*
X0121435Y0084851D01*
X0121435Y0085650D02*
X0119305Y0085650D01*
X0119305Y0086448D02*
X0121435Y0086448D01*
X0121435Y0087247D02*
X0118804Y0087247D01*
X0118894Y0088844D02*
X0123100Y0088844D01*
X0123100Y0089642D02*
X0119305Y0089642D01*
X0119305Y0090441D02*
X0122909Y0090441D01*
X0122521Y0091239D02*
X0119305Y0091239D01*
X0119305Y0092038D02*
X0122419Y0092038D01*
X0122553Y0092836D02*
X0119305Y0092836D01*
X0119305Y0093635D02*
X0122985Y0093635D01*
X0125000Y0095000D02*
X0125000Y0092000D01*
X0127581Y0092038D02*
X0132694Y0092038D01*
X0132694Y0092836D02*
X0127447Y0092836D01*
X0127015Y0093635D02*
X0132694Y0093635D01*
X0132694Y0094433D02*
X0126800Y0094433D01*
X0126800Y0095232D02*
X0132694Y0095232D01*
X0132694Y0096030D02*
X0126515Y0096030D01*
X0125717Y0096829D02*
X0132778Y0096829D01*
X0136816Y0097627D02*
X0124918Y0097627D01*
X0124000Y0096000D02*
X0125000Y0095000D01*
X0124000Y0096000D02*
X0112000Y0096000D01*
X0108063Y0092063D01*
X0108063Y0092000D01*
X0103000Y0092000D01*
X0100419Y0092038D02*
X0097124Y0092038D01*
X0097124Y0091239D02*
X0100521Y0091239D01*
X0100909Y0090441D02*
X0097124Y0090441D01*
X0097124Y0089642D02*
X0101947Y0089642D01*
X0104052Y0089642D02*
X0104694Y0089642D01*
X0105106Y0088844D02*
X0097702Y0088844D01*
X0098500Y0088045D02*
X0109437Y0088045D01*
X0114528Y0088045D02*
X0121994Y0088045D01*
X0126900Y0088844D02*
X0190200Y0088844D01*
X0190200Y0089642D02*
X0126900Y0089642D01*
X0127091Y0090441D02*
X0133509Y0090441D01*
X0132710Y0091239D02*
X0127479Y0091239D01*
X0128006Y0088045D02*
X0137782Y0088045D01*
X0137762Y0088025D02*
X0137577Y0087706D01*
X0137482Y0087350D01*
X0137482Y0085289D01*
X0139971Y0085289D01*
X0139971Y0088565D01*
X0138698Y0088565D01*
X0138341Y0088470D01*
X0138022Y0088286D01*
X0137762Y0088025D01*
X0137482Y0087247D02*
X0128565Y0087247D01*
X0128565Y0086448D02*
X0137482Y0086448D01*
X0137482Y0085650D02*
X0128565Y0085650D01*
X0128565Y0084851D02*
X0139971Y0084851D01*
X0139971Y0084711D02*
X0137482Y0084711D01*
X0137482Y0082650D01*
X0137577Y0082294D01*
X0137762Y0081975D01*
X0138022Y0081714D01*
X0138341Y0081530D01*
X0138698Y0081435D01*
X0139971Y0081435D01*
X0139971Y0084711D01*
X0140549Y0084711D01*
X0140549Y0085289D01*
X0143038Y0085289D01*
X0143038Y0087350D01*
X0142942Y0087706D01*
X0142758Y0088025D01*
X0142497Y0088286D01*
X0142178Y0088470D01*
X0141822Y0088565D01*
X0140549Y0088565D01*
X0140549Y0085289D01*
X0139971Y0085289D01*
X0139971Y0084711D01*
X0140549Y0084711D02*
X0140549Y0081435D01*
X0141822Y0081435D01*
X0142178Y0081530D01*
X0142497Y0081714D01*
X0142758Y0081975D01*
X0142942Y0082294D01*
X0143038Y0082650D01*
X0143038Y0084711D01*
X0140549Y0084711D01*
X0140549Y0084851D02*
X0144962Y0084851D01*
X0144962Y0084053D02*
X0143038Y0084053D01*
X0143038Y0083254D02*
X0144962Y0083254D01*
X0144962Y0082456D02*
X0142986Y0082456D01*
X0142398Y0081657D02*
X0145560Y0081657D01*
X0145782Y0081435D02*
X0144962Y0082255D01*
X0144962Y0087745D01*
X0145782Y0088565D01*
X0149698Y0088565D01*
X0150518Y0087745D01*
X0150518Y0087000D01*
X0151828Y0087000D01*
X0152679Y0086150D01*
X0152679Y0086332D01*
X0153499Y0087152D01*
X0157021Y0087152D01*
X0157841Y0086332D01*
X0157841Y0081038D01*
X0157021Y0080218D01*
X0153499Y0080218D01*
X0152679Y0081038D01*
X0152679Y0081685D01*
X0151487Y0081685D01*
X0150518Y0082653D01*
X0150518Y0082255D01*
X0149698Y0081435D01*
X0145782Y0081435D01*
X0149920Y0081657D02*
X0152679Y0081657D01*
X0152858Y0080859D02*
X0134792Y0080859D01*
X0135355Y0080060D02*
X0160006Y0080060D01*
X0159828Y0079262D02*
X0135581Y0079262D01*
X0135571Y0078463D02*
X0159828Y0078463D01*
X0160120Y0077665D02*
X0135241Y0077665D01*
X0134800Y0076866D02*
X0160649Y0076866D01*
X0161792Y0076068D02*
X0143983Y0076068D01*
X0138017Y0076068D02*
X0135983Y0076068D01*
X0136565Y0075269D02*
X0137435Y0075269D01*
X0137435Y0070478D02*
X0136565Y0070478D01*
X0135856Y0069679D02*
X0138144Y0069679D01*
X0137906Y0068082D02*
X0136094Y0068082D01*
X0135745Y0068431D02*
X0136565Y0067611D01*
X0136565Y0062515D01*
X0135745Y0061694D01*
X0135506Y0061694D01*
X0149545Y0061694D01*
X0148923Y0060896D02*
X0135581Y0060896D01*
X0135581Y0060487D02*
X0135581Y0061513D01*
X0135506Y0061694D01*
X0135581Y0060487D02*
X0135188Y0059538D01*
X0134462Y0058812D01*
X0133513Y0058419D01*
X0132487Y0058419D01*
X0131538Y0058812D01*
X0130812Y0059538D01*
X0130419Y0060487D01*
X0130419Y0061513D01*
X0130494Y0061694D01*
X0120800Y0061694D01*
X0120800Y0060896D02*
X0130419Y0060896D01*
X0130494Y0061694D02*
X0130255Y0061694D01*
X0129435Y0062515D01*
X0129435Y0067611D01*
X0130255Y0068431D01*
X0135745Y0068431D01*
X0136565Y0067284D02*
X0137435Y0067284D01*
X0137435Y0066485D02*
X0136565Y0066485D01*
X0136565Y0065687D02*
X0137435Y0065687D01*
X0137435Y0064888D02*
X0136565Y0064888D01*
X0136565Y0064090D02*
X0137435Y0064090D01*
X0137435Y0063291D02*
X0136565Y0063291D01*
X0136544Y0062493D02*
X0137456Y0062493D01*
X0135420Y0060097D02*
X0148518Y0060097D01*
X0148688Y0060594D02*
X0148688Y0060594D01*
X0148244Y0059299D02*
X0134949Y0059299D01*
X0133710Y0058500D02*
X0147970Y0058500D01*
X0147696Y0057702D02*
X0130844Y0057702D01*
X0130045Y0058500D02*
X0132290Y0058500D01*
X0131051Y0059299D02*
X0129247Y0059299D01*
X0130580Y0060097D02*
X0120908Y0060097D01*
X0120800Y0062493D02*
X0129456Y0062493D01*
X0129435Y0063291D02*
X0120800Y0063291D01*
X0120800Y0064090D02*
X0129435Y0064090D01*
X0129435Y0064888D02*
X0120800Y0064888D01*
X0120800Y0065687D02*
X0129435Y0065687D01*
X0129435Y0066485D02*
X0125674Y0066485D01*
X0125513Y0066419D02*
X0126462Y0066812D01*
X0127188Y0067538D01*
X0127581Y0068487D01*
X0127581Y0069513D01*
X0127188Y0070462D01*
X0127000Y0070650D01*
X0127000Y0073694D01*
X0127745Y0073694D01*
X0128565Y0074515D01*
X0128565Y0079611D01*
X0127745Y0080431D01*
X0122255Y0080431D01*
X0121435Y0079611D01*
X0121435Y0074515D01*
X0122255Y0073694D01*
X0123000Y0073694D01*
X0123000Y0070650D01*
X0122812Y0070462D01*
X0122419Y0069513D01*
X0122419Y0068487D01*
X0122812Y0067538D01*
X0123538Y0066812D01*
X0124487Y0066419D01*
X0125513Y0066419D01*
X0124326Y0066485D02*
X0120060Y0066485D01*
X0119305Y0067284D02*
X0123066Y0067284D01*
X0122586Y0068082D02*
X0119305Y0068082D01*
X0119305Y0068881D02*
X0122419Y0068881D01*
X0122488Y0069679D02*
X0119305Y0069679D01*
X0119305Y0070478D02*
X0122828Y0070478D01*
X0123000Y0071276D02*
X0118774Y0071276D01*
X0118924Y0072873D02*
X0123000Y0072873D01*
X0123000Y0072075D02*
X0114558Y0072075D01*
X0119305Y0073672D02*
X0123000Y0073672D01*
X0121479Y0074470D02*
X0119305Y0074470D01*
X0119305Y0075269D02*
X0121435Y0075269D01*
X0121435Y0076068D02*
X0119305Y0076068D01*
X0119305Y0076866D02*
X0121435Y0076866D01*
X0121435Y0077665D02*
X0119305Y0077665D01*
X0119305Y0078463D02*
X0121435Y0078463D01*
X0121435Y0079262D02*
X0118789Y0079262D01*
X0121883Y0080060D02*
X0114543Y0080060D01*
X0115937Y0084000D02*
X0108063Y0076126D01*
X0108063Y0076000D01*
X0103000Y0076000D01*
X0102161Y0076839D01*
X0097417Y0076839D01*
X0097417Y0079398D02*
X0101398Y0079398D01*
X0102000Y0080000D01*
X0102000Y0083000D01*
X0103000Y0084000D01*
X0108063Y0084000D01*
X0108063Y0084126D01*
X0115937Y0092000D01*
X0109485Y0096030D02*
X0032515Y0096030D01*
X0033314Y0095232D02*
X0105181Y0095232D01*
X0104694Y0094433D02*
X0103870Y0094433D01*
X0102130Y0094433D02*
X0033800Y0094433D01*
X0033800Y0093635D02*
X0100985Y0093635D01*
X0100553Y0092836D02*
X0096443Y0092836D01*
X0094150Y0090000D02*
X0094150Y0089850D01*
X0097000Y0087000D01*
X0098800Y0087247D02*
X0105196Y0087247D01*
X0104694Y0086448D02*
X0099194Y0086448D01*
X0099525Y0085650D02*
X0102104Y0085650D01*
X0101306Y0084851D02*
X0099581Y0084851D01*
X0099401Y0084053D02*
X0100507Y0084053D01*
X0094195Y0083254D02*
X0077805Y0083254D01*
X0077951Y0082456D02*
X0094049Y0082456D01*
X0091175Y0090441D02*
X0090825Y0090441D01*
X0090825Y0091239D02*
X0091175Y0091239D01*
X0091175Y0092038D02*
X0090751Y0092038D01*
X0090040Y0092836D02*
X0091856Y0092836D01*
X0088238Y0092836D02*
X0087463Y0092836D01*
X0087463Y0092975D02*
X0086091Y0092975D01*
X0085735Y0092879D01*
X0085416Y0092695D01*
X0085155Y0092434D01*
X0084971Y0092115D01*
X0084876Y0091759D01*
X0084876Y0090387D01*
X0087463Y0090387D01*
X0087463Y0092975D01*
X0087463Y0092038D02*
X0088238Y0092038D01*
X0088238Y0091239D02*
X0087463Y0091239D01*
X0087463Y0090441D02*
X0088238Y0090441D01*
X0087463Y0089642D02*
X0033800Y0089642D01*
X0033800Y0090441D02*
X0084876Y0090441D01*
X0084876Y0091239D02*
X0033800Y0091239D01*
X0033800Y0092038D02*
X0084950Y0092038D01*
X0085660Y0092836D02*
X0033800Y0092836D01*
X0032000Y0094000D02*
X0032000Y0085000D01*
X0028528Y0086448D02*
X0024565Y0086448D01*
X0024565Y0085650D02*
X0028238Y0085650D01*
X0028238Y0084851D02*
X0023902Y0084851D01*
X0022800Y0084053D02*
X0028320Y0084053D01*
X0028651Y0083254D02*
X0023274Y0083254D01*
X0023581Y0082456D02*
X0029224Y0082456D01*
X0030239Y0081657D02*
X0023581Y0081657D01*
X0021000Y0082000D02*
X0021000Y0088063D01*
X0020937Y0088000D01*
X0012000Y0088000D01*
X0008631Y0088045D02*
X0007337Y0088045D01*
X0007337Y0087247D02*
X0008631Y0087247D01*
X0008631Y0086448D02*
X0007337Y0086448D01*
X0007337Y0085650D02*
X0009010Y0085650D01*
X0009809Y0084851D02*
X0007337Y0084851D01*
X0007337Y0084053D02*
X0019200Y0084053D01*
X0018726Y0083254D02*
X0007337Y0083254D01*
X0007337Y0082456D02*
X0018419Y0082456D01*
X0018419Y0081657D02*
X0007337Y0081657D01*
X0007337Y0080859D02*
X0018679Y0080859D01*
X0019290Y0080060D02*
X0007337Y0080060D01*
X0014191Y0084851D02*
X0018098Y0084851D01*
X0017435Y0085650D02*
X0014990Y0085650D01*
X0008631Y0088844D02*
X0007337Y0088844D01*
X0007337Y0089642D02*
X0008631Y0089642D01*
X0009100Y0090441D02*
X0007337Y0090441D01*
X0007337Y0091239D02*
X0009899Y0091239D01*
X0007337Y0092038D02*
X0030200Y0092038D01*
X0030200Y0092836D02*
X0024013Y0092836D01*
X0024565Y0093635D02*
X0029820Y0093635D01*
X0032000Y0094000D02*
X0030063Y0095937D01*
X0021000Y0095937D01*
X0017435Y0096030D02*
X0007337Y0096030D01*
X0007337Y0095232D02*
X0017435Y0095232D01*
X0017435Y0094433D02*
X0007337Y0094433D01*
X0007337Y0093635D02*
X0017435Y0093635D01*
X0017987Y0092836D02*
X0007337Y0092836D01*
X0007337Y0096829D02*
X0017435Y0096829D01*
X0017435Y0097627D02*
X0007337Y0097627D01*
X0007337Y0098426D02*
X0017435Y0098426D01*
X0018174Y0099224D02*
X0007337Y0099224D01*
X0007337Y0100023D02*
X0139194Y0100023D01*
X0138396Y0099224D02*
X0023826Y0099224D01*
X0024565Y0098426D02*
X0137597Y0098426D01*
X0139993Y0100821D02*
X0007337Y0100821D01*
X0014101Y0091239D02*
X0018062Y0091239D01*
X0017435Y0090441D02*
X0014900Y0090441D01*
X0023938Y0091239D02*
X0030200Y0091239D01*
X0030200Y0090441D02*
X0024565Y0090441D01*
X0024565Y0089642D02*
X0030200Y0089642D01*
X0030200Y0088844D02*
X0024565Y0088844D01*
X0024565Y0088045D02*
X0029725Y0088045D01*
X0028926Y0087247D02*
X0024565Y0087247D01*
X0032917Y0078463D02*
X0015800Y0078463D01*
X0016565Y0077665D02*
X0032119Y0077665D01*
X0035613Y0076068D02*
X0038370Y0076068D01*
X0038238Y0075269D02*
X0034815Y0075269D01*
X0034016Y0074470D02*
X0038238Y0074470D01*
X0038478Y0073672D02*
X0016455Y0073672D01*
X0016305Y0070478D02*
X0043976Y0070478D01*
X0044200Y0069679D02*
X0016565Y0069679D01*
X0016565Y0068881D02*
X0044200Y0068881D01*
X0046000Y0067000D02*
X0046000Y0071000D01*
X0042000Y0075000D01*
X0038809Y0072873D02*
X0007337Y0072873D01*
X0007337Y0072075D02*
X0039604Y0072075D01*
X0041158Y0071276D02*
X0007337Y0071276D01*
X0007337Y0070478D02*
X0009695Y0070478D01*
X0009435Y0069679D02*
X0007337Y0069679D01*
X0007337Y0068881D02*
X0009435Y0068881D01*
X0009435Y0068082D02*
X0007337Y0068082D01*
X0007337Y0067284D02*
X0009435Y0067284D01*
X0009435Y0066485D02*
X0007337Y0066485D01*
X0007337Y0065687D02*
X0010050Y0065687D01*
X0011200Y0064888D02*
X0007337Y0064888D01*
X0007337Y0064090D02*
X0010039Y0064090D01*
X0009435Y0063291D02*
X0007337Y0063291D01*
X0007337Y0062493D02*
X0009435Y0062493D01*
X0009435Y0061694D02*
X0007337Y0061694D01*
X0007337Y0060896D02*
X0009435Y0060896D01*
X0009435Y0060097D02*
X0007337Y0060097D01*
X0007337Y0059299D02*
X0009435Y0059299D01*
X0009435Y0058500D02*
X0007337Y0058500D01*
X0007337Y0057702D02*
X0010121Y0057702D01*
X0016565Y0052112D02*
X0018435Y0052112D01*
X0018435Y0051314D02*
X0016565Y0051314D01*
X0016565Y0050515D02*
X0015745Y0049694D01*
X0013800Y0049694D01*
X0013800Y0049254D01*
X0013577Y0049032D01*
X0013480Y0048733D01*
X0013070Y0048525D01*
X0012800Y0048254D01*
X0012800Y0026327D01*
X0013131Y0026189D01*
X0014189Y0025131D01*
X0014762Y0023748D01*
X0014762Y0022252D01*
X0014189Y0020869D01*
X0013131Y0019811D01*
X0011748Y0019238D01*
X0010252Y0019238D01*
X0008869Y0019811D01*
X0007811Y0020869D01*
X0007337Y0022012D01*
X0007337Y0021769D02*
X0007438Y0021769D01*
X0007337Y0020970D02*
X0007769Y0020970D01*
X0007337Y0020172D02*
X0008508Y0020172D01*
X0007337Y0019373D02*
X0009925Y0019373D01*
X0012075Y0019373D02*
X0029925Y0019373D01*
X0028508Y0020172D02*
X0013492Y0020172D01*
X0014231Y0020970D02*
X0027769Y0020970D01*
X0027438Y0021769D02*
X0014562Y0021769D01*
X0014762Y0022567D02*
X0027238Y0022567D01*
X0027238Y0023366D02*
X0014762Y0023366D01*
X0014590Y0024164D02*
X0027290Y0024164D01*
X0026492Y0024963D02*
X0014259Y0024963D01*
X0013559Y0025761D02*
X0025693Y0025761D01*
X0024895Y0026560D02*
X0012800Y0026560D01*
X0012800Y0027358D02*
X0024096Y0027358D01*
X0023298Y0028157D02*
X0012800Y0028157D01*
X0012800Y0028955D02*
X0022499Y0028955D01*
X0019006Y0029754D02*
X0012800Y0029754D01*
X0012800Y0030552D02*
X0018127Y0030552D01*
X0017611Y0031351D02*
X0012800Y0031351D01*
X0012800Y0032149D02*
X0017280Y0032149D01*
X0017238Y0032948D02*
X0012800Y0032948D01*
X0012800Y0033746D02*
X0017238Y0033746D01*
X0017568Y0034545D02*
X0012800Y0034545D01*
X0012800Y0035343D02*
X0018023Y0035343D01*
X0018821Y0036142D02*
X0012800Y0036142D01*
X0012800Y0036940D02*
X0016409Y0036940D01*
X0015729Y0037739D02*
X0012800Y0037739D01*
X0012800Y0038537D02*
X0015419Y0038537D01*
X0015419Y0039336D02*
X0012800Y0039336D01*
X0012800Y0040134D02*
X0015676Y0040134D01*
X0016283Y0040933D02*
X0012800Y0040933D01*
X0012800Y0041732D02*
X0016005Y0041732D01*
X0015482Y0042530D02*
X0012800Y0042530D01*
X0012800Y0043329D02*
X0015482Y0043329D01*
X0015482Y0044127D02*
X0012800Y0044127D01*
X0012800Y0044926D02*
X0015482Y0044926D01*
X0015482Y0045724D02*
X0012800Y0045724D01*
X0012800Y0046523D02*
X0015482Y0046523D01*
X0015482Y0047321D02*
X0012800Y0047321D01*
X0012800Y0048120D02*
X0015856Y0048120D01*
X0015767Y0049717D02*
X0019233Y0049717D01*
X0019255Y0049694D02*
X0024745Y0049694D01*
X0025200Y0050149D01*
X0025200Y0049746D01*
X0024200Y0048746D01*
X0024200Y0048565D01*
X0023782Y0048565D01*
X0022962Y0047745D01*
X0023337Y0048120D02*
X0020663Y0048120D01*
X0019255Y0049694D02*
X0018435Y0050515D01*
X0022000Y0053063D02*
X0031000Y0060937D01*
X0034565Y0055306D02*
X0041761Y0055306D01*
X0049800Y0055306D02*
X0054145Y0055306D01*
X0054121Y0055265D02*
X0054025Y0054909D01*
X0054025Y0053537D01*
X0056613Y0053537D01*
X0056613Y0056124D01*
X0055241Y0056124D01*
X0054885Y0056029D01*
X0054566Y0055845D01*
X0054305Y0055584D01*
X0054121Y0055265D01*
X0054025Y0054508D02*
X0049800Y0054508D01*
X0049800Y0053709D02*
X0054025Y0053709D01*
X0054025Y0052762D02*
X0054025Y0051390D01*
X0054121Y0051034D01*
X0054305Y0050715D01*
X0054566Y0050455D01*
X0054885Y0050270D01*
X0055241Y0050175D01*
X0056613Y0050175D01*
X0056613Y0052762D01*
X0057387Y0052762D01*
X0057387Y0050175D01*
X0058759Y0050175D01*
X0059115Y0050270D01*
X0059434Y0050455D01*
X0059695Y0050715D01*
X0059879Y0051034D01*
X0059975Y0051390D01*
X0059975Y0052762D01*
X0057387Y0052762D01*
X0057387Y0053537D01*
X0056613Y0053537D01*
X0056613Y0052762D01*
X0054025Y0052762D01*
X0054025Y0052112D02*
X0049800Y0052112D01*
X0049800Y0051314D02*
X0054046Y0051314D01*
X0054505Y0050515D02*
X0049061Y0050515D01*
X0048262Y0049717D02*
X0054737Y0049717D01*
X0054025Y0048918D02*
X0050133Y0048918D01*
X0053000Y0047000D02*
X0056850Y0047000D01*
X0057000Y0046850D01*
X0059975Y0046523D02*
X0063220Y0046523D01*
X0062943Y0047321D02*
X0059975Y0047321D01*
X0059975Y0048120D02*
X0062943Y0048120D01*
X0062989Y0048918D02*
X0059975Y0048918D01*
X0059263Y0049717D02*
X0063319Y0049717D01*
X0063777Y0050515D02*
X0059495Y0050515D01*
X0059954Y0051314D02*
X0064576Y0051314D01*
X0069424Y0051314D02*
X0074435Y0051314D01*
X0074435Y0052112D02*
X0059975Y0052112D01*
X0059975Y0053537D02*
X0057387Y0053537D01*
X0057387Y0056124D01*
X0058759Y0056124D01*
X0059115Y0056029D01*
X0059434Y0055845D01*
X0059695Y0055584D01*
X0059879Y0055265D01*
X0059975Y0054909D01*
X0059975Y0053537D01*
X0059975Y0053709D02*
X0087059Y0053709D01*
X0086583Y0052911D02*
X0081140Y0052911D01*
X0081565Y0052112D02*
X0086419Y0052112D01*
X0086491Y0051314D02*
X0081565Y0051314D01*
X0081565Y0050515D02*
X0086835Y0050515D01*
X0087768Y0049717D02*
X0081565Y0049717D01*
X0081627Y0048918D02*
X0091031Y0048918D01*
X0090694Y0049717D02*
X0090232Y0049717D01*
X0097095Y0048918D02*
X0098905Y0048918D01*
X0098569Y0049717D02*
X0097431Y0049717D01*
X0097431Y0050515D02*
X0098569Y0050515D01*
X0098569Y0051314D02*
X0097431Y0051314D01*
X0097431Y0052112D02*
X0098569Y0052112D01*
X0098569Y0052911D02*
X0097431Y0052911D01*
X0097431Y0053709D02*
X0098569Y0053709D01*
X0098569Y0054508D02*
X0097431Y0054508D01*
X0096871Y0055306D02*
X0099129Y0055306D01*
X0101046Y0058500D02*
X0109092Y0058500D01*
X0109092Y0057702D02*
X0050727Y0057702D01*
X0050639Y0058500D02*
X0085954Y0058500D01*
X0085156Y0059299D02*
X0050639Y0059299D01*
X0050908Y0060097D02*
X0084357Y0060097D01*
X0083559Y0060896D02*
X0063947Y0060896D01*
X0064565Y0061694D02*
X0083200Y0061694D01*
X0083200Y0062493D02*
X0077551Y0062493D01*
X0077951Y0063291D02*
X0083200Y0063291D01*
X0083200Y0064090D02*
X0077951Y0064090D01*
X0077927Y0064888D02*
X0083200Y0064888D01*
X0083200Y0065687D02*
X0077908Y0065687D01*
X0077951Y0066485D02*
X0083200Y0066485D01*
X0083200Y0067284D02*
X0077951Y0067284D01*
X0077864Y0068082D02*
X0083200Y0068082D01*
X0083200Y0068881D02*
X0077951Y0068881D01*
X0077951Y0069679D02*
X0083200Y0069679D01*
X0083200Y0070478D02*
X0077859Y0070478D01*
X0077951Y0071276D02*
X0083200Y0071276D01*
X0083529Y0072075D02*
X0077951Y0072075D01*
X0077949Y0072873D02*
X0084328Y0072873D01*
X0085126Y0073672D02*
X0077951Y0073672D01*
X0077951Y0074470D02*
X0085925Y0074470D01*
X0086723Y0075269D02*
X0077951Y0075269D01*
X0071214Y0075269D02*
X0063782Y0075269D01*
X0064565Y0074470D02*
X0071214Y0074470D01*
X0071214Y0073672D02*
X0064565Y0073672D01*
X0064565Y0072873D02*
X0071216Y0072873D01*
X0071214Y0072075D02*
X0064565Y0072075D01*
X0064565Y0071276D02*
X0071214Y0071276D01*
X0071306Y0070478D02*
X0064565Y0070478D01*
X0064565Y0069679D02*
X0071214Y0069679D01*
X0071214Y0069161D02*
X0074583Y0069161D01*
X0071214Y0069161D01*
X0071214Y0068881D02*
X0064058Y0068881D01*
X0063893Y0067284D02*
X0071214Y0067284D01*
X0071214Y0066485D02*
X0064565Y0066485D01*
X0064565Y0065687D02*
X0071257Y0065687D01*
X0071238Y0064888D02*
X0064565Y0064888D01*
X0064565Y0064090D02*
X0071214Y0064090D01*
X0071214Y0063291D02*
X0064565Y0063291D01*
X0064565Y0062493D02*
X0071614Y0062493D01*
X0074583Y0062493D02*
X0074583Y0062493D01*
X0074583Y0063291D02*
X0074583Y0063291D01*
X0074583Y0064090D02*
X0074583Y0064090D01*
X0074583Y0064888D02*
X0074583Y0064888D01*
X0074583Y0065687D02*
X0074583Y0065687D01*
X0074583Y0066485D02*
X0074583Y0066485D01*
X0074583Y0067284D02*
X0074583Y0067284D01*
X0074583Y0068082D02*
X0074583Y0068082D01*
X0074583Y0068881D02*
X0074583Y0068881D01*
X0074583Y0069161D02*
X0074583Y0069161D01*
X0071301Y0068082D02*
X0050639Y0068082D01*
X0050639Y0067284D02*
X0058107Y0067284D01*
X0057435Y0066485D02*
X0050639Y0066485D01*
X0050908Y0065687D02*
X0052141Y0065687D01*
X0051343Y0064888D02*
X0050908Y0064888D01*
X0053000Y0064000D02*
X0060937Y0064000D01*
X0061000Y0064063D01*
X0057435Y0061694D02*
X0053240Y0061694D01*
X0051780Y0062780D02*
X0053000Y0064000D01*
X0051780Y0062780D02*
X0048839Y0062780D01*
X0046280Y0062780D02*
X0046280Y0066720D01*
X0046000Y0067000D01*
X0042435Y0066485D02*
X0042152Y0066485D01*
X0039202Y0065687D02*
X0015950Y0065687D01*
X0009545Y0073672D02*
X0007337Y0073672D01*
X0007337Y0074470D02*
X0009435Y0074470D01*
X0009435Y0075269D02*
X0007337Y0075269D01*
X0036412Y0076866D02*
X0038701Y0076866D01*
X0039344Y0077665D02*
X0037210Y0077665D01*
X0042842Y0071276D02*
X0043178Y0071276D01*
X0050269Y0071276D02*
X0057435Y0071276D01*
X0057435Y0070478D02*
X0050639Y0070478D01*
X0050639Y0069679D02*
X0057435Y0069679D01*
X0057942Y0068881D02*
X0050639Y0068881D01*
X0059415Y0076068D02*
X0071214Y0076068D01*
X0071214Y0076866D02*
X0058617Y0076866D01*
X0057818Y0077665D02*
X0071214Y0077665D01*
X0071214Y0078463D02*
X0057020Y0078463D01*
X0088000Y0069000D02*
X0093000Y0069000D01*
X0093161Y0069161D01*
X0097417Y0069161D01*
X0097417Y0066602D02*
X0094602Y0066602D01*
X0094000Y0066000D01*
X0091000Y0066000D01*
X0088000Y0063000D02*
X0095000Y0063000D01*
X0096043Y0064043D01*
X0097417Y0064043D01*
X0102643Y0060097D02*
X0109092Y0060097D01*
X0109092Y0059299D02*
X0101844Y0059299D01*
X0103441Y0060896D02*
X0109322Y0060896D01*
X0111161Y0057702D02*
X0111161Y0057702D01*
X0111161Y0056903D02*
X0111161Y0056903D01*
X0111161Y0056105D02*
X0111161Y0056105D01*
X0111161Y0055306D02*
X0111161Y0055306D01*
X0111161Y0054508D02*
X0111161Y0054508D01*
X0109442Y0054508D02*
X0105305Y0054508D01*
X0104745Y0055306D02*
X0109092Y0055306D01*
X0109092Y0056105D02*
X0058833Y0056105D01*
X0059855Y0055306D02*
X0091255Y0055306D01*
X0090694Y0054508D02*
X0089691Y0054508D01*
X0088309Y0054508D02*
X0059975Y0054508D01*
X0057387Y0054508D02*
X0056613Y0054508D01*
X0056613Y0055306D02*
X0057387Y0055306D01*
X0057387Y0056105D02*
X0056613Y0056105D01*
X0055167Y0056105D02*
X0049800Y0056105D01*
X0050150Y0056903D02*
X0109092Y0056903D01*
X0113720Y0057780D02*
X0113720Y0052720D01*
X0113000Y0052000D01*
X0101937Y0052000D01*
X0102000Y0051063D01*
X0102000Y0048000D01*
X0101000Y0047000D01*
X0081000Y0047000D01*
X0079000Y0049000D01*
X0078000Y0049937D01*
X0074435Y0049717D02*
X0070681Y0049717D01*
X0071011Y0048918D02*
X0074435Y0048918D01*
X0074435Y0048120D02*
X0071057Y0048120D01*
X0071057Y0047321D02*
X0074502Y0047321D01*
X0074749Y0044926D02*
X0069664Y0044926D01*
X0070449Y0045724D02*
X0079730Y0045724D01*
X0078932Y0046523D02*
X0070780Y0046523D01*
X0068800Y0044127D02*
X0074435Y0044127D01*
X0077937Y0042000D02*
X0078000Y0042063D01*
X0078000Y0038000D01*
X0077000Y0037000D01*
X0077000Y0030000D01*
X0074441Y0027441D01*
X0074441Y0025260D01*
X0074441Y0022441D01*
X0074000Y0022000D01*
X0074000Y0020000D01*
X0071608Y0020970D02*
X0065680Y0020970D01*
X0066308Y0020172D02*
X0071419Y0020172D01*
X0071466Y0019373D02*
X0066581Y0019373D01*
X0066581Y0018575D02*
X0071797Y0018575D01*
X0072624Y0017776D02*
X0066287Y0017776D01*
X0065628Y0016978D02*
X0085200Y0016978D01*
X0085200Y0017776D02*
X0075376Y0017776D01*
X0076203Y0018575D02*
X0085200Y0018575D01*
X0085828Y0019373D02*
X0076534Y0019373D01*
X0076581Y0020172D02*
X0086200Y0020172D01*
X0086200Y0020970D02*
X0076392Y0020970D01*
X0076241Y0021769D02*
X0085180Y0021769D01*
X0084435Y0022567D02*
X0081209Y0022567D01*
X0081746Y0023366D02*
X0082089Y0023366D01*
X0083000Y0025000D02*
X0087937Y0025000D01*
X0088000Y0025063D01*
X0088000Y0019000D01*
X0087000Y0018000D01*
X0087000Y0013063D01*
X0087063Y0013000D01*
X0078937Y0013000D01*
X0075569Y0012985D02*
X0071463Y0012985D01*
X0071463Y0012600D02*
X0071463Y0013400D01*
X0074431Y0013400D01*
X0074431Y0015350D01*
X0074336Y0015706D01*
X0074152Y0016025D01*
X0073891Y0016286D01*
X0073572Y0016470D01*
X0073216Y0016565D01*
X0071463Y0016565D01*
X0071463Y0013400D01*
X0070663Y0013400D01*
X0070663Y0016565D01*
X0068910Y0016565D01*
X0068554Y0016470D01*
X0068235Y0016286D01*
X0067974Y0016025D01*
X0067790Y0015706D01*
X0067694Y0015350D01*
X0067694Y0013400D01*
X0070663Y0013400D01*
X0070663Y0012600D01*
X0071463Y0012600D01*
X0074431Y0012600D01*
X0074431Y0010650D01*
X0074336Y0010294D01*
X0074152Y0009975D01*
X0073891Y0009714D01*
X0073572Y0009530D01*
X0073216Y0009435D01*
X0071463Y0009435D01*
X0071463Y0012600D01*
X0071463Y0012187D02*
X0070663Y0012187D01*
X0070663Y0012600D02*
X0070663Y0009435D01*
X0068910Y0009435D01*
X0068554Y0009530D01*
X0068235Y0009714D01*
X0067974Y0009975D01*
X0067790Y0010294D01*
X0067694Y0010650D01*
X0067694Y0012600D01*
X0070663Y0012600D01*
X0070663Y0012985D02*
X0061487Y0012985D01*
X0061487Y0012187D02*
X0067694Y0012187D01*
X0067694Y0011388D02*
X0061487Y0011388D01*
X0061487Y0010590D02*
X0067711Y0010590D01*
X0068158Y0009791D02*
X0061487Y0009791D01*
X0061487Y0008993D02*
X0274254Y0008993D01*
X0274254Y0009791D02*
X0097842Y0009791D01*
X0097485Y0009435D02*
X0098305Y0010255D01*
X0098305Y0011000D01*
X0099350Y0011000D01*
X0099538Y0010812D01*
X0100487Y0010419D01*
X0101513Y0010419D01*
X0102462Y0010812D01*
X0103188Y0011538D01*
X0103581Y0012487D01*
X0103581Y0013513D01*
X0103188Y0014462D01*
X0102462Y0015188D01*
X0101513Y0015581D01*
X0100487Y0015581D01*
X0099538Y0015188D01*
X0099350Y0015000D01*
X0098305Y0015000D01*
X0098305Y0015745D01*
X0097485Y0016565D01*
X0092389Y0016565D01*
X0091569Y0015745D01*
X0091569Y0010255D01*
X0092389Y0009435D01*
X0097485Y0009435D01*
X0098305Y0010590D02*
X0100075Y0010590D01*
X0101925Y0010590D02*
X0274254Y0010590D01*
X0274254Y0011388D02*
X0195934Y0011388D01*
X0196732Y0012187D02*
X0274254Y0012187D01*
X0274254Y0012985D02*
X0197531Y0012985D01*
X0198329Y0013784D02*
X0274254Y0013784D01*
X0274254Y0014582D02*
X0198650Y0014582D01*
X0198650Y0015381D02*
X0274254Y0015381D01*
X0274254Y0016179D02*
X0205458Y0016179D01*
X0206124Y0016978D02*
X0274254Y0016978D01*
X0274254Y0017776D02*
X0206124Y0017776D01*
X0206124Y0018575D02*
X0274254Y0018575D01*
X0274254Y0019373D02*
X0206124Y0019373D01*
X0206124Y0020172D02*
X0274254Y0020172D01*
X0274254Y0020970D02*
X0215874Y0020970D01*
X0214126Y0020970D02*
X0206124Y0020970D01*
X0205510Y0021769D02*
X0212493Y0021769D01*
X0211695Y0022567D02*
X0206618Y0022567D01*
X0205000Y0025000D02*
X0215000Y0025000D01*
X0219000Y0025000D01*
X0221000Y0027000D01*
X0225063Y0027000D01*
X0228431Y0027358D02*
X0229569Y0027358D01*
X0229569Y0026560D02*
X0228431Y0026560D01*
X0228431Y0025761D02*
X0229569Y0025761D01*
X0229569Y0024963D02*
X0228431Y0024963D01*
X0228341Y0024164D02*
X0229659Y0024164D01*
X0232937Y0027000D02*
X0232937Y0035197D01*
X0233000Y0035260D01*
X0232803Y0035063D01*
X0225000Y0035063D01*
X0222343Y0037720D01*
X0215780Y0037720D01*
X0215780Y0040280D02*
X0208720Y0040280D01*
X0201000Y0048000D01*
X0201000Y0058000D01*
X0197900Y0061100D01*
X0197900Y0066000D01*
X0196000Y0066000D02*
X0196000Y0069000D01*
X0197000Y0070000D01*
X0201000Y0070000D01*
X0202000Y0069000D01*
X0202000Y0063000D01*
X0203000Y0062000D01*
X0208063Y0062000D01*
X0211431Y0061694D02*
X0212569Y0061694D01*
X0212569Y0060896D02*
X0211431Y0060896D01*
X0211431Y0060097D02*
X0212569Y0060097D01*
X0212569Y0059299D02*
X0211431Y0059299D01*
X0210677Y0058500D02*
X0213323Y0058500D01*
X0218551Y0058500D02*
X0226850Y0058500D01*
X0226497Y0059299D02*
X0219305Y0059299D01*
X0222748Y0060097D02*
X0226419Y0060097D01*
X0226000Y0062000D02*
X0221000Y0062000D01*
X0219440Y0064090D02*
X0219305Y0064090D01*
X0219162Y0064888D02*
X0219667Y0064888D01*
X0219419Y0065687D02*
X0203800Y0065687D01*
X0203800Y0066485D02*
X0205464Y0066485D01*
X0204694Y0067284D02*
X0203800Y0067284D01*
X0203800Y0068082D02*
X0204694Y0068082D01*
X0204694Y0068881D02*
X0203800Y0068881D01*
X0203800Y0069679D02*
X0204694Y0069679D01*
X0206063Y0072000D02*
X0208063Y0070000D01*
X0206063Y0072000D02*
X0194000Y0072000D01*
X0192000Y0070000D01*
X0192000Y0066000D01*
X0190100Y0066000D02*
X0190100Y0059100D01*
X0190000Y0059000D01*
X0194000Y0058000D02*
X0188150Y0052150D01*
X0188150Y0052000D01*
X0185175Y0051314D02*
X0184825Y0051314D01*
X0184825Y0050515D02*
X0185175Y0050515D01*
X0185303Y0049717D02*
X0184633Y0049717D01*
X0188063Y0045000D02*
X0188000Y0044937D01*
X0188063Y0045000D02*
X0192000Y0045000D01*
X0193023Y0046523D02*
X0194419Y0046523D01*
X0194200Y0047321D02*
X0191565Y0047321D01*
X0193800Y0045746D02*
X0193800Y0045746D01*
X0193821Y0045724D02*
X0194735Y0045724D01*
X0194620Y0044926D02*
X0195424Y0044926D01*
X0199800Y0044926D02*
X0201529Y0044926D01*
X0201924Y0044127D02*
X0202327Y0044127D01*
X0201963Y0043329D02*
X0203126Y0043329D01*
X0203924Y0042530D02*
X0201963Y0042530D01*
X0201963Y0041732D02*
X0204723Y0041732D01*
X0205521Y0040933D02*
X0201963Y0040933D01*
X0201963Y0040134D02*
X0206320Y0040134D01*
X0207118Y0039336D02*
X0203210Y0039336D01*
X0204008Y0038537D02*
X0207917Y0038537D01*
X0209290Y0036940D02*
X0205605Y0036940D01*
X0205800Y0036142D02*
X0208679Y0036142D01*
X0208419Y0035343D02*
X0205800Y0035343D01*
X0205800Y0034545D02*
X0208419Y0034545D01*
X0208725Y0033746D02*
X0205800Y0033746D01*
X0205493Y0032948D02*
X0209402Y0032948D01*
X0212598Y0032948D02*
X0221435Y0032948D01*
X0221435Y0033746D02*
X0219356Y0033746D01*
X0219522Y0034545D02*
X0221435Y0034545D01*
X0221435Y0035343D02*
X0219522Y0035343D01*
X0215780Y0035161D02*
X0211161Y0035161D01*
X0211000Y0035000D01*
X0212037Y0037739D02*
X0204807Y0037739D01*
X0202111Y0035343D02*
X0201963Y0035343D01*
X0201963Y0034545D02*
X0201999Y0034545D01*
X0200402Y0032948D02*
X0168800Y0032948D01*
X0168799Y0033746D02*
X0177203Y0033746D01*
X0176435Y0034545D02*
X0168001Y0034545D01*
X0167202Y0035343D02*
X0176435Y0035343D01*
X0176435Y0036142D02*
X0166404Y0036142D01*
X0165605Y0036940D02*
X0176435Y0036940D01*
X0176435Y0037739D02*
X0176286Y0037739D01*
X0173714Y0037739D02*
X0164807Y0037739D01*
X0164008Y0038537D02*
X0172812Y0038537D01*
X0172481Y0039336D02*
X0135210Y0039336D01*
X0134800Y0040134D02*
X0172419Y0040134D01*
X0172593Y0040933D02*
X0160369Y0040933D01*
X0159047Y0040933D02*
X0134800Y0040933D01*
X0134800Y0041732D02*
X0155894Y0041732D01*
X0154182Y0042530D02*
X0134800Y0042530D01*
X0134800Y0043329D02*
X0152960Y0043329D01*
X0151738Y0044127D02*
X0134800Y0044127D01*
X0134800Y0044926D02*
X0150950Y0044926D01*
X0150328Y0045724D02*
X0134800Y0045724D01*
X0134800Y0046523D02*
X0149707Y0046523D01*
X0149085Y0047321D02*
X0134800Y0047321D01*
X0134800Y0048120D02*
X0148589Y0048120D01*
X0148688Y0047831D02*
X0148688Y0047831D01*
X0148315Y0048918D02*
X0134800Y0048918D01*
X0134800Y0049717D02*
X0148041Y0049717D01*
X0147767Y0050515D02*
X0134800Y0050515D01*
X0134800Y0051314D02*
X0147493Y0051314D01*
X0147255Y0052112D02*
X0134800Y0052112D01*
X0134800Y0052911D02*
X0147255Y0052911D01*
X0147255Y0053709D02*
X0134800Y0053709D01*
X0134038Y0054508D02*
X0147255Y0054508D01*
X0147255Y0055306D02*
X0133239Y0055306D01*
X0132441Y0056105D02*
X0147255Y0056105D01*
X0147421Y0056903D02*
X0131642Y0056903D01*
X0128947Y0054508D02*
X0120558Y0054508D01*
X0120908Y0055306D02*
X0128148Y0055306D01*
X0127350Y0056105D02*
X0120908Y0056105D01*
X0119000Y0057941D02*
X0119000Y0065000D01*
X0116000Y0068000D01*
X0115937Y0068000D01*
X0108063Y0068000D02*
X0108063Y0068126D01*
X0115937Y0076000D01*
X0127000Y0073672D02*
X0129435Y0073672D01*
X0129435Y0074470D02*
X0128521Y0074470D01*
X0128565Y0075269D02*
X0129435Y0075269D01*
X0130017Y0076068D02*
X0128565Y0076068D01*
X0128565Y0076866D02*
X0131200Y0076866D01*
X0130759Y0077665D02*
X0128565Y0077665D01*
X0128565Y0078463D02*
X0130429Y0078463D01*
X0130419Y0079262D02*
X0128565Y0079262D01*
X0128117Y0080060D02*
X0130645Y0080060D01*
X0127834Y0081657D02*
X0138121Y0081657D01*
X0137534Y0082456D02*
X0128565Y0082456D01*
X0128565Y0083254D02*
X0137482Y0083254D01*
X0137482Y0084053D02*
X0128565Y0084053D01*
X0139971Y0084053D02*
X0140549Y0084053D01*
X0140549Y0083254D02*
X0139971Y0083254D01*
X0139971Y0082456D02*
X0140549Y0082456D01*
X0140549Y0081657D02*
X0139971Y0081657D01*
X0139971Y0085650D02*
X0140549Y0085650D01*
X0140549Y0086448D02*
X0139971Y0086448D01*
X0139971Y0087247D02*
X0140549Y0087247D01*
X0140549Y0088045D02*
X0139971Y0088045D01*
X0138617Y0090441D02*
X0141383Y0090441D01*
X0140584Y0091239D02*
X0139416Y0091239D01*
X0139431Y0092038D02*
X0140569Y0092038D01*
X0140569Y0092836D02*
X0139431Y0092836D01*
X0139431Y0093635D02*
X0140569Y0093635D01*
X0140569Y0094433D02*
X0139431Y0094433D01*
X0140069Y0095232D02*
X0140569Y0095232D01*
X0147290Y0091239D02*
X0153108Y0091239D01*
X0152679Y0092038D02*
X0151688Y0092038D01*
X0150218Y0088045D02*
X0166782Y0088045D01*
X0166482Y0087247D02*
X0150518Y0087247D01*
X0152380Y0086448D02*
X0152795Y0086448D01*
X0150716Y0082456D02*
X0150518Y0082456D01*
X0144962Y0085650D02*
X0143038Y0085650D01*
X0143038Y0086448D02*
X0144962Y0086448D01*
X0144962Y0087247D02*
X0143038Y0087247D01*
X0142738Y0088045D02*
X0145262Y0088045D01*
X0146491Y0090441D02*
X0190200Y0090441D01*
X0193800Y0089200D02*
X0202254Y0089200D01*
X0204694Y0086760D01*
X0204694Y0083255D01*
X0205515Y0082435D01*
X0210200Y0082435D01*
X0210200Y0081565D01*
X0205515Y0081565D01*
X0204694Y0080745D01*
X0204694Y0079851D01*
X0203800Y0080746D01*
X0203800Y0084746D01*
X0201800Y0086746D01*
X0200746Y0087800D01*
X0196254Y0087800D01*
X0195254Y0086800D01*
X0194354Y0085900D01*
X0194000Y0085900D01*
X0194000Y0082000D01*
X0194000Y0082000D01*
X0194000Y0085900D01*
X0193800Y0085900D01*
X0193800Y0089200D01*
X0193800Y0088844D02*
X0202611Y0088844D01*
X0203409Y0088045D02*
X0193800Y0088045D01*
X0193800Y0087247D02*
X0195701Y0087247D01*
X0194903Y0086448D02*
X0193800Y0086448D01*
X0194000Y0085650D02*
X0194000Y0085650D01*
X0194000Y0084851D02*
X0194000Y0084851D01*
X0194000Y0084053D02*
X0194000Y0084053D01*
X0194000Y0083254D02*
X0194000Y0083254D01*
X0194000Y0082456D02*
X0194000Y0082456D01*
X0199850Y0082456D02*
X0200200Y0082456D01*
X0200200Y0081657D02*
X0199850Y0081657D01*
X0199850Y0080859D02*
X0200200Y0080859D01*
X0200200Y0080060D02*
X0199850Y0080060D01*
X0199850Y0079262D02*
X0200200Y0079262D01*
X0199700Y0078463D02*
X0200991Y0078463D01*
X0201790Y0077665D02*
X0199210Y0077665D01*
X0198581Y0076866D02*
X0202588Y0076866D01*
X0204000Y0078000D02*
X0208063Y0078000D01*
X0204694Y0080060D02*
X0204486Y0080060D01*
X0204808Y0080859D02*
X0203800Y0080859D01*
X0203800Y0081657D02*
X0210200Y0081657D01*
X0214203Y0081657D02*
X0223150Y0081657D01*
X0223150Y0080859D02*
X0219192Y0080859D01*
X0219305Y0080060D02*
X0219410Y0080060D01*
X0222590Y0080060D02*
X0223150Y0080060D01*
X0223401Y0077053D02*
X0224200Y0076254D01*
X0225254Y0075200D01*
X0232746Y0075200D01*
X0234700Y0077154D01*
X0234700Y0078770D01*
X0234850Y0078920D01*
X0234850Y0080200D01*
X0268254Y0080200D01*
X0270200Y0078254D01*
X0270200Y0075471D01*
X0269969Y0076029D01*
X0268911Y0077087D01*
X0267528Y0077660D01*
X0266031Y0077660D01*
X0264648Y0077087D01*
X0263590Y0076029D01*
X0263017Y0074646D01*
X0263017Y0073149D01*
X0263154Y0072818D01*
X0262136Y0071800D01*
X0262109Y0071800D01*
X0262668Y0073149D01*
X0262668Y0074646D01*
X0262095Y0076029D01*
X0261037Y0077087D01*
X0259654Y0077660D01*
X0258157Y0077660D01*
X0256774Y0077087D01*
X0255716Y0076029D01*
X0255143Y0074646D01*
X0255143Y0073149D01*
X0255702Y0071800D01*
X0239254Y0071800D01*
X0238200Y0070746D01*
X0236200Y0068746D01*
X0236200Y0067800D01*
X0234850Y0067800D01*
X0234850Y0069080D01*
X0234030Y0069900D01*
X0232800Y0069900D01*
X0232800Y0070746D01*
X0230746Y0072800D01*
X0219254Y0072800D01*
X0219253Y0072798D01*
X0218485Y0073565D01*
X0214917Y0073565D01*
X0214048Y0074435D01*
X0218485Y0074435D01*
X0219305Y0075255D01*
X0219305Y0076044D01*
X0219538Y0075812D01*
X0220487Y0075419D01*
X0221513Y0075419D01*
X0222462Y0075812D01*
X0223188Y0076538D01*
X0223401Y0077053D01*
X0223324Y0076866D02*
X0223588Y0076866D01*
X0224387Y0076068D02*
X0222718Y0076068D01*
X0225185Y0075269D02*
X0219305Y0075269D01*
X0218521Y0074470D02*
X0255143Y0074470D01*
X0255143Y0073672D02*
X0214811Y0073672D01*
X0212115Y0071276D02*
X0211431Y0071276D01*
X0211431Y0070478D02*
X0212569Y0070478D01*
X0212569Y0069679D02*
X0211431Y0069679D01*
X0211431Y0068881D02*
X0212569Y0068881D01*
X0212569Y0068082D02*
X0211431Y0068082D01*
X0211431Y0067284D02*
X0212569Y0067284D01*
X0213338Y0066485D02*
X0210662Y0066485D01*
X0211288Y0064888D02*
X0212712Y0064888D01*
X0212569Y0064090D02*
X0211431Y0064090D01*
X0211431Y0063291D02*
X0212569Y0063291D01*
X0212569Y0062493D02*
X0211431Y0062493D01*
X0204694Y0064090D02*
X0203800Y0064090D01*
X0203800Y0064888D02*
X0204838Y0064888D01*
X0200200Y0064888D02*
X0199850Y0064888D01*
X0199850Y0064090D02*
X0200200Y0064090D01*
X0200200Y0063291D02*
X0199850Y0063291D01*
X0199700Y0062493D02*
X0200200Y0062493D01*
X0199851Y0061694D02*
X0200760Y0061694D01*
X0200650Y0060896D02*
X0201559Y0060896D01*
X0201448Y0060097D02*
X0204694Y0060097D01*
X0204694Y0059299D02*
X0202247Y0059299D01*
X0202800Y0058500D02*
X0205449Y0058500D01*
X0202800Y0057702D02*
X0227804Y0057702D01*
X0230025Y0056903D02*
X0202800Y0056903D01*
X0202800Y0056105D02*
X0230025Y0056105D01*
X0230025Y0055306D02*
X0227034Y0055306D01*
X0227833Y0054508D02*
X0230025Y0054508D01*
X0230025Y0053709D02*
X0228368Y0053709D01*
X0228368Y0052911D02*
X0230109Y0052911D01*
X0230885Y0051730D02*
X0230566Y0051545D01*
X0230305Y0051285D01*
X0230121Y0050966D01*
X0230025Y0050610D01*
X0230025Y0049238D01*
X0232613Y0049238D01*
X0232613Y0051825D01*
X0231241Y0051825D01*
X0230885Y0051730D01*
X0230334Y0051314D02*
X0228368Y0051314D01*
X0228368Y0052112D02*
X0245667Y0052112D01*
X0245812Y0052462D02*
X0245419Y0051513D01*
X0245419Y0050487D01*
X0245812Y0049538D01*
X0246538Y0048812D01*
X0247487Y0048419D01*
X0248513Y0048419D01*
X0249462Y0048812D01*
X0250188Y0049538D01*
X0250581Y0050487D01*
X0250581Y0051513D01*
X0250188Y0052462D01*
X0249800Y0052850D01*
X0249800Y0055254D01*
X0250990Y0056444D01*
X0255540Y0056444D01*
X0255716Y0056018D01*
X0256774Y0054960D01*
X0258157Y0054387D01*
X0259654Y0054387D01*
X0261037Y0054960D01*
X0262095Y0056018D01*
X0262668Y0057401D01*
X0262668Y0058898D01*
X0262095Y0060281D01*
X0261037Y0061339D01*
X0259654Y0061912D01*
X0258157Y0061912D01*
X0256774Y0061339D01*
X0255716Y0060281D01*
X0255618Y0060044D01*
X0249498Y0060044D01*
X0248444Y0058990D01*
X0246200Y0056746D01*
X0246200Y0052850D01*
X0245812Y0052462D01*
X0246200Y0052911D02*
X0235891Y0052911D01*
X0235975Y0053709D02*
X0246200Y0053709D01*
X0246200Y0054508D02*
X0235975Y0054508D01*
X0235975Y0055306D02*
X0246200Y0055306D01*
X0246200Y0056105D02*
X0235975Y0056105D01*
X0235975Y0056903D02*
X0246358Y0056903D01*
X0247156Y0057702D02*
X0235577Y0057702D01*
X0234800Y0058500D02*
X0247955Y0058500D01*
X0248753Y0059299D02*
X0234800Y0059299D01*
X0234448Y0060097D02*
X0255640Y0060097D01*
X0256331Y0060896D02*
X0233650Y0060896D01*
X0232851Y0061694D02*
X0257632Y0061694D01*
X0257598Y0062493D02*
X0234423Y0062493D01*
X0234850Y0063291D02*
X0256317Y0063291D01*
X0255634Y0064090D02*
X0234850Y0064090D01*
X0238434Y0064888D02*
X0255304Y0064888D01*
X0255143Y0065687D02*
X0239232Y0065687D01*
X0238746Y0065200D02*
X0238746Y0065200D01*
X0239800Y0066485D02*
X0255143Y0066485D01*
X0255355Y0067284D02*
X0239829Y0067284D01*
X0240628Y0068082D02*
X0255686Y0068082D01*
X0262125Y0068082D02*
X0263560Y0068082D01*
X0263229Y0067284D02*
X0262456Y0067284D01*
X0262668Y0066485D02*
X0263017Y0066485D01*
X0263017Y0065687D02*
X0262668Y0065687D01*
X0262507Y0064888D02*
X0263178Y0064888D01*
X0263508Y0064090D02*
X0262177Y0064090D01*
X0261494Y0063291D02*
X0264191Y0063291D01*
X0265473Y0062493D02*
X0260212Y0062493D01*
X0260179Y0061694D02*
X0265506Y0061694D01*
X0266031Y0061912D02*
X0264648Y0061339D01*
X0263590Y0060281D01*
X0263017Y0058898D01*
X0263017Y0057401D01*
X0263590Y0056018D01*
X0264648Y0054960D01*
X0266031Y0054387D01*
X0267528Y0054387D01*
X0268911Y0054960D01*
X0269969Y0056018D01*
X0270542Y0057401D01*
X0270542Y0058898D01*
X0269969Y0060281D01*
X0268911Y0061339D01*
X0267528Y0061912D01*
X0266031Y0061912D01*
X0268053Y0061694D02*
X0274254Y0061694D01*
X0274254Y0060896D02*
X0269354Y0060896D01*
X0270045Y0060097D02*
X0274254Y0060097D01*
X0274254Y0059299D02*
X0270376Y0059299D01*
X0270542Y0058500D02*
X0274254Y0058500D01*
X0274254Y0057702D02*
X0270542Y0057702D01*
X0270335Y0056903D02*
X0274254Y0056903D01*
X0274254Y0056105D02*
X0270005Y0056105D01*
X0269257Y0055306D02*
X0274254Y0055306D01*
X0274254Y0054508D02*
X0267818Y0054508D01*
X0267528Y0054038D02*
X0266031Y0054038D01*
X0264648Y0053465D01*
X0263590Y0052407D01*
X0263017Y0051024D01*
X0263017Y0049527D01*
X0263590Y0048144D01*
X0264648Y0047086D01*
X0266031Y0046513D01*
X0267528Y0046513D01*
X0268911Y0047086D01*
X0269969Y0048144D01*
X0270542Y0049527D01*
X0270542Y0051024D01*
X0269969Y0052407D01*
X0268911Y0053465D01*
X0267528Y0054038D01*
X0268321Y0053709D02*
X0274254Y0053709D01*
X0274254Y0052911D02*
X0269465Y0052911D01*
X0270091Y0052112D02*
X0274254Y0052112D01*
X0274254Y0051314D02*
X0270422Y0051314D01*
X0270542Y0050515D02*
X0274254Y0050515D01*
X0274254Y0049717D02*
X0270542Y0049717D01*
X0270289Y0048918D02*
X0274254Y0048918D01*
X0274254Y0048120D02*
X0269944Y0048120D01*
X0269146Y0047321D02*
X0274254Y0047321D01*
X0274254Y0046523D02*
X0267550Y0046523D01*
X0267528Y0046164D02*
X0266031Y0046164D01*
X0264648Y0045591D01*
X0263590Y0044533D01*
X0263017Y0043150D01*
X0263017Y0041653D01*
X0263590Y0040270D01*
X0264648Y0039212D01*
X0266031Y0038639D01*
X0267528Y0038639D01*
X0268911Y0039212D01*
X0269969Y0040270D01*
X0270542Y0041653D01*
X0270542Y0043150D01*
X0269969Y0044533D01*
X0268911Y0045591D01*
X0267528Y0046164D01*
X0268589Y0045724D02*
X0274254Y0045724D01*
X0274254Y0044926D02*
X0269576Y0044926D01*
X0270137Y0044127D02*
X0274254Y0044127D01*
X0274254Y0043329D02*
X0270468Y0043329D01*
X0270542Y0042530D02*
X0274254Y0042530D01*
X0274254Y0041732D02*
X0270542Y0041732D01*
X0270243Y0040933D02*
X0274254Y0040933D01*
X0274254Y0040134D02*
X0269833Y0040134D01*
X0269034Y0039336D02*
X0274254Y0039336D01*
X0274254Y0038537D02*
X0224071Y0038537D01*
X0223945Y0039336D02*
X0256722Y0039336D01*
X0256507Y0039479D02*
X0257123Y0039068D01*
X0257808Y0038784D01*
X0258518Y0038643D01*
X0258518Y0042014D01*
X0259293Y0042014D01*
X0259293Y0038643D01*
X0260003Y0038784D01*
X0260688Y0039068D01*
X0261304Y0039479D01*
X0261828Y0040003D01*
X0262240Y0040620D01*
X0262523Y0041304D01*
X0262664Y0042014D01*
X0259293Y0042014D01*
X0259293Y0042789D01*
X0262664Y0042789D01*
X0262523Y0043499D01*
X0262240Y0044184D01*
X0261828Y0044800D01*
X0261304Y0045324D01*
X0260688Y0045736D01*
X0260003Y0046019D01*
X0259293Y0046160D01*
X0259293Y0042789D01*
X0258518Y0042789D01*
X0258518Y0042014D01*
X0255147Y0042014D01*
X0255288Y0041304D01*
X0255571Y0040620D01*
X0255983Y0040003D01*
X0256507Y0039479D01*
X0255896Y0040134D02*
X0235918Y0040134D01*
X0236565Y0040933D02*
X0255442Y0040933D01*
X0255203Y0041732D02*
X0236565Y0041732D01*
X0236565Y0042530D02*
X0258518Y0042530D01*
X0258518Y0042789D02*
X0255147Y0042789D01*
X0255288Y0043499D01*
X0255571Y0044184D01*
X0255983Y0044800D01*
X0256507Y0045324D01*
X0257123Y0045736D01*
X0257808Y0046019D01*
X0258518Y0046160D01*
X0258518Y0042789D01*
X0258518Y0043329D02*
X0259293Y0043329D01*
X0259293Y0044127D02*
X0258518Y0044127D01*
X0258518Y0044926D02*
X0259293Y0044926D01*
X0259293Y0045724D02*
X0258518Y0045724D01*
X0258518Y0046517D02*
X0258518Y0049888D01*
X0259293Y0049888D01*
X0259293Y0046517D01*
X0260003Y0046658D01*
X0260688Y0046942D01*
X0261304Y0047353D01*
X0261828Y0047877D01*
X0262240Y0048494D01*
X0262523Y0049178D01*
X0262664Y0049888D01*
X0259293Y0049888D01*
X0259293Y0050663D01*
X0262664Y0050663D01*
X0262523Y0051373D01*
X0262240Y0052058D01*
X0261828Y0052674D01*
X0261304Y0053198D01*
X0260688Y0053610D01*
X0260003Y0053893D01*
X0259293Y0054034D01*
X0259293Y0050663D01*
X0258518Y0050663D01*
X0258518Y0049888D01*
X0255147Y0049888D01*
X0255288Y0049178D01*
X0255571Y0048494D01*
X0255983Y0047877D01*
X0256507Y0047353D01*
X0257123Y0046942D01*
X0257808Y0046658D01*
X0258518Y0046517D01*
X0258518Y0046523D02*
X0259293Y0046523D01*
X0259322Y0046523D02*
X0266009Y0046523D01*
X0264970Y0045724D02*
X0260705Y0045724D01*
X0261702Y0044926D02*
X0263983Y0044926D01*
X0263422Y0044127D02*
X0262263Y0044127D01*
X0262557Y0043329D02*
X0263091Y0043329D01*
X0263017Y0042530D02*
X0259293Y0042530D01*
X0259293Y0041732D02*
X0258518Y0041732D01*
X0258518Y0040933D02*
X0259293Y0040933D01*
X0259293Y0040134D02*
X0258518Y0040134D01*
X0258518Y0039336D02*
X0259293Y0039336D01*
X0259293Y0038286D02*
X0259293Y0034915D01*
X0262664Y0034915D01*
X0262523Y0035625D01*
X0262240Y0036310D01*
X0261828Y0036926D01*
X0261304Y0037450D01*
X0260688Y0037862D01*
X0260003Y0038145D01*
X0259293Y0038286D01*
X0259293Y0037739D02*
X0258518Y0037739D01*
X0258518Y0038286D02*
X0257808Y0038145D01*
X0257123Y0037862D01*
X0256507Y0037450D01*
X0255983Y0036926D01*
X0255571Y0036310D01*
X0255288Y0035625D01*
X0255147Y0034915D01*
X0258518Y0034915D01*
X0258518Y0034140D01*
X0259293Y0034140D01*
X0259293Y0030769D01*
X0260003Y0030910D01*
X0260688Y0031194D01*
X0261304Y0031605D01*
X0261828Y0032129D01*
X0262240Y0032745D01*
X0262523Y0033430D01*
X0262664Y0034140D01*
X0259293Y0034140D01*
X0259293Y0034915D01*
X0258518Y0034915D01*
X0258518Y0038286D01*
X0258518Y0036940D02*
X0259293Y0036940D01*
X0259293Y0036142D02*
X0258518Y0036142D01*
X0258518Y0035343D02*
X0259293Y0035343D01*
X0259293Y0034545D02*
X0263017Y0034545D01*
X0263017Y0035276D02*
X0263017Y0033779D01*
X0263590Y0032396D01*
X0264648Y0031338D01*
X0266031Y0030765D01*
X0267528Y0030765D01*
X0268911Y0031338D01*
X0269969Y0032396D01*
X0270542Y0033779D01*
X0270542Y0035276D01*
X0269969Y0036659D01*
X0268911Y0037717D01*
X0267528Y0038290D01*
X0266031Y0038290D01*
X0264648Y0037717D01*
X0263590Y0036659D01*
X0263017Y0035276D01*
X0263045Y0035343D02*
X0262579Y0035343D01*
X0262309Y0036142D02*
X0263376Y0036142D01*
X0263872Y0036940D02*
X0261813Y0036940D01*
X0260871Y0037739D02*
X0264701Y0037739D01*
X0264525Y0039336D02*
X0261089Y0039336D01*
X0261915Y0040134D02*
X0263726Y0040134D01*
X0263316Y0040933D02*
X0262369Y0040933D01*
X0262608Y0041732D02*
X0263017Y0041732D01*
X0268858Y0037739D02*
X0274254Y0037739D01*
X0274254Y0036940D02*
X0269687Y0036940D01*
X0270183Y0036142D02*
X0274254Y0036142D01*
X0274254Y0035343D02*
X0270514Y0035343D01*
X0270542Y0034545D02*
X0274254Y0034545D01*
X0274254Y0033746D02*
X0270528Y0033746D01*
X0270197Y0032948D02*
X0274254Y0032948D01*
X0274254Y0032149D02*
X0269722Y0032149D01*
X0268923Y0031351D02*
X0274254Y0031351D01*
X0274254Y0030552D02*
X0235498Y0030552D01*
X0234737Y0031351D02*
X0256888Y0031351D01*
X0257123Y0031194D02*
X0257808Y0030910D01*
X0258518Y0030769D01*
X0258518Y0034140D01*
X0255147Y0034140D01*
X0255288Y0033430D01*
X0255571Y0032745D01*
X0255983Y0032129D01*
X0256507Y0031605D01*
X0257123Y0031194D01*
X0258518Y0031351D02*
X0259293Y0031351D01*
X0259293Y0032149D02*
X0258518Y0032149D01*
X0258518Y0032948D02*
X0259293Y0032948D01*
X0259293Y0033746D02*
X0258518Y0033746D01*
X0258518Y0034545D02*
X0236565Y0034545D01*
X0236565Y0035343D02*
X0255232Y0035343D01*
X0255502Y0036142D02*
X0236565Y0036142D01*
X0236565Y0036940D02*
X0255998Y0036940D01*
X0256940Y0037739D02*
X0236044Y0037739D01*
X0229956Y0037739D02*
X0228438Y0037739D01*
X0228565Y0036940D02*
X0229435Y0036940D01*
X0230082Y0040134D02*
X0228311Y0040134D01*
X0228565Y0040933D02*
X0229435Y0040933D01*
X0232803Y0042937D02*
X0225000Y0042937D01*
X0225000Y0052000D01*
X0221631Y0052112D02*
X0217124Y0052112D01*
X0217124Y0051314D02*
X0221631Y0051314D01*
X0221631Y0050515D02*
X0217124Y0050515D01*
X0217124Y0049717D02*
X0221943Y0049717D01*
X0222742Y0048918D02*
X0217124Y0048918D01*
X0216399Y0048120D02*
X0223200Y0048120D01*
X0223200Y0047321D02*
X0216581Y0047321D01*
X0216799Y0046523D02*
X0223200Y0046523D01*
X0221673Y0045724D02*
X0217512Y0045724D01*
X0217677Y0044926D02*
X0221435Y0044926D01*
X0221435Y0044127D02*
X0219483Y0044127D01*
X0219522Y0043329D02*
X0221435Y0043329D01*
X0221435Y0042530D02*
X0219522Y0042530D01*
X0222343Y0040280D02*
X0215780Y0040280D01*
X0212037Y0042530D02*
X0209016Y0042530D01*
X0208217Y0043329D02*
X0212037Y0043329D01*
X0212076Y0044127D02*
X0207419Y0044127D01*
X0206620Y0044926D02*
X0212424Y0044926D01*
X0211735Y0045724D02*
X0205821Y0045724D01*
X0205023Y0046523D02*
X0211419Y0046523D01*
X0211419Y0047321D02*
X0204224Y0047321D01*
X0203426Y0048120D02*
X0205739Y0048120D01*
X0205735Y0048121D02*
X0206091Y0048025D01*
X0207463Y0048025D01*
X0207463Y0050613D01*
X0204876Y0050613D01*
X0204876Y0049241D01*
X0204971Y0048885D01*
X0205155Y0048566D01*
X0205416Y0048305D01*
X0205735Y0048121D01*
X0204962Y0048918D02*
X0202800Y0048918D01*
X0202800Y0049717D02*
X0204876Y0049717D01*
X0204876Y0050515D02*
X0202800Y0050515D01*
X0202800Y0051314D02*
X0207463Y0051314D01*
X0207463Y0051387D02*
X0207463Y0050613D01*
X0208238Y0050613D01*
X0208238Y0051387D01*
X0210825Y0051387D01*
X0210825Y0052759D01*
X0210730Y0053115D01*
X0210545Y0053434D01*
X0210285Y0053695D01*
X0209966Y0053879D01*
X0209610Y0053975D01*
X0208238Y0053975D01*
X0208238Y0051387D01*
X0207463Y0051387D01*
X0204876Y0051387D01*
X0204876Y0052759D01*
X0204971Y0053115D01*
X0205155Y0053434D01*
X0205416Y0053695D01*
X0205735Y0053879D01*
X0206091Y0053975D01*
X0207463Y0053975D01*
X0207463Y0051387D01*
X0207850Y0051000D02*
X0204000Y0051000D01*
X0204876Y0052112D02*
X0202800Y0052112D01*
X0202800Y0052911D02*
X0204916Y0052911D01*
X0205440Y0053709D02*
X0202800Y0053709D01*
X0202800Y0054508D02*
X0222167Y0054508D01*
X0221631Y0053709D02*
X0216570Y0053709D01*
X0217124Y0052911D02*
X0221631Y0052911D01*
X0222966Y0055306D02*
X0202800Y0055306D01*
X0207463Y0053709D02*
X0208238Y0053709D01*
X0208238Y0052911D02*
X0207463Y0052911D01*
X0207463Y0052112D02*
X0208238Y0052112D01*
X0208238Y0051314D02*
X0211175Y0051314D01*
X0210825Y0050613D02*
X0208238Y0050613D01*
X0208238Y0048025D01*
X0209610Y0048025D01*
X0209966Y0048121D01*
X0210285Y0048305D01*
X0210545Y0048566D01*
X0210730Y0048885D01*
X0210825Y0049241D01*
X0210825Y0050613D01*
X0210825Y0050515D02*
X0211175Y0050515D01*
X0211175Y0049717D02*
X0210825Y0049717D01*
X0210739Y0048918D02*
X0211175Y0048918D01*
X0211670Y0048120D02*
X0209962Y0048120D01*
X0208238Y0048120D02*
X0207463Y0048120D01*
X0207463Y0048918D02*
X0208238Y0048918D01*
X0208238Y0049717D02*
X0207463Y0049717D01*
X0207463Y0050515D02*
X0208238Y0050515D01*
X0210825Y0052112D02*
X0211175Y0052112D01*
X0211175Y0052911D02*
X0210785Y0052911D01*
X0210260Y0053709D02*
X0211729Y0053709D01*
X0199932Y0046523D02*
X0199800Y0046523D01*
X0199800Y0045724D02*
X0200730Y0045724D01*
X0192631Y0053709D02*
X0192255Y0053709D01*
X0194000Y0058000D02*
X0194000Y0061000D01*
X0194000Y0066000D01*
X0199850Y0065687D02*
X0200200Y0065687D01*
X0200200Y0066485D02*
X0199850Y0066485D01*
X0199850Y0067284D02*
X0200200Y0067284D01*
X0200200Y0068082D02*
X0199850Y0068082D01*
X0206937Y0073672D02*
X0210200Y0073672D01*
X0219177Y0072873D02*
X0255258Y0072873D01*
X0255588Y0072075D02*
X0231471Y0072075D01*
X0232269Y0071276D02*
X0238731Y0071276D01*
X0237932Y0070478D02*
X0232800Y0070478D01*
X0234250Y0069679D02*
X0237134Y0069679D01*
X0236335Y0068881D02*
X0234850Y0068881D01*
X0234850Y0068082D02*
X0236200Y0068082D01*
X0229000Y0066000D02*
X0229000Y0060000D01*
X0232000Y0060000D01*
X0233000Y0059000D01*
X0233000Y0055150D01*
X0233387Y0051825D02*
X0233387Y0049238D01*
X0232613Y0049238D01*
X0232613Y0048463D01*
X0233387Y0048463D01*
X0233387Y0045876D01*
X0234759Y0045876D01*
X0235115Y0045971D01*
X0235434Y0046155D01*
X0235695Y0046416D01*
X0235879Y0046735D01*
X0235975Y0047091D01*
X0235975Y0048463D01*
X0233387Y0048463D01*
X0233387Y0049238D01*
X0235975Y0049238D01*
X0235975Y0050610D01*
X0235879Y0050966D01*
X0235695Y0051285D01*
X0235434Y0051545D01*
X0235115Y0051730D01*
X0234759Y0051825D01*
X0233387Y0051825D01*
X0233387Y0051314D02*
X0232613Y0051314D01*
X0232613Y0050515D02*
X0233387Y0050515D01*
X0233387Y0049717D02*
X0232613Y0049717D01*
X0232613Y0048918D02*
X0227258Y0048918D01*
X0226800Y0048120D02*
X0230025Y0048120D01*
X0230025Y0048463D02*
X0230025Y0047091D01*
X0230121Y0046735D01*
X0230305Y0046416D01*
X0230566Y0046155D01*
X0230885Y0045971D01*
X0231241Y0045876D01*
X0232613Y0045876D01*
X0232613Y0048463D01*
X0230025Y0048463D01*
X0230025Y0047321D02*
X0226800Y0047321D01*
X0226800Y0046523D02*
X0230243Y0046523D01*
X0229662Y0044926D02*
X0228565Y0044926D01*
X0228327Y0045724D02*
X0257106Y0045724D01*
X0256109Y0044926D02*
X0236338Y0044926D01*
X0236565Y0044127D02*
X0255548Y0044127D01*
X0255254Y0043329D02*
X0236565Y0043329D01*
X0233000Y0042740D02*
X0232803Y0042937D01*
X0232613Y0046523D02*
X0233387Y0046523D01*
X0233387Y0047321D02*
X0232613Y0047321D01*
X0232613Y0048120D02*
X0233387Y0048120D01*
X0233387Y0048918D02*
X0246432Y0048918D01*
X0245738Y0049717D02*
X0235975Y0049717D01*
X0235975Y0050515D02*
X0245419Y0050515D01*
X0245419Y0051314D02*
X0235666Y0051314D01*
X0235975Y0048120D02*
X0255821Y0048120D01*
X0255396Y0048918D02*
X0249568Y0048918D01*
X0250262Y0049717D02*
X0255181Y0049717D01*
X0255147Y0050663D02*
X0258518Y0050663D01*
X0258518Y0054034D01*
X0257808Y0053893D01*
X0257123Y0053610D01*
X0256507Y0053198D01*
X0255983Y0052674D01*
X0255571Y0052058D01*
X0255288Y0051373D01*
X0255147Y0050663D01*
X0255276Y0051314D02*
X0250581Y0051314D01*
X0250581Y0050515D02*
X0258518Y0050515D01*
X0259293Y0050515D02*
X0263017Y0050515D01*
X0263017Y0049717D02*
X0262630Y0049717D01*
X0262415Y0048918D02*
X0263270Y0048918D01*
X0263615Y0048120D02*
X0261990Y0048120D01*
X0261256Y0047321D02*
X0264413Y0047321D01*
X0259293Y0047321D02*
X0258518Y0047321D01*
X0258518Y0048120D02*
X0259293Y0048120D01*
X0259293Y0048918D02*
X0258518Y0048918D01*
X0258518Y0049717D02*
X0259293Y0049717D01*
X0259293Y0051314D02*
X0258518Y0051314D01*
X0258518Y0052112D02*
X0259293Y0052112D01*
X0259293Y0052911D02*
X0258518Y0052911D01*
X0258518Y0053709D02*
X0259293Y0053709D01*
X0259944Y0054508D02*
X0265741Y0054508D01*
X0265238Y0053709D02*
X0260447Y0053709D01*
X0261591Y0052911D02*
X0264094Y0052911D01*
X0263468Y0052112D02*
X0262203Y0052112D01*
X0262535Y0051314D02*
X0263137Y0051314D01*
X0257364Y0053709D02*
X0249800Y0053709D01*
X0249800Y0052911D02*
X0256220Y0052911D01*
X0255608Y0052112D02*
X0250333Y0052112D01*
X0248000Y0051000D02*
X0248000Y0056000D01*
X0250244Y0058244D01*
X0259244Y0058244D01*
X0259000Y0058000D01*
X0258906Y0058150D01*
X0262461Y0056903D02*
X0263224Y0056903D01*
X0263017Y0057702D02*
X0262668Y0057702D01*
X0262668Y0058500D02*
X0263017Y0058500D01*
X0263183Y0059299D02*
X0262502Y0059299D01*
X0262171Y0060097D02*
X0263514Y0060097D01*
X0264205Y0060896D02*
X0261480Y0060896D01*
X0268087Y0062493D02*
X0274254Y0062493D01*
X0274254Y0063291D02*
X0269368Y0063291D01*
X0270051Y0064090D02*
X0274254Y0064090D01*
X0274254Y0064888D02*
X0270381Y0064888D01*
X0270542Y0065687D02*
X0274254Y0065687D01*
X0274254Y0066485D02*
X0271031Y0066485D01*
X0271829Y0067284D02*
X0274254Y0067284D01*
X0274254Y0068082D02*
X0272628Y0068082D01*
X0273426Y0068881D02*
X0274254Y0068881D01*
X0274254Y0069679D02*
X0273800Y0069679D01*
X0273800Y0070478D02*
X0274254Y0070478D01*
X0274254Y0071276D02*
X0273800Y0071276D01*
X0273800Y0072075D02*
X0274254Y0072075D01*
X0274254Y0072873D02*
X0273800Y0072873D01*
X0273800Y0073672D02*
X0274254Y0073672D01*
X0274254Y0074470D02*
X0273800Y0074470D01*
X0273800Y0075269D02*
X0274254Y0075269D01*
X0274254Y0076068D02*
X0273800Y0076068D01*
X0273800Y0076866D02*
X0274254Y0076866D01*
X0274254Y0077665D02*
X0273800Y0077665D01*
X0273800Y0078463D02*
X0274254Y0078463D01*
X0274254Y0079262D02*
X0273800Y0079262D01*
X0273486Y0080060D02*
X0274254Y0080060D01*
X0274254Y0080859D02*
X0272687Y0080859D01*
X0271888Y0081657D02*
X0274254Y0081657D01*
X0274254Y0082456D02*
X0271090Y0082456D01*
X0270291Y0083254D02*
X0274254Y0083254D01*
X0274254Y0084053D02*
X0234850Y0084053D01*
X0234850Y0084851D02*
X0274254Y0084851D01*
X0274254Y0085650D02*
X0234280Y0085650D01*
X0235499Y0086448D02*
X0274254Y0086448D01*
X0274254Y0087247D02*
X0236297Y0087247D01*
X0239695Y0088045D02*
X0274254Y0088045D01*
X0274254Y0088844D02*
X0240315Y0088844D01*
X0240581Y0089642D02*
X0274254Y0089642D01*
X0274254Y0090441D02*
X0240581Y0090441D01*
X0240280Y0091239D02*
X0274254Y0091239D01*
X0274254Y0092038D02*
X0239612Y0092038D01*
X0238000Y0090000D02*
X0232937Y0090000D01*
X0236305Y0092038D02*
X0236388Y0092038D01*
X0236215Y0092836D02*
X0274254Y0092836D01*
X0268394Y0080060D02*
X0234850Y0080060D01*
X0234850Y0079262D02*
X0269193Y0079262D01*
X0269991Y0078463D02*
X0234700Y0078463D01*
X0234700Y0077665D02*
X0270200Y0077665D01*
X0270200Y0076866D02*
X0269132Y0076866D01*
X0269930Y0076068D02*
X0270200Y0076068D01*
X0264427Y0076866D02*
X0261258Y0076866D01*
X0262056Y0076068D02*
X0263629Y0076068D01*
X0263275Y0075269D02*
X0262410Y0075269D01*
X0262668Y0074470D02*
X0263017Y0074470D01*
X0263017Y0073672D02*
X0262668Y0073672D01*
X0262553Y0072873D02*
X0263132Y0072873D01*
X0262411Y0072075D02*
X0262223Y0072075D01*
X0265107Y0069679D02*
X0265774Y0069679D01*
X0264316Y0068881D02*
X0264308Y0068881D01*
X0266780Y0066024D02*
X0268024Y0066024D01*
X0272000Y0070000D01*
X0256553Y0076866D02*
X0234412Y0076866D01*
X0233613Y0076068D02*
X0255755Y0076068D01*
X0255401Y0075269D02*
X0232815Y0075269D01*
X0223150Y0068881D02*
X0220426Y0068881D01*
X0220432Y0068082D02*
X0219305Y0068082D01*
X0219305Y0067284D02*
X0219738Y0067284D01*
X0219419Y0066485D02*
X0218536Y0066485D01*
X0222000Y0066000D02*
X0225000Y0066000D01*
X0225000Y0065900D01*
X0225100Y0066000D01*
X0227000Y0066000D02*
X0227000Y0063000D01*
X0226000Y0062000D01*
X0230196Y0057702D02*
X0230423Y0057702D01*
X0230025Y0050515D02*
X0228368Y0050515D01*
X0228057Y0049717D02*
X0230025Y0049717D01*
X0235975Y0047321D02*
X0256555Y0047321D01*
X0258489Y0046523D02*
X0235757Y0046523D01*
X0225000Y0042937D02*
X0222343Y0040280D01*
X0221800Y0032149D02*
X0204695Y0032149D01*
X0203896Y0031351D02*
X0231137Y0031351D01*
X0231137Y0032149D02*
X0228200Y0032149D01*
X0228565Y0032948D02*
X0229789Y0032948D01*
X0234737Y0032149D02*
X0255970Y0032149D01*
X0255488Y0032948D02*
X0236211Y0032948D01*
X0236565Y0033746D02*
X0255225Y0033746D01*
X0260923Y0031351D02*
X0264636Y0031351D01*
X0263837Y0032149D02*
X0261841Y0032149D01*
X0262323Y0032948D02*
X0263362Y0032948D01*
X0263031Y0033746D02*
X0262586Y0033746D01*
X0274254Y0029754D02*
X0236297Y0029754D01*
X0236305Y0028955D02*
X0274254Y0028955D01*
X0274254Y0028157D02*
X0236305Y0028157D01*
X0236305Y0027358D02*
X0274254Y0027358D01*
X0274254Y0026560D02*
X0236305Y0026560D01*
X0236305Y0025761D02*
X0274254Y0025761D01*
X0274254Y0024963D02*
X0236305Y0024963D01*
X0236215Y0024164D02*
X0274254Y0024164D01*
X0274254Y0023366D02*
X0219911Y0023366D01*
X0220710Y0024164D02*
X0221785Y0024164D01*
X0221694Y0024963D02*
X0221508Y0024963D01*
X0218813Y0027358D02*
X0218380Y0027358D01*
X0217581Y0028157D02*
X0219611Y0028157D01*
X0221694Y0028955D02*
X0216054Y0028955D01*
X0213946Y0028955D02*
X0207095Y0028955D01*
X0207305Y0028157D02*
X0212419Y0028157D01*
X0211620Y0027358D02*
X0207305Y0027358D01*
X0205000Y0025000D02*
X0204000Y0026000D01*
X0203937Y0026000D01*
X0203150Y0025213D01*
X0203150Y0019000D01*
X0200175Y0019373D02*
X0199825Y0019373D01*
X0199825Y0018575D02*
X0200175Y0018575D01*
X0200175Y0017776D02*
X0199825Y0017776D01*
X0199825Y0016978D02*
X0200175Y0016978D01*
X0200841Y0016179D02*
X0199159Y0016179D01*
X0194835Y0015381D02*
X0171165Y0015381D01*
X0170366Y0016179D02*
X0194542Y0016179D01*
X0193876Y0016978D02*
X0169568Y0016978D01*
X0168800Y0017776D02*
X0177960Y0017776D01*
X0177482Y0018575D02*
X0175380Y0018575D01*
X0176559Y0019373D02*
X0177482Y0019373D01*
X0173753Y0018575D02*
X0168800Y0018575D01*
X0168800Y0019373D02*
X0172575Y0019373D01*
X0172129Y0020172D02*
X0168800Y0020172D01*
X0168800Y0020970D02*
X0171986Y0020970D01*
X0172079Y0021769D02*
X0168800Y0021769D01*
X0168800Y0022567D02*
X0172452Y0022567D01*
X0173458Y0023366D02*
X0168800Y0023366D01*
X0168800Y0024164D02*
X0177901Y0024164D01*
X0178063Y0024963D02*
X0168800Y0024963D01*
X0168800Y0025761D02*
X0177188Y0025761D01*
X0176694Y0026560D02*
X0168800Y0026560D01*
X0168800Y0027358D02*
X0176694Y0027358D01*
X0176694Y0028157D02*
X0168800Y0028157D01*
X0168800Y0028955D02*
X0176694Y0028955D01*
X0176694Y0029754D02*
X0168800Y0029754D01*
X0168800Y0030552D02*
X0176694Y0030552D01*
X0176694Y0031351D02*
X0168800Y0031351D01*
X0168800Y0032149D02*
X0177099Y0032149D01*
X0165200Y0032149D02*
X0148476Y0032149D01*
X0148482Y0032143D02*
X0148222Y0032404D01*
X0147903Y0032588D01*
X0147547Y0032683D01*
X0145387Y0032683D01*
X0145387Y0029309D01*
X0144613Y0029309D01*
X0144613Y0032683D01*
X0142453Y0032683D01*
X0142097Y0032588D01*
X0141778Y0032404D01*
X0141518Y0032143D01*
X0141333Y0031824D01*
X0141238Y0031468D01*
X0141238Y0029309D01*
X0144613Y0029309D01*
X0144613Y0028534D01*
X0145387Y0028534D01*
X0145387Y0025159D01*
X0147547Y0025159D01*
X0147903Y0025254D01*
X0148222Y0025439D01*
X0148482Y0025699D01*
X0148667Y0026019D01*
X0148762Y0026375D01*
X0148762Y0028534D01*
X0145387Y0028534D01*
X0145387Y0029309D01*
X0148762Y0029309D01*
X0148762Y0031468D01*
X0148667Y0031824D01*
X0148482Y0032143D01*
X0148762Y0031351D02*
X0165200Y0031351D01*
X0165200Y0030552D02*
X0148762Y0030552D01*
X0148762Y0029754D02*
X0165200Y0029754D01*
X0165200Y0028955D02*
X0145387Y0028955D01*
X0144613Y0028955D02*
X0125565Y0028955D01*
X0125565Y0029754D02*
X0141238Y0029754D01*
X0141238Y0030552D02*
X0125565Y0030552D01*
X0125565Y0031351D02*
X0141238Y0031351D01*
X0141524Y0032149D02*
X0125565Y0032149D01*
X0125565Y0032948D02*
X0164507Y0032948D01*
X0163708Y0033746D02*
X0125304Y0033746D01*
X0123800Y0034545D02*
X0162909Y0034545D01*
X0165200Y0028157D02*
X0148762Y0028157D01*
X0148762Y0027358D02*
X0165200Y0027358D01*
X0165200Y0026560D02*
X0148762Y0026560D01*
X0148518Y0025761D02*
X0165200Y0025761D01*
X0165200Y0024963D02*
X0135714Y0024963D01*
X0135473Y0025204D02*
X0134517Y0025600D01*
X0129885Y0025600D01*
X0129797Y0025689D01*
X0128631Y0026172D01*
X0127369Y0026172D01*
X0126203Y0025689D01*
X0126134Y0025620D01*
X0125551Y0025626D01*
X0124745Y0026431D01*
X0119255Y0026431D01*
X0118435Y0025611D01*
X0118435Y0020515D01*
X0119255Y0019694D01*
X0124745Y0019694D01*
X0125477Y0020426D01*
X0126095Y0020420D01*
X0126203Y0020311D01*
X0127369Y0019828D01*
X0128631Y0019828D01*
X0129797Y0020311D01*
X0129885Y0020400D01*
X0132923Y0020400D01*
X0135796Y0017527D01*
X0136527Y0016796D01*
X0137483Y0016400D01*
X0142358Y0016400D01*
X0142869Y0015889D01*
X0144252Y0015317D01*
X0145748Y0015317D01*
X0147131Y0015889D01*
X0148189Y0016948D01*
X0148762Y0018330D01*
X0148762Y0019827D01*
X0148189Y0021210D01*
X0147131Y0022268D01*
X0145748Y0022841D01*
X0144252Y0022841D01*
X0142869Y0022268D01*
X0142201Y0021600D01*
X0139077Y0021600D01*
X0135473Y0025204D01*
X0136513Y0024164D02*
X0165200Y0024164D01*
X0165200Y0023366D02*
X0137311Y0023366D01*
X0138110Y0022567D02*
X0143591Y0022567D01*
X0142369Y0021769D02*
X0138908Y0021769D01*
X0134748Y0018575D02*
X0104971Y0018575D01*
X0104172Y0019373D02*
X0133950Y0019373D01*
X0133151Y0020172D02*
X0129460Y0020172D01*
X0126540Y0020172D02*
X0125222Y0020172D01*
X0118778Y0020172D02*
X0109222Y0020172D01*
X0109286Y0020235D02*
X0109025Y0019974D01*
X0108706Y0019790D01*
X0108350Y0019694D01*
X0106400Y0019694D01*
X0106400Y0022663D01*
X0106400Y0023463D01*
X0105600Y0023463D01*
X0105600Y0026431D01*
X0103650Y0026431D01*
X0103294Y0026336D01*
X0102975Y0026152D01*
X0102714Y0025891D01*
X0102530Y0025572D01*
X0102435Y0025216D01*
X0102435Y0023463D01*
X0105600Y0023463D01*
X0105600Y0022663D01*
X0102435Y0022663D01*
X0102435Y0020910D01*
X0102530Y0020554D01*
X0102714Y0020235D01*
X0102975Y0019974D01*
X0103277Y0019800D01*
X0100746Y0019800D01*
X0098851Y0021694D01*
X0099745Y0021694D01*
X0100565Y0022515D01*
X0100565Y0027611D01*
X0099745Y0028431D01*
X0094255Y0028431D01*
X0093435Y0027611D01*
X0093435Y0022515D01*
X0094255Y0021694D01*
X0095200Y0021694D01*
X0095200Y0020254D01*
X0098200Y0017254D01*
X0099254Y0016200D01*
X0102254Y0016200D01*
X0104419Y0014036D01*
X0104419Y0013487D01*
X0104812Y0012538D01*
X0105538Y0011812D01*
X0106487Y0011419D01*
X0107513Y0011419D01*
X0108462Y0011812D01*
X0109188Y0012538D01*
X0109581Y0013487D01*
X0109581Y0014513D01*
X0109188Y0015462D01*
X0108462Y0016188D01*
X0107513Y0016581D01*
X0106964Y0016581D01*
X0103851Y0019694D01*
X0105600Y0019694D01*
X0105600Y0022663D01*
X0106400Y0022663D01*
X0109565Y0022663D01*
X0109565Y0020910D01*
X0109470Y0020554D01*
X0109286Y0020235D01*
X0109565Y0020970D02*
X0118435Y0020970D01*
X0118435Y0021769D02*
X0109565Y0021769D01*
X0109565Y0022567D02*
X0111218Y0022567D01*
X0111305Y0022416D02*
X0111566Y0022155D01*
X0111885Y0021971D01*
X0112241Y0021876D01*
X0113613Y0021876D01*
X0113613Y0024463D01*
X0114387Y0024463D01*
X0114387Y0021876D01*
X0115759Y0021876D01*
X0116115Y0021971D01*
X0116434Y0022155D01*
X0116695Y0022416D01*
X0116879Y0022735D01*
X0116975Y0023091D01*
X0116975Y0024463D01*
X0114387Y0024463D01*
X0114387Y0025238D01*
X0113613Y0025238D01*
X0113613Y0027825D01*
X0112241Y0027825D01*
X0111885Y0027730D01*
X0111566Y0027545D01*
X0111305Y0027285D01*
X0111121Y0026966D01*
X0111025Y0026610D01*
X0111025Y0025238D01*
X0113613Y0025238D01*
X0113613Y0024463D01*
X0111025Y0024463D01*
X0111025Y0023091D01*
X0111121Y0022735D01*
X0111305Y0022416D01*
X0111025Y0023366D02*
X0106400Y0023366D01*
X0106400Y0023463D02*
X0109565Y0023463D01*
X0109565Y0025216D01*
X0109470Y0025572D01*
X0109286Y0025891D01*
X0109025Y0026152D01*
X0108706Y0026336D01*
X0108350Y0026431D01*
X0106400Y0026431D01*
X0106400Y0023463D01*
X0106400Y0024164D02*
X0105600Y0024164D01*
X0105600Y0023366D02*
X0100565Y0023366D01*
X0100565Y0024164D02*
X0102435Y0024164D01*
X0102435Y0024963D02*
X0100565Y0024963D01*
X0100565Y0025761D02*
X0102639Y0025761D01*
X0100565Y0026560D02*
X0111025Y0026560D01*
X0111025Y0025761D02*
X0109361Y0025761D01*
X0109565Y0024963D02*
X0113613Y0024963D01*
X0114387Y0024963D02*
X0118435Y0024963D01*
X0118435Y0024164D02*
X0116975Y0024164D01*
X0116975Y0023366D02*
X0118435Y0023366D01*
X0118435Y0022567D02*
X0116782Y0022567D01*
X0114387Y0022567D02*
X0113613Y0022567D01*
X0113613Y0023366D02*
X0114387Y0023366D01*
X0114387Y0024164D02*
X0113613Y0024164D01*
X0114387Y0025238D02*
X0116975Y0025238D01*
X0116975Y0026610D01*
X0116879Y0026966D01*
X0116695Y0027285D01*
X0116434Y0027545D01*
X0116115Y0027730D01*
X0115759Y0027825D01*
X0114387Y0027825D01*
X0114387Y0025238D01*
X0114387Y0025761D02*
X0113613Y0025761D01*
X0113613Y0026560D02*
X0114387Y0026560D01*
X0114387Y0027358D02*
X0113613Y0027358D01*
X0111378Y0027358D02*
X0100565Y0027358D01*
X0100020Y0028157D02*
X0102666Y0028157D01*
X0102435Y0028955D02*
X0078501Y0028955D01*
X0078800Y0029754D02*
X0085069Y0029754D01*
X0084435Y0030552D02*
X0081713Y0030552D01*
X0081004Y0028157D02*
X0084980Y0028157D01*
X0084435Y0027358D02*
X0081746Y0027358D01*
X0082740Y0025260D02*
X0079559Y0025260D01*
X0077000Y0025260D02*
X0077000Y0022285D01*
X0077000Y0025260D01*
X0077000Y0025260D01*
X0077000Y0024963D02*
X0077000Y0024963D01*
X0077000Y0024164D02*
X0077000Y0024164D01*
X0077000Y0023366D02*
X0077000Y0023366D01*
X0077000Y0022567D02*
X0077000Y0022567D01*
X0072200Y0022567D02*
X0054113Y0022567D01*
X0053655Y0021769D02*
X0053314Y0021769D01*
X0053175Y0020970D02*
X0052516Y0020970D01*
X0053175Y0020172D02*
X0051717Y0020172D01*
X0050919Y0019373D02*
X0053175Y0019373D01*
X0053175Y0018575D02*
X0050120Y0018575D01*
X0048000Y0019000D02*
X0048000Y0016000D01*
X0049000Y0015331D01*
X0048669Y0015000D01*
X0039000Y0015000D01*
X0031000Y0023000D01*
X0021000Y0033000D01*
X0018000Y0039000D02*
X0018260Y0039260D01*
X0018260Y0045000D01*
X0021038Y0044127D02*
X0022962Y0044127D01*
X0022962Y0043329D02*
X0021038Y0043329D01*
X0021038Y0042530D02*
X0022962Y0042530D01*
X0023485Y0041732D02*
X0020515Y0041732D01*
X0024373Y0048918D02*
X0013540Y0048918D01*
X0024767Y0049717D02*
X0025171Y0049717D01*
X0038000Y0045000D02*
X0040000Y0045000D01*
X0040220Y0045220D01*
X0041161Y0045220D01*
X0043720Y0045220D02*
X0043720Y0041720D01*
X0041000Y0039000D01*
X0041000Y0035937D01*
X0041323Y0035937D01*
X0049000Y0028260D01*
X0052565Y0028157D02*
X0053435Y0028157D01*
X0053435Y0028955D02*
X0052565Y0028955D01*
X0052565Y0029754D02*
X0053435Y0029754D01*
X0053435Y0030552D02*
X0052231Y0030552D01*
X0054174Y0031351D02*
X0048455Y0031351D01*
X0047656Y0032149D02*
X0064025Y0032149D01*
X0064025Y0031351D02*
X0059826Y0031351D01*
X0060565Y0030552D02*
X0064025Y0030552D01*
X0064266Y0029754D02*
X0060565Y0029754D01*
X0060565Y0028955D02*
X0073410Y0028955D01*
X0072641Y0028157D02*
X0069769Y0028157D01*
X0069695Y0028285D02*
X0069434Y0028545D01*
X0069115Y0028730D01*
X0068759Y0028825D01*
X0067387Y0028825D01*
X0067387Y0026238D01*
X0066613Y0026238D01*
X0066613Y0028825D01*
X0065241Y0028825D01*
X0064885Y0028730D01*
X0064566Y0028545D01*
X0064305Y0028285D01*
X0064121Y0027966D01*
X0064025Y0027610D01*
X0064025Y0026238D01*
X0066613Y0026238D01*
X0066613Y0025463D01*
X0067387Y0025463D01*
X0067387Y0022876D01*
X0068759Y0022876D01*
X0069115Y0022971D01*
X0069434Y0023155D01*
X0069695Y0023416D01*
X0069879Y0023735D01*
X0069975Y0024091D01*
X0069975Y0025463D01*
X0067387Y0025463D01*
X0067387Y0026238D01*
X0069975Y0026238D01*
X0069975Y0027610D01*
X0069879Y0027966D01*
X0069695Y0028285D01*
X0069975Y0027358D02*
X0072254Y0027358D01*
X0072254Y0026560D02*
X0069975Y0026560D01*
X0072254Y0025761D02*
X0067387Y0025761D01*
X0066613Y0025761D02*
X0060565Y0025761D01*
X0060565Y0026560D02*
X0064025Y0026560D01*
X0064025Y0027358D02*
X0060565Y0027358D01*
X0060565Y0028157D02*
X0064231Y0028157D01*
X0066613Y0028157D02*
X0067387Y0028157D01*
X0067387Y0027358D02*
X0066613Y0027358D01*
X0066613Y0026560D02*
X0067387Y0026560D01*
X0066613Y0025463D02*
X0064025Y0025463D01*
X0064025Y0024091D01*
X0064121Y0023735D01*
X0064305Y0023416D01*
X0064566Y0023155D01*
X0064885Y0022971D01*
X0065241Y0022876D01*
X0066613Y0022876D01*
X0066613Y0025463D01*
X0066613Y0024963D02*
X0067387Y0024963D01*
X0067387Y0024164D02*
X0066613Y0024164D01*
X0066613Y0023366D02*
X0067387Y0023366D01*
X0069645Y0023366D02*
X0072254Y0023366D01*
X0072254Y0024164D02*
X0069975Y0024164D01*
X0069975Y0024963D02*
X0072254Y0024963D01*
X0072119Y0021769D02*
X0061006Y0021769D01*
X0061487Y0020970D02*
X0062320Y0020970D01*
X0064355Y0023366D02*
X0054911Y0023366D01*
X0055710Y0024164D02*
X0064025Y0024164D01*
X0064025Y0024963D02*
X0060014Y0024963D01*
X0057000Y0028063D02*
X0056063Y0027063D01*
X0048000Y0019000D01*
X0046626Y0020172D02*
X0036374Y0020172D01*
X0035575Y0020970D02*
X0047425Y0020970D01*
X0048223Y0021769D02*
X0034777Y0021769D01*
X0034762Y0022567D02*
X0049022Y0022567D01*
X0049820Y0023366D02*
X0034762Y0023366D01*
X0037172Y0019373D02*
X0046200Y0019373D01*
X0046200Y0018575D02*
X0037971Y0018575D01*
X0038769Y0017776D02*
X0044741Y0017776D01*
X0044513Y0016978D02*
X0039568Y0016978D01*
X0036872Y0014582D02*
X0007337Y0014582D01*
X0007337Y0013784D02*
X0037671Y0013784D01*
X0039536Y0012187D02*
X0007337Y0012187D01*
X0007337Y0012985D02*
X0044513Y0012985D01*
X0044778Y0012187D02*
X0042464Y0012187D01*
X0043219Y0011388D02*
X0053175Y0011388D01*
X0053175Y0010590D02*
X0043550Y0010590D01*
X0041000Y0010000D02*
X0043000Y0008000D01*
X0054000Y0008000D01*
X0057260Y0011260D01*
X0057331Y0011260D01*
X0057331Y0018740D01*
X0060740Y0018740D01*
X0061000Y0019000D01*
X0064000Y0019000D01*
X0062372Y0016978D02*
X0061523Y0016978D01*
X0061474Y0016179D02*
X0068128Y0016179D01*
X0067703Y0015381D02*
X0060676Y0015381D01*
X0060713Y0014582D02*
X0067694Y0014582D01*
X0067694Y0013784D02*
X0061487Y0013784D01*
X0053949Y0014582D02*
X0052825Y0014582D01*
X0052825Y0013784D02*
X0053175Y0013784D01*
X0053175Y0012985D02*
X0052825Y0012985D01*
X0052560Y0012187D02*
X0053175Y0012187D01*
X0052825Y0015381D02*
X0053986Y0015381D01*
X0053187Y0016179D02*
X0052825Y0016179D01*
X0052825Y0016978D02*
X0053175Y0016978D01*
X0053175Y0017776D02*
X0052597Y0017776D01*
X0038781Y0011388D02*
X0007337Y0011388D01*
X0007337Y0010590D02*
X0038450Y0010590D01*
X0038419Y0009791D02*
X0007337Y0009791D01*
X0007337Y0008993D02*
X0038624Y0008993D01*
X0039156Y0008194D02*
X0007337Y0008194D01*
X0007337Y0007396D02*
X0041059Y0007396D01*
X0055941Y0007396D02*
X0274254Y0007396D01*
X0274254Y0008194D02*
X0060969Y0008194D01*
X0070663Y0009791D02*
X0071463Y0009791D01*
X0071463Y0010590D02*
X0070663Y0010590D01*
X0070663Y0011388D02*
X0071463Y0011388D01*
X0071463Y0013784D02*
X0070663Y0013784D01*
X0070663Y0014582D02*
X0071463Y0014582D01*
X0071463Y0015381D02*
X0070663Y0015381D01*
X0070663Y0016179D02*
X0071463Y0016179D01*
X0073998Y0016179D02*
X0076002Y0016179D01*
X0075569Y0015381D02*
X0074423Y0015381D01*
X0074431Y0014582D02*
X0075569Y0014582D01*
X0075569Y0013784D02*
X0074431Y0013784D01*
X0074431Y0012187D02*
X0075569Y0012187D01*
X0075569Y0011388D02*
X0074431Y0011388D01*
X0074415Y0010590D02*
X0075569Y0010590D01*
X0076032Y0009791D02*
X0073968Y0009791D01*
X0081842Y0009791D02*
X0084158Y0009791D01*
X0083694Y0010590D02*
X0082305Y0010590D01*
X0089968Y0009791D02*
X0092032Y0009791D01*
X0091569Y0010590D02*
X0090431Y0010590D01*
X0090431Y0011388D02*
X0091569Y0011388D01*
X0091569Y0012187D02*
X0090431Y0012187D01*
X0090431Y0012985D02*
X0091569Y0012985D01*
X0091569Y0013784D02*
X0090431Y0013784D01*
X0090431Y0014582D02*
X0091569Y0014582D01*
X0091569Y0015381D02*
X0090431Y0015381D01*
X0089998Y0016179D02*
X0092002Y0016179D01*
X0089322Y0017776D02*
X0097678Y0017776D01*
X0096880Y0018575D02*
X0089800Y0018575D01*
X0089800Y0019373D02*
X0096081Y0019373D01*
X0095283Y0020172D02*
X0089800Y0020172D01*
X0089800Y0020970D02*
X0095200Y0020970D01*
X0094180Y0021769D02*
X0090820Y0021769D01*
X0091565Y0022567D02*
X0093435Y0022567D01*
X0093435Y0023366D02*
X0091565Y0023366D01*
X0091565Y0024164D02*
X0093435Y0024164D01*
X0093435Y0024963D02*
X0091565Y0024963D01*
X0091565Y0025761D02*
X0093435Y0025761D01*
X0093435Y0026560D02*
X0091565Y0026560D01*
X0091565Y0027358D02*
X0093435Y0027358D01*
X0093980Y0028157D02*
X0091020Y0028157D01*
X0090931Y0029754D02*
X0094069Y0029754D01*
X0093435Y0030552D02*
X0091565Y0030552D01*
X0088000Y0032937D02*
X0097000Y0032937D01*
X0100565Y0032948D02*
X0102435Y0032948D01*
X0102435Y0032149D02*
X0100565Y0032149D01*
X0100565Y0031351D02*
X0102435Y0031351D01*
X0102435Y0030552D02*
X0100565Y0030552D01*
X0099931Y0029754D02*
X0102435Y0029754D01*
X0106000Y0030937D02*
X0106000Y0035000D01*
X0107000Y0036000D01*
X0107000Y0040000D01*
X0106780Y0040220D01*
X0105000Y0042000D01*
X0101937Y0042000D01*
X0100063Y0042000D01*
X0098263Y0041732D02*
X0097431Y0041732D01*
X0097431Y0042530D02*
X0098263Y0042530D01*
X0098569Y0043329D02*
X0097431Y0043329D01*
X0097431Y0044127D02*
X0098569Y0044127D01*
X0098749Y0044926D02*
X0097251Y0044926D01*
X0102270Y0045724D02*
X0125300Y0045724D01*
X0125305Y0045715D02*
X0125566Y0045455D01*
X0125885Y0045270D01*
X0126241Y0045175D01*
X0127613Y0045175D01*
X0127613Y0047762D01*
X0128387Y0047762D01*
X0128387Y0045175D01*
X0129759Y0045175D01*
X0130115Y0045270D01*
X0130434Y0045455D01*
X0130695Y0045715D01*
X0130879Y0046034D01*
X0130975Y0046390D01*
X0130975Y0047762D01*
X0128387Y0047762D01*
X0128387Y0048537D01*
X0127613Y0048537D01*
X0127613Y0051124D01*
X0126241Y0051124D01*
X0125885Y0051029D01*
X0125566Y0050845D01*
X0125305Y0050584D01*
X0125121Y0050265D01*
X0125025Y0049909D01*
X0125025Y0048537D01*
X0127613Y0048537D01*
X0127613Y0047762D01*
X0125025Y0047762D01*
X0125025Y0046390D01*
X0125121Y0046034D01*
X0125305Y0045715D01*
X0125025Y0046523D02*
X0103068Y0046523D01*
X0103800Y0047321D02*
X0125025Y0047321D01*
X0127613Y0047321D02*
X0128387Y0047321D01*
X0128387Y0046523D02*
X0127613Y0046523D01*
X0127613Y0045724D02*
X0128387Y0045724D01*
X0130700Y0045724D02*
X0131200Y0045724D01*
X0131200Y0044926D02*
X0105125Y0044926D01*
X0105305Y0044127D02*
X0121477Y0044127D01*
X0120757Y0043329D02*
X0120722Y0043329D01*
X0123000Y0042000D02*
X0121220Y0040220D01*
X0118839Y0040220D01*
X0116280Y0040220D02*
X0116280Y0036280D01*
X0116000Y0036000D01*
X0114000Y0036000D01*
X0113720Y0036280D01*
X0113720Y0040220D01*
X0111161Y0040220D02*
X0106780Y0040220D01*
X0105200Y0038537D02*
X0104588Y0038537D01*
X0105200Y0037739D02*
X0079800Y0037739D01*
X0079800Y0038537D02*
X0091412Y0038537D01*
X0090694Y0039336D02*
X0081387Y0039336D01*
X0081565Y0040134D02*
X0087215Y0040134D01*
X0086648Y0040933D02*
X0081565Y0040933D01*
X0081565Y0041732D02*
X0086419Y0041732D01*
X0086426Y0042530D02*
X0081565Y0042530D01*
X0081565Y0043329D02*
X0086757Y0043329D01*
X0087477Y0044127D02*
X0081565Y0044127D01*
X0081251Y0044926D02*
X0090875Y0044926D01*
X0090694Y0044127D02*
X0090523Y0044127D01*
X0097431Y0040933D02*
X0098569Y0040933D01*
X0098569Y0040134D02*
X0097431Y0040134D01*
X0097431Y0039336D02*
X0098569Y0039336D01*
X0099286Y0038537D02*
X0096714Y0038537D01*
X0094091Y0036142D02*
X0090909Y0036142D01*
X0091565Y0035343D02*
X0093435Y0035343D01*
X0088000Y0032937D02*
X0087937Y0033000D01*
X0083000Y0033000D01*
X0082740Y0032740D01*
X0079559Y0032740D01*
X0081746Y0034545D02*
X0081999Y0034545D01*
X0081298Y0035343D02*
X0084435Y0035343D01*
X0085091Y0036142D02*
X0078800Y0036142D01*
X0079486Y0036940D02*
X0105200Y0036940D01*
X0104596Y0036142D02*
X0099909Y0036142D01*
X0100565Y0035343D02*
X0104200Y0035343D01*
X0104200Y0034545D02*
X0100565Y0034545D01*
X0100565Y0033746D02*
X0102696Y0033746D01*
X0106000Y0030937D02*
X0109937Y0030937D01*
X0110000Y0031000D01*
X0113850Y0031000D01*
X0114000Y0031150D01*
X0116975Y0031351D02*
X0118435Y0031351D01*
X0118435Y0032149D02*
X0116975Y0032149D01*
X0116975Y0032948D02*
X0118435Y0032948D01*
X0118696Y0033746D02*
X0116533Y0033746D01*
X0116000Y0036000D02*
X0121000Y0036000D01*
X0122000Y0035000D01*
X0122000Y0030937D01*
X0118435Y0030552D02*
X0116975Y0030552D01*
X0116975Y0029754D02*
X0118435Y0029754D01*
X0118435Y0028955D02*
X0116935Y0028955D01*
X0116622Y0027358D02*
X0141238Y0027358D01*
X0141238Y0026560D02*
X0116975Y0026560D01*
X0116975Y0025761D02*
X0118585Y0025761D01*
X0118666Y0028157D02*
X0109334Y0028157D01*
X0109565Y0028955D02*
X0111065Y0028955D01*
X0106400Y0025761D02*
X0105600Y0025761D01*
X0105600Y0024963D02*
X0106400Y0024963D01*
X0106400Y0022567D02*
X0105600Y0022567D01*
X0105600Y0021769D02*
X0106400Y0021769D01*
X0106400Y0020970D02*
X0105600Y0020970D01*
X0105600Y0020172D02*
X0106400Y0020172D01*
X0102778Y0020172D02*
X0100374Y0020172D01*
X0099575Y0020970D02*
X0102435Y0020970D01*
X0102435Y0021769D02*
X0099820Y0021769D01*
X0100565Y0022567D02*
X0102435Y0022567D01*
X0100000Y0018000D02*
X0097000Y0021000D01*
X0097000Y0025063D01*
X0100000Y0018000D02*
X0103000Y0018000D01*
X0107000Y0014000D01*
X0109373Y0012985D02*
X0168469Y0012985D01*
X0167671Y0013784D02*
X0109581Y0013784D01*
X0109553Y0014582D02*
X0166872Y0014582D01*
X0166074Y0015381D02*
X0145903Y0015381D01*
X0147421Y0016179D02*
X0165275Y0016179D01*
X0165200Y0016978D02*
X0148202Y0016978D01*
X0148533Y0017776D02*
X0165200Y0017776D01*
X0165200Y0018575D02*
X0148762Y0018575D01*
X0148762Y0019373D02*
X0165200Y0019373D01*
X0165200Y0020172D02*
X0148619Y0020172D01*
X0148289Y0020970D02*
X0165200Y0020970D01*
X0165200Y0021769D02*
X0147631Y0021769D01*
X0146409Y0022567D02*
X0165200Y0022567D01*
X0174567Y0021031D02*
X0174732Y0021197D01*
X0180063Y0021197D01*
X0177482Y0023366D02*
X0175676Y0023366D01*
X0187740Y0025000D02*
X0187740Y0021000D01*
X0190518Y0020970D02*
X0193876Y0020970D01*
X0193876Y0020172D02*
X0190518Y0020172D01*
X0190518Y0021769D02*
X0194490Y0021769D01*
X0193382Y0022567D02*
X0190518Y0022567D01*
X0191911Y0023366D02*
X0192694Y0023366D01*
X0198744Y0022567D02*
X0201256Y0022567D01*
X0200789Y0021769D02*
X0199211Y0021769D01*
X0199825Y0020970D02*
X0200175Y0020970D01*
X0200175Y0020172D02*
X0199825Y0020172D01*
X0199431Y0023366D02*
X0200569Y0023366D01*
X0200569Y0024164D02*
X0199431Y0024164D01*
X0199431Y0024963D02*
X0200569Y0024963D01*
X0200569Y0025761D02*
X0199431Y0025761D01*
X0199431Y0026560D02*
X0200569Y0026560D01*
X0200569Y0027358D02*
X0199904Y0027358D01*
X0202299Y0029754D02*
X0221703Y0029754D01*
X0222502Y0030552D02*
X0203098Y0030552D01*
X0198220Y0033220D02*
X0197000Y0032000D01*
X0195000Y0032000D01*
X0198220Y0033220D02*
X0198220Y0035161D01*
X0198220Y0034545D02*
X0198221Y0034545D01*
X0198220Y0033746D02*
X0198221Y0033746D01*
X0218305Y0022567D02*
X0274254Y0022567D01*
X0274254Y0021769D02*
X0217507Y0021769D01*
X0228431Y0028157D02*
X0229569Y0028157D01*
X0229569Y0028955D02*
X0228431Y0028955D01*
X0228423Y0029754D02*
X0229577Y0029754D01*
X0230376Y0030552D02*
X0227624Y0030552D01*
X0249800Y0054508D02*
X0257867Y0054508D01*
X0256428Y0055306D02*
X0249852Y0055306D01*
X0250650Y0056105D02*
X0255680Y0056105D01*
X0261383Y0055306D02*
X0264302Y0055306D01*
X0263554Y0056105D02*
X0262131Y0056105D01*
X0212306Y0084851D02*
X0211431Y0084851D01*
X0211431Y0084053D02*
X0211507Y0084053D01*
X0205494Y0082456D02*
X0203800Y0082456D01*
X0203800Y0083254D02*
X0204695Y0083254D01*
X0204694Y0084053D02*
X0203800Y0084053D01*
X0203694Y0084851D02*
X0204694Y0084851D01*
X0204694Y0085650D02*
X0202896Y0085650D01*
X0202097Y0086448D02*
X0204694Y0086448D01*
X0204208Y0087247D02*
X0201299Y0087247D01*
X0188150Y0083254D02*
X0179518Y0083254D01*
X0179466Y0082456D02*
X0188150Y0082456D01*
X0188150Y0081657D02*
X0178878Y0081657D01*
X0178117Y0080060D02*
X0179883Y0080060D01*
X0179569Y0079262D02*
X0178431Y0079262D01*
X0178431Y0078463D02*
X0179569Y0078463D01*
X0179569Y0077665D02*
X0178431Y0077665D01*
X0178431Y0076866D02*
X0179569Y0076866D01*
X0179569Y0076068D02*
X0178431Y0076068D01*
X0178431Y0075269D02*
X0179569Y0075269D01*
X0179569Y0074470D02*
X0178431Y0074470D01*
X0177849Y0073672D02*
X0180151Y0073672D01*
X0182937Y0077000D02*
X0190000Y0077000D01*
X0188150Y0079262D02*
X0186305Y0079262D01*
X0185991Y0080060D02*
X0188150Y0080060D01*
X0188150Y0080859D02*
X0165627Y0080859D01*
X0165321Y0081657D02*
X0167080Y0081657D01*
X0171285Y0079262D02*
X0171694Y0079262D01*
X0170000Y0077000D02*
X0175063Y0077000D01*
X0176451Y0081657D02*
X0177029Y0081657D01*
X0177029Y0082456D02*
X0176451Y0082456D01*
X0176451Y0083254D02*
X0177029Y0083254D01*
X0177029Y0084053D02*
X0176451Y0084053D01*
X0176451Y0085289D02*
X0173962Y0085289D01*
X0173962Y0087350D01*
X0174058Y0087706D01*
X0174242Y0088025D01*
X0174503Y0088286D01*
X0174822Y0088470D01*
X0175178Y0088565D01*
X0176451Y0088565D01*
X0176451Y0085289D01*
X0176451Y0085650D02*
X0177029Y0085650D01*
X0177029Y0086448D02*
X0176451Y0086448D01*
X0176451Y0087247D02*
X0177029Y0087247D01*
X0177029Y0088045D02*
X0176451Y0088045D01*
X0174262Y0088045D02*
X0171738Y0088045D01*
X0172038Y0087247D02*
X0173962Y0087247D01*
X0173962Y0086448D02*
X0172038Y0086448D01*
X0172038Y0085650D02*
X0173962Y0085650D01*
X0165620Y0086448D02*
X0165205Y0086448D01*
X0160275Y0086448D02*
X0157725Y0086448D01*
X0157841Y0085650D02*
X0160159Y0085650D01*
X0160159Y0084851D02*
X0157841Y0084851D01*
X0157841Y0084053D02*
X0160159Y0084053D01*
X0160159Y0083254D02*
X0157841Y0083254D01*
X0157841Y0082456D02*
X0160159Y0082456D01*
X0160159Y0081657D02*
X0157841Y0081657D01*
X0157661Y0080859D02*
X0160339Y0080859D01*
X0159191Y0091239D02*
X0158809Y0091239D01*
X0158809Y0092038D02*
X0159191Y0092038D01*
X0159191Y0092836D02*
X0158809Y0092836D01*
X0158809Y0093635D02*
X0159191Y0093635D01*
X0164892Y0091239D02*
X0167377Y0091239D01*
X0170623Y0091239D02*
X0171482Y0091239D01*
X0129435Y0072873D02*
X0127000Y0072873D01*
X0127000Y0072075D02*
X0129435Y0072075D01*
X0129435Y0071276D02*
X0127000Y0071276D01*
X0127172Y0070478D02*
X0129435Y0070478D01*
X0130144Y0069679D02*
X0127512Y0069679D01*
X0127581Y0068881D02*
X0142305Y0068881D01*
X0133000Y0065063D02*
X0133000Y0061000D01*
X0129435Y0067284D02*
X0126934Y0067284D01*
X0127414Y0068082D02*
X0129906Y0068082D01*
X0108063Y0068000D02*
X0103000Y0068000D01*
X0102000Y0069000D01*
X0102000Y0071000D01*
X0101280Y0071720D01*
X0097417Y0071720D01*
X0097417Y0074280D02*
X0092280Y0074280D01*
X0058053Y0060896D02*
X0050908Y0060896D01*
X0056613Y0053709D02*
X0057387Y0053709D01*
X0057387Y0052911D02*
X0074860Y0052911D01*
X0074435Y0050515D02*
X0070223Y0050515D01*
X0067000Y0048000D02*
X0067000Y0042000D01*
X0059000Y0042000D01*
X0057000Y0040000D01*
X0057000Y0035937D01*
X0049197Y0035937D01*
X0049000Y0035740D01*
X0049000Y0039000D01*
X0046280Y0041720D01*
X0046280Y0045220D01*
X0048839Y0045220D02*
X0051000Y0045220D01*
X0051780Y0046000D01*
X0052000Y0046000D01*
X0053000Y0047000D01*
X0052000Y0046000D02*
X0051220Y0045220D01*
X0051000Y0045220D01*
X0050908Y0043329D02*
X0057783Y0043329D01*
X0056984Y0042530D02*
X0050908Y0042530D01*
X0050341Y0041732D02*
X0056186Y0041732D01*
X0055387Y0040933D02*
X0049613Y0040933D01*
X0050411Y0040134D02*
X0055200Y0040134D01*
X0055200Y0039336D02*
X0050800Y0039336D01*
X0050800Y0038537D02*
X0053487Y0038537D01*
X0053435Y0037739D02*
X0052524Y0037739D01*
X0052529Y0033746D02*
X0053435Y0033746D01*
X0053875Y0032948D02*
X0046858Y0032948D01*
X0052565Y0027358D02*
X0053435Y0027358D01*
X0053014Y0026560D02*
X0052565Y0026560D01*
X0052216Y0025761D02*
X0052025Y0025761D01*
X0060125Y0032948D02*
X0064025Y0032948D01*
X0064025Y0033746D02*
X0060565Y0033746D01*
X0060565Y0034545D02*
X0064266Y0034545D01*
X0067000Y0033000D02*
X0071000Y0033000D01*
X0074181Y0033000D01*
X0074441Y0032740D01*
X0074208Y0029754D02*
X0069734Y0029754D01*
X0069975Y0030552D02*
X0070164Y0030552D01*
X0071836Y0030552D02*
X0072287Y0030552D01*
X0067000Y0032150D02*
X0067000Y0033000D01*
X0069913Y0035343D02*
X0060565Y0035343D01*
X0060565Y0036142D02*
X0075200Y0036142D01*
X0075200Y0036940D02*
X0060565Y0036940D01*
X0060565Y0037739D02*
X0075200Y0037739D01*
X0075992Y0038537D02*
X0060513Y0038537D01*
X0059680Y0040134D02*
X0074435Y0040134D01*
X0074613Y0039336D02*
X0058882Y0039336D01*
X0067000Y0042000D02*
X0077937Y0042000D01*
X0065200Y0044127D02*
X0059406Y0044127D01*
X0059975Y0044926D02*
X0064336Y0044926D01*
X0063551Y0045724D02*
X0059975Y0045724D01*
X0054594Y0044127D02*
X0053777Y0044127D01*
X0056613Y0050515D02*
X0057387Y0050515D01*
X0057387Y0051314D02*
X0056613Y0051314D01*
X0056613Y0052112D02*
X0057387Y0052112D01*
X0056613Y0052911D02*
X0049800Y0052911D01*
X0072087Y0035343D02*
X0072702Y0035343D01*
X0082740Y0025260D02*
X0083000Y0025000D01*
X0088800Y0016978D02*
X0098477Y0016978D01*
X0097872Y0016179D02*
X0102275Y0016179D01*
X0101997Y0015381D02*
X0103074Y0015381D01*
X0103068Y0014582D02*
X0103872Y0014582D01*
X0103469Y0013784D02*
X0104419Y0013784D01*
X0104627Y0012985D02*
X0103581Y0012985D01*
X0103457Y0012187D02*
X0105163Y0012187D01*
X0103038Y0011388D02*
X0170066Y0011388D01*
X0169268Y0012187D02*
X0108837Y0012187D01*
X0109222Y0015381D02*
X0144097Y0015381D01*
X0142579Y0016179D02*
X0108471Y0016179D01*
X0106568Y0016978D02*
X0136345Y0016978D01*
X0135547Y0017776D02*
X0105769Y0017776D01*
X0100003Y0015381D02*
X0098305Y0015381D01*
X0084128Y0016179D02*
X0081872Y0016179D01*
X0082305Y0015381D02*
X0083694Y0015381D01*
X0109565Y0024164D02*
X0111025Y0024164D01*
X0125415Y0025761D02*
X0126378Y0025761D01*
X0129622Y0025761D02*
X0141482Y0025761D01*
X0141518Y0025699D02*
X0141778Y0025439D01*
X0142097Y0025254D01*
X0142453Y0025159D01*
X0144613Y0025159D01*
X0144613Y0028534D01*
X0141238Y0028534D01*
X0141238Y0026375D01*
X0141333Y0026019D01*
X0141518Y0025699D01*
X0144613Y0025761D02*
X0145387Y0025761D01*
X0145387Y0026560D02*
X0144613Y0026560D01*
X0144613Y0027358D02*
X0145387Y0027358D01*
X0145387Y0028157D02*
X0144613Y0028157D01*
X0144613Y0029754D02*
X0145387Y0029754D01*
X0145387Y0030552D02*
X0144613Y0030552D01*
X0144613Y0031351D02*
X0145387Y0031351D01*
X0145387Y0032149D02*
X0144613Y0032149D01*
X0141238Y0028157D02*
X0125334Y0028157D01*
X0112909Y0034545D02*
X0108090Y0034545D01*
X0108800Y0035343D02*
X0112111Y0035343D01*
X0111920Y0036142D02*
X0108800Y0036142D01*
X0108800Y0036940D02*
X0109450Y0036940D01*
X0109092Y0037739D02*
X0108800Y0037739D01*
X0109304Y0033746D02*
X0111467Y0033746D01*
X0111025Y0032948D02*
X0109565Y0032948D01*
X0121807Y0037739D02*
X0131715Y0037739D01*
X0131200Y0038537D02*
X0122083Y0038537D01*
X0122882Y0039336D02*
X0125385Y0039336D01*
X0125025Y0040134D02*
X0124785Y0040134D01*
X0123000Y0042000D02*
X0123031Y0042031D01*
X0127417Y0042031D01*
X0125147Y0044127D02*
X0124523Y0044127D01*
X0130853Y0044127D02*
X0131200Y0044127D01*
X0131200Y0043329D02*
X0130975Y0043329D01*
X0130975Y0042530D02*
X0131200Y0042530D01*
X0131200Y0041732D02*
X0130975Y0041732D01*
X0130975Y0040933D02*
X0131200Y0040933D01*
X0131200Y0040134D02*
X0130975Y0040134D01*
X0131200Y0039336D02*
X0130615Y0039336D01*
X0132514Y0036940D02*
X0122605Y0036940D01*
X0123404Y0036142D02*
X0133312Y0036142D01*
X0134111Y0035343D02*
X0123800Y0035343D01*
X0109092Y0042530D02*
X0107016Y0042530D01*
X0106217Y0043329D02*
X0109278Y0043329D01*
X0103800Y0048120D02*
X0127613Y0048120D01*
X0128387Y0048120D02*
X0131200Y0048120D01*
X0130975Y0048537D02*
X0130975Y0049909D01*
X0130879Y0050265D01*
X0130695Y0050584D01*
X0130434Y0050845D01*
X0130115Y0051029D01*
X0129759Y0051124D01*
X0128387Y0051124D01*
X0128387Y0048537D01*
X0130975Y0048537D01*
X0130975Y0048918D02*
X0131200Y0048918D01*
X0131200Y0049717D02*
X0130975Y0049717D01*
X0131200Y0050515D02*
X0130735Y0050515D01*
X0131200Y0051314D02*
X0114859Y0051314D01*
X0115520Y0052112D02*
X0131200Y0052112D01*
X0130544Y0052911D02*
X0115520Y0052911D01*
X0115520Y0053709D02*
X0129745Y0053709D01*
X0128387Y0050515D02*
X0127613Y0050515D01*
X0127613Y0049717D02*
X0128387Y0049717D01*
X0128387Y0048918D02*
X0127613Y0048918D01*
X0125025Y0048918D02*
X0104969Y0048918D01*
X0105305Y0049717D02*
X0125025Y0049717D01*
X0125265Y0050515D02*
X0114061Y0050515D01*
X0130975Y0047321D02*
X0131200Y0047321D01*
X0131200Y0046523D02*
X0130975Y0046523D01*
X0163772Y0041215D02*
X0163772Y0041215D01*
X0164949Y0041732D02*
X0173081Y0041732D01*
X0228431Y0090441D02*
X0229569Y0090441D01*
X0229569Y0091239D02*
X0228431Y0091239D01*
X0228431Y0092038D02*
X0229569Y0092038D01*
X0229659Y0092836D02*
X0228340Y0092836D01*
X0111082Y0097627D02*
X0030918Y0097627D01*
X0031717Y0096829D02*
X0110283Y0096829D01*
X0032081Y0019373D02*
X0032075Y0019373D01*
X0032880Y0018575D02*
X0007337Y0018575D01*
X0007337Y0017776D02*
X0033678Y0017776D01*
X0034477Y0016978D02*
X0007337Y0016978D01*
X0007337Y0016179D02*
X0035275Y0016179D01*
X0036074Y0015381D02*
X0007337Y0015381D01*
D28*
X0019000Y0025000D03*
X0018000Y0039000D03*
X0038000Y0045000D03*
X0052000Y0046000D03*
X0057000Y0058000D03*
X0075000Y0060000D03*
X0088000Y0063000D03*
X0091000Y0066000D03*
X0088000Y0069000D03*
X0097000Y0085000D03*
X0103000Y0092000D03*
X0082000Y0090000D03*
X0125000Y0092000D03*
X0133000Y0079000D03*
X0146000Y0070000D03*
X0133000Y0061000D03*
X0125000Y0069000D03*
X0089000Y0052000D03*
X0089000Y0042000D03*
X0071000Y0033000D03*
X0074000Y0020000D03*
X0079098Y0020465D03*
X0065000Y0013000D03*
X0064000Y0019000D03*
X0041000Y0010000D03*
X0101000Y0013000D03*
X0107000Y0014000D03*
X0131000Y0013000D03*
X0174567Y0021031D03*
X0195000Y0032000D03*
X0211000Y0035000D03*
X0214000Y0047000D03*
X0204000Y0051000D03*
X0197000Y0047000D03*
X0175000Y0040000D03*
X0190000Y0059000D03*
X0194000Y0061000D03*
X0221000Y0062000D03*
X0222000Y0066000D03*
X0229000Y0060000D03*
X0248000Y0051000D03*
X0238000Y0074000D03*
X0221000Y0078000D03*
X0238000Y0090000D03*
X0255000Y0089000D03*
X0263000Y0089000D03*
X0215000Y0093000D03*
X0195000Y0088000D03*
X0185000Y0094000D03*
X0182000Y0085000D03*
X0170000Y0077000D03*
X0196000Y0077000D03*
X0150000Y0094000D03*
X0111000Y0049000D03*
X0123000Y0042000D03*
X0035000Y0068000D03*
X0027000Y0068000D03*
X0021000Y0082000D03*
D29*
X0089000Y0052000D02*
X0094063Y0052000D01*
X0094063Y0042000D02*
X0089000Y0042000D01*
X0125000Y0069000D02*
X0125000Y0077063D01*
X0147740Y0085000D02*
X0151000Y0085000D01*
X0152315Y0083685D01*
X0155260Y0083685D01*
X0162740Y0083685D02*
X0162740Y0083260D01*
X0163000Y0083000D01*
X0163000Y0079000D01*
X0162740Y0083685D02*
X0163055Y0084000D01*
X0166000Y0084000D01*
X0167000Y0085000D01*
X0169260Y0085000D01*
X0169000Y0094000D02*
X0163055Y0094000D01*
X0162740Y0094315D01*
X0163000Y0094575D01*
X0163000Y0098000D01*
X0162000Y0099000D01*
X0141000Y0099000D01*
X0139063Y0097063D01*
X0136063Y0094000D01*
X0143937Y0094000D02*
X0150000Y0094000D01*
X0150315Y0094315D01*
X0155260Y0094315D01*
X0169000Y0094000D02*
X0173850Y0094000D01*
X0180000Y0044937D02*
X0175000Y0040000D01*
X0180063Y0029000D02*
X0180063Y0021197D01*
X0180260Y0021000D01*
X0101000Y0013000D02*
X0094937Y0013000D01*
D30*
X0128000Y0023000D03*
X0163000Y0079000D03*
X0169000Y0094000D03*
D31*
X0134000Y0023000D02*
X0128000Y0023000D01*
X0122000Y0023063D01*
X0134000Y0023000D02*
X0138000Y0019000D01*
X0144921Y0019000D01*
X0145000Y0019079D01*
M02*
