%
M48
M72
T01C0.01181
T02C0.02362
T03C0.03150
T04C0.03543
T05C0.12598
%
T01
X41000Y10000
X64000Y19000
X65000Y13000
X74000Y20000
X79098Y20465
X101000Y13000
X107000Y14000
X131000Y13000
X174567Y21031
X195000Y32000
X211000Y35000
X214000Y47000
X204000Y51000
X197000Y47000
X175000Y40000
X190000Y59000
X194000Y61000
X221000Y62000
X222000Y66000
X229000Y60000
X248000Y51000
X238000Y74000
X221000Y78000
X238000Y90000
X255000Y89000
X263000Y89000
X215000Y93000
X195000Y88000
X185000Y94000
X182000Y85000
X170000Y77000
X146000Y70000
X133000Y79000
X125000Y69000
X133000Y61000
X111000Y49000
X123000Y42000
X89000Y42000
X89000Y52000
X75000Y60000
X88000Y63000
X91000Y66000
X88000Y69000
X97000Y85000
X103000Y92000
X82000Y90000
X125000Y92000
X150000Y94000
X196000Y77000
X71000Y33000
X52000Y46000
X38000Y45000
X18000Y39000
X19000Y25000
X57000Y58000
X35000Y68000
X27000Y68000
X21000Y82000
T02
X128000Y23000
X163000Y79000
X169000Y94000
T03
X258906Y73898
X266780Y73898
X266780Y66024
X258906Y66024
X258906Y58150
X266780Y58150
X266780Y50276
X258906Y50276
X258906Y42402
X266780Y42402
X266780Y34528
X258906Y34528
X145000Y28921
X145000Y19079
X31000Y23000
X21000Y33000
X11000Y23000
X42000Y75000
X32000Y85000
X52000Y85000
T04
X67000Y48000
X215000Y25000
T05
X160480Y54213
M30
