G75*
%MOIN*%
%OFA0B0*%
%FSLAX25Y25*%
%IPPOS*%
%LPD*%
%AMOC8*
5,1,8,0,0,1.08239X$1,22.5*
%
%ADD10C,0.06299*%
%ADD11R,0.05906X0.03150*%
%ADD12R,0.04331X0.04724*%
%ADD13OC8,0.05194*%
%ADD14R,0.03543X0.03543*%
%ADD15R,0.03150X0.04724*%
%ADD16R,0.08394X0.02994*%
%ADD17R,0.03543X0.01969*%
%ADD18R,0.03543X0.05118*%
%ADD19R,0.04724X0.04331*%
%ADD20R,0.05118X0.05118*%
%ADD21C,0.05118*%
%ADD22R,0.06693X0.07480*%
%ADD23C,0.05709*%
%ADD24R,0.04724X0.03150*%
%ADD25R,0.01969X0.04331*%
%ADD26R,0.04528X0.02756*%
%ADD27R,0.01732X0.05079*%
%ADD28R,0.01494X0.05394*%
%ADD29R,0.04331X0.01535*%
%ADD30R,0.04724X0.07480*%
%ADD31R,0.07480X0.04724*%
%ADD32R,0.04331X0.05906*%
%ADD33R,0.05079X0.01732*%
%ADD34R,0.07480X0.06693*%
%ADD35C,0.24016*%
%ADD36R,0.05512X0.01378*%
%ADD37R,0.01378X0.05512*%
%ADD38R,0.06299X0.06299*%
%ADD39R,0.02756X0.04528*%
%ADD40C,0.02165*%
%ADD41R,0.05118X0.03543*%
%ADD42R,0.02994X0.08394*%
%ADD43R,0.07874X0.07874*%
%ADD44R,0.06693X0.08661*%
%ADD45R,0.05709X0.01969*%
%ADD46R,0.02756X0.03543*%
%ADD47R,0.03543X0.02756*%
%ADD48R,0.03937X0.01732*%
%ADD49C,0.12992*%
%ADD50R,0.05906X0.04331*%
%ADD51C,0.08071*%
%ADD52C,0.03937*%
D10*
X0052037Y0047472D03*
X0082037Y0047472D03*
X0082037Y0057472D03*
X0082037Y0067472D03*
X0082037Y0077472D03*
X0082037Y0087472D03*
X0082037Y0097472D03*
X0082037Y0107472D03*
X0082037Y0117472D03*
X0052037Y0117472D03*
X0052037Y0087472D03*
X0052037Y0077472D03*
X0295888Y0287732D03*
X0305888Y0287732D03*
X0305888Y0297732D03*
X0295888Y0297732D03*
X0295888Y0307732D03*
X0305888Y0307732D03*
X0305888Y0317732D03*
X0295888Y0317732D03*
X0305888Y0327732D03*
X0831565Y0323692D03*
X0831565Y0313692D03*
X0861565Y0313692D03*
X0861565Y0303692D03*
X0861565Y0293692D03*
X0861565Y0283692D03*
X0831565Y0283692D03*
X0861565Y0323692D03*
X0861565Y0333692D03*
X0861565Y0343692D03*
X0861565Y0353692D03*
X0831565Y0353692D03*
D11*
X0943502Y0351232D03*
X0943502Y0356232D03*
X0943502Y0361232D03*
X0943502Y0366232D03*
X0970274Y0366232D03*
X0970274Y0361232D03*
X0970274Y0356232D03*
X0970274Y0351232D03*
X0970274Y0346232D03*
X0970274Y0341232D03*
X0970274Y0336232D03*
X0970274Y0331232D03*
X0970274Y0326232D03*
X0970274Y0321232D03*
X0943502Y0321232D03*
X0943502Y0326232D03*
X0943502Y0331232D03*
X0943502Y0336232D03*
X0943502Y0341232D03*
X0943502Y0346232D03*
X0170274Y0122232D03*
X0170274Y0117232D03*
X0170274Y0112232D03*
X0170274Y0107232D03*
X0170274Y0102232D03*
X0170274Y0097232D03*
X0170274Y0092232D03*
X0170274Y0087232D03*
X0170274Y0082232D03*
X0170274Y0077232D03*
X0143502Y0077232D03*
X0143502Y0082232D03*
X0143502Y0087232D03*
X0143502Y0092232D03*
X0143502Y0097232D03*
X0143502Y0102232D03*
X0143502Y0107232D03*
X0143502Y0112232D03*
X0143502Y0117232D03*
X0143502Y0122232D03*
D12*
X0124825Y0119732D03*
X0116951Y0119732D03*
X0116951Y0127732D03*
X0124825Y0127732D03*
X0128951Y0135732D03*
X0136825Y0135732D03*
X0152951Y0135732D03*
X0160825Y0135732D03*
X0188951Y0127732D03*
X0196825Y0127732D03*
X0244951Y0127732D03*
X0252825Y0127732D03*
X0124825Y0111732D03*
X0116951Y0111732D03*
X0116951Y0103732D03*
X0124825Y0103732D03*
X0124825Y0095732D03*
X0116951Y0095732D03*
X0116951Y0087732D03*
X0124825Y0087732D03*
X0124825Y0079732D03*
X0116951Y0079732D03*
X0180951Y0051732D03*
X0188825Y0051732D03*
X0157825Y0044732D03*
X0149951Y0044732D03*
X0200951Y0035732D03*
X0208825Y0035732D03*
X0232951Y0083732D03*
X0240825Y0083732D03*
X0104825Y0135732D03*
X0096951Y0135732D03*
X0084825Y0135732D03*
X0076951Y0135732D03*
X0116951Y0191732D03*
X0124825Y0191732D03*
X0296951Y0273732D03*
X0304825Y0273732D03*
X0176825Y0295732D03*
X0168951Y0295732D03*
X0144825Y0295732D03*
X0136951Y0295732D03*
X0124825Y0317732D03*
X0116951Y0317732D03*
X0104825Y0339732D03*
X0096951Y0339732D03*
X0568951Y0207732D03*
X0576825Y0207732D03*
X0576825Y0199732D03*
X0568951Y0199732D03*
X0568951Y0191732D03*
X0576825Y0191732D03*
X0576825Y0183732D03*
X0568951Y0183732D03*
X0568951Y0175732D03*
X0576825Y0175732D03*
X0600951Y0167732D03*
X0608825Y0167732D03*
X0608825Y0159732D03*
X0600951Y0159732D03*
X0548825Y0139732D03*
X0540951Y0139732D03*
X0488825Y0159732D03*
X0480951Y0159732D03*
X0480951Y0167732D03*
X0488825Y0167732D03*
X0448825Y0135732D03*
X0440951Y0135732D03*
X0440951Y0127732D03*
X0448825Y0127732D03*
X0524951Y0087732D03*
X0532825Y0087732D03*
X0532825Y0079732D03*
X0524951Y0079732D03*
X0524951Y0071732D03*
X0532825Y0071732D03*
X0504825Y0079732D03*
X0496951Y0079732D03*
X0596951Y0119732D03*
X0604825Y0119732D03*
X0752951Y0079732D03*
X0760825Y0079732D03*
X0760825Y0071732D03*
X0752951Y0071732D03*
X0628825Y0187732D03*
X0620951Y0187732D03*
X0620951Y0195732D03*
X0628825Y0195732D03*
X0628825Y0203732D03*
X0620951Y0203732D03*
X0620951Y0211732D03*
X0628825Y0211732D03*
X0916951Y0319732D03*
X0924825Y0319732D03*
X0924825Y0327732D03*
X0916951Y0327732D03*
X0916951Y0335732D03*
X0924825Y0335732D03*
X0924825Y0343732D03*
X0916951Y0343732D03*
X0916951Y0351732D03*
X0924825Y0351732D03*
X0924825Y0359732D03*
X0916951Y0359732D03*
X0916951Y0367732D03*
X0924825Y0367732D03*
X1012951Y0343732D03*
X1020825Y0343732D03*
X1064951Y0287732D03*
X1072825Y0287732D03*
X1064825Y0263732D03*
X1056951Y0263732D03*
X1056951Y0251732D03*
X1064825Y0251732D03*
X1064825Y0231732D03*
X1056951Y0231732D03*
X1160951Y0271732D03*
X1168825Y0271732D03*
D13*
X0894888Y0319732D03*
X0884888Y0319732D03*
X0104951Y0084732D03*
X0104951Y0074732D03*
X0666888Y0047732D03*
X0686888Y0047732D03*
X0846888Y0067732D03*
X0866888Y0067732D03*
D14*
X0125738Y0031732D03*
X0132037Y0031732D03*
X0150738Y0036732D03*
X0157037Y0036732D03*
X0201738Y0055732D03*
X0208037Y0055732D03*
X0188037Y0059732D03*
X0181738Y0059732D03*
X0134037Y0070732D03*
X0127738Y0070732D03*
X0104888Y0096582D03*
X0104888Y0102881D03*
X0213738Y0129732D03*
X0220037Y0129732D03*
X0273738Y0127732D03*
X0280037Y0127732D03*
X0432888Y0118881D03*
X0432888Y0112582D03*
X0545738Y0087732D03*
X0552037Y0087732D03*
X0552037Y0079732D03*
X0545738Y0079732D03*
X0512888Y0068881D03*
X0512888Y0062582D03*
X0564888Y0120582D03*
X0564888Y0126881D03*
X0580888Y0126881D03*
X0580888Y0120582D03*
X0612888Y0132582D03*
X0612888Y0138881D03*
X0572888Y0140582D03*
X0572888Y0146881D03*
X0520888Y0160582D03*
X0520888Y0166881D03*
X0592738Y0180732D03*
X0599037Y0180732D03*
X0560037Y0198232D03*
X0553738Y0198232D03*
X0661738Y0175732D03*
X0668037Y0175732D03*
X0717738Y0147732D03*
X0724037Y0147732D03*
X0668037Y0140732D03*
X0661738Y0140732D03*
X0717738Y0091732D03*
X0724037Y0091732D03*
X0724037Y0207732D03*
X0717738Y0207732D03*
X0717738Y0267732D03*
X0724037Y0267732D03*
X0724037Y0327732D03*
X0717738Y0327732D03*
X0888888Y0336582D03*
X0888888Y0342881D03*
X0937738Y0307732D03*
X0944037Y0307732D03*
X1072888Y0306881D03*
X1072888Y0300582D03*
X1135888Y0289881D03*
X1135888Y0283582D03*
X1181738Y0251732D03*
X1188037Y0251732D03*
X1191037Y0315732D03*
X1184738Y0315732D03*
X1208738Y0315732D03*
X1215037Y0315732D03*
X0300037Y0243732D03*
X0293738Y0243732D03*
X0293738Y0235732D03*
X0300037Y0235732D03*
X0207037Y0239732D03*
X0200738Y0239732D03*
X0200738Y0249732D03*
X0207037Y0249732D03*
X0233888Y0288582D03*
X0233888Y0294881D03*
X0260888Y0294881D03*
X0260888Y0288582D03*
X0160037Y0295732D03*
X0153738Y0295732D03*
X0104888Y0318582D03*
X0104888Y0324881D03*
X0116888Y0332582D03*
X0116888Y0338881D03*
X0117738Y0199732D03*
X0124037Y0199732D03*
X0232888Y0198881D03*
X0232888Y0192582D03*
X0260888Y0192582D03*
X0260888Y0198881D03*
X0293738Y0186732D03*
X0300037Y0186732D03*
X0286888Y0070881D03*
X0286888Y0064582D03*
D15*
X0108628Y0063732D03*
X0101148Y0063732D03*
X0309148Y0203732D03*
X0316628Y0203732D03*
X0597148Y0111732D03*
X0604628Y0111732D03*
X1065148Y0279732D03*
X1072628Y0279732D03*
X1161148Y0263732D03*
X1168628Y0263732D03*
X1036628Y0343732D03*
X1029148Y0343732D03*
D16*
X1181788Y0297232D03*
X1181788Y0292232D03*
X1181788Y0287232D03*
X1181788Y0282232D03*
X1181788Y0277232D03*
X1181788Y0272232D03*
X1181788Y0267232D03*
X1181788Y0262232D03*
X1211988Y0262232D03*
X1211988Y0267232D03*
X1211988Y0272232D03*
X1211988Y0277232D03*
X1211988Y0282232D03*
X1211988Y0287232D03*
X1211988Y0292232D03*
X1211988Y0297232D03*
X0284988Y0117732D03*
X0284988Y0112732D03*
X0284988Y0107732D03*
X0284988Y0102732D03*
X0284988Y0097732D03*
X0284988Y0092732D03*
X0284988Y0087732D03*
X0254788Y0087732D03*
X0254788Y0092732D03*
X0254788Y0097732D03*
X0254788Y0102732D03*
X0254788Y0107732D03*
X0254788Y0112732D03*
X0254788Y0117732D03*
X0220988Y0118232D03*
X0220988Y0113232D03*
X0220988Y0108232D03*
X0220988Y0103232D03*
X0220988Y0098232D03*
X0220988Y0093232D03*
X0220988Y0088232D03*
X0220988Y0083232D03*
X0190788Y0083232D03*
X0190788Y0088232D03*
X0190788Y0093232D03*
X0190788Y0098232D03*
X0190788Y0103232D03*
X0190788Y0108232D03*
X0190788Y0113232D03*
X0190788Y0118232D03*
D17*
X0201148Y0050291D03*
X0201148Y0047732D03*
X0201148Y0045173D03*
X0208628Y0045173D03*
X0208628Y0050291D03*
X0441148Y0113173D03*
X0441148Y0118291D03*
X0448628Y0118291D03*
X0448628Y0115732D03*
X0448628Y0113173D03*
D18*
X0163388Y0147330D03*
X0158388Y0147330D03*
X0147388Y0147330D03*
X0142388Y0147330D03*
X0103388Y0147330D03*
X0098388Y0147330D03*
X0087388Y0147330D03*
X0082388Y0147330D03*
X0082388Y0172133D03*
X0087388Y0172133D03*
X0098388Y0172133D03*
X0103388Y0172133D03*
X0142388Y0172133D03*
X0147388Y0172133D03*
X0158388Y0172133D03*
X0163388Y0172133D03*
D19*
X0172888Y0175669D03*
X0172888Y0167795D03*
X0132888Y0167795D03*
X0132888Y0175669D03*
X0114864Y0175322D03*
X0114864Y0167448D03*
X0093864Y0183070D03*
X0093864Y0190944D03*
X0108888Y0191795D03*
X0108888Y0199669D03*
X0232888Y0119669D03*
X0232888Y0111795D03*
X0294864Y0112692D03*
X0294864Y0120566D03*
X0432888Y0127795D03*
X0432888Y0135669D03*
X0456888Y0135669D03*
X0456888Y0127795D03*
X0500888Y0135795D03*
X0500888Y0143669D03*
X0520888Y0143669D03*
X0520888Y0135795D03*
X0556888Y0127669D03*
X0556888Y0119795D03*
X0572888Y0119795D03*
X0588888Y0119795D03*
X0588888Y0127669D03*
X0572888Y0127669D03*
X0588888Y0143795D03*
X0588888Y0151669D03*
X0592888Y0159795D03*
X0592888Y0167669D03*
X0548888Y0159669D03*
X0540888Y0159669D03*
X0540888Y0151795D03*
X0548888Y0151795D03*
X0468888Y0155795D03*
X0468888Y0163669D03*
X0488888Y0191795D03*
X0488888Y0199669D03*
X0528888Y0199669D03*
X0528888Y0191795D03*
X0738888Y0202795D03*
X0738888Y0210669D03*
X0738888Y0259795D03*
X0738888Y0267669D03*
X0738888Y0316795D03*
X0738888Y0324669D03*
X1109888Y0289669D03*
X1109888Y0281795D03*
X1227888Y0283795D03*
X1227888Y0291669D03*
X1216888Y0323795D03*
X1208888Y0323795D03*
X1196888Y0323795D03*
X1184888Y0323795D03*
X1176888Y0323795D03*
X1176888Y0331669D03*
X1184888Y0331669D03*
X1196888Y0331669D03*
X1208888Y0331669D03*
X1216888Y0331669D03*
X1125888Y0340795D03*
X1115888Y0340795D03*
X1115888Y0348669D03*
X1125888Y0348669D03*
X0738388Y0147669D03*
X0738388Y0139795D03*
X0735388Y0091669D03*
X0735388Y0083795D03*
X0232888Y0063669D03*
X0224888Y0063669D03*
X0224888Y0055795D03*
X0232888Y0055795D03*
X0216888Y0051669D03*
X0216888Y0043795D03*
X0188888Y0043669D03*
X0180888Y0043669D03*
X0180888Y0035795D03*
X0188888Y0035795D03*
X0280888Y0299795D03*
X0280888Y0307669D03*
X0280888Y0319795D03*
X0280888Y0327669D03*
X0317888Y0309669D03*
X0317888Y0301795D03*
X0124888Y0331795D03*
X0124888Y0339669D03*
X0096888Y0325669D03*
X0096888Y0317795D03*
D20*
X0534746Y0112732D03*
X0510888Y0038810D03*
X0256888Y0040653D03*
X0928888Y0038810D03*
D21*
X0928888Y0048653D03*
X0789518Y0098220D03*
X0779675Y0098220D03*
X0779281Y0079598D03*
X0779281Y0069598D03*
X0752037Y0045228D03*
X0742037Y0035228D03*
X0732037Y0035228D03*
X0722037Y0035228D03*
X0762037Y0035228D03*
X0632825Y0035795D03*
X0624951Y0035795D03*
X0624951Y0043669D03*
X0632825Y0043669D03*
X0510888Y0048653D03*
X0534746Y0122574D03*
X0490888Y0123732D03*
X0470888Y0123732D03*
X0480888Y0133732D03*
X0508888Y0193732D03*
X0518888Y0203732D03*
X0498888Y0203732D03*
X0759990Y0176960D03*
X0779675Y0157275D03*
X0789518Y0157275D03*
X0789518Y0137590D03*
X0779675Y0137590D03*
X0759990Y0117905D03*
X0779675Y0196645D03*
X0789518Y0196645D03*
X0789518Y0216330D03*
X0779675Y0216330D03*
X0759990Y0236015D03*
X0779675Y0255700D03*
X0789518Y0255700D03*
X0789518Y0275385D03*
X0779675Y0275385D03*
X0759990Y0295070D03*
X0779675Y0314755D03*
X0789518Y0314755D03*
X0789518Y0334440D03*
X0779675Y0334440D03*
X0759990Y0354125D03*
X0779675Y0373810D03*
X0789518Y0373810D03*
X0676573Y0363669D03*
X0668699Y0363669D03*
X0660825Y0363669D03*
X0652951Y0363669D03*
X0645077Y0363669D03*
X0637203Y0363669D03*
X0637203Y0355795D03*
X0645077Y0355795D03*
X0652951Y0355795D03*
X0660825Y0355795D03*
X0668699Y0355795D03*
X0676573Y0355795D03*
X0572573Y0355795D03*
X0564699Y0355795D03*
X0556825Y0355795D03*
X0548951Y0355795D03*
X0541077Y0355795D03*
X0533203Y0355795D03*
X0533203Y0363669D03*
X0541077Y0363669D03*
X0548951Y0363669D03*
X0556825Y0363669D03*
X0564699Y0363669D03*
X0572573Y0363669D03*
X0468573Y0363669D03*
X0460699Y0363669D03*
X0452825Y0363669D03*
X0444951Y0363669D03*
X0437077Y0363669D03*
X0429203Y0363669D03*
X0429203Y0355795D03*
X0437077Y0355795D03*
X0444951Y0355795D03*
X0452825Y0355795D03*
X0460699Y0355795D03*
X0468573Y0355795D03*
X0364573Y0355795D03*
X0356699Y0355795D03*
X0348825Y0355795D03*
X0340951Y0355795D03*
X0333077Y0355795D03*
X0325203Y0355795D03*
X0325203Y0363669D03*
X0333077Y0363669D03*
X0340951Y0363669D03*
X0348825Y0363669D03*
X0356699Y0363669D03*
X0364573Y0363669D03*
X0176573Y0363669D03*
X0168699Y0363669D03*
X0160825Y0363669D03*
X0152951Y0363669D03*
X0145077Y0363669D03*
X0137203Y0363669D03*
X0137203Y0355795D03*
X0145077Y0355795D03*
X0152951Y0355795D03*
X0160825Y0355795D03*
X0168699Y0355795D03*
X0176573Y0355795D03*
X0115266Y0361999D03*
X0105266Y0361999D03*
X0095266Y0361999D03*
X0085266Y0351999D03*
X0075266Y0361999D03*
X0075266Y0302944D03*
X0085266Y0292944D03*
X0095266Y0302944D03*
X0105266Y0302944D03*
X0115266Y0302944D03*
X0115266Y0263574D03*
X0105266Y0263574D03*
X0095266Y0263574D03*
X0075266Y0263574D03*
X0085266Y0253574D03*
X0095266Y0224204D03*
X0105266Y0224204D03*
X0115266Y0224204D03*
X0085266Y0214204D03*
X0075266Y0224204D03*
X0256888Y0030810D03*
X0988951Y0239858D03*
X0996825Y0239858D03*
X0996825Y0247732D03*
X0988951Y0247732D03*
X0988951Y0255606D03*
X0996825Y0255606D03*
X1243848Y0294007D03*
X1243848Y0304007D03*
X1226447Y0354125D03*
X1206447Y0354125D03*
X1196447Y0354125D03*
X1186447Y0354125D03*
X1216447Y0364125D03*
D22*
X0901226Y0048732D03*
X0901226Y0038732D03*
X0868549Y0038732D03*
X0868549Y0048732D03*
X0565226Y0048732D03*
X0565226Y0038732D03*
X0532549Y0038732D03*
X0532549Y0048732D03*
X0317226Y0048732D03*
X0317226Y0038732D03*
X0284549Y0038732D03*
X0284549Y0048732D03*
D23*
X0292888Y0048732D03*
X0328888Y0047732D03*
X0328888Y0039732D03*
X0220888Y0034732D03*
X0168888Y0035732D03*
X0456888Y0083732D03*
X0512888Y0087732D03*
X0616888Y0119732D03*
X0580888Y0135732D03*
X0616888Y0147732D03*
X0528888Y0151732D03*
X0420888Y0135732D03*
X0468888Y0199732D03*
X0172888Y0131732D03*
X0576888Y0035732D03*
X0584888Y0047732D03*
X0938888Y0083732D03*
X0968888Y0083732D03*
X0978888Y0083732D03*
X0988888Y0083732D03*
X0998888Y0083732D03*
X1008888Y0083732D03*
X1018888Y0083732D03*
X1028888Y0083732D03*
X1038888Y0083732D03*
X1048888Y0083732D03*
X1058888Y0083732D03*
X1068888Y0083732D03*
X1078888Y0083732D03*
X1088888Y0083732D03*
X1098888Y0083732D03*
X1108888Y0083732D03*
X1118888Y0083732D03*
X1128888Y0083732D03*
X1138888Y0083732D03*
X1148888Y0083732D03*
X1158888Y0083732D03*
X1168888Y0083732D03*
X1178888Y0083732D03*
X1188888Y0083732D03*
X1198888Y0083732D03*
X1208888Y0083732D03*
X1218888Y0083732D03*
X1228888Y0083732D03*
X1238888Y0083732D03*
X1238888Y0093732D03*
X1228888Y0093732D03*
X1218888Y0093732D03*
X1208888Y0093732D03*
X1198888Y0093732D03*
X1188888Y0093732D03*
X1178888Y0093732D03*
X1168888Y0093732D03*
X1158888Y0093732D03*
X1148888Y0093732D03*
X1138888Y0093732D03*
X1128888Y0093732D03*
X1118888Y0093732D03*
X1108888Y0093732D03*
X1098888Y0093732D03*
X1088888Y0093732D03*
X1078888Y0093732D03*
X1068888Y0093732D03*
X1058888Y0093732D03*
X1048888Y0093732D03*
X1038888Y0093732D03*
X1028888Y0093732D03*
X1018888Y0093732D03*
X1008888Y0093732D03*
X0998888Y0093732D03*
X0988888Y0093732D03*
X0978888Y0093732D03*
X0968888Y0093732D03*
X0938888Y0093732D03*
X0938888Y0103732D03*
X0968888Y0103732D03*
X0978888Y0103732D03*
X0988888Y0103732D03*
X0998888Y0103732D03*
X1008888Y0103732D03*
X1018888Y0103732D03*
X1028888Y0103732D03*
X1038888Y0103732D03*
X1048888Y0103732D03*
X1058888Y0103732D03*
X1068888Y0103732D03*
X1078888Y0103732D03*
X1088888Y0103732D03*
X1098888Y0103732D03*
X1108888Y0103732D03*
X1118888Y0103732D03*
X1128888Y0103732D03*
X1138888Y0103732D03*
X1148888Y0103732D03*
X1158888Y0103732D03*
X1168888Y0103732D03*
X1178888Y0103732D03*
X1188888Y0103732D03*
X1198888Y0103732D03*
X1208888Y0103732D03*
X1218888Y0103732D03*
X1228888Y0103732D03*
X1238888Y0103732D03*
X1238888Y0113732D03*
X1228888Y0113732D03*
X1218888Y0113732D03*
X1208888Y0113732D03*
X1198888Y0113732D03*
X1188888Y0113732D03*
X1178888Y0113732D03*
X1168888Y0113732D03*
X1158888Y0113732D03*
X1148888Y0113732D03*
X1138888Y0113732D03*
X1128888Y0113732D03*
X1118888Y0113732D03*
X1108888Y0113732D03*
X1098888Y0113732D03*
X1088888Y0113732D03*
X1078888Y0113732D03*
X1068888Y0113732D03*
X1058888Y0113732D03*
X1048888Y0113732D03*
X1038888Y0113732D03*
X1028888Y0113732D03*
X1018888Y0113732D03*
X1008888Y0113732D03*
X0998888Y0113732D03*
X0988888Y0113732D03*
X0978888Y0113732D03*
X0968888Y0113732D03*
X0968888Y0123732D03*
X0978888Y0123732D03*
X0988888Y0123732D03*
X0998888Y0123732D03*
X1008888Y0123732D03*
X1018888Y0123732D03*
X1028888Y0123732D03*
X1038888Y0123732D03*
X1048888Y0123732D03*
X1058888Y0123732D03*
X1068888Y0123732D03*
X1078888Y0123732D03*
X1088888Y0123732D03*
X1098888Y0123732D03*
X1108888Y0123732D03*
X1118888Y0123732D03*
X1128888Y0123732D03*
X1138888Y0123732D03*
X1148888Y0123732D03*
X1158888Y0123732D03*
X1168888Y0123732D03*
X1178888Y0123732D03*
X1188888Y0123732D03*
X1198888Y0123732D03*
X1208888Y0123732D03*
X1218888Y0123732D03*
X1228888Y0123732D03*
X1238888Y0123732D03*
X1238888Y0133732D03*
X1228888Y0133732D03*
X1218888Y0133732D03*
X1208888Y0133732D03*
X1198888Y0133732D03*
X1188888Y0133732D03*
X1178888Y0133732D03*
X1168888Y0133732D03*
X1158888Y0133732D03*
X1148888Y0133732D03*
X1138888Y0133732D03*
X1128888Y0133732D03*
X1118888Y0133732D03*
X1108888Y0133732D03*
X1098888Y0133732D03*
X1088888Y0133732D03*
X1078888Y0133732D03*
X1068888Y0133732D03*
X1058888Y0133732D03*
X1048888Y0133732D03*
X1038888Y0133732D03*
X1028888Y0133732D03*
X1018888Y0133732D03*
X1008888Y0133732D03*
X0998888Y0133732D03*
X0988888Y0133732D03*
X0978888Y0133732D03*
X0968888Y0133732D03*
X0968888Y0143732D03*
X0978888Y0143732D03*
X0988888Y0143732D03*
X0998888Y0143732D03*
X1008888Y0143732D03*
X1018888Y0143732D03*
X1028888Y0143732D03*
X1038888Y0143732D03*
X1048888Y0143732D03*
X1058888Y0143732D03*
X1068888Y0143732D03*
X1078888Y0143732D03*
X1088888Y0143732D03*
X1098888Y0143732D03*
X1108888Y0143732D03*
X1118888Y0143732D03*
X1128888Y0143732D03*
X1138888Y0143732D03*
X1148888Y0143732D03*
X1158888Y0143732D03*
X1168888Y0143732D03*
X1178888Y0143732D03*
X1188888Y0143732D03*
X1198888Y0143732D03*
X1208888Y0143732D03*
X1218888Y0143732D03*
X1228888Y0143732D03*
X1238888Y0143732D03*
X1238888Y0153732D03*
X1228888Y0153732D03*
X1218888Y0153732D03*
X1208888Y0153732D03*
X1198888Y0153732D03*
X1188888Y0153732D03*
X1178888Y0153732D03*
X1168888Y0153732D03*
X1158888Y0153732D03*
X1148888Y0153732D03*
X1138888Y0153732D03*
X1128888Y0153732D03*
X1118888Y0153732D03*
X1108888Y0153732D03*
X1098888Y0153732D03*
X1088888Y0153732D03*
X1078888Y0153732D03*
X1068888Y0153732D03*
X1058888Y0153732D03*
X1048888Y0153732D03*
X1038888Y0153732D03*
X1028888Y0153732D03*
X1018888Y0153732D03*
X1008888Y0153732D03*
X0998888Y0153732D03*
X0988888Y0153732D03*
X0978888Y0153732D03*
X0968888Y0153732D03*
X0968888Y0163732D03*
X0978888Y0163732D03*
X0988888Y0163732D03*
X0998888Y0163732D03*
X1008888Y0163732D03*
X1018888Y0163732D03*
X1028888Y0163732D03*
X1038888Y0163732D03*
X1048888Y0163732D03*
X1058888Y0163732D03*
X1068888Y0163732D03*
X1078888Y0163732D03*
X1088888Y0163732D03*
X1098888Y0163732D03*
X1108888Y0163732D03*
X1118888Y0163732D03*
X1128888Y0163732D03*
X1138888Y0163732D03*
X1148888Y0163732D03*
X1158888Y0163732D03*
X1168888Y0163732D03*
X1178888Y0163732D03*
X1188888Y0163732D03*
X1198888Y0163732D03*
X1208888Y0163732D03*
X1218888Y0163732D03*
X1228888Y0163732D03*
X1238888Y0163732D03*
X1238888Y0173732D03*
X1228888Y0173732D03*
X1218888Y0173732D03*
X1208888Y0173732D03*
X1198888Y0173732D03*
X1188888Y0173732D03*
X1178888Y0173732D03*
X1168888Y0173732D03*
X1158888Y0173732D03*
X1148888Y0173732D03*
X1138888Y0173732D03*
X1128888Y0173732D03*
X1118888Y0173732D03*
X1108888Y0173732D03*
X1098888Y0173732D03*
X1088888Y0173732D03*
X1078888Y0173732D03*
X1068888Y0173732D03*
X1058888Y0173732D03*
X1048888Y0173732D03*
X1038888Y0173732D03*
X1028888Y0173732D03*
X1018888Y0173732D03*
X1008888Y0173732D03*
X0998888Y0173732D03*
X0988888Y0173732D03*
X0978888Y0173732D03*
X0968888Y0173732D03*
X0968888Y0183732D03*
X0978888Y0183732D03*
X0988888Y0183732D03*
X0998888Y0183732D03*
X1008888Y0183732D03*
X1018888Y0183732D03*
X1028888Y0183732D03*
X1038888Y0183732D03*
X1048888Y0183732D03*
X1058888Y0183732D03*
X1068888Y0183732D03*
X1078888Y0183732D03*
X1088888Y0183732D03*
X1098888Y0183732D03*
X1108888Y0183732D03*
X1118888Y0183732D03*
X1128888Y0183732D03*
X1138888Y0183732D03*
X1148888Y0183732D03*
X1158888Y0183732D03*
X1168888Y0183732D03*
X1178888Y0183732D03*
X1188888Y0183732D03*
X1198888Y0183732D03*
X1208888Y0183732D03*
X1218888Y0183732D03*
X1228888Y0183732D03*
X1238888Y0183732D03*
X1238888Y0193732D03*
X1228888Y0193732D03*
X1218888Y0193732D03*
X1208888Y0193732D03*
X1198888Y0193732D03*
X1188888Y0193732D03*
X1178888Y0193732D03*
X1168888Y0193732D03*
X1158888Y0193732D03*
X1148888Y0193732D03*
X1138888Y0193732D03*
X1128888Y0193732D03*
X1118888Y0193732D03*
X1108888Y0193732D03*
X1098888Y0193732D03*
X1088888Y0193732D03*
X1078888Y0193732D03*
X1068888Y0193732D03*
X1058888Y0193732D03*
X1048888Y0193732D03*
X1038888Y0193732D03*
X1028888Y0193732D03*
X1018888Y0193732D03*
X1008888Y0193732D03*
X0998888Y0193732D03*
X0988888Y0193732D03*
X0978888Y0193732D03*
X0968888Y0193732D03*
X0938888Y0193732D03*
X0938888Y0183732D03*
X0938888Y0203732D03*
X0968888Y0203732D03*
X0978888Y0203732D03*
X0988888Y0203732D03*
X0998888Y0203732D03*
X1008888Y0203732D03*
X1018888Y0203732D03*
X1028888Y0203732D03*
X1038888Y0203732D03*
X1048888Y0203732D03*
X1058888Y0203732D03*
X1068888Y0203732D03*
X1078888Y0203732D03*
X1088888Y0203732D03*
X1098888Y0203732D03*
X1108888Y0203732D03*
X1118888Y0203732D03*
X1128888Y0203732D03*
X1138888Y0203732D03*
X1148888Y0203732D03*
X1158888Y0203732D03*
X1168888Y0203732D03*
X1178888Y0203732D03*
X1188888Y0203732D03*
X1198888Y0203732D03*
X1208888Y0203732D03*
X1218888Y0203732D03*
X1228888Y0203732D03*
X1238888Y0203732D03*
X1120888Y0239732D03*
X0920888Y0303732D03*
D24*
X0888888Y0303472D03*
X0888888Y0295992D03*
X0692888Y0355992D03*
X0692888Y0363472D03*
X0588888Y0363472D03*
X0588888Y0355992D03*
X0484888Y0355992D03*
X0484888Y0363472D03*
X0380888Y0363472D03*
X0380888Y0355992D03*
X0192888Y0355992D03*
X0192888Y0363472D03*
X0584888Y0167472D03*
X0584888Y0159992D03*
X0488888Y0087472D03*
X0488888Y0079992D03*
X0480888Y0073472D03*
X0480888Y0065992D03*
X0232888Y0095992D03*
X0232888Y0103472D03*
D25*
X0270329Y0071866D03*
X0272888Y0071866D03*
X0275447Y0071866D03*
X0275329Y0063598D03*
X0270329Y0063598D03*
D26*
X0491573Y0063992D03*
X0491573Y0071472D03*
X0502203Y0071472D03*
X0502203Y0067732D03*
X0502203Y0063992D03*
X0543573Y0063992D03*
X0543573Y0067732D03*
X0543573Y0071472D03*
X0554203Y0071472D03*
X0554203Y0067732D03*
X0554203Y0063992D03*
D27*
X0597049Y0130952D03*
X0599608Y0130952D03*
X0602167Y0130952D03*
X0604726Y0130952D03*
X0564726Y0138952D03*
X0562167Y0138952D03*
X0559608Y0138952D03*
X0557049Y0138952D03*
X0597049Y0148511D03*
X0599608Y0148511D03*
X0602167Y0148511D03*
X0604726Y0148511D03*
X0564726Y0156511D03*
X0562167Y0156511D03*
X0559608Y0156511D03*
X0557049Y0156511D03*
X0512726Y0158952D03*
X0510167Y0158952D03*
X0507608Y0158952D03*
X0505049Y0158952D03*
X0505049Y0176511D03*
X0507608Y0176511D03*
X0510167Y0176511D03*
X0512726Y0176511D03*
D28*
X0600988Y0187732D03*
X0602888Y0187732D03*
X0604888Y0187732D03*
X0606888Y0187732D03*
X0608788Y0187732D03*
X0608788Y0203732D03*
X0606888Y0203732D03*
X0604888Y0203732D03*
X0602888Y0203732D03*
X0600988Y0203732D03*
D29*
X0560305Y0188688D03*
X0560305Y0186129D03*
X0560305Y0183570D03*
X0560305Y0181011D03*
X0560305Y0178452D03*
X0560305Y0175893D03*
X0560305Y0173334D03*
X0560305Y0170775D03*
X0537470Y0170775D03*
X0537470Y0173334D03*
X0537470Y0175893D03*
X0537470Y0178452D03*
X0537470Y0181011D03*
X0537470Y0183570D03*
X0537470Y0186129D03*
X0537470Y0188688D03*
D30*
X0491187Y0177732D03*
X0478589Y0177732D03*
X0478589Y0149732D03*
X0491187Y0149732D03*
D31*
X0510888Y0146031D03*
X0510888Y0133433D03*
X0280888Y0189433D03*
X0280888Y0202031D03*
D32*
X0508888Y0124062D03*
X0512628Y0115401D03*
X0505148Y0115401D03*
D33*
X0637195Y0114775D03*
X0637195Y0117334D03*
X0637195Y0119893D03*
X0637195Y0122452D03*
X0637195Y0125011D03*
X0637195Y0127570D03*
X0637195Y0130129D03*
X0637195Y0132688D03*
X0660581Y0132688D03*
X0660581Y0130129D03*
X0660581Y0127570D03*
X0660581Y0125011D03*
X0660581Y0122452D03*
X0660581Y0119893D03*
X0660581Y0117334D03*
X0660581Y0114775D03*
X0660581Y0150775D03*
X0660581Y0153334D03*
X0660581Y0155893D03*
X0660581Y0158452D03*
X0660581Y0161011D03*
X0660581Y0163570D03*
X0660581Y0166129D03*
X0660581Y0168688D03*
X0637195Y0168688D03*
X0637195Y0166129D03*
X0637195Y0163570D03*
X0637195Y0161011D03*
X0637195Y0158452D03*
X0637195Y0155893D03*
X0637195Y0153334D03*
X0637195Y0150775D03*
D34*
X0715888Y0159393D03*
X0725888Y0159393D03*
X0725888Y0136070D03*
X0715888Y0136070D03*
X0715888Y0103393D03*
X0725888Y0103393D03*
X0725888Y0192070D03*
X0715888Y0192070D03*
X0715888Y0219393D03*
X0725888Y0219393D03*
X0725888Y0252070D03*
X0715888Y0252070D03*
X0715888Y0279393D03*
X0725888Y0279393D03*
X0725888Y0312070D03*
X0715888Y0312070D03*
X0715888Y0339393D03*
X0725888Y0339393D03*
X0725888Y0372070D03*
X0715888Y0372070D03*
D35*
X0826132Y0239952D03*
X0046604Y0161212D03*
D36*
X0216982Y0220110D03*
X0216982Y0222078D03*
X0216982Y0224047D03*
X0216982Y0226015D03*
X0216982Y0227984D03*
X0216982Y0229952D03*
X0216982Y0231921D03*
X0216982Y0233889D03*
X0216982Y0235858D03*
X0216982Y0237826D03*
X0216982Y0239795D03*
X0216982Y0241763D03*
X0216982Y0243732D03*
X0216982Y0245700D03*
X0216982Y0247669D03*
X0216982Y0249637D03*
X0216982Y0251606D03*
X0216982Y0253574D03*
X0216982Y0255543D03*
X0216982Y0257511D03*
X0216982Y0259480D03*
X0216982Y0261448D03*
X0216982Y0263417D03*
X0216982Y0265385D03*
X0216982Y0267354D03*
X0278793Y0267354D03*
X0278793Y0265385D03*
X0278793Y0263417D03*
X0278793Y0261448D03*
X0278793Y0259480D03*
X0278793Y0257511D03*
X0278793Y0255543D03*
X0278793Y0253574D03*
X0278793Y0251606D03*
X0278793Y0249637D03*
X0278793Y0247669D03*
X0278793Y0245700D03*
X0278793Y0243732D03*
X0278793Y0241763D03*
X0278793Y0239795D03*
X0278793Y0237826D03*
X0278793Y0235858D03*
X0278793Y0233889D03*
X0278793Y0231921D03*
X0278793Y0229952D03*
X0278793Y0227984D03*
X0278793Y0226015D03*
X0278793Y0224047D03*
X0278793Y0222078D03*
X0278793Y0220110D03*
D37*
X0271510Y0212826D03*
X0269541Y0212826D03*
X0267573Y0212826D03*
X0265604Y0212826D03*
X0263636Y0212826D03*
X0261667Y0212826D03*
X0259699Y0212826D03*
X0257730Y0212826D03*
X0255762Y0212826D03*
X0253793Y0212826D03*
X0251825Y0212826D03*
X0249856Y0212826D03*
X0247888Y0212826D03*
X0245919Y0212826D03*
X0243951Y0212826D03*
X0241982Y0212826D03*
X0240014Y0212826D03*
X0238045Y0212826D03*
X0236077Y0212826D03*
X0234108Y0212826D03*
X0232140Y0212826D03*
X0230171Y0212826D03*
X0228203Y0212826D03*
X0226234Y0212826D03*
X0224266Y0212826D03*
X0224266Y0274637D03*
X0226234Y0274637D03*
X0228203Y0274637D03*
X0230171Y0274637D03*
X0232140Y0274637D03*
X0234108Y0274637D03*
X0236077Y0274637D03*
X0238045Y0274637D03*
X0240014Y0274637D03*
X0241982Y0274637D03*
X0243951Y0274637D03*
X0245919Y0274637D03*
X0247888Y0274637D03*
X0249856Y0274637D03*
X0251825Y0274637D03*
X0253793Y0274637D03*
X0255762Y0274637D03*
X0257730Y0274637D03*
X0259699Y0274637D03*
X0261667Y0274637D03*
X0263636Y0274637D03*
X0265604Y0274637D03*
X0267573Y0274637D03*
X0269541Y0274637D03*
X0271510Y0274637D03*
D38*
X0295888Y0327732D03*
D39*
X0293148Y0205047D03*
X0300628Y0205047D03*
X0300628Y0194417D03*
X0296888Y0194417D03*
X0293148Y0194417D03*
D40*
X0311805Y0238649D02*
X0313971Y0238649D01*
X0311805Y0238649D02*
X0311805Y0240815D01*
X0313971Y0240815D01*
X0313971Y0238649D01*
X0313971Y0240813D02*
X0311805Y0240813D01*
X0193971Y0262649D02*
X0191805Y0262649D01*
X0191805Y0264815D01*
X0193971Y0264815D01*
X0193971Y0262649D01*
X0193971Y0264813D02*
X0191805Y0264813D01*
X0187971Y0269649D02*
X0185805Y0269649D01*
X0185805Y0271815D01*
X0187971Y0271815D01*
X0187971Y0269649D01*
X0187971Y0271813D02*
X0185805Y0271813D01*
X0185805Y0255649D02*
X0187971Y0255649D01*
X0185805Y0255649D02*
X0185805Y0257815D01*
X0187971Y0257815D01*
X0187971Y0255649D01*
X0187971Y0257813D02*
X0185805Y0257813D01*
X0185805Y0239649D02*
X0187971Y0239649D01*
X0185805Y0239649D02*
X0185805Y0241815D01*
X0187971Y0241815D01*
X0187971Y0239649D01*
X0187971Y0241813D02*
X0185805Y0241813D01*
X0264805Y0311649D02*
X0264805Y0313815D01*
X0266971Y0313815D01*
X0266971Y0311649D01*
X0264805Y0311649D01*
X0264805Y0313813D02*
X0266971Y0313813D01*
D41*
X1020486Y0270232D03*
X1020486Y0265232D03*
X1045289Y0265232D03*
X1045289Y0270232D03*
X1045289Y0250232D03*
X1045289Y0245232D03*
X1020486Y0245232D03*
X1020486Y0250232D03*
X1020486Y0230232D03*
X1020486Y0225232D03*
X1045289Y0225232D03*
X1045289Y0230232D03*
D42*
X1047388Y0300632D03*
X1052388Y0300632D03*
X1057388Y0300632D03*
X1062388Y0300632D03*
X1042388Y0300632D03*
X1037388Y0300632D03*
X1032388Y0300632D03*
X1027388Y0300632D03*
X1105888Y0300632D03*
X1110888Y0300632D03*
X1115888Y0300632D03*
X1120888Y0300632D03*
X1125888Y0300632D03*
X1130888Y0300632D03*
X1135888Y0300632D03*
X1135888Y0330832D03*
X1130888Y0330832D03*
X1125888Y0330832D03*
X1120888Y0330832D03*
X1115888Y0330832D03*
X1110888Y0330832D03*
X1105888Y0330832D03*
X1062388Y0330832D03*
X1057388Y0330832D03*
X1052388Y0330832D03*
X1047388Y0330832D03*
X1042388Y0330832D03*
X1037388Y0330832D03*
X1032388Y0330832D03*
X1027388Y0330832D03*
D43*
X0814124Y0078141D03*
X0814124Y0067511D03*
X0814124Y0058062D03*
X0814124Y0047433D03*
D44*
X0824163Y0050582D03*
X0824163Y0074992D03*
D45*
X0824656Y0067905D03*
X0824656Y0065346D03*
X0824656Y0062787D03*
X0824656Y0060228D03*
X0824656Y0057669D03*
D46*
X1046888Y0341810D03*
X1046888Y0351653D03*
D47*
X1219967Y0303732D03*
X1229809Y0303732D03*
X1235967Y0275732D03*
X1245809Y0275732D03*
X1051809Y0288732D03*
X1041967Y0288732D03*
X0263809Y0069732D03*
X0253967Y0069732D03*
X0158809Y0052732D03*
X0148967Y0052732D03*
D48*
X0140762Y0047570D03*
X0140762Y0045118D03*
X0140762Y0042452D03*
X0140762Y0039893D03*
X0125014Y0039893D03*
X0125014Y0042452D03*
X0125014Y0045011D03*
X0125014Y0047570D03*
D49*
X0156888Y0257370D03*
X0344888Y0257370D03*
X0448888Y0257370D03*
X0552888Y0257370D03*
X0656888Y0257370D03*
D50*
X0240557Y0063472D03*
X0240557Y0055992D03*
X0249219Y0059732D03*
D51*
X0759990Y0098220D03*
X0759990Y0108062D03*
X0779675Y0117905D03*
X0759990Y0127747D03*
X0759990Y0137590D03*
X0759990Y0157275D03*
X0759990Y0167118D03*
X0779675Y0176960D03*
X0759990Y0186803D03*
X0759990Y0196645D03*
X0759990Y0216330D03*
X0759990Y0226173D03*
X0779675Y0236015D03*
X0759990Y0245858D03*
X0759990Y0255700D03*
X0759990Y0275385D03*
X0759990Y0285228D03*
X0779675Y0295070D03*
X0759990Y0304913D03*
X0759990Y0314755D03*
X0759990Y0334440D03*
X0759990Y0344283D03*
X0779675Y0354125D03*
X0759990Y0363968D03*
X0759990Y0373810D03*
D52*
X0676888Y0339732D03*
X0668888Y0339732D03*
X0660888Y0339732D03*
X0652888Y0339732D03*
X0572888Y0335732D03*
X0564888Y0335732D03*
X0556888Y0335732D03*
X0548888Y0335732D03*
X0468888Y0335732D03*
X0460888Y0335732D03*
X0452888Y0335732D03*
X0444888Y0335732D03*
X0376888Y0335732D03*
X0368888Y0335732D03*
X0360888Y0335732D03*
X0352888Y0335732D03*
X0352888Y0303732D03*
X0360888Y0303732D03*
X0368888Y0303732D03*
X0376888Y0303732D03*
X0448888Y0287732D03*
X0456888Y0287732D03*
X0464888Y0287732D03*
X0472888Y0287732D03*
X0548888Y0287732D03*
X0556888Y0287732D03*
X0564888Y0287732D03*
X0572888Y0287732D03*
X0612888Y0283732D03*
X0612888Y0275732D03*
X0612888Y0267732D03*
X0612888Y0259732D03*
X0612888Y0251732D03*
X0888888Y0347732D03*
X0940888Y0315732D03*
X1012888Y0351732D03*
X1067888Y0300732D03*
X1141888Y0300732D03*
X1169888Y0297732D03*
X1181888Y0256732D03*
X0572888Y0113196D03*
X0536888Y0059732D03*
X0528888Y0059732D03*
X0508888Y0055732D03*
X0520888Y0051732D03*
X0540888Y0039732D03*
X0544888Y0035732D03*
X0540888Y0031732D03*
X0544888Y0027732D03*
X0536888Y0023732D03*
X0532888Y0027732D03*
X0528888Y0023732D03*
X0524888Y0027732D03*
X0520888Y0023732D03*
X0516888Y0027732D03*
X0512888Y0023732D03*
X0508888Y0027732D03*
X0504888Y0023732D03*
X0500888Y0027732D03*
X0491888Y0058732D03*
X0485888Y0058732D03*
X0479888Y0058732D03*
X0284888Y0123732D03*
X0244888Y0171732D03*
X0236888Y0171732D03*
X0228888Y0171732D03*
X0220888Y0171732D03*
X0212888Y0171732D03*
X0224888Y0179732D03*
X0232888Y0179732D03*
X0224888Y0191732D03*
X0252888Y0191732D03*
X0277888Y0209732D03*
X0284888Y0209732D03*
X0308888Y0234732D03*
X0264888Y0247732D03*
X0228888Y0231732D03*
X0192888Y0235732D03*
X0192888Y0251732D03*
X0224888Y0295732D03*
X0248888Y0295732D03*
X0200888Y0331732D03*
X0192888Y0331732D03*
X0184888Y0331732D03*
X0176888Y0331732D03*
X0168888Y0331732D03*
X0160888Y0331732D03*
X0160888Y0347732D03*
X0168888Y0347732D03*
X0176888Y0347732D03*
X0184888Y0347732D03*
X0192888Y0347732D03*
X0200888Y0347732D03*
X0142888Y0072732D03*
X0207888Y0063732D03*
X0174888Y0043732D03*
X0908888Y0031732D03*
X0912888Y0027732D03*
X0916888Y0031732D03*
X0920888Y0027732D03*
X0924888Y0031732D03*
X0928888Y0027732D03*
X0932888Y0031732D03*
X0936888Y0035732D03*
X0940888Y0031732D03*
X0944888Y0035732D03*
X0944888Y0027732D03*
X0936888Y0027732D03*
M02*
