G75*
%MOIN*%
%OFA0B0*%
%FSLAX25Y25*%
%IPPOS*%
%LPD*%
%AMOC8*
5,1,8,0,0,1.08239X$1,22.5*
%
%ADD10C,0.05906*%
%ADD11C,0.04800*%
%ADD12C,0.04724*%
%ADD13C,0.05315*%
%ADD14C,0.16535*%
%ADD15C,0.07677*%
%ADD16C,0.02756*%
%ADD17C,0.03937*%
%ADD18C,0.03500*%
%ADD19C,0.01200*%
D10*
X0052037Y0047472D03*
X0082037Y0047472D03*
X0082037Y0057472D03*
X0082037Y0067472D03*
X0082037Y0077472D03*
X0082037Y0087472D03*
X0082037Y0097472D03*
X0082037Y0107472D03*
X0082037Y0117472D03*
X0052037Y0117472D03*
X0052037Y0087472D03*
X0052037Y0077472D03*
X0295888Y0287732D03*
X0305888Y0287732D03*
X0305888Y0297732D03*
X0295888Y0297732D03*
X0295888Y0307732D03*
X0305888Y0307732D03*
X0305888Y0317732D03*
X0295888Y0317732D03*
X0295888Y0327732D03*
X0305888Y0327732D03*
X0831565Y0323692D03*
X0831565Y0313692D03*
X0861565Y0313692D03*
X0861565Y0303692D03*
X0861565Y0293692D03*
X0861565Y0283692D03*
X0831565Y0283692D03*
X0861565Y0323692D03*
X0861565Y0333692D03*
X0861565Y0343692D03*
X0861565Y0353692D03*
X0831565Y0353692D03*
D11*
X0884888Y0319732D03*
X0894888Y0319732D03*
X0104951Y0084732D03*
X0104951Y0074732D03*
X0666888Y0047732D03*
X0686888Y0047732D03*
X0846888Y0067732D03*
X0866888Y0067732D03*
D12*
X0928888Y0048653D03*
X0928888Y0038810D03*
X0779281Y0069598D03*
X0779281Y0079598D03*
X0752037Y0045228D03*
X0742037Y0035228D03*
X0732037Y0035228D03*
X0722037Y0035228D03*
X0762037Y0035228D03*
X0632825Y0035795D03*
X0624951Y0035795D03*
X0624951Y0043669D03*
X0632825Y0043669D03*
X0510888Y0038810D03*
X0510888Y0048653D03*
X0534746Y0112732D03*
X0534746Y0122574D03*
X0490888Y0123732D03*
X0470888Y0123732D03*
X0480888Y0133732D03*
X0508888Y0193732D03*
X0518888Y0203732D03*
X0498888Y0203732D03*
X0115266Y0224204D03*
X0105266Y0224204D03*
X0095266Y0224204D03*
X0075266Y0224204D03*
X0085266Y0214204D03*
X0085266Y0253574D03*
X0095266Y0263574D03*
X0105266Y0263574D03*
X0115266Y0263574D03*
X0075266Y0263574D03*
X0085266Y0292944D03*
X0095266Y0302944D03*
X0105266Y0302944D03*
X0115266Y0302944D03*
X0075266Y0302944D03*
X0085266Y0351999D03*
X0095266Y0361999D03*
X0105266Y0361999D03*
X0115266Y0361999D03*
X0137203Y0363669D03*
X0145077Y0363669D03*
X0152951Y0363669D03*
X0160825Y0363669D03*
X0168699Y0363669D03*
X0176573Y0363669D03*
X0176573Y0355795D03*
X0168699Y0355795D03*
X0160825Y0355795D03*
X0152951Y0355795D03*
X0145077Y0355795D03*
X0137203Y0355795D03*
X0075266Y0361999D03*
X0325203Y0363669D03*
X0333077Y0363669D03*
X0340951Y0363669D03*
X0348825Y0363669D03*
X0356699Y0363669D03*
X0364573Y0363669D03*
X0364573Y0355795D03*
X0356699Y0355795D03*
X0348825Y0355795D03*
X0340951Y0355795D03*
X0333077Y0355795D03*
X0325203Y0355795D03*
X0429203Y0355795D03*
X0437077Y0355795D03*
X0444951Y0355795D03*
X0452825Y0355795D03*
X0460699Y0355795D03*
X0468573Y0355795D03*
X0468573Y0363669D03*
X0460699Y0363669D03*
X0452825Y0363669D03*
X0444951Y0363669D03*
X0437077Y0363669D03*
X0429203Y0363669D03*
X0533203Y0363669D03*
X0541077Y0363669D03*
X0548951Y0363669D03*
X0556825Y0363669D03*
X0564699Y0363669D03*
X0572573Y0363669D03*
X0572573Y0355795D03*
X0564699Y0355795D03*
X0556825Y0355795D03*
X0548951Y0355795D03*
X0541077Y0355795D03*
X0533203Y0355795D03*
X0637203Y0355795D03*
X0645077Y0355795D03*
X0652951Y0355795D03*
X0660825Y0355795D03*
X0668699Y0355795D03*
X0676573Y0355795D03*
X0676573Y0363669D03*
X0668699Y0363669D03*
X0660825Y0363669D03*
X0652951Y0363669D03*
X0645077Y0363669D03*
X0637203Y0363669D03*
X0988951Y0255606D03*
X0996825Y0255606D03*
X0996825Y0247732D03*
X0988951Y0247732D03*
X0988951Y0239858D03*
X0996825Y0239858D03*
X1243848Y0294007D03*
X1243848Y0304007D03*
X1226447Y0354125D03*
X1206447Y0354125D03*
X1196447Y0354125D03*
X1186447Y0354125D03*
X1216447Y0364125D03*
X0256888Y0040653D03*
X0256888Y0030810D03*
D13*
X0220888Y0034732D03*
X0168888Y0035732D03*
X0292888Y0048732D03*
X0328888Y0047732D03*
X0328888Y0039732D03*
X0456888Y0083732D03*
X0512888Y0087732D03*
X0616888Y0119732D03*
X0580888Y0135732D03*
X0616888Y0147732D03*
X0528888Y0151732D03*
X0420888Y0135732D03*
X0468888Y0199732D03*
X0172888Y0131732D03*
X0576888Y0035732D03*
X0584888Y0047732D03*
X0938888Y0083732D03*
X0968888Y0083732D03*
X0978888Y0083732D03*
X0988888Y0083732D03*
X0998888Y0083732D03*
X1008888Y0083732D03*
X1018888Y0083732D03*
X1028888Y0083732D03*
X1038888Y0083732D03*
X1048888Y0083732D03*
X1058888Y0083732D03*
X1068888Y0083732D03*
X1078888Y0083732D03*
X1088888Y0083732D03*
X1098888Y0083732D03*
X1108888Y0083732D03*
X1118888Y0083732D03*
X1128888Y0083732D03*
X1138888Y0083732D03*
X1148888Y0083732D03*
X1158888Y0083732D03*
X1168888Y0083732D03*
X1178888Y0083732D03*
X1188888Y0083732D03*
X1198888Y0083732D03*
X1208888Y0083732D03*
X1218888Y0083732D03*
X1228888Y0083732D03*
X1238888Y0083732D03*
X1238888Y0093732D03*
X1228888Y0093732D03*
X1218888Y0093732D03*
X1208888Y0093732D03*
X1198888Y0093732D03*
X1188888Y0093732D03*
X1178888Y0093732D03*
X1168888Y0093732D03*
X1158888Y0093732D03*
X1148888Y0093732D03*
X1138888Y0093732D03*
X1128888Y0093732D03*
X1118888Y0093732D03*
X1108888Y0093732D03*
X1098888Y0093732D03*
X1088888Y0093732D03*
X1078888Y0093732D03*
X1068888Y0093732D03*
X1058888Y0093732D03*
X1048888Y0093732D03*
X1038888Y0093732D03*
X1028888Y0093732D03*
X1018888Y0093732D03*
X1008888Y0093732D03*
X0998888Y0093732D03*
X0988888Y0093732D03*
X0978888Y0093732D03*
X0968888Y0093732D03*
X0938888Y0093732D03*
X0938888Y0103732D03*
X0968888Y0103732D03*
X0978888Y0103732D03*
X0988888Y0103732D03*
X0998888Y0103732D03*
X1008888Y0103732D03*
X1018888Y0103732D03*
X1028888Y0103732D03*
X1038888Y0103732D03*
X1048888Y0103732D03*
X1058888Y0103732D03*
X1068888Y0103732D03*
X1078888Y0103732D03*
X1088888Y0103732D03*
X1098888Y0103732D03*
X1108888Y0103732D03*
X1118888Y0103732D03*
X1128888Y0103732D03*
X1138888Y0103732D03*
X1148888Y0103732D03*
X1158888Y0103732D03*
X1168888Y0103732D03*
X1178888Y0103732D03*
X1188888Y0103732D03*
X1198888Y0103732D03*
X1208888Y0103732D03*
X1218888Y0103732D03*
X1228888Y0103732D03*
X1238888Y0103732D03*
X1238888Y0113732D03*
X1228888Y0113732D03*
X1218888Y0113732D03*
X1208888Y0113732D03*
X1198888Y0113732D03*
X1188888Y0113732D03*
X1178888Y0113732D03*
X1168888Y0113732D03*
X1158888Y0113732D03*
X1148888Y0113732D03*
X1138888Y0113732D03*
X1128888Y0113732D03*
X1118888Y0113732D03*
X1108888Y0113732D03*
X1098888Y0113732D03*
X1088888Y0113732D03*
X1078888Y0113732D03*
X1068888Y0113732D03*
X1058888Y0113732D03*
X1048888Y0113732D03*
X1038888Y0113732D03*
X1028888Y0113732D03*
X1018888Y0113732D03*
X1008888Y0113732D03*
X0998888Y0113732D03*
X0988888Y0113732D03*
X0978888Y0113732D03*
X0968888Y0113732D03*
X0968888Y0123732D03*
X0978888Y0123732D03*
X0988888Y0123732D03*
X0998888Y0123732D03*
X1008888Y0123732D03*
X1018888Y0123732D03*
X1028888Y0123732D03*
X1038888Y0123732D03*
X1048888Y0123732D03*
X1058888Y0123732D03*
X1068888Y0123732D03*
X1078888Y0123732D03*
X1088888Y0123732D03*
X1098888Y0123732D03*
X1108888Y0123732D03*
X1118888Y0123732D03*
X1128888Y0123732D03*
X1138888Y0123732D03*
X1148888Y0123732D03*
X1158888Y0123732D03*
X1168888Y0123732D03*
X1178888Y0123732D03*
X1188888Y0123732D03*
X1198888Y0123732D03*
X1208888Y0123732D03*
X1218888Y0123732D03*
X1228888Y0123732D03*
X1238888Y0123732D03*
X1238888Y0133732D03*
X1228888Y0133732D03*
X1218888Y0133732D03*
X1208888Y0133732D03*
X1198888Y0133732D03*
X1188888Y0133732D03*
X1178888Y0133732D03*
X1168888Y0133732D03*
X1158888Y0133732D03*
X1148888Y0133732D03*
X1138888Y0133732D03*
X1128888Y0133732D03*
X1118888Y0133732D03*
X1108888Y0133732D03*
X1098888Y0133732D03*
X1088888Y0133732D03*
X1078888Y0133732D03*
X1068888Y0133732D03*
X1058888Y0133732D03*
X1048888Y0133732D03*
X1038888Y0133732D03*
X1028888Y0133732D03*
X1018888Y0133732D03*
X1008888Y0133732D03*
X0998888Y0133732D03*
X0988888Y0133732D03*
X0978888Y0133732D03*
X0968888Y0133732D03*
X0968888Y0143732D03*
X0978888Y0143732D03*
X0988888Y0143732D03*
X0998888Y0143732D03*
X1008888Y0143732D03*
X1018888Y0143732D03*
X1028888Y0143732D03*
X1038888Y0143732D03*
X1048888Y0143732D03*
X1058888Y0143732D03*
X1068888Y0143732D03*
X1078888Y0143732D03*
X1088888Y0143732D03*
X1098888Y0143732D03*
X1108888Y0143732D03*
X1118888Y0143732D03*
X1128888Y0143732D03*
X1138888Y0143732D03*
X1148888Y0143732D03*
X1158888Y0143732D03*
X1168888Y0143732D03*
X1178888Y0143732D03*
X1188888Y0143732D03*
X1198888Y0143732D03*
X1208888Y0143732D03*
X1218888Y0143732D03*
X1228888Y0143732D03*
X1238888Y0143732D03*
X1238888Y0153732D03*
X1228888Y0153732D03*
X1218888Y0153732D03*
X1208888Y0153732D03*
X1198888Y0153732D03*
X1188888Y0153732D03*
X1178888Y0153732D03*
X1168888Y0153732D03*
X1158888Y0153732D03*
X1148888Y0153732D03*
X1138888Y0153732D03*
X1128888Y0153732D03*
X1118888Y0153732D03*
X1108888Y0153732D03*
X1098888Y0153732D03*
X1088888Y0153732D03*
X1078888Y0153732D03*
X1068888Y0153732D03*
X1058888Y0153732D03*
X1048888Y0153732D03*
X1038888Y0153732D03*
X1028888Y0153732D03*
X1018888Y0153732D03*
X1008888Y0153732D03*
X0998888Y0153732D03*
X0988888Y0153732D03*
X0978888Y0153732D03*
X0968888Y0153732D03*
X0968888Y0163732D03*
X0978888Y0163732D03*
X0988888Y0163732D03*
X0998888Y0163732D03*
X1008888Y0163732D03*
X1018888Y0163732D03*
X1028888Y0163732D03*
X1038888Y0163732D03*
X1048888Y0163732D03*
X1058888Y0163732D03*
X1068888Y0163732D03*
X1078888Y0163732D03*
X1088888Y0163732D03*
X1098888Y0163732D03*
X1108888Y0163732D03*
X1118888Y0163732D03*
X1128888Y0163732D03*
X1138888Y0163732D03*
X1148888Y0163732D03*
X1158888Y0163732D03*
X1168888Y0163732D03*
X1178888Y0163732D03*
X1188888Y0163732D03*
X1198888Y0163732D03*
X1208888Y0163732D03*
X1218888Y0163732D03*
X1228888Y0163732D03*
X1238888Y0163732D03*
X1238888Y0173732D03*
X1228888Y0173732D03*
X1218888Y0173732D03*
X1208888Y0173732D03*
X1198888Y0173732D03*
X1188888Y0173732D03*
X1178888Y0173732D03*
X1168888Y0173732D03*
X1158888Y0173732D03*
X1148888Y0173732D03*
X1138888Y0173732D03*
X1128888Y0173732D03*
X1118888Y0173732D03*
X1108888Y0173732D03*
X1098888Y0173732D03*
X1088888Y0173732D03*
X1078888Y0173732D03*
X1068888Y0173732D03*
X1058888Y0173732D03*
X1048888Y0173732D03*
X1038888Y0173732D03*
X1028888Y0173732D03*
X1018888Y0173732D03*
X1008888Y0173732D03*
X0998888Y0173732D03*
X0988888Y0173732D03*
X0978888Y0173732D03*
X0968888Y0173732D03*
X0968888Y0183732D03*
X0978888Y0183732D03*
X0988888Y0183732D03*
X0998888Y0183732D03*
X1008888Y0183732D03*
X1018888Y0183732D03*
X1028888Y0183732D03*
X1038888Y0183732D03*
X1048888Y0183732D03*
X1058888Y0183732D03*
X1068888Y0183732D03*
X1078888Y0183732D03*
X1088888Y0183732D03*
X1098888Y0183732D03*
X1108888Y0183732D03*
X1118888Y0183732D03*
X1128888Y0183732D03*
X1138888Y0183732D03*
X1148888Y0183732D03*
X1158888Y0183732D03*
X1168888Y0183732D03*
X1178888Y0183732D03*
X1188888Y0183732D03*
X1198888Y0183732D03*
X1208888Y0183732D03*
X1218888Y0183732D03*
X1228888Y0183732D03*
X1238888Y0183732D03*
X1238888Y0193732D03*
X1228888Y0193732D03*
X1218888Y0193732D03*
X1208888Y0193732D03*
X1198888Y0193732D03*
X1188888Y0193732D03*
X1178888Y0193732D03*
X1168888Y0193732D03*
X1158888Y0193732D03*
X1148888Y0193732D03*
X1138888Y0193732D03*
X1128888Y0193732D03*
X1118888Y0193732D03*
X1108888Y0193732D03*
X1098888Y0193732D03*
X1088888Y0193732D03*
X1078888Y0193732D03*
X1068888Y0193732D03*
X1058888Y0193732D03*
X1048888Y0193732D03*
X1038888Y0193732D03*
X1028888Y0193732D03*
X1018888Y0193732D03*
X1008888Y0193732D03*
X0998888Y0193732D03*
X0988888Y0193732D03*
X0978888Y0193732D03*
X0968888Y0193732D03*
X0938888Y0193732D03*
X0938888Y0183732D03*
X0938888Y0203732D03*
X0968888Y0203732D03*
X0978888Y0203732D03*
X0988888Y0203732D03*
X0998888Y0203732D03*
X1008888Y0203732D03*
X1018888Y0203732D03*
X1028888Y0203732D03*
X1038888Y0203732D03*
X1048888Y0203732D03*
X1058888Y0203732D03*
X1068888Y0203732D03*
X1078888Y0203732D03*
X1088888Y0203732D03*
X1098888Y0203732D03*
X1108888Y0203732D03*
X1118888Y0203732D03*
X1128888Y0203732D03*
X1138888Y0203732D03*
X1148888Y0203732D03*
X1158888Y0203732D03*
X1168888Y0203732D03*
X1178888Y0203732D03*
X1188888Y0203732D03*
X1198888Y0203732D03*
X1208888Y0203732D03*
X1218888Y0203732D03*
X1228888Y0203732D03*
X1238888Y0203732D03*
X1120888Y0239732D03*
X0920888Y0303732D03*
D14*
X0826132Y0239952D03*
X0046604Y0161212D03*
D15*
X0759990Y0157275D03*
X0759990Y0167118D03*
X0779675Y0176960D03*
X0759990Y0186803D03*
X0759990Y0196645D03*
X0759990Y0216330D03*
X0759990Y0226173D03*
X0779675Y0236015D03*
X0759990Y0245858D03*
X0759990Y0255700D03*
X0759990Y0275385D03*
X0759990Y0285228D03*
X0779675Y0295070D03*
X0759990Y0304913D03*
X0759990Y0314755D03*
X0759990Y0334440D03*
X0759990Y0344283D03*
X0779675Y0354125D03*
X0759990Y0363968D03*
X0759990Y0373810D03*
X0759990Y0137590D03*
X0759990Y0127747D03*
X0779675Y0117905D03*
X0759990Y0108062D03*
X0759990Y0098220D03*
D16*
X0124888Y0035732D03*
X0118888Y0042732D03*
X0132888Y0043732D03*
X0163888Y0052732D03*
X0223888Y0047732D03*
X0280888Y0063732D03*
X0280888Y0076732D03*
X0272888Y0092732D03*
X0246888Y0097732D03*
X0242888Y0107732D03*
X0242888Y0112732D03*
X0252888Y0122732D03*
X0220888Y0123732D03*
X0198888Y0117732D03*
X0156888Y0115732D03*
X0152888Y0129732D03*
X0120888Y0135732D03*
X0096888Y0129732D03*
X0084888Y0125732D03*
X0069888Y0128732D03*
X0152888Y0091732D03*
X0156888Y0081732D03*
X0220888Y0076732D03*
X0227888Y0083732D03*
X0199888Y0102732D03*
X0208888Y0139732D03*
X0157888Y0178732D03*
X0172888Y0180732D03*
X0141888Y0178732D03*
X0132888Y0180732D03*
X0114888Y0180732D03*
X0104888Y0179732D03*
X0083888Y0184732D03*
X0093888Y0195732D03*
X0132888Y0191732D03*
X0146888Y0211732D03*
X0149888Y0214732D03*
X0153888Y0214732D03*
X0157888Y0216732D03*
X0204888Y0227732D03*
X0231888Y0220732D03*
X0259888Y0219732D03*
X0261888Y0223732D03*
X0261888Y0229732D03*
X0267888Y0232732D03*
X0269888Y0235732D03*
X0271888Y0243732D03*
X0266888Y0254732D03*
X0269888Y0257732D03*
X0263888Y0260732D03*
X0287888Y0255732D03*
X0292888Y0255732D03*
X0297888Y0255732D03*
X0306888Y0258732D03*
X0297888Y0250732D03*
X0224888Y0251732D03*
X0224888Y0243732D03*
X0309888Y0273732D03*
X0280888Y0279732D03*
X0270888Y0281732D03*
X0260888Y0281732D03*
X0280888Y0293732D03*
X0233888Y0281732D03*
X0187888Y0295732D03*
X0088888Y0325732D03*
X0129888Y0331732D03*
X0160888Y0368732D03*
X0152888Y0371732D03*
X0148988Y0374732D03*
X0144888Y0377732D03*
X0141188Y0380732D03*
X0255888Y0360732D03*
X0260888Y0357732D03*
X0263888Y0359732D03*
X0266888Y0357732D03*
X0270888Y0359732D03*
X0274888Y0357732D03*
X0270888Y0368732D03*
X0266888Y0371732D03*
X0260888Y0377732D03*
X0263888Y0380732D03*
X0274888Y0374732D03*
X0329188Y0380732D03*
X0332888Y0377732D03*
X0336988Y0374732D03*
X0340888Y0371732D03*
X0348888Y0368732D03*
X0433188Y0380732D03*
X0436888Y0377732D03*
X0440988Y0374732D03*
X0444888Y0371732D03*
X0452888Y0368732D03*
X0500888Y0374732D03*
X0504888Y0371732D03*
X0537088Y0380732D03*
X0540888Y0377732D03*
X0544988Y0374732D03*
X0548888Y0371732D03*
X0556888Y0368732D03*
X0600888Y0380732D03*
X0644888Y0377732D03*
X0649188Y0380732D03*
X0652888Y0371732D03*
X0656888Y0374732D03*
X0660888Y0368732D03*
X0600888Y0343732D03*
X0680888Y0319732D03*
X0692888Y0315732D03*
X0688888Y0311732D03*
X0676888Y0287732D03*
X0688888Y0279732D03*
X0685888Y0275732D03*
X0672888Y0227732D03*
X0684888Y0219732D03*
X0696888Y0211732D03*
X0700888Y0207732D03*
X0708888Y0203732D03*
X0704888Y0199732D03*
X0634888Y0203732D03*
X0604888Y0210732D03*
X0584888Y0207732D03*
X0562888Y0207732D03*
X0547888Y0198232D03*
X0559888Y0191732D03*
X0592888Y0186732D03*
X0604888Y0181732D03*
X0634888Y0187732D03*
X0607888Y0192732D03*
X0600888Y0198732D03*
X0595888Y0192732D03*
X0551888Y0176732D03*
X0554888Y0173732D03*
X0551888Y0170732D03*
X0544439Y0165708D03*
X0556888Y0162732D03*
X0572888Y0151732D03*
X0593888Y0148732D03*
X0612888Y0143732D03*
X0636888Y0144732D03*
X0646888Y0150732D03*
X0655888Y0150732D03*
X0661888Y0136732D03*
X0667888Y0136732D03*
X0684888Y0130732D03*
X0688888Y0127732D03*
X0692888Y0126732D03*
X0696888Y0121732D03*
X0704888Y0111732D03*
X0708888Y0107732D03*
X0668888Y0102732D03*
X0643888Y0108732D03*
X0636888Y0108732D03*
X0652888Y0117732D03*
X0649888Y0121732D03*
X0652888Y0125732D03*
X0630888Y0127732D03*
X0636888Y0135732D03*
X0607888Y0132732D03*
X0596888Y0135196D03*
X0567888Y0140732D03*
X0515888Y0159732D03*
X0504888Y0163732D03*
X0520888Y0171732D03*
X0517888Y0177732D03*
X0495888Y0177732D03*
X0504888Y0183732D03*
X0531888Y0170732D03*
X0577888Y0166732D03*
X0614888Y0167732D03*
X0636888Y0171732D03*
X0661888Y0171732D03*
X0667888Y0171732D03*
X0672888Y0167732D03*
X0676888Y0164732D03*
X0680888Y0162732D03*
X0700888Y0158732D03*
X0660888Y0111732D03*
X0548888Y0112732D03*
X0498935Y0114519D03*
X0500888Y0128732D03*
X0461888Y0135732D03*
X0440888Y0140732D03*
X0472888Y0149732D03*
X0452888Y0115732D03*
X0448888Y0107732D03*
X0440888Y0108732D03*
X0427888Y0118732D03*
X0544888Y0056732D03*
X0744888Y0079732D03*
X0313888Y0214732D03*
X0316888Y0217732D03*
X0319888Y0220732D03*
X0322888Y0223732D03*
X0288888Y0186732D03*
X0288888Y0182732D03*
X0292888Y0182732D03*
X0317888Y0315732D03*
X0500888Y0338732D03*
X0504888Y0341732D03*
X1005888Y0264732D03*
X1051888Y0281732D03*
X1036888Y0306732D03*
X1125888Y0292732D03*
X1130888Y0263732D03*
X1072888Y0251732D03*
X1056888Y0237732D03*
X1227888Y0272732D03*
X1235888Y0267732D03*
X1144888Y0319732D03*
X1168888Y0323732D03*
X1132888Y0339732D03*
X1115888Y0355732D03*
X1062888Y0339732D03*
X1057888Y0339732D03*
X1052888Y0339732D03*
X1041888Y0351732D03*
X1224888Y0323732D03*
D17*
X1169888Y0297732D03*
X1141888Y0300732D03*
X1067888Y0300732D03*
X0940888Y0315732D03*
X0888888Y0347732D03*
X1012888Y0351732D03*
X1181888Y0256732D03*
X0676888Y0339732D03*
X0668888Y0339732D03*
X0660888Y0339732D03*
X0652888Y0339732D03*
X0572888Y0335732D03*
X0564888Y0335732D03*
X0556888Y0335732D03*
X0548888Y0335732D03*
X0468888Y0335732D03*
X0460888Y0335732D03*
X0452888Y0335732D03*
X0444888Y0335732D03*
X0376888Y0335732D03*
X0368888Y0335732D03*
X0360888Y0335732D03*
X0352888Y0335732D03*
X0352888Y0303732D03*
X0360888Y0303732D03*
X0368888Y0303732D03*
X0376888Y0303732D03*
X0448888Y0287732D03*
X0456888Y0287732D03*
X0464888Y0287732D03*
X0472888Y0287732D03*
X0548888Y0287732D03*
X0556888Y0287732D03*
X0564888Y0287732D03*
X0572888Y0287732D03*
X0612888Y0283732D03*
X0612888Y0275732D03*
X0612888Y0267732D03*
X0612888Y0259732D03*
X0612888Y0251732D03*
X0308888Y0234732D03*
X0264888Y0247732D03*
X0228888Y0231732D03*
X0192888Y0235732D03*
X0192888Y0251732D03*
X0224888Y0295732D03*
X0248888Y0295732D03*
X0200888Y0331732D03*
X0192888Y0331732D03*
X0184888Y0331732D03*
X0176888Y0331732D03*
X0168888Y0331732D03*
X0160888Y0331732D03*
X0160888Y0347732D03*
X0168888Y0347732D03*
X0176888Y0347732D03*
X0184888Y0347732D03*
X0192888Y0347732D03*
X0200888Y0347732D03*
X0277888Y0209732D03*
X0284888Y0209732D03*
X0252888Y0191732D03*
X0224888Y0191732D03*
X0224888Y0179732D03*
X0232888Y0179732D03*
X0236888Y0171732D03*
X0244888Y0171732D03*
X0228888Y0171732D03*
X0220888Y0171732D03*
X0212888Y0171732D03*
X0284888Y0123732D03*
X0142888Y0072732D03*
X0207888Y0063732D03*
X0174888Y0043732D03*
X0479888Y0058732D03*
X0485888Y0058732D03*
X0491888Y0058732D03*
X0508888Y0055732D03*
X0520888Y0051732D03*
X0528888Y0059732D03*
X0536888Y0059732D03*
X0540888Y0039732D03*
X0544888Y0035732D03*
X0540888Y0031732D03*
X0544888Y0027732D03*
X0536888Y0023732D03*
X0532888Y0027732D03*
X0528888Y0023732D03*
X0524888Y0027732D03*
X0520888Y0023732D03*
X0516888Y0027732D03*
X0512888Y0023732D03*
X0508888Y0027732D03*
X0504888Y0023732D03*
X0500888Y0027732D03*
X0572888Y0113196D03*
X0908888Y0031732D03*
X0912888Y0027732D03*
X0916888Y0031732D03*
X0920888Y0027732D03*
X0924888Y0031732D03*
X0928888Y0027732D03*
X0932888Y0031732D03*
X0936888Y0035732D03*
X0940888Y0031732D03*
X0944888Y0035732D03*
X0944888Y0027732D03*
X0936888Y0027732D03*
D18*
X0632825Y0035795D02*
X0624951Y0035795D01*
X0624888Y0023732D01*
X0616888Y0015732D01*
X0448888Y0015732D01*
X0424888Y0039732D01*
X0328888Y0039732D01*
X0576888Y0035732D02*
X0624888Y0035732D01*
X0632825Y0035795D01*
D19*
X0547866Y0056139D02*
X0547866Y0057324D01*
X0547412Y0058419D01*
X0546575Y0059256D01*
X0545480Y0059710D01*
X0544295Y0059710D01*
X0543201Y0059256D01*
X0542363Y0058419D01*
X0541910Y0057324D01*
X0541910Y0056139D01*
X0542079Y0055732D01*
X0512456Y0055732D01*
X0512456Y0056442D01*
X0511913Y0057753D01*
X0510909Y0058757D01*
X0509598Y0059300D01*
X0508178Y0059300D01*
X0506866Y0058757D01*
X0505863Y0057753D01*
X0505319Y0056442D01*
X0505319Y0055732D01*
X0320888Y0055732D01*
X0320888Y0163732D01*
X0076888Y0163732D01*
X0076888Y0187732D01*
X0031456Y0187732D01*
X0031456Y0375732D01*
X0142676Y0375732D01*
X0143201Y0375207D01*
X0144295Y0374754D01*
X0145480Y0374754D01*
X0146010Y0374973D01*
X0146010Y0374139D01*
X0146463Y0373045D01*
X0147301Y0372207D01*
X0148395Y0371754D01*
X0149580Y0371754D01*
X0149910Y0371890D01*
X0149910Y0371139D01*
X0150363Y0370045D01*
X0151201Y0369207D01*
X0152295Y0368754D01*
X0153480Y0368754D01*
X0154575Y0369207D01*
X0155412Y0370045D01*
X0155866Y0371139D01*
X0155866Y0372324D01*
X0155412Y0373419D01*
X0154575Y0374256D01*
X0153480Y0374710D01*
X0152295Y0374710D01*
X0151966Y0374573D01*
X0151966Y0375324D01*
X0151797Y0375732D01*
X0258676Y0375732D01*
X0259201Y0375207D01*
X0260295Y0374754D01*
X0261480Y0374754D01*
X0262575Y0375207D01*
X0263099Y0375732D01*
X0272079Y0375732D01*
X0271910Y0375324D01*
X0271910Y0374139D01*
X0272363Y0373045D01*
X0273201Y0372207D01*
X0274295Y0371754D01*
X0275480Y0371754D01*
X0276575Y0372207D01*
X0277412Y0373045D01*
X0277866Y0374139D01*
X0277866Y0375324D01*
X0277697Y0375732D01*
X0330676Y0375732D01*
X0331201Y0375207D01*
X0332295Y0374754D01*
X0333480Y0374754D01*
X0334010Y0374973D01*
X0334010Y0374139D01*
X0334463Y0373045D01*
X0335301Y0372207D01*
X0336395Y0371754D01*
X0337580Y0371754D01*
X0337910Y0371890D01*
X0337910Y0371139D01*
X0338363Y0370045D01*
X0339201Y0369207D01*
X0340295Y0368754D01*
X0341480Y0368754D01*
X0342575Y0369207D01*
X0343412Y0370045D01*
X0343866Y0371139D01*
X0343866Y0372324D01*
X0343412Y0373419D01*
X0342575Y0374256D01*
X0341480Y0374710D01*
X0340295Y0374710D01*
X0339966Y0374573D01*
X0339966Y0375324D01*
X0339797Y0375732D01*
X0434676Y0375732D01*
X0435201Y0375207D01*
X0436295Y0374754D01*
X0437480Y0374754D01*
X0438010Y0374973D01*
X0438010Y0374139D01*
X0438463Y0373045D01*
X0439301Y0372207D01*
X0440395Y0371754D01*
X0441580Y0371754D01*
X0441910Y0371890D01*
X0441910Y0371139D01*
X0442363Y0370045D01*
X0443201Y0369207D01*
X0444295Y0368754D01*
X0445480Y0368754D01*
X0446575Y0369207D01*
X0447412Y0370045D01*
X0447866Y0371139D01*
X0447866Y0372324D01*
X0447412Y0373419D01*
X0446575Y0374256D01*
X0445480Y0374710D01*
X0444295Y0374710D01*
X0443966Y0374573D01*
X0443966Y0375324D01*
X0443797Y0375732D01*
X0498079Y0375732D01*
X0497910Y0375324D01*
X0497910Y0374139D01*
X0498363Y0373045D01*
X0499201Y0372207D01*
X0500295Y0371754D01*
X0501480Y0371754D01*
X0501910Y0371932D01*
X0501910Y0371139D01*
X0502363Y0370045D01*
X0503201Y0369207D01*
X0504295Y0368754D01*
X0505480Y0368754D01*
X0506575Y0369207D01*
X0507412Y0370045D01*
X0507866Y0371139D01*
X0507866Y0372324D01*
X0507412Y0373419D01*
X0506575Y0374256D01*
X0505480Y0374710D01*
X0504295Y0374710D01*
X0503866Y0374532D01*
X0503866Y0375324D01*
X0503697Y0375732D01*
X0538676Y0375732D01*
X0539201Y0375207D01*
X0540295Y0374754D01*
X0541480Y0374754D01*
X0542010Y0374973D01*
X0542010Y0374139D01*
X0542463Y0373045D01*
X0543301Y0372207D01*
X0544395Y0371754D01*
X0545580Y0371754D01*
X0545910Y0371890D01*
X0545910Y0371139D01*
X0546363Y0370045D01*
X0547201Y0369207D01*
X0548295Y0368754D01*
X0549480Y0368754D01*
X0550575Y0369207D01*
X0551412Y0370045D01*
X0551866Y0371139D01*
X0551866Y0372324D01*
X0551412Y0373419D01*
X0550575Y0374256D01*
X0549480Y0374710D01*
X0548295Y0374710D01*
X0547966Y0374573D01*
X0547966Y0375324D01*
X0547797Y0375732D01*
X0642676Y0375732D01*
X0643201Y0375207D01*
X0644295Y0374754D01*
X0645480Y0374754D01*
X0646575Y0375207D01*
X0647099Y0375732D01*
X0654079Y0375732D01*
X0653910Y0375324D01*
X0653910Y0374532D01*
X0653480Y0374710D01*
X0652295Y0374710D01*
X0651201Y0374256D01*
X0650363Y0373419D01*
X0649910Y0372324D01*
X0649910Y0371139D01*
X0650363Y0370045D01*
X0651201Y0369207D01*
X0652295Y0368754D01*
X0653480Y0368754D01*
X0654575Y0369207D01*
X0655412Y0370045D01*
X0655866Y0371139D01*
X0655866Y0371932D01*
X0656295Y0371754D01*
X0657480Y0371754D01*
X0658575Y0372207D01*
X0659412Y0373045D01*
X0659866Y0374139D01*
X0659866Y0375324D01*
X0659697Y0375732D01*
X0740888Y0375732D01*
X0740888Y0055732D01*
X0547697Y0055732D01*
X0547866Y0056139D01*
X0547866Y0056466D02*
X0740888Y0056466D01*
X0740888Y0057665D02*
X0547725Y0057665D01*
X0546968Y0058863D02*
X0740888Y0058863D01*
X0740888Y0060062D02*
X0540456Y0060062D01*
X0540456Y0060442D02*
X0539913Y0061753D01*
X0538909Y0062757D01*
X0537598Y0063300D01*
X0536178Y0063300D01*
X0534866Y0062757D01*
X0533863Y0061753D01*
X0533319Y0060442D01*
X0533319Y0059022D01*
X0533863Y0057710D01*
X0534866Y0056706D01*
X0536178Y0056163D01*
X0537598Y0056163D01*
X0538909Y0056706D01*
X0539913Y0057710D01*
X0540456Y0059022D01*
X0540456Y0060442D01*
X0540117Y0061260D02*
X0740888Y0061260D01*
X0740888Y0062459D02*
X0539207Y0062459D01*
X0540391Y0058863D02*
X0542808Y0058863D01*
X0542051Y0057665D02*
X0539867Y0057665D01*
X0538329Y0056466D02*
X0541910Y0056466D01*
X0535446Y0056466D02*
X0530329Y0056466D01*
X0530909Y0056706D02*
X0531913Y0057710D01*
X0532456Y0059022D01*
X0532456Y0060442D01*
X0531913Y0061753D01*
X0530909Y0062757D01*
X0529598Y0063300D01*
X0528178Y0063300D01*
X0526866Y0062757D01*
X0525863Y0061753D01*
X0525319Y0060442D01*
X0525319Y0059022D01*
X0525863Y0057710D01*
X0526866Y0056706D01*
X0528178Y0056163D01*
X0529598Y0056163D01*
X0530909Y0056706D01*
X0531867Y0057665D02*
X0533908Y0057665D01*
X0533385Y0058863D02*
X0532391Y0058863D01*
X0532456Y0060062D02*
X0533319Y0060062D01*
X0533658Y0061260D02*
X0532117Y0061260D01*
X0531207Y0062459D02*
X0534568Y0062459D01*
X0526568Y0062459D02*
X0320888Y0062459D01*
X0320888Y0063657D02*
X0740888Y0063657D01*
X0740888Y0064856D02*
X0320888Y0064856D01*
X0320888Y0066054D02*
X0740888Y0066054D01*
X0740888Y0067253D02*
X0320888Y0067253D01*
X0320888Y0068451D02*
X0740888Y0068451D01*
X0740888Y0069650D02*
X0320888Y0069650D01*
X0320888Y0070848D02*
X0740888Y0070848D01*
X0740888Y0072047D02*
X0320888Y0072047D01*
X0320888Y0073245D02*
X0740888Y0073245D01*
X0740888Y0074444D02*
X0320888Y0074444D01*
X0320888Y0075642D02*
X0740888Y0075642D01*
X0740888Y0076841D02*
X0320888Y0076841D01*
X0320888Y0078039D02*
X0740888Y0078039D01*
X0740888Y0079238D02*
X0320888Y0079238D01*
X0320888Y0080436D02*
X0454162Y0080436D01*
X0454476Y0080122D02*
X0456041Y0079474D01*
X0457735Y0079474D01*
X0459299Y0080122D01*
X0460497Y0081320D01*
X0461145Y0082885D01*
X0461145Y0084579D01*
X0460497Y0086143D01*
X0459299Y0087341D01*
X0457735Y0087989D01*
X0456041Y0087989D01*
X0454476Y0087341D01*
X0453278Y0086143D01*
X0452630Y0084579D01*
X0452630Y0082885D01*
X0453278Y0081320D01*
X0454476Y0080122D01*
X0453148Y0081635D02*
X0320888Y0081635D01*
X0320888Y0082833D02*
X0452652Y0082833D01*
X0452630Y0084032D02*
X0320888Y0084032D01*
X0320888Y0085230D02*
X0452900Y0085230D01*
X0453564Y0086429D02*
X0320888Y0086429D01*
X0320888Y0087628D02*
X0455168Y0087628D01*
X0458608Y0087628D02*
X0508630Y0087628D01*
X0508630Y0086885D02*
X0509278Y0085320D01*
X0510476Y0084122D01*
X0512041Y0083474D01*
X0513735Y0083474D01*
X0515299Y0084122D01*
X0516497Y0085320D01*
X0517145Y0086885D01*
X0517145Y0088579D01*
X0516497Y0090143D01*
X0515299Y0091341D01*
X0513735Y0091989D01*
X0512041Y0091989D01*
X0510476Y0091341D01*
X0509278Y0090143D01*
X0508630Y0088579D01*
X0508630Y0086885D01*
X0508819Y0086429D02*
X0460211Y0086429D01*
X0460875Y0085230D02*
X0509368Y0085230D01*
X0510694Y0084032D02*
X0461145Y0084032D01*
X0461124Y0082833D02*
X0740888Y0082833D01*
X0740888Y0081635D02*
X0460628Y0081635D01*
X0459613Y0080436D02*
X0740888Y0080436D01*
X0740888Y0084032D02*
X0515081Y0084032D01*
X0516408Y0085230D02*
X0740888Y0085230D01*
X0740888Y0086429D02*
X0516956Y0086429D01*
X0517145Y0087628D02*
X0740888Y0087628D01*
X0740888Y0088826D02*
X0517043Y0088826D01*
X0516546Y0090025D02*
X0740888Y0090025D01*
X0740888Y0091223D02*
X0515417Y0091223D01*
X0510358Y0091223D02*
X0320888Y0091223D01*
X0320888Y0090025D02*
X0509229Y0090025D01*
X0508733Y0088826D02*
X0320888Y0088826D01*
X0320888Y0092422D02*
X0740888Y0092422D01*
X0740888Y0093620D02*
X0320888Y0093620D01*
X0320888Y0094819D02*
X0740888Y0094819D01*
X0740888Y0096017D02*
X0320888Y0096017D01*
X0320888Y0097216D02*
X0740888Y0097216D01*
X0740888Y0098414D02*
X0320888Y0098414D01*
X0320888Y0099613D02*
X0740888Y0099613D01*
X0740888Y0100811D02*
X0320888Y0100811D01*
X0320888Y0102010D02*
X0740888Y0102010D01*
X0740888Y0103208D02*
X0320888Y0103208D01*
X0320888Y0104407D02*
X0740888Y0104407D01*
X0740888Y0105605D02*
X0710973Y0105605D01*
X0710575Y0105207D02*
X0711412Y0106045D01*
X0711866Y0107139D01*
X0711866Y0108324D01*
X0711412Y0109419D01*
X0710575Y0110256D01*
X0709480Y0110710D01*
X0708295Y0110710D01*
X0707562Y0110406D01*
X0707866Y0111139D01*
X0707866Y0112324D01*
X0707412Y0113419D01*
X0706575Y0114256D01*
X0705480Y0114710D01*
X0704295Y0114710D01*
X0703201Y0114256D01*
X0702363Y0113419D01*
X0701910Y0112324D01*
X0701910Y0111139D01*
X0702363Y0110045D01*
X0703201Y0109207D01*
X0704295Y0108754D01*
X0705480Y0108754D01*
X0706214Y0109058D01*
X0705910Y0108324D01*
X0705910Y0107139D01*
X0706363Y0106045D01*
X0707201Y0105207D01*
X0708295Y0104754D01*
X0709480Y0104754D01*
X0710575Y0105207D01*
X0711727Y0106804D02*
X0740888Y0106804D01*
X0740888Y0108002D02*
X0711866Y0108002D01*
X0711503Y0109201D02*
X0740888Y0109201D01*
X0740888Y0110399D02*
X0710230Y0110399D01*
X0707866Y0111598D02*
X0740888Y0111598D01*
X0740888Y0112796D02*
X0707670Y0112796D01*
X0706836Y0113995D02*
X0740888Y0113995D01*
X0740888Y0115193D02*
X0654541Y0115193D01*
X0654575Y0115207D02*
X0655412Y0116045D01*
X0655866Y0117139D01*
X0655866Y0118324D01*
X0655412Y0119419D01*
X0654575Y0120256D01*
X0653480Y0120710D01*
X0652688Y0120710D01*
X0652866Y0121139D01*
X0652866Y0122324D01*
X0652688Y0122754D01*
X0653480Y0122754D01*
X0654575Y0123207D01*
X0655412Y0124045D01*
X0655866Y0125139D01*
X0655866Y0126324D01*
X0655412Y0127419D01*
X0654575Y0128256D01*
X0653480Y0128710D01*
X0652295Y0128710D01*
X0651201Y0128256D01*
X0650363Y0127419D01*
X0649910Y0126324D01*
X0649910Y0125139D01*
X0650088Y0124710D01*
X0649295Y0124710D01*
X0648201Y0124256D01*
X0647363Y0123419D01*
X0646910Y0122324D01*
X0646910Y0121139D01*
X0647363Y0120045D01*
X0648201Y0119207D01*
X0649295Y0118754D01*
X0650088Y0118754D01*
X0649910Y0118324D01*
X0649910Y0117139D01*
X0650363Y0116045D01*
X0651201Y0115207D01*
X0652295Y0114754D01*
X0653480Y0114754D01*
X0654575Y0115207D01*
X0655556Y0116392D02*
X0740888Y0116392D01*
X0740888Y0117590D02*
X0655866Y0117590D01*
X0655673Y0118789D02*
X0696211Y0118789D01*
X0696295Y0118754D02*
X0697480Y0118754D01*
X0698575Y0119207D01*
X0699412Y0120045D01*
X0699866Y0121139D01*
X0699866Y0122324D01*
X0699412Y0123419D01*
X0698575Y0124256D01*
X0697480Y0124710D01*
X0696295Y0124710D01*
X0695201Y0124256D01*
X0694363Y0123419D01*
X0693910Y0122324D01*
X0693910Y0121139D01*
X0694363Y0120045D01*
X0695201Y0119207D01*
X0696295Y0118754D01*
X0697565Y0118789D02*
X0740888Y0118789D01*
X0740888Y0119987D02*
X0699355Y0119987D01*
X0699866Y0121186D02*
X0740888Y0121186D01*
X0740888Y0122384D02*
X0699841Y0122384D01*
X0699248Y0123583D02*
X0740888Y0123583D01*
X0740888Y0124781D02*
X0695149Y0124781D01*
X0695412Y0125045D02*
X0695866Y0126139D01*
X0695866Y0127324D01*
X0695412Y0128419D01*
X0694575Y0129256D01*
X0693480Y0129710D01*
X0692295Y0129710D01*
X0691439Y0129355D01*
X0691412Y0129419D01*
X0690575Y0130256D01*
X0689480Y0130710D01*
X0688295Y0130710D01*
X0687866Y0130532D01*
X0687866Y0131324D01*
X0687412Y0132419D01*
X0686575Y0133256D01*
X0685480Y0133710D01*
X0684295Y0133710D01*
X0683201Y0133256D01*
X0682363Y0132419D01*
X0681910Y0131324D01*
X0681910Y0130139D01*
X0682363Y0129045D01*
X0683201Y0128207D01*
X0684295Y0127754D01*
X0685480Y0127754D01*
X0685910Y0127932D01*
X0685910Y0127139D01*
X0686363Y0126045D01*
X0687201Y0125207D01*
X0688295Y0124754D01*
X0689480Y0124754D01*
X0690337Y0125109D01*
X0690363Y0125045D01*
X0691201Y0124207D01*
X0692295Y0123754D01*
X0693480Y0123754D01*
X0694575Y0124207D01*
X0695412Y0125045D01*
X0695800Y0125980D02*
X0740888Y0125980D01*
X0740888Y0127178D02*
X0695866Y0127178D01*
X0695430Y0128377D02*
X0740888Y0128377D01*
X0740888Y0129575D02*
X0693804Y0129575D01*
X0691971Y0129575D02*
X0691256Y0129575D01*
X0687866Y0130774D02*
X0740888Y0130774D01*
X0740888Y0131972D02*
X0687597Y0131972D01*
X0686660Y0133171D02*
X0740888Y0133171D01*
X0740888Y0134369D02*
X0669737Y0134369D01*
X0669575Y0134207D02*
X0670412Y0135045D01*
X0670866Y0136139D01*
X0670866Y0137324D01*
X0670412Y0138419D01*
X0669575Y0139256D01*
X0668480Y0139710D01*
X0667295Y0139710D01*
X0666201Y0139256D01*
X0665363Y0138419D01*
X0664910Y0137324D01*
X0664910Y0136139D01*
X0665363Y0135045D01*
X0666201Y0134207D01*
X0667295Y0133754D01*
X0668480Y0133754D01*
X0669575Y0134207D01*
X0670629Y0135568D02*
X0740888Y0135568D01*
X0740888Y0136766D02*
X0670866Y0136766D01*
X0670600Y0137965D02*
X0740888Y0137965D01*
X0740888Y0139164D02*
X0669667Y0139164D01*
X0666108Y0139164D02*
X0583477Y0139164D01*
X0583299Y0139341D02*
X0581735Y0139989D01*
X0580041Y0139989D01*
X0578476Y0139341D01*
X0577278Y0138143D01*
X0576630Y0136579D01*
X0576630Y0134885D01*
X0577278Y0133320D01*
X0578476Y0132122D01*
X0580041Y0131474D01*
X0581735Y0131474D01*
X0583299Y0132122D01*
X0584497Y0133320D01*
X0585145Y0134885D01*
X0585145Y0136579D01*
X0584497Y0138143D01*
X0583299Y0139341D01*
X0584571Y0137965D02*
X0595790Y0137965D01*
X0596295Y0138174D02*
X0595201Y0137721D01*
X0594363Y0136883D01*
X0593910Y0135789D01*
X0593910Y0134604D01*
X0594363Y0133509D01*
X0595201Y0132672D01*
X0596295Y0132218D01*
X0597480Y0132218D01*
X0598575Y0132672D01*
X0599412Y0133509D01*
X0599866Y0134604D01*
X0599866Y0135789D01*
X0599412Y0136883D01*
X0598575Y0137721D01*
X0597480Y0138174D01*
X0596295Y0138174D01*
X0597985Y0137965D02*
X0634910Y0137965D01*
X0635201Y0138256D02*
X0634363Y0137419D01*
X0633910Y0136324D01*
X0633910Y0135139D01*
X0634363Y0134045D01*
X0635201Y0133207D01*
X0636295Y0132754D01*
X0637480Y0132754D01*
X0638575Y0133207D01*
X0639412Y0134045D01*
X0639866Y0135139D01*
X0639866Y0136324D01*
X0639412Y0137419D01*
X0638575Y0138256D01*
X0637480Y0138710D01*
X0636295Y0138710D01*
X0635201Y0138256D01*
X0634093Y0136766D02*
X0599461Y0136766D01*
X0599866Y0135568D02*
X0633910Y0135568D01*
X0634229Y0134369D02*
X0599769Y0134369D01*
X0599074Y0133171D02*
X0635288Y0133171D01*
X0638487Y0133171D02*
X0683116Y0133171D01*
X0682178Y0131972D02*
X0582937Y0131972D01*
X0584348Y0133171D02*
X0594702Y0133171D01*
X0594007Y0134369D02*
X0584932Y0134369D01*
X0585145Y0135568D02*
X0593910Y0135568D01*
X0594315Y0136766D02*
X0585067Y0136766D01*
X0578299Y0139164D02*
X0443462Y0139164D01*
X0443412Y0139045D02*
X0443866Y0140139D01*
X0443866Y0141324D01*
X0443412Y0142419D01*
X0442575Y0143256D01*
X0441480Y0143710D01*
X0440295Y0143710D01*
X0439201Y0143256D01*
X0438363Y0142419D01*
X0437910Y0141324D01*
X0437910Y0140139D01*
X0438363Y0139045D01*
X0439201Y0138207D01*
X0440295Y0137754D01*
X0441480Y0137754D01*
X0442575Y0138207D01*
X0443412Y0139045D01*
X0443866Y0140362D02*
X0740888Y0140362D01*
X0740888Y0141561D02*
X0614928Y0141561D01*
X0614575Y0141207D02*
X0615412Y0142045D01*
X0615866Y0143139D01*
X0615866Y0143547D01*
X0616041Y0143474D01*
X0617735Y0143474D01*
X0619299Y0144122D01*
X0620497Y0145320D01*
X0621145Y0146885D01*
X0621145Y0148579D01*
X0620497Y0150143D01*
X0619299Y0151341D01*
X0617735Y0151989D01*
X0616041Y0151989D01*
X0614476Y0151341D01*
X0613278Y0150143D01*
X0612630Y0148579D01*
X0612630Y0146885D01*
X0612703Y0146710D01*
X0612295Y0146710D01*
X0611201Y0146256D01*
X0610363Y0145419D01*
X0609910Y0144324D01*
X0609910Y0143139D01*
X0610363Y0142045D01*
X0611201Y0141207D01*
X0612295Y0140754D01*
X0613480Y0140754D01*
X0614575Y0141207D01*
X0615708Y0142759D02*
X0634649Y0142759D01*
X0634363Y0143045D02*
X0635201Y0142207D01*
X0636295Y0141754D01*
X0637480Y0141754D01*
X0638575Y0142207D01*
X0639412Y0143045D01*
X0639866Y0144139D01*
X0639866Y0145324D01*
X0639412Y0146419D01*
X0638575Y0147256D01*
X0637480Y0147710D01*
X0636295Y0147710D01*
X0635201Y0147256D01*
X0634363Y0146419D01*
X0633910Y0145324D01*
X0633910Y0144139D01*
X0634363Y0143045D01*
X0633985Y0143958D02*
X0618901Y0143958D01*
X0620333Y0145156D02*
X0633910Y0145156D01*
X0634337Y0146355D02*
X0620926Y0146355D01*
X0621145Y0147553D02*
X0635917Y0147553D01*
X0637858Y0147553D02*
X0740888Y0147553D01*
X0740888Y0146355D02*
X0639439Y0146355D01*
X0639866Y0145156D02*
X0740888Y0145156D01*
X0740888Y0143958D02*
X0639790Y0143958D01*
X0639127Y0142759D02*
X0740888Y0142759D01*
X0740888Y0148752D02*
X0658119Y0148752D01*
X0658412Y0149045D02*
X0658866Y0150139D01*
X0658866Y0151324D01*
X0658412Y0152419D01*
X0657575Y0153256D01*
X0656480Y0153710D01*
X0655295Y0153710D01*
X0654201Y0153256D01*
X0653363Y0152419D01*
X0652910Y0151324D01*
X0652910Y0150139D01*
X0653363Y0149045D01*
X0654201Y0148207D01*
X0655295Y0147754D01*
X0656480Y0147754D01*
X0657575Y0148207D01*
X0658412Y0149045D01*
X0658787Y0149950D02*
X0740888Y0149950D01*
X0740888Y0151149D02*
X0658866Y0151149D01*
X0658442Y0152347D02*
X0740888Y0152347D01*
X0740888Y0153546D02*
X0656876Y0153546D01*
X0654899Y0153546D02*
X0647876Y0153546D01*
X0647480Y0153710D02*
X0646295Y0153710D01*
X0645201Y0153256D01*
X0644363Y0152419D01*
X0643910Y0151324D01*
X0643910Y0150139D01*
X0644363Y0149045D01*
X0645201Y0148207D01*
X0646295Y0147754D01*
X0647480Y0147754D01*
X0648575Y0148207D01*
X0649412Y0149045D01*
X0649866Y0150139D01*
X0649866Y0151324D01*
X0649412Y0152419D01*
X0648575Y0153256D01*
X0647480Y0153710D01*
X0645899Y0153546D02*
X0575285Y0153546D01*
X0575412Y0153419D02*
X0574575Y0154256D01*
X0573480Y0154710D01*
X0572295Y0154710D01*
X0571201Y0154256D01*
X0570363Y0153419D01*
X0569910Y0152324D01*
X0569910Y0151139D01*
X0570363Y0150045D01*
X0571201Y0149207D01*
X0572295Y0148754D01*
X0573480Y0148754D01*
X0574575Y0149207D01*
X0575412Y0150045D01*
X0575866Y0151139D01*
X0575866Y0152324D01*
X0575412Y0153419D01*
X0575856Y0152347D02*
X0644334Y0152347D01*
X0643910Y0151149D02*
X0619492Y0151149D01*
X0620577Y0149950D02*
X0643988Y0149950D01*
X0644656Y0148752D02*
X0621074Y0148752D01*
X0614284Y0151149D02*
X0595682Y0151149D01*
X0595575Y0151256D02*
X0594480Y0151710D01*
X0593295Y0151710D01*
X0592201Y0151256D01*
X0591363Y0150419D01*
X0590910Y0149324D01*
X0590910Y0148139D01*
X0591363Y0147045D01*
X0592201Y0146207D01*
X0593295Y0145754D01*
X0594480Y0145754D01*
X0595575Y0146207D01*
X0596412Y0147045D01*
X0596866Y0148139D01*
X0596866Y0149324D01*
X0596412Y0150419D01*
X0595575Y0151256D01*
X0596606Y0149950D02*
X0613198Y0149950D01*
X0612702Y0148752D02*
X0596866Y0148752D01*
X0596623Y0147553D02*
X0612630Y0147553D01*
X0611438Y0146355D02*
X0595722Y0146355D01*
X0592053Y0146355D02*
X0320888Y0146355D01*
X0320888Y0147553D02*
X0470855Y0147553D01*
X0471201Y0147207D02*
X0472295Y0146754D01*
X0473480Y0146754D01*
X0474575Y0147207D01*
X0475412Y0148045D01*
X0475866Y0149139D01*
X0475866Y0150324D01*
X0475412Y0151419D01*
X0474575Y0152256D01*
X0473480Y0152710D01*
X0472295Y0152710D01*
X0471201Y0152256D01*
X0470363Y0151419D01*
X0469910Y0150324D01*
X0469910Y0149139D01*
X0470363Y0148045D01*
X0471201Y0147207D01*
X0470070Y0148752D02*
X0320888Y0148752D01*
X0320888Y0149950D02*
X0469910Y0149950D01*
X0470251Y0151149D02*
X0320888Y0151149D01*
X0320888Y0152347D02*
X0471420Y0152347D01*
X0474355Y0152347D02*
X0524630Y0152347D01*
X0524630Y0152579D02*
X0524630Y0150885D01*
X0525278Y0149320D01*
X0526476Y0148122D01*
X0528041Y0147474D01*
X0529735Y0147474D01*
X0531299Y0148122D01*
X0532497Y0149320D01*
X0533145Y0150885D01*
X0533145Y0152579D01*
X0532497Y0154143D01*
X0531299Y0155341D01*
X0529735Y0155989D01*
X0528041Y0155989D01*
X0526476Y0155341D01*
X0525278Y0154143D01*
X0524630Y0152579D01*
X0525031Y0153546D02*
X0320888Y0153546D01*
X0320888Y0154744D02*
X0525879Y0154744D01*
X0527929Y0155943D02*
X0320888Y0155943D01*
X0320888Y0157141D02*
X0698323Y0157141D01*
X0698363Y0157045D02*
X0699201Y0156207D01*
X0700295Y0155754D01*
X0701480Y0155754D01*
X0702575Y0156207D01*
X0703412Y0157045D01*
X0703866Y0158139D01*
X0703866Y0159324D01*
X0703412Y0160419D01*
X0702575Y0161256D01*
X0701480Y0161710D01*
X0700295Y0161710D01*
X0699201Y0161256D01*
X0698363Y0160419D01*
X0697910Y0159324D01*
X0697910Y0158139D01*
X0698363Y0157045D01*
X0697910Y0158340D02*
X0320888Y0158340D01*
X0320888Y0159538D02*
X0697999Y0159538D01*
X0698681Y0160737D02*
X0683104Y0160737D01*
X0683412Y0161045D02*
X0683866Y0162139D01*
X0683866Y0163324D01*
X0683412Y0164419D01*
X0682575Y0165256D01*
X0681480Y0165710D01*
X0680295Y0165710D01*
X0679792Y0165501D01*
X0679412Y0166419D01*
X0678575Y0167256D01*
X0677480Y0167710D01*
X0676295Y0167710D01*
X0675866Y0167532D01*
X0675866Y0168324D01*
X0675412Y0169419D01*
X0674575Y0170256D01*
X0673480Y0170710D01*
X0672295Y0170710D01*
X0671201Y0170256D01*
X0670363Y0169419D01*
X0669910Y0168324D01*
X0669910Y0167139D01*
X0670363Y0166045D01*
X0671201Y0165207D01*
X0672295Y0164754D01*
X0673480Y0164754D01*
X0673910Y0164932D01*
X0673910Y0164139D01*
X0674363Y0163045D01*
X0675201Y0162207D01*
X0676295Y0161754D01*
X0677480Y0161754D01*
X0677983Y0161962D01*
X0678363Y0161045D01*
X0679201Y0160207D01*
X0680295Y0159754D01*
X0681480Y0159754D01*
X0682575Y0160207D01*
X0683412Y0161045D01*
X0683781Y0161935D02*
X0740888Y0161935D01*
X0740888Y0160737D02*
X0703094Y0160737D01*
X0703777Y0159538D02*
X0740888Y0159538D01*
X0740888Y0158340D02*
X0703866Y0158340D01*
X0703452Y0157141D02*
X0740888Y0157141D01*
X0740888Y0155943D02*
X0701936Y0155943D01*
X0699839Y0155943D02*
X0529847Y0155943D01*
X0531896Y0154744D02*
X0740888Y0154744D01*
X0740888Y0163134D02*
X0683866Y0163134D01*
X0683448Y0164332D02*
X0740888Y0164332D01*
X0740888Y0165531D02*
X0681912Y0165531D01*
X0679864Y0165531D02*
X0679780Y0165531D01*
X0679102Y0166729D02*
X0740888Y0166729D01*
X0740888Y0167928D02*
X0675866Y0167928D01*
X0675533Y0169126D02*
X0740888Y0169126D01*
X0740888Y0170325D02*
X0674409Y0170325D01*
X0671366Y0170325D02*
X0670528Y0170325D01*
X0670412Y0170045D02*
X0670866Y0171139D01*
X0670866Y0172324D01*
X0670412Y0173419D01*
X0669575Y0174256D01*
X0668480Y0174710D01*
X0667295Y0174710D01*
X0666201Y0174256D01*
X0665363Y0173419D01*
X0664910Y0172324D01*
X0664910Y0171139D01*
X0665363Y0170045D01*
X0666201Y0169207D01*
X0667295Y0168754D01*
X0668480Y0168754D01*
X0669575Y0169207D01*
X0670412Y0170045D01*
X0670242Y0169126D02*
X0669379Y0169126D01*
X0669910Y0167928D02*
X0617866Y0167928D01*
X0617866Y0168324D02*
X0617412Y0169419D01*
X0616575Y0170256D01*
X0615480Y0170710D01*
X0614295Y0170710D01*
X0613201Y0170256D01*
X0612363Y0169419D01*
X0611910Y0168324D01*
X0611910Y0167139D01*
X0612363Y0166045D01*
X0613201Y0165207D01*
X0614295Y0164754D01*
X0615480Y0164754D01*
X0616575Y0165207D01*
X0617412Y0166045D01*
X0617866Y0167139D01*
X0617866Y0168324D01*
X0617533Y0169126D02*
X0635396Y0169126D01*
X0635201Y0169207D02*
X0636295Y0168754D01*
X0637480Y0168754D01*
X0638575Y0169207D01*
X0639412Y0170045D01*
X0639866Y0171139D01*
X0639866Y0172324D01*
X0639412Y0173419D01*
X0638575Y0174256D01*
X0637480Y0174710D01*
X0636295Y0174710D01*
X0635201Y0174256D01*
X0634363Y0173419D01*
X0633910Y0172324D01*
X0633910Y0171139D01*
X0634363Y0170045D01*
X0635201Y0169207D01*
X0634247Y0170325D02*
X0616409Y0170325D01*
X0613366Y0170325D02*
X0554866Y0170325D01*
X0554866Y0170139D02*
X0554866Y0170754D01*
X0555480Y0170754D01*
X0556575Y0171207D01*
X0557412Y0172045D01*
X0557866Y0173139D01*
X0557866Y0174324D01*
X0557412Y0175419D01*
X0556575Y0176256D01*
X0555480Y0176710D01*
X0554866Y0176710D01*
X0554866Y0177324D01*
X0554412Y0178419D01*
X0553575Y0179256D01*
X0552480Y0179710D01*
X0551295Y0179710D01*
X0550201Y0179256D01*
X0549363Y0178419D01*
X0548910Y0177324D01*
X0548910Y0176139D01*
X0549363Y0175045D01*
X0550201Y0174207D01*
X0551295Y0173754D01*
X0551910Y0173754D01*
X0551910Y0173710D01*
X0551295Y0173710D01*
X0550201Y0173256D01*
X0549363Y0172419D01*
X0548910Y0171324D01*
X0548910Y0170139D01*
X0549363Y0169045D01*
X0550201Y0168207D01*
X0551295Y0167754D01*
X0552480Y0167754D01*
X0553575Y0168207D01*
X0554412Y0169045D01*
X0554866Y0170139D01*
X0554446Y0169126D02*
X0576071Y0169126D01*
X0576201Y0169256D02*
X0575363Y0168419D01*
X0574910Y0167324D01*
X0574910Y0166139D01*
X0575363Y0165045D01*
X0576201Y0164207D01*
X0577295Y0163754D01*
X0578480Y0163754D01*
X0579575Y0164207D01*
X0580412Y0165045D01*
X0580866Y0166139D01*
X0580866Y0167324D01*
X0580412Y0168419D01*
X0579575Y0169256D01*
X0578480Y0169710D01*
X0577295Y0169710D01*
X0576201Y0169256D01*
X0575160Y0167928D02*
X0552900Y0167928D01*
X0550875Y0167928D02*
X0546431Y0167928D01*
X0546126Y0168233D02*
X0545031Y0168686D01*
X0543847Y0168686D01*
X0542752Y0168233D01*
X0541914Y0167395D01*
X0541461Y0166300D01*
X0541461Y0165116D01*
X0541914Y0164021D01*
X0542752Y0163184D01*
X0543847Y0162730D01*
X0545031Y0162730D01*
X0546126Y0163184D01*
X0546964Y0164021D01*
X0547417Y0165116D01*
X0547417Y0166300D01*
X0546964Y0167395D01*
X0546126Y0168233D01*
X0547239Y0166729D02*
X0574910Y0166729D01*
X0575162Y0165531D02*
X0557912Y0165531D01*
X0557480Y0165710D02*
X0556295Y0165710D01*
X0555201Y0165256D01*
X0554363Y0164419D01*
X0553910Y0163324D01*
X0553910Y0162139D01*
X0554363Y0161045D01*
X0555201Y0160207D01*
X0556295Y0159754D01*
X0557480Y0159754D01*
X0558575Y0160207D01*
X0559412Y0161045D01*
X0559866Y0162139D01*
X0559866Y0163324D01*
X0559412Y0164419D01*
X0558575Y0165256D01*
X0557480Y0165710D01*
X0555863Y0165531D02*
X0547417Y0165531D01*
X0547092Y0164332D02*
X0554327Y0164332D01*
X0553910Y0163134D02*
X0546006Y0163134D01*
X0542872Y0163134D02*
X0507863Y0163134D01*
X0507866Y0163139D02*
X0507412Y0162045D01*
X0506575Y0161207D01*
X0505480Y0160754D01*
X0504295Y0160754D01*
X0503201Y0161207D01*
X0502363Y0162045D01*
X0501910Y0163139D01*
X0501910Y0164324D01*
X0502363Y0165419D01*
X0503201Y0166256D01*
X0504295Y0166710D01*
X0505480Y0166710D01*
X0506575Y0166256D01*
X0507412Y0165419D01*
X0507866Y0164324D01*
X0507866Y0163139D01*
X0507862Y0164332D02*
X0541786Y0164332D01*
X0541461Y0165531D02*
X0507300Y0165531D01*
X0507303Y0161935D02*
X0553994Y0161935D01*
X0554671Y0160737D02*
X0320888Y0160737D01*
X0320888Y0161935D02*
X0502473Y0161935D01*
X0501912Y0163134D02*
X0320888Y0163134D01*
X0320888Y0145156D02*
X0610254Y0145156D01*
X0609910Y0143958D02*
X0320888Y0143958D01*
X0320888Y0142759D02*
X0438704Y0142759D01*
X0438008Y0141561D02*
X0320888Y0141561D01*
X0320888Y0140362D02*
X0437910Y0140362D01*
X0438314Y0139164D02*
X0423477Y0139164D01*
X0423299Y0139341D02*
X0421735Y0139989D01*
X0420041Y0139989D01*
X0418476Y0139341D01*
X0417278Y0138143D01*
X0416630Y0136579D01*
X0416630Y0134885D01*
X0417278Y0133320D01*
X0418476Y0132122D01*
X0420041Y0131474D01*
X0421735Y0131474D01*
X0423299Y0132122D01*
X0424497Y0133320D01*
X0425145Y0134885D01*
X0425145Y0136579D01*
X0424497Y0138143D01*
X0423299Y0139341D01*
X0424571Y0137965D02*
X0439785Y0137965D01*
X0441990Y0137965D02*
X0459910Y0137965D01*
X0460201Y0138256D02*
X0459363Y0137419D01*
X0458910Y0136324D01*
X0458910Y0135139D01*
X0459363Y0134045D01*
X0460201Y0133207D01*
X0461295Y0132754D01*
X0462480Y0132754D01*
X0463575Y0133207D01*
X0464412Y0134045D01*
X0464866Y0135139D01*
X0464866Y0136324D01*
X0464412Y0137419D01*
X0463575Y0138256D01*
X0462480Y0138710D01*
X0461295Y0138710D01*
X0460201Y0138256D01*
X0459093Y0136766D02*
X0425067Y0136766D01*
X0425145Y0135568D02*
X0458910Y0135568D01*
X0459229Y0134369D02*
X0424932Y0134369D01*
X0424348Y0133171D02*
X0460288Y0133171D01*
X0463487Y0133171D02*
X0476926Y0133171D01*
X0476926Y0132944D02*
X0477529Y0131487D01*
X0478643Y0130373D01*
X0480100Y0129770D01*
X0481676Y0129770D01*
X0483132Y0130373D01*
X0484247Y0131487D01*
X0484850Y0132944D01*
X0484850Y0134520D01*
X0484247Y0135976D01*
X0483132Y0137091D01*
X0481676Y0137694D01*
X0480100Y0137694D01*
X0478643Y0137091D01*
X0477529Y0135976D01*
X0476926Y0134520D01*
X0476926Y0132944D01*
X0477328Y0131972D02*
X0422937Y0131972D01*
X0418838Y0131972D02*
X0320888Y0131972D01*
X0320888Y0130774D02*
X0478242Y0130774D01*
X0476926Y0134369D02*
X0464547Y0134369D01*
X0464866Y0135568D02*
X0477360Y0135568D01*
X0478319Y0136766D02*
X0464682Y0136766D01*
X0463866Y0137965D02*
X0577205Y0137965D01*
X0576708Y0136766D02*
X0483456Y0136766D01*
X0484416Y0135568D02*
X0576630Y0135568D01*
X0576844Y0134369D02*
X0484850Y0134369D01*
X0484850Y0133171D02*
X0577428Y0133171D01*
X0578838Y0131972D02*
X0484448Y0131972D01*
X0483533Y0130774D02*
X0498719Y0130774D01*
X0498363Y0130419D02*
X0497910Y0129324D01*
X0497910Y0128139D01*
X0498363Y0127045D01*
X0499201Y0126207D01*
X0500295Y0125754D01*
X0501480Y0125754D01*
X0502575Y0126207D01*
X0503412Y0127045D01*
X0503866Y0128139D01*
X0503866Y0129324D01*
X0503412Y0130419D01*
X0502575Y0131256D01*
X0501480Y0131710D01*
X0500295Y0131710D01*
X0499201Y0131256D01*
X0498363Y0130419D01*
X0498014Y0129575D02*
X0320888Y0129575D01*
X0320888Y0128377D02*
X0497910Y0128377D01*
X0498308Y0127178D02*
X0492921Y0127178D01*
X0493132Y0127091D02*
X0491676Y0127694D01*
X0490100Y0127694D01*
X0488643Y0127091D01*
X0487529Y0125976D01*
X0486926Y0124520D01*
X0486926Y0122944D01*
X0487529Y0121487D01*
X0488643Y0120373D01*
X0490100Y0119770D01*
X0491676Y0119770D01*
X0493132Y0120373D01*
X0494247Y0121487D01*
X0494850Y0122944D01*
X0494850Y0124520D01*
X0494247Y0125976D01*
X0493132Y0127091D01*
X0494243Y0125980D02*
X0499750Y0125980D01*
X0502026Y0125980D02*
X0532614Y0125980D01*
X0532502Y0125933D02*
X0531387Y0124819D01*
X0530784Y0123362D01*
X0530784Y0121786D01*
X0531387Y0120330D01*
X0532502Y0119215D01*
X0533958Y0118612D01*
X0535534Y0118612D01*
X0536990Y0119215D01*
X0538105Y0120330D01*
X0538708Y0121786D01*
X0538708Y0123362D01*
X0538105Y0124819D01*
X0536990Y0125933D01*
X0535534Y0126536D01*
X0533958Y0126536D01*
X0532502Y0125933D01*
X0531372Y0124781D02*
X0494742Y0124781D01*
X0494850Y0123583D02*
X0530875Y0123583D01*
X0530784Y0122384D02*
X0494618Y0122384D01*
X0493945Y0121186D02*
X0531032Y0121186D01*
X0531730Y0119987D02*
X0492202Y0119987D01*
X0489574Y0119987D02*
X0472202Y0119987D01*
X0471676Y0119770D02*
X0473132Y0120373D01*
X0474247Y0121487D01*
X0474850Y0122944D01*
X0474850Y0124520D01*
X0474247Y0125976D01*
X0473132Y0127091D01*
X0471676Y0127694D01*
X0470100Y0127694D01*
X0468643Y0127091D01*
X0467529Y0125976D01*
X0466926Y0124520D01*
X0466926Y0122944D01*
X0467529Y0121487D01*
X0468643Y0120373D01*
X0470100Y0119770D01*
X0471676Y0119770D01*
X0469574Y0119987D02*
X0430591Y0119987D01*
X0430412Y0120419D02*
X0429575Y0121256D01*
X0428480Y0121710D01*
X0427295Y0121710D01*
X0426201Y0121256D01*
X0425363Y0120419D01*
X0424910Y0119324D01*
X0424910Y0118139D01*
X0425363Y0117045D01*
X0426201Y0116207D01*
X0427295Y0115754D01*
X0428480Y0115754D01*
X0429575Y0116207D01*
X0430412Y0117045D01*
X0430866Y0118139D01*
X0430866Y0119324D01*
X0430412Y0120419D01*
X0429645Y0121186D02*
X0467830Y0121186D01*
X0467157Y0122384D02*
X0320888Y0122384D01*
X0320888Y0121186D02*
X0426130Y0121186D01*
X0425185Y0119987D02*
X0320888Y0119987D01*
X0320888Y0118789D02*
X0424910Y0118789D01*
X0425137Y0117590D02*
X0320888Y0117590D01*
X0320888Y0116392D02*
X0426016Y0116392D01*
X0429759Y0116392D02*
X0449938Y0116392D01*
X0449910Y0116324D02*
X0449910Y0115139D01*
X0450363Y0114045D01*
X0451201Y0113207D01*
X0452295Y0112754D01*
X0453480Y0112754D01*
X0454575Y0113207D01*
X0455412Y0114045D01*
X0455866Y0115139D01*
X0455866Y0116324D01*
X0455412Y0117419D01*
X0454575Y0118256D01*
X0453480Y0118710D01*
X0452295Y0118710D01*
X0451201Y0118256D01*
X0450363Y0117419D01*
X0449910Y0116324D01*
X0449910Y0115193D02*
X0320888Y0115193D01*
X0320888Y0113995D02*
X0450413Y0113995D01*
X0452193Y0112796D02*
X0320888Y0112796D01*
X0320888Y0111598D02*
X0498206Y0111598D01*
X0498343Y0111541D02*
X0499527Y0111541D01*
X0500622Y0111995D01*
X0501460Y0112832D01*
X0501913Y0113927D01*
X0501913Y0115111D01*
X0501460Y0116206D01*
X0500622Y0117044D01*
X0499527Y0117497D01*
X0498343Y0117497D01*
X0497248Y0117044D01*
X0496410Y0116206D01*
X0495957Y0115111D01*
X0495957Y0113927D01*
X0496410Y0112832D01*
X0497248Y0111995D01*
X0498343Y0111541D01*
X0499664Y0111598D02*
X0530927Y0111598D01*
X0530784Y0111944D02*
X0531387Y0110487D01*
X0532502Y0109373D01*
X0533958Y0108770D01*
X0535534Y0108770D01*
X0536990Y0109373D01*
X0538105Y0110487D01*
X0538708Y0111944D01*
X0538708Y0113520D01*
X0538105Y0114976D01*
X0536990Y0116091D01*
X0535534Y0116694D01*
X0533958Y0116694D01*
X0532502Y0116091D01*
X0531387Y0114976D01*
X0530784Y0113520D01*
X0530784Y0111944D01*
X0530784Y0112796D02*
X0501424Y0112796D01*
X0501913Y0113995D02*
X0530981Y0113995D01*
X0531604Y0115193D02*
X0501879Y0115193D01*
X0501274Y0116392D02*
X0533229Y0116392D01*
X0533531Y0118789D02*
X0430866Y0118789D01*
X0430638Y0117590D02*
X0450535Y0117590D01*
X0455241Y0117590D02*
X0613167Y0117590D01*
X0613278Y0117320D02*
X0614476Y0116122D01*
X0616041Y0115474D01*
X0617735Y0115474D01*
X0619299Y0116122D01*
X0620497Y0117320D01*
X0621145Y0118885D01*
X0621145Y0120579D01*
X0620497Y0122143D01*
X0619299Y0123341D01*
X0617735Y0123989D01*
X0616041Y0123989D01*
X0614476Y0123341D01*
X0613278Y0122143D01*
X0612630Y0120579D01*
X0612630Y0118885D01*
X0613278Y0117320D01*
X0614207Y0116392D02*
X0574498Y0116392D01*
X0574909Y0116222D02*
X0573598Y0116765D01*
X0572178Y0116765D01*
X0570866Y0116222D01*
X0569863Y0115218D01*
X0569319Y0113906D01*
X0569319Y0112486D01*
X0569863Y0111175D01*
X0570866Y0110171D01*
X0572178Y0109628D01*
X0573598Y0109628D01*
X0574909Y0110171D01*
X0575913Y0111175D01*
X0576456Y0112486D01*
X0576456Y0113906D01*
X0575913Y0115218D01*
X0574909Y0116222D01*
X0575923Y0115193D02*
X0651234Y0115193D01*
X0650219Y0116392D02*
X0619569Y0116392D01*
X0620609Y0117590D02*
X0649910Y0117590D01*
X0649211Y0118789D02*
X0621105Y0118789D01*
X0621145Y0119987D02*
X0647421Y0119987D01*
X0646910Y0121186D02*
X0620894Y0121186D01*
X0620256Y0122384D02*
X0646935Y0122384D01*
X0647527Y0123583D02*
X0618716Y0123583D01*
X0615060Y0123583D02*
X0538617Y0123583D01*
X0538708Y0122384D02*
X0613519Y0122384D01*
X0612882Y0121186D02*
X0538460Y0121186D01*
X0537763Y0119987D02*
X0612630Y0119987D01*
X0612670Y0118789D02*
X0535961Y0118789D01*
X0536264Y0116392D02*
X0571277Y0116392D01*
X0569852Y0115193D02*
X0550638Y0115193D01*
X0550575Y0115256D02*
X0549480Y0115710D01*
X0548295Y0115710D01*
X0547201Y0115256D01*
X0546363Y0114419D01*
X0545910Y0113324D01*
X0545910Y0112139D01*
X0546363Y0111045D01*
X0547201Y0110207D01*
X0548295Y0109754D01*
X0549480Y0109754D01*
X0550575Y0110207D01*
X0551412Y0111045D01*
X0551866Y0112139D01*
X0551866Y0113324D01*
X0551412Y0114419D01*
X0550575Y0115256D01*
X0551588Y0113995D02*
X0569356Y0113995D01*
X0569319Y0112796D02*
X0551866Y0112796D01*
X0551641Y0111598D02*
X0569687Y0111598D01*
X0570638Y0110399D02*
X0550767Y0110399D01*
X0547009Y0110399D02*
X0538017Y0110399D01*
X0538565Y0111598D02*
X0546134Y0111598D01*
X0545910Y0112796D02*
X0538708Y0112796D01*
X0538512Y0113995D02*
X0546188Y0113995D01*
X0547138Y0115193D02*
X0537888Y0115193D01*
X0536575Y0109201D02*
X0633910Y0109201D01*
X0633910Y0109324D02*
X0633910Y0108139D01*
X0634363Y0107045D01*
X0635201Y0106207D01*
X0636295Y0105754D01*
X0637480Y0105754D01*
X0638575Y0106207D01*
X0639412Y0107045D01*
X0639866Y0108139D01*
X0639866Y0109324D01*
X0639412Y0110419D01*
X0638575Y0111256D01*
X0637480Y0111710D01*
X0636295Y0111710D01*
X0635201Y0111256D01*
X0634363Y0110419D01*
X0633910Y0109324D01*
X0634355Y0110399D02*
X0575137Y0110399D01*
X0576088Y0111598D02*
X0636025Y0111598D01*
X0637750Y0111598D02*
X0643025Y0111598D01*
X0643295Y0111710D02*
X0642201Y0111256D01*
X0641363Y0110419D01*
X0640910Y0109324D01*
X0640910Y0108139D01*
X0641363Y0107045D01*
X0642201Y0106207D01*
X0643295Y0105754D01*
X0644480Y0105754D01*
X0645575Y0106207D01*
X0646412Y0107045D01*
X0646866Y0108139D01*
X0646866Y0109324D01*
X0646412Y0110419D01*
X0645575Y0111256D01*
X0644480Y0111710D01*
X0643295Y0111710D01*
X0644750Y0111598D02*
X0657910Y0111598D01*
X0657910Y0111139D02*
X0658363Y0110045D01*
X0659201Y0109207D01*
X0660295Y0108754D01*
X0661480Y0108754D01*
X0662575Y0109207D01*
X0663412Y0110045D01*
X0663866Y0111139D01*
X0663866Y0112324D01*
X0663412Y0113419D01*
X0662575Y0114256D01*
X0661480Y0114710D01*
X0660295Y0114710D01*
X0659201Y0114256D01*
X0658363Y0113419D01*
X0657910Y0112324D01*
X0657910Y0111139D01*
X0658216Y0110399D02*
X0646420Y0110399D01*
X0646866Y0109201D02*
X0659216Y0109201D01*
X0662559Y0109201D02*
X0703216Y0109201D01*
X0702216Y0110399D02*
X0663559Y0110399D01*
X0663866Y0111598D02*
X0701910Y0111598D01*
X0702105Y0112796D02*
X0663670Y0112796D01*
X0662836Y0113995D02*
X0702939Y0113995D01*
X0705910Y0108002D02*
X0646809Y0108002D01*
X0646171Y0106804D02*
X0706049Y0106804D01*
X0706803Y0105605D02*
X0450973Y0105605D01*
X0450575Y0105207D02*
X0451412Y0106045D01*
X0451866Y0107139D01*
X0451866Y0108324D01*
X0451412Y0109419D01*
X0450575Y0110256D01*
X0449480Y0110710D01*
X0448295Y0110710D01*
X0447201Y0110256D01*
X0446363Y0109419D01*
X0445910Y0108324D01*
X0445910Y0107139D01*
X0446363Y0106045D01*
X0447201Y0105207D01*
X0448295Y0104754D01*
X0449480Y0104754D01*
X0450575Y0105207D01*
X0451727Y0106804D02*
X0634604Y0106804D01*
X0633967Y0108002D02*
X0451866Y0108002D01*
X0451503Y0109201D02*
X0532917Y0109201D01*
X0531475Y0110399D02*
X0450230Y0110399D01*
X0447546Y0110399D02*
X0320888Y0110399D01*
X0320888Y0109201D02*
X0446273Y0109201D01*
X0445910Y0108002D02*
X0320888Y0108002D01*
X0320888Y0106804D02*
X0446049Y0106804D01*
X0446803Y0105605D02*
X0320888Y0105605D01*
X0320888Y0123583D02*
X0466926Y0123583D01*
X0467034Y0124781D02*
X0320888Y0124781D01*
X0320888Y0125980D02*
X0467533Y0125980D01*
X0468855Y0127178D02*
X0320888Y0127178D01*
X0320888Y0133171D02*
X0417428Y0133171D01*
X0416844Y0134369D02*
X0320888Y0134369D01*
X0320888Y0135568D02*
X0416630Y0135568D01*
X0416708Y0136766D02*
X0320888Y0136766D01*
X0320888Y0137965D02*
X0417205Y0137965D01*
X0418299Y0139164D02*
X0320888Y0139164D01*
X0247913Y0169710D02*
X0246909Y0168706D01*
X0245598Y0168163D01*
X0244178Y0168163D01*
X0242866Y0168706D01*
X0241863Y0169710D01*
X0241319Y0171022D01*
X0241319Y0172442D01*
X0241863Y0173753D01*
X0242866Y0174757D01*
X0244178Y0175300D01*
X0245598Y0175300D01*
X0246909Y0174757D01*
X0247913Y0173753D01*
X0248456Y0172442D01*
X0248456Y0171022D01*
X0247913Y0169710D01*
X0248168Y0170325D02*
X0518247Y0170325D01*
X0518363Y0170045D02*
X0519201Y0169207D01*
X0520295Y0168754D01*
X0521480Y0168754D01*
X0522575Y0169207D01*
X0523412Y0170045D01*
X0523866Y0171139D01*
X0523866Y0172324D01*
X0523412Y0173419D01*
X0522575Y0174256D01*
X0521480Y0174710D01*
X0520295Y0174710D01*
X0519201Y0174256D01*
X0518363Y0173419D01*
X0517910Y0172324D01*
X0517910Y0171139D01*
X0518363Y0170045D01*
X0519396Y0169126D02*
X0247329Y0169126D01*
X0248456Y0171523D02*
X0517910Y0171523D01*
X0518075Y0172722D02*
X0248340Y0172722D01*
X0247746Y0173920D02*
X0518865Y0173920D01*
X0518480Y0174754D02*
X0519575Y0175207D01*
X0520412Y0176045D01*
X0520866Y0177139D01*
X0520866Y0178324D01*
X0520412Y0179419D01*
X0519575Y0180256D01*
X0518480Y0180710D01*
X0517295Y0180710D01*
X0516201Y0180256D01*
X0515363Y0179419D01*
X0514910Y0178324D01*
X0514910Y0177139D01*
X0515363Y0176045D01*
X0516201Y0175207D01*
X0517295Y0174754D01*
X0518480Y0174754D01*
X0519362Y0175119D02*
X0549333Y0175119D01*
X0548910Y0176317D02*
X0520525Y0176317D01*
X0520866Y0177516D02*
X0548989Y0177516D01*
X0549659Y0178714D02*
X0520704Y0178714D01*
X0519918Y0179913D02*
X0740888Y0179913D01*
X0740888Y0181111D02*
X0506344Y0181111D01*
X0506575Y0181207D02*
X0507412Y0182045D01*
X0507866Y0183139D01*
X0507866Y0184324D01*
X0507412Y0185419D01*
X0506575Y0186256D01*
X0505480Y0186710D01*
X0504295Y0186710D01*
X0503201Y0186256D01*
X0502363Y0185419D01*
X0501910Y0184324D01*
X0501910Y0183139D01*
X0502363Y0182045D01*
X0503201Y0181207D01*
X0504295Y0180754D01*
X0505480Y0180754D01*
X0506575Y0181207D01*
X0507522Y0182310D02*
X0740888Y0182310D01*
X0740888Y0183508D02*
X0507866Y0183508D01*
X0507707Y0184707D02*
X0590701Y0184707D01*
X0590363Y0185045D02*
X0591201Y0184207D01*
X0592295Y0183754D01*
X0593480Y0183754D01*
X0594575Y0184207D01*
X0595412Y0185045D01*
X0595866Y0186139D01*
X0595866Y0187324D01*
X0595412Y0188419D01*
X0594575Y0189256D01*
X0593480Y0189710D01*
X0592295Y0189710D01*
X0591201Y0189256D01*
X0590363Y0188419D01*
X0589910Y0187324D01*
X0589910Y0186139D01*
X0590363Y0185045D01*
X0590007Y0185905D02*
X0506926Y0185905D01*
X0508100Y0189770D02*
X0506643Y0190373D01*
X0505529Y0191487D01*
X0504926Y0192944D01*
X0504926Y0194520D01*
X0505529Y0195976D01*
X0506643Y0197091D01*
X0508100Y0197694D01*
X0509676Y0197694D01*
X0511132Y0197091D01*
X0512247Y0195976D01*
X0512850Y0194520D01*
X0512850Y0192944D01*
X0512247Y0191487D01*
X0511132Y0190373D01*
X0509676Y0189770D01*
X0508100Y0189770D01*
X0506317Y0190699D02*
X0256323Y0190699D01*
X0256456Y0191022D02*
X0255913Y0189710D01*
X0254909Y0188706D01*
X0253598Y0188163D01*
X0252178Y0188163D01*
X0250866Y0188706D01*
X0249863Y0189710D01*
X0249319Y0191022D01*
X0249319Y0192442D01*
X0249863Y0193753D01*
X0250866Y0194757D01*
X0252178Y0195300D01*
X0253598Y0195300D01*
X0254909Y0194757D01*
X0255913Y0193753D01*
X0256456Y0192442D01*
X0256456Y0191022D01*
X0256456Y0191898D02*
X0505359Y0191898D01*
X0504926Y0193097D02*
X0256185Y0193097D01*
X0255371Y0194295D02*
X0504926Y0194295D01*
X0505329Y0195494D02*
X0469781Y0195494D01*
X0469735Y0195474D02*
X0471299Y0196122D01*
X0472497Y0197320D01*
X0473145Y0198885D01*
X0473145Y0200579D01*
X0472497Y0202143D01*
X0471299Y0203341D01*
X0469735Y0203989D01*
X0468041Y0203989D01*
X0466476Y0203341D01*
X0465278Y0202143D01*
X0464630Y0200579D01*
X0464630Y0198885D01*
X0465278Y0197320D01*
X0466476Y0196122D01*
X0468041Y0195474D01*
X0469735Y0195474D01*
X0467994Y0195494D02*
X0031456Y0195494D01*
X0031456Y0196692D02*
X0465906Y0196692D01*
X0465042Y0197891D02*
X0031456Y0197891D01*
X0031456Y0199089D02*
X0464630Y0199089D01*
X0464630Y0200288D02*
X0031456Y0200288D01*
X0031456Y0201486D02*
X0465006Y0201486D01*
X0465820Y0202685D02*
X0031456Y0202685D01*
X0031456Y0203883D02*
X0467785Y0203883D01*
X0469991Y0203883D02*
X0494926Y0203883D01*
X0494926Y0204520D02*
X0494926Y0202944D01*
X0495529Y0201487D01*
X0496643Y0200373D01*
X0498100Y0199770D01*
X0499676Y0199770D01*
X0501132Y0200373D01*
X0502247Y0201487D01*
X0502850Y0202944D01*
X0502850Y0204520D01*
X0502247Y0205976D01*
X0501132Y0207091D01*
X0499676Y0207694D01*
X0498100Y0207694D01*
X0496643Y0207091D01*
X0495529Y0205976D01*
X0494926Y0204520D01*
X0495158Y0205082D02*
X0031456Y0205082D01*
X0031456Y0206280D02*
X0276896Y0206280D01*
X0277178Y0206163D02*
X0278598Y0206163D01*
X0279909Y0206706D01*
X0280913Y0207710D01*
X0281388Y0208857D01*
X0281863Y0207710D01*
X0282866Y0206706D01*
X0284178Y0206163D01*
X0285598Y0206163D01*
X0286909Y0206706D01*
X0287913Y0207710D01*
X0288456Y0209022D01*
X0288456Y0210442D01*
X0287913Y0211753D01*
X0286909Y0212757D01*
X0285598Y0213300D01*
X0284178Y0213300D01*
X0282866Y0212757D01*
X0281863Y0211753D01*
X0281388Y0210607D01*
X0280913Y0211753D01*
X0279909Y0212757D01*
X0278598Y0213300D01*
X0277178Y0213300D01*
X0275866Y0212757D01*
X0274863Y0211753D01*
X0274319Y0210442D01*
X0274319Y0209022D01*
X0274863Y0207710D01*
X0275866Y0206706D01*
X0277178Y0206163D01*
X0278880Y0206280D02*
X0283896Y0206280D01*
X0285880Y0206280D02*
X0495833Y0206280D01*
X0497580Y0207479D02*
X0287681Y0207479D01*
X0288313Y0208677D02*
X0560056Y0208677D01*
X0559910Y0208324D02*
X0559910Y0207139D01*
X0560363Y0206045D01*
X0561201Y0205207D01*
X0562295Y0204754D01*
X0563480Y0204754D01*
X0564575Y0205207D01*
X0565412Y0206045D01*
X0565866Y0207139D01*
X0565866Y0208324D01*
X0565412Y0209419D01*
X0564575Y0210256D01*
X0563480Y0210710D01*
X0562295Y0210710D01*
X0561201Y0210256D01*
X0560363Y0209419D01*
X0559910Y0208324D01*
X0559910Y0207479D02*
X0520196Y0207479D01*
X0519676Y0207694D02*
X0518100Y0207694D01*
X0516643Y0207091D01*
X0515529Y0205976D01*
X0514926Y0204520D01*
X0514926Y0202944D01*
X0515529Y0201487D01*
X0516643Y0200373D01*
X0518100Y0199770D01*
X0519676Y0199770D01*
X0521132Y0200373D01*
X0522247Y0201487D01*
X0522850Y0202944D01*
X0522850Y0204520D01*
X0522247Y0205976D01*
X0521132Y0207091D01*
X0519676Y0207694D01*
X0517580Y0207479D02*
X0500196Y0207479D01*
X0501943Y0206280D02*
X0515833Y0206280D01*
X0515158Y0205082D02*
X0502617Y0205082D01*
X0502850Y0203883D02*
X0514926Y0203883D01*
X0515033Y0202685D02*
X0502743Y0202685D01*
X0502246Y0201486D02*
X0515530Y0201486D01*
X0516849Y0200288D02*
X0500927Y0200288D01*
X0496849Y0200288D02*
X0473145Y0200288D01*
X0473145Y0199089D02*
X0545020Y0199089D01*
X0544910Y0198824D02*
X0544910Y0197639D01*
X0545363Y0196545D01*
X0546201Y0195707D01*
X0547295Y0195254D01*
X0548480Y0195254D01*
X0549575Y0195707D01*
X0550412Y0196545D01*
X0550866Y0197639D01*
X0550866Y0198824D01*
X0550412Y0199919D01*
X0549575Y0200756D01*
X0548480Y0201210D01*
X0547295Y0201210D01*
X0546201Y0200756D01*
X0545363Y0199919D01*
X0544910Y0198824D01*
X0544910Y0197891D02*
X0472733Y0197891D01*
X0471869Y0196692D02*
X0506245Y0196692D01*
X0511531Y0196692D02*
X0545302Y0196692D01*
X0546717Y0195494D02*
X0512447Y0195494D01*
X0512850Y0194295D02*
X0593312Y0194295D01*
X0593363Y0194419D02*
X0592910Y0193324D01*
X0592910Y0192139D01*
X0593363Y0191045D01*
X0594201Y0190207D01*
X0595295Y0189754D01*
X0596480Y0189754D01*
X0597575Y0190207D01*
X0598412Y0191045D01*
X0598866Y0192139D01*
X0598866Y0193324D01*
X0598412Y0194419D01*
X0597575Y0195256D01*
X0596480Y0195710D01*
X0595295Y0195710D01*
X0594201Y0195256D01*
X0593363Y0194419D01*
X0592910Y0193097D02*
X0512850Y0193097D01*
X0512417Y0191898D02*
X0593010Y0191898D01*
X0593709Y0190699D02*
X0511459Y0190699D01*
X0502850Y0185905D02*
X0086625Y0185905D01*
X0086412Y0186419D02*
X0085575Y0187256D01*
X0084480Y0187710D01*
X0083295Y0187710D01*
X0082201Y0187256D01*
X0081363Y0186419D01*
X0080910Y0185324D01*
X0080910Y0184139D01*
X0081363Y0183045D01*
X0082201Y0182207D01*
X0083295Y0181754D01*
X0084480Y0181754D01*
X0085575Y0182207D01*
X0086412Y0183045D01*
X0086866Y0184139D01*
X0086866Y0185324D01*
X0086412Y0186419D01*
X0085727Y0187104D02*
X0589910Y0187104D01*
X0590315Y0188302D02*
X0253934Y0188302D01*
X0251842Y0188302D02*
X0225934Y0188302D01*
X0225598Y0188163D02*
X0226909Y0188706D01*
X0227913Y0189710D01*
X0228456Y0191022D01*
X0228456Y0192442D01*
X0227913Y0193753D01*
X0226909Y0194757D01*
X0225598Y0195300D01*
X0224178Y0195300D01*
X0222866Y0194757D01*
X0221863Y0193753D01*
X0221319Y0192442D01*
X0221319Y0191022D01*
X0221863Y0189710D01*
X0222866Y0188706D01*
X0224178Y0188163D01*
X0225598Y0188163D01*
X0223842Y0188302D02*
X0031456Y0188302D01*
X0031456Y0189501D02*
X0222072Y0189501D01*
X0221453Y0190699D02*
X0031456Y0190699D01*
X0031456Y0191898D02*
X0221319Y0191898D01*
X0221591Y0193097D02*
X0031456Y0193097D01*
X0031456Y0194295D02*
X0222404Y0194295D01*
X0227371Y0194295D02*
X0250404Y0194295D01*
X0249591Y0193097D02*
X0228185Y0193097D01*
X0228456Y0191898D02*
X0249319Y0191898D01*
X0249453Y0190699D02*
X0228323Y0190699D01*
X0227704Y0189501D02*
X0250072Y0189501D01*
X0255704Y0189501D02*
X0591792Y0189501D01*
X0593984Y0189501D02*
X0632446Y0189501D01*
X0632363Y0189419D02*
X0631910Y0188324D01*
X0631910Y0187139D01*
X0632363Y0186045D01*
X0633201Y0185207D01*
X0634295Y0184754D01*
X0635480Y0184754D01*
X0636575Y0185207D01*
X0637412Y0186045D01*
X0637866Y0187139D01*
X0637866Y0188324D01*
X0637412Y0189419D01*
X0636575Y0190256D01*
X0635480Y0190710D01*
X0634295Y0190710D01*
X0633201Y0190256D01*
X0632363Y0189419D01*
X0631910Y0188302D02*
X0595460Y0188302D01*
X0595866Y0187104D02*
X0631925Y0187104D01*
X0632503Y0185905D02*
X0595769Y0185905D01*
X0595074Y0184707D02*
X0740888Y0184707D01*
X0740888Y0185905D02*
X0637273Y0185905D01*
X0637851Y0187104D02*
X0740888Y0187104D01*
X0740888Y0188302D02*
X0637866Y0188302D01*
X0637330Y0189501D02*
X0740888Y0189501D01*
X0740888Y0190699D02*
X0635505Y0190699D01*
X0634271Y0190699D02*
X0610067Y0190699D01*
X0610412Y0191045D02*
X0610866Y0192139D01*
X0610866Y0193324D01*
X0610412Y0194419D01*
X0609575Y0195256D01*
X0608480Y0195710D01*
X0607295Y0195710D01*
X0606201Y0195256D01*
X0605363Y0194419D01*
X0604910Y0193324D01*
X0604910Y0192139D01*
X0605363Y0191045D01*
X0606201Y0190207D01*
X0607295Y0189754D01*
X0608480Y0189754D01*
X0609575Y0190207D01*
X0610412Y0191045D01*
X0610766Y0191898D02*
X0740888Y0191898D01*
X0740888Y0193097D02*
X0610866Y0193097D01*
X0610464Y0194295D02*
X0740888Y0194295D01*
X0740888Y0195494D02*
X0609002Y0195494D01*
X0606774Y0195494D02*
X0597002Y0195494D01*
X0598464Y0194295D02*
X0605312Y0194295D01*
X0604910Y0193097D02*
X0598866Y0193097D01*
X0598766Y0191898D02*
X0605010Y0191898D01*
X0605709Y0190699D02*
X0598067Y0190699D01*
X0600295Y0195754D02*
X0601480Y0195754D01*
X0602575Y0196207D01*
X0603412Y0197045D01*
X0603866Y0198139D01*
X0603866Y0199324D01*
X0603412Y0200419D01*
X0602575Y0201256D01*
X0601480Y0201710D01*
X0600295Y0201710D01*
X0599201Y0201256D01*
X0598363Y0200419D01*
X0597910Y0199324D01*
X0597910Y0198139D01*
X0598363Y0197045D01*
X0599201Y0196207D01*
X0600295Y0195754D01*
X0598716Y0196692D02*
X0550473Y0196692D01*
X0550866Y0197891D02*
X0598013Y0197891D01*
X0597910Y0199089D02*
X0550756Y0199089D01*
X0550043Y0200288D02*
X0598309Y0200288D01*
X0599756Y0201486D02*
X0522246Y0201486D01*
X0522743Y0202685D02*
X0632098Y0202685D01*
X0631910Y0203139D02*
X0632363Y0202045D01*
X0633201Y0201207D01*
X0634295Y0200754D01*
X0635480Y0200754D01*
X0636575Y0201207D01*
X0637412Y0202045D01*
X0637866Y0203139D01*
X0637866Y0204324D01*
X0637412Y0205419D01*
X0636575Y0206256D01*
X0635480Y0206710D01*
X0634295Y0206710D01*
X0633201Y0206256D01*
X0632363Y0205419D01*
X0631910Y0204324D01*
X0631910Y0203139D01*
X0631910Y0203883D02*
X0522850Y0203883D01*
X0522617Y0205082D02*
X0561504Y0205082D01*
X0560266Y0206280D02*
X0521943Y0206280D01*
X0520927Y0200288D02*
X0545732Y0200288D01*
X0549059Y0195494D02*
X0594774Y0195494D01*
X0603060Y0196692D02*
X0740888Y0196692D01*
X0740888Y0197891D02*
X0707258Y0197891D01*
X0707412Y0198045D02*
X0707866Y0199139D01*
X0707866Y0200324D01*
X0707562Y0201058D01*
X0708295Y0200754D01*
X0709480Y0200754D01*
X0710575Y0201207D01*
X0711412Y0202045D01*
X0711866Y0203139D01*
X0711866Y0204324D01*
X0711412Y0205419D01*
X0710575Y0206256D01*
X0709480Y0206710D01*
X0708295Y0206710D01*
X0707201Y0206256D01*
X0706363Y0205419D01*
X0705910Y0204324D01*
X0705910Y0203139D01*
X0706214Y0202406D01*
X0705480Y0202710D01*
X0704295Y0202710D01*
X0703201Y0202256D01*
X0702363Y0201419D01*
X0701910Y0200324D01*
X0701910Y0199139D01*
X0702363Y0198045D01*
X0703201Y0197207D01*
X0704295Y0196754D01*
X0705480Y0196754D01*
X0706575Y0197207D01*
X0707412Y0198045D01*
X0707845Y0199089D02*
X0740888Y0199089D01*
X0740888Y0200288D02*
X0707866Y0200288D01*
X0706098Y0202685D02*
X0705541Y0202685D01*
X0705910Y0203883D02*
X0637866Y0203883D01*
X0637677Y0202685D02*
X0704235Y0202685D01*
X0702431Y0201486D02*
X0636854Y0201486D01*
X0637552Y0205082D02*
X0699504Y0205082D01*
X0699201Y0205207D02*
X0700295Y0204754D01*
X0701480Y0204754D01*
X0702575Y0205207D01*
X0703412Y0206045D01*
X0703866Y0207139D01*
X0703866Y0208324D01*
X0703412Y0209419D01*
X0702575Y0210256D01*
X0701480Y0210710D01*
X0700295Y0210710D01*
X0699562Y0210406D01*
X0699866Y0211139D01*
X0699866Y0212324D01*
X0699412Y0213419D01*
X0698575Y0214256D01*
X0697480Y0214710D01*
X0696295Y0214710D01*
X0695201Y0214256D01*
X0694363Y0213419D01*
X0693910Y0212324D01*
X0693910Y0211139D01*
X0694363Y0210045D01*
X0695201Y0209207D01*
X0696295Y0208754D01*
X0697480Y0208754D01*
X0698214Y0209058D01*
X0697910Y0208324D01*
X0697910Y0207139D01*
X0698363Y0206045D01*
X0699201Y0205207D01*
X0698266Y0206280D02*
X0636517Y0206280D01*
X0633258Y0206280D02*
X0587510Y0206280D01*
X0587412Y0206045D02*
X0587866Y0207139D01*
X0587866Y0208324D01*
X0587412Y0209419D01*
X0586575Y0210256D01*
X0585480Y0210710D01*
X0584295Y0210710D01*
X0583201Y0210256D01*
X0582363Y0209419D01*
X0581910Y0208324D01*
X0581910Y0207139D01*
X0582363Y0206045D01*
X0583201Y0205207D01*
X0584295Y0204754D01*
X0585480Y0204754D01*
X0586575Y0205207D01*
X0587412Y0206045D01*
X0586272Y0205082D02*
X0632224Y0205082D01*
X0632922Y0201486D02*
X0602020Y0201486D01*
X0603467Y0200288D02*
X0701910Y0200288D01*
X0701931Y0199089D02*
X0603866Y0199089D01*
X0603763Y0197891D02*
X0702517Y0197891D01*
X0710854Y0201486D02*
X0740888Y0201486D01*
X0740888Y0202685D02*
X0711677Y0202685D01*
X0711866Y0203883D02*
X0740888Y0203883D01*
X0740888Y0205082D02*
X0711552Y0205082D01*
X0710517Y0206280D02*
X0740888Y0206280D01*
X0740888Y0207479D02*
X0703866Y0207479D01*
X0703719Y0208677D02*
X0740888Y0208677D01*
X0740888Y0209876D02*
X0702955Y0209876D01*
X0699839Y0211074D02*
X0740888Y0211074D01*
X0740888Y0212273D02*
X0699866Y0212273D01*
X0699360Y0213471D02*
X0740888Y0213471D01*
X0740888Y0214670D02*
X0697577Y0214670D01*
X0696199Y0214670D02*
X0316866Y0214670D01*
X0316866Y0214754D02*
X0317480Y0214754D01*
X0318575Y0215207D01*
X0319412Y0216045D01*
X0319866Y0217139D01*
X0319866Y0217754D01*
X0320480Y0217754D01*
X0321575Y0218207D01*
X0322412Y0219045D01*
X0322866Y0220139D01*
X0322866Y0220754D01*
X0323480Y0220754D01*
X0324575Y0221207D01*
X0325412Y0222045D01*
X0325866Y0223139D01*
X0325866Y0224324D01*
X0325412Y0225419D01*
X0324575Y0226256D01*
X0323480Y0226710D01*
X0322295Y0226710D01*
X0321201Y0226256D01*
X0320363Y0225419D01*
X0319910Y0224324D01*
X0319910Y0223710D01*
X0319295Y0223710D01*
X0318201Y0223256D01*
X0317363Y0222419D01*
X0316910Y0221324D01*
X0316910Y0220710D01*
X0316295Y0220710D01*
X0315201Y0220256D01*
X0314363Y0219419D01*
X0313910Y0218324D01*
X0313910Y0217710D01*
X0313295Y0217710D01*
X0312201Y0217256D01*
X0311363Y0216419D01*
X0310910Y0215324D01*
X0310910Y0214139D01*
X0311363Y0213045D01*
X0312201Y0212207D01*
X0313295Y0211754D01*
X0314480Y0211754D01*
X0315575Y0212207D01*
X0316412Y0213045D01*
X0316866Y0214139D01*
X0316866Y0214754D01*
X0316589Y0213471D02*
X0603720Y0213471D01*
X0603201Y0213256D02*
X0602363Y0212419D01*
X0601910Y0211324D01*
X0601910Y0210139D01*
X0602363Y0209045D01*
X0603201Y0208207D01*
X0604295Y0207754D01*
X0605480Y0207754D01*
X0606575Y0208207D01*
X0607412Y0209045D01*
X0607866Y0210139D01*
X0607866Y0211324D01*
X0607412Y0212419D01*
X0606575Y0213256D01*
X0605480Y0213710D01*
X0604295Y0213710D01*
X0603201Y0213256D01*
X0602303Y0212273D02*
X0315640Y0212273D01*
X0312135Y0212273D02*
X0287393Y0212273D01*
X0288194Y0211074D02*
X0601910Y0211074D01*
X0602019Y0209876D02*
X0586955Y0209876D01*
X0587719Y0208677D02*
X0602731Y0208677D01*
X0607045Y0208677D02*
X0698056Y0208677D01*
X0697910Y0207479D02*
X0587866Y0207479D01*
X0583504Y0205082D02*
X0564272Y0205082D01*
X0565510Y0206280D02*
X0582266Y0206280D01*
X0581910Y0207479D02*
X0565866Y0207479D01*
X0565719Y0208677D02*
X0582056Y0208677D01*
X0582820Y0209876D02*
X0564955Y0209876D01*
X0560820Y0209876D02*
X0288456Y0209876D01*
X0282382Y0212273D02*
X0280393Y0212273D01*
X0281194Y0211074D02*
X0281581Y0211074D01*
X0281462Y0208677D02*
X0281313Y0208677D01*
X0280681Y0207479D02*
X0282094Y0207479D01*
X0275094Y0207479D02*
X0031456Y0207479D01*
X0031456Y0208677D02*
X0274462Y0208677D01*
X0274319Y0209876D02*
X0149243Y0209876D01*
X0149412Y0210045D02*
X0149866Y0211139D01*
X0149866Y0211754D01*
X0150480Y0211754D01*
X0151575Y0212207D01*
X0151888Y0212520D01*
X0152201Y0212207D01*
X0153295Y0211754D01*
X0154480Y0211754D01*
X0155575Y0212207D01*
X0156412Y0213045D01*
X0156792Y0213962D01*
X0157295Y0213754D01*
X0158480Y0213754D01*
X0159575Y0214207D01*
X0160412Y0215045D01*
X0160866Y0216139D01*
X0160866Y0217324D01*
X0160412Y0218419D01*
X0159575Y0219256D01*
X0158480Y0219710D01*
X0157295Y0219710D01*
X0156201Y0219256D01*
X0155363Y0218419D01*
X0154983Y0217501D01*
X0154480Y0217710D01*
X0153295Y0217710D01*
X0152201Y0217256D01*
X0151888Y0216943D01*
X0151575Y0217256D01*
X0150480Y0217710D01*
X0149295Y0217710D01*
X0148201Y0217256D01*
X0147363Y0216419D01*
X0146910Y0215324D01*
X0146910Y0214710D01*
X0146295Y0214710D01*
X0145201Y0214256D01*
X0144363Y0213419D01*
X0143910Y0212324D01*
X0143910Y0211139D01*
X0144363Y0210045D01*
X0145201Y0209207D01*
X0146295Y0208754D01*
X0147480Y0208754D01*
X0148575Y0209207D01*
X0149412Y0210045D01*
X0149839Y0211074D02*
X0274581Y0211074D01*
X0275382Y0212273D02*
X0155640Y0212273D01*
X0156589Y0213471D02*
X0311187Y0213471D01*
X0310910Y0214670D02*
X0160037Y0214670D01*
X0160753Y0215868D02*
X0311135Y0215868D01*
X0312011Y0217067D02*
X0160866Y0217067D01*
X0160476Y0218265D02*
X0313910Y0218265D01*
X0314408Y0219464D02*
X0159074Y0219464D01*
X0156702Y0219464D02*
X0031456Y0219464D01*
X0031456Y0220662D02*
X0073463Y0220662D01*
X0073021Y0220845D02*
X0074478Y0220242D01*
X0076054Y0220242D01*
X0077510Y0220845D01*
X0078625Y0221960D01*
X0079228Y0223416D01*
X0079228Y0224992D01*
X0078625Y0226449D01*
X0077510Y0227563D01*
X0076054Y0228166D01*
X0074478Y0228166D01*
X0073021Y0227563D01*
X0071907Y0226449D01*
X0071304Y0224992D01*
X0071304Y0223416D01*
X0071907Y0221960D01*
X0073021Y0220845D01*
X0072006Y0221861D02*
X0031456Y0221861D01*
X0031456Y0223059D02*
X0071451Y0223059D01*
X0071304Y0224258D02*
X0031456Y0224258D01*
X0031456Y0225456D02*
X0071496Y0225456D01*
X0072113Y0226655D02*
X0031456Y0226655D01*
X0031456Y0227853D02*
X0073722Y0227853D01*
X0076810Y0227853D02*
X0093722Y0227853D01*
X0093021Y0227563D02*
X0091907Y0226449D01*
X0091304Y0224992D01*
X0091304Y0223416D01*
X0091907Y0221960D01*
X0093021Y0220845D01*
X0094478Y0220242D01*
X0096054Y0220242D01*
X0097510Y0220845D01*
X0098625Y0221960D01*
X0099228Y0223416D01*
X0099228Y0224992D01*
X0098625Y0226449D01*
X0097510Y0227563D01*
X0096054Y0228166D01*
X0094478Y0228166D01*
X0093021Y0227563D01*
X0092113Y0226655D02*
X0078418Y0226655D01*
X0079036Y0225456D02*
X0091496Y0225456D01*
X0091304Y0224258D02*
X0079228Y0224258D01*
X0079080Y0223059D02*
X0091451Y0223059D01*
X0092006Y0221861D02*
X0078526Y0221861D01*
X0077069Y0220662D02*
X0093463Y0220662D01*
X0097069Y0220662D02*
X0103463Y0220662D01*
X0103021Y0220845D02*
X0104478Y0220242D01*
X0106054Y0220242D01*
X0107510Y0220845D01*
X0108625Y0221960D01*
X0109228Y0223416D01*
X0109228Y0224992D01*
X0108625Y0226449D01*
X0107510Y0227563D01*
X0106054Y0228166D01*
X0104478Y0228166D01*
X0103021Y0227563D01*
X0101907Y0226449D01*
X0101304Y0224992D01*
X0101304Y0223416D01*
X0101907Y0221960D01*
X0103021Y0220845D01*
X0102006Y0221861D02*
X0098526Y0221861D01*
X0099080Y0223059D02*
X0101451Y0223059D01*
X0101304Y0224258D02*
X0099228Y0224258D01*
X0099036Y0225456D02*
X0101496Y0225456D01*
X0102113Y0226655D02*
X0098418Y0226655D01*
X0096810Y0227853D02*
X0103722Y0227853D01*
X0106810Y0227853D02*
X0113722Y0227853D01*
X0113021Y0227563D02*
X0111907Y0226449D01*
X0111304Y0224992D01*
X0111304Y0223416D01*
X0111907Y0221960D01*
X0113021Y0220845D01*
X0114478Y0220242D01*
X0116054Y0220242D01*
X0117510Y0220845D01*
X0118625Y0221960D01*
X0119228Y0223416D01*
X0119228Y0224992D01*
X0118625Y0226449D01*
X0117510Y0227563D01*
X0116054Y0228166D01*
X0114478Y0228166D01*
X0113021Y0227563D01*
X0112113Y0226655D02*
X0108418Y0226655D01*
X0109036Y0225456D02*
X0111496Y0225456D01*
X0111304Y0224258D02*
X0109228Y0224258D01*
X0109080Y0223059D02*
X0111451Y0223059D01*
X0112006Y0221861D02*
X0108526Y0221861D01*
X0107069Y0220662D02*
X0113463Y0220662D01*
X0117069Y0220662D02*
X0316181Y0220662D01*
X0317132Y0221861D02*
X0264228Y0221861D01*
X0264412Y0222045D02*
X0264866Y0223139D01*
X0264866Y0224324D01*
X0264412Y0225419D01*
X0263575Y0226256D01*
X0262480Y0226710D01*
X0261295Y0226710D01*
X0260201Y0226256D01*
X0259363Y0225419D01*
X0258910Y0224324D01*
X0258910Y0223139D01*
X0259363Y0222045D01*
X0260201Y0221207D01*
X0261295Y0220754D01*
X0262480Y0220754D01*
X0263575Y0221207D01*
X0264412Y0222045D01*
X0264833Y0223059D02*
X0318004Y0223059D01*
X0319910Y0224258D02*
X0264866Y0224258D01*
X0264375Y0225456D02*
X0320401Y0225456D01*
X0322163Y0226655D02*
X0262613Y0226655D01*
X0262480Y0226754D02*
X0263575Y0227207D01*
X0264412Y0228045D01*
X0264866Y0229139D01*
X0264866Y0230324D01*
X0264412Y0231419D01*
X0263575Y0232256D01*
X0262480Y0232710D01*
X0261295Y0232710D01*
X0260201Y0232256D01*
X0259363Y0231419D01*
X0258910Y0230324D01*
X0258910Y0229139D01*
X0259363Y0228045D01*
X0260201Y0227207D01*
X0261295Y0226754D01*
X0262480Y0226754D01*
X0261163Y0226655D02*
X0207665Y0226655D01*
X0207866Y0227139D02*
X0207412Y0226045D01*
X0206575Y0225207D01*
X0205480Y0224754D01*
X0204295Y0224754D01*
X0203201Y0225207D01*
X0202363Y0226045D01*
X0201910Y0227139D01*
X0201910Y0228324D01*
X0202363Y0229419D01*
X0203201Y0230256D01*
X0204295Y0230710D01*
X0205480Y0230710D01*
X0206575Y0230256D01*
X0207412Y0229419D01*
X0207866Y0228324D01*
X0207866Y0227139D01*
X0207866Y0227853D02*
X0259555Y0227853D01*
X0258946Y0229052D02*
X0231255Y0229052D01*
X0230909Y0228706D02*
X0231913Y0229710D01*
X0232456Y0231022D01*
X0232456Y0232442D01*
X0231913Y0233753D01*
X0230909Y0234757D01*
X0229598Y0235300D01*
X0228178Y0235300D01*
X0226866Y0234757D01*
X0225863Y0233753D01*
X0225319Y0232442D01*
X0225319Y0231022D01*
X0225863Y0229710D01*
X0226866Y0228706D01*
X0228178Y0228163D01*
X0229598Y0228163D01*
X0230909Y0228706D01*
X0232137Y0230250D02*
X0258910Y0230250D01*
X0259393Y0231449D02*
X0232456Y0231449D01*
X0232371Y0232647D02*
X0261145Y0232647D01*
X0262630Y0232647D02*
X0264910Y0232647D01*
X0264910Y0232139D02*
X0265363Y0231045D01*
X0266201Y0230207D01*
X0267295Y0229754D01*
X0268480Y0229754D01*
X0269575Y0230207D01*
X0270412Y0231045D01*
X0270866Y0232139D01*
X0270866Y0233324D01*
X0270412Y0234419D01*
X0269575Y0235256D01*
X0268480Y0235710D01*
X0267295Y0235710D01*
X0266201Y0235256D01*
X0265363Y0234419D01*
X0264910Y0233324D01*
X0264910Y0232139D01*
X0265196Y0231449D02*
X0264382Y0231449D01*
X0264866Y0230250D02*
X0266158Y0230250D01*
X0264829Y0229052D02*
X0670211Y0229052D01*
X0670363Y0229419D02*
X0669910Y0228324D01*
X0669910Y0227139D01*
X0670363Y0226045D01*
X0671201Y0225207D01*
X0672295Y0224754D01*
X0673480Y0224754D01*
X0674575Y0225207D01*
X0675412Y0226045D01*
X0675866Y0227139D01*
X0675866Y0228324D01*
X0675412Y0229419D01*
X0674575Y0230256D01*
X0673480Y0230710D01*
X0672295Y0230710D01*
X0671201Y0230256D01*
X0670363Y0229419D01*
X0671195Y0230250D02*
X0269618Y0230250D01*
X0270580Y0231449D02*
X0307488Y0231449D01*
X0306866Y0231706D02*
X0308178Y0231163D01*
X0309598Y0231163D01*
X0310909Y0231706D01*
X0311913Y0232710D01*
X0312456Y0234022D01*
X0312456Y0235442D01*
X0311913Y0236753D01*
X0310909Y0237757D01*
X0309598Y0238300D01*
X0308178Y0238300D01*
X0306866Y0237757D01*
X0305863Y0236753D01*
X0305319Y0235442D01*
X0305319Y0234022D01*
X0305863Y0232710D01*
X0306866Y0231706D01*
X0305926Y0232647D02*
X0270866Y0232647D01*
X0270650Y0233846D02*
X0305392Y0233846D01*
X0305319Y0235044D02*
X0269787Y0235044D01*
X0265989Y0235044D02*
X0230215Y0235044D01*
X0231820Y0233846D02*
X0265126Y0233846D01*
X0264221Y0227853D02*
X0669910Y0227853D01*
X0670111Y0226655D02*
X0323613Y0226655D01*
X0325375Y0225456D02*
X0670952Y0225456D01*
X0674824Y0225456D02*
X0740888Y0225456D01*
X0740888Y0224258D02*
X0325866Y0224258D01*
X0325833Y0223059D02*
X0740888Y0223059D01*
X0740888Y0221861D02*
X0686970Y0221861D01*
X0686575Y0222256D02*
X0685480Y0222710D01*
X0684295Y0222710D01*
X0683201Y0222256D01*
X0682363Y0221419D01*
X0681910Y0220324D01*
X0681910Y0219139D01*
X0682363Y0218045D01*
X0683201Y0217207D01*
X0684295Y0216754D01*
X0685480Y0216754D01*
X0686575Y0217207D01*
X0687412Y0218045D01*
X0687866Y0219139D01*
X0687866Y0220324D01*
X0687412Y0221419D01*
X0686575Y0222256D01*
X0687726Y0220662D02*
X0740888Y0220662D01*
X0740888Y0219464D02*
X0687866Y0219464D01*
X0687504Y0218265D02*
X0740888Y0218265D01*
X0740888Y0217067D02*
X0686236Y0217067D01*
X0683540Y0217067D02*
X0319836Y0217067D01*
X0319236Y0215868D02*
X0740888Y0215868D01*
X0740888Y0226655D02*
X0675665Y0226655D01*
X0675866Y0227853D02*
X0740888Y0227853D01*
X0740888Y0229052D02*
X0675564Y0229052D01*
X0674581Y0230250D02*
X0740888Y0230250D01*
X0740888Y0231449D02*
X0310287Y0231449D01*
X0311850Y0232647D02*
X0740888Y0232647D01*
X0740888Y0233846D02*
X0312383Y0233846D01*
X0312456Y0235044D02*
X0740888Y0235044D01*
X0740888Y0236243D02*
X0312124Y0236243D01*
X0311225Y0237441D02*
X0740888Y0237441D01*
X0740888Y0238640D02*
X0195026Y0238640D01*
X0194909Y0238757D02*
X0193598Y0239300D01*
X0192178Y0239300D01*
X0190866Y0238757D01*
X0189863Y0237753D01*
X0189319Y0236442D01*
X0189319Y0235022D01*
X0189863Y0233710D01*
X0190866Y0232706D01*
X0192178Y0232163D01*
X0193598Y0232163D01*
X0194909Y0232706D01*
X0195913Y0233710D01*
X0196456Y0235022D01*
X0196456Y0236442D01*
X0195913Y0237753D01*
X0194909Y0238757D01*
X0196042Y0237441D02*
X0306551Y0237441D01*
X0305651Y0236243D02*
X0196456Y0236243D01*
X0196456Y0235044D02*
X0227560Y0235044D01*
X0225955Y0233846D02*
X0195969Y0233846D01*
X0194766Y0232647D02*
X0225405Y0232647D01*
X0225319Y0231449D02*
X0031456Y0231449D01*
X0031456Y0232647D02*
X0191009Y0232647D01*
X0189806Y0233846D02*
X0031456Y0233846D01*
X0031456Y0235044D02*
X0189319Y0235044D01*
X0189319Y0236243D02*
X0031456Y0236243D01*
X0031456Y0237441D02*
X0189733Y0237441D01*
X0190749Y0238640D02*
X0031456Y0238640D01*
X0031456Y0239838D02*
X0740888Y0239838D01*
X0740888Y0241037D02*
X0273164Y0241037D01*
X0273575Y0241207D02*
X0272480Y0240754D01*
X0271295Y0240754D01*
X0270201Y0241207D01*
X0269363Y0242045D01*
X0268910Y0243139D01*
X0268910Y0244324D01*
X0269363Y0245419D01*
X0270201Y0246256D01*
X0271295Y0246710D01*
X0272480Y0246710D01*
X0273575Y0246256D01*
X0274412Y0245419D01*
X0274866Y0244324D01*
X0274866Y0243139D01*
X0274412Y0242045D01*
X0273575Y0241207D01*
X0274491Y0242235D02*
X0740888Y0242235D01*
X0740888Y0243434D02*
X0274866Y0243434D01*
X0274738Y0244633D02*
X0740888Y0244633D01*
X0740888Y0245831D02*
X0274000Y0245831D01*
X0269776Y0245831D02*
X0267963Y0245831D01*
X0267913Y0245710D02*
X0268456Y0247022D01*
X0268456Y0248442D01*
X0267913Y0249753D01*
X0266909Y0250757D01*
X0265598Y0251300D01*
X0264178Y0251300D01*
X0262866Y0250757D01*
X0261863Y0249753D01*
X0261319Y0248442D01*
X0261319Y0247022D01*
X0261863Y0245710D01*
X0262866Y0244706D01*
X0264178Y0244163D01*
X0265598Y0244163D01*
X0266909Y0244706D01*
X0267913Y0245710D01*
X0268456Y0247030D02*
X0740888Y0247030D01*
X0740888Y0248228D02*
X0613754Y0248228D01*
X0613598Y0248163D02*
X0614909Y0248706D01*
X0615913Y0249710D01*
X0616456Y0251022D01*
X0616456Y0252442D01*
X0615913Y0253753D01*
X0614909Y0254757D01*
X0613598Y0255300D01*
X0612178Y0255300D01*
X0610866Y0254757D01*
X0609863Y0253753D01*
X0609319Y0252442D01*
X0609319Y0251022D01*
X0609863Y0249710D01*
X0610866Y0248706D01*
X0612178Y0248163D01*
X0613598Y0248163D01*
X0612021Y0248228D02*
X0299596Y0248228D01*
X0299575Y0248207D02*
X0300412Y0249045D01*
X0300866Y0250139D01*
X0300866Y0251324D01*
X0300412Y0252419D01*
X0299599Y0253232D01*
X0300412Y0254045D01*
X0300866Y0255139D01*
X0300866Y0256324D01*
X0300412Y0257419D01*
X0299575Y0258256D01*
X0298480Y0258710D01*
X0297295Y0258710D01*
X0296201Y0258256D01*
X0295388Y0257443D01*
X0294575Y0258256D01*
X0293480Y0258710D01*
X0292295Y0258710D01*
X0291201Y0258256D01*
X0290388Y0257443D01*
X0289575Y0258256D01*
X0288480Y0258710D01*
X0287295Y0258710D01*
X0286201Y0258256D01*
X0285363Y0257419D01*
X0284910Y0256324D01*
X0284910Y0255139D01*
X0285363Y0254045D01*
X0286201Y0253207D01*
X0287295Y0252754D01*
X0288480Y0252754D01*
X0289575Y0253207D01*
X0290388Y0254020D01*
X0291201Y0253207D01*
X0292295Y0252754D01*
X0293480Y0252754D01*
X0294575Y0253207D01*
X0295388Y0254020D01*
X0296176Y0253232D01*
X0295363Y0252419D01*
X0294910Y0251324D01*
X0294910Y0250139D01*
X0295363Y0249045D01*
X0296201Y0248207D01*
X0297295Y0247754D01*
X0298480Y0247754D01*
X0299575Y0248207D01*
X0300570Y0249427D02*
X0340891Y0249427D01*
X0339865Y0249852D02*
X0343124Y0248502D01*
X0346652Y0248502D01*
X0349911Y0249852D01*
X0352405Y0252346D01*
X0353755Y0255606D01*
X0353755Y0259133D01*
X0352405Y0262393D01*
X0349911Y0264887D01*
X0346652Y0266237D01*
X0343124Y0266237D01*
X0339865Y0264887D01*
X0337370Y0262393D01*
X0336020Y0259133D01*
X0336020Y0255606D01*
X0337370Y0252346D01*
X0339865Y0249852D01*
X0339091Y0250625D02*
X0300866Y0250625D01*
X0300659Y0251824D02*
X0337893Y0251824D01*
X0337090Y0253022D02*
X0299809Y0253022D01*
X0300485Y0254221D02*
X0336594Y0254221D01*
X0336097Y0255419D02*
X0300866Y0255419D01*
X0300744Y0256618D02*
X0304790Y0256618D01*
X0305201Y0256207D02*
X0306295Y0255754D01*
X0307480Y0255754D01*
X0308575Y0256207D01*
X0309412Y0257045D01*
X0309866Y0258139D01*
X0309866Y0259324D01*
X0309412Y0260419D01*
X0308575Y0261256D01*
X0307480Y0261710D01*
X0306295Y0261710D01*
X0305201Y0261256D01*
X0304363Y0260419D01*
X0303910Y0259324D01*
X0303910Y0258139D01*
X0304363Y0257045D01*
X0305201Y0256207D01*
X0304044Y0257816D02*
X0300015Y0257816D01*
X0303910Y0259015D02*
X0272580Y0259015D01*
X0272412Y0259419D02*
X0272866Y0258324D01*
X0272866Y0257139D01*
X0272412Y0256045D01*
X0271575Y0255207D01*
X0270480Y0254754D01*
X0269866Y0254754D01*
X0269866Y0254139D01*
X0269412Y0253045D01*
X0268575Y0252207D01*
X0267480Y0251754D01*
X0266295Y0251754D01*
X0265201Y0252207D01*
X0264363Y0253045D01*
X0263910Y0254139D01*
X0263910Y0255324D01*
X0264363Y0256419D01*
X0265201Y0257256D01*
X0266295Y0257710D01*
X0266910Y0257710D01*
X0266910Y0258324D01*
X0267363Y0259419D01*
X0268201Y0260256D01*
X0269295Y0260710D01*
X0270480Y0260710D01*
X0271575Y0260256D01*
X0272412Y0259419D01*
X0271618Y0260213D02*
X0304278Y0260213D01*
X0305576Y0261412D02*
X0266829Y0261412D01*
X0266866Y0261324D02*
X0266412Y0262419D01*
X0265575Y0263256D01*
X0264480Y0263710D01*
X0263295Y0263710D01*
X0262201Y0263256D01*
X0261363Y0262419D01*
X0260910Y0261324D01*
X0260910Y0260139D01*
X0261363Y0259045D01*
X0262201Y0258207D01*
X0263295Y0257754D01*
X0264480Y0257754D01*
X0265575Y0258207D01*
X0266412Y0259045D01*
X0266866Y0260139D01*
X0266866Y0261324D01*
X0266866Y0260213D02*
X0268158Y0260213D01*
X0267196Y0259015D02*
X0266382Y0259015D01*
X0266910Y0257816D02*
X0264631Y0257816D01*
X0264562Y0256618D02*
X0165755Y0256618D01*
X0165755Y0255606D02*
X0164405Y0252346D01*
X0161911Y0249852D01*
X0158652Y0248502D01*
X0155124Y0248502D01*
X0151865Y0249852D01*
X0149370Y0252346D01*
X0148020Y0255606D01*
X0148020Y0259133D01*
X0149370Y0262393D01*
X0151865Y0264887D01*
X0155124Y0266237D01*
X0158652Y0266237D01*
X0161911Y0264887D01*
X0164405Y0262393D01*
X0165755Y0259133D01*
X0165755Y0255606D01*
X0165678Y0255419D02*
X0263949Y0255419D01*
X0263910Y0254221D02*
X0195446Y0254221D01*
X0195913Y0253753D02*
X0194909Y0254757D01*
X0193598Y0255300D01*
X0192178Y0255300D01*
X0190866Y0254757D01*
X0189863Y0253753D01*
X0189319Y0252442D01*
X0189319Y0251022D01*
X0189863Y0249710D01*
X0190866Y0248706D01*
X0192178Y0248163D01*
X0193598Y0248163D01*
X0194909Y0248706D01*
X0195913Y0249710D01*
X0196456Y0251022D01*
X0196456Y0252442D01*
X0195913Y0253753D01*
X0196216Y0253022D02*
X0264386Y0253022D01*
X0266127Y0251824D02*
X0196456Y0251824D01*
X0196292Y0250625D02*
X0262735Y0250625D01*
X0261727Y0249427D02*
X0195629Y0249427D01*
X0193754Y0248228D02*
X0261319Y0248228D01*
X0261319Y0247030D02*
X0031456Y0247030D01*
X0031456Y0248228D02*
X0192021Y0248228D01*
X0190146Y0249427D02*
X0160884Y0249427D01*
X0162684Y0250625D02*
X0189484Y0250625D01*
X0189319Y0251824D02*
X0163883Y0251824D01*
X0164685Y0253022D02*
X0189560Y0253022D01*
X0190330Y0254221D02*
X0165182Y0254221D01*
X0165755Y0257816D02*
X0263145Y0257816D01*
X0261393Y0259015D02*
X0165755Y0259015D01*
X0165308Y0260213D02*
X0260910Y0260213D01*
X0260946Y0261412D02*
X0164812Y0261412D01*
X0164188Y0262610D02*
X0261555Y0262610D01*
X0266221Y0262610D02*
X0337588Y0262610D01*
X0336964Y0261412D02*
X0308200Y0261412D01*
X0309497Y0260213D02*
X0336467Y0260213D01*
X0336020Y0259015D02*
X0309866Y0259015D01*
X0309732Y0257816D02*
X0336020Y0257816D01*
X0336020Y0256618D02*
X0308985Y0256618D01*
X0295761Y0257816D02*
X0295015Y0257816D01*
X0290761Y0257816D02*
X0290015Y0257816D01*
X0285761Y0257816D02*
X0272866Y0257816D01*
X0272650Y0256618D02*
X0285031Y0256618D01*
X0284910Y0255419D02*
X0271787Y0255419D01*
X0269866Y0254221D02*
X0285290Y0254221D01*
X0286648Y0253022D02*
X0269390Y0253022D01*
X0267649Y0251824D02*
X0295117Y0251824D01*
X0294910Y0250625D02*
X0267041Y0250625D01*
X0268048Y0249427D02*
X0295205Y0249427D01*
X0296180Y0248228D02*
X0268456Y0248228D01*
X0269038Y0244633D02*
X0266731Y0244633D01*
X0268910Y0243434D02*
X0227866Y0243434D01*
X0227866Y0243139D02*
X0227866Y0244324D01*
X0227412Y0245419D01*
X0226575Y0246256D01*
X0225480Y0246710D01*
X0224295Y0246710D01*
X0223201Y0246256D01*
X0222363Y0245419D01*
X0221910Y0244324D01*
X0221910Y0243139D01*
X0222363Y0242045D01*
X0223201Y0241207D01*
X0224295Y0240754D01*
X0225480Y0240754D01*
X0226575Y0241207D01*
X0227412Y0242045D01*
X0227866Y0243139D01*
X0227491Y0242235D02*
X0269284Y0242235D01*
X0270612Y0241037D02*
X0226164Y0241037D01*
X0223612Y0241037D02*
X0031456Y0241037D01*
X0031456Y0242235D02*
X0222284Y0242235D01*
X0221910Y0243434D02*
X0031456Y0243434D01*
X0031456Y0244633D02*
X0222038Y0244633D01*
X0222776Y0245831D02*
X0031456Y0245831D01*
X0031456Y0249427D02*
X0152891Y0249427D01*
X0151091Y0250625D02*
X0087920Y0250625D01*
X0087510Y0250215D02*
X0088625Y0251330D01*
X0089228Y0252786D01*
X0089228Y0254362D01*
X0088625Y0255819D01*
X0087510Y0256933D01*
X0086054Y0257536D01*
X0084478Y0257536D01*
X0083021Y0256933D01*
X0081907Y0255819D01*
X0081304Y0254362D01*
X0081304Y0252786D01*
X0081907Y0251330D01*
X0083021Y0250215D01*
X0084478Y0249612D01*
X0086054Y0249612D01*
X0087510Y0250215D01*
X0088829Y0251824D02*
X0149893Y0251824D01*
X0149090Y0253022D02*
X0089228Y0253022D01*
X0089228Y0254221D02*
X0148594Y0254221D01*
X0148097Y0255419D02*
X0088790Y0255419D01*
X0087826Y0256618D02*
X0148020Y0256618D01*
X0148020Y0257816D02*
X0031456Y0257816D01*
X0031456Y0256618D02*
X0082706Y0256618D01*
X0081741Y0255419D02*
X0031456Y0255419D01*
X0031456Y0254221D02*
X0081304Y0254221D01*
X0081304Y0253022D02*
X0031456Y0253022D01*
X0031456Y0251824D02*
X0081702Y0251824D01*
X0082612Y0250625D02*
X0031456Y0250625D01*
X0031456Y0259015D02*
X0148020Y0259015D01*
X0148467Y0260213D02*
X0117505Y0260213D01*
X0117510Y0260215D02*
X0118625Y0261330D01*
X0119228Y0262786D01*
X0119228Y0264362D01*
X0118625Y0265819D01*
X0117510Y0266933D01*
X0116054Y0267536D01*
X0114478Y0267536D01*
X0113021Y0266933D01*
X0111907Y0265819D01*
X0111304Y0264362D01*
X0111304Y0262786D01*
X0111907Y0261330D01*
X0113021Y0260215D01*
X0114478Y0259612D01*
X0116054Y0259612D01*
X0117510Y0260215D01*
X0118659Y0261412D02*
X0148964Y0261412D01*
X0149588Y0262610D02*
X0119155Y0262610D01*
X0119228Y0263809D02*
X0150786Y0263809D01*
X0152154Y0265007D02*
X0118961Y0265007D01*
X0118238Y0266206D02*
X0155048Y0266206D01*
X0158728Y0266206D02*
X0343048Y0266206D01*
X0340154Y0265007D02*
X0161621Y0265007D01*
X0162989Y0263809D02*
X0338786Y0263809D01*
X0346728Y0266206D02*
X0447048Y0266206D01*
X0447124Y0266237D02*
X0443865Y0264887D01*
X0441370Y0262393D01*
X0440020Y0259133D01*
X0440020Y0255606D01*
X0441370Y0252346D01*
X0443865Y0249852D01*
X0447124Y0248502D01*
X0450652Y0248502D01*
X0453911Y0249852D01*
X0456405Y0252346D01*
X0457755Y0255606D01*
X0457755Y0259133D01*
X0456405Y0262393D01*
X0453911Y0264887D01*
X0450652Y0266237D01*
X0447124Y0266237D01*
X0444154Y0265007D02*
X0349621Y0265007D01*
X0350989Y0263809D02*
X0442786Y0263809D01*
X0441588Y0262610D02*
X0352188Y0262610D01*
X0352812Y0261412D02*
X0440964Y0261412D01*
X0440467Y0260213D02*
X0353308Y0260213D01*
X0353755Y0259015D02*
X0440020Y0259015D01*
X0440020Y0257816D02*
X0353755Y0257816D01*
X0353755Y0256618D02*
X0440020Y0256618D01*
X0440097Y0255419D02*
X0353678Y0255419D01*
X0353182Y0254221D02*
X0440594Y0254221D01*
X0441090Y0253022D02*
X0352685Y0253022D01*
X0351883Y0251824D02*
X0441893Y0251824D01*
X0443091Y0250625D02*
X0350684Y0250625D01*
X0348884Y0249427D02*
X0444891Y0249427D01*
X0452884Y0249427D02*
X0548891Y0249427D01*
X0547865Y0249852D02*
X0551124Y0248502D01*
X0554652Y0248502D01*
X0557911Y0249852D01*
X0560405Y0252346D01*
X0561755Y0255606D01*
X0561755Y0259133D01*
X0560405Y0262393D01*
X0557911Y0264887D01*
X0554652Y0266237D01*
X0551124Y0266237D01*
X0547865Y0264887D01*
X0545370Y0262393D01*
X0544020Y0259133D01*
X0544020Y0255606D01*
X0545370Y0252346D01*
X0547865Y0249852D01*
X0547091Y0250625D02*
X0454684Y0250625D01*
X0455883Y0251824D02*
X0545893Y0251824D01*
X0545090Y0253022D02*
X0456685Y0253022D01*
X0457182Y0254221D02*
X0544594Y0254221D01*
X0544097Y0255419D02*
X0457678Y0255419D01*
X0457755Y0256618D02*
X0544020Y0256618D01*
X0544020Y0257816D02*
X0457755Y0257816D01*
X0457755Y0259015D02*
X0544020Y0259015D01*
X0544467Y0260213D02*
X0457308Y0260213D01*
X0456812Y0261412D02*
X0544964Y0261412D01*
X0545588Y0262610D02*
X0456188Y0262610D01*
X0454989Y0263809D02*
X0546786Y0263809D01*
X0548154Y0265007D02*
X0453621Y0265007D01*
X0450728Y0266206D02*
X0551048Y0266206D01*
X0554728Y0266206D02*
X0609657Y0266206D01*
X0609863Y0265710D02*
X0610866Y0264706D01*
X0612178Y0264163D01*
X0613598Y0264163D01*
X0614909Y0264706D01*
X0615913Y0265710D01*
X0616456Y0267022D01*
X0616456Y0268442D01*
X0615913Y0269753D01*
X0614909Y0270757D01*
X0613598Y0271300D01*
X0612178Y0271300D01*
X0610866Y0270757D01*
X0609863Y0269753D01*
X0609319Y0268442D01*
X0609319Y0267022D01*
X0609863Y0265710D01*
X0610566Y0265007D02*
X0557621Y0265007D01*
X0558989Y0263809D02*
X0650786Y0263809D01*
X0651865Y0264887D02*
X0649370Y0262393D01*
X0648020Y0259133D01*
X0648020Y0255606D01*
X0649370Y0252346D01*
X0651865Y0249852D01*
X0655124Y0248502D01*
X0658652Y0248502D01*
X0661911Y0249852D01*
X0664405Y0252346D01*
X0665755Y0255606D01*
X0665755Y0259133D01*
X0664405Y0262393D01*
X0661911Y0264887D01*
X0658652Y0266237D01*
X0655124Y0266237D01*
X0651865Y0264887D01*
X0652154Y0265007D02*
X0615210Y0265007D01*
X0616118Y0266206D02*
X0655048Y0266206D01*
X0658728Y0266206D02*
X0740888Y0266206D01*
X0740888Y0267404D02*
X0616456Y0267404D01*
X0616390Y0268603D02*
X0740888Y0268603D01*
X0740888Y0269801D02*
X0615865Y0269801D01*
X0614323Y0271000D02*
X0740888Y0271000D01*
X0740888Y0272198D02*
X0613682Y0272198D01*
X0613598Y0272163D02*
X0614909Y0272706D01*
X0615913Y0273710D01*
X0616456Y0275022D01*
X0616456Y0276442D01*
X0615913Y0277753D01*
X0614909Y0278757D01*
X0613598Y0279300D01*
X0612178Y0279300D01*
X0610866Y0278757D01*
X0609863Y0277753D01*
X0609319Y0276442D01*
X0609319Y0275022D01*
X0609863Y0273710D01*
X0610866Y0272706D01*
X0612178Y0272163D01*
X0613598Y0272163D01*
X0612093Y0272198D02*
X0031456Y0272198D01*
X0031456Y0271000D02*
X0611453Y0271000D01*
X0609911Y0269801D02*
X0031456Y0269801D01*
X0031456Y0268603D02*
X0609386Y0268603D01*
X0609319Y0267404D02*
X0116373Y0267404D01*
X0114158Y0267404D02*
X0106373Y0267404D01*
X0106054Y0267536D02*
X0104478Y0267536D01*
X0103021Y0266933D01*
X0101907Y0265819D01*
X0101304Y0264362D01*
X0101304Y0262786D01*
X0101907Y0261330D01*
X0103021Y0260215D01*
X0104478Y0259612D01*
X0106054Y0259612D01*
X0107510Y0260215D01*
X0108625Y0261330D01*
X0109228Y0262786D01*
X0109228Y0264362D01*
X0108625Y0265819D01*
X0107510Y0266933D01*
X0106054Y0267536D01*
X0104158Y0267404D02*
X0096373Y0267404D01*
X0096054Y0267536D02*
X0094478Y0267536D01*
X0093021Y0266933D01*
X0091907Y0265819D01*
X0091304Y0264362D01*
X0091304Y0262786D01*
X0091907Y0261330D01*
X0093021Y0260215D01*
X0094478Y0259612D01*
X0096054Y0259612D01*
X0097510Y0260215D01*
X0098625Y0261330D01*
X0099228Y0262786D01*
X0099228Y0264362D01*
X0098625Y0265819D01*
X0097510Y0266933D01*
X0096054Y0267536D01*
X0094158Y0267404D02*
X0076373Y0267404D01*
X0076054Y0267536D02*
X0074478Y0267536D01*
X0073021Y0266933D01*
X0071907Y0265819D01*
X0071304Y0264362D01*
X0071304Y0262786D01*
X0071907Y0261330D01*
X0073021Y0260215D01*
X0074478Y0259612D01*
X0076054Y0259612D01*
X0077510Y0260215D01*
X0078625Y0261330D01*
X0079228Y0262786D01*
X0079228Y0264362D01*
X0078625Y0265819D01*
X0077510Y0266933D01*
X0076054Y0267536D01*
X0074158Y0267404D02*
X0031456Y0267404D01*
X0031456Y0266206D02*
X0072294Y0266206D01*
X0071571Y0265007D02*
X0031456Y0265007D01*
X0031456Y0263809D02*
X0071304Y0263809D01*
X0071376Y0262610D02*
X0031456Y0262610D01*
X0031456Y0261412D02*
X0071873Y0261412D01*
X0073026Y0260213D02*
X0031456Y0260213D01*
X0031456Y0273397D02*
X0610176Y0273397D01*
X0609496Y0274595D02*
X0031456Y0274595D01*
X0031456Y0275794D02*
X0609319Y0275794D01*
X0609547Y0276992D02*
X0282056Y0276992D01*
X0282575Y0277207D02*
X0283412Y0278045D01*
X0283866Y0279139D01*
X0283866Y0280324D01*
X0283412Y0281419D01*
X0282575Y0282256D01*
X0281480Y0282710D01*
X0280295Y0282710D01*
X0279201Y0282256D01*
X0278363Y0281419D01*
X0277910Y0280324D01*
X0277910Y0279139D01*
X0278363Y0278045D01*
X0279201Y0277207D01*
X0280295Y0276754D01*
X0281480Y0276754D01*
X0282575Y0277207D01*
X0283473Y0278191D02*
X0610300Y0278191D01*
X0611153Y0280588D02*
X0283756Y0280588D01*
X0283866Y0279389D02*
X0685910Y0279389D01*
X0685910Y0279139D02*
X0685910Y0280324D01*
X0686363Y0281419D01*
X0687201Y0282256D01*
X0688295Y0282710D01*
X0689480Y0282710D01*
X0690575Y0282256D01*
X0691412Y0281419D01*
X0691866Y0280324D01*
X0691866Y0279139D01*
X0691412Y0278045D01*
X0690575Y0277207D01*
X0689480Y0276754D01*
X0688688Y0276754D01*
X0688866Y0276324D01*
X0688866Y0275139D01*
X0688412Y0274045D01*
X0687575Y0273207D01*
X0686480Y0272754D01*
X0685295Y0272754D01*
X0684201Y0273207D01*
X0683363Y0274045D01*
X0682910Y0275139D01*
X0682910Y0276324D01*
X0683363Y0277419D01*
X0684201Y0278256D01*
X0685295Y0278710D01*
X0686088Y0278710D01*
X0685910Y0279139D01*
X0686019Y0280588D02*
X0614623Y0280588D01*
X0614909Y0280706D02*
X0615913Y0281710D01*
X0616456Y0283022D01*
X0616456Y0284442D01*
X0615913Y0285753D01*
X0614909Y0286757D01*
X0613598Y0287300D01*
X0612178Y0287300D01*
X0610866Y0286757D01*
X0609863Y0285753D01*
X0609319Y0284442D01*
X0609319Y0283022D01*
X0609863Y0281710D01*
X0610866Y0280706D01*
X0612178Y0280163D01*
X0613598Y0280163D01*
X0614909Y0280706D01*
X0615945Y0281786D02*
X0686731Y0281786D01*
X0691045Y0281786D02*
X0740888Y0281786D01*
X0740888Y0280588D02*
X0691756Y0280588D01*
X0691866Y0279389D02*
X0740888Y0279389D01*
X0740888Y0278191D02*
X0691473Y0278191D01*
X0690056Y0276992D02*
X0740888Y0276992D01*
X0740888Y0275794D02*
X0688866Y0275794D01*
X0688640Y0274595D02*
X0740888Y0274595D01*
X0740888Y0273397D02*
X0687764Y0273397D01*
X0684011Y0273397D02*
X0615599Y0273397D01*
X0616280Y0274595D02*
X0683135Y0274595D01*
X0682910Y0275794D02*
X0616456Y0275794D01*
X0616228Y0276992D02*
X0683187Y0276992D01*
X0684135Y0278191D02*
X0615475Y0278191D01*
X0616441Y0282985D02*
X0740888Y0282985D01*
X0740888Y0284183D02*
X0616456Y0284183D01*
X0616067Y0285382D02*
X0675026Y0285382D01*
X0675201Y0285207D02*
X0676295Y0284754D01*
X0677480Y0284754D01*
X0678575Y0285207D01*
X0679412Y0286045D01*
X0679866Y0287139D01*
X0679866Y0288324D01*
X0679412Y0289419D01*
X0678575Y0290256D01*
X0677480Y0290710D01*
X0676295Y0290710D01*
X0675201Y0290256D01*
X0674363Y0289419D01*
X0673910Y0288324D01*
X0673910Y0287139D01*
X0674363Y0286045D01*
X0675201Y0285207D01*
X0674141Y0286580D02*
X0615086Y0286580D01*
X0610690Y0286580D02*
X0576273Y0286580D01*
X0576456Y0287022D02*
X0575913Y0285710D01*
X0574909Y0284706D01*
X0573598Y0284163D01*
X0572178Y0284163D01*
X0570866Y0284706D01*
X0569863Y0285710D01*
X0569319Y0287022D01*
X0569319Y0288442D01*
X0569863Y0289753D01*
X0570866Y0290757D01*
X0572178Y0291300D01*
X0573598Y0291300D01*
X0574909Y0290757D01*
X0575913Y0289753D01*
X0576456Y0288442D01*
X0576456Y0287022D01*
X0576456Y0287779D02*
X0673910Y0287779D01*
X0674180Y0288977D02*
X0576234Y0288977D01*
X0575490Y0290176D02*
X0675121Y0290176D01*
X0678655Y0290176D02*
X0740888Y0290176D01*
X0740888Y0291374D02*
X0308684Y0291374D01*
X0308467Y0291591D02*
X0306793Y0292284D01*
X0304982Y0292284D01*
X0303309Y0291591D01*
X0302028Y0290311D01*
X0301335Y0288637D01*
X0301335Y0286826D01*
X0302028Y0285153D01*
X0303309Y0283872D01*
X0304982Y0283179D01*
X0306793Y0283179D01*
X0308467Y0283872D01*
X0309747Y0285153D01*
X0310441Y0286826D01*
X0310441Y0288637D01*
X0309747Y0290311D01*
X0308467Y0291591D01*
X0309803Y0290176D02*
X0446285Y0290176D01*
X0445863Y0289753D02*
X0445319Y0288442D01*
X0445319Y0287022D01*
X0445863Y0285710D01*
X0446866Y0284706D01*
X0448178Y0284163D01*
X0449598Y0284163D01*
X0450909Y0284706D01*
X0451913Y0285710D01*
X0452456Y0287022D01*
X0452456Y0288442D01*
X0451913Y0289753D01*
X0450909Y0290757D01*
X0449598Y0291300D01*
X0448178Y0291300D01*
X0446866Y0290757D01*
X0445863Y0289753D01*
X0445541Y0288977D02*
X0310300Y0288977D01*
X0310441Y0287779D02*
X0445319Y0287779D01*
X0445502Y0286580D02*
X0310339Y0286580D01*
X0309842Y0285382D02*
X0446191Y0285382D01*
X0448129Y0284183D02*
X0308778Y0284183D01*
X0302998Y0284183D02*
X0298778Y0284183D01*
X0298467Y0283872D02*
X0299747Y0285153D01*
X0300441Y0286826D01*
X0300441Y0288637D01*
X0299747Y0290311D01*
X0298467Y0291591D01*
X0296793Y0292284D01*
X0294982Y0292284D01*
X0293309Y0291591D01*
X0292028Y0290311D01*
X0291335Y0288637D01*
X0291335Y0286826D01*
X0292028Y0285153D01*
X0293309Y0283872D01*
X0294982Y0283179D01*
X0296793Y0283179D01*
X0298467Y0283872D01*
X0299842Y0285382D02*
X0301933Y0285382D01*
X0301437Y0286580D02*
X0300339Y0286580D01*
X0300441Y0287779D02*
X0301335Y0287779D01*
X0301476Y0288977D02*
X0300300Y0288977D01*
X0299803Y0290176D02*
X0301972Y0290176D01*
X0303092Y0291374D02*
X0298684Y0291374D01*
X0298224Y0293771D02*
X0303552Y0293771D01*
X0303309Y0293872D02*
X0304982Y0293179D01*
X0306793Y0293179D01*
X0308467Y0293872D01*
X0309747Y0295153D01*
X0310441Y0296826D01*
X0310441Y0298637D01*
X0309747Y0300311D01*
X0308467Y0301591D01*
X0306793Y0302284D01*
X0304982Y0302284D01*
X0303309Y0301591D01*
X0302028Y0300311D01*
X0301335Y0298637D01*
X0301335Y0296826D01*
X0302028Y0295153D01*
X0303309Y0293872D01*
X0302211Y0294970D02*
X0299565Y0294970D01*
X0299747Y0295153D02*
X0300441Y0296826D01*
X0300441Y0298637D01*
X0299747Y0300311D01*
X0298467Y0301591D01*
X0296793Y0302284D01*
X0294982Y0302284D01*
X0293309Y0301591D01*
X0292028Y0300311D01*
X0291335Y0298637D01*
X0291335Y0296826D01*
X0292028Y0295153D01*
X0293309Y0293872D01*
X0294982Y0293179D01*
X0296793Y0293179D01*
X0298467Y0293872D01*
X0299747Y0295153D01*
X0300168Y0296168D02*
X0301607Y0296168D01*
X0301335Y0297367D02*
X0300441Y0297367D01*
X0300441Y0298566D02*
X0301335Y0298566D01*
X0301802Y0299764D02*
X0299974Y0299764D01*
X0299096Y0300963D02*
X0302680Y0300963D01*
X0304684Y0302161D02*
X0297091Y0302161D01*
X0296793Y0303179D02*
X0298467Y0303872D01*
X0299747Y0305153D01*
X0300441Y0306826D01*
X0300441Y0308637D01*
X0299747Y0310311D01*
X0298467Y0311591D01*
X0296793Y0312284D01*
X0294982Y0312284D01*
X0293309Y0311591D01*
X0292028Y0310311D01*
X0291335Y0308637D01*
X0291335Y0306826D01*
X0292028Y0305153D01*
X0293309Y0303872D01*
X0294982Y0303179D01*
X0296793Y0303179D01*
X0297229Y0303360D02*
X0304546Y0303360D01*
X0304982Y0303179D02*
X0306793Y0303179D01*
X0308467Y0303872D01*
X0309747Y0305153D01*
X0310441Y0306826D01*
X0310441Y0308637D01*
X0309747Y0310311D01*
X0308467Y0311591D01*
X0306793Y0312284D01*
X0304982Y0312284D01*
X0303309Y0311591D01*
X0302028Y0310311D01*
X0301335Y0308637D01*
X0301335Y0306826D01*
X0302028Y0305153D01*
X0303309Y0303872D01*
X0304982Y0303179D01*
X0307229Y0303360D02*
X0349319Y0303360D01*
X0349319Y0303022D02*
X0349319Y0304442D01*
X0349863Y0305753D01*
X0350866Y0306757D01*
X0352178Y0307300D01*
X0353598Y0307300D01*
X0354909Y0306757D01*
X0355913Y0305753D01*
X0356456Y0304442D01*
X0356456Y0303022D01*
X0355913Y0301710D01*
X0354909Y0300706D01*
X0353598Y0300163D01*
X0352178Y0300163D01*
X0350866Y0300706D01*
X0349863Y0301710D01*
X0349319Y0303022D01*
X0349676Y0302161D02*
X0307091Y0302161D01*
X0309096Y0300963D02*
X0350610Y0300963D01*
X0349368Y0304558D02*
X0309153Y0304558D01*
X0309998Y0305757D02*
X0349866Y0305757D01*
X0351345Y0306955D02*
X0310441Y0306955D01*
X0310441Y0308154D02*
X0740888Y0308154D01*
X0740888Y0309352D02*
X0690720Y0309352D01*
X0690575Y0309207D02*
X0691412Y0310045D01*
X0691866Y0311139D01*
X0691866Y0312324D01*
X0691562Y0313058D01*
X0692295Y0312754D01*
X0693480Y0312754D01*
X0694575Y0313207D01*
X0695412Y0314045D01*
X0695866Y0315139D01*
X0695866Y0316324D01*
X0695412Y0317419D01*
X0694575Y0318256D01*
X0693480Y0318710D01*
X0692295Y0318710D01*
X0691201Y0318256D01*
X0690363Y0317419D01*
X0689910Y0316324D01*
X0689910Y0315139D01*
X0690214Y0314406D01*
X0689480Y0314710D01*
X0688295Y0314710D01*
X0687201Y0314256D01*
X0686363Y0313419D01*
X0685910Y0312324D01*
X0685910Y0311139D01*
X0686363Y0310045D01*
X0687201Y0309207D01*
X0688295Y0308754D01*
X0689480Y0308754D01*
X0690575Y0309207D01*
X0691622Y0310551D02*
X0740888Y0310551D01*
X0740888Y0311749D02*
X0691866Y0311749D01*
X0691827Y0312948D02*
X0691607Y0312948D01*
X0693948Y0312948D02*
X0740888Y0312948D01*
X0740888Y0314146D02*
X0695454Y0314146D01*
X0695866Y0315345D02*
X0740888Y0315345D01*
X0740888Y0316543D02*
X0695775Y0316543D01*
X0695089Y0317742D02*
X0740888Y0317742D01*
X0740888Y0318940D02*
X0683783Y0318940D01*
X0683866Y0319139D02*
X0683412Y0318045D01*
X0682575Y0317207D01*
X0681480Y0316754D01*
X0680295Y0316754D01*
X0679201Y0317207D01*
X0678363Y0318045D01*
X0677910Y0319139D01*
X0677910Y0320324D01*
X0678363Y0321419D01*
X0679201Y0322256D01*
X0680295Y0322710D01*
X0681480Y0322710D01*
X0682575Y0322256D01*
X0683412Y0321419D01*
X0683866Y0320324D01*
X0683866Y0319139D01*
X0683866Y0320139D02*
X0740888Y0320139D01*
X0740888Y0321337D02*
X0683446Y0321337D01*
X0681900Y0322536D02*
X0740888Y0322536D01*
X0740888Y0323734D02*
X0308134Y0323734D01*
X0308467Y0323872D02*
X0309747Y0325153D01*
X0310441Y0326826D01*
X0310441Y0328637D01*
X0309747Y0330311D01*
X0308467Y0331591D01*
X0306793Y0332284D01*
X0304982Y0332284D01*
X0303309Y0331591D01*
X0302028Y0330311D01*
X0301335Y0328637D01*
X0301335Y0326826D01*
X0302028Y0325153D01*
X0303309Y0323872D01*
X0304982Y0323179D01*
X0306793Y0323179D01*
X0308467Y0323872D01*
X0309527Y0324933D02*
X0740888Y0324933D01*
X0740888Y0326131D02*
X0310153Y0326131D01*
X0310441Y0327330D02*
X0740888Y0327330D01*
X0740888Y0328528D02*
X0310441Y0328528D01*
X0309989Y0329727D02*
X0740888Y0329727D01*
X0740888Y0330925D02*
X0309133Y0330925D01*
X0307181Y0332124D02*
X0740888Y0332124D01*
X0740888Y0333322D02*
X0575525Y0333322D01*
X0575913Y0333710D02*
X0576456Y0335022D01*
X0576456Y0336442D01*
X0575913Y0337753D01*
X0574909Y0338757D01*
X0573598Y0339300D01*
X0572178Y0339300D01*
X0570866Y0338757D01*
X0569863Y0337753D01*
X0569319Y0336442D01*
X0569319Y0335022D01*
X0569863Y0333710D01*
X0570866Y0332706D01*
X0572178Y0332163D01*
X0573598Y0332163D01*
X0574909Y0332706D01*
X0575913Y0333710D01*
X0576249Y0334521D02*
X0740888Y0334521D01*
X0740888Y0335719D02*
X0576456Y0335719D01*
X0576259Y0336918D02*
X0650655Y0336918D01*
X0650866Y0336706D02*
X0649863Y0337710D01*
X0649319Y0339022D01*
X0649319Y0340442D01*
X0649863Y0341753D01*
X0650866Y0342757D01*
X0652178Y0343300D01*
X0653598Y0343300D01*
X0654909Y0342757D01*
X0655913Y0341753D01*
X0656456Y0340442D01*
X0656456Y0339022D01*
X0655913Y0337710D01*
X0654909Y0336706D01*
X0653598Y0336163D01*
X0652178Y0336163D01*
X0650866Y0336706D01*
X0649694Y0338116D02*
X0575550Y0338116D01*
X0570226Y0338116D02*
X0567550Y0338116D01*
X0567913Y0337753D02*
X0566909Y0338757D01*
X0565598Y0339300D01*
X0564178Y0339300D01*
X0562866Y0338757D01*
X0561863Y0337753D01*
X0561319Y0336442D01*
X0561319Y0335022D01*
X0561863Y0333710D01*
X0562866Y0332706D01*
X0564178Y0332163D01*
X0565598Y0332163D01*
X0566909Y0332706D01*
X0567913Y0333710D01*
X0568456Y0335022D01*
X0568456Y0336442D01*
X0567913Y0337753D01*
X0568259Y0336918D02*
X0569517Y0336918D01*
X0569319Y0335719D02*
X0568456Y0335719D01*
X0568249Y0334521D02*
X0569527Y0334521D01*
X0570251Y0333322D02*
X0567525Y0333322D01*
X0562251Y0333322D02*
X0559525Y0333322D01*
X0559913Y0333710D02*
X0558909Y0332706D01*
X0557598Y0332163D01*
X0556178Y0332163D01*
X0554866Y0332706D01*
X0553863Y0333710D01*
X0553319Y0335022D01*
X0553319Y0336442D01*
X0553863Y0337753D01*
X0554866Y0338757D01*
X0556178Y0339300D01*
X0557598Y0339300D01*
X0558909Y0338757D01*
X0559913Y0337753D01*
X0560456Y0336442D01*
X0560456Y0335022D01*
X0559913Y0333710D01*
X0560249Y0334521D02*
X0561527Y0334521D01*
X0561319Y0335719D02*
X0560456Y0335719D01*
X0560259Y0336918D02*
X0561517Y0336918D01*
X0562226Y0338116D02*
X0559550Y0338116D01*
X0554226Y0338116D02*
X0551550Y0338116D01*
X0551913Y0337753D02*
X0550909Y0338757D01*
X0549598Y0339300D01*
X0548178Y0339300D01*
X0546866Y0338757D01*
X0545863Y0337753D01*
X0545319Y0336442D01*
X0545319Y0335022D01*
X0545863Y0333710D01*
X0546866Y0332706D01*
X0548178Y0332163D01*
X0549598Y0332163D01*
X0550909Y0332706D01*
X0551913Y0333710D01*
X0552456Y0335022D01*
X0552456Y0336442D01*
X0551913Y0337753D01*
X0552259Y0336918D02*
X0553517Y0336918D01*
X0553319Y0335719D02*
X0552456Y0335719D01*
X0552249Y0334521D02*
X0553527Y0334521D01*
X0554251Y0333322D02*
X0551525Y0333322D01*
X0546251Y0333322D02*
X0471525Y0333322D01*
X0471913Y0333710D02*
X0472456Y0335022D01*
X0472456Y0336442D01*
X0471913Y0337753D01*
X0470909Y0338757D01*
X0469598Y0339300D01*
X0468178Y0339300D01*
X0466866Y0338757D01*
X0465863Y0337753D01*
X0465319Y0336442D01*
X0465319Y0335022D01*
X0465863Y0333710D01*
X0466866Y0332706D01*
X0468178Y0332163D01*
X0469598Y0332163D01*
X0470909Y0332706D01*
X0471913Y0333710D01*
X0472249Y0334521D02*
X0545527Y0334521D01*
X0545319Y0335719D02*
X0472456Y0335719D01*
X0472259Y0336918D02*
X0498490Y0336918D01*
X0498363Y0337045D02*
X0499201Y0336207D01*
X0500295Y0335754D01*
X0501480Y0335754D01*
X0502575Y0336207D01*
X0503412Y0337045D01*
X0503866Y0338139D01*
X0503866Y0338932D01*
X0504295Y0338754D01*
X0505480Y0338754D01*
X0506575Y0339207D01*
X0507412Y0340045D01*
X0507866Y0341139D01*
X0507866Y0342324D01*
X0507412Y0343419D01*
X0506575Y0344256D01*
X0505480Y0344710D01*
X0504295Y0344710D01*
X0503201Y0344256D01*
X0502363Y0343419D01*
X0501910Y0342324D01*
X0501910Y0341532D01*
X0501480Y0341710D01*
X0500295Y0341710D01*
X0499201Y0341256D01*
X0498363Y0340419D01*
X0497910Y0339324D01*
X0497910Y0338139D01*
X0498363Y0337045D01*
X0497919Y0338116D02*
X0471550Y0338116D01*
X0466226Y0338116D02*
X0463550Y0338116D01*
X0463913Y0337753D02*
X0462909Y0338757D01*
X0461598Y0339300D01*
X0460178Y0339300D01*
X0458866Y0338757D01*
X0457863Y0337753D01*
X0457319Y0336442D01*
X0457319Y0335022D01*
X0457863Y0333710D01*
X0458866Y0332706D01*
X0460178Y0332163D01*
X0461598Y0332163D01*
X0462909Y0332706D01*
X0463913Y0333710D01*
X0464456Y0335022D01*
X0464456Y0336442D01*
X0463913Y0337753D01*
X0464259Y0336918D02*
X0465517Y0336918D01*
X0465319Y0335719D02*
X0464456Y0335719D01*
X0464249Y0334521D02*
X0465527Y0334521D01*
X0466251Y0333322D02*
X0463525Y0333322D01*
X0458251Y0333322D02*
X0455525Y0333322D01*
X0455913Y0333710D02*
X0454909Y0332706D01*
X0453598Y0332163D01*
X0452178Y0332163D01*
X0450866Y0332706D01*
X0449863Y0333710D01*
X0449319Y0335022D01*
X0449319Y0336442D01*
X0449863Y0337753D01*
X0450866Y0338757D01*
X0452178Y0339300D01*
X0453598Y0339300D01*
X0454909Y0338757D01*
X0455913Y0337753D01*
X0456456Y0336442D01*
X0456456Y0335022D01*
X0455913Y0333710D01*
X0456249Y0334521D02*
X0457527Y0334521D01*
X0457319Y0335719D02*
X0456456Y0335719D01*
X0456259Y0336918D02*
X0457517Y0336918D01*
X0458226Y0338116D02*
X0455550Y0338116D01*
X0450226Y0338116D02*
X0447550Y0338116D01*
X0447913Y0337753D02*
X0446909Y0338757D01*
X0445598Y0339300D01*
X0444178Y0339300D01*
X0442866Y0338757D01*
X0441863Y0337753D01*
X0441319Y0336442D01*
X0441319Y0335022D01*
X0441863Y0333710D01*
X0442866Y0332706D01*
X0444178Y0332163D01*
X0445598Y0332163D01*
X0446909Y0332706D01*
X0447913Y0333710D01*
X0448456Y0335022D01*
X0448456Y0336442D01*
X0447913Y0337753D01*
X0448259Y0336918D02*
X0449517Y0336918D01*
X0449319Y0335719D02*
X0448456Y0335719D01*
X0448249Y0334521D02*
X0449527Y0334521D01*
X0450251Y0333322D02*
X0447525Y0333322D01*
X0442251Y0333322D02*
X0379525Y0333322D01*
X0379913Y0333710D02*
X0380456Y0335022D01*
X0380456Y0336442D01*
X0379913Y0337753D01*
X0378909Y0338757D01*
X0377598Y0339300D01*
X0376178Y0339300D01*
X0374866Y0338757D01*
X0373863Y0337753D01*
X0373319Y0336442D01*
X0373319Y0335022D01*
X0373863Y0333710D01*
X0374866Y0332706D01*
X0376178Y0332163D01*
X0377598Y0332163D01*
X0378909Y0332706D01*
X0379913Y0333710D01*
X0380249Y0334521D02*
X0441527Y0334521D01*
X0441319Y0335719D02*
X0380456Y0335719D01*
X0380259Y0336918D02*
X0441517Y0336918D01*
X0442226Y0338116D02*
X0379550Y0338116D01*
X0374226Y0338116D02*
X0371550Y0338116D01*
X0371913Y0337753D02*
X0370909Y0338757D01*
X0369598Y0339300D01*
X0368178Y0339300D01*
X0366866Y0338757D01*
X0365863Y0337753D01*
X0365319Y0336442D01*
X0365319Y0335022D01*
X0365863Y0333710D01*
X0366866Y0332706D01*
X0368178Y0332163D01*
X0369598Y0332163D01*
X0370909Y0332706D01*
X0371913Y0333710D01*
X0372456Y0335022D01*
X0372456Y0336442D01*
X0371913Y0337753D01*
X0372259Y0336918D02*
X0373517Y0336918D01*
X0373319Y0335719D02*
X0372456Y0335719D01*
X0372249Y0334521D02*
X0373527Y0334521D01*
X0374251Y0333322D02*
X0371525Y0333322D01*
X0366251Y0333322D02*
X0363525Y0333322D01*
X0363913Y0333710D02*
X0364456Y0335022D01*
X0364456Y0336442D01*
X0363913Y0337753D01*
X0362909Y0338757D01*
X0361598Y0339300D01*
X0360178Y0339300D01*
X0358866Y0338757D01*
X0357863Y0337753D01*
X0357319Y0336442D01*
X0357319Y0335022D01*
X0357863Y0333710D01*
X0358866Y0332706D01*
X0360178Y0332163D01*
X0361598Y0332163D01*
X0362909Y0332706D01*
X0363913Y0333710D01*
X0364249Y0334521D02*
X0365527Y0334521D01*
X0365319Y0335719D02*
X0364456Y0335719D01*
X0364259Y0336918D02*
X0365517Y0336918D01*
X0366226Y0338116D02*
X0363550Y0338116D01*
X0358226Y0338116D02*
X0355550Y0338116D01*
X0355913Y0337753D02*
X0354909Y0338757D01*
X0353598Y0339300D01*
X0352178Y0339300D01*
X0350866Y0338757D01*
X0349863Y0337753D01*
X0349319Y0336442D01*
X0349319Y0335022D01*
X0349863Y0333710D01*
X0350866Y0332706D01*
X0352178Y0332163D01*
X0353598Y0332163D01*
X0354909Y0332706D01*
X0355913Y0333710D01*
X0356456Y0335022D01*
X0356456Y0336442D01*
X0355913Y0337753D01*
X0356259Y0336918D02*
X0357517Y0336918D01*
X0357319Y0335719D02*
X0356456Y0335719D01*
X0356249Y0334521D02*
X0357527Y0334521D01*
X0358251Y0333322D02*
X0355525Y0333322D01*
X0350251Y0333322D02*
X0204091Y0333322D01*
X0203913Y0333753D02*
X0202909Y0334757D01*
X0201598Y0335300D01*
X0200178Y0335300D01*
X0198866Y0334757D01*
X0197863Y0333753D01*
X0197319Y0332442D01*
X0197319Y0331022D01*
X0197863Y0329710D01*
X0198866Y0328706D01*
X0200178Y0328163D01*
X0201598Y0328163D01*
X0202909Y0328706D01*
X0203913Y0329710D01*
X0204456Y0331022D01*
X0204456Y0332442D01*
X0203913Y0333753D01*
X0203145Y0334521D02*
X0349527Y0334521D01*
X0349319Y0335719D02*
X0031456Y0335719D01*
X0031456Y0334521D02*
X0158630Y0334521D01*
X0158866Y0334757D02*
X0157863Y0333753D01*
X0157319Y0332442D01*
X0157319Y0331022D01*
X0157863Y0329710D01*
X0158866Y0328706D01*
X0160178Y0328163D01*
X0161598Y0328163D01*
X0162909Y0328706D01*
X0163913Y0329710D01*
X0164456Y0331022D01*
X0164456Y0332442D01*
X0163913Y0333753D01*
X0162909Y0334757D01*
X0161598Y0335300D01*
X0160178Y0335300D01*
X0158866Y0334757D01*
X0157684Y0333322D02*
X0031456Y0333322D01*
X0031456Y0332124D02*
X0157319Y0332124D01*
X0157359Y0330925D02*
X0031456Y0330925D01*
X0031456Y0329727D02*
X0157856Y0329727D01*
X0159297Y0328528D02*
X0031456Y0328528D01*
X0031456Y0327330D02*
X0291335Y0327330D01*
X0291335Y0326826D02*
X0291335Y0328637D01*
X0292028Y0330311D01*
X0293309Y0331591D01*
X0294982Y0332284D01*
X0296793Y0332284D01*
X0298467Y0331591D01*
X0299747Y0330311D01*
X0300441Y0328637D01*
X0300441Y0326826D01*
X0299747Y0325153D01*
X0298467Y0323872D01*
X0296793Y0323179D01*
X0294982Y0323179D01*
X0293309Y0323872D01*
X0292028Y0325153D01*
X0291335Y0326826D01*
X0291623Y0326131D02*
X0031456Y0326131D01*
X0031456Y0324933D02*
X0292248Y0324933D01*
X0293642Y0323734D02*
X0031456Y0323734D01*
X0031456Y0322536D02*
X0679876Y0322536D01*
X0678330Y0321337D02*
X0308671Y0321337D01*
X0308854Y0321204D02*
X0308274Y0321626D01*
X0307635Y0321951D01*
X0306954Y0322172D01*
X0306272Y0322280D01*
X0306272Y0318116D01*
X0305504Y0318116D01*
X0305504Y0322280D01*
X0304822Y0322172D01*
X0304140Y0321951D01*
X0303502Y0321626D01*
X0302922Y0321204D01*
X0302415Y0320698D01*
X0301994Y0320118D01*
X0301669Y0319479D01*
X0301447Y0318798D01*
X0301339Y0318116D01*
X0305503Y0318116D01*
X0305503Y0317347D01*
X0301339Y0317347D01*
X0301447Y0316666D01*
X0301669Y0315984D01*
X0301994Y0315346D01*
X0302415Y0314766D01*
X0302922Y0314259D01*
X0303502Y0313838D01*
X0304140Y0313513D01*
X0304822Y0313291D01*
X0305504Y0313183D01*
X0305504Y0317347D01*
X0306272Y0317347D01*
X0306272Y0313183D01*
X0306954Y0313291D01*
X0307635Y0313513D01*
X0308274Y0313838D01*
X0308854Y0314259D01*
X0309360Y0314766D01*
X0309782Y0315346D01*
X0310107Y0315984D01*
X0310328Y0316666D01*
X0310436Y0317347D01*
X0306272Y0317347D01*
X0306272Y0318116D01*
X0310436Y0318116D01*
X0310328Y0318798D01*
X0310107Y0319479D01*
X0309782Y0320118D01*
X0309360Y0320698D01*
X0308854Y0321204D01*
X0309767Y0320139D02*
X0677910Y0320139D01*
X0677992Y0318940D02*
X0310282Y0318940D01*
X0310289Y0316543D02*
X0690001Y0316543D01*
X0689910Y0315345D02*
X0309781Y0315345D01*
X0308698Y0314146D02*
X0687091Y0314146D01*
X0686168Y0312948D02*
X0031456Y0312948D01*
X0031456Y0314146D02*
X0293035Y0314146D01*
X0293309Y0313872D02*
X0294982Y0313179D01*
X0296793Y0313179D01*
X0298467Y0313872D01*
X0299747Y0315153D01*
X0300441Y0316826D01*
X0300441Y0318637D01*
X0299747Y0320311D01*
X0298467Y0321591D01*
X0296793Y0322284D01*
X0294982Y0322284D01*
X0293309Y0321591D01*
X0292028Y0320311D01*
X0291335Y0318637D01*
X0291335Y0316826D01*
X0292028Y0315153D01*
X0293309Y0313872D01*
X0291949Y0315345D02*
X0031456Y0315345D01*
X0031456Y0316543D02*
X0291452Y0316543D01*
X0291335Y0317742D02*
X0031456Y0317742D01*
X0031456Y0318940D02*
X0291461Y0318940D01*
X0291957Y0320139D02*
X0031456Y0320139D01*
X0031456Y0321337D02*
X0293055Y0321337D01*
X0298134Y0323734D02*
X0303642Y0323734D01*
X0302248Y0324933D02*
X0299527Y0324933D01*
X0300153Y0326131D02*
X0301623Y0326131D01*
X0301335Y0327330D02*
X0300441Y0327330D01*
X0300441Y0328528D02*
X0301335Y0328528D01*
X0301786Y0329727D02*
X0299989Y0329727D01*
X0299133Y0330925D02*
X0302643Y0330925D01*
X0304594Y0332124D02*
X0297181Y0332124D01*
X0294594Y0332124D02*
X0204456Y0332124D01*
X0204416Y0330925D02*
X0292643Y0330925D01*
X0291786Y0329727D02*
X0203920Y0329727D01*
X0202479Y0328528D02*
X0291335Y0328528D01*
X0298721Y0321337D02*
X0303105Y0321337D01*
X0302009Y0320139D02*
X0299819Y0320139D01*
X0300315Y0318940D02*
X0301493Y0318940D01*
X0300441Y0317742D02*
X0305503Y0317742D01*
X0306272Y0317742D02*
X0678666Y0317742D01*
X0683109Y0317742D02*
X0690686Y0317742D01*
X0685910Y0311749D02*
X0308086Y0311749D01*
X0309507Y0310551D02*
X0686154Y0310551D01*
X0687056Y0309352D02*
X0310144Y0309352D01*
X0306272Y0314146D02*
X0305504Y0314146D01*
X0305504Y0315345D02*
X0306272Y0315345D01*
X0306272Y0316543D02*
X0305504Y0316543D01*
X0305504Y0318940D02*
X0306272Y0318940D01*
X0306272Y0320139D02*
X0305504Y0320139D01*
X0305504Y0321337D02*
X0306272Y0321337D01*
X0301487Y0316543D02*
X0300323Y0316543D01*
X0299827Y0315345D02*
X0301995Y0315345D01*
X0303077Y0314146D02*
X0298741Y0314146D01*
X0298086Y0311749D02*
X0303690Y0311749D01*
X0302268Y0310551D02*
X0299507Y0310551D01*
X0300144Y0309352D02*
X0301631Y0309352D01*
X0301335Y0308154D02*
X0300441Y0308154D01*
X0300441Y0306955D02*
X0301335Y0306955D01*
X0301778Y0305757D02*
X0299998Y0305757D01*
X0299153Y0304558D02*
X0302623Y0304558D01*
X0294546Y0303360D02*
X0119228Y0303360D01*
X0119228Y0303732D02*
X0118625Y0305189D01*
X0117510Y0306303D01*
X0116054Y0306907D01*
X0114478Y0306907D01*
X0113021Y0306303D01*
X0111907Y0305189D01*
X0111304Y0303732D01*
X0111304Y0302156D01*
X0111907Y0300700D01*
X0113021Y0299585D01*
X0114478Y0298982D01*
X0116054Y0298982D01*
X0117510Y0299585D01*
X0118625Y0300700D01*
X0119228Y0302156D01*
X0119228Y0303732D01*
X0118886Y0304558D02*
X0292623Y0304558D01*
X0291778Y0305757D02*
X0118057Y0305757D01*
X0119228Y0302161D02*
X0294684Y0302161D01*
X0292680Y0300963D02*
X0118734Y0300963D01*
X0117689Y0299764D02*
X0291802Y0299764D01*
X0291335Y0298566D02*
X0251101Y0298566D01*
X0250909Y0298757D02*
X0249598Y0299300D01*
X0248178Y0299300D01*
X0246866Y0298757D01*
X0245863Y0297753D01*
X0245319Y0296442D01*
X0245319Y0295022D01*
X0245863Y0293710D01*
X0246866Y0292706D01*
X0248178Y0292163D01*
X0249598Y0292163D01*
X0250909Y0292706D01*
X0251913Y0293710D01*
X0252456Y0295022D01*
X0252456Y0296442D01*
X0251913Y0297753D01*
X0250909Y0298757D01*
X0252073Y0297367D02*
X0291335Y0297367D01*
X0291607Y0296168D02*
X0252456Y0296168D01*
X0252435Y0294970D02*
X0292211Y0294970D01*
X0293552Y0293771D02*
X0251938Y0293771D01*
X0250587Y0292573D02*
X0740888Y0292573D01*
X0740888Y0293771D02*
X0308224Y0293771D01*
X0309565Y0294970D02*
X0740888Y0294970D01*
X0740888Y0296168D02*
X0310168Y0296168D01*
X0310441Y0297367D02*
X0740888Y0297367D01*
X0740888Y0298566D02*
X0310441Y0298566D01*
X0309974Y0299764D02*
X0740888Y0299764D01*
X0740888Y0300963D02*
X0379165Y0300963D01*
X0378909Y0300706D02*
X0379913Y0301710D01*
X0380456Y0303022D01*
X0380456Y0304442D01*
X0379913Y0305753D01*
X0378909Y0306757D01*
X0377598Y0307300D01*
X0376178Y0307300D01*
X0374866Y0306757D01*
X0373863Y0305753D01*
X0373319Y0304442D01*
X0373319Y0303022D01*
X0373863Y0301710D01*
X0374866Y0300706D01*
X0376178Y0300163D01*
X0377598Y0300163D01*
X0378909Y0300706D01*
X0380100Y0302161D02*
X0740888Y0302161D01*
X0740888Y0303360D02*
X0380456Y0303360D01*
X0380408Y0304558D02*
X0740888Y0304558D01*
X0740888Y0305757D02*
X0379910Y0305757D01*
X0378431Y0306955D02*
X0740888Y0306955D01*
X0740888Y0288977D02*
X0679595Y0288977D01*
X0679866Y0287779D02*
X0740888Y0287779D01*
X0740888Y0286580D02*
X0679634Y0286580D01*
X0678749Y0285382D02*
X0740888Y0285382D01*
X0740888Y0265007D02*
X0661621Y0265007D01*
X0662989Y0263809D02*
X0740888Y0263809D01*
X0740888Y0262610D02*
X0664188Y0262610D01*
X0664812Y0261412D02*
X0740888Y0261412D01*
X0740888Y0260213D02*
X0665308Y0260213D01*
X0665755Y0259015D02*
X0740888Y0259015D01*
X0740888Y0257816D02*
X0665755Y0257816D01*
X0665755Y0256618D02*
X0740888Y0256618D01*
X0740888Y0255419D02*
X0665678Y0255419D01*
X0665182Y0254221D02*
X0740888Y0254221D01*
X0740888Y0253022D02*
X0664685Y0253022D01*
X0663883Y0251824D02*
X0740888Y0251824D01*
X0740888Y0250625D02*
X0662684Y0250625D01*
X0660884Y0249427D02*
X0740888Y0249427D01*
X0652891Y0249427D02*
X0615629Y0249427D01*
X0616292Y0250625D02*
X0651091Y0250625D01*
X0649893Y0251824D02*
X0616456Y0251824D01*
X0616216Y0253022D02*
X0649090Y0253022D01*
X0648594Y0254221D02*
X0615446Y0254221D01*
X0614695Y0256618D02*
X0648020Y0256618D01*
X0648020Y0257816D02*
X0615957Y0257816D01*
X0615913Y0257710D02*
X0616456Y0259022D01*
X0616456Y0260442D01*
X0615913Y0261753D01*
X0614909Y0262757D01*
X0613598Y0263300D01*
X0612178Y0263300D01*
X0610866Y0262757D01*
X0609863Y0261753D01*
X0609319Y0260442D01*
X0609319Y0259022D01*
X0609863Y0257710D01*
X0610866Y0256706D01*
X0612178Y0256163D01*
X0613598Y0256163D01*
X0614909Y0256706D01*
X0615913Y0257710D01*
X0616453Y0259015D02*
X0648020Y0259015D01*
X0648467Y0260213D02*
X0616456Y0260213D01*
X0616054Y0261412D02*
X0648964Y0261412D01*
X0649588Y0262610D02*
X0615056Y0262610D01*
X0610720Y0262610D02*
X0560188Y0262610D01*
X0560812Y0261412D02*
X0609721Y0261412D01*
X0609319Y0260213D02*
X0561308Y0260213D01*
X0561755Y0259015D02*
X0609322Y0259015D01*
X0609819Y0257816D02*
X0561755Y0257816D01*
X0561755Y0256618D02*
X0611081Y0256618D01*
X0610330Y0254221D02*
X0561182Y0254221D01*
X0561678Y0255419D02*
X0648097Y0255419D01*
X0610146Y0249427D02*
X0556884Y0249427D01*
X0558684Y0250625D02*
X0609484Y0250625D01*
X0609319Y0251824D02*
X0559883Y0251824D01*
X0560685Y0253022D02*
X0609560Y0253022D01*
X0609831Y0281786D02*
X0283045Y0281786D01*
X0278731Y0281786D02*
X0273866Y0281786D01*
X0273866Y0282324D02*
X0273412Y0283419D01*
X0272575Y0284256D01*
X0271480Y0284710D01*
X0270295Y0284710D01*
X0269201Y0284256D01*
X0268363Y0283419D01*
X0267910Y0282324D01*
X0267910Y0281139D01*
X0268363Y0280045D01*
X0269201Y0279207D01*
X0270295Y0278754D01*
X0271480Y0278754D01*
X0272575Y0279207D01*
X0273412Y0280045D01*
X0273866Y0281139D01*
X0273866Y0282324D01*
X0273592Y0282985D02*
X0609335Y0282985D01*
X0609319Y0284183D02*
X0573646Y0284183D01*
X0572129Y0284183D02*
X0565646Y0284183D01*
X0565598Y0284163D02*
X0566909Y0284706D01*
X0567913Y0285710D01*
X0568456Y0287022D01*
X0568456Y0288442D01*
X0567913Y0289753D01*
X0566909Y0290757D01*
X0565598Y0291300D01*
X0564178Y0291300D01*
X0562866Y0290757D01*
X0561863Y0289753D01*
X0561319Y0288442D01*
X0561319Y0287022D01*
X0561863Y0285710D01*
X0562866Y0284706D01*
X0564178Y0284163D01*
X0565598Y0284163D01*
X0564129Y0284183D02*
X0557646Y0284183D01*
X0557598Y0284163D02*
X0558909Y0284706D01*
X0559913Y0285710D01*
X0560456Y0287022D01*
X0560456Y0288442D01*
X0559913Y0289753D01*
X0558909Y0290757D01*
X0557598Y0291300D01*
X0556178Y0291300D01*
X0554866Y0290757D01*
X0553863Y0289753D01*
X0553319Y0288442D01*
X0553319Y0287022D01*
X0553863Y0285710D01*
X0554866Y0284706D01*
X0556178Y0284163D01*
X0557598Y0284163D01*
X0556129Y0284183D02*
X0549646Y0284183D01*
X0549598Y0284163D02*
X0550909Y0284706D01*
X0551913Y0285710D01*
X0552456Y0287022D01*
X0552456Y0288442D01*
X0551913Y0289753D01*
X0550909Y0290757D01*
X0549598Y0291300D01*
X0548178Y0291300D01*
X0546866Y0290757D01*
X0545863Y0289753D01*
X0545319Y0288442D01*
X0545319Y0287022D01*
X0545863Y0285710D01*
X0546866Y0284706D01*
X0548178Y0284163D01*
X0549598Y0284163D01*
X0548129Y0284183D02*
X0473646Y0284183D01*
X0473598Y0284163D02*
X0474909Y0284706D01*
X0475913Y0285710D01*
X0476456Y0287022D01*
X0476456Y0288442D01*
X0475913Y0289753D01*
X0474909Y0290757D01*
X0473598Y0291300D01*
X0472178Y0291300D01*
X0470866Y0290757D01*
X0469863Y0289753D01*
X0469319Y0288442D01*
X0469319Y0287022D01*
X0469863Y0285710D01*
X0470866Y0284706D01*
X0472178Y0284163D01*
X0473598Y0284163D01*
X0472129Y0284183D02*
X0465646Y0284183D01*
X0465598Y0284163D02*
X0466909Y0284706D01*
X0467913Y0285710D01*
X0468456Y0287022D01*
X0468456Y0288442D01*
X0467913Y0289753D01*
X0466909Y0290757D01*
X0465598Y0291300D01*
X0464178Y0291300D01*
X0462866Y0290757D01*
X0461863Y0289753D01*
X0461319Y0288442D01*
X0461319Y0287022D01*
X0461863Y0285710D01*
X0462866Y0284706D01*
X0464178Y0284163D01*
X0465598Y0284163D01*
X0464129Y0284183D02*
X0457646Y0284183D01*
X0457598Y0284163D02*
X0458909Y0284706D01*
X0459913Y0285710D01*
X0460456Y0287022D01*
X0460456Y0288442D01*
X0459913Y0289753D01*
X0458909Y0290757D01*
X0457598Y0291300D01*
X0456178Y0291300D01*
X0454866Y0290757D01*
X0453863Y0289753D01*
X0453319Y0288442D01*
X0453319Y0287022D01*
X0453863Y0285710D01*
X0454866Y0284706D01*
X0456178Y0284163D01*
X0457598Y0284163D01*
X0456129Y0284183D02*
X0449646Y0284183D01*
X0451585Y0285382D02*
X0454191Y0285382D01*
X0453502Y0286580D02*
X0452273Y0286580D01*
X0452456Y0287779D02*
X0453319Y0287779D01*
X0453541Y0288977D02*
X0452234Y0288977D01*
X0451490Y0290176D02*
X0454285Y0290176D01*
X0459490Y0290176D02*
X0462285Y0290176D01*
X0461541Y0288977D02*
X0460234Y0288977D01*
X0460456Y0287779D02*
X0461319Y0287779D01*
X0461502Y0286580D02*
X0460273Y0286580D01*
X0459585Y0285382D02*
X0462191Y0285382D01*
X0467585Y0285382D02*
X0470191Y0285382D01*
X0469502Y0286580D02*
X0468273Y0286580D01*
X0468456Y0287779D02*
X0469319Y0287779D01*
X0469541Y0288977D02*
X0468234Y0288977D01*
X0467490Y0290176D02*
X0470285Y0290176D01*
X0475490Y0290176D02*
X0546285Y0290176D01*
X0545541Y0288977D02*
X0476234Y0288977D01*
X0476456Y0287779D02*
X0545319Y0287779D01*
X0545502Y0286580D02*
X0476273Y0286580D01*
X0475585Y0285382D02*
X0546191Y0285382D01*
X0551585Y0285382D02*
X0554191Y0285382D01*
X0553502Y0286580D02*
X0552273Y0286580D01*
X0552456Y0287779D02*
X0553319Y0287779D01*
X0553541Y0288977D02*
X0552234Y0288977D01*
X0551490Y0290176D02*
X0554285Y0290176D01*
X0559490Y0290176D02*
X0562285Y0290176D01*
X0561541Y0288977D02*
X0560234Y0288977D01*
X0560456Y0287779D02*
X0561319Y0287779D01*
X0561502Y0286580D02*
X0560273Y0286580D01*
X0559585Y0285382D02*
X0562191Y0285382D01*
X0567585Y0285382D02*
X0570191Y0285382D01*
X0569502Y0286580D02*
X0568273Y0286580D01*
X0568456Y0287779D02*
X0569319Y0287779D01*
X0569541Y0288977D02*
X0568234Y0288977D01*
X0567490Y0290176D02*
X0570285Y0290176D01*
X0575585Y0285382D02*
X0609709Y0285382D01*
X0655121Y0336918D02*
X0658655Y0336918D01*
X0658866Y0336706D02*
X0660178Y0336163D01*
X0661598Y0336163D01*
X0662909Y0336706D01*
X0663913Y0337710D01*
X0664456Y0339022D01*
X0664456Y0340442D01*
X0663913Y0341753D01*
X0662909Y0342757D01*
X0661598Y0343300D01*
X0660178Y0343300D01*
X0658866Y0342757D01*
X0657863Y0341753D01*
X0657319Y0340442D01*
X0657319Y0339022D01*
X0657863Y0337710D01*
X0658866Y0336706D01*
X0657694Y0338116D02*
X0656081Y0338116D01*
X0656456Y0339315D02*
X0657319Y0339315D01*
X0657349Y0340513D02*
X0656427Y0340513D01*
X0655930Y0341712D02*
X0657846Y0341712D01*
X0659237Y0342910D02*
X0654539Y0342910D01*
X0651237Y0342910D02*
X0603771Y0342910D01*
X0603866Y0343139D02*
X0603412Y0342045D01*
X0602575Y0341207D01*
X0601480Y0340754D01*
X0600295Y0340754D01*
X0599201Y0341207D01*
X0598363Y0342045D01*
X0597910Y0343139D01*
X0597910Y0344324D01*
X0598363Y0345419D01*
X0599201Y0346256D01*
X0600295Y0346710D01*
X0601480Y0346710D01*
X0602575Y0346256D01*
X0603412Y0345419D01*
X0603866Y0344324D01*
X0603866Y0343139D01*
X0603866Y0344109D02*
X0740888Y0344109D01*
X0740888Y0345307D02*
X0603458Y0345307D01*
X0601972Y0346506D02*
X0740888Y0346506D01*
X0740888Y0347704D02*
X0204456Y0347704D01*
X0204456Y0347022D02*
X0203913Y0345710D01*
X0202909Y0344706D01*
X0201598Y0344163D01*
X0200178Y0344163D01*
X0198866Y0344706D01*
X0197863Y0345710D01*
X0197319Y0347022D01*
X0197319Y0348442D01*
X0197863Y0349753D01*
X0198866Y0350757D01*
X0200178Y0351300D01*
X0201598Y0351300D01*
X0740888Y0351300D01*
X0740888Y0350102D02*
X0203565Y0350102D01*
X0203913Y0349753D02*
X0202909Y0350757D01*
X0201598Y0351300D01*
X0200177Y0351300D02*
X0193598Y0351300D01*
X0192178Y0351300D01*
X0190866Y0350757D01*
X0189863Y0349753D01*
X0189319Y0348442D01*
X0189319Y0347022D01*
X0189863Y0345710D01*
X0190866Y0344706D01*
X0192178Y0344163D01*
X0193598Y0344163D01*
X0194909Y0344706D01*
X0195913Y0345710D01*
X0196456Y0347022D01*
X0196456Y0348442D01*
X0195913Y0349753D01*
X0194909Y0350757D01*
X0193598Y0351300D01*
X0192177Y0351300D02*
X0185598Y0351300D01*
X0184178Y0351300D01*
X0182866Y0350757D01*
X0181863Y0349753D01*
X0181319Y0348442D01*
X0181319Y0347022D01*
X0181863Y0345710D01*
X0182866Y0344706D01*
X0184178Y0344163D01*
X0185598Y0344163D01*
X0186909Y0344706D01*
X0187913Y0345710D01*
X0188456Y0347022D01*
X0188456Y0348442D01*
X0187913Y0349753D01*
X0186909Y0350757D01*
X0185598Y0351300D01*
X0184177Y0351300D02*
X0177598Y0351300D01*
X0176178Y0351300D01*
X0174866Y0350757D01*
X0173863Y0349753D01*
X0173319Y0348442D01*
X0173319Y0347022D01*
X0173863Y0345710D01*
X0174866Y0344706D01*
X0176178Y0344163D01*
X0177598Y0344163D01*
X0178909Y0344706D01*
X0179913Y0345710D01*
X0180456Y0347022D01*
X0180456Y0348442D01*
X0179913Y0349753D01*
X0178909Y0350757D01*
X0177598Y0351300D01*
X0177361Y0351833D02*
X0178817Y0352436D01*
X0179932Y0353550D01*
X0180535Y0355007D01*
X0180535Y0356583D01*
X0179932Y0358039D01*
X0178817Y0359154D01*
X0177422Y0359732D01*
X0178817Y0360310D01*
X0179932Y0361424D01*
X0180535Y0362881D01*
X0180535Y0364457D01*
X0179932Y0365913D01*
X0178817Y0367028D01*
X0177361Y0367631D01*
X0175785Y0367631D01*
X0174328Y0367028D01*
X0173214Y0365913D01*
X0172636Y0364518D01*
X0172058Y0365913D01*
X0170943Y0367028D01*
X0169487Y0367631D01*
X0167911Y0367631D01*
X0166454Y0367028D01*
X0165340Y0365913D01*
X0164762Y0364518D01*
X0164184Y0365913D01*
X0163232Y0366865D01*
X0163412Y0367045D01*
X0163866Y0368139D01*
X0163866Y0369324D01*
X0163412Y0370419D01*
X0162575Y0371256D01*
X0161480Y0371710D01*
X0160295Y0371710D01*
X0159201Y0371256D01*
X0158363Y0370419D01*
X0157910Y0369324D01*
X0157910Y0368139D01*
X0158363Y0367045D01*
X0158480Y0366928D01*
X0157466Y0365913D01*
X0156888Y0364518D01*
X0156310Y0365913D01*
X0155195Y0367028D01*
X0153739Y0367631D01*
X0152163Y0367631D01*
X0150706Y0367028D01*
X0149592Y0365913D01*
X0149014Y0364518D01*
X0148436Y0365913D01*
X0147321Y0367028D01*
X0145865Y0367631D01*
X0144289Y0367631D01*
X0142832Y0367028D01*
X0141718Y0365913D01*
X0141140Y0364518D01*
X0140562Y0365913D01*
X0139447Y0367028D01*
X0137991Y0367631D01*
X0136415Y0367631D01*
X0134958Y0367028D01*
X0133844Y0365913D01*
X0133241Y0364457D01*
X0133241Y0362881D01*
X0133844Y0361424D01*
X0134958Y0360310D01*
X0136354Y0359732D01*
X0134958Y0359154D01*
X0133844Y0358039D01*
X0133241Y0356583D01*
X0133241Y0355007D01*
X0133844Y0353550D01*
X0134958Y0352436D01*
X0136415Y0351833D01*
X0137991Y0351833D01*
X0139447Y0352436D01*
X0140562Y0353550D01*
X0141140Y0354946D01*
X0141718Y0353550D01*
X0142832Y0352436D01*
X0144289Y0351833D01*
X0145865Y0351833D01*
X0147321Y0352436D01*
X0148436Y0353550D01*
X0149014Y0354946D01*
X0149592Y0353550D01*
X0150706Y0352436D01*
X0152163Y0351833D01*
X0153739Y0351833D01*
X0155195Y0352436D01*
X0156310Y0353550D01*
X0156888Y0354946D01*
X0157466Y0353550D01*
X0158580Y0352436D01*
X0160037Y0351833D01*
X0161613Y0351833D01*
X0163069Y0352436D01*
X0164184Y0353550D01*
X0164762Y0354946D01*
X0165340Y0353550D01*
X0166454Y0352436D01*
X0167911Y0351833D01*
X0169487Y0351833D01*
X0170943Y0352436D01*
X0172058Y0353550D01*
X0172636Y0354946D01*
X0173214Y0353550D01*
X0174328Y0352436D01*
X0175785Y0351833D01*
X0177361Y0351833D01*
X0176177Y0351300D02*
X0169598Y0351300D01*
X0168178Y0351300D01*
X0166866Y0350757D01*
X0165863Y0349753D01*
X0165319Y0348442D01*
X0165319Y0347022D01*
X0165863Y0345710D01*
X0166866Y0344706D01*
X0168178Y0344163D01*
X0169598Y0344163D01*
X0170909Y0344706D01*
X0171913Y0345710D01*
X0172456Y0347022D01*
X0172456Y0348442D01*
X0171913Y0349753D01*
X0170909Y0350757D01*
X0169598Y0351300D01*
X0168177Y0351300D02*
X0161598Y0351300D01*
X0160178Y0351300D01*
X0158866Y0350757D01*
X0157863Y0349753D01*
X0157319Y0348442D01*
X0157319Y0347022D01*
X0157863Y0345710D01*
X0158866Y0344706D01*
X0160178Y0344163D01*
X0161598Y0344163D01*
X0162909Y0344706D01*
X0163913Y0345710D01*
X0164456Y0347022D01*
X0164456Y0348442D01*
X0163913Y0349753D01*
X0162909Y0350757D01*
X0161598Y0351300D01*
X0160177Y0351300D02*
X0089228Y0351300D01*
X0089228Y0351211D02*
X0088625Y0349755D01*
X0087510Y0348640D01*
X0086054Y0348037D01*
X0084478Y0348037D01*
X0083021Y0348640D01*
X0081907Y0349755D01*
X0081304Y0351211D01*
X0081304Y0352788D01*
X0081907Y0354244D01*
X0083021Y0355358D01*
X0084478Y0355962D01*
X0086054Y0355962D01*
X0087510Y0355358D01*
X0088625Y0354244D01*
X0089228Y0352788D01*
X0089228Y0351211D01*
X0088768Y0350102D02*
X0158211Y0350102D01*
X0157510Y0348903D02*
X0087773Y0348903D01*
X0089228Y0352499D02*
X0134896Y0352499D01*
X0133783Y0353697D02*
X0088851Y0353697D01*
X0087973Y0354896D02*
X0133287Y0354896D01*
X0133241Y0356094D02*
X0031456Y0356094D01*
X0031456Y0354896D02*
X0082558Y0354896D01*
X0081680Y0353697D02*
X0031456Y0353697D01*
X0031456Y0352499D02*
X0081304Y0352499D01*
X0081304Y0351300D02*
X0031456Y0351300D01*
X0031456Y0350102D02*
X0081763Y0350102D01*
X0082759Y0348903D02*
X0031456Y0348903D01*
X0031456Y0347704D02*
X0157319Y0347704D01*
X0157533Y0346506D02*
X0031456Y0346506D01*
X0031456Y0345307D02*
X0158265Y0345307D01*
X0163510Y0345307D02*
X0166265Y0345307D01*
X0165533Y0346506D02*
X0164243Y0346506D01*
X0164456Y0347704D02*
X0165319Y0347704D01*
X0165510Y0348903D02*
X0164265Y0348903D01*
X0163565Y0350102D02*
X0166211Y0350102D01*
X0166392Y0352499D02*
X0163132Y0352499D01*
X0164245Y0353697D02*
X0165279Y0353697D01*
X0164783Y0354896D02*
X0164741Y0354896D01*
X0158518Y0352499D02*
X0155258Y0352499D01*
X0156371Y0353697D02*
X0157405Y0353697D01*
X0156909Y0354896D02*
X0156867Y0354896D01*
X0150644Y0352499D02*
X0147384Y0352499D01*
X0148497Y0353697D02*
X0149531Y0353697D01*
X0149035Y0354896D02*
X0148993Y0354896D01*
X0142770Y0352499D02*
X0139510Y0352499D01*
X0140623Y0353697D02*
X0141657Y0353697D01*
X0141161Y0354896D02*
X0141119Y0354896D01*
X0134296Y0358491D02*
X0117150Y0358491D01*
X0117510Y0358640D02*
X0116054Y0358037D01*
X0114478Y0358037D01*
X0113021Y0358640D01*
X0111907Y0359755D01*
X0111304Y0361211D01*
X0111304Y0362788D01*
X0111907Y0364244D01*
X0113021Y0365358D01*
X0114478Y0365962D01*
X0116054Y0365962D01*
X0117510Y0365358D01*
X0118625Y0364244D01*
X0119228Y0362788D01*
X0119228Y0361211D01*
X0118625Y0359755D01*
X0117510Y0358640D01*
X0118559Y0359690D02*
X0136252Y0359690D01*
X0134380Y0360888D02*
X0119094Y0360888D01*
X0119228Y0362087D02*
X0133569Y0362087D01*
X0133241Y0363285D02*
X0119022Y0363285D01*
X0118385Y0364484D02*
X0133252Y0364484D01*
X0133748Y0365682D02*
X0116729Y0365682D01*
X0113803Y0365682D02*
X0106729Y0365682D01*
X0106054Y0365962D02*
X0104478Y0365962D01*
X0103021Y0365358D01*
X0101907Y0364244D01*
X0101304Y0362788D01*
X0101304Y0361211D01*
X0101907Y0359755D01*
X0103021Y0358640D01*
X0104478Y0358037D01*
X0106054Y0358037D01*
X0107510Y0358640D01*
X0108625Y0359755D01*
X0109228Y0361211D01*
X0109228Y0362788D01*
X0108625Y0364244D01*
X0107510Y0365358D01*
X0106054Y0365962D01*
X0103803Y0365682D02*
X0096729Y0365682D01*
X0096054Y0365962D02*
X0094478Y0365962D01*
X0093021Y0365358D01*
X0091907Y0364244D01*
X0091304Y0362788D01*
X0091304Y0361211D01*
X0091907Y0359755D01*
X0093021Y0358640D01*
X0094478Y0358037D01*
X0096054Y0358037D01*
X0097510Y0358640D01*
X0098625Y0359755D01*
X0099228Y0361211D01*
X0099228Y0362788D01*
X0098625Y0364244D01*
X0097510Y0365358D01*
X0096054Y0365962D01*
X0093803Y0365682D02*
X0076729Y0365682D01*
X0076054Y0365962D02*
X0074478Y0365962D01*
X0073021Y0365358D01*
X0071907Y0364244D01*
X0071304Y0362788D01*
X0071304Y0361211D01*
X0071907Y0359755D01*
X0073021Y0358640D01*
X0074478Y0358037D01*
X0076054Y0358037D01*
X0077510Y0358640D01*
X0078625Y0359755D01*
X0079228Y0361211D01*
X0079228Y0362788D01*
X0078625Y0364244D01*
X0077510Y0365358D01*
X0076054Y0365962D01*
X0073803Y0365682D02*
X0031456Y0365682D01*
X0031456Y0364484D02*
X0072147Y0364484D01*
X0071510Y0363285D02*
X0031456Y0363285D01*
X0031456Y0362087D02*
X0071304Y0362087D01*
X0071437Y0360888D02*
X0031456Y0360888D01*
X0031456Y0359690D02*
X0071972Y0359690D01*
X0073382Y0358491D02*
X0031456Y0358491D01*
X0031456Y0357293D02*
X0133535Y0357293D01*
X0134811Y0366881D02*
X0031456Y0366881D01*
X0031456Y0368079D02*
X0157935Y0368079D01*
X0157910Y0369278D02*
X0154645Y0369278D01*
X0155591Y0370476D02*
X0158421Y0370476D01*
X0160211Y0371675D02*
X0155866Y0371675D01*
X0155638Y0372873D02*
X0264137Y0372873D01*
X0264363Y0373419D02*
X0263910Y0372324D01*
X0263910Y0371139D01*
X0264363Y0370045D01*
X0265201Y0369207D01*
X0266295Y0368754D01*
X0267480Y0368754D01*
X0267910Y0368932D01*
X0267910Y0368139D01*
X0268363Y0367045D01*
X0269201Y0366207D01*
X0270295Y0365754D01*
X0271480Y0365754D01*
X0272575Y0366207D01*
X0273412Y0367045D01*
X0273866Y0368139D01*
X0273866Y0369324D01*
X0273412Y0370419D01*
X0272575Y0371256D01*
X0271480Y0371710D01*
X0270295Y0371710D01*
X0269866Y0371532D01*
X0269866Y0372324D01*
X0269412Y0373419D01*
X0268575Y0374256D01*
X0267480Y0374710D01*
X0266295Y0374710D01*
X0265201Y0374256D01*
X0264363Y0373419D01*
X0265016Y0374072D02*
X0154759Y0374072D01*
X0151966Y0375270D02*
X0259138Y0375270D01*
X0262638Y0375270D02*
X0271910Y0375270D01*
X0271938Y0374072D02*
X0268759Y0374072D01*
X0269638Y0372873D02*
X0272535Y0372873D01*
X0271565Y0371675D02*
X0337910Y0371675D01*
X0338185Y0370476D02*
X0273355Y0370476D01*
X0273866Y0369278D02*
X0339130Y0369278D01*
X0340163Y0367631D02*
X0338706Y0367028D01*
X0337592Y0365913D01*
X0337014Y0364518D01*
X0336436Y0365913D01*
X0335321Y0367028D01*
X0333865Y0367631D01*
X0332289Y0367631D01*
X0330832Y0367028D01*
X0329718Y0365913D01*
X0329140Y0364518D01*
X0328562Y0365913D01*
X0327447Y0367028D01*
X0325991Y0367631D01*
X0324415Y0367631D01*
X0322958Y0367028D01*
X0321844Y0365913D01*
X0321241Y0364457D01*
X0321241Y0362881D01*
X0321844Y0361424D01*
X0322958Y0360310D01*
X0324354Y0359732D01*
X0322958Y0359154D01*
X0321844Y0358039D01*
X0321241Y0356583D01*
X0321241Y0355007D01*
X0321844Y0353550D01*
X0322958Y0352436D01*
X0324415Y0351833D01*
X0325991Y0351833D01*
X0327447Y0352436D01*
X0328562Y0353550D01*
X0329140Y0354946D01*
X0329718Y0353550D01*
X0330832Y0352436D01*
X0332289Y0351833D01*
X0333865Y0351833D01*
X0335321Y0352436D01*
X0336436Y0353550D01*
X0337014Y0354946D01*
X0337592Y0353550D01*
X0338706Y0352436D01*
X0340163Y0351833D01*
X0341739Y0351833D01*
X0343195Y0352436D01*
X0344310Y0353550D01*
X0344888Y0354946D01*
X0345466Y0353550D01*
X0346580Y0352436D01*
X0348037Y0351833D01*
X0349613Y0351833D01*
X0351069Y0352436D01*
X0352184Y0353550D01*
X0352762Y0354946D01*
X0353340Y0353550D01*
X0354454Y0352436D01*
X0355911Y0351833D01*
X0357487Y0351833D01*
X0358943Y0352436D01*
X0360058Y0353550D01*
X0360636Y0354946D01*
X0361214Y0353550D01*
X0362328Y0352436D01*
X0363785Y0351833D01*
X0365361Y0351833D01*
X0366817Y0352436D01*
X0367932Y0353550D01*
X0368535Y0355007D01*
X0368535Y0356583D01*
X0367932Y0358039D01*
X0366817Y0359154D01*
X0365422Y0359732D01*
X0366817Y0360310D01*
X0367932Y0361424D01*
X0368535Y0362881D01*
X0368535Y0364457D01*
X0367932Y0365913D01*
X0366817Y0367028D01*
X0365361Y0367631D01*
X0363785Y0367631D01*
X0362328Y0367028D01*
X0361214Y0365913D01*
X0360636Y0364518D01*
X0360058Y0365913D01*
X0358943Y0367028D01*
X0357487Y0367631D01*
X0355911Y0367631D01*
X0354454Y0367028D01*
X0353340Y0365913D01*
X0352762Y0364518D01*
X0352184Y0365913D01*
X0351232Y0366865D01*
X0351412Y0367045D01*
X0351866Y0368139D01*
X0351866Y0369324D01*
X0351412Y0370419D01*
X0350575Y0371256D01*
X0349480Y0371710D01*
X0348295Y0371710D01*
X0347201Y0371256D01*
X0346363Y0370419D01*
X0345910Y0369324D01*
X0345910Y0368139D01*
X0346363Y0367045D01*
X0346480Y0366928D01*
X0345466Y0365913D01*
X0344888Y0364518D01*
X0344310Y0365913D01*
X0343195Y0367028D01*
X0341739Y0367631D01*
X0340163Y0367631D01*
X0338559Y0366881D02*
X0335468Y0366881D01*
X0336531Y0365682D02*
X0337496Y0365682D01*
X0343342Y0366881D02*
X0346433Y0366881D01*
X0345935Y0368079D02*
X0273841Y0368079D01*
X0273248Y0366881D02*
X0322811Y0366881D01*
X0321748Y0365682D02*
X0180027Y0365682D01*
X0180524Y0364484D02*
X0321252Y0364484D01*
X0321241Y0363285D02*
X0257505Y0363285D01*
X0257575Y0363256D02*
X0256480Y0363710D01*
X0255295Y0363710D01*
X0254201Y0363256D01*
X0253363Y0362419D01*
X0252910Y0361324D01*
X0252910Y0360139D01*
X0253363Y0359045D01*
X0254201Y0358207D01*
X0255295Y0357754D01*
X0256480Y0357754D01*
X0257575Y0358207D01*
X0258064Y0358697D01*
X0257910Y0358324D01*
X0257910Y0357139D01*
X0258363Y0356045D01*
X0259201Y0355207D01*
X0260295Y0354754D01*
X0261480Y0354754D01*
X0262575Y0355207D01*
X0263412Y0356045D01*
X0263706Y0356754D01*
X0264070Y0356754D01*
X0264363Y0356045D01*
X0265201Y0355207D01*
X0266295Y0354754D01*
X0267480Y0354754D01*
X0268575Y0355207D01*
X0269412Y0356045D01*
X0269792Y0356962D01*
X0270295Y0356754D01*
X0271480Y0356754D01*
X0271983Y0356962D01*
X0272363Y0356045D01*
X0273201Y0355207D01*
X0274295Y0354754D01*
X0275480Y0354754D01*
X0276575Y0355207D01*
X0277412Y0356045D01*
X0277866Y0357139D01*
X0277866Y0358324D01*
X0277412Y0359419D01*
X0276575Y0360256D01*
X0275480Y0360710D01*
X0274295Y0360710D01*
X0273792Y0360501D01*
X0273412Y0361419D01*
X0272575Y0362256D01*
X0271480Y0362710D01*
X0270295Y0362710D01*
X0269201Y0362256D01*
X0268363Y0361419D01*
X0267983Y0360501D01*
X0267480Y0360710D01*
X0266706Y0360710D01*
X0266412Y0361419D01*
X0265575Y0362256D01*
X0264480Y0362710D01*
X0263295Y0362710D01*
X0262201Y0362256D01*
X0261363Y0361419D01*
X0261070Y0360710D01*
X0260295Y0360710D01*
X0259201Y0360256D01*
X0258711Y0359767D01*
X0258866Y0360139D01*
X0258866Y0361324D01*
X0258412Y0362419D01*
X0257575Y0363256D01*
X0258550Y0362087D02*
X0262031Y0362087D01*
X0261143Y0360888D02*
X0258866Y0360888D01*
X0257979Y0358491D02*
X0257859Y0358491D01*
X0257910Y0357293D02*
X0180241Y0357293D01*
X0180535Y0356094D02*
X0258343Y0356094D01*
X0259953Y0354896D02*
X0180489Y0354896D01*
X0179993Y0353697D02*
X0321783Y0353697D01*
X0321287Y0354896D02*
X0275822Y0354896D01*
X0273953Y0354896D02*
X0267822Y0354896D01*
X0265953Y0354896D02*
X0261822Y0354896D01*
X0263433Y0356094D02*
X0264343Y0356094D01*
X0269433Y0356094D02*
X0272343Y0356094D01*
X0273632Y0360888D02*
X0322380Y0360888D01*
X0321569Y0362087D02*
X0272744Y0362087D01*
X0269031Y0362087D02*
X0265744Y0362087D01*
X0266632Y0360888D02*
X0268143Y0360888D01*
X0268527Y0366881D02*
X0178964Y0366881D01*
X0180535Y0363285D02*
X0254270Y0363285D01*
X0253226Y0362087D02*
X0180206Y0362087D01*
X0179396Y0360888D02*
X0252910Y0360888D01*
X0253096Y0359690D02*
X0177523Y0359690D01*
X0179480Y0358491D02*
X0253917Y0358491D01*
X0277141Y0359690D02*
X0324252Y0359690D01*
X0322296Y0358491D02*
X0277797Y0358491D01*
X0277866Y0357293D02*
X0321535Y0357293D01*
X0321241Y0356094D02*
X0277433Y0356094D01*
X0267935Y0368079D02*
X0163841Y0368079D01*
X0163866Y0369278D02*
X0265130Y0369278D01*
X0264185Y0370476D02*
X0163355Y0370476D01*
X0161565Y0371675D02*
X0263910Y0371675D01*
X0269866Y0371675D02*
X0270211Y0371675D01*
X0277241Y0372873D02*
X0334635Y0372873D01*
X0334038Y0374072D02*
X0277838Y0374072D01*
X0277866Y0375270D02*
X0331138Y0375270D01*
X0339966Y0375270D02*
X0435138Y0375270D01*
X0438038Y0374072D02*
X0342759Y0374072D01*
X0343638Y0372873D02*
X0438635Y0372873D01*
X0441910Y0371675D02*
X0349565Y0371675D01*
X0348211Y0371675D02*
X0343866Y0371675D01*
X0343591Y0370476D02*
X0346421Y0370476D01*
X0345910Y0369278D02*
X0342645Y0369278D01*
X0344405Y0365682D02*
X0345370Y0365682D01*
X0351248Y0366881D02*
X0354307Y0366881D01*
X0353244Y0365682D02*
X0352279Y0365682D01*
X0351841Y0368079D02*
X0449935Y0368079D01*
X0449910Y0368139D02*
X0450363Y0367045D01*
X0450480Y0366928D01*
X0449466Y0365913D01*
X0448888Y0364518D01*
X0448310Y0365913D01*
X0447195Y0367028D01*
X0445739Y0367631D01*
X0444163Y0367631D01*
X0442706Y0367028D01*
X0441592Y0365913D01*
X0441014Y0364518D01*
X0440436Y0365913D01*
X0439321Y0367028D01*
X0437865Y0367631D01*
X0436289Y0367631D01*
X0434832Y0367028D01*
X0433718Y0365913D01*
X0433140Y0364518D01*
X0432562Y0365913D01*
X0431447Y0367028D01*
X0429991Y0367631D01*
X0428415Y0367631D01*
X0426958Y0367028D01*
X0425844Y0365913D01*
X0425241Y0364457D01*
X0425241Y0362881D01*
X0425844Y0361424D01*
X0426958Y0360310D01*
X0428354Y0359732D01*
X0426958Y0359154D01*
X0425844Y0358039D01*
X0425241Y0356583D01*
X0425241Y0355007D01*
X0425844Y0353550D01*
X0426958Y0352436D01*
X0428415Y0351833D01*
X0429991Y0351833D01*
X0431447Y0352436D01*
X0432562Y0353550D01*
X0433140Y0354946D01*
X0433718Y0353550D01*
X0434832Y0352436D01*
X0436289Y0351833D01*
X0437865Y0351833D01*
X0439321Y0352436D01*
X0440436Y0353550D01*
X0441014Y0354946D01*
X0441592Y0353550D01*
X0442706Y0352436D01*
X0444163Y0351833D01*
X0445739Y0351833D01*
X0447195Y0352436D01*
X0448310Y0353550D01*
X0448888Y0354946D01*
X0449466Y0353550D01*
X0450580Y0352436D01*
X0452037Y0351833D01*
X0453613Y0351833D01*
X0455069Y0352436D01*
X0456184Y0353550D01*
X0456762Y0354946D01*
X0457340Y0353550D01*
X0458454Y0352436D01*
X0459911Y0351833D01*
X0461487Y0351833D01*
X0462943Y0352436D01*
X0464058Y0353550D01*
X0464636Y0354946D01*
X0465214Y0353550D01*
X0466328Y0352436D01*
X0467785Y0351833D01*
X0469361Y0351833D01*
X0470817Y0352436D01*
X0471932Y0353550D01*
X0472535Y0355007D01*
X0472535Y0356583D01*
X0471932Y0358039D01*
X0470817Y0359154D01*
X0469422Y0359732D01*
X0470817Y0360310D01*
X0471932Y0361424D01*
X0472535Y0362881D01*
X0472535Y0364457D01*
X0471932Y0365913D01*
X0470817Y0367028D01*
X0469361Y0367631D01*
X0467785Y0367631D01*
X0466328Y0367028D01*
X0465214Y0365913D01*
X0464636Y0364518D01*
X0464058Y0365913D01*
X0462943Y0367028D01*
X0461487Y0367631D01*
X0459911Y0367631D01*
X0458454Y0367028D01*
X0457340Y0365913D01*
X0456762Y0364518D01*
X0456184Y0365913D01*
X0455232Y0366865D01*
X0455412Y0367045D01*
X0455866Y0368139D01*
X0455866Y0369324D01*
X0455412Y0370419D01*
X0454575Y0371256D01*
X0453480Y0371710D01*
X0452295Y0371710D01*
X0451201Y0371256D01*
X0450363Y0370419D01*
X0449910Y0369324D01*
X0449910Y0368139D01*
X0449910Y0369278D02*
X0446645Y0369278D01*
X0447591Y0370476D02*
X0450421Y0370476D01*
X0452211Y0371675D02*
X0447866Y0371675D01*
X0447638Y0372873D02*
X0498535Y0372873D01*
X0497938Y0374072D02*
X0446759Y0374072D01*
X0443966Y0375270D02*
X0497910Y0375270D01*
X0501910Y0371675D02*
X0453565Y0371675D01*
X0455355Y0370476D02*
X0502185Y0370476D01*
X0503130Y0369278D02*
X0455866Y0369278D01*
X0455841Y0368079D02*
X0553935Y0368079D01*
X0553910Y0368139D02*
X0554363Y0367045D01*
X0554480Y0366928D01*
X0553466Y0365913D01*
X0552888Y0364518D01*
X0552310Y0365913D01*
X0551195Y0367028D01*
X0549739Y0367631D01*
X0548163Y0367631D01*
X0546706Y0367028D01*
X0545592Y0365913D01*
X0545014Y0364518D01*
X0544436Y0365913D01*
X0543321Y0367028D01*
X0541865Y0367631D01*
X0540289Y0367631D01*
X0538832Y0367028D01*
X0537718Y0365913D01*
X0537140Y0364518D01*
X0536562Y0365913D01*
X0535447Y0367028D01*
X0533991Y0367631D01*
X0532415Y0367631D01*
X0530958Y0367028D01*
X0529844Y0365913D01*
X0529241Y0364457D01*
X0529241Y0362881D01*
X0529844Y0361424D01*
X0530958Y0360310D01*
X0532354Y0359732D01*
X0530958Y0359154D01*
X0529844Y0358039D01*
X0529241Y0356583D01*
X0529241Y0355007D01*
X0529844Y0353550D01*
X0530958Y0352436D01*
X0532415Y0351833D01*
X0533991Y0351833D01*
X0535447Y0352436D01*
X0536562Y0353550D01*
X0537140Y0354946D01*
X0537718Y0353550D01*
X0538832Y0352436D01*
X0540289Y0351833D01*
X0541865Y0351833D01*
X0543321Y0352436D01*
X0544436Y0353550D01*
X0545014Y0354946D01*
X0545592Y0353550D01*
X0546706Y0352436D01*
X0548163Y0351833D01*
X0549739Y0351833D01*
X0551195Y0352436D01*
X0552310Y0353550D01*
X0552888Y0354946D01*
X0553466Y0353550D01*
X0554580Y0352436D01*
X0556037Y0351833D01*
X0557613Y0351833D01*
X0559069Y0352436D01*
X0560184Y0353550D01*
X0560762Y0354946D01*
X0561340Y0353550D01*
X0562454Y0352436D01*
X0563911Y0351833D01*
X0565487Y0351833D01*
X0566943Y0352436D01*
X0568058Y0353550D01*
X0568636Y0354946D01*
X0569214Y0353550D01*
X0570328Y0352436D01*
X0571785Y0351833D01*
X0573361Y0351833D01*
X0574817Y0352436D01*
X0575932Y0353550D01*
X0576535Y0355007D01*
X0576535Y0356583D01*
X0575932Y0358039D01*
X0574817Y0359154D01*
X0573422Y0359732D01*
X0574817Y0360310D01*
X0575932Y0361424D01*
X0576535Y0362881D01*
X0576535Y0364457D01*
X0575932Y0365913D01*
X0574817Y0367028D01*
X0573361Y0367631D01*
X0571785Y0367631D01*
X0570328Y0367028D01*
X0569214Y0365913D01*
X0568636Y0364518D01*
X0568058Y0365913D01*
X0566943Y0367028D01*
X0565487Y0367631D01*
X0563911Y0367631D01*
X0562454Y0367028D01*
X0561340Y0365913D01*
X0560762Y0364518D01*
X0560184Y0365913D01*
X0559232Y0366865D01*
X0559412Y0367045D01*
X0559866Y0368139D01*
X0559866Y0369324D01*
X0559412Y0370419D01*
X0558575Y0371256D01*
X0557480Y0371710D01*
X0556295Y0371710D01*
X0555201Y0371256D01*
X0554363Y0370419D01*
X0553910Y0369324D01*
X0553910Y0368139D01*
X0553910Y0369278D02*
X0550645Y0369278D01*
X0551591Y0370476D02*
X0554421Y0370476D01*
X0556211Y0371675D02*
X0551866Y0371675D01*
X0551638Y0372873D02*
X0650137Y0372873D01*
X0649910Y0371675D02*
X0557565Y0371675D01*
X0559355Y0370476D02*
X0650185Y0370476D01*
X0651130Y0369278D02*
X0559866Y0369278D01*
X0559841Y0368079D02*
X0657935Y0368079D01*
X0657910Y0368139D02*
X0658363Y0367045D01*
X0658480Y0366928D01*
X0657466Y0365913D01*
X0656888Y0364518D01*
X0656310Y0365913D01*
X0655195Y0367028D01*
X0653739Y0367631D01*
X0652163Y0367631D01*
X0650706Y0367028D01*
X0649592Y0365913D01*
X0649014Y0364518D01*
X0648436Y0365913D01*
X0647321Y0367028D01*
X0645865Y0367631D01*
X0644289Y0367631D01*
X0642832Y0367028D01*
X0641718Y0365913D01*
X0641140Y0364518D01*
X0640562Y0365913D01*
X0639447Y0367028D01*
X0637991Y0367631D01*
X0636415Y0367631D01*
X0634958Y0367028D01*
X0633844Y0365913D01*
X0633241Y0364457D01*
X0633241Y0362881D01*
X0633844Y0361424D01*
X0634958Y0360310D01*
X0636354Y0359732D01*
X0634958Y0359154D01*
X0633844Y0358039D01*
X0633241Y0356583D01*
X0633241Y0355007D01*
X0633844Y0353550D01*
X0634958Y0352436D01*
X0636415Y0351833D01*
X0637991Y0351833D01*
X0639447Y0352436D01*
X0640562Y0353550D01*
X0641140Y0354946D01*
X0641718Y0353550D01*
X0642832Y0352436D01*
X0644289Y0351833D01*
X0645865Y0351833D01*
X0647321Y0352436D01*
X0648436Y0353550D01*
X0649014Y0354946D01*
X0649592Y0353550D01*
X0650706Y0352436D01*
X0652163Y0351833D01*
X0653739Y0351833D01*
X0655195Y0352436D01*
X0656310Y0353550D01*
X0656888Y0354946D01*
X0657466Y0353550D01*
X0658580Y0352436D01*
X0660037Y0351833D01*
X0661613Y0351833D01*
X0663069Y0352436D01*
X0664184Y0353550D01*
X0664762Y0354946D01*
X0665340Y0353550D01*
X0666454Y0352436D01*
X0667911Y0351833D01*
X0669487Y0351833D01*
X0670943Y0352436D01*
X0672058Y0353550D01*
X0672636Y0354946D01*
X0673214Y0353550D01*
X0674328Y0352436D01*
X0675785Y0351833D01*
X0677361Y0351833D01*
X0678817Y0352436D01*
X0679932Y0353550D01*
X0680535Y0355007D01*
X0680535Y0356583D01*
X0679932Y0358039D01*
X0678817Y0359154D01*
X0677422Y0359732D01*
X0678817Y0360310D01*
X0679932Y0361424D01*
X0680535Y0362881D01*
X0680535Y0364457D01*
X0679932Y0365913D01*
X0678817Y0367028D01*
X0677361Y0367631D01*
X0675785Y0367631D01*
X0674328Y0367028D01*
X0673214Y0365913D01*
X0672636Y0364518D01*
X0672058Y0365913D01*
X0670943Y0367028D01*
X0669487Y0367631D01*
X0667911Y0367631D01*
X0666454Y0367028D01*
X0665340Y0365913D01*
X0664762Y0364518D01*
X0664184Y0365913D01*
X0663232Y0366865D01*
X0663412Y0367045D01*
X0663866Y0368139D01*
X0663866Y0369324D01*
X0663412Y0370419D01*
X0662575Y0371256D01*
X0661480Y0371710D01*
X0660295Y0371710D01*
X0659201Y0371256D01*
X0658363Y0370419D01*
X0657910Y0369324D01*
X0657910Y0368139D01*
X0657910Y0369278D02*
X0654645Y0369278D01*
X0655591Y0370476D02*
X0658421Y0370476D01*
X0660211Y0371675D02*
X0655866Y0371675D01*
X0659241Y0372873D02*
X0740888Y0372873D01*
X0740888Y0371675D02*
X0661565Y0371675D01*
X0663355Y0370476D02*
X0740888Y0370476D01*
X0740888Y0369278D02*
X0663866Y0369278D01*
X0663841Y0368079D02*
X0740888Y0368079D01*
X0740888Y0366881D02*
X0678964Y0366881D01*
X0680027Y0365682D02*
X0740888Y0365682D01*
X0740888Y0364484D02*
X0680524Y0364484D01*
X0680535Y0363285D02*
X0740888Y0363285D01*
X0740888Y0362087D02*
X0680206Y0362087D01*
X0679396Y0360888D02*
X0740888Y0360888D01*
X0740888Y0359690D02*
X0677523Y0359690D01*
X0679480Y0358491D02*
X0740888Y0358491D01*
X0740888Y0357293D02*
X0680241Y0357293D01*
X0680535Y0356094D02*
X0740888Y0356094D01*
X0740888Y0354896D02*
X0680489Y0354896D01*
X0679993Y0353697D02*
X0740888Y0353697D01*
X0740888Y0352499D02*
X0678880Y0352499D01*
X0674266Y0352499D02*
X0671006Y0352499D01*
X0672119Y0353697D02*
X0673153Y0353697D01*
X0672657Y0354896D02*
X0672615Y0354896D01*
X0666392Y0352499D02*
X0663132Y0352499D01*
X0664245Y0353697D02*
X0665279Y0353697D01*
X0664783Y0354896D02*
X0664741Y0354896D01*
X0658518Y0352499D02*
X0655258Y0352499D01*
X0656371Y0353697D02*
X0657405Y0353697D01*
X0656909Y0354896D02*
X0656867Y0354896D01*
X0650644Y0352499D02*
X0647384Y0352499D01*
X0648497Y0353697D02*
X0649531Y0353697D01*
X0649035Y0354896D02*
X0648993Y0354896D01*
X0642770Y0352499D02*
X0639510Y0352499D01*
X0640623Y0353697D02*
X0641657Y0353697D01*
X0641161Y0354896D02*
X0641119Y0354896D01*
X0634896Y0352499D02*
X0574880Y0352499D01*
X0575993Y0353697D02*
X0633783Y0353697D01*
X0633287Y0354896D02*
X0576489Y0354896D01*
X0576535Y0356094D02*
X0633241Y0356094D01*
X0633535Y0357293D02*
X0576241Y0357293D01*
X0575480Y0358491D02*
X0634296Y0358491D01*
X0636252Y0359690D02*
X0573523Y0359690D01*
X0575396Y0360888D02*
X0634380Y0360888D01*
X0633569Y0362087D02*
X0576206Y0362087D01*
X0576535Y0363285D02*
X0633241Y0363285D01*
X0633252Y0364484D02*
X0576524Y0364484D01*
X0576027Y0365682D02*
X0633748Y0365682D01*
X0634811Y0366881D02*
X0574964Y0366881D01*
X0570181Y0366881D02*
X0567090Y0366881D01*
X0568153Y0365682D02*
X0569118Y0365682D01*
X0562307Y0366881D02*
X0559248Y0366881D01*
X0560279Y0365682D02*
X0561244Y0365682D01*
X0554433Y0366881D02*
X0551342Y0366881D01*
X0552405Y0365682D02*
X0553370Y0365682D01*
X0546559Y0366881D02*
X0543468Y0366881D01*
X0544531Y0365682D02*
X0545496Y0365682D01*
X0547130Y0369278D02*
X0506645Y0369278D01*
X0507591Y0370476D02*
X0546185Y0370476D01*
X0545910Y0371675D02*
X0507866Y0371675D01*
X0507638Y0372873D02*
X0542635Y0372873D01*
X0542038Y0374072D02*
X0506759Y0374072D01*
X0503866Y0375270D02*
X0539138Y0375270D01*
X0547966Y0375270D02*
X0643138Y0375270D01*
X0646638Y0375270D02*
X0653910Y0375270D01*
X0651016Y0374072D02*
X0550759Y0374072D01*
X0538685Y0366881D02*
X0535594Y0366881D01*
X0536657Y0365682D02*
X0537622Y0365682D01*
X0530811Y0366881D02*
X0470964Y0366881D01*
X0472027Y0365682D02*
X0529748Y0365682D01*
X0529252Y0364484D02*
X0472524Y0364484D01*
X0472535Y0363285D02*
X0529241Y0363285D01*
X0529569Y0362087D02*
X0472206Y0362087D01*
X0471396Y0360888D02*
X0530380Y0360888D01*
X0532252Y0359690D02*
X0469523Y0359690D01*
X0471480Y0358491D02*
X0530296Y0358491D01*
X0529535Y0357293D02*
X0472241Y0357293D01*
X0472535Y0356094D02*
X0529241Y0356094D01*
X0529287Y0354896D02*
X0472489Y0354896D01*
X0471993Y0353697D02*
X0529783Y0353697D01*
X0530896Y0352499D02*
X0470880Y0352499D01*
X0466266Y0352499D02*
X0463006Y0352499D01*
X0464119Y0353697D02*
X0465153Y0353697D01*
X0464657Y0354896D02*
X0464615Y0354896D01*
X0458392Y0352499D02*
X0455132Y0352499D01*
X0456245Y0353697D02*
X0457279Y0353697D01*
X0456783Y0354896D02*
X0456741Y0354896D01*
X0450518Y0352499D02*
X0447258Y0352499D01*
X0448371Y0353697D02*
X0449405Y0353697D01*
X0448909Y0354896D02*
X0448867Y0354896D01*
X0442644Y0352499D02*
X0439384Y0352499D01*
X0440497Y0353697D02*
X0441531Y0353697D01*
X0441035Y0354896D02*
X0440993Y0354896D01*
X0434770Y0352499D02*
X0431510Y0352499D01*
X0432623Y0353697D02*
X0433657Y0353697D01*
X0433161Y0354896D02*
X0433119Y0354896D01*
X0426896Y0352499D02*
X0366880Y0352499D01*
X0367993Y0353697D02*
X0425783Y0353697D01*
X0425287Y0354896D02*
X0368489Y0354896D01*
X0368535Y0356094D02*
X0425241Y0356094D01*
X0425535Y0357293D02*
X0368241Y0357293D01*
X0367480Y0358491D02*
X0426296Y0358491D01*
X0428252Y0359690D02*
X0365523Y0359690D01*
X0367396Y0360888D02*
X0426380Y0360888D01*
X0425569Y0362087D02*
X0368206Y0362087D01*
X0368535Y0363285D02*
X0425241Y0363285D01*
X0425252Y0364484D02*
X0368524Y0364484D01*
X0368027Y0365682D02*
X0425748Y0365682D01*
X0426811Y0366881D02*
X0366964Y0366881D01*
X0362181Y0366881D02*
X0359090Y0366881D01*
X0360153Y0365682D02*
X0361118Y0365682D01*
X0351866Y0369278D02*
X0443130Y0369278D01*
X0442185Y0370476D02*
X0351355Y0370476D01*
X0330685Y0366881D02*
X0327594Y0366881D01*
X0328657Y0365682D02*
X0329622Y0365682D01*
X0329161Y0354896D02*
X0329119Y0354896D01*
X0328623Y0353697D02*
X0329657Y0353697D01*
X0330770Y0352499D02*
X0327510Y0352499D01*
X0322896Y0352499D02*
X0178880Y0352499D01*
X0179565Y0350102D02*
X0182211Y0350102D01*
X0181510Y0348903D02*
X0180265Y0348903D01*
X0180456Y0347704D02*
X0181319Y0347704D01*
X0181533Y0346506D02*
X0180243Y0346506D01*
X0179510Y0345307D02*
X0182265Y0345307D01*
X0187510Y0345307D02*
X0190265Y0345307D01*
X0189533Y0346506D02*
X0188243Y0346506D01*
X0188456Y0347704D02*
X0189319Y0347704D01*
X0189510Y0348903D02*
X0188265Y0348903D01*
X0187565Y0350102D02*
X0190211Y0350102D01*
X0195565Y0350102D02*
X0198211Y0350102D01*
X0197510Y0348903D02*
X0196265Y0348903D01*
X0196456Y0347704D02*
X0197319Y0347704D01*
X0197533Y0346506D02*
X0196243Y0346506D01*
X0195510Y0345307D02*
X0198265Y0345307D01*
X0203510Y0345307D02*
X0598317Y0345307D01*
X0597910Y0344109D02*
X0506722Y0344109D01*
X0507623Y0342910D02*
X0598005Y0342910D01*
X0598696Y0341712D02*
X0507866Y0341712D01*
X0507606Y0340513D02*
X0649349Y0340513D01*
X0649319Y0339315D02*
X0506682Y0339315D01*
X0503856Y0338116D02*
X0546226Y0338116D01*
X0545517Y0336918D02*
X0503285Y0336918D01*
X0501910Y0341712D02*
X0031456Y0341712D01*
X0031456Y0342910D02*
X0502153Y0342910D01*
X0503054Y0344109D02*
X0031456Y0344109D01*
X0031456Y0340513D02*
X0498458Y0340513D01*
X0497910Y0339315D02*
X0031456Y0339315D01*
X0031456Y0338116D02*
X0350226Y0338116D01*
X0349517Y0336918D02*
X0031456Y0336918D01*
X0077150Y0358491D02*
X0093382Y0358491D01*
X0091972Y0359690D02*
X0078559Y0359690D01*
X0079094Y0360888D02*
X0091437Y0360888D01*
X0091304Y0362087D02*
X0079228Y0362087D01*
X0079022Y0363285D02*
X0091510Y0363285D01*
X0092147Y0364484D02*
X0078385Y0364484D01*
X0098385Y0364484D02*
X0102147Y0364484D01*
X0101510Y0363285D02*
X0099022Y0363285D01*
X0099228Y0362087D02*
X0101304Y0362087D01*
X0101437Y0360888D02*
X0099094Y0360888D01*
X0098559Y0359690D02*
X0101972Y0359690D01*
X0103382Y0358491D02*
X0097150Y0358491D01*
X0107150Y0358491D02*
X0113382Y0358491D01*
X0111972Y0359690D02*
X0108559Y0359690D01*
X0109094Y0360888D02*
X0111437Y0360888D01*
X0111304Y0362087D02*
X0109228Y0362087D01*
X0109022Y0363285D02*
X0111510Y0363285D01*
X0112147Y0364484D02*
X0108385Y0364484D01*
X0139594Y0366881D02*
X0142685Y0366881D01*
X0141622Y0365682D02*
X0140657Y0365682D01*
X0147468Y0366881D02*
X0150559Y0366881D01*
X0149496Y0365682D02*
X0148531Y0365682D01*
X0151130Y0369278D02*
X0031456Y0369278D01*
X0031456Y0370476D02*
X0150185Y0370476D01*
X0149910Y0371675D02*
X0031456Y0371675D01*
X0031456Y0372873D02*
X0146635Y0372873D01*
X0146038Y0374072D02*
X0031456Y0374072D01*
X0031456Y0375270D02*
X0143138Y0375270D01*
X0155342Y0366881D02*
X0158433Y0366881D01*
X0157370Y0365682D02*
X0156405Y0365682D01*
X0163248Y0366881D02*
X0166307Y0366881D01*
X0165244Y0365682D02*
X0164279Y0365682D01*
X0171090Y0366881D02*
X0174181Y0366881D01*
X0173118Y0365682D02*
X0172153Y0365682D01*
X0172615Y0354896D02*
X0172657Y0354896D01*
X0173153Y0353697D02*
X0172119Y0353697D01*
X0171006Y0352499D02*
X0174266Y0352499D01*
X0174211Y0350102D02*
X0171565Y0350102D01*
X0172265Y0348903D02*
X0173510Y0348903D01*
X0173319Y0347704D02*
X0172456Y0347704D01*
X0172243Y0346506D02*
X0173533Y0346506D01*
X0174265Y0345307D02*
X0171510Y0345307D01*
X0169598Y0335300D02*
X0168178Y0335300D01*
X0166866Y0334757D01*
X0165863Y0333753D01*
X0165319Y0332442D01*
X0165319Y0331022D01*
X0165863Y0329710D01*
X0166866Y0328706D01*
X0168178Y0328163D01*
X0169598Y0328163D01*
X0170909Y0328706D01*
X0171913Y0329710D01*
X0172456Y0331022D01*
X0172456Y0332442D01*
X0171913Y0333753D01*
X0170909Y0334757D01*
X0169598Y0335300D01*
X0171145Y0334521D02*
X0174630Y0334521D01*
X0174866Y0334757D02*
X0173863Y0333753D01*
X0173319Y0332442D01*
X0173319Y0331022D01*
X0173863Y0329710D01*
X0174866Y0328706D01*
X0176178Y0328163D01*
X0177598Y0328163D01*
X0178909Y0328706D01*
X0179913Y0329710D01*
X0180456Y0331022D01*
X0180456Y0332442D01*
X0179913Y0333753D01*
X0178909Y0334757D01*
X0177598Y0335300D01*
X0176178Y0335300D01*
X0174866Y0334757D01*
X0173684Y0333322D02*
X0172091Y0333322D01*
X0172456Y0332124D02*
X0173319Y0332124D01*
X0173359Y0330925D02*
X0172416Y0330925D01*
X0171920Y0329727D02*
X0173856Y0329727D01*
X0175297Y0328528D02*
X0170479Y0328528D01*
X0167297Y0328528D02*
X0162479Y0328528D01*
X0163920Y0329727D02*
X0165856Y0329727D01*
X0165359Y0330925D02*
X0164416Y0330925D01*
X0164456Y0332124D02*
X0165319Y0332124D01*
X0165684Y0333322D02*
X0164091Y0333322D01*
X0163145Y0334521D02*
X0166630Y0334521D01*
X0179145Y0334521D02*
X0182630Y0334521D01*
X0182866Y0334757D02*
X0181863Y0333753D01*
X0181319Y0332442D01*
X0181319Y0331022D01*
X0181863Y0329710D01*
X0182866Y0328706D01*
X0184178Y0328163D01*
X0185598Y0328163D01*
X0186909Y0328706D01*
X0187913Y0329710D01*
X0188456Y0331022D01*
X0188456Y0332442D01*
X0187913Y0333753D01*
X0186909Y0334757D01*
X0185598Y0335300D01*
X0184178Y0335300D01*
X0182866Y0334757D01*
X0181684Y0333322D02*
X0180091Y0333322D01*
X0180456Y0332124D02*
X0181319Y0332124D01*
X0181359Y0330925D02*
X0180416Y0330925D01*
X0179920Y0329727D02*
X0181856Y0329727D01*
X0183297Y0328528D02*
X0178479Y0328528D01*
X0186479Y0328528D02*
X0191297Y0328528D01*
X0190866Y0328706D02*
X0192178Y0328163D01*
X0193598Y0328163D01*
X0194909Y0328706D01*
X0195913Y0329710D01*
X0196456Y0331022D01*
X0196456Y0332442D01*
X0195913Y0333753D01*
X0194909Y0334757D01*
X0193598Y0335300D01*
X0192178Y0335300D01*
X0190866Y0334757D01*
X0189863Y0333753D01*
X0189319Y0332442D01*
X0189319Y0331022D01*
X0189863Y0329710D01*
X0190866Y0328706D01*
X0189856Y0329727D02*
X0187920Y0329727D01*
X0188416Y0330925D02*
X0189359Y0330925D01*
X0189319Y0332124D02*
X0188456Y0332124D01*
X0188091Y0333322D02*
X0189684Y0333322D01*
X0190630Y0334521D02*
X0187145Y0334521D01*
X0195145Y0334521D02*
X0198630Y0334521D01*
X0197684Y0333322D02*
X0196091Y0333322D01*
X0196456Y0332124D02*
X0197319Y0332124D01*
X0197359Y0330925D02*
X0196416Y0330925D01*
X0195920Y0329727D02*
X0197856Y0329727D01*
X0199297Y0328528D02*
X0194479Y0328528D01*
X0204243Y0346506D02*
X0599804Y0346506D01*
X0603079Y0341712D02*
X0649846Y0341712D01*
X0662539Y0342910D02*
X0667237Y0342910D01*
X0666866Y0342757D02*
X0665863Y0341753D01*
X0665319Y0340442D01*
X0665319Y0339022D01*
X0665863Y0337710D01*
X0666866Y0336706D01*
X0668178Y0336163D01*
X0669598Y0336163D01*
X0670909Y0336706D01*
X0671913Y0337710D01*
X0672456Y0339022D01*
X0672456Y0340442D01*
X0671913Y0341753D01*
X0670909Y0342757D01*
X0669598Y0343300D01*
X0668178Y0343300D01*
X0666866Y0342757D01*
X0665846Y0341712D02*
X0663930Y0341712D01*
X0664427Y0340513D02*
X0665349Y0340513D01*
X0665319Y0339315D02*
X0664456Y0339315D01*
X0664081Y0338116D02*
X0665694Y0338116D01*
X0666655Y0336918D02*
X0663121Y0336918D01*
X0671121Y0336918D02*
X0674655Y0336918D01*
X0674866Y0336706D02*
X0676178Y0336163D01*
X0677598Y0336163D01*
X0678909Y0336706D01*
X0679913Y0337710D01*
X0680456Y0339022D01*
X0680456Y0340442D01*
X0679913Y0341753D01*
X0678909Y0342757D01*
X0677598Y0343300D01*
X0676178Y0343300D01*
X0674866Y0342757D01*
X0673863Y0341753D01*
X0673319Y0340442D01*
X0673319Y0339022D01*
X0673863Y0337710D01*
X0674866Y0336706D01*
X0673694Y0338116D02*
X0672081Y0338116D01*
X0672456Y0339315D02*
X0673319Y0339315D01*
X0673349Y0340513D02*
X0672427Y0340513D01*
X0671930Y0341712D02*
X0673846Y0341712D01*
X0675237Y0342910D02*
X0670539Y0342910D01*
X0678539Y0342910D02*
X0740888Y0342910D01*
X0740888Y0341712D02*
X0679930Y0341712D01*
X0680427Y0340513D02*
X0740888Y0340513D01*
X0740888Y0339315D02*
X0680456Y0339315D01*
X0680081Y0338116D02*
X0740888Y0338116D01*
X0740888Y0336918D02*
X0679121Y0336918D01*
X0740888Y0348903D02*
X0204265Y0348903D01*
X0204456Y0348442D02*
X0203913Y0349753D01*
X0204456Y0348442D02*
X0204456Y0347022D01*
X0293690Y0311749D02*
X0031456Y0311749D01*
X0031456Y0310551D02*
X0292268Y0310551D01*
X0291631Y0309352D02*
X0031456Y0309352D01*
X0031456Y0308154D02*
X0291335Y0308154D01*
X0291335Y0306955D02*
X0031456Y0306955D01*
X0031456Y0305757D02*
X0072475Y0305757D01*
X0073021Y0306303D02*
X0071907Y0305189D01*
X0071304Y0303732D01*
X0071304Y0302156D01*
X0071907Y0300700D01*
X0073021Y0299585D01*
X0074478Y0298982D01*
X0076054Y0298982D01*
X0077510Y0299585D01*
X0078625Y0300700D01*
X0079228Y0302156D01*
X0079228Y0303732D01*
X0078625Y0305189D01*
X0077510Y0306303D01*
X0076054Y0306907D01*
X0074478Y0306907D01*
X0073021Y0306303D01*
X0071646Y0304558D02*
X0031456Y0304558D01*
X0031456Y0303360D02*
X0071304Y0303360D01*
X0071304Y0302161D02*
X0031456Y0302161D01*
X0031456Y0300963D02*
X0071798Y0300963D01*
X0072843Y0299764D02*
X0031456Y0299764D01*
X0031456Y0298566D02*
X0222675Y0298566D01*
X0222866Y0298757D02*
X0221863Y0297753D01*
X0221319Y0296442D01*
X0221319Y0295022D01*
X0221863Y0293710D01*
X0222866Y0292706D01*
X0224178Y0292163D01*
X0225598Y0292163D01*
X0226909Y0292706D01*
X0227913Y0293710D01*
X0228456Y0295022D01*
X0228456Y0296442D01*
X0227913Y0297753D01*
X0226909Y0298757D01*
X0225598Y0299300D01*
X0224178Y0299300D01*
X0222866Y0298757D01*
X0221703Y0297367D02*
X0031456Y0297367D01*
X0031456Y0296168D02*
X0082887Y0296168D01*
X0083021Y0296303D02*
X0081907Y0295189D01*
X0081304Y0293732D01*
X0081304Y0292156D01*
X0081907Y0290700D01*
X0083021Y0289585D01*
X0084478Y0288982D01*
X0086054Y0288982D01*
X0087510Y0289585D01*
X0088625Y0290700D01*
X0089228Y0292156D01*
X0089228Y0293732D01*
X0088625Y0295189D01*
X0087510Y0296303D01*
X0086054Y0296907D01*
X0084478Y0296907D01*
X0083021Y0296303D01*
X0081816Y0294970D02*
X0031456Y0294970D01*
X0031456Y0293771D02*
X0081320Y0293771D01*
X0081304Y0292573D02*
X0031456Y0292573D01*
X0031456Y0291374D02*
X0081627Y0291374D01*
X0082431Y0290176D02*
X0031456Y0290176D01*
X0031456Y0288977D02*
X0291476Y0288977D01*
X0291335Y0287779D02*
X0031456Y0287779D01*
X0031456Y0286580D02*
X0291437Y0286580D01*
X0291933Y0285382D02*
X0031456Y0285382D01*
X0031456Y0284183D02*
X0269128Y0284183D01*
X0268184Y0282985D02*
X0031456Y0282985D01*
X0031456Y0281786D02*
X0267910Y0281786D01*
X0268138Y0280588D02*
X0031456Y0280588D01*
X0031456Y0279389D02*
X0269019Y0279389D01*
X0272757Y0279389D02*
X0277910Y0279389D01*
X0278019Y0280588D02*
X0273637Y0280588D01*
X0272648Y0284183D02*
X0292998Y0284183D01*
X0291972Y0290176D02*
X0088101Y0290176D01*
X0088904Y0291374D02*
X0293092Y0291374D01*
X0279720Y0276992D02*
X0031456Y0276992D01*
X0031456Y0278191D02*
X0278303Y0278191D01*
X0247189Y0292573D02*
X0226587Y0292573D01*
X0227938Y0293771D02*
X0245837Y0293771D01*
X0245341Y0294970D02*
X0228435Y0294970D01*
X0228456Y0296168D02*
X0245319Y0296168D01*
X0245703Y0297367D02*
X0228073Y0297367D01*
X0227101Y0298566D02*
X0246675Y0298566D01*
X0223189Y0292573D02*
X0089228Y0292573D01*
X0089212Y0293771D02*
X0221837Y0293771D01*
X0221341Y0294970D02*
X0088715Y0294970D01*
X0087645Y0296168D02*
X0221319Y0296168D01*
X0112843Y0299764D02*
X0107689Y0299764D01*
X0107510Y0299585D02*
X0108625Y0300700D01*
X0109228Y0302156D01*
X0109228Y0303732D01*
X0108625Y0305189D01*
X0107510Y0306303D01*
X0106054Y0306907D01*
X0104478Y0306907D01*
X0103021Y0306303D01*
X0101907Y0305189D01*
X0101304Y0303732D01*
X0101304Y0302156D01*
X0101907Y0300700D01*
X0103021Y0299585D01*
X0104478Y0298982D01*
X0106054Y0298982D01*
X0107510Y0299585D01*
X0108734Y0300963D02*
X0111798Y0300963D01*
X0111304Y0302161D02*
X0109228Y0302161D01*
X0109228Y0303360D02*
X0111304Y0303360D01*
X0111646Y0304558D02*
X0108886Y0304558D01*
X0108057Y0305757D02*
X0112475Y0305757D01*
X0102475Y0305757D02*
X0098057Y0305757D01*
X0097510Y0306303D02*
X0096054Y0306907D01*
X0094478Y0306907D01*
X0093021Y0306303D01*
X0091907Y0305189D01*
X0091304Y0303732D01*
X0091304Y0302156D01*
X0091907Y0300700D01*
X0093021Y0299585D01*
X0094478Y0298982D01*
X0096054Y0298982D01*
X0097510Y0299585D01*
X0098625Y0300700D01*
X0099228Y0302156D01*
X0099228Y0303732D01*
X0098625Y0305189D01*
X0097510Y0306303D01*
X0098886Y0304558D02*
X0101646Y0304558D01*
X0101304Y0303360D02*
X0099228Y0303360D01*
X0099228Y0302161D02*
X0101304Y0302161D01*
X0101798Y0300963D02*
X0098734Y0300963D01*
X0097689Y0299764D02*
X0102843Y0299764D01*
X0092843Y0299764D02*
X0077689Y0299764D01*
X0078734Y0300963D02*
X0091798Y0300963D01*
X0091304Y0302161D02*
X0079228Y0302161D01*
X0079228Y0303360D02*
X0091304Y0303360D01*
X0091646Y0304558D02*
X0078886Y0304558D01*
X0078057Y0305757D02*
X0092475Y0305757D01*
X0092294Y0266206D02*
X0078238Y0266206D01*
X0078961Y0265007D02*
X0091571Y0265007D01*
X0091304Y0263809D02*
X0079228Y0263809D01*
X0079155Y0262610D02*
X0091376Y0262610D01*
X0091873Y0261412D02*
X0078659Y0261412D01*
X0077505Y0260213D02*
X0093026Y0260213D01*
X0097505Y0260213D02*
X0103026Y0260213D01*
X0101873Y0261412D02*
X0098659Y0261412D01*
X0099155Y0262610D02*
X0101376Y0262610D01*
X0101304Y0263809D02*
X0099228Y0263809D01*
X0098961Y0265007D02*
X0101571Y0265007D01*
X0102294Y0266206D02*
X0098238Y0266206D01*
X0108238Y0266206D02*
X0112294Y0266206D01*
X0111571Y0265007D02*
X0108961Y0265007D01*
X0109228Y0263809D02*
X0111304Y0263809D01*
X0111376Y0262610D02*
X0109155Y0262610D01*
X0108659Y0261412D02*
X0111873Y0261412D01*
X0113026Y0260213D02*
X0107505Y0260213D01*
X0116810Y0227853D02*
X0201910Y0227853D01*
X0202111Y0226655D02*
X0118418Y0226655D01*
X0119036Y0225456D02*
X0202952Y0225456D01*
X0202211Y0229052D02*
X0031456Y0229052D01*
X0031456Y0230250D02*
X0203195Y0230250D01*
X0206581Y0230250D02*
X0225639Y0230250D01*
X0226521Y0229052D02*
X0207564Y0229052D01*
X0206824Y0225456D02*
X0259401Y0225456D01*
X0258910Y0224258D02*
X0119228Y0224258D01*
X0119080Y0223059D02*
X0258943Y0223059D01*
X0259547Y0221861D02*
X0118526Y0221861D01*
X0143910Y0212273D02*
X0088754Y0212273D01*
X0088625Y0211960D02*
X0089228Y0213416D01*
X0089228Y0214992D01*
X0088625Y0216449D01*
X0087510Y0217563D01*
X0086054Y0218166D01*
X0084478Y0218166D01*
X0083021Y0217563D01*
X0081907Y0216449D01*
X0081304Y0214992D01*
X0081304Y0213416D01*
X0081907Y0211960D01*
X0083021Y0210845D01*
X0084478Y0210242D01*
X0086054Y0210242D01*
X0087510Y0210845D01*
X0088625Y0211960D01*
X0087739Y0211074D02*
X0143937Y0211074D01*
X0144532Y0209876D02*
X0031456Y0209876D01*
X0031456Y0211074D02*
X0082792Y0211074D01*
X0081777Y0212273D02*
X0031456Y0212273D01*
X0031456Y0213471D02*
X0081304Y0213471D01*
X0081304Y0214670D02*
X0031456Y0214670D01*
X0031456Y0215868D02*
X0081666Y0215868D01*
X0082525Y0217067D02*
X0031456Y0217067D01*
X0031456Y0218265D02*
X0155300Y0218265D01*
X0152011Y0217067D02*
X0151764Y0217067D01*
X0148011Y0217067D02*
X0088007Y0217067D01*
X0088865Y0215868D02*
X0147135Y0215868D01*
X0146199Y0214670D02*
X0089228Y0214670D01*
X0089228Y0213471D02*
X0144416Y0213471D01*
X0151640Y0212273D02*
X0152135Y0212273D01*
X0086866Y0184707D02*
X0502068Y0184707D01*
X0501910Y0183508D02*
X0086604Y0183508D01*
X0085677Y0182310D02*
X0103330Y0182310D01*
X0103201Y0182256D02*
X0102363Y0181419D01*
X0101910Y0180324D01*
X0101910Y0179139D01*
X0102363Y0178045D01*
X0103201Y0177207D01*
X0104295Y0176754D01*
X0105480Y0176754D01*
X0106575Y0177207D01*
X0107412Y0178045D01*
X0107866Y0179139D01*
X0107866Y0180324D01*
X0107412Y0181419D01*
X0106575Y0182256D01*
X0105480Y0182710D01*
X0104295Y0182710D01*
X0103201Y0182256D01*
X0102236Y0181111D02*
X0076888Y0181111D01*
X0076888Y0179913D02*
X0101910Y0179913D01*
X0102086Y0178714D02*
X0076888Y0178714D01*
X0076888Y0177516D02*
X0102892Y0177516D01*
X0106883Y0177516D02*
X0139168Y0177516D01*
X0139363Y0177045D02*
X0140201Y0176207D01*
X0141295Y0175754D01*
X0142480Y0175754D01*
X0143575Y0176207D01*
X0144412Y0177045D01*
X0144866Y0178139D01*
X0144866Y0179324D01*
X0144412Y0180419D01*
X0143575Y0181256D01*
X0142480Y0181710D01*
X0141295Y0181710D01*
X0140201Y0181256D01*
X0139363Y0180419D01*
X0138910Y0179324D01*
X0138910Y0178139D01*
X0139363Y0177045D01*
X0140091Y0176317D02*
X0076888Y0176317D01*
X0076888Y0175119D02*
X0211740Y0175119D01*
X0212178Y0175300D02*
X0210866Y0174757D01*
X0209863Y0173753D01*
X0209319Y0172442D01*
X0209319Y0171022D01*
X0209863Y0169710D01*
X0210866Y0168706D01*
X0212178Y0168163D01*
X0213598Y0168163D01*
X0214909Y0168706D01*
X0215913Y0169710D01*
X0216456Y0171022D01*
X0216456Y0172442D01*
X0215913Y0173753D01*
X0214909Y0174757D01*
X0213598Y0175300D01*
X0212178Y0175300D01*
X0214035Y0175119D02*
X0219740Y0175119D01*
X0220178Y0175300D02*
X0218866Y0174757D01*
X0217863Y0173753D01*
X0217319Y0172442D01*
X0217319Y0171022D01*
X0217863Y0169710D01*
X0218866Y0168706D01*
X0220178Y0168163D01*
X0221598Y0168163D01*
X0222909Y0168706D01*
X0223913Y0169710D01*
X0224456Y0171022D01*
X0224456Y0172442D01*
X0223913Y0173753D01*
X0222909Y0174757D01*
X0221598Y0175300D01*
X0220178Y0175300D01*
X0222035Y0175119D02*
X0227740Y0175119D01*
X0228178Y0175300D02*
X0226866Y0174757D01*
X0225863Y0173753D01*
X0225319Y0172442D01*
X0225319Y0171022D01*
X0225863Y0169710D01*
X0226866Y0168706D01*
X0228178Y0168163D01*
X0229598Y0168163D01*
X0230909Y0168706D01*
X0231913Y0169710D01*
X0232456Y0171022D01*
X0232456Y0172442D01*
X0231913Y0173753D01*
X0230909Y0174757D01*
X0229598Y0175300D01*
X0228178Y0175300D01*
X0230035Y0175119D02*
X0235740Y0175119D01*
X0236178Y0175300D02*
X0234866Y0174757D01*
X0233863Y0173753D01*
X0233319Y0172442D01*
X0233319Y0171022D01*
X0233863Y0169710D01*
X0234866Y0168706D01*
X0236178Y0168163D01*
X0237598Y0168163D01*
X0238909Y0168706D01*
X0239913Y0169710D01*
X0240456Y0171022D01*
X0240456Y0172442D01*
X0239913Y0173753D01*
X0238909Y0174757D01*
X0237598Y0175300D01*
X0236178Y0175300D01*
X0238035Y0175119D02*
X0243740Y0175119D01*
X0242030Y0173920D02*
X0239746Y0173920D01*
X0240340Y0172722D02*
X0241435Y0172722D01*
X0241319Y0171523D02*
X0240456Y0171523D01*
X0240168Y0170325D02*
X0241608Y0170325D01*
X0242447Y0169126D02*
X0239329Y0169126D01*
X0234447Y0169126D02*
X0231329Y0169126D01*
X0232168Y0170325D02*
X0233608Y0170325D01*
X0233319Y0171523D02*
X0232456Y0171523D01*
X0232340Y0172722D02*
X0233435Y0172722D01*
X0234030Y0173920D02*
X0231746Y0173920D01*
X0232178Y0176163D02*
X0233598Y0176163D01*
X0234909Y0176706D01*
X0235913Y0177710D01*
X0236456Y0179022D01*
X0236456Y0180442D01*
X0235913Y0181753D01*
X0234909Y0182757D01*
X0233598Y0183300D01*
X0232178Y0183300D01*
X0230866Y0182757D01*
X0229863Y0181753D01*
X0229319Y0180442D01*
X0229319Y0179022D01*
X0229863Y0177710D01*
X0230866Y0176706D01*
X0232178Y0176163D01*
X0231806Y0176317D02*
X0225970Y0176317D01*
X0225598Y0176163D02*
X0226909Y0176706D01*
X0227913Y0177710D01*
X0228456Y0179022D01*
X0228456Y0180442D01*
X0227913Y0181753D01*
X0226909Y0182757D01*
X0225598Y0183300D01*
X0224178Y0183300D01*
X0222866Y0182757D01*
X0221863Y0181753D01*
X0221319Y0180442D01*
X0221319Y0179022D01*
X0221863Y0177710D01*
X0222866Y0176706D01*
X0224178Y0176163D01*
X0225598Y0176163D01*
X0223806Y0176317D02*
X0159685Y0176317D01*
X0159575Y0176207D02*
X0160412Y0177045D01*
X0160866Y0178139D01*
X0160866Y0179324D01*
X0160412Y0180419D01*
X0159575Y0181256D01*
X0158480Y0181710D01*
X0157295Y0181710D01*
X0156201Y0181256D01*
X0155363Y0180419D01*
X0154910Y0179324D01*
X0154910Y0178139D01*
X0155363Y0177045D01*
X0156201Y0176207D01*
X0157295Y0175754D01*
X0158480Y0175754D01*
X0159575Y0176207D01*
X0160607Y0177516D02*
X0222057Y0177516D01*
X0221447Y0178714D02*
X0160866Y0178714D01*
X0160622Y0179913D02*
X0221319Y0179913D01*
X0221597Y0181111D02*
X0159720Y0181111D01*
X0156056Y0181111D02*
X0143720Y0181111D01*
X0144622Y0179913D02*
X0155154Y0179913D01*
X0154910Y0178714D02*
X0144866Y0178714D01*
X0144607Y0177516D02*
X0155168Y0177516D01*
X0156091Y0176317D02*
X0143685Y0176317D01*
X0138910Y0178714D02*
X0107690Y0178714D01*
X0107866Y0179913D02*
X0139154Y0179913D01*
X0140056Y0181111D02*
X0107540Y0181111D01*
X0106445Y0182310D02*
X0222419Y0182310D01*
X0227356Y0182310D02*
X0230419Y0182310D01*
X0229597Y0181111D02*
X0228179Y0181111D01*
X0228456Y0179913D02*
X0229319Y0179913D01*
X0229447Y0178714D02*
X0228329Y0178714D01*
X0227719Y0177516D02*
X0230057Y0177516D01*
X0233970Y0176317D02*
X0493250Y0176317D01*
X0493363Y0176045D02*
X0494201Y0175207D01*
X0495295Y0174754D01*
X0496480Y0174754D01*
X0497575Y0175207D01*
X0498412Y0176045D01*
X0498866Y0177139D01*
X0498866Y0178324D01*
X0498412Y0179419D01*
X0497575Y0180256D01*
X0496480Y0180710D01*
X0495295Y0180710D01*
X0494201Y0180256D01*
X0493363Y0179419D01*
X0492910Y0178324D01*
X0492910Y0177139D01*
X0493363Y0176045D01*
X0494414Y0175119D02*
X0246035Y0175119D01*
X0236329Y0178714D02*
X0493072Y0178714D01*
X0492910Y0177516D02*
X0235719Y0177516D01*
X0236456Y0179913D02*
X0493857Y0179913D01*
X0497918Y0179913D02*
X0515857Y0179913D01*
X0515072Y0178714D02*
X0498704Y0178714D01*
X0498866Y0177516D02*
X0514910Y0177516D01*
X0515250Y0176317D02*
X0498525Y0176317D01*
X0497362Y0175119D02*
X0516414Y0175119D01*
X0522911Y0173920D02*
X0550893Y0173920D01*
X0549666Y0172722D02*
X0534109Y0172722D01*
X0534412Y0172419D02*
X0533575Y0173256D01*
X0532480Y0173710D01*
X0531295Y0173710D01*
X0530201Y0173256D01*
X0529363Y0172419D01*
X0528910Y0171324D01*
X0528910Y0170139D01*
X0529363Y0169045D01*
X0530201Y0168207D01*
X0531295Y0167754D01*
X0532480Y0167754D01*
X0533575Y0168207D01*
X0534412Y0169045D01*
X0534866Y0170139D01*
X0534866Y0171324D01*
X0534412Y0172419D01*
X0534783Y0171523D02*
X0548992Y0171523D01*
X0548910Y0170325D02*
X0534866Y0170325D01*
X0534446Y0169126D02*
X0549329Y0169126D01*
X0542447Y0167928D02*
X0532900Y0167928D01*
X0530875Y0167928D02*
X0076888Y0167928D01*
X0076888Y0169126D02*
X0210447Y0169126D01*
X0209608Y0170325D02*
X0076888Y0170325D01*
X0076888Y0171523D02*
X0209319Y0171523D01*
X0209435Y0172722D02*
X0076888Y0172722D01*
X0076888Y0173920D02*
X0210030Y0173920D01*
X0215746Y0173920D02*
X0218030Y0173920D01*
X0217435Y0172722D02*
X0216340Y0172722D01*
X0216456Y0171523D02*
X0217319Y0171523D01*
X0217608Y0170325D02*
X0216168Y0170325D01*
X0215329Y0169126D02*
X0218447Y0169126D01*
X0223329Y0169126D02*
X0226447Y0169126D01*
X0225608Y0170325D02*
X0224168Y0170325D01*
X0224456Y0171523D02*
X0225319Y0171523D01*
X0225435Y0172722D02*
X0224340Y0172722D01*
X0223746Y0173920D02*
X0226030Y0173920D01*
X0236179Y0181111D02*
X0503432Y0181111D01*
X0502253Y0182310D02*
X0235356Y0182310D01*
X0321633Y0218265D02*
X0682272Y0218265D01*
X0681910Y0219464D02*
X0322586Y0219464D01*
X0322866Y0220662D02*
X0682050Y0220662D01*
X0682805Y0221861D02*
X0325228Y0221861D01*
X0263045Y0244633D02*
X0227738Y0244633D01*
X0227000Y0245831D02*
X0261813Y0245831D01*
X0289128Y0253022D02*
X0291648Y0253022D01*
X0294128Y0253022D02*
X0295967Y0253022D01*
X0355165Y0300963D02*
X0358610Y0300963D01*
X0358866Y0300706D02*
X0360178Y0300163D01*
X0361598Y0300163D01*
X0362909Y0300706D01*
X0363913Y0301710D01*
X0364456Y0303022D01*
X0364456Y0304442D01*
X0363913Y0305753D01*
X0362909Y0306757D01*
X0361598Y0307300D01*
X0360178Y0307300D01*
X0358866Y0306757D01*
X0357863Y0305753D01*
X0357319Y0304442D01*
X0357319Y0303022D01*
X0357863Y0301710D01*
X0358866Y0300706D01*
X0357676Y0302161D02*
X0356100Y0302161D01*
X0356456Y0303360D02*
X0357319Y0303360D01*
X0357368Y0304558D02*
X0356408Y0304558D01*
X0355910Y0305757D02*
X0357866Y0305757D01*
X0359345Y0306955D02*
X0354431Y0306955D01*
X0362431Y0306955D02*
X0367345Y0306955D01*
X0366866Y0306757D02*
X0365863Y0305753D01*
X0365319Y0304442D01*
X0365319Y0303022D01*
X0365863Y0301710D01*
X0366866Y0300706D01*
X0368178Y0300163D01*
X0369598Y0300163D01*
X0370909Y0300706D01*
X0371913Y0301710D01*
X0372456Y0303022D01*
X0372456Y0304442D01*
X0371913Y0305753D01*
X0370909Y0306757D01*
X0369598Y0307300D01*
X0368178Y0307300D01*
X0366866Y0306757D01*
X0365866Y0305757D02*
X0363910Y0305757D01*
X0364408Y0304558D02*
X0365368Y0304558D01*
X0365319Y0303360D02*
X0364456Y0303360D01*
X0364100Y0302161D02*
X0365676Y0302161D01*
X0366610Y0300963D02*
X0363165Y0300963D01*
X0371165Y0300963D02*
X0374610Y0300963D01*
X0373676Y0302161D02*
X0372100Y0302161D01*
X0372456Y0303360D02*
X0373319Y0303360D01*
X0373368Y0304558D02*
X0372408Y0304558D01*
X0371910Y0305757D02*
X0373866Y0305757D01*
X0375345Y0306955D02*
X0370431Y0306955D01*
X0362266Y0352499D02*
X0359006Y0352499D01*
X0360119Y0353697D02*
X0361153Y0353697D01*
X0360657Y0354896D02*
X0360615Y0354896D01*
X0354392Y0352499D02*
X0351132Y0352499D01*
X0352245Y0353697D02*
X0353279Y0353697D01*
X0352783Y0354896D02*
X0352741Y0354896D01*
X0346518Y0352499D02*
X0343258Y0352499D01*
X0344371Y0353697D02*
X0345405Y0353697D01*
X0344909Y0354896D02*
X0344867Y0354896D01*
X0338644Y0352499D02*
X0335384Y0352499D01*
X0336497Y0353697D02*
X0337531Y0353697D01*
X0337035Y0354896D02*
X0336993Y0354896D01*
X0431594Y0366881D02*
X0434685Y0366881D01*
X0433622Y0365682D02*
X0432657Y0365682D01*
X0439468Y0366881D02*
X0442559Y0366881D01*
X0441496Y0365682D02*
X0440531Y0365682D01*
X0447342Y0366881D02*
X0450433Y0366881D01*
X0449370Y0365682D02*
X0448405Y0365682D01*
X0455248Y0366881D02*
X0458307Y0366881D01*
X0457244Y0365682D02*
X0456279Y0365682D01*
X0463090Y0366881D02*
X0466181Y0366881D01*
X0465118Y0365682D02*
X0464153Y0365682D01*
X0535510Y0352499D02*
X0538770Y0352499D01*
X0537657Y0353697D02*
X0536623Y0353697D01*
X0537119Y0354896D02*
X0537161Y0354896D01*
X0543384Y0352499D02*
X0546644Y0352499D01*
X0545531Y0353697D02*
X0544497Y0353697D01*
X0544993Y0354896D02*
X0545035Y0354896D01*
X0551258Y0352499D02*
X0554518Y0352499D01*
X0553405Y0353697D02*
X0552371Y0353697D01*
X0552867Y0354896D02*
X0552909Y0354896D01*
X0559132Y0352499D02*
X0562392Y0352499D01*
X0561279Y0353697D02*
X0560245Y0353697D01*
X0560741Y0354896D02*
X0560783Y0354896D01*
X0567006Y0352499D02*
X0570266Y0352499D01*
X0569153Y0353697D02*
X0568119Y0353697D01*
X0568615Y0354896D02*
X0568657Y0354896D01*
X0639594Y0366881D02*
X0642685Y0366881D01*
X0641622Y0365682D02*
X0640657Y0365682D01*
X0647468Y0366881D02*
X0650559Y0366881D01*
X0649496Y0365682D02*
X0648531Y0365682D01*
X0655342Y0366881D02*
X0658433Y0366881D01*
X0657370Y0365682D02*
X0656405Y0365682D01*
X0663248Y0366881D02*
X0666307Y0366881D01*
X0665244Y0365682D02*
X0664279Y0365682D01*
X0671090Y0366881D02*
X0674181Y0366881D01*
X0673118Y0365682D02*
X0672153Y0365682D01*
X0659838Y0374072D02*
X0740888Y0374072D01*
X0740888Y0375270D02*
X0659866Y0375270D01*
X0694416Y0213471D02*
X0606056Y0213471D01*
X0607473Y0212273D02*
X0693910Y0212273D01*
X0693937Y0211074D02*
X0607866Y0211074D01*
X0607757Y0209876D02*
X0694532Y0209876D01*
X0702272Y0205082D02*
X0706224Y0205082D01*
X0707258Y0206280D02*
X0703510Y0206280D01*
X0740888Y0178714D02*
X0554117Y0178714D01*
X0554786Y0177516D02*
X0740888Y0177516D01*
X0740888Y0176317D02*
X0556427Y0176317D01*
X0557537Y0175119D02*
X0740888Y0175119D01*
X0740888Y0173920D02*
X0669911Y0173920D01*
X0670701Y0172722D02*
X0740888Y0172722D01*
X0740888Y0171523D02*
X0670866Y0171523D01*
X0666396Y0169126D02*
X0638379Y0169126D01*
X0639528Y0170325D02*
X0665247Y0170325D01*
X0664910Y0171523D02*
X0639866Y0171523D01*
X0639701Y0172722D02*
X0665075Y0172722D01*
X0665865Y0173920D02*
X0638911Y0173920D01*
X0634865Y0173920D02*
X0557866Y0173920D01*
X0557693Y0172722D02*
X0634075Y0172722D01*
X0633910Y0171523D02*
X0556891Y0171523D01*
X0559448Y0164332D02*
X0576076Y0164332D01*
X0579700Y0164332D02*
X0673910Y0164332D01*
X0674326Y0163134D02*
X0559866Y0163134D01*
X0559781Y0161935D02*
X0675857Y0161935D01*
X0677918Y0161935D02*
X0677994Y0161935D01*
X0678671Y0160737D02*
X0559104Y0160737D01*
X0541639Y0166729D02*
X0076888Y0166729D01*
X0076888Y0165531D02*
X0502475Y0165531D01*
X0501913Y0164332D02*
X0076888Y0164332D01*
X0076888Y0182310D02*
X0082098Y0182310D01*
X0081171Y0183508D02*
X0076888Y0183508D01*
X0076888Y0184707D02*
X0080910Y0184707D01*
X0081151Y0185905D02*
X0076888Y0185905D01*
X0076888Y0187104D02*
X0082049Y0187104D01*
X0443072Y0142759D02*
X0610067Y0142759D01*
X0610848Y0141561D02*
X0443768Y0141561D01*
X0474921Y0147553D02*
X0527851Y0147553D01*
X0529925Y0147553D02*
X0591153Y0147553D01*
X0590910Y0148752D02*
X0531929Y0148752D01*
X0532758Y0149950D02*
X0570458Y0149950D01*
X0569910Y0151149D02*
X0533145Y0151149D01*
X0533145Y0152347D02*
X0569919Y0152347D01*
X0570490Y0153546D02*
X0532745Y0153546D01*
X0525847Y0148752D02*
X0475705Y0148752D01*
X0475866Y0149950D02*
X0525017Y0149950D01*
X0524630Y0151149D02*
X0475524Y0151149D01*
X0503057Y0130774D02*
X0681910Y0130774D01*
X0682143Y0129575D02*
X0633256Y0129575D01*
X0633412Y0129419D02*
X0632575Y0130256D01*
X0631480Y0130710D01*
X0630295Y0130710D01*
X0629201Y0130256D01*
X0628363Y0129419D01*
X0627910Y0128324D01*
X0627910Y0127139D01*
X0628363Y0126045D01*
X0629201Y0125207D01*
X0630295Y0124754D01*
X0631480Y0124754D01*
X0632575Y0125207D01*
X0633412Y0126045D01*
X0633866Y0127139D01*
X0633866Y0128324D01*
X0633412Y0129419D01*
X0633844Y0128377D02*
X0651492Y0128377D01*
X0650264Y0127178D02*
X0633866Y0127178D01*
X0633347Y0125980D02*
X0649910Y0125980D01*
X0650058Y0124781D02*
X0631547Y0124781D01*
X0630229Y0124781D02*
X0538120Y0124781D01*
X0536878Y0125980D02*
X0628428Y0125980D01*
X0627910Y0127178D02*
X0503468Y0127178D01*
X0503866Y0128377D02*
X0627932Y0128377D01*
X0628520Y0129575D02*
X0503762Y0129575D01*
X0488855Y0127178D02*
X0472921Y0127178D01*
X0474243Y0125980D02*
X0487533Y0125980D01*
X0487034Y0124781D02*
X0474742Y0124781D01*
X0474850Y0123583D02*
X0486926Y0123583D01*
X0487157Y0122384D02*
X0474618Y0122384D01*
X0473945Y0121186D02*
X0487830Y0121186D01*
X0496596Y0116392D02*
X0455838Y0116392D01*
X0455866Y0115193D02*
X0495991Y0115193D01*
X0495957Y0113995D02*
X0455362Y0113995D01*
X0453583Y0112796D02*
X0496446Y0112796D01*
X0576420Y0113995D02*
X0658939Y0113995D01*
X0658105Y0112796D02*
X0576456Y0112796D01*
X0639171Y0106804D02*
X0641604Y0106804D01*
X0640967Y0108002D02*
X0639809Y0108002D01*
X0639866Y0109201D02*
X0640910Y0109201D01*
X0641355Y0110399D02*
X0639420Y0110399D01*
X0652866Y0121186D02*
X0693910Y0121186D01*
X0693935Y0122384D02*
X0652841Y0122384D01*
X0654950Y0123583D02*
X0694527Y0123583D01*
X0694421Y0119987D02*
X0654844Y0119987D01*
X0655717Y0124781D02*
X0688229Y0124781D01*
X0689547Y0124781D02*
X0690627Y0124781D01*
X0686428Y0125980D02*
X0655866Y0125980D01*
X0655512Y0127178D02*
X0685910Y0127178D01*
X0683031Y0128377D02*
X0654284Y0128377D01*
X0665147Y0135568D02*
X0639866Y0135568D01*
X0639682Y0136766D02*
X0664910Y0136766D01*
X0665175Y0137965D02*
X0638866Y0137965D01*
X0639547Y0134369D02*
X0666039Y0134369D01*
X0653656Y0148752D02*
X0649119Y0148752D01*
X0649787Y0149950D02*
X0652988Y0149950D01*
X0652910Y0151149D02*
X0649866Y0151149D01*
X0649442Y0152347D02*
X0653334Y0152347D01*
X0670877Y0165531D02*
X0616898Y0165531D01*
X0617696Y0166729D02*
X0670080Y0166729D01*
X0612877Y0165531D02*
X0580614Y0165531D01*
X0580866Y0166729D02*
X0612080Y0166729D01*
X0611910Y0167928D02*
X0580616Y0167928D01*
X0579705Y0169126D02*
X0612242Y0169126D01*
X0592093Y0151149D02*
X0575866Y0151149D01*
X0575318Y0149950D02*
X0591169Y0149950D01*
X0529329Y0169126D02*
X0522379Y0169126D01*
X0523528Y0170325D02*
X0528910Y0170325D01*
X0528992Y0171523D02*
X0523866Y0171523D01*
X0523701Y0172722D02*
X0529666Y0172722D01*
X0495530Y0201486D02*
X0472769Y0201486D01*
X0471956Y0202685D02*
X0495033Y0202685D01*
X0525658Y0061260D02*
X0320888Y0061260D01*
X0320888Y0060062D02*
X0525319Y0060062D01*
X0525385Y0058863D02*
X0510653Y0058863D01*
X0511950Y0057665D02*
X0525908Y0057665D01*
X0527446Y0056466D02*
X0512446Y0056466D01*
X0507123Y0058863D02*
X0320888Y0058863D01*
X0320888Y0057665D02*
X0505826Y0057665D01*
X0505330Y0056466D02*
X0320888Y0056466D01*
M02*
