G75*
%MOIN*%
%OFA0B0*%
%FSLAX25Y25*%
%IPPOS*%
%LPD*%
%AMOC8*
5,1,8,0,0,1.08239X$1,22.5*
%
%ADD10C,0.06299*%
%ADD11OC8,0.05194*%
%ADD12R,0.05118X0.05118*%
%ADD13C,0.05118*%
%ADD14C,0.05709*%
%ADD15C,0.24016*%
%ADD16R,0.06299X0.06299*%
%ADD17C,0.12992*%
%ADD18C,0.08071*%
%ADD19C,0.03937*%
D10*
X0052037Y0047472D03*
X0082037Y0047472D03*
X0082037Y0057472D03*
X0082037Y0067472D03*
X0082037Y0077472D03*
X0082037Y0087472D03*
X0082037Y0097472D03*
X0082037Y0107472D03*
X0082037Y0117472D03*
X0052037Y0117472D03*
X0052037Y0087472D03*
X0052037Y0077472D03*
X0295888Y0287732D03*
X0305888Y0287732D03*
X0305888Y0297732D03*
X0295888Y0297732D03*
X0295888Y0307732D03*
X0305888Y0307732D03*
X0305888Y0317732D03*
X0295888Y0317732D03*
X0305888Y0327732D03*
X0831565Y0323692D03*
X0831565Y0313692D03*
X0861565Y0313692D03*
X0861565Y0303692D03*
X0861565Y0293692D03*
X0861565Y0283692D03*
X0831565Y0283692D03*
X0861565Y0323692D03*
X0861565Y0333692D03*
X0861565Y0343692D03*
X0861565Y0353692D03*
X0831565Y0353692D03*
D11*
X0884888Y0319732D03*
X0894888Y0319732D03*
X0104951Y0084732D03*
X0104951Y0074732D03*
X0666888Y0047732D03*
X0686888Y0047732D03*
X0846888Y0067732D03*
X0866888Y0067732D03*
D12*
X0928888Y0038810D03*
X0534746Y0112732D03*
X0510888Y0038810D03*
X0256888Y0040653D03*
D13*
X0256888Y0030810D03*
X0510888Y0048653D03*
X0624951Y0043669D03*
X0632825Y0043669D03*
X0632825Y0035795D03*
X0624951Y0035795D03*
X0722037Y0035228D03*
X0732037Y0035228D03*
X0742037Y0035228D03*
X0762037Y0035228D03*
X0752037Y0045228D03*
X0779281Y0069598D03*
X0779281Y0079598D03*
X0779675Y0098220D03*
X0789518Y0098220D03*
X0759990Y0117905D03*
X0779675Y0137590D03*
X0789518Y0137590D03*
X0789518Y0157275D03*
X0779675Y0157275D03*
X0759990Y0176960D03*
X0779675Y0196645D03*
X0789518Y0196645D03*
X0789518Y0216330D03*
X0779675Y0216330D03*
X0759990Y0236015D03*
X0779675Y0255700D03*
X0789518Y0255700D03*
X0789518Y0275385D03*
X0779675Y0275385D03*
X0759990Y0295070D03*
X0779675Y0314755D03*
X0789518Y0314755D03*
X0789518Y0334440D03*
X0779675Y0334440D03*
X0759990Y0354125D03*
X0779675Y0373810D03*
X0789518Y0373810D03*
X0676573Y0363669D03*
X0668699Y0363669D03*
X0660825Y0363669D03*
X0652951Y0363669D03*
X0645077Y0363669D03*
X0637203Y0363669D03*
X0637203Y0355795D03*
X0645077Y0355795D03*
X0652951Y0355795D03*
X0660825Y0355795D03*
X0668699Y0355795D03*
X0676573Y0355795D03*
X0572573Y0355795D03*
X0564699Y0355795D03*
X0556825Y0355795D03*
X0548951Y0355795D03*
X0541077Y0355795D03*
X0533203Y0355795D03*
X0533203Y0363669D03*
X0541077Y0363669D03*
X0548951Y0363669D03*
X0556825Y0363669D03*
X0564699Y0363669D03*
X0572573Y0363669D03*
X0468573Y0363669D03*
X0460699Y0363669D03*
X0452825Y0363669D03*
X0444951Y0363669D03*
X0437077Y0363669D03*
X0429203Y0363669D03*
X0429203Y0355795D03*
X0437077Y0355795D03*
X0444951Y0355795D03*
X0452825Y0355795D03*
X0460699Y0355795D03*
X0468573Y0355795D03*
X0364573Y0355795D03*
X0356699Y0355795D03*
X0348825Y0355795D03*
X0340951Y0355795D03*
X0333077Y0355795D03*
X0325203Y0355795D03*
X0325203Y0363669D03*
X0333077Y0363669D03*
X0340951Y0363669D03*
X0348825Y0363669D03*
X0356699Y0363669D03*
X0364573Y0363669D03*
X0176573Y0363669D03*
X0168699Y0363669D03*
X0160825Y0363669D03*
X0152951Y0363669D03*
X0145077Y0363669D03*
X0137203Y0363669D03*
X0137203Y0355795D03*
X0145077Y0355795D03*
X0152951Y0355795D03*
X0160825Y0355795D03*
X0168699Y0355795D03*
X0176573Y0355795D03*
X0115266Y0361999D03*
X0105266Y0361999D03*
X0095266Y0361999D03*
X0085266Y0351999D03*
X0075266Y0361999D03*
X0075266Y0302944D03*
X0085266Y0292944D03*
X0095266Y0302944D03*
X0105266Y0302944D03*
X0115266Y0302944D03*
X0115266Y0263574D03*
X0105266Y0263574D03*
X0095266Y0263574D03*
X0075266Y0263574D03*
X0085266Y0253574D03*
X0095266Y0224204D03*
X0105266Y0224204D03*
X0115266Y0224204D03*
X0085266Y0214204D03*
X0075266Y0224204D03*
X0470888Y0123732D03*
X0490888Y0123732D03*
X0480888Y0133732D03*
X0534746Y0122574D03*
X0508888Y0193732D03*
X0518888Y0203732D03*
X0498888Y0203732D03*
X0988951Y0239858D03*
X0996825Y0239858D03*
X0996825Y0247732D03*
X0988951Y0247732D03*
X0988951Y0255606D03*
X0996825Y0255606D03*
X1243848Y0294007D03*
X1243848Y0304007D03*
X1226447Y0354125D03*
X1206447Y0354125D03*
X1196447Y0354125D03*
X1186447Y0354125D03*
X1216447Y0364125D03*
X0928888Y0048653D03*
D14*
X0938888Y0083732D03*
X0968888Y0083732D03*
X0978888Y0083732D03*
X0988888Y0083732D03*
X0998888Y0083732D03*
X1008888Y0083732D03*
X1018888Y0083732D03*
X1028888Y0083732D03*
X1038888Y0083732D03*
X1048888Y0083732D03*
X1058888Y0083732D03*
X1068888Y0083732D03*
X1078888Y0083732D03*
X1088888Y0083732D03*
X1098888Y0083732D03*
X1108888Y0083732D03*
X1118888Y0083732D03*
X1128888Y0083732D03*
X1138888Y0083732D03*
X1148888Y0083732D03*
X1158888Y0083732D03*
X1168888Y0083732D03*
X1178888Y0083732D03*
X1188888Y0083732D03*
X1198888Y0083732D03*
X1208888Y0083732D03*
X1218888Y0083732D03*
X1228888Y0083732D03*
X1238888Y0083732D03*
X1238888Y0093732D03*
X1228888Y0093732D03*
X1218888Y0093732D03*
X1208888Y0093732D03*
X1198888Y0093732D03*
X1188888Y0093732D03*
X1178888Y0093732D03*
X1168888Y0093732D03*
X1158888Y0093732D03*
X1148888Y0093732D03*
X1138888Y0093732D03*
X1128888Y0093732D03*
X1118888Y0093732D03*
X1108888Y0093732D03*
X1098888Y0093732D03*
X1088888Y0093732D03*
X1078888Y0093732D03*
X1068888Y0093732D03*
X1058888Y0093732D03*
X1048888Y0093732D03*
X1038888Y0093732D03*
X1028888Y0093732D03*
X1018888Y0093732D03*
X1008888Y0093732D03*
X0998888Y0093732D03*
X0988888Y0093732D03*
X0978888Y0093732D03*
X0968888Y0093732D03*
X0938888Y0093732D03*
X0938888Y0103732D03*
X0968888Y0103732D03*
X0978888Y0103732D03*
X0988888Y0103732D03*
X0998888Y0103732D03*
X1008888Y0103732D03*
X1018888Y0103732D03*
X1028888Y0103732D03*
X1038888Y0103732D03*
X1048888Y0103732D03*
X1058888Y0103732D03*
X1068888Y0103732D03*
X1078888Y0103732D03*
X1088888Y0103732D03*
X1098888Y0103732D03*
X1108888Y0103732D03*
X1118888Y0103732D03*
X1128888Y0103732D03*
X1138888Y0103732D03*
X1148888Y0103732D03*
X1158888Y0103732D03*
X1168888Y0103732D03*
X1178888Y0103732D03*
X1188888Y0103732D03*
X1198888Y0103732D03*
X1208888Y0103732D03*
X1218888Y0103732D03*
X1228888Y0103732D03*
X1238888Y0103732D03*
X1238888Y0113732D03*
X1228888Y0113732D03*
X1218888Y0113732D03*
X1208888Y0113732D03*
X1198888Y0113732D03*
X1188888Y0113732D03*
X1178888Y0113732D03*
X1168888Y0113732D03*
X1158888Y0113732D03*
X1148888Y0113732D03*
X1138888Y0113732D03*
X1128888Y0113732D03*
X1118888Y0113732D03*
X1108888Y0113732D03*
X1098888Y0113732D03*
X1088888Y0113732D03*
X1078888Y0113732D03*
X1068888Y0113732D03*
X1058888Y0113732D03*
X1048888Y0113732D03*
X1038888Y0113732D03*
X1028888Y0113732D03*
X1018888Y0113732D03*
X1008888Y0113732D03*
X0998888Y0113732D03*
X0988888Y0113732D03*
X0978888Y0113732D03*
X0968888Y0113732D03*
X0968888Y0123732D03*
X0978888Y0123732D03*
X0988888Y0123732D03*
X0998888Y0123732D03*
X1008888Y0123732D03*
X1018888Y0123732D03*
X1028888Y0123732D03*
X1038888Y0123732D03*
X1048888Y0123732D03*
X1058888Y0123732D03*
X1068888Y0123732D03*
X1078888Y0123732D03*
X1088888Y0123732D03*
X1098888Y0123732D03*
X1108888Y0123732D03*
X1118888Y0123732D03*
X1128888Y0123732D03*
X1138888Y0123732D03*
X1148888Y0123732D03*
X1158888Y0123732D03*
X1168888Y0123732D03*
X1178888Y0123732D03*
X1188888Y0123732D03*
X1198888Y0123732D03*
X1208888Y0123732D03*
X1218888Y0123732D03*
X1228888Y0123732D03*
X1238888Y0123732D03*
X1238888Y0133732D03*
X1228888Y0133732D03*
X1218888Y0133732D03*
X1208888Y0133732D03*
X1198888Y0133732D03*
X1188888Y0133732D03*
X1178888Y0133732D03*
X1168888Y0133732D03*
X1158888Y0133732D03*
X1148888Y0133732D03*
X1138888Y0133732D03*
X1128888Y0133732D03*
X1118888Y0133732D03*
X1108888Y0133732D03*
X1098888Y0133732D03*
X1088888Y0133732D03*
X1078888Y0133732D03*
X1068888Y0133732D03*
X1058888Y0133732D03*
X1048888Y0133732D03*
X1038888Y0133732D03*
X1028888Y0133732D03*
X1018888Y0133732D03*
X1008888Y0133732D03*
X0998888Y0133732D03*
X0988888Y0133732D03*
X0978888Y0133732D03*
X0968888Y0133732D03*
X0968888Y0143732D03*
X0978888Y0143732D03*
X0988888Y0143732D03*
X0998888Y0143732D03*
X1008888Y0143732D03*
X1018888Y0143732D03*
X1028888Y0143732D03*
X1038888Y0143732D03*
X1048888Y0143732D03*
X1058888Y0143732D03*
X1068888Y0143732D03*
X1078888Y0143732D03*
X1088888Y0143732D03*
X1098888Y0143732D03*
X1108888Y0143732D03*
X1118888Y0143732D03*
X1128888Y0143732D03*
X1138888Y0143732D03*
X1148888Y0143732D03*
X1158888Y0143732D03*
X1168888Y0143732D03*
X1178888Y0143732D03*
X1188888Y0143732D03*
X1198888Y0143732D03*
X1208888Y0143732D03*
X1218888Y0143732D03*
X1228888Y0143732D03*
X1238888Y0143732D03*
X1238888Y0153732D03*
X1228888Y0153732D03*
X1218888Y0153732D03*
X1208888Y0153732D03*
X1198888Y0153732D03*
X1188888Y0153732D03*
X1178888Y0153732D03*
X1168888Y0153732D03*
X1158888Y0153732D03*
X1148888Y0153732D03*
X1138888Y0153732D03*
X1128888Y0153732D03*
X1118888Y0153732D03*
X1108888Y0153732D03*
X1098888Y0153732D03*
X1088888Y0153732D03*
X1078888Y0153732D03*
X1068888Y0153732D03*
X1058888Y0153732D03*
X1048888Y0153732D03*
X1038888Y0153732D03*
X1028888Y0153732D03*
X1018888Y0153732D03*
X1008888Y0153732D03*
X0998888Y0153732D03*
X0988888Y0153732D03*
X0978888Y0153732D03*
X0968888Y0153732D03*
X0968888Y0163732D03*
X0978888Y0163732D03*
X0988888Y0163732D03*
X0998888Y0163732D03*
X1008888Y0163732D03*
X1018888Y0163732D03*
X1028888Y0163732D03*
X1038888Y0163732D03*
X1048888Y0163732D03*
X1058888Y0163732D03*
X1068888Y0163732D03*
X1078888Y0163732D03*
X1088888Y0163732D03*
X1098888Y0163732D03*
X1108888Y0163732D03*
X1118888Y0163732D03*
X1128888Y0163732D03*
X1138888Y0163732D03*
X1148888Y0163732D03*
X1158888Y0163732D03*
X1168888Y0163732D03*
X1178888Y0163732D03*
X1188888Y0163732D03*
X1198888Y0163732D03*
X1208888Y0163732D03*
X1218888Y0163732D03*
X1228888Y0163732D03*
X1238888Y0163732D03*
X1238888Y0173732D03*
X1228888Y0173732D03*
X1218888Y0173732D03*
X1208888Y0173732D03*
X1198888Y0173732D03*
X1188888Y0173732D03*
X1178888Y0173732D03*
X1168888Y0173732D03*
X1158888Y0173732D03*
X1148888Y0173732D03*
X1138888Y0173732D03*
X1128888Y0173732D03*
X1118888Y0173732D03*
X1108888Y0173732D03*
X1098888Y0173732D03*
X1088888Y0173732D03*
X1078888Y0173732D03*
X1068888Y0173732D03*
X1058888Y0173732D03*
X1048888Y0173732D03*
X1038888Y0173732D03*
X1028888Y0173732D03*
X1018888Y0173732D03*
X1008888Y0173732D03*
X0998888Y0173732D03*
X0988888Y0173732D03*
X0978888Y0173732D03*
X0968888Y0173732D03*
X0968888Y0183732D03*
X0978888Y0183732D03*
X0988888Y0183732D03*
X0998888Y0183732D03*
X1008888Y0183732D03*
X1018888Y0183732D03*
X1028888Y0183732D03*
X1038888Y0183732D03*
X1048888Y0183732D03*
X1058888Y0183732D03*
X1068888Y0183732D03*
X1078888Y0183732D03*
X1088888Y0183732D03*
X1098888Y0183732D03*
X1108888Y0183732D03*
X1118888Y0183732D03*
X1128888Y0183732D03*
X1138888Y0183732D03*
X1148888Y0183732D03*
X1158888Y0183732D03*
X1168888Y0183732D03*
X1178888Y0183732D03*
X1188888Y0183732D03*
X1198888Y0183732D03*
X1208888Y0183732D03*
X1218888Y0183732D03*
X1228888Y0183732D03*
X1238888Y0183732D03*
X1238888Y0193732D03*
X1228888Y0193732D03*
X1218888Y0193732D03*
X1208888Y0193732D03*
X1198888Y0193732D03*
X1188888Y0193732D03*
X1178888Y0193732D03*
X1168888Y0193732D03*
X1158888Y0193732D03*
X1148888Y0193732D03*
X1138888Y0193732D03*
X1128888Y0193732D03*
X1118888Y0193732D03*
X1108888Y0193732D03*
X1098888Y0193732D03*
X1088888Y0193732D03*
X1078888Y0193732D03*
X1068888Y0193732D03*
X1058888Y0193732D03*
X1048888Y0193732D03*
X1038888Y0193732D03*
X1028888Y0193732D03*
X1018888Y0193732D03*
X1008888Y0193732D03*
X0998888Y0193732D03*
X0988888Y0193732D03*
X0978888Y0193732D03*
X0968888Y0193732D03*
X0938888Y0193732D03*
X0938888Y0183732D03*
X0938888Y0203732D03*
X0968888Y0203732D03*
X0978888Y0203732D03*
X0988888Y0203732D03*
X0998888Y0203732D03*
X1008888Y0203732D03*
X1018888Y0203732D03*
X1028888Y0203732D03*
X1038888Y0203732D03*
X1048888Y0203732D03*
X1058888Y0203732D03*
X1068888Y0203732D03*
X1078888Y0203732D03*
X1088888Y0203732D03*
X1098888Y0203732D03*
X1108888Y0203732D03*
X1118888Y0203732D03*
X1128888Y0203732D03*
X1138888Y0203732D03*
X1148888Y0203732D03*
X1158888Y0203732D03*
X1168888Y0203732D03*
X1178888Y0203732D03*
X1188888Y0203732D03*
X1198888Y0203732D03*
X1208888Y0203732D03*
X1218888Y0203732D03*
X1228888Y0203732D03*
X1238888Y0203732D03*
X1120888Y0239732D03*
X0920888Y0303732D03*
X0468888Y0199732D03*
X0528888Y0151732D03*
X0580888Y0135732D03*
X0616888Y0147732D03*
X0616888Y0119732D03*
X0512888Y0087732D03*
X0456888Y0083732D03*
X0584888Y0047732D03*
X0576888Y0035732D03*
X0328888Y0039732D03*
X0328888Y0047732D03*
X0292888Y0048732D03*
X0220888Y0034732D03*
X0168888Y0035732D03*
X0172888Y0131732D03*
X0420888Y0135732D03*
D15*
X0046604Y0161212D03*
X0826132Y0239952D03*
D16*
X0295888Y0327732D03*
D17*
X0344888Y0257370D03*
X0448888Y0257370D03*
X0552888Y0257370D03*
X0656888Y0257370D03*
X0156888Y0257370D03*
D18*
X0759990Y0255700D03*
X0759990Y0245858D03*
X0779675Y0236015D03*
X0759990Y0226173D03*
X0759990Y0216330D03*
X0759990Y0196645D03*
X0759990Y0186803D03*
X0779675Y0176960D03*
X0759990Y0167118D03*
X0759990Y0157275D03*
X0759990Y0137590D03*
X0759990Y0127747D03*
X0779675Y0117905D03*
X0759990Y0108062D03*
X0759990Y0098220D03*
X0759990Y0275385D03*
X0759990Y0285228D03*
X0779675Y0295070D03*
X0759990Y0304913D03*
X0759990Y0314755D03*
X0759990Y0334440D03*
X0759990Y0344283D03*
X0779675Y0354125D03*
X0759990Y0363968D03*
X0759990Y0373810D03*
D19*
X0676888Y0339732D03*
X0668888Y0339732D03*
X0660888Y0339732D03*
X0652888Y0339732D03*
X0572888Y0335732D03*
X0564888Y0335732D03*
X0556888Y0335732D03*
X0548888Y0335732D03*
X0468888Y0335732D03*
X0460888Y0335732D03*
X0452888Y0335732D03*
X0444888Y0335732D03*
X0376888Y0335732D03*
X0368888Y0335732D03*
X0360888Y0335732D03*
X0352888Y0335732D03*
X0352888Y0303732D03*
X0360888Y0303732D03*
X0368888Y0303732D03*
X0376888Y0303732D03*
X0448888Y0287732D03*
X0456888Y0287732D03*
X0464888Y0287732D03*
X0472888Y0287732D03*
X0548888Y0287732D03*
X0556888Y0287732D03*
X0564888Y0287732D03*
X0572888Y0287732D03*
X0612888Y0283732D03*
X0612888Y0275732D03*
X0612888Y0267732D03*
X0612888Y0259732D03*
X0612888Y0251732D03*
X0888888Y0347732D03*
X0940888Y0315732D03*
X1012888Y0351732D03*
X1067888Y0300732D03*
X1141888Y0300732D03*
X1169888Y0297732D03*
X1181888Y0256732D03*
X0572888Y0113196D03*
X0536888Y0059732D03*
X0528888Y0059732D03*
X0508888Y0055732D03*
X0520888Y0051732D03*
X0540888Y0039732D03*
X0544888Y0035732D03*
X0540888Y0031732D03*
X0544888Y0027732D03*
X0536888Y0023732D03*
X0532888Y0027732D03*
X0528888Y0023732D03*
X0524888Y0027732D03*
X0520888Y0023732D03*
X0516888Y0027732D03*
X0512888Y0023732D03*
X0508888Y0027732D03*
X0504888Y0023732D03*
X0500888Y0027732D03*
X0491888Y0058732D03*
X0485888Y0058732D03*
X0479888Y0058732D03*
X0284888Y0123732D03*
X0244888Y0171732D03*
X0236888Y0171732D03*
X0228888Y0171732D03*
X0220888Y0171732D03*
X0212888Y0171732D03*
X0224888Y0179732D03*
X0232888Y0179732D03*
X0224888Y0191732D03*
X0252888Y0191732D03*
X0277888Y0209732D03*
X0284888Y0209732D03*
X0308888Y0234732D03*
X0264888Y0247732D03*
X0228888Y0231732D03*
X0192888Y0235732D03*
X0192888Y0251732D03*
X0224888Y0295732D03*
X0248888Y0295732D03*
X0200888Y0331732D03*
X0192888Y0331732D03*
X0184888Y0331732D03*
X0176888Y0331732D03*
X0168888Y0331732D03*
X0160888Y0331732D03*
X0160888Y0347732D03*
X0168888Y0347732D03*
X0176888Y0347732D03*
X0184888Y0347732D03*
X0192888Y0347732D03*
X0200888Y0347732D03*
X0142888Y0072732D03*
X0207888Y0063732D03*
X0174888Y0043732D03*
X0908888Y0031732D03*
X0912888Y0027732D03*
X0916888Y0031732D03*
X0920888Y0027732D03*
X0924888Y0031732D03*
X0928888Y0027732D03*
X0932888Y0031732D03*
X0936888Y0035732D03*
X0940888Y0031732D03*
X0944888Y0035732D03*
X0944888Y0027732D03*
X0936888Y0027732D03*
M02*
