G75*
%MOIN*%
%OFA0B0*%
%FSLAX25Y25*%
%IPPOS*%
%LPD*%
%AMOC8*
5,1,8,0,0,1.08239X$1,22.5*
%
%ADD10C,0.00000*%
%ADD11C,0.00787*%
%ADD12C,0.00600*%
D10*
X0028888Y0003732D02*
X0028888Y0397433D01*
X0796604Y0397433D01*
X0796604Y0363968D01*
X0792667Y0363968D01*
X0792667Y0344283D01*
X0796604Y0344283D01*
X0796604Y0304913D01*
X0792667Y0304913D01*
X0792667Y0285228D01*
X0796604Y0285228D01*
X0796604Y0245858D01*
X0792667Y0245858D01*
X0792667Y0226173D01*
X0796604Y0226173D01*
X0796604Y0186803D01*
X0792667Y0186803D01*
X0792667Y0167118D01*
X0796604Y0167118D01*
X0796604Y0127747D01*
X0792667Y0127747D01*
X0792667Y0108062D01*
X0796604Y0108062D01*
X0796604Y0003732D01*
X0028888Y0003732D01*
X0757628Y0117905D02*
X0757630Y0118002D01*
X0757636Y0118099D01*
X0757646Y0118195D01*
X0757660Y0118291D01*
X0757678Y0118387D01*
X0757699Y0118481D01*
X0757725Y0118575D01*
X0757754Y0118667D01*
X0757788Y0118758D01*
X0757824Y0118848D01*
X0757865Y0118936D01*
X0757909Y0119022D01*
X0757957Y0119107D01*
X0758008Y0119189D01*
X0758062Y0119270D01*
X0758120Y0119348D01*
X0758181Y0119423D01*
X0758244Y0119496D01*
X0758311Y0119567D01*
X0758381Y0119634D01*
X0758453Y0119699D01*
X0758528Y0119760D01*
X0758606Y0119819D01*
X0758685Y0119874D01*
X0758767Y0119926D01*
X0758851Y0119974D01*
X0758937Y0120019D01*
X0759025Y0120061D01*
X0759114Y0120099D01*
X0759205Y0120133D01*
X0759297Y0120163D01*
X0759390Y0120190D01*
X0759485Y0120212D01*
X0759580Y0120231D01*
X0759676Y0120246D01*
X0759772Y0120257D01*
X0759869Y0120264D01*
X0759966Y0120267D01*
X0760063Y0120266D01*
X0760160Y0120261D01*
X0760256Y0120252D01*
X0760352Y0120239D01*
X0760448Y0120222D01*
X0760543Y0120201D01*
X0760636Y0120177D01*
X0760729Y0120148D01*
X0760821Y0120116D01*
X0760911Y0120080D01*
X0760999Y0120041D01*
X0761086Y0119997D01*
X0761171Y0119951D01*
X0761254Y0119900D01*
X0761335Y0119847D01*
X0761413Y0119790D01*
X0761490Y0119730D01*
X0761563Y0119667D01*
X0761634Y0119601D01*
X0761702Y0119532D01*
X0761768Y0119460D01*
X0761830Y0119386D01*
X0761889Y0119309D01*
X0761945Y0119230D01*
X0761998Y0119148D01*
X0762048Y0119065D01*
X0762093Y0118979D01*
X0762136Y0118892D01*
X0762175Y0118803D01*
X0762210Y0118713D01*
X0762241Y0118621D01*
X0762268Y0118528D01*
X0762292Y0118434D01*
X0762312Y0118339D01*
X0762328Y0118243D01*
X0762340Y0118147D01*
X0762348Y0118050D01*
X0762352Y0117953D01*
X0762352Y0117857D01*
X0762348Y0117760D01*
X0762340Y0117663D01*
X0762328Y0117567D01*
X0762312Y0117471D01*
X0762292Y0117376D01*
X0762268Y0117282D01*
X0762241Y0117189D01*
X0762210Y0117097D01*
X0762175Y0117007D01*
X0762136Y0116918D01*
X0762093Y0116831D01*
X0762048Y0116745D01*
X0761998Y0116662D01*
X0761945Y0116580D01*
X0761889Y0116501D01*
X0761830Y0116424D01*
X0761768Y0116350D01*
X0761702Y0116278D01*
X0761634Y0116209D01*
X0761563Y0116143D01*
X0761490Y0116080D01*
X0761413Y0116020D01*
X0761335Y0115963D01*
X0761254Y0115910D01*
X0761171Y0115859D01*
X0761086Y0115813D01*
X0760999Y0115769D01*
X0760911Y0115730D01*
X0760821Y0115694D01*
X0760729Y0115662D01*
X0760636Y0115633D01*
X0760543Y0115609D01*
X0760448Y0115588D01*
X0760352Y0115571D01*
X0760256Y0115558D01*
X0760160Y0115549D01*
X0760063Y0115544D01*
X0759966Y0115543D01*
X0759869Y0115546D01*
X0759772Y0115553D01*
X0759676Y0115564D01*
X0759580Y0115579D01*
X0759485Y0115598D01*
X0759390Y0115620D01*
X0759297Y0115647D01*
X0759205Y0115677D01*
X0759114Y0115711D01*
X0759025Y0115749D01*
X0758937Y0115791D01*
X0758851Y0115836D01*
X0758767Y0115884D01*
X0758685Y0115936D01*
X0758606Y0115991D01*
X0758528Y0116050D01*
X0758453Y0116111D01*
X0758381Y0116176D01*
X0758311Y0116243D01*
X0758244Y0116314D01*
X0758181Y0116387D01*
X0758120Y0116462D01*
X0758062Y0116540D01*
X0758008Y0116621D01*
X0757957Y0116703D01*
X0757909Y0116788D01*
X0757865Y0116874D01*
X0757824Y0116962D01*
X0757788Y0117052D01*
X0757754Y0117143D01*
X0757725Y0117235D01*
X0757699Y0117329D01*
X0757678Y0117423D01*
X0757660Y0117519D01*
X0757646Y0117615D01*
X0757636Y0117711D01*
X0757630Y0117808D01*
X0757628Y0117905D01*
X0777313Y0137590D02*
X0777315Y0137687D01*
X0777321Y0137784D01*
X0777331Y0137880D01*
X0777345Y0137976D01*
X0777363Y0138072D01*
X0777384Y0138166D01*
X0777410Y0138260D01*
X0777439Y0138352D01*
X0777473Y0138443D01*
X0777509Y0138533D01*
X0777550Y0138621D01*
X0777594Y0138707D01*
X0777642Y0138792D01*
X0777693Y0138874D01*
X0777747Y0138955D01*
X0777805Y0139033D01*
X0777866Y0139108D01*
X0777929Y0139181D01*
X0777996Y0139252D01*
X0778066Y0139319D01*
X0778138Y0139384D01*
X0778213Y0139445D01*
X0778291Y0139504D01*
X0778370Y0139559D01*
X0778452Y0139611D01*
X0778536Y0139659D01*
X0778622Y0139704D01*
X0778710Y0139746D01*
X0778799Y0139784D01*
X0778890Y0139818D01*
X0778982Y0139848D01*
X0779075Y0139875D01*
X0779170Y0139897D01*
X0779265Y0139916D01*
X0779361Y0139931D01*
X0779457Y0139942D01*
X0779554Y0139949D01*
X0779651Y0139952D01*
X0779748Y0139951D01*
X0779845Y0139946D01*
X0779941Y0139937D01*
X0780037Y0139924D01*
X0780133Y0139907D01*
X0780228Y0139886D01*
X0780321Y0139862D01*
X0780414Y0139833D01*
X0780506Y0139801D01*
X0780596Y0139765D01*
X0780684Y0139726D01*
X0780771Y0139682D01*
X0780856Y0139636D01*
X0780939Y0139585D01*
X0781020Y0139532D01*
X0781098Y0139475D01*
X0781175Y0139415D01*
X0781248Y0139352D01*
X0781319Y0139286D01*
X0781387Y0139217D01*
X0781453Y0139145D01*
X0781515Y0139071D01*
X0781574Y0138994D01*
X0781630Y0138915D01*
X0781683Y0138833D01*
X0781733Y0138750D01*
X0781778Y0138664D01*
X0781821Y0138577D01*
X0781860Y0138488D01*
X0781895Y0138398D01*
X0781926Y0138306D01*
X0781953Y0138213D01*
X0781977Y0138119D01*
X0781997Y0138024D01*
X0782013Y0137928D01*
X0782025Y0137832D01*
X0782033Y0137735D01*
X0782037Y0137638D01*
X0782037Y0137542D01*
X0782033Y0137445D01*
X0782025Y0137348D01*
X0782013Y0137252D01*
X0781997Y0137156D01*
X0781977Y0137061D01*
X0781953Y0136967D01*
X0781926Y0136874D01*
X0781895Y0136782D01*
X0781860Y0136692D01*
X0781821Y0136603D01*
X0781778Y0136516D01*
X0781733Y0136430D01*
X0781683Y0136347D01*
X0781630Y0136265D01*
X0781574Y0136186D01*
X0781515Y0136109D01*
X0781453Y0136035D01*
X0781387Y0135963D01*
X0781319Y0135894D01*
X0781248Y0135828D01*
X0781175Y0135765D01*
X0781098Y0135705D01*
X0781020Y0135648D01*
X0780939Y0135595D01*
X0780856Y0135544D01*
X0780771Y0135498D01*
X0780684Y0135454D01*
X0780596Y0135415D01*
X0780506Y0135379D01*
X0780414Y0135347D01*
X0780321Y0135318D01*
X0780228Y0135294D01*
X0780133Y0135273D01*
X0780037Y0135256D01*
X0779941Y0135243D01*
X0779845Y0135234D01*
X0779748Y0135229D01*
X0779651Y0135228D01*
X0779554Y0135231D01*
X0779457Y0135238D01*
X0779361Y0135249D01*
X0779265Y0135264D01*
X0779170Y0135283D01*
X0779075Y0135305D01*
X0778982Y0135332D01*
X0778890Y0135362D01*
X0778799Y0135396D01*
X0778710Y0135434D01*
X0778622Y0135476D01*
X0778536Y0135521D01*
X0778452Y0135569D01*
X0778370Y0135621D01*
X0778291Y0135676D01*
X0778213Y0135735D01*
X0778138Y0135796D01*
X0778066Y0135861D01*
X0777996Y0135928D01*
X0777929Y0135999D01*
X0777866Y0136072D01*
X0777805Y0136147D01*
X0777747Y0136225D01*
X0777693Y0136306D01*
X0777642Y0136388D01*
X0777594Y0136473D01*
X0777550Y0136559D01*
X0777509Y0136647D01*
X0777473Y0136737D01*
X0777439Y0136828D01*
X0777410Y0136920D01*
X0777384Y0137014D01*
X0777363Y0137108D01*
X0777345Y0137204D01*
X0777331Y0137300D01*
X0777321Y0137396D01*
X0777315Y0137493D01*
X0777313Y0137590D01*
X0787156Y0137590D02*
X0787158Y0137687D01*
X0787164Y0137784D01*
X0787174Y0137880D01*
X0787188Y0137976D01*
X0787206Y0138072D01*
X0787227Y0138166D01*
X0787253Y0138260D01*
X0787282Y0138352D01*
X0787316Y0138443D01*
X0787352Y0138533D01*
X0787393Y0138621D01*
X0787437Y0138707D01*
X0787485Y0138792D01*
X0787536Y0138874D01*
X0787590Y0138955D01*
X0787648Y0139033D01*
X0787709Y0139108D01*
X0787772Y0139181D01*
X0787839Y0139252D01*
X0787909Y0139319D01*
X0787981Y0139384D01*
X0788056Y0139445D01*
X0788134Y0139504D01*
X0788213Y0139559D01*
X0788295Y0139611D01*
X0788379Y0139659D01*
X0788465Y0139704D01*
X0788553Y0139746D01*
X0788642Y0139784D01*
X0788733Y0139818D01*
X0788825Y0139848D01*
X0788918Y0139875D01*
X0789013Y0139897D01*
X0789108Y0139916D01*
X0789204Y0139931D01*
X0789300Y0139942D01*
X0789397Y0139949D01*
X0789494Y0139952D01*
X0789591Y0139951D01*
X0789688Y0139946D01*
X0789784Y0139937D01*
X0789880Y0139924D01*
X0789976Y0139907D01*
X0790071Y0139886D01*
X0790164Y0139862D01*
X0790257Y0139833D01*
X0790349Y0139801D01*
X0790439Y0139765D01*
X0790527Y0139726D01*
X0790614Y0139682D01*
X0790699Y0139636D01*
X0790782Y0139585D01*
X0790863Y0139532D01*
X0790941Y0139475D01*
X0791018Y0139415D01*
X0791091Y0139352D01*
X0791162Y0139286D01*
X0791230Y0139217D01*
X0791296Y0139145D01*
X0791358Y0139071D01*
X0791417Y0138994D01*
X0791473Y0138915D01*
X0791526Y0138833D01*
X0791576Y0138750D01*
X0791621Y0138664D01*
X0791664Y0138577D01*
X0791703Y0138488D01*
X0791738Y0138398D01*
X0791769Y0138306D01*
X0791796Y0138213D01*
X0791820Y0138119D01*
X0791840Y0138024D01*
X0791856Y0137928D01*
X0791868Y0137832D01*
X0791876Y0137735D01*
X0791880Y0137638D01*
X0791880Y0137542D01*
X0791876Y0137445D01*
X0791868Y0137348D01*
X0791856Y0137252D01*
X0791840Y0137156D01*
X0791820Y0137061D01*
X0791796Y0136967D01*
X0791769Y0136874D01*
X0791738Y0136782D01*
X0791703Y0136692D01*
X0791664Y0136603D01*
X0791621Y0136516D01*
X0791576Y0136430D01*
X0791526Y0136347D01*
X0791473Y0136265D01*
X0791417Y0136186D01*
X0791358Y0136109D01*
X0791296Y0136035D01*
X0791230Y0135963D01*
X0791162Y0135894D01*
X0791091Y0135828D01*
X0791018Y0135765D01*
X0790941Y0135705D01*
X0790863Y0135648D01*
X0790782Y0135595D01*
X0790699Y0135544D01*
X0790614Y0135498D01*
X0790527Y0135454D01*
X0790439Y0135415D01*
X0790349Y0135379D01*
X0790257Y0135347D01*
X0790164Y0135318D01*
X0790071Y0135294D01*
X0789976Y0135273D01*
X0789880Y0135256D01*
X0789784Y0135243D01*
X0789688Y0135234D01*
X0789591Y0135229D01*
X0789494Y0135228D01*
X0789397Y0135231D01*
X0789300Y0135238D01*
X0789204Y0135249D01*
X0789108Y0135264D01*
X0789013Y0135283D01*
X0788918Y0135305D01*
X0788825Y0135332D01*
X0788733Y0135362D01*
X0788642Y0135396D01*
X0788553Y0135434D01*
X0788465Y0135476D01*
X0788379Y0135521D01*
X0788295Y0135569D01*
X0788213Y0135621D01*
X0788134Y0135676D01*
X0788056Y0135735D01*
X0787981Y0135796D01*
X0787909Y0135861D01*
X0787839Y0135928D01*
X0787772Y0135999D01*
X0787709Y0136072D01*
X0787648Y0136147D01*
X0787590Y0136225D01*
X0787536Y0136306D01*
X0787485Y0136388D01*
X0787437Y0136473D01*
X0787393Y0136559D01*
X0787352Y0136647D01*
X0787316Y0136737D01*
X0787282Y0136828D01*
X0787253Y0136920D01*
X0787227Y0137014D01*
X0787206Y0137108D01*
X0787188Y0137204D01*
X0787174Y0137300D01*
X0787164Y0137396D01*
X0787158Y0137493D01*
X0787156Y0137590D01*
X0787156Y0157275D02*
X0787158Y0157372D01*
X0787164Y0157469D01*
X0787174Y0157565D01*
X0787188Y0157661D01*
X0787206Y0157757D01*
X0787227Y0157851D01*
X0787253Y0157945D01*
X0787282Y0158037D01*
X0787316Y0158128D01*
X0787352Y0158218D01*
X0787393Y0158306D01*
X0787437Y0158392D01*
X0787485Y0158477D01*
X0787536Y0158559D01*
X0787590Y0158640D01*
X0787648Y0158718D01*
X0787709Y0158793D01*
X0787772Y0158866D01*
X0787839Y0158937D01*
X0787909Y0159004D01*
X0787981Y0159069D01*
X0788056Y0159130D01*
X0788134Y0159189D01*
X0788213Y0159244D01*
X0788295Y0159296D01*
X0788379Y0159344D01*
X0788465Y0159389D01*
X0788553Y0159431D01*
X0788642Y0159469D01*
X0788733Y0159503D01*
X0788825Y0159533D01*
X0788918Y0159560D01*
X0789013Y0159582D01*
X0789108Y0159601D01*
X0789204Y0159616D01*
X0789300Y0159627D01*
X0789397Y0159634D01*
X0789494Y0159637D01*
X0789591Y0159636D01*
X0789688Y0159631D01*
X0789784Y0159622D01*
X0789880Y0159609D01*
X0789976Y0159592D01*
X0790071Y0159571D01*
X0790164Y0159547D01*
X0790257Y0159518D01*
X0790349Y0159486D01*
X0790439Y0159450D01*
X0790527Y0159411D01*
X0790614Y0159367D01*
X0790699Y0159321D01*
X0790782Y0159270D01*
X0790863Y0159217D01*
X0790941Y0159160D01*
X0791018Y0159100D01*
X0791091Y0159037D01*
X0791162Y0158971D01*
X0791230Y0158902D01*
X0791296Y0158830D01*
X0791358Y0158756D01*
X0791417Y0158679D01*
X0791473Y0158600D01*
X0791526Y0158518D01*
X0791576Y0158435D01*
X0791621Y0158349D01*
X0791664Y0158262D01*
X0791703Y0158173D01*
X0791738Y0158083D01*
X0791769Y0157991D01*
X0791796Y0157898D01*
X0791820Y0157804D01*
X0791840Y0157709D01*
X0791856Y0157613D01*
X0791868Y0157517D01*
X0791876Y0157420D01*
X0791880Y0157323D01*
X0791880Y0157227D01*
X0791876Y0157130D01*
X0791868Y0157033D01*
X0791856Y0156937D01*
X0791840Y0156841D01*
X0791820Y0156746D01*
X0791796Y0156652D01*
X0791769Y0156559D01*
X0791738Y0156467D01*
X0791703Y0156377D01*
X0791664Y0156288D01*
X0791621Y0156201D01*
X0791576Y0156115D01*
X0791526Y0156032D01*
X0791473Y0155950D01*
X0791417Y0155871D01*
X0791358Y0155794D01*
X0791296Y0155720D01*
X0791230Y0155648D01*
X0791162Y0155579D01*
X0791091Y0155513D01*
X0791018Y0155450D01*
X0790941Y0155390D01*
X0790863Y0155333D01*
X0790782Y0155280D01*
X0790699Y0155229D01*
X0790614Y0155183D01*
X0790527Y0155139D01*
X0790439Y0155100D01*
X0790349Y0155064D01*
X0790257Y0155032D01*
X0790164Y0155003D01*
X0790071Y0154979D01*
X0789976Y0154958D01*
X0789880Y0154941D01*
X0789784Y0154928D01*
X0789688Y0154919D01*
X0789591Y0154914D01*
X0789494Y0154913D01*
X0789397Y0154916D01*
X0789300Y0154923D01*
X0789204Y0154934D01*
X0789108Y0154949D01*
X0789013Y0154968D01*
X0788918Y0154990D01*
X0788825Y0155017D01*
X0788733Y0155047D01*
X0788642Y0155081D01*
X0788553Y0155119D01*
X0788465Y0155161D01*
X0788379Y0155206D01*
X0788295Y0155254D01*
X0788213Y0155306D01*
X0788134Y0155361D01*
X0788056Y0155420D01*
X0787981Y0155481D01*
X0787909Y0155546D01*
X0787839Y0155613D01*
X0787772Y0155684D01*
X0787709Y0155757D01*
X0787648Y0155832D01*
X0787590Y0155910D01*
X0787536Y0155991D01*
X0787485Y0156073D01*
X0787437Y0156158D01*
X0787393Y0156244D01*
X0787352Y0156332D01*
X0787316Y0156422D01*
X0787282Y0156513D01*
X0787253Y0156605D01*
X0787227Y0156699D01*
X0787206Y0156793D01*
X0787188Y0156889D01*
X0787174Y0156985D01*
X0787164Y0157081D01*
X0787158Y0157178D01*
X0787156Y0157275D01*
X0777313Y0157275D02*
X0777315Y0157372D01*
X0777321Y0157469D01*
X0777331Y0157565D01*
X0777345Y0157661D01*
X0777363Y0157757D01*
X0777384Y0157851D01*
X0777410Y0157945D01*
X0777439Y0158037D01*
X0777473Y0158128D01*
X0777509Y0158218D01*
X0777550Y0158306D01*
X0777594Y0158392D01*
X0777642Y0158477D01*
X0777693Y0158559D01*
X0777747Y0158640D01*
X0777805Y0158718D01*
X0777866Y0158793D01*
X0777929Y0158866D01*
X0777996Y0158937D01*
X0778066Y0159004D01*
X0778138Y0159069D01*
X0778213Y0159130D01*
X0778291Y0159189D01*
X0778370Y0159244D01*
X0778452Y0159296D01*
X0778536Y0159344D01*
X0778622Y0159389D01*
X0778710Y0159431D01*
X0778799Y0159469D01*
X0778890Y0159503D01*
X0778982Y0159533D01*
X0779075Y0159560D01*
X0779170Y0159582D01*
X0779265Y0159601D01*
X0779361Y0159616D01*
X0779457Y0159627D01*
X0779554Y0159634D01*
X0779651Y0159637D01*
X0779748Y0159636D01*
X0779845Y0159631D01*
X0779941Y0159622D01*
X0780037Y0159609D01*
X0780133Y0159592D01*
X0780228Y0159571D01*
X0780321Y0159547D01*
X0780414Y0159518D01*
X0780506Y0159486D01*
X0780596Y0159450D01*
X0780684Y0159411D01*
X0780771Y0159367D01*
X0780856Y0159321D01*
X0780939Y0159270D01*
X0781020Y0159217D01*
X0781098Y0159160D01*
X0781175Y0159100D01*
X0781248Y0159037D01*
X0781319Y0158971D01*
X0781387Y0158902D01*
X0781453Y0158830D01*
X0781515Y0158756D01*
X0781574Y0158679D01*
X0781630Y0158600D01*
X0781683Y0158518D01*
X0781733Y0158435D01*
X0781778Y0158349D01*
X0781821Y0158262D01*
X0781860Y0158173D01*
X0781895Y0158083D01*
X0781926Y0157991D01*
X0781953Y0157898D01*
X0781977Y0157804D01*
X0781997Y0157709D01*
X0782013Y0157613D01*
X0782025Y0157517D01*
X0782033Y0157420D01*
X0782037Y0157323D01*
X0782037Y0157227D01*
X0782033Y0157130D01*
X0782025Y0157033D01*
X0782013Y0156937D01*
X0781997Y0156841D01*
X0781977Y0156746D01*
X0781953Y0156652D01*
X0781926Y0156559D01*
X0781895Y0156467D01*
X0781860Y0156377D01*
X0781821Y0156288D01*
X0781778Y0156201D01*
X0781733Y0156115D01*
X0781683Y0156032D01*
X0781630Y0155950D01*
X0781574Y0155871D01*
X0781515Y0155794D01*
X0781453Y0155720D01*
X0781387Y0155648D01*
X0781319Y0155579D01*
X0781248Y0155513D01*
X0781175Y0155450D01*
X0781098Y0155390D01*
X0781020Y0155333D01*
X0780939Y0155280D01*
X0780856Y0155229D01*
X0780771Y0155183D01*
X0780684Y0155139D01*
X0780596Y0155100D01*
X0780506Y0155064D01*
X0780414Y0155032D01*
X0780321Y0155003D01*
X0780228Y0154979D01*
X0780133Y0154958D01*
X0780037Y0154941D01*
X0779941Y0154928D01*
X0779845Y0154919D01*
X0779748Y0154914D01*
X0779651Y0154913D01*
X0779554Y0154916D01*
X0779457Y0154923D01*
X0779361Y0154934D01*
X0779265Y0154949D01*
X0779170Y0154968D01*
X0779075Y0154990D01*
X0778982Y0155017D01*
X0778890Y0155047D01*
X0778799Y0155081D01*
X0778710Y0155119D01*
X0778622Y0155161D01*
X0778536Y0155206D01*
X0778452Y0155254D01*
X0778370Y0155306D01*
X0778291Y0155361D01*
X0778213Y0155420D01*
X0778138Y0155481D01*
X0778066Y0155546D01*
X0777996Y0155613D01*
X0777929Y0155684D01*
X0777866Y0155757D01*
X0777805Y0155832D01*
X0777747Y0155910D01*
X0777693Y0155991D01*
X0777642Y0156073D01*
X0777594Y0156158D01*
X0777550Y0156244D01*
X0777509Y0156332D01*
X0777473Y0156422D01*
X0777439Y0156513D01*
X0777410Y0156605D01*
X0777384Y0156699D01*
X0777363Y0156793D01*
X0777345Y0156889D01*
X0777331Y0156985D01*
X0777321Y0157081D01*
X0777315Y0157178D01*
X0777313Y0157275D01*
X0757628Y0176960D02*
X0757630Y0177057D01*
X0757636Y0177154D01*
X0757646Y0177250D01*
X0757660Y0177346D01*
X0757678Y0177442D01*
X0757699Y0177536D01*
X0757725Y0177630D01*
X0757754Y0177722D01*
X0757788Y0177813D01*
X0757824Y0177903D01*
X0757865Y0177991D01*
X0757909Y0178077D01*
X0757957Y0178162D01*
X0758008Y0178244D01*
X0758062Y0178325D01*
X0758120Y0178403D01*
X0758181Y0178478D01*
X0758244Y0178551D01*
X0758311Y0178622D01*
X0758381Y0178689D01*
X0758453Y0178754D01*
X0758528Y0178815D01*
X0758606Y0178874D01*
X0758685Y0178929D01*
X0758767Y0178981D01*
X0758851Y0179029D01*
X0758937Y0179074D01*
X0759025Y0179116D01*
X0759114Y0179154D01*
X0759205Y0179188D01*
X0759297Y0179218D01*
X0759390Y0179245D01*
X0759485Y0179267D01*
X0759580Y0179286D01*
X0759676Y0179301D01*
X0759772Y0179312D01*
X0759869Y0179319D01*
X0759966Y0179322D01*
X0760063Y0179321D01*
X0760160Y0179316D01*
X0760256Y0179307D01*
X0760352Y0179294D01*
X0760448Y0179277D01*
X0760543Y0179256D01*
X0760636Y0179232D01*
X0760729Y0179203D01*
X0760821Y0179171D01*
X0760911Y0179135D01*
X0760999Y0179096D01*
X0761086Y0179052D01*
X0761171Y0179006D01*
X0761254Y0178955D01*
X0761335Y0178902D01*
X0761413Y0178845D01*
X0761490Y0178785D01*
X0761563Y0178722D01*
X0761634Y0178656D01*
X0761702Y0178587D01*
X0761768Y0178515D01*
X0761830Y0178441D01*
X0761889Y0178364D01*
X0761945Y0178285D01*
X0761998Y0178203D01*
X0762048Y0178120D01*
X0762093Y0178034D01*
X0762136Y0177947D01*
X0762175Y0177858D01*
X0762210Y0177768D01*
X0762241Y0177676D01*
X0762268Y0177583D01*
X0762292Y0177489D01*
X0762312Y0177394D01*
X0762328Y0177298D01*
X0762340Y0177202D01*
X0762348Y0177105D01*
X0762352Y0177008D01*
X0762352Y0176912D01*
X0762348Y0176815D01*
X0762340Y0176718D01*
X0762328Y0176622D01*
X0762312Y0176526D01*
X0762292Y0176431D01*
X0762268Y0176337D01*
X0762241Y0176244D01*
X0762210Y0176152D01*
X0762175Y0176062D01*
X0762136Y0175973D01*
X0762093Y0175886D01*
X0762048Y0175800D01*
X0761998Y0175717D01*
X0761945Y0175635D01*
X0761889Y0175556D01*
X0761830Y0175479D01*
X0761768Y0175405D01*
X0761702Y0175333D01*
X0761634Y0175264D01*
X0761563Y0175198D01*
X0761490Y0175135D01*
X0761413Y0175075D01*
X0761335Y0175018D01*
X0761254Y0174965D01*
X0761171Y0174914D01*
X0761086Y0174868D01*
X0760999Y0174824D01*
X0760911Y0174785D01*
X0760821Y0174749D01*
X0760729Y0174717D01*
X0760636Y0174688D01*
X0760543Y0174664D01*
X0760448Y0174643D01*
X0760352Y0174626D01*
X0760256Y0174613D01*
X0760160Y0174604D01*
X0760063Y0174599D01*
X0759966Y0174598D01*
X0759869Y0174601D01*
X0759772Y0174608D01*
X0759676Y0174619D01*
X0759580Y0174634D01*
X0759485Y0174653D01*
X0759390Y0174675D01*
X0759297Y0174702D01*
X0759205Y0174732D01*
X0759114Y0174766D01*
X0759025Y0174804D01*
X0758937Y0174846D01*
X0758851Y0174891D01*
X0758767Y0174939D01*
X0758685Y0174991D01*
X0758606Y0175046D01*
X0758528Y0175105D01*
X0758453Y0175166D01*
X0758381Y0175231D01*
X0758311Y0175298D01*
X0758244Y0175369D01*
X0758181Y0175442D01*
X0758120Y0175517D01*
X0758062Y0175595D01*
X0758008Y0175676D01*
X0757957Y0175758D01*
X0757909Y0175843D01*
X0757865Y0175929D01*
X0757824Y0176017D01*
X0757788Y0176107D01*
X0757754Y0176198D01*
X0757725Y0176290D01*
X0757699Y0176384D01*
X0757678Y0176478D01*
X0757660Y0176574D01*
X0757646Y0176670D01*
X0757636Y0176766D01*
X0757630Y0176863D01*
X0757628Y0176960D01*
X0777313Y0196645D02*
X0777315Y0196742D01*
X0777321Y0196839D01*
X0777331Y0196935D01*
X0777345Y0197031D01*
X0777363Y0197127D01*
X0777384Y0197221D01*
X0777410Y0197315D01*
X0777439Y0197407D01*
X0777473Y0197498D01*
X0777509Y0197588D01*
X0777550Y0197676D01*
X0777594Y0197762D01*
X0777642Y0197847D01*
X0777693Y0197929D01*
X0777747Y0198010D01*
X0777805Y0198088D01*
X0777866Y0198163D01*
X0777929Y0198236D01*
X0777996Y0198307D01*
X0778066Y0198374D01*
X0778138Y0198439D01*
X0778213Y0198500D01*
X0778291Y0198559D01*
X0778370Y0198614D01*
X0778452Y0198666D01*
X0778536Y0198714D01*
X0778622Y0198759D01*
X0778710Y0198801D01*
X0778799Y0198839D01*
X0778890Y0198873D01*
X0778982Y0198903D01*
X0779075Y0198930D01*
X0779170Y0198952D01*
X0779265Y0198971D01*
X0779361Y0198986D01*
X0779457Y0198997D01*
X0779554Y0199004D01*
X0779651Y0199007D01*
X0779748Y0199006D01*
X0779845Y0199001D01*
X0779941Y0198992D01*
X0780037Y0198979D01*
X0780133Y0198962D01*
X0780228Y0198941D01*
X0780321Y0198917D01*
X0780414Y0198888D01*
X0780506Y0198856D01*
X0780596Y0198820D01*
X0780684Y0198781D01*
X0780771Y0198737D01*
X0780856Y0198691D01*
X0780939Y0198640D01*
X0781020Y0198587D01*
X0781098Y0198530D01*
X0781175Y0198470D01*
X0781248Y0198407D01*
X0781319Y0198341D01*
X0781387Y0198272D01*
X0781453Y0198200D01*
X0781515Y0198126D01*
X0781574Y0198049D01*
X0781630Y0197970D01*
X0781683Y0197888D01*
X0781733Y0197805D01*
X0781778Y0197719D01*
X0781821Y0197632D01*
X0781860Y0197543D01*
X0781895Y0197453D01*
X0781926Y0197361D01*
X0781953Y0197268D01*
X0781977Y0197174D01*
X0781997Y0197079D01*
X0782013Y0196983D01*
X0782025Y0196887D01*
X0782033Y0196790D01*
X0782037Y0196693D01*
X0782037Y0196597D01*
X0782033Y0196500D01*
X0782025Y0196403D01*
X0782013Y0196307D01*
X0781997Y0196211D01*
X0781977Y0196116D01*
X0781953Y0196022D01*
X0781926Y0195929D01*
X0781895Y0195837D01*
X0781860Y0195747D01*
X0781821Y0195658D01*
X0781778Y0195571D01*
X0781733Y0195485D01*
X0781683Y0195402D01*
X0781630Y0195320D01*
X0781574Y0195241D01*
X0781515Y0195164D01*
X0781453Y0195090D01*
X0781387Y0195018D01*
X0781319Y0194949D01*
X0781248Y0194883D01*
X0781175Y0194820D01*
X0781098Y0194760D01*
X0781020Y0194703D01*
X0780939Y0194650D01*
X0780856Y0194599D01*
X0780771Y0194553D01*
X0780684Y0194509D01*
X0780596Y0194470D01*
X0780506Y0194434D01*
X0780414Y0194402D01*
X0780321Y0194373D01*
X0780228Y0194349D01*
X0780133Y0194328D01*
X0780037Y0194311D01*
X0779941Y0194298D01*
X0779845Y0194289D01*
X0779748Y0194284D01*
X0779651Y0194283D01*
X0779554Y0194286D01*
X0779457Y0194293D01*
X0779361Y0194304D01*
X0779265Y0194319D01*
X0779170Y0194338D01*
X0779075Y0194360D01*
X0778982Y0194387D01*
X0778890Y0194417D01*
X0778799Y0194451D01*
X0778710Y0194489D01*
X0778622Y0194531D01*
X0778536Y0194576D01*
X0778452Y0194624D01*
X0778370Y0194676D01*
X0778291Y0194731D01*
X0778213Y0194790D01*
X0778138Y0194851D01*
X0778066Y0194916D01*
X0777996Y0194983D01*
X0777929Y0195054D01*
X0777866Y0195127D01*
X0777805Y0195202D01*
X0777747Y0195280D01*
X0777693Y0195361D01*
X0777642Y0195443D01*
X0777594Y0195528D01*
X0777550Y0195614D01*
X0777509Y0195702D01*
X0777473Y0195792D01*
X0777439Y0195883D01*
X0777410Y0195975D01*
X0777384Y0196069D01*
X0777363Y0196163D01*
X0777345Y0196259D01*
X0777331Y0196355D01*
X0777321Y0196451D01*
X0777315Y0196548D01*
X0777313Y0196645D01*
X0787156Y0196645D02*
X0787158Y0196742D01*
X0787164Y0196839D01*
X0787174Y0196935D01*
X0787188Y0197031D01*
X0787206Y0197127D01*
X0787227Y0197221D01*
X0787253Y0197315D01*
X0787282Y0197407D01*
X0787316Y0197498D01*
X0787352Y0197588D01*
X0787393Y0197676D01*
X0787437Y0197762D01*
X0787485Y0197847D01*
X0787536Y0197929D01*
X0787590Y0198010D01*
X0787648Y0198088D01*
X0787709Y0198163D01*
X0787772Y0198236D01*
X0787839Y0198307D01*
X0787909Y0198374D01*
X0787981Y0198439D01*
X0788056Y0198500D01*
X0788134Y0198559D01*
X0788213Y0198614D01*
X0788295Y0198666D01*
X0788379Y0198714D01*
X0788465Y0198759D01*
X0788553Y0198801D01*
X0788642Y0198839D01*
X0788733Y0198873D01*
X0788825Y0198903D01*
X0788918Y0198930D01*
X0789013Y0198952D01*
X0789108Y0198971D01*
X0789204Y0198986D01*
X0789300Y0198997D01*
X0789397Y0199004D01*
X0789494Y0199007D01*
X0789591Y0199006D01*
X0789688Y0199001D01*
X0789784Y0198992D01*
X0789880Y0198979D01*
X0789976Y0198962D01*
X0790071Y0198941D01*
X0790164Y0198917D01*
X0790257Y0198888D01*
X0790349Y0198856D01*
X0790439Y0198820D01*
X0790527Y0198781D01*
X0790614Y0198737D01*
X0790699Y0198691D01*
X0790782Y0198640D01*
X0790863Y0198587D01*
X0790941Y0198530D01*
X0791018Y0198470D01*
X0791091Y0198407D01*
X0791162Y0198341D01*
X0791230Y0198272D01*
X0791296Y0198200D01*
X0791358Y0198126D01*
X0791417Y0198049D01*
X0791473Y0197970D01*
X0791526Y0197888D01*
X0791576Y0197805D01*
X0791621Y0197719D01*
X0791664Y0197632D01*
X0791703Y0197543D01*
X0791738Y0197453D01*
X0791769Y0197361D01*
X0791796Y0197268D01*
X0791820Y0197174D01*
X0791840Y0197079D01*
X0791856Y0196983D01*
X0791868Y0196887D01*
X0791876Y0196790D01*
X0791880Y0196693D01*
X0791880Y0196597D01*
X0791876Y0196500D01*
X0791868Y0196403D01*
X0791856Y0196307D01*
X0791840Y0196211D01*
X0791820Y0196116D01*
X0791796Y0196022D01*
X0791769Y0195929D01*
X0791738Y0195837D01*
X0791703Y0195747D01*
X0791664Y0195658D01*
X0791621Y0195571D01*
X0791576Y0195485D01*
X0791526Y0195402D01*
X0791473Y0195320D01*
X0791417Y0195241D01*
X0791358Y0195164D01*
X0791296Y0195090D01*
X0791230Y0195018D01*
X0791162Y0194949D01*
X0791091Y0194883D01*
X0791018Y0194820D01*
X0790941Y0194760D01*
X0790863Y0194703D01*
X0790782Y0194650D01*
X0790699Y0194599D01*
X0790614Y0194553D01*
X0790527Y0194509D01*
X0790439Y0194470D01*
X0790349Y0194434D01*
X0790257Y0194402D01*
X0790164Y0194373D01*
X0790071Y0194349D01*
X0789976Y0194328D01*
X0789880Y0194311D01*
X0789784Y0194298D01*
X0789688Y0194289D01*
X0789591Y0194284D01*
X0789494Y0194283D01*
X0789397Y0194286D01*
X0789300Y0194293D01*
X0789204Y0194304D01*
X0789108Y0194319D01*
X0789013Y0194338D01*
X0788918Y0194360D01*
X0788825Y0194387D01*
X0788733Y0194417D01*
X0788642Y0194451D01*
X0788553Y0194489D01*
X0788465Y0194531D01*
X0788379Y0194576D01*
X0788295Y0194624D01*
X0788213Y0194676D01*
X0788134Y0194731D01*
X0788056Y0194790D01*
X0787981Y0194851D01*
X0787909Y0194916D01*
X0787839Y0194983D01*
X0787772Y0195054D01*
X0787709Y0195127D01*
X0787648Y0195202D01*
X0787590Y0195280D01*
X0787536Y0195361D01*
X0787485Y0195443D01*
X0787437Y0195528D01*
X0787393Y0195614D01*
X0787352Y0195702D01*
X0787316Y0195792D01*
X0787282Y0195883D01*
X0787253Y0195975D01*
X0787227Y0196069D01*
X0787206Y0196163D01*
X0787188Y0196259D01*
X0787174Y0196355D01*
X0787164Y0196451D01*
X0787158Y0196548D01*
X0787156Y0196645D01*
X0787156Y0216330D02*
X0787158Y0216427D01*
X0787164Y0216524D01*
X0787174Y0216620D01*
X0787188Y0216716D01*
X0787206Y0216812D01*
X0787227Y0216906D01*
X0787253Y0217000D01*
X0787282Y0217092D01*
X0787316Y0217183D01*
X0787352Y0217273D01*
X0787393Y0217361D01*
X0787437Y0217447D01*
X0787485Y0217532D01*
X0787536Y0217614D01*
X0787590Y0217695D01*
X0787648Y0217773D01*
X0787709Y0217848D01*
X0787772Y0217921D01*
X0787839Y0217992D01*
X0787909Y0218059D01*
X0787981Y0218124D01*
X0788056Y0218185D01*
X0788134Y0218244D01*
X0788213Y0218299D01*
X0788295Y0218351D01*
X0788379Y0218399D01*
X0788465Y0218444D01*
X0788553Y0218486D01*
X0788642Y0218524D01*
X0788733Y0218558D01*
X0788825Y0218588D01*
X0788918Y0218615D01*
X0789013Y0218637D01*
X0789108Y0218656D01*
X0789204Y0218671D01*
X0789300Y0218682D01*
X0789397Y0218689D01*
X0789494Y0218692D01*
X0789591Y0218691D01*
X0789688Y0218686D01*
X0789784Y0218677D01*
X0789880Y0218664D01*
X0789976Y0218647D01*
X0790071Y0218626D01*
X0790164Y0218602D01*
X0790257Y0218573D01*
X0790349Y0218541D01*
X0790439Y0218505D01*
X0790527Y0218466D01*
X0790614Y0218422D01*
X0790699Y0218376D01*
X0790782Y0218325D01*
X0790863Y0218272D01*
X0790941Y0218215D01*
X0791018Y0218155D01*
X0791091Y0218092D01*
X0791162Y0218026D01*
X0791230Y0217957D01*
X0791296Y0217885D01*
X0791358Y0217811D01*
X0791417Y0217734D01*
X0791473Y0217655D01*
X0791526Y0217573D01*
X0791576Y0217490D01*
X0791621Y0217404D01*
X0791664Y0217317D01*
X0791703Y0217228D01*
X0791738Y0217138D01*
X0791769Y0217046D01*
X0791796Y0216953D01*
X0791820Y0216859D01*
X0791840Y0216764D01*
X0791856Y0216668D01*
X0791868Y0216572D01*
X0791876Y0216475D01*
X0791880Y0216378D01*
X0791880Y0216282D01*
X0791876Y0216185D01*
X0791868Y0216088D01*
X0791856Y0215992D01*
X0791840Y0215896D01*
X0791820Y0215801D01*
X0791796Y0215707D01*
X0791769Y0215614D01*
X0791738Y0215522D01*
X0791703Y0215432D01*
X0791664Y0215343D01*
X0791621Y0215256D01*
X0791576Y0215170D01*
X0791526Y0215087D01*
X0791473Y0215005D01*
X0791417Y0214926D01*
X0791358Y0214849D01*
X0791296Y0214775D01*
X0791230Y0214703D01*
X0791162Y0214634D01*
X0791091Y0214568D01*
X0791018Y0214505D01*
X0790941Y0214445D01*
X0790863Y0214388D01*
X0790782Y0214335D01*
X0790699Y0214284D01*
X0790614Y0214238D01*
X0790527Y0214194D01*
X0790439Y0214155D01*
X0790349Y0214119D01*
X0790257Y0214087D01*
X0790164Y0214058D01*
X0790071Y0214034D01*
X0789976Y0214013D01*
X0789880Y0213996D01*
X0789784Y0213983D01*
X0789688Y0213974D01*
X0789591Y0213969D01*
X0789494Y0213968D01*
X0789397Y0213971D01*
X0789300Y0213978D01*
X0789204Y0213989D01*
X0789108Y0214004D01*
X0789013Y0214023D01*
X0788918Y0214045D01*
X0788825Y0214072D01*
X0788733Y0214102D01*
X0788642Y0214136D01*
X0788553Y0214174D01*
X0788465Y0214216D01*
X0788379Y0214261D01*
X0788295Y0214309D01*
X0788213Y0214361D01*
X0788134Y0214416D01*
X0788056Y0214475D01*
X0787981Y0214536D01*
X0787909Y0214601D01*
X0787839Y0214668D01*
X0787772Y0214739D01*
X0787709Y0214812D01*
X0787648Y0214887D01*
X0787590Y0214965D01*
X0787536Y0215046D01*
X0787485Y0215128D01*
X0787437Y0215213D01*
X0787393Y0215299D01*
X0787352Y0215387D01*
X0787316Y0215477D01*
X0787282Y0215568D01*
X0787253Y0215660D01*
X0787227Y0215754D01*
X0787206Y0215848D01*
X0787188Y0215944D01*
X0787174Y0216040D01*
X0787164Y0216136D01*
X0787158Y0216233D01*
X0787156Y0216330D01*
X0777313Y0216330D02*
X0777315Y0216427D01*
X0777321Y0216524D01*
X0777331Y0216620D01*
X0777345Y0216716D01*
X0777363Y0216812D01*
X0777384Y0216906D01*
X0777410Y0217000D01*
X0777439Y0217092D01*
X0777473Y0217183D01*
X0777509Y0217273D01*
X0777550Y0217361D01*
X0777594Y0217447D01*
X0777642Y0217532D01*
X0777693Y0217614D01*
X0777747Y0217695D01*
X0777805Y0217773D01*
X0777866Y0217848D01*
X0777929Y0217921D01*
X0777996Y0217992D01*
X0778066Y0218059D01*
X0778138Y0218124D01*
X0778213Y0218185D01*
X0778291Y0218244D01*
X0778370Y0218299D01*
X0778452Y0218351D01*
X0778536Y0218399D01*
X0778622Y0218444D01*
X0778710Y0218486D01*
X0778799Y0218524D01*
X0778890Y0218558D01*
X0778982Y0218588D01*
X0779075Y0218615D01*
X0779170Y0218637D01*
X0779265Y0218656D01*
X0779361Y0218671D01*
X0779457Y0218682D01*
X0779554Y0218689D01*
X0779651Y0218692D01*
X0779748Y0218691D01*
X0779845Y0218686D01*
X0779941Y0218677D01*
X0780037Y0218664D01*
X0780133Y0218647D01*
X0780228Y0218626D01*
X0780321Y0218602D01*
X0780414Y0218573D01*
X0780506Y0218541D01*
X0780596Y0218505D01*
X0780684Y0218466D01*
X0780771Y0218422D01*
X0780856Y0218376D01*
X0780939Y0218325D01*
X0781020Y0218272D01*
X0781098Y0218215D01*
X0781175Y0218155D01*
X0781248Y0218092D01*
X0781319Y0218026D01*
X0781387Y0217957D01*
X0781453Y0217885D01*
X0781515Y0217811D01*
X0781574Y0217734D01*
X0781630Y0217655D01*
X0781683Y0217573D01*
X0781733Y0217490D01*
X0781778Y0217404D01*
X0781821Y0217317D01*
X0781860Y0217228D01*
X0781895Y0217138D01*
X0781926Y0217046D01*
X0781953Y0216953D01*
X0781977Y0216859D01*
X0781997Y0216764D01*
X0782013Y0216668D01*
X0782025Y0216572D01*
X0782033Y0216475D01*
X0782037Y0216378D01*
X0782037Y0216282D01*
X0782033Y0216185D01*
X0782025Y0216088D01*
X0782013Y0215992D01*
X0781997Y0215896D01*
X0781977Y0215801D01*
X0781953Y0215707D01*
X0781926Y0215614D01*
X0781895Y0215522D01*
X0781860Y0215432D01*
X0781821Y0215343D01*
X0781778Y0215256D01*
X0781733Y0215170D01*
X0781683Y0215087D01*
X0781630Y0215005D01*
X0781574Y0214926D01*
X0781515Y0214849D01*
X0781453Y0214775D01*
X0781387Y0214703D01*
X0781319Y0214634D01*
X0781248Y0214568D01*
X0781175Y0214505D01*
X0781098Y0214445D01*
X0781020Y0214388D01*
X0780939Y0214335D01*
X0780856Y0214284D01*
X0780771Y0214238D01*
X0780684Y0214194D01*
X0780596Y0214155D01*
X0780506Y0214119D01*
X0780414Y0214087D01*
X0780321Y0214058D01*
X0780228Y0214034D01*
X0780133Y0214013D01*
X0780037Y0213996D01*
X0779941Y0213983D01*
X0779845Y0213974D01*
X0779748Y0213969D01*
X0779651Y0213968D01*
X0779554Y0213971D01*
X0779457Y0213978D01*
X0779361Y0213989D01*
X0779265Y0214004D01*
X0779170Y0214023D01*
X0779075Y0214045D01*
X0778982Y0214072D01*
X0778890Y0214102D01*
X0778799Y0214136D01*
X0778710Y0214174D01*
X0778622Y0214216D01*
X0778536Y0214261D01*
X0778452Y0214309D01*
X0778370Y0214361D01*
X0778291Y0214416D01*
X0778213Y0214475D01*
X0778138Y0214536D01*
X0778066Y0214601D01*
X0777996Y0214668D01*
X0777929Y0214739D01*
X0777866Y0214812D01*
X0777805Y0214887D01*
X0777747Y0214965D01*
X0777693Y0215046D01*
X0777642Y0215128D01*
X0777594Y0215213D01*
X0777550Y0215299D01*
X0777509Y0215387D01*
X0777473Y0215477D01*
X0777439Y0215568D01*
X0777410Y0215660D01*
X0777384Y0215754D01*
X0777363Y0215848D01*
X0777345Y0215944D01*
X0777331Y0216040D01*
X0777321Y0216136D01*
X0777315Y0216233D01*
X0777313Y0216330D01*
X0757628Y0236015D02*
X0757630Y0236112D01*
X0757636Y0236209D01*
X0757646Y0236305D01*
X0757660Y0236401D01*
X0757678Y0236497D01*
X0757699Y0236591D01*
X0757725Y0236685D01*
X0757754Y0236777D01*
X0757788Y0236868D01*
X0757824Y0236958D01*
X0757865Y0237046D01*
X0757909Y0237132D01*
X0757957Y0237217D01*
X0758008Y0237299D01*
X0758062Y0237380D01*
X0758120Y0237458D01*
X0758181Y0237533D01*
X0758244Y0237606D01*
X0758311Y0237677D01*
X0758381Y0237744D01*
X0758453Y0237809D01*
X0758528Y0237870D01*
X0758606Y0237929D01*
X0758685Y0237984D01*
X0758767Y0238036D01*
X0758851Y0238084D01*
X0758937Y0238129D01*
X0759025Y0238171D01*
X0759114Y0238209D01*
X0759205Y0238243D01*
X0759297Y0238273D01*
X0759390Y0238300D01*
X0759485Y0238322D01*
X0759580Y0238341D01*
X0759676Y0238356D01*
X0759772Y0238367D01*
X0759869Y0238374D01*
X0759966Y0238377D01*
X0760063Y0238376D01*
X0760160Y0238371D01*
X0760256Y0238362D01*
X0760352Y0238349D01*
X0760448Y0238332D01*
X0760543Y0238311D01*
X0760636Y0238287D01*
X0760729Y0238258D01*
X0760821Y0238226D01*
X0760911Y0238190D01*
X0760999Y0238151D01*
X0761086Y0238107D01*
X0761171Y0238061D01*
X0761254Y0238010D01*
X0761335Y0237957D01*
X0761413Y0237900D01*
X0761490Y0237840D01*
X0761563Y0237777D01*
X0761634Y0237711D01*
X0761702Y0237642D01*
X0761768Y0237570D01*
X0761830Y0237496D01*
X0761889Y0237419D01*
X0761945Y0237340D01*
X0761998Y0237258D01*
X0762048Y0237175D01*
X0762093Y0237089D01*
X0762136Y0237002D01*
X0762175Y0236913D01*
X0762210Y0236823D01*
X0762241Y0236731D01*
X0762268Y0236638D01*
X0762292Y0236544D01*
X0762312Y0236449D01*
X0762328Y0236353D01*
X0762340Y0236257D01*
X0762348Y0236160D01*
X0762352Y0236063D01*
X0762352Y0235967D01*
X0762348Y0235870D01*
X0762340Y0235773D01*
X0762328Y0235677D01*
X0762312Y0235581D01*
X0762292Y0235486D01*
X0762268Y0235392D01*
X0762241Y0235299D01*
X0762210Y0235207D01*
X0762175Y0235117D01*
X0762136Y0235028D01*
X0762093Y0234941D01*
X0762048Y0234855D01*
X0761998Y0234772D01*
X0761945Y0234690D01*
X0761889Y0234611D01*
X0761830Y0234534D01*
X0761768Y0234460D01*
X0761702Y0234388D01*
X0761634Y0234319D01*
X0761563Y0234253D01*
X0761490Y0234190D01*
X0761413Y0234130D01*
X0761335Y0234073D01*
X0761254Y0234020D01*
X0761171Y0233969D01*
X0761086Y0233923D01*
X0760999Y0233879D01*
X0760911Y0233840D01*
X0760821Y0233804D01*
X0760729Y0233772D01*
X0760636Y0233743D01*
X0760543Y0233719D01*
X0760448Y0233698D01*
X0760352Y0233681D01*
X0760256Y0233668D01*
X0760160Y0233659D01*
X0760063Y0233654D01*
X0759966Y0233653D01*
X0759869Y0233656D01*
X0759772Y0233663D01*
X0759676Y0233674D01*
X0759580Y0233689D01*
X0759485Y0233708D01*
X0759390Y0233730D01*
X0759297Y0233757D01*
X0759205Y0233787D01*
X0759114Y0233821D01*
X0759025Y0233859D01*
X0758937Y0233901D01*
X0758851Y0233946D01*
X0758767Y0233994D01*
X0758685Y0234046D01*
X0758606Y0234101D01*
X0758528Y0234160D01*
X0758453Y0234221D01*
X0758381Y0234286D01*
X0758311Y0234353D01*
X0758244Y0234424D01*
X0758181Y0234497D01*
X0758120Y0234572D01*
X0758062Y0234650D01*
X0758008Y0234731D01*
X0757957Y0234813D01*
X0757909Y0234898D01*
X0757865Y0234984D01*
X0757824Y0235072D01*
X0757788Y0235162D01*
X0757754Y0235253D01*
X0757725Y0235345D01*
X0757699Y0235439D01*
X0757678Y0235533D01*
X0757660Y0235629D01*
X0757646Y0235725D01*
X0757636Y0235821D01*
X0757630Y0235918D01*
X0757628Y0236015D01*
X0777313Y0255700D02*
X0777315Y0255797D01*
X0777321Y0255894D01*
X0777331Y0255990D01*
X0777345Y0256086D01*
X0777363Y0256182D01*
X0777384Y0256276D01*
X0777410Y0256370D01*
X0777439Y0256462D01*
X0777473Y0256553D01*
X0777509Y0256643D01*
X0777550Y0256731D01*
X0777594Y0256817D01*
X0777642Y0256902D01*
X0777693Y0256984D01*
X0777747Y0257065D01*
X0777805Y0257143D01*
X0777866Y0257218D01*
X0777929Y0257291D01*
X0777996Y0257362D01*
X0778066Y0257429D01*
X0778138Y0257494D01*
X0778213Y0257555D01*
X0778291Y0257614D01*
X0778370Y0257669D01*
X0778452Y0257721D01*
X0778536Y0257769D01*
X0778622Y0257814D01*
X0778710Y0257856D01*
X0778799Y0257894D01*
X0778890Y0257928D01*
X0778982Y0257958D01*
X0779075Y0257985D01*
X0779170Y0258007D01*
X0779265Y0258026D01*
X0779361Y0258041D01*
X0779457Y0258052D01*
X0779554Y0258059D01*
X0779651Y0258062D01*
X0779748Y0258061D01*
X0779845Y0258056D01*
X0779941Y0258047D01*
X0780037Y0258034D01*
X0780133Y0258017D01*
X0780228Y0257996D01*
X0780321Y0257972D01*
X0780414Y0257943D01*
X0780506Y0257911D01*
X0780596Y0257875D01*
X0780684Y0257836D01*
X0780771Y0257792D01*
X0780856Y0257746D01*
X0780939Y0257695D01*
X0781020Y0257642D01*
X0781098Y0257585D01*
X0781175Y0257525D01*
X0781248Y0257462D01*
X0781319Y0257396D01*
X0781387Y0257327D01*
X0781453Y0257255D01*
X0781515Y0257181D01*
X0781574Y0257104D01*
X0781630Y0257025D01*
X0781683Y0256943D01*
X0781733Y0256860D01*
X0781778Y0256774D01*
X0781821Y0256687D01*
X0781860Y0256598D01*
X0781895Y0256508D01*
X0781926Y0256416D01*
X0781953Y0256323D01*
X0781977Y0256229D01*
X0781997Y0256134D01*
X0782013Y0256038D01*
X0782025Y0255942D01*
X0782033Y0255845D01*
X0782037Y0255748D01*
X0782037Y0255652D01*
X0782033Y0255555D01*
X0782025Y0255458D01*
X0782013Y0255362D01*
X0781997Y0255266D01*
X0781977Y0255171D01*
X0781953Y0255077D01*
X0781926Y0254984D01*
X0781895Y0254892D01*
X0781860Y0254802D01*
X0781821Y0254713D01*
X0781778Y0254626D01*
X0781733Y0254540D01*
X0781683Y0254457D01*
X0781630Y0254375D01*
X0781574Y0254296D01*
X0781515Y0254219D01*
X0781453Y0254145D01*
X0781387Y0254073D01*
X0781319Y0254004D01*
X0781248Y0253938D01*
X0781175Y0253875D01*
X0781098Y0253815D01*
X0781020Y0253758D01*
X0780939Y0253705D01*
X0780856Y0253654D01*
X0780771Y0253608D01*
X0780684Y0253564D01*
X0780596Y0253525D01*
X0780506Y0253489D01*
X0780414Y0253457D01*
X0780321Y0253428D01*
X0780228Y0253404D01*
X0780133Y0253383D01*
X0780037Y0253366D01*
X0779941Y0253353D01*
X0779845Y0253344D01*
X0779748Y0253339D01*
X0779651Y0253338D01*
X0779554Y0253341D01*
X0779457Y0253348D01*
X0779361Y0253359D01*
X0779265Y0253374D01*
X0779170Y0253393D01*
X0779075Y0253415D01*
X0778982Y0253442D01*
X0778890Y0253472D01*
X0778799Y0253506D01*
X0778710Y0253544D01*
X0778622Y0253586D01*
X0778536Y0253631D01*
X0778452Y0253679D01*
X0778370Y0253731D01*
X0778291Y0253786D01*
X0778213Y0253845D01*
X0778138Y0253906D01*
X0778066Y0253971D01*
X0777996Y0254038D01*
X0777929Y0254109D01*
X0777866Y0254182D01*
X0777805Y0254257D01*
X0777747Y0254335D01*
X0777693Y0254416D01*
X0777642Y0254498D01*
X0777594Y0254583D01*
X0777550Y0254669D01*
X0777509Y0254757D01*
X0777473Y0254847D01*
X0777439Y0254938D01*
X0777410Y0255030D01*
X0777384Y0255124D01*
X0777363Y0255218D01*
X0777345Y0255314D01*
X0777331Y0255410D01*
X0777321Y0255506D01*
X0777315Y0255603D01*
X0777313Y0255700D01*
X0787156Y0255700D02*
X0787158Y0255797D01*
X0787164Y0255894D01*
X0787174Y0255990D01*
X0787188Y0256086D01*
X0787206Y0256182D01*
X0787227Y0256276D01*
X0787253Y0256370D01*
X0787282Y0256462D01*
X0787316Y0256553D01*
X0787352Y0256643D01*
X0787393Y0256731D01*
X0787437Y0256817D01*
X0787485Y0256902D01*
X0787536Y0256984D01*
X0787590Y0257065D01*
X0787648Y0257143D01*
X0787709Y0257218D01*
X0787772Y0257291D01*
X0787839Y0257362D01*
X0787909Y0257429D01*
X0787981Y0257494D01*
X0788056Y0257555D01*
X0788134Y0257614D01*
X0788213Y0257669D01*
X0788295Y0257721D01*
X0788379Y0257769D01*
X0788465Y0257814D01*
X0788553Y0257856D01*
X0788642Y0257894D01*
X0788733Y0257928D01*
X0788825Y0257958D01*
X0788918Y0257985D01*
X0789013Y0258007D01*
X0789108Y0258026D01*
X0789204Y0258041D01*
X0789300Y0258052D01*
X0789397Y0258059D01*
X0789494Y0258062D01*
X0789591Y0258061D01*
X0789688Y0258056D01*
X0789784Y0258047D01*
X0789880Y0258034D01*
X0789976Y0258017D01*
X0790071Y0257996D01*
X0790164Y0257972D01*
X0790257Y0257943D01*
X0790349Y0257911D01*
X0790439Y0257875D01*
X0790527Y0257836D01*
X0790614Y0257792D01*
X0790699Y0257746D01*
X0790782Y0257695D01*
X0790863Y0257642D01*
X0790941Y0257585D01*
X0791018Y0257525D01*
X0791091Y0257462D01*
X0791162Y0257396D01*
X0791230Y0257327D01*
X0791296Y0257255D01*
X0791358Y0257181D01*
X0791417Y0257104D01*
X0791473Y0257025D01*
X0791526Y0256943D01*
X0791576Y0256860D01*
X0791621Y0256774D01*
X0791664Y0256687D01*
X0791703Y0256598D01*
X0791738Y0256508D01*
X0791769Y0256416D01*
X0791796Y0256323D01*
X0791820Y0256229D01*
X0791840Y0256134D01*
X0791856Y0256038D01*
X0791868Y0255942D01*
X0791876Y0255845D01*
X0791880Y0255748D01*
X0791880Y0255652D01*
X0791876Y0255555D01*
X0791868Y0255458D01*
X0791856Y0255362D01*
X0791840Y0255266D01*
X0791820Y0255171D01*
X0791796Y0255077D01*
X0791769Y0254984D01*
X0791738Y0254892D01*
X0791703Y0254802D01*
X0791664Y0254713D01*
X0791621Y0254626D01*
X0791576Y0254540D01*
X0791526Y0254457D01*
X0791473Y0254375D01*
X0791417Y0254296D01*
X0791358Y0254219D01*
X0791296Y0254145D01*
X0791230Y0254073D01*
X0791162Y0254004D01*
X0791091Y0253938D01*
X0791018Y0253875D01*
X0790941Y0253815D01*
X0790863Y0253758D01*
X0790782Y0253705D01*
X0790699Y0253654D01*
X0790614Y0253608D01*
X0790527Y0253564D01*
X0790439Y0253525D01*
X0790349Y0253489D01*
X0790257Y0253457D01*
X0790164Y0253428D01*
X0790071Y0253404D01*
X0789976Y0253383D01*
X0789880Y0253366D01*
X0789784Y0253353D01*
X0789688Y0253344D01*
X0789591Y0253339D01*
X0789494Y0253338D01*
X0789397Y0253341D01*
X0789300Y0253348D01*
X0789204Y0253359D01*
X0789108Y0253374D01*
X0789013Y0253393D01*
X0788918Y0253415D01*
X0788825Y0253442D01*
X0788733Y0253472D01*
X0788642Y0253506D01*
X0788553Y0253544D01*
X0788465Y0253586D01*
X0788379Y0253631D01*
X0788295Y0253679D01*
X0788213Y0253731D01*
X0788134Y0253786D01*
X0788056Y0253845D01*
X0787981Y0253906D01*
X0787909Y0253971D01*
X0787839Y0254038D01*
X0787772Y0254109D01*
X0787709Y0254182D01*
X0787648Y0254257D01*
X0787590Y0254335D01*
X0787536Y0254416D01*
X0787485Y0254498D01*
X0787437Y0254583D01*
X0787393Y0254669D01*
X0787352Y0254757D01*
X0787316Y0254847D01*
X0787282Y0254938D01*
X0787253Y0255030D01*
X0787227Y0255124D01*
X0787206Y0255218D01*
X0787188Y0255314D01*
X0787174Y0255410D01*
X0787164Y0255506D01*
X0787158Y0255603D01*
X0787156Y0255700D01*
X0787156Y0275385D02*
X0787158Y0275482D01*
X0787164Y0275579D01*
X0787174Y0275675D01*
X0787188Y0275771D01*
X0787206Y0275867D01*
X0787227Y0275961D01*
X0787253Y0276055D01*
X0787282Y0276147D01*
X0787316Y0276238D01*
X0787352Y0276328D01*
X0787393Y0276416D01*
X0787437Y0276502D01*
X0787485Y0276587D01*
X0787536Y0276669D01*
X0787590Y0276750D01*
X0787648Y0276828D01*
X0787709Y0276903D01*
X0787772Y0276976D01*
X0787839Y0277047D01*
X0787909Y0277114D01*
X0787981Y0277179D01*
X0788056Y0277240D01*
X0788134Y0277299D01*
X0788213Y0277354D01*
X0788295Y0277406D01*
X0788379Y0277454D01*
X0788465Y0277499D01*
X0788553Y0277541D01*
X0788642Y0277579D01*
X0788733Y0277613D01*
X0788825Y0277643D01*
X0788918Y0277670D01*
X0789013Y0277692D01*
X0789108Y0277711D01*
X0789204Y0277726D01*
X0789300Y0277737D01*
X0789397Y0277744D01*
X0789494Y0277747D01*
X0789591Y0277746D01*
X0789688Y0277741D01*
X0789784Y0277732D01*
X0789880Y0277719D01*
X0789976Y0277702D01*
X0790071Y0277681D01*
X0790164Y0277657D01*
X0790257Y0277628D01*
X0790349Y0277596D01*
X0790439Y0277560D01*
X0790527Y0277521D01*
X0790614Y0277477D01*
X0790699Y0277431D01*
X0790782Y0277380D01*
X0790863Y0277327D01*
X0790941Y0277270D01*
X0791018Y0277210D01*
X0791091Y0277147D01*
X0791162Y0277081D01*
X0791230Y0277012D01*
X0791296Y0276940D01*
X0791358Y0276866D01*
X0791417Y0276789D01*
X0791473Y0276710D01*
X0791526Y0276628D01*
X0791576Y0276545D01*
X0791621Y0276459D01*
X0791664Y0276372D01*
X0791703Y0276283D01*
X0791738Y0276193D01*
X0791769Y0276101D01*
X0791796Y0276008D01*
X0791820Y0275914D01*
X0791840Y0275819D01*
X0791856Y0275723D01*
X0791868Y0275627D01*
X0791876Y0275530D01*
X0791880Y0275433D01*
X0791880Y0275337D01*
X0791876Y0275240D01*
X0791868Y0275143D01*
X0791856Y0275047D01*
X0791840Y0274951D01*
X0791820Y0274856D01*
X0791796Y0274762D01*
X0791769Y0274669D01*
X0791738Y0274577D01*
X0791703Y0274487D01*
X0791664Y0274398D01*
X0791621Y0274311D01*
X0791576Y0274225D01*
X0791526Y0274142D01*
X0791473Y0274060D01*
X0791417Y0273981D01*
X0791358Y0273904D01*
X0791296Y0273830D01*
X0791230Y0273758D01*
X0791162Y0273689D01*
X0791091Y0273623D01*
X0791018Y0273560D01*
X0790941Y0273500D01*
X0790863Y0273443D01*
X0790782Y0273390D01*
X0790699Y0273339D01*
X0790614Y0273293D01*
X0790527Y0273249D01*
X0790439Y0273210D01*
X0790349Y0273174D01*
X0790257Y0273142D01*
X0790164Y0273113D01*
X0790071Y0273089D01*
X0789976Y0273068D01*
X0789880Y0273051D01*
X0789784Y0273038D01*
X0789688Y0273029D01*
X0789591Y0273024D01*
X0789494Y0273023D01*
X0789397Y0273026D01*
X0789300Y0273033D01*
X0789204Y0273044D01*
X0789108Y0273059D01*
X0789013Y0273078D01*
X0788918Y0273100D01*
X0788825Y0273127D01*
X0788733Y0273157D01*
X0788642Y0273191D01*
X0788553Y0273229D01*
X0788465Y0273271D01*
X0788379Y0273316D01*
X0788295Y0273364D01*
X0788213Y0273416D01*
X0788134Y0273471D01*
X0788056Y0273530D01*
X0787981Y0273591D01*
X0787909Y0273656D01*
X0787839Y0273723D01*
X0787772Y0273794D01*
X0787709Y0273867D01*
X0787648Y0273942D01*
X0787590Y0274020D01*
X0787536Y0274101D01*
X0787485Y0274183D01*
X0787437Y0274268D01*
X0787393Y0274354D01*
X0787352Y0274442D01*
X0787316Y0274532D01*
X0787282Y0274623D01*
X0787253Y0274715D01*
X0787227Y0274809D01*
X0787206Y0274903D01*
X0787188Y0274999D01*
X0787174Y0275095D01*
X0787164Y0275191D01*
X0787158Y0275288D01*
X0787156Y0275385D01*
X0777313Y0275385D02*
X0777315Y0275482D01*
X0777321Y0275579D01*
X0777331Y0275675D01*
X0777345Y0275771D01*
X0777363Y0275867D01*
X0777384Y0275961D01*
X0777410Y0276055D01*
X0777439Y0276147D01*
X0777473Y0276238D01*
X0777509Y0276328D01*
X0777550Y0276416D01*
X0777594Y0276502D01*
X0777642Y0276587D01*
X0777693Y0276669D01*
X0777747Y0276750D01*
X0777805Y0276828D01*
X0777866Y0276903D01*
X0777929Y0276976D01*
X0777996Y0277047D01*
X0778066Y0277114D01*
X0778138Y0277179D01*
X0778213Y0277240D01*
X0778291Y0277299D01*
X0778370Y0277354D01*
X0778452Y0277406D01*
X0778536Y0277454D01*
X0778622Y0277499D01*
X0778710Y0277541D01*
X0778799Y0277579D01*
X0778890Y0277613D01*
X0778982Y0277643D01*
X0779075Y0277670D01*
X0779170Y0277692D01*
X0779265Y0277711D01*
X0779361Y0277726D01*
X0779457Y0277737D01*
X0779554Y0277744D01*
X0779651Y0277747D01*
X0779748Y0277746D01*
X0779845Y0277741D01*
X0779941Y0277732D01*
X0780037Y0277719D01*
X0780133Y0277702D01*
X0780228Y0277681D01*
X0780321Y0277657D01*
X0780414Y0277628D01*
X0780506Y0277596D01*
X0780596Y0277560D01*
X0780684Y0277521D01*
X0780771Y0277477D01*
X0780856Y0277431D01*
X0780939Y0277380D01*
X0781020Y0277327D01*
X0781098Y0277270D01*
X0781175Y0277210D01*
X0781248Y0277147D01*
X0781319Y0277081D01*
X0781387Y0277012D01*
X0781453Y0276940D01*
X0781515Y0276866D01*
X0781574Y0276789D01*
X0781630Y0276710D01*
X0781683Y0276628D01*
X0781733Y0276545D01*
X0781778Y0276459D01*
X0781821Y0276372D01*
X0781860Y0276283D01*
X0781895Y0276193D01*
X0781926Y0276101D01*
X0781953Y0276008D01*
X0781977Y0275914D01*
X0781997Y0275819D01*
X0782013Y0275723D01*
X0782025Y0275627D01*
X0782033Y0275530D01*
X0782037Y0275433D01*
X0782037Y0275337D01*
X0782033Y0275240D01*
X0782025Y0275143D01*
X0782013Y0275047D01*
X0781997Y0274951D01*
X0781977Y0274856D01*
X0781953Y0274762D01*
X0781926Y0274669D01*
X0781895Y0274577D01*
X0781860Y0274487D01*
X0781821Y0274398D01*
X0781778Y0274311D01*
X0781733Y0274225D01*
X0781683Y0274142D01*
X0781630Y0274060D01*
X0781574Y0273981D01*
X0781515Y0273904D01*
X0781453Y0273830D01*
X0781387Y0273758D01*
X0781319Y0273689D01*
X0781248Y0273623D01*
X0781175Y0273560D01*
X0781098Y0273500D01*
X0781020Y0273443D01*
X0780939Y0273390D01*
X0780856Y0273339D01*
X0780771Y0273293D01*
X0780684Y0273249D01*
X0780596Y0273210D01*
X0780506Y0273174D01*
X0780414Y0273142D01*
X0780321Y0273113D01*
X0780228Y0273089D01*
X0780133Y0273068D01*
X0780037Y0273051D01*
X0779941Y0273038D01*
X0779845Y0273029D01*
X0779748Y0273024D01*
X0779651Y0273023D01*
X0779554Y0273026D01*
X0779457Y0273033D01*
X0779361Y0273044D01*
X0779265Y0273059D01*
X0779170Y0273078D01*
X0779075Y0273100D01*
X0778982Y0273127D01*
X0778890Y0273157D01*
X0778799Y0273191D01*
X0778710Y0273229D01*
X0778622Y0273271D01*
X0778536Y0273316D01*
X0778452Y0273364D01*
X0778370Y0273416D01*
X0778291Y0273471D01*
X0778213Y0273530D01*
X0778138Y0273591D01*
X0778066Y0273656D01*
X0777996Y0273723D01*
X0777929Y0273794D01*
X0777866Y0273867D01*
X0777805Y0273942D01*
X0777747Y0274020D01*
X0777693Y0274101D01*
X0777642Y0274183D01*
X0777594Y0274268D01*
X0777550Y0274354D01*
X0777509Y0274442D01*
X0777473Y0274532D01*
X0777439Y0274623D01*
X0777410Y0274715D01*
X0777384Y0274809D01*
X0777363Y0274903D01*
X0777345Y0274999D01*
X0777331Y0275095D01*
X0777321Y0275191D01*
X0777315Y0275288D01*
X0777313Y0275385D01*
X0757628Y0295070D02*
X0757630Y0295167D01*
X0757636Y0295264D01*
X0757646Y0295360D01*
X0757660Y0295456D01*
X0757678Y0295552D01*
X0757699Y0295646D01*
X0757725Y0295740D01*
X0757754Y0295832D01*
X0757788Y0295923D01*
X0757824Y0296013D01*
X0757865Y0296101D01*
X0757909Y0296187D01*
X0757957Y0296272D01*
X0758008Y0296354D01*
X0758062Y0296435D01*
X0758120Y0296513D01*
X0758181Y0296588D01*
X0758244Y0296661D01*
X0758311Y0296732D01*
X0758381Y0296799D01*
X0758453Y0296864D01*
X0758528Y0296925D01*
X0758606Y0296984D01*
X0758685Y0297039D01*
X0758767Y0297091D01*
X0758851Y0297139D01*
X0758937Y0297184D01*
X0759025Y0297226D01*
X0759114Y0297264D01*
X0759205Y0297298D01*
X0759297Y0297328D01*
X0759390Y0297355D01*
X0759485Y0297377D01*
X0759580Y0297396D01*
X0759676Y0297411D01*
X0759772Y0297422D01*
X0759869Y0297429D01*
X0759966Y0297432D01*
X0760063Y0297431D01*
X0760160Y0297426D01*
X0760256Y0297417D01*
X0760352Y0297404D01*
X0760448Y0297387D01*
X0760543Y0297366D01*
X0760636Y0297342D01*
X0760729Y0297313D01*
X0760821Y0297281D01*
X0760911Y0297245D01*
X0760999Y0297206D01*
X0761086Y0297162D01*
X0761171Y0297116D01*
X0761254Y0297065D01*
X0761335Y0297012D01*
X0761413Y0296955D01*
X0761490Y0296895D01*
X0761563Y0296832D01*
X0761634Y0296766D01*
X0761702Y0296697D01*
X0761768Y0296625D01*
X0761830Y0296551D01*
X0761889Y0296474D01*
X0761945Y0296395D01*
X0761998Y0296313D01*
X0762048Y0296230D01*
X0762093Y0296144D01*
X0762136Y0296057D01*
X0762175Y0295968D01*
X0762210Y0295878D01*
X0762241Y0295786D01*
X0762268Y0295693D01*
X0762292Y0295599D01*
X0762312Y0295504D01*
X0762328Y0295408D01*
X0762340Y0295312D01*
X0762348Y0295215D01*
X0762352Y0295118D01*
X0762352Y0295022D01*
X0762348Y0294925D01*
X0762340Y0294828D01*
X0762328Y0294732D01*
X0762312Y0294636D01*
X0762292Y0294541D01*
X0762268Y0294447D01*
X0762241Y0294354D01*
X0762210Y0294262D01*
X0762175Y0294172D01*
X0762136Y0294083D01*
X0762093Y0293996D01*
X0762048Y0293910D01*
X0761998Y0293827D01*
X0761945Y0293745D01*
X0761889Y0293666D01*
X0761830Y0293589D01*
X0761768Y0293515D01*
X0761702Y0293443D01*
X0761634Y0293374D01*
X0761563Y0293308D01*
X0761490Y0293245D01*
X0761413Y0293185D01*
X0761335Y0293128D01*
X0761254Y0293075D01*
X0761171Y0293024D01*
X0761086Y0292978D01*
X0760999Y0292934D01*
X0760911Y0292895D01*
X0760821Y0292859D01*
X0760729Y0292827D01*
X0760636Y0292798D01*
X0760543Y0292774D01*
X0760448Y0292753D01*
X0760352Y0292736D01*
X0760256Y0292723D01*
X0760160Y0292714D01*
X0760063Y0292709D01*
X0759966Y0292708D01*
X0759869Y0292711D01*
X0759772Y0292718D01*
X0759676Y0292729D01*
X0759580Y0292744D01*
X0759485Y0292763D01*
X0759390Y0292785D01*
X0759297Y0292812D01*
X0759205Y0292842D01*
X0759114Y0292876D01*
X0759025Y0292914D01*
X0758937Y0292956D01*
X0758851Y0293001D01*
X0758767Y0293049D01*
X0758685Y0293101D01*
X0758606Y0293156D01*
X0758528Y0293215D01*
X0758453Y0293276D01*
X0758381Y0293341D01*
X0758311Y0293408D01*
X0758244Y0293479D01*
X0758181Y0293552D01*
X0758120Y0293627D01*
X0758062Y0293705D01*
X0758008Y0293786D01*
X0757957Y0293868D01*
X0757909Y0293953D01*
X0757865Y0294039D01*
X0757824Y0294127D01*
X0757788Y0294217D01*
X0757754Y0294308D01*
X0757725Y0294400D01*
X0757699Y0294494D01*
X0757678Y0294588D01*
X0757660Y0294684D01*
X0757646Y0294780D01*
X0757636Y0294876D01*
X0757630Y0294973D01*
X0757628Y0295070D01*
X0777313Y0314755D02*
X0777315Y0314852D01*
X0777321Y0314949D01*
X0777331Y0315045D01*
X0777345Y0315141D01*
X0777363Y0315237D01*
X0777384Y0315331D01*
X0777410Y0315425D01*
X0777439Y0315517D01*
X0777473Y0315608D01*
X0777509Y0315698D01*
X0777550Y0315786D01*
X0777594Y0315872D01*
X0777642Y0315957D01*
X0777693Y0316039D01*
X0777747Y0316120D01*
X0777805Y0316198D01*
X0777866Y0316273D01*
X0777929Y0316346D01*
X0777996Y0316417D01*
X0778066Y0316484D01*
X0778138Y0316549D01*
X0778213Y0316610D01*
X0778291Y0316669D01*
X0778370Y0316724D01*
X0778452Y0316776D01*
X0778536Y0316824D01*
X0778622Y0316869D01*
X0778710Y0316911D01*
X0778799Y0316949D01*
X0778890Y0316983D01*
X0778982Y0317013D01*
X0779075Y0317040D01*
X0779170Y0317062D01*
X0779265Y0317081D01*
X0779361Y0317096D01*
X0779457Y0317107D01*
X0779554Y0317114D01*
X0779651Y0317117D01*
X0779748Y0317116D01*
X0779845Y0317111D01*
X0779941Y0317102D01*
X0780037Y0317089D01*
X0780133Y0317072D01*
X0780228Y0317051D01*
X0780321Y0317027D01*
X0780414Y0316998D01*
X0780506Y0316966D01*
X0780596Y0316930D01*
X0780684Y0316891D01*
X0780771Y0316847D01*
X0780856Y0316801D01*
X0780939Y0316750D01*
X0781020Y0316697D01*
X0781098Y0316640D01*
X0781175Y0316580D01*
X0781248Y0316517D01*
X0781319Y0316451D01*
X0781387Y0316382D01*
X0781453Y0316310D01*
X0781515Y0316236D01*
X0781574Y0316159D01*
X0781630Y0316080D01*
X0781683Y0315998D01*
X0781733Y0315915D01*
X0781778Y0315829D01*
X0781821Y0315742D01*
X0781860Y0315653D01*
X0781895Y0315563D01*
X0781926Y0315471D01*
X0781953Y0315378D01*
X0781977Y0315284D01*
X0781997Y0315189D01*
X0782013Y0315093D01*
X0782025Y0314997D01*
X0782033Y0314900D01*
X0782037Y0314803D01*
X0782037Y0314707D01*
X0782033Y0314610D01*
X0782025Y0314513D01*
X0782013Y0314417D01*
X0781997Y0314321D01*
X0781977Y0314226D01*
X0781953Y0314132D01*
X0781926Y0314039D01*
X0781895Y0313947D01*
X0781860Y0313857D01*
X0781821Y0313768D01*
X0781778Y0313681D01*
X0781733Y0313595D01*
X0781683Y0313512D01*
X0781630Y0313430D01*
X0781574Y0313351D01*
X0781515Y0313274D01*
X0781453Y0313200D01*
X0781387Y0313128D01*
X0781319Y0313059D01*
X0781248Y0312993D01*
X0781175Y0312930D01*
X0781098Y0312870D01*
X0781020Y0312813D01*
X0780939Y0312760D01*
X0780856Y0312709D01*
X0780771Y0312663D01*
X0780684Y0312619D01*
X0780596Y0312580D01*
X0780506Y0312544D01*
X0780414Y0312512D01*
X0780321Y0312483D01*
X0780228Y0312459D01*
X0780133Y0312438D01*
X0780037Y0312421D01*
X0779941Y0312408D01*
X0779845Y0312399D01*
X0779748Y0312394D01*
X0779651Y0312393D01*
X0779554Y0312396D01*
X0779457Y0312403D01*
X0779361Y0312414D01*
X0779265Y0312429D01*
X0779170Y0312448D01*
X0779075Y0312470D01*
X0778982Y0312497D01*
X0778890Y0312527D01*
X0778799Y0312561D01*
X0778710Y0312599D01*
X0778622Y0312641D01*
X0778536Y0312686D01*
X0778452Y0312734D01*
X0778370Y0312786D01*
X0778291Y0312841D01*
X0778213Y0312900D01*
X0778138Y0312961D01*
X0778066Y0313026D01*
X0777996Y0313093D01*
X0777929Y0313164D01*
X0777866Y0313237D01*
X0777805Y0313312D01*
X0777747Y0313390D01*
X0777693Y0313471D01*
X0777642Y0313553D01*
X0777594Y0313638D01*
X0777550Y0313724D01*
X0777509Y0313812D01*
X0777473Y0313902D01*
X0777439Y0313993D01*
X0777410Y0314085D01*
X0777384Y0314179D01*
X0777363Y0314273D01*
X0777345Y0314369D01*
X0777331Y0314465D01*
X0777321Y0314561D01*
X0777315Y0314658D01*
X0777313Y0314755D01*
X0787156Y0314755D02*
X0787158Y0314852D01*
X0787164Y0314949D01*
X0787174Y0315045D01*
X0787188Y0315141D01*
X0787206Y0315237D01*
X0787227Y0315331D01*
X0787253Y0315425D01*
X0787282Y0315517D01*
X0787316Y0315608D01*
X0787352Y0315698D01*
X0787393Y0315786D01*
X0787437Y0315872D01*
X0787485Y0315957D01*
X0787536Y0316039D01*
X0787590Y0316120D01*
X0787648Y0316198D01*
X0787709Y0316273D01*
X0787772Y0316346D01*
X0787839Y0316417D01*
X0787909Y0316484D01*
X0787981Y0316549D01*
X0788056Y0316610D01*
X0788134Y0316669D01*
X0788213Y0316724D01*
X0788295Y0316776D01*
X0788379Y0316824D01*
X0788465Y0316869D01*
X0788553Y0316911D01*
X0788642Y0316949D01*
X0788733Y0316983D01*
X0788825Y0317013D01*
X0788918Y0317040D01*
X0789013Y0317062D01*
X0789108Y0317081D01*
X0789204Y0317096D01*
X0789300Y0317107D01*
X0789397Y0317114D01*
X0789494Y0317117D01*
X0789591Y0317116D01*
X0789688Y0317111D01*
X0789784Y0317102D01*
X0789880Y0317089D01*
X0789976Y0317072D01*
X0790071Y0317051D01*
X0790164Y0317027D01*
X0790257Y0316998D01*
X0790349Y0316966D01*
X0790439Y0316930D01*
X0790527Y0316891D01*
X0790614Y0316847D01*
X0790699Y0316801D01*
X0790782Y0316750D01*
X0790863Y0316697D01*
X0790941Y0316640D01*
X0791018Y0316580D01*
X0791091Y0316517D01*
X0791162Y0316451D01*
X0791230Y0316382D01*
X0791296Y0316310D01*
X0791358Y0316236D01*
X0791417Y0316159D01*
X0791473Y0316080D01*
X0791526Y0315998D01*
X0791576Y0315915D01*
X0791621Y0315829D01*
X0791664Y0315742D01*
X0791703Y0315653D01*
X0791738Y0315563D01*
X0791769Y0315471D01*
X0791796Y0315378D01*
X0791820Y0315284D01*
X0791840Y0315189D01*
X0791856Y0315093D01*
X0791868Y0314997D01*
X0791876Y0314900D01*
X0791880Y0314803D01*
X0791880Y0314707D01*
X0791876Y0314610D01*
X0791868Y0314513D01*
X0791856Y0314417D01*
X0791840Y0314321D01*
X0791820Y0314226D01*
X0791796Y0314132D01*
X0791769Y0314039D01*
X0791738Y0313947D01*
X0791703Y0313857D01*
X0791664Y0313768D01*
X0791621Y0313681D01*
X0791576Y0313595D01*
X0791526Y0313512D01*
X0791473Y0313430D01*
X0791417Y0313351D01*
X0791358Y0313274D01*
X0791296Y0313200D01*
X0791230Y0313128D01*
X0791162Y0313059D01*
X0791091Y0312993D01*
X0791018Y0312930D01*
X0790941Y0312870D01*
X0790863Y0312813D01*
X0790782Y0312760D01*
X0790699Y0312709D01*
X0790614Y0312663D01*
X0790527Y0312619D01*
X0790439Y0312580D01*
X0790349Y0312544D01*
X0790257Y0312512D01*
X0790164Y0312483D01*
X0790071Y0312459D01*
X0789976Y0312438D01*
X0789880Y0312421D01*
X0789784Y0312408D01*
X0789688Y0312399D01*
X0789591Y0312394D01*
X0789494Y0312393D01*
X0789397Y0312396D01*
X0789300Y0312403D01*
X0789204Y0312414D01*
X0789108Y0312429D01*
X0789013Y0312448D01*
X0788918Y0312470D01*
X0788825Y0312497D01*
X0788733Y0312527D01*
X0788642Y0312561D01*
X0788553Y0312599D01*
X0788465Y0312641D01*
X0788379Y0312686D01*
X0788295Y0312734D01*
X0788213Y0312786D01*
X0788134Y0312841D01*
X0788056Y0312900D01*
X0787981Y0312961D01*
X0787909Y0313026D01*
X0787839Y0313093D01*
X0787772Y0313164D01*
X0787709Y0313237D01*
X0787648Y0313312D01*
X0787590Y0313390D01*
X0787536Y0313471D01*
X0787485Y0313553D01*
X0787437Y0313638D01*
X0787393Y0313724D01*
X0787352Y0313812D01*
X0787316Y0313902D01*
X0787282Y0313993D01*
X0787253Y0314085D01*
X0787227Y0314179D01*
X0787206Y0314273D01*
X0787188Y0314369D01*
X0787174Y0314465D01*
X0787164Y0314561D01*
X0787158Y0314658D01*
X0787156Y0314755D01*
X0787156Y0334440D02*
X0787158Y0334537D01*
X0787164Y0334634D01*
X0787174Y0334730D01*
X0787188Y0334826D01*
X0787206Y0334922D01*
X0787227Y0335016D01*
X0787253Y0335110D01*
X0787282Y0335202D01*
X0787316Y0335293D01*
X0787352Y0335383D01*
X0787393Y0335471D01*
X0787437Y0335557D01*
X0787485Y0335642D01*
X0787536Y0335724D01*
X0787590Y0335805D01*
X0787648Y0335883D01*
X0787709Y0335958D01*
X0787772Y0336031D01*
X0787839Y0336102D01*
X0787909Y0336169D01*
X0787981Y0336234D01*
X0788056Y0336295D01*
X0788134Y0336354D01*
X0788213Y0336409D01*
X0788295Y0336461D01*
X0788379Y0336509D01*
X0788465Y0336554D01*
X0788553Y0336596D01*
X0788642Y0336634D01*
X0788733Y0336668D01*
X0788825Y0336698D01*
X0788918Y0336725D01*
X0789013Y0336747D01*
X0789108Y0336766D01*
X0789204Y0336781D01*
X0789300Y0336792D01*
X0789397Y0336799D01*
X0789494Y0336802D01*
X0789591Y0336801D01*
X0789688Y0336796D01*
X0789784Y0336787D01*
X0789880Y0336774D01*
X0789976Y0336757D01*
X0790071Y0336736D01*
X0790164Y0336712D01*
X0790257Y0336683D01*
X0790349Y0336651D01*
X0790439Y0336615D01*
X0790527Y0336576D01*
X0790614Y0336532D01*
X0790699Y0336486D01*
X0790782Y0336435D01*
X0790863Y0336382D01*
X0790941Y0336325D01*
X0791018Y0336265D01*
X0791091Y0336202D01*
X0791162Y0336136D01*
X0791230Y0336067D01*
X0791296Y0335995D01*
X0791358Y0335921D01*
X0791417Y0335844D01*
X0791473Y0335765D01*
X0791526Y0335683D01*
X0791576Y0335600D01*
X0791621Y0335514D01*
X0791664Y0335427D01*
X0791703Y0335338D01*
X0791738Y0335248D01*
X0791769Y0335156D01*
X0791796Y0335063D01*
X0791820Y0334969D01*
X0791840Y0334874D01*
X0791856Y0334778D01*
X0791868Y0334682D01*
X0791876Y0334585D01*
X0791880Y0334488D01*
X0791880Y0334392D01*
X0791876Y0334295D01*
X0791868Y0334198D01*
X0791856Y0334102D01*
X0791840Y0334006D01*
X0791820Y0333911D01*
X0791796Y0333817D01*
X0791769Y0333724D01*
X0791738Y0333632D01*
X0791703Y0333542D01*
X0791664Y0333453D01*
X0791621Y0333366D01*
X0791576Y0333280D01*
X0791526Y0333197D01*
X0791473Y0333115D01*
X0791417Y0333036D01*
X0791358Y0332959D01*
X0791296Y0332885D01*
X0791230Y0332813D01*
X0791162Y0332744D01*
X0791091Y0332678D01*
X0791018Y0332615D01*
X0790941Y0332555D01*
X0790863Y0332498D01*
X0790782Y0332445D01*
X0790699Y0332394D01*
X0790614Y0332348D01*
X0790527Y0332304D01*
X0790439Y0332265D01*
X0790349Y0332229D01*
X0790257Y0332197D01*
X0790164Y0332168D01*
X0790071Y0332144D01*
X0789976Y0332123D01*
X0789880Y0332106D01*
X0789784Y0332093D01*
X0789688Y0332084D01*
X0789591Y0332079D01*
X0789494Y0332078D01*
X0789397Y0332081D01*
X0789300Y0332088D01*
X0789204Y0332099D01*
X0789108Y0332114D01*
X0789013Y0332133D01*
X0788918Y0332155D01*
X0788825Y0332182D01*
X0788733Y0332212D01*
X0788642Y0332246D01*
X0788553Y0332284D01*
X0788465Y0332326D01*
X0788379Y0332371D01*
X0788295Y0332419D01*
X0788213Y0332471D01*
X0788134Y0332526D01*
X0788056Y0332585D01*
X0787981Y0332646D01*
X0787909Y0332711D01*
X0787839Y0332778D01*
X0787772Y0332849D01*
X0787709Y0332922D01*
X0787648Y0332997D01*
X0787590Y0333075D01*
X0787536Y0333156D01*
X0787485Y0333238D01*
X0787437Y0333323D01*
X0787393Y0333409D01*
X0787352Y0333497D01*
X0787316Y0333587D01*
X0787282Y0333678D01*
X0787253Y0333770D01*
X0787227Y0333864D01*
X0787206Y0333958D01*
X0787188Y0334054D01*
X0787174Y0334150D01*
X0787164Y0334246D01*
X0787158Y0334343D01*
X0787156Y0334440D01*
X0777313Y0334440D02*
X0777315Y0334537D01*
X0777321Y0334634D01*
X0777331Y0334730D01*
X0777345Y0334826D01*
X0777363Y0334922D01*
X0777384Y0335016D01*
X0777410Y0335110D01*
X0777439Y0335202D01*
X0777473Y0335293D01*
X0777509Y0335383D01*
X0777550Y0335471D01*
X0777594Y0335557D01*
X0777642Y0335642D01*
X0777693Y0335724D01*
X0777747Y0335805D01*
X0777805Y0335883D01*
X0777866Y0335958D01*
X0777929Y0336031D01*
X0777996Y0336102D01*
X0778066Y0336169D01*
X0778138Y0336234D01*
X0778213Y0336295D01*
X0778291Y0336354D01*
X0778370Y0336409D01*
X0778452Y0336461D01*
X0778536Y0336509D01*
X0778622Y0336554D01*
X0778710Y0336596D01*
X0778799Y0336634D01*
X0778890Y0336668D01*
X0778982Y0336698D01*
X0779075Y0336725D01*
X0779170Y0336747D01*
X0779265Y0336766D01*
X0779361Y0336781D01*
X0779457Y0336792D01*
X0779554Y0336799D01*
X0779651Y0336802D01*
X0779748Y0336801D01*
X0779845Y0336796D01*
X0779941Y0336787D01*
X0780037Y0336774D01*
X0780133Y0336757D01*
X0780228Y0336736D01*
X0780321Y0336712D01*
X0780414Y0336683D01*
X0780506Y0336651D01*
X0780596Y0336615D01*
X0780684Y0336576D01*
X0780771Y0336532D01*
X0780856Y0336486D01*
X0780939Y0336435D01*
X0781020Y0336382D01*
X0781098Y0336325D01*
X0781175Y0336265D01*
X0781248Y0336202D01*
X0781319Y0336136D01*
X0781387Y0336067D01*
X0781453Y0335995D01*
X0781515Y0335921D01*
X0781574Y0335844D01*
X0781630Y0335765D01*
X0781683Y0335683D01*
X0781733Y0335600D01*
X0781778Y0335514D01*
X0781821Y0335427D01*
X0781860Y0335338D01*
X0781895Y0335248D01*
X0781926Y0335156D01*
X0781953Y0335063D01*
X0781977Y0334969D01*
X0781997Y0334874D01*
X0782013Y0334778D01*
X0782025Y0334682D01*
X0782033Y0334585D01*
X0782037Y0334488D01*
X0782037Y0334392D01*
X0782033Y0334295D01*
X0782025Y0334198D01*
X0782013Y0334102D01*
X0781997Y0334006D01*
X0781977Y0333911D01*
X0781953Y0333817D01*
X0781926Y0333724D01*
X0781895Y0333632D01*
X0781860Y0333542D01*
X0781821Y0333453D01*
X0781778Y0333366D01*
X0781733Y0333280D01*
X0781683Y0333197D01*
X0781630Y0333115D01*
X0781574Y0333036D01*
X0781515Y0332959D01*
X0781453Y0332885D01*
X0781387Y0332813D01*
X0781319Y0332744D01*
X0781248Y0332678D01*
X0781175Y0332615D01*
X0781098Y0332555D01*
X0781020Y0332498D01*
X0780939Y0332445D01*
X0780856Y0332394D01*
X0780771Y0332348D01*
X0780684Y0332304D01*
X0780596Y0332265D01*
X0780506Y0332229D01*
X0780414Y0332197D01*
X0780321Y0332168D01*
X0780228Y0332144D01*
X0780133Y0332123D01*
X0780037Y0332106D01*
X0779941Y0332093D01*
X0779845Y0332084D01*
X0779748Y0332079D01*
X0779651Y0332078D01*
X0779554Y0332081D01*
X0779457Y0332088D01*
X0779361Y0332099D01*
X0779265Y0332114D01*
X0779170Y0332133D01*
X0779075Y0332155D01*
X0778982Y0332182D01*
X0778890Y0332212D01*
X0778799Y0332246D01*
X0778710Y0332284D01*
X0778622Y0332326D01*
X0778536Y0332371D01*
X0778452Y0332419D01*
X0778370Y0332471D01*
X0778291Y0332526D01*
X0778213Y0332585D01*
X0778138Y0332646D01*
X0778066Y0332711D01*
X0777996Y0332778D01*
X0777929Y0332849D01*
X0777866Y0332922D01*
X0777805Y0332997D01*
X0777747Y0333075D01*
X0777693Y0333156D01*
X0777642Y0333238D01*
X0777594Y0333323D01*
X0777550Y0333409D01*
X0777509Y0333497D01*
X0777473Y0333587D01*
X0777439Y0333678D01*
X0777410Y0333770D01*
X0777384Y0333864D01*
X0777363Y0333958D01*
X0777345Y0334054D01*
X0777331Y0334150D01*
X0777321Y0334246D01*
X0777315Y0334343D01*
X0777313Y0334440D01*
X0757628Y0354125D02*
X0757630Y0354222D01*
X0757636Y0354319D01*
X0757646Y0354415D01*
X0757660Y0354511D01*
X0757678Y0354607D01*
X0757699Y0354701D01*
X0757725Y0354795D01*
X0757754Y0354887D01*
X0757788Y0354978D01*
X0757824Y0355068D01*
X0757865Y0355156D01*
X0757909Y0355242D01*
X0757957Y0355327D01*
X0758008Y0355409D01*
X0758062Y0355490D01*
X0758120Y0355568D01*
X0758181Y0355643D01*
X0758244Y0355716D01*
X0758311Y0355787D01*
X0758381Y0355854D01*
X0758453Y0355919D01*
X0758528Y0355980D01*
X0758606Y0356039D01*
X0758685Y0356094D01*
X0758767Y0356146D01*
X0758851Y0356194D01*
X0758937Y0356239D01*
X0759025Y0356281D01*
X0759114Y0356319D01*
X0759205Y0356353D01*
X0759297Y0356383D01*
X0759390Y0356410D01*
X0759485Y0356432D01*
X0759580Y0356451D01*
X0759676Y0356466D01*
X0759772Y0356477D01*
X0759869Y0356484D01*
X0759966Y0356487D01*
X0760063Y0356486D01*
X0760160Y0356481D01*
X0760256Y0356472D01*
X0760352Y0356459D01*
X0760448Y0356442D01*
X0760543Y0356421D01*
X0760636Y0356397D01*
X0760729Y0356368D01*
X0760821Y0356336D01*
X0760911Y0356300D01*
X0760999Y0356261D01*
X0761086Y0356217D01*
X0761171Y0356171D01*
X0761254Y0356120D01*
X0761335Y0356067D01*
X0761413Y0356010D01*
X0761490Y0355950D01*
X0761563Y0355887D01*
X0761634Y0355821D01*
X0761702Y0355752D01*
X0761768Y0355680D01*
X0761830Y0355606D01*
X0761889Y0355529D01*
X0761945Y0355450D01*
X0761998Y0355368D01*
X0762048Y0355285D01*
X0762093Y0355199D01*
X0762136Y0355112D01*
X0762175Y0355023D01*
X0762210Y0354933D01*
X0762241Y0354841D01*
X0762268Y0354748D01*
X0762292Y0354654D01*
X0762312Y0354559D01*
X0762328Y0354463D01*
X0762340Y0354367D01*
X0762348Y0354270D01*
X0762352Y0354173D01*
X0762352Y0354077D01*
X0762348Y0353980D01*
X0762340Y0353883D01*
X0762328Y0353787D01*
X0762312Y0353691D01*
X0762292Y0353596D01*
X0762268Y0353502D01*
X0762241Y0353409D01*
X0762210Y0353317D01*
X0762175Y0353227D01*
X0762136Y0353138D01*
X0762093Y0353051D01*
X0762048Y0352965D01*
X0761998Y0352882D01*
X0761945Y0352800D01*
X0761889Y0352721D01*
X0761830Y0352644D01*
X0761768Y0352570D01*
X0761702Y0352498D01*
X0761634Y0352429D01*
X0761563Y0352363D01*
X0761490Y0352300D01*
X0761413Y0352240D01*
X0761335Y0352183D01*
X0761254Y0352130D01*
X0761171Y0352079D01*
X0761086Y0352033D01*
X0760999Y0351989D01*
X0760911Y0351950D01*
X0760821Y0351914D01*
X0760729Y0351882D01*
X0760636Y0351853D01*
X0760543Y0351829D01*
X0760448Y0351808D01*
X0760352Y0351791D01*
X0760256Y0351778D01*
X0760160Y0351769D01*
X0760063Y0351764D01*
X0759966Y0351763D01*
X0759869Y0351766D01*
X0759772Y0351773D01*
X0759676Y0351784D01*
X0759580Y0351799D01*
X0759485Y0351818D01*
X0759390Y0351840D01*
X0759297Y0351867D01*
X0759205Y0351897D01*
X0759114Y0351931D01*
X0759025Y0351969D01*
X0758937Y0352011D01*
X0758851Y0352056D01*
X0758767Y0352104D01*
X0758685Y0352156D01*
X0758606Y0352211D01*
X0758528Y0352270D01*
X0758453Y0352331D01*
X0758381Y0352396D01*
X0758311Y0352463D01*
X0758244Y0352534D01*
X0758181Y0352607D01*
X0758120Y0352682D01*
X0758062Y0352760D01*
X0758008Y0352841D01*
X0757957Y0352923D01*
X0757909Y0353008D01*
X0757865Y0353094D01*
X0757824Y0353182D01*
X0757788Y0353272D01*
X0757754Y0353363D01*
X0757725Y0353455D01*
X0757699Y0353549D01*
X0757678Y0353643D01*
X0757660Y0353739D01*
X0757646Y0353835D01*
X0757636Y0353931D01*
X0757630Y0354028D01*
X0757628Y0354125D01*
X0777313Y0373810D02*
X0777315Y0373907D01*
X0777321Y0374004D01*
X0777331Y0374100D01*
X0777345Y0374196D01*
X0777363Y0374292D01*
X0777384Y0374386D01*
X0777410Y0374480D01*
X0777439Y0374572D01*
X0777473Y0374663D01*
X0777509Y0374753D01*
X0777550Y0374841D01*
X0777594Y0374927D01*
X0777642Y0375012D01*
X0777693Y0375094D01*
X0777747Y0375175D01*
X0777805Y0375253D01*
X0777866Y0375328D01*
X0777929Y0375401D01*
X0777996Y0375472D01*
X0778066Y0375539D01*
X0778138Y0375604D01*
X0778213Y0375665D01*
X0778291Y0375724D01*
X0778370Y0375779D01*
X0778452Y0375831D01*
X0778536Y0375879D01*
X0778622Y0375924D01*
X0778710Y0375966D01*
X0778799Y0376004D01*
X0778890Y0376038D01*
X0778982Y0376068D01*
X0779075Y0376095D01*
X0779170Y0376117D01*
X0779265Y0376136D01*
X0779361Y0376151D01*
X0779457Y0376162D01*
X0779554Y0376169D01*
X0779651Y0376172D01*
X0779748Y0376171D01*
X0779845Y0376166D01*
X0779941Y0376157D01*
X0780037Y0376144D01*
X0780133Y0376127D01*
X0780228Y0376106D01*
X0780321Y0376082D01*
X0780414Y0376053D01*
X0780506Y0376021D01*
X0780596Y0375985D01*
X0780684Y0375946D01*
X0780771Y0375902D01*
X0780856Y0375856D01*
X0780939Y0375805D01*
X0781020Y0375752D01*
X0781098Y0375695D01*
X0781175Y0375635D01*
X0781248Y0375572D01*
X0781319Y0375506D01*
X0781387Y0375437D01*
X0781453Y0375365D01*
X0781515Y0375291D01*
X0781574Y0375214D01*
X0781630Y0375135D01*
X0781683Y0375053D01*
X0781733Y0374970D01*
X0781778Y0374884D01*
X0781821Y0374797D01*
X0781860Y0374708D01*
X0781895Y0374618D01*
X0781926Y0374526D01*
X0781953Y0374433D01*
X0781977Y0374339D01*
X0781997Y0374244D01*
X0782013Y0374148D01*
X0782025Y0374052D01*
X0782033Y0373955D01*
X0782037Y0373858D01*
X0782037Y0373762D01*
X0782033Y0373665D01*
X0782025Y0373568D01*
X0782013Y0373472D01*
X0781997Y0373376D01*
X0781977Y0373281D01*
X0781953Y0373187D01*
X0781926Y0373094D01*
X0781895Y0373002D01*
X0781860Y0372912D01*
X0781821Y0372823D01*
X0781778Y0372736D01*
X0781733Y0372650D01*
X0781683Y0372567D01*
X0781630Y0372485D01*
X0781574Y0372406D01*
X0781515Y0372329D01*
X0781453Y0372255D01*
X0781387Y0372183D01*
X0781319Y0372114D01*
X0781248Y0372048D01*
X0781175Y0371985D01*
X0781098Y0371925D01*
X0781020Y0371868D01*
X0780939Y0371815D01*
X0780856Y0371764D01*
X0780771Y0371718D01*
X0780684Y0371674D01*
X0780596Y0371635D01*
X0780506Y0371599D01*
X0780414Y0371567D01*
X0780321Y0371538D01*
X0780228Y0371514D01*
X0780133Y0371493D01*
X0780037Y0371476D01*
X0779941Y0371463D01*
X0779845Y0371454D01*
X0779748Y0371449D01*
X0779651Y0371448D01*
X0779554Y0371451D01*
X0779457Y0371458D01*
X0779361Y0371469D01*
X0779265Y0371484D01*
X0779170Y0371503D01*
X0779075Y0371525D01*
X0778982Y0371552D01*
X0778890Y0371582D01*
X0778799Y0371616D01*
X0778710Y0371654D01*
X0778622Y0371696D01*
X0778536Y0371741D01*
X0778452Y0371789D01*
X0778370Y0371841D01*
X0778291Y0371896D01*
X0778213Y0371955D01*
X0778138Y0372016D01*
X0778066Y0372081D01*
X0777996Y0372148D01*
X0777929Y0372219D01*
X0777866Y0372292D01*
X0777805Y0372367D01*
X0777747Y0372445D01*
X0777693Y0372526D01*
X0777642Y0372608D01*
X0777594Y0372693D01*
X0777550Y0372779D01*
X0777509Y0372867D01*
X0777473Y0372957D01*
X0777439Y0373048D01*
X0777410Y0373140D01*
X0777384Y0373234D01*
X0777363Y0373328D01*
X0777345Y0373424D01*
X0777331Y0373520D01*
X0777321Y0373616D01*
X0777315Y0373713D01*
X0777313Y0373810D01*
X0787156Y0373810D02*
X0787158Y0373907D01*
X0787164Y0374004D01*
X0787174Y0374100D01*
X0787188Y0374196D01*
X0787206Y0374292D01*
X0787227Y0374386D01*
X0787253Y0374480D01*
X0787282Y0374572D01*
X0787316Y0374663D01*
X0787352Y0374753D01*
X0787393Y0374841D01*
X0787437Y0374927D01*
X0787485Y0375012D01*
X0787536Y0375094D01*
X0787590Y0375175D01*
X0787648Y0375253D01*
X0787709Y0375328D01*
X0787772Y0375401D01*
X0787839Y0375472D01*
X0787909Y0375539D01*
X0787981Y0375604D01*
X0788056Y0375665D01*
X0788134Y0375724D01*
X0788213Y0375779D01*
X0788295Y0375831D01*
X0788379Y0375879D01*
X0788465Y0375924D01*
X0788553Y0375966D01*
X0788642Y0376004D01*
X0788733Y0376038D01*
X0788825Y0376068D01*
X0788918Y0376095D01*
X0789013Y0376117D01*
X0789108Y0376136D01*
X0789204Y0376151D01*
X0789300Y0376162D01*
X0789397Y0376169D01*
X0789494Y0376172D01*
X0789591Y0376171D01*
X0789688Y0376166D01*
X0789784Y0376157D01*
X0789880Y0376144D01*
X0789976Y0376127D01*
X0790071Y0376106D01*
X0790164Y0376082D01*
X0790257Y0376053D01*
X0790349Y0376021D01*
X0790439Y0375985D01*
X0790527Y0375946D01*
X0790614Y0375902D01*
X0790699Y0375856D01*
X0790782Y0375805D01*
X0790863Y0375752D01*
X0790941Y0375695D01*
X0791018Y0375635D01*
X0791091Y0375572D01*
X0791162Y0375506D01*
X0791230Y0375437D01*
X0791296Y0375365D01*
X0791358Y0375291D01*
X0791417Y0375214D01*
X0791473Y0375135D01*
X0791526Y0375053D01*
X0791576Y0374970D01*
X0791621Y0374884D01*
X0791664Y0374797D01*
X0791703Y0374708D01*
X0791738Y0374618D01*
X0791769Y0374526D01*
X0791796Y0374433D01*
X0791820Y0374339D01*
X0791840Y0374244D01*
X0791856Y0374148D01*
X0791868Y0374052D01*
X0791876Y0373955D01*
X0791880Y0373858D01*
X0791880Y0373762D01*
X0791876Y0373665D01*
X0791868Y0373568D01*
X0791856Y0373472D01*
X0791840Y0373376D01*
X0791820Y0373281D01*
X0791796Y0373187D01*
X0791769Y0373094D01*
X0791738Y0373002D01*
X0791703Y0372912D01*
X0791664Y0372823D01*
X0791621Y0372736D01*
X0791576Y0372650D01*
X0791526Y0372567D01*
X0791473Y0372485D01*
X0791417Y0372406D01*
X0791358Y0372329D01*
X0791296Y0372255D01*
X0791230Y0372183D01*
X0791162Y0372114D01*
X0791091Y0372048D01*
X0791018Y0371985D01*
X0790941Y0371925D01*
X0790863Y0371868D01*
X0790782Y0371815D01*
X0790699Y0371764D01*
X0790614Y0371718D01*
X0790527Y0371674D01*
X0790439Y0371635D01*
X0790349Y0371599D01*
X0790257Y0371567D01*
X0790164Y0371538D01*
X0790071Y0371514D01*
X0789976Y0371493D01*
X0789880Y0371476D01*
X0789784Y0371463D01*
X0789688Y0371454D01*
X0789591Y0371449D01*
X0789494Y0371448D01*
X0789397Y0371451D01*
X0789300Y0371458D01*
X0789204Y0371469D01*
X0789108Y0371484D01*
X0789013Y0371503D01*
X0788918Y0371525D01*
X0788825Y0371552D01*
X0788733Y0371582D01*
X0788642Y0371616D01*
X0788553Y0371654D01*
X0788465Y0371696D01*
X0788379Y0371741D01*
X0788295Y0371789D01*
X0788213Y0371841D01*
X0788134Y0371896D01*
X0788056Y0371955D01*
X0787981Y0372016D01*
X0787909Y0372081D01*
X0787839Y0372148D01*
X0787772Y0372219D01*
X0787709Y0372292D01*
X0787648Y0372367D01*
X0787590Y0372445D01*
X0787536Y0372526D01*
X0787485Y0372608D01*
X0787437Y0372693D01*
X0787393Y0372779D01*
X0787352Y0372867D01*
X0787316Y0372957D01*
X0787282Y0373048D01*
X0787253Y0373140D01*
X0787227Y0373234D01*
X0787206Y0373328D01*
X0787188Y0373424D01*
X0787174Y0373520D01*
X0787164Y0373616D01*
X0787158Y0373713D01*
X0787156Y0373810D01*
X0808415Y0397433D02*
X0808415Y0003732D01*
X1261171Y0003732D01*
X1261171Y0397433D01*
X0808415Y0397433D01*
X0650589Y0257370D02*
X0650591Y0257528D01*
X0650597Y0257686D01*
X0650607Y0257844D01*
X0650621Y0258002D01*
X0650639Y0258159D01*
X0650660Y0258316D01*
X0650686Y0258472D01*
X0650716Y0258628D01*
X0650749Y0258783D01*
X0650787Y0258936D01*
X0650828Y0259089D01*
X0650873Y0259241D01*
X0650922Y0259392D01*
X0650975Y0259541D01*
X0651031Y0259689D01*
X0651091Y0259835D01*
X0651155Y0259980D01*
X0651223Y0260123D01*
X0651294Y0260265D01*
X0651368Y0260405D01*
X0651446Y0260542D01*
X0651528Y0260678D01*
X0651612Y0260812D01*
X0651701Y0260943D01*
X0651792Y0261072D01*
X0651887Y0261199D01*
X0651984Y0261324D01*
X0652085Y0261446D01*
X0652189Y0261565D01*
X0652296Y0261682D01*
X0652406Y0261796D01*
X0652519Y0261907D01*
X0652634Y0262016D01*
X0652752Y0262121D01*
X0652873Y0262223D01*
X0652996Y0262323D01*
X0653122Y0262419D01*
X0653250Y0262512D01*
X0653380Y0262602D01*
X0653513Y0262688D01*
X0653648Y0262772D01*
X0653784Y0262851D01*
X0653923Y0262928D01*
X0654064Y0263000D01*
X0654206Y0263070D01*
X0654350Y0263135D01*
X0654496Y0263197D01*
X0654643Y0263255D01*
X0654792Y0263310D01*
X0654942Y0263361D01*
X0655093Y0263408D01*
X0655245Y0263451D01*
X0655398Y0263490D01*
X0655553Y0263526D01*
X0655708Y0263557D01*
X0655864Y0263585D01*
X0656020Y0263609D01*
X0656177Y0263629D01*
X0656335Y0263645D01*
X0656492Y0263657D01*
X0656651Y0263665D01*
X0656809Y0263669D01*
X0656967Y0263669D01*
X0657125Y0263665D01*
X0657284Y0263657D01*
X0657441Y0263645D01*
X0657599Y0263629D01*
X0657756Y0263609D01*
X0657912Y0263585D01*
X0658068Y0263557D01*
X0658223Y0263526D01*
X0658378Y0263490D01*
X0658531Y0263451D01*
X0658683Y0263408D01*
X0658834Y0263361D01*
X0658984Y0263310D01*
X0659133Y0263255D01*
X0659280Y0263197D01*
X0659426Y0263135D01*
X0659570Y0263070D01*
X0659712Y0263000D01*
X0659853Y0262928D01*
X0659992Y0262851D01*
X0660128Y0262772D01*
X0660263Y0262688D01*
X0660396Y0262602D01*
X0660526Y0262512D01*
X0660654Y0262419D01*
X0660780Y0262323D01*
X0660903Y0262223D01*
X0661024Y0262121D01*
X0661142Y0262016D01*
X0661257Y0261907D01*
X0661370Y0261796D01*
X0661480Y0261682D01*
X0661587Y0261565D01*
X0661691Y0261446D01*
X0661792Y0261324D01*
X0661889Y0261199D01*
X0661984Y0261072D01*
X0662075Y0260943D01*
X0662164Y0260812D01*
X0662248Y0260678D01*
X0662330Y0260542D01*
X0662408Y0260405D01*
X0662482Y0260265D01*
X0662553Y0260123D01*
X0662621Y0259980D01*
X0662685Y0259835D01*
X0662745Y0259689D01*
X0662801Y0259541D01*
X0662854Y0259392D01*
X0662903Y0259241D01*
X0662948Y0259089D01*
X0662989Y0258936D01*
X0663027Y0258783D01*
X0663060Y0258628D01*
X0663090Y0258472D01*
X0663116Y0258316D01*
X0663137Y0258159D01*
X0663155Y0258002D01*
X0663169Y0257844D01*
X0663179Y0257686D01*
X0663185Y0257528D01*
X0663187Y0257370D01*
X0663185Y0257212D01*
X0663179Y0257054D01*
X0663169Y0256896D01*
X0663155Y0256738D01*
X0663137Y0256581D01*
X0663116Y0256424D01*
X0663090Y0256268D01*
X0663060Y0256112D01*
X0663027Y0255957D01*
X0662989Y0255804D01*
X0662948Y0255651D01*
X0662903Y0255499D01*
X0662854Y0255348D01*
X0662801Y0255199D01*
X0662745Y0255051D01*
X0662685Y0254905D01*
X0662621Y0254760D01*
X0662553Y0254617D01*
X0662482Y0254475D01*
X0662408Y0254335D01*
X0662330Y0254198D01*
X0662248Y0254062D01*
X0662164Y0253928D01*
X0662075Y0253797D01*
X0661984Y0253668D01*
X0661889Y0253541D01*
X0661792Y0253416D01*
X0661691Y0253294D01*
X0661587Y0253175D01*
X0661480Y0253058D01*
X0661370Y0252944D01*
X0661257Y0252833D01*
X0661142Y0252724D01*
X0661024Y0252619D01*
X0660903Y0252517D01*
X0660780Y0252417D01*
X0660654Y0252321D01*
X0660526Y0252228D01*
X0660396Y0252138D01*
X0660263Y0252052D01*
X0660128Y0251968D01*
X0659992Y0251889D01*
X0659853Y0251812D01*
X0659712Y0251740D01*
X0659570Y0251670D01*
X0659426Y0251605D01*
X0659280Y0251543D01*
X0659133Y0251485D01*
X0658984Y0251430D01*
X0658834Y0251379D01*
X0658683Y0251332D01*
X0658531Y0251289D01*
X0658378Y0251250D01*
X0658223Y0251214D01*
X0658068Y0251183D01*
X0657912Y0251155D01*
X0657756Y0251131D01*
X0657599Y0251111D01*
X0657441Y0251095D01*
X0657284Y0251083D01*
X0657125Y0251075D01*
X0656967Y0251071D01*
X0656809Y0251071D01*
X0656651Y0251075D01*
X0656492Y0251083D01*
X0656335Y0251095D01*
X0656177Y0251111D01*
X0656020Y0251131D01*
X0655864Y0251155D01*
X0655708Y0251183D01*
X0655553Y0251214D01*
X0655398Y0251250D01*
X0655245Y0251289D01*
X0655093Y0251332D01*
X0654942Y0251379D01*
X0654792Y0251430D01*
X0654643Y0251485D01*
X0654496Y0251543D01*
X0654350Y0251605D01*
X0654206Y0251670D01*
X0654064Y0251740D01*
X0653923Y0251812D01*
X0653784Y0251889D01*
X0653648Y0251968D01*
X0653513Y0252052D01*
X0653380Y0252138D01*
X0653250Y0252228D01*
X0653122Y0252321D01*
X0652996Y0252417D01*
X0652873Y0252517D01*
X0652752Y0252619D01*
X0652634Y0252724D01*
X0652519Y0252833D01*
X0652406Y0252944D01*
X0652296Y0253058D01*
X0652189Y0253175D01*
X0652085Y0253294D01*
X0651984Y0253416D01*
X0651887Y0253541D01*
X0651792Y0253668D01*
X0651701Y0253797D01*
X0651612Y0253928D01*
X0651528Y0254062D01*
X0651446Y0254198D01*
X0651368Y0254335D01*
X0651294Y0254475D01*
X0651223Y0254617D01*
X0651155Y0254760D01*
X0651091Y0254905D01*
X0651031Y0255051D01*
X0650975Y0255199D01*
X0650922Y0255348D01*
X0650873Y0255499D01*
X0650828Y0255651D01*
X0650787Y0255804D01*
X0650749Y0255957D01*
X0650716Y0256112D01*
X0650686Y0256268D01*
X0650660Y0256424D01*
X0650639Y0256581D01*
X0650621Y0256738D01*
X0650607Y0256896D01*
X0650597Y0257054D01*
X0650591Y0257212D01*
X0650589Y0257370D01*
X0546589Y0257370D02*
X0546591Y0257528D01*
X0546597Y0257686D01*
X0546607Y0257844D01*
X0546621Y0258002D01*
X0546639Y0258159D01*
X0546660Y0258316D01*
X0546686Y0258472D01*
X0546716Y0258628D01*
X0546749Y0258783D01*
X0546787Y0258936D01*
X0546828Y0259089D01*
X0546873Y0259241D01*
X0546922Y0259392D01*
X0546975Y0259541D01*
X0547031Y0259689D01*
X0547091Y0259835D01*
X0547155Y0259980D01*
X0547223Y0260123D01*
X0547294Y0260265D01*
X0547368Y0260405D01*
X0547446Y0260542D01*
X0547528Y0260678D01*
X0547612Y0260812D01*
X0547701Y0260943D01*
X0547792Y0261072D01*
X0547887Y0261199D01*
X0547984Y0261324D01*
X0548085Y0261446D01*
X0548189Y0261565D01*
X0548296Y0261682D01*
X0548406Y0261796D01*
X0548519Y0261907D01*
X0548634Y0262016D01*
X0548752Y0262121D01*
X0548873Y0262223D01*
X0548996Y0262323D01*
X0549122Y0262419D01*
X0549250Y0262512D01*
X0549380Y0262602D01*
X0549513Y0262688D01*
X0549648Y0262772D01*
X0549784Y0262851D01*
X0549923Y0262928D01*
X0550064Y0263000D01*
X0550206Y0263070D01*
X0550350Y0263135D01*
X0550496Y0263197D01*
X0550643Y0263255D01*
X0550792Y0263310D01*
X0550942Y0263361D01*
X0551093Y0263408D01*
X0551245Y0263451D01*
X0551398Y0263490D01*
X0551553Y0263526D01*
X0551708Y0263557D01*
X0551864Y0263585D01*
X0552020Y0263609D01*
X0552177Y0263629D01*
X0552335Y0263645D01*
X0552492Y0263657D01*
X0552651Y0263665D01*
X0552809Y0263669D01*
X0552967Y0263669D01*
X0553125Y0263665D01*
X0553284Y0263657D01*
X0553441Y0263645D01*
X0553599Y0263629D01*
X0553756Y0263609D01*
X0553912Y0263585D01*
X0554068Y0263557D01*
X0554223Y0263526D01*
X0554378Y0263490D01*
X0554531Y0263451D01*
X0554683Y0263408D01*
X0554834Y0263361D01*
X0554984Y0263310D01*
X0555133Y0263255D01*
X0555280Y0263197D01*
X0555426Y0263135D01*
X0555570Y0263070D01*
X0555712Y0263000D01*
X0555853Y0262928D01*
X0555992Y0262851D01*
X0556128Y0262772D01*
X0556263Y0262688D01*
X0556396Y0262602D01*
X0556526Y0262512D01*
X0556654Y0262419D01*
X0556780Y0262323D01*
X0556903Y0262223D01*
X0557024Y0262121D01*
X0557142Y0262016D01*
X0557257Y0261907D01*
X0557370Y0261796D01*
X0557480Y0261682D01*
X0557587Y0261565D01*
X0557691Y0261446D01*
X0557792Y0261324D01*
X0557889Y0261199D01*
X0557984Y0261072D01*
X0558075Y0260943D01*
X0558164Y0260812D01*
X0558248Y0260678D01*
X0558330Y0260542D01*
X0558408Y0260405D01*
X0558482Y0260265D01*
X0558553Y0260123D01*
X0558621Y0259980D01*
X0558685Y0259835D01*
X0558745Y0259689D01*
X0558801Y0259541D01*
X0558854Y0259392D01*
X0558903Y0259241D01*
X0558948Y0259089D01*
X0558989Y0258936D01*
X0559027Y0258783D01*
X0559060Y0258628D01*
X0559090Y0258472D01*
X0559116Y0258316D01*
X0559137Y0258159D01*
X0559155Y0258002D01*
X0559169Y0257844D01*
X0559179Y0257686D01*
X0559185Y0257528D01*
X0559187Y0257370D01*
X0559185Y0257212D01*
X0559179Y0257054D01*
X0559169Y0256896D01*
X0559155Y0256738D01*
X0559137Y0256581D01*
X0559116Y0256424D01*
X0559090Y0256268D01*
X0559060Y0256112D01*
X0559027Y0255957D01*
X0558989Y0255804D01*
X0558948Y0255651D01*
X0558903Y0255499D01*
X0558854Y0255348D01*
X0558801Y0255199D01*
X0558745Y0255051D01*
X0558685Y0254905D01*
X0558621Y0254760D01*
X0558553Y0254617D01*
X0558482Y0254475D01*
X0558408Y0254335D01*
X0558330Y0254198D01*
X0558248Y0254062D01*
X0558164Y0253928D01*
X0558075Y0253797D01*
X0557984Y0253668D01*
X0557889Y0253541D01*
X0557792Y0253416D01*
X0557691Y0253294D01*
X0557587Y0253175D01*
X0557480Y0253058D01*
X0557370Y0252944D01*
X0557257Y0252833D01*
X0557142Y0252724D01*
X0557024Y0252619D01*
X0556903Y0252517D01*
X0556780Y0252417D01*
X0556654Y0252321D01*
X0556526Y0252228D01*
X0556396Y0252138D01*
X0556263Y0252052D01*
X0556128Y0251968D01*
X0555992Y0251889D01*
X0555853Y0251812D01*
X0555712Y0251740D01*
X0555570Y0251670D01*
X0555426Y0251605D01*
X0555280Y0251543D01*
X0555133Y0251485D01*
X0554984Y0251430D01*
X0554834Y0251379D01*
X0554683Y0251332D01*
X0554531Y0251289D01*
X0554378Y0251250D01*
X0554223Y0251214D01*
X0554068Y0251183D01*
X0553912Y0251155D01*
X0553756Y0251131D01*
X0553599Y0251111D01*
X0553441Y0251095D01*
X0553284Y0251083D01*
X0553125Y0251075D01*
X0552967Y0251071D01*
X0552809Y0251071D01*
X0552651Y0251075D01*
X0552492Y0251083D01*
X0552335Y0251095D01*
X0552177Y0251111D01*
X0552020Y0251131D01*
X0551864Y0251155D01*
X0551708Y0251183D01*
X0551553Y0251214D01*
X0551398Y0251250D01*
X0551245Y0251289D01*
X0551093Y0251332D01*
X0550942Y0251379D01*
X0550792Y0251430D01*
X0550643Y0251485D01*
X0550496Y0251543D01*
X0550350Y0251605D01*
X0550206Y0251670D01*
X0550064Y0251740D01*
X0549923Y0251812D01*
X0549784Y0251889D01*
X0549648Y0251968D01*
X0549513Y0252052D01*
X0549380Y0252138D01*
X0549250Y0252228D01*
X0549122Y0252321D01*
X0548996Y0252417D01*
X0548873Y0252517D01*
X0548752Y0252619D01*
X0548634Y0252724D01*
X0548519Y0252833D01*
X0548406Y0252944D01*
X0548296Y0253058D01*
X0548189Y0253175D01*
X0548085Y0253294D01*
X0547984Y0253416D01*
X0547887Y0253541D01*
X0547792Y0253668D01*
X0547701Y0253797D01*
X0547612Y0253928D01*
X0547528Y0254062D01*
X0547446Y0254198D01*
X0547368Y0254335D01*
X0547294Y0254475D01*
X0547223Y0254617D01*
X0547155Y0254760D01*
X0547091Y0254905D01*
X0547031Y0255051D01*
X0546975Y0255199D01*
X0546922Y0255348D01*
X0546873Y0255499D01*
X0546828Y0255651D01*
X0546787Y0255804D01*
X0546749Y0255957D01*
X0546716Y0256112D01*
X0546686Y0256268D01*
X0546660Y0256424D01*
X0546639Y0256581D01*
X0546621Y0256738D01*
X0546607Y0256896D01*
X0546597Y0257054D01*
X0546591Y0257212D01*
X0546589Y0257370D01*
X0442589Y0257370D02*
X0442591Y0257528D01*
X0442597Y0257686D01*
X0442607Y0257844D01*
X0442621Y0258002D01*
X0442639Y0258159D01*
X0442660Y0258316D01*
X0442686Y0258472D01*
X0442716Y0258628D01*
X0442749Y0258783D01*
X0442787Y0258936D01*
X0442828Y0259089D01*
X0442873Y0259241D01*
X0442922Y0259392D01*
X0442975Y0259541D01*
X0443031Y0259689D01*
X0443091Y0259835D01*
X0443155Y0259980D01*
X0443223Y0260123D01*
X0443294Y0260265D01*
X0443368Y0260405D01*
X0443446Y0260542D01*
X0443528Y0260678D01*
X0443612Y0260812D01*
X0443701Y0260943D01*
X0443792Y0261072D01*
X0443887Y0261199D01*
X0443984Y0261324D01*
X0444085Y0261446D01*
X0444189Y0261565D01*
X0444296Y0261682D01*
X0444406Y0261796D01*
X0444519Y0261907D01*
X0444634Y0262016D01*
X0444752Y0262121D01*
X0444873Y0262223D01*
X0444996Y0262323D01*
X0445122Y0262419D01*
X0445250Y0262512D01*
X0445380Y0262602D01*
X0445513Y0262688D01*
X0445648Y0262772D01*
X0445784Y0262851D01*
X0445923Y0262928D01*
X0446064Y0263000D01*
X0446206Y0263070D01*
X0446350Y0263135D01*
X0446496Y0263197D01*
X0446643Y0263255D01*
X0446792Y0263310D01*
X0446942Y0263361D01*
X0447093Y0263408D01*
X0447245Y0263451D01*
X0447398Y0263490D01*
X0447553Y0263526D01*
X0447708Y0263557D01*
X0447864Y0263585D01*
X0448020Y0263609D01*
X0448177Y0263629D01*
X0448335Y0263645D01*
X0448492Y0263657D01*
X0448651Y0263665D01*
X0448809Y0263669D01*
X0448967Y0263669D01*
X0449125Y0263665D01*
X0449284Y0263657D01*
X0449441Y0263645D01*
X0449599Y0263629D01*
X0449756Y0263609D01*
X0449912Y0263585D01*
X0450068Y0263557D01*
X0450223Y0263526D01*
X0450378Y0263490D01*
X0450531Y0263451D01*
X0450683Y0263408D01*
X0450834Y0263361D01*
X0450984Y0263310D01*
X0451133Y0263255D01*
X0451280Y0263197D01*
X0451426Y0263135D01*
X0451570Y0263070D01*
X0451712Y0263000D01*
X0451853Y0262928D01*
X0451992Y0262851D01*
X0452128Y0262772D01*
X0452263Y0262688D01*
X0452396Y0262602D01*
X0452526Y0262512D01*
X0452654Y0262419D01*
X0452780Y0262323D01*
X0452903Y0262223D01*
X0453024Y0262121D01*
X0453142Y0262016D01*
X0453257Y0261907D01*
X0453370Y0261796D01*
X0453480Y0261682D01*
X0453587Y0261565D01*
X0453691Y0261446D01*
X0453792Y0261324D01*
X0453889Y0261199D01*
X0453984Y0261072D01*
X0454075Y0260943D01*
X0454164Y0260812D01*
X0454248Y0260678D01*
X0454330Y0260542D01*
X0454408Y0260405D01*
X0454482Y0260265D01*
X0454553Y0260123D01*
X0454621Y0259980D01*
X0454685Y0259835D01*
X0454745Y0259689D01*
X0454801Y0259541D01*
X0454854Y0259392D01*
X0454903Y0259241D01*
X0454948Y0259089D01*
X0454989Y0258936D01*
X0455027Y0258783D01*
X0455060Y0258628D01*
X0455090Y0258472D01*
X0455116Y0258316D01*
X0455137Y0258159D01*
X0455155Y0258002D01*
X0455169Y0257844D01*
X0455179Y0257686D01*
X0455185Y0257528D01*
X0455187Y0257370D01*
X0455185Y0257212D01*
X0455179Y0257054D01*
X0455169Y0256896D01*
X0455155Y0256738D01*
X0455137Y0256581D01*
X0455116Y0256424D01*
X0455090Y0256268D01*
X0455060Y0256112D01*
X0455027Y0255957D01*
X0454989Y0255804D01*
X0454948Y0255651D01*
X0454903Y0255499D01*
X0454854Y0255348D01*
X0454801Y0255199D01*
X0454745Y0255051D01*
X0454685Y0254905D01*
X0454621Y0254760D01*
X0454553Y0254617D01*
X0454482Y0254475D01*
X0454408Y0254335D01*
X0454330Y0254198D01*
X0454248Y0254062D01*
X0454164Y0253928D01*
X0454075Y0253797D01*
X0453984Y0253668D01*
X0453889Y0253541D01*
X0453792Y0253416D01*
X0453691Y0253294D01*
X0453587Y0253175D01*
X0453480Y0253058D01*
X0453370Y0252944D01*
X0453257Y0252833D01*
X0453142Y0252724D01*
X0453024Y0252619D01*
X0452903Y0252517D01*
X0452780Y0252417D01*
X0452654Y0252321D01*
X0452526Y0252228D01*
X0452396Y0252138D01*
X0452263Y0252052D01*
X0452128Y0251968D01*
X0451992Y0251889D01*
X0451853Y0251812D01*
X0451712Y0251740D01*
X0451570Y0251670D01*
X0451426Y0251605D01*
X0451280Y0251543D01*
X0451133Y0251485D01*
X0450984Y0251430D01*
X0450834Y0251379D01*
X0450683Y0251332D01*
X0450531Y0251289D01*
X0450378Y0251250D01*
X0450223Y0251214D01*
X0450068Y0251183D01*
X0449912Y0251155D01*
X0449756Y0251131D01*
X0449599Y0251111D01*
X0449441Y0251095D01*
X0449284Y0251083D01*
X0449125Y0251075D01*
X0448967Y0251071D01*
X0448809Y0251071D01*
X0448651Y0251075D01*
X0448492Y0251083D01*
X0448335Y0251095D01*
X0448177Y0251111D01*
X0448020Y0251131D01*
X0447864Y0251155D01*
X0447708Y0251183D01*
X0447553Y0251214D01*
X0447398Y0251250D01*
X0447245Y0251289D01*
X0447093Y0251332D01*
X0446942Y0251379D01*
X0446792Y0251430D01*
X0446643Y0251485D01*
X0446496Y0251543D01*
X0446350Y0251605D01*
X0446206Y0251670D01*
X0446064Y0251740D01*
X0445923Y0251812D01*
X0445784Y0251889D01*
X0445648Y0251968D01*
X0445513Y0252052D01*
X0445380Y0252138D01*
X0445250Y0252228D01*
X0445122Y0252321D01*
X0444996Y0252417D01*
X0444873Y0252517D01*
X0444752Y0252619D01*
X0444634Y0252724D01*
X0444519Y0252833D01*
X0444406Y0252944D01*
X0444296Y0253058D01*
X0444189Y0253175D01*
X0444085Y0253294D01*
X0443984Y0253416D01*
X0443887Y0253541D01*
X0443792Y0253668D01*
X0443701Y0253797D01*
X0443612Y0253928D01*
X0443528Y0254062D01*
X0443446Y0254198D01*
X0443368Y0254335D01*
X0443294Y0254475D01*
X0443223Y0254617D01*
X0443155Y0254760D01*
X0443091Y0254905D01*
X0443031Y0255051D01*
X0442975Y0255199D01*
X0442922Y0255348D01*
X0442873Y0255499D01*
X0442828Y0255651D01*
X0442787Y0255804D01*
X0442749Y0255957D01*
X0442716Y0256112D01*
X0442686Y0256268D01*
X0442660Y0256424D01*
X0442639Y0256581D01*
X0442621Y0256738D01*
X0442607Y0256896D01*
X0442597Y0257054D01*
X0442591Y0257212D01*
X0442589Y0257370D01*
X0338589Y0257370D02*
X0338591Y0257528D01*
X0338597Y0257686D01*
X0338607Y0257844D01*
X0338621Y0258002D01*
X0338639Y0258159D01*
X0338660Y0258316D01*
X0338686Y0258472D01*
X0338716Y0258628D01*
X0338749Y0258783D01*
X0338787Y0258936D01*
X0338828Y0259089D01*
X0338873Y0259241D01*
X0338922Y0259392D01*
X0338975Y0259541D01*
X0339031Y0259689D01*
X0339091Y0259835D01*
X0339155Y0259980D01*
X0339223Y0260123D01*
X0339294Y0260265D01*
X0339368Y0260405D01*
X0339446Y0260542D01*
X0339528Y0260678D01*
X0339612Y0260812D01*
X0339701Y0260943D01*
X0339792Y0261072D01*
X0339887Y0261199D01*
X0339984Y0261324D01*
X0340085Y0261446D01*
X0340189Y0261565D01*
X0340296Y0261682D01*
X0340406Y0261796D01*
X0340519Y0261907D01*
X0340634Y0262016D01*
X0340752Y0262121D01*
X0340873Y0262223D01*
X0340996Y0262323D01*
X0341122Y0262419D01*
X0341250Y0262512D01*
X0341380Y0262602D01*
X0341513Y0262688D01*
X0341648Y0262772D01*
X0341784Y0262851D01*
X0341923Y0262928D01*
X0342064Y0263000D01*
X0342206Y0263070D01*
X0342350Y0263135D01*
X0342496Y0263197D01*
X0342643Y0263255D01*
X0342792Y0263310D01*
X0342942Y0263361D01*
X0343093Y0263408D01*
X0343245Y0263451D01*
X0343398Y0263490D01*
X0343553Y0263526D01*
X0343708Y0263557D01*
X0343864Y0263585D01*
X0344020Y0263609D01*
X0344177Y0263629D01*
X0344335Y0263645D01*
X0344492Y0263657D01*
X0344651Y0263665D01*
X0344809Y0263669D01*
X0344967Y0263669D01*
X0345125Y0263665D01*
X0345284Y0263657D01*
X0345441Y0263645D01*
X0345599Y0263629D01*
X0345756Y0263609D01*
X0345912Y0263585D01*
X0346068Y0263557D01*
X0346223Y0263526D01*
X0346378Y0263490D01*
X0346531Y0263451D01*
X0346683Y0263408D01*
X0346834Y0263361D01*
X0346984Y0263310D01*
X0347133Y0263255D01*
X0347280Y0263197D01*
X0347426Y0263135D01*
X0347570Y0263070D01*
X0347712Y0263000D01*
X0347853Y0262928D01*
X0347992Y0262851D01*
X0348128Y0262772D01*
X0348263Y0262688D01*
X0348396Y0262602D01*
X0348526Y0262512D01*
X0348654Y0262419D01*
X0348780Y0262323D01*
X0348903Y0262223D01*
X0349024Y0262121D01*
X0349142Y0262016D01*
X0349257Y0261907D01*
X0349370Y0261796D01*
X0349480Y0261682D01*
X0349587Y0261565D01*
X0349691Y0261446D01*
X0349792Y0261324D01*
X0349889Y0261199D01*
X0349984Y0261072D01*
X0350075Y0260943D01*
X0350164Y0260812D01*
X0350248Y0260678D01*
X0350330Y0260542D01*
X0350408Y0260405D01*
X0350482Y0260265D01*
X0350553Y0260123D01*
X0350621Y0259980D01*
X0350685Y0259835D01*
X0350745Y0259689D01*
X0350801Y0259541D01*
X0350854Y0259392D01*
X0350903Y0259241D01*
X0350948Y0259089D01*
X0350989Y0258936D01*
X0351027Y0258783D01*
X0351060Y0258628D01*
X0351090Y0258472D01*
X0351116Y0258316D01*
X0351137Y0258159D01*
X0351155Y0258002D01*
X0351169Y0257844D01*
X0351179Y0257686D01*
X0351185Y0257528D01*
X0351187Y0257370D01*
X0351185Y0257212D01*
X0351179Y0257054D01*
X0351169Y0256896D01*
X0351155Y0256738D01*
X0351137Y0256581D01*
X0351116Y0256424D01*
X0351090Y0256268D01*
X0351060Y0256112D01*
X0351027Y0255957D01*
X0350989Y0255804D01*
X0350948Y0255651D01*
X0350903Y0255499D01*
X0350854Y0255348D01*
X0350801Y0255199D01*
X0350745Y0255051D01*
X0350685Y0254905D01*
X0350621Y0254760D01*
X0350553Y0254617D01*
X0350482Y0254475D01*
X0350408Y0254335D01*
X0350330Y0254198D01*
X0350248Y0254062D01*
X0350164Y0253928D01*
X0350075Y0253797D01*
X0349984Y0253668D01*
X0349889Y0253541D01*
X0349792Y0253416D01*
X0349691Y0253294D01*
X0349587Y0253175D01*
X0349480Y0253058D01*
X0349370Y0252944D01*
X0349257Y0252833D01*
X0349142Y0252724D01*
X0349024Y0252619D01*
X0348903Y0252517D01*
X0348780Y0252417D01*
X0348654Y0252321D01*
X0348526Y0252228D01*
X0348396Y0252138D01*
X0348263Y0252052D01*
X0348128Y0251968D01*
X0347992Y0251889D01*
X0347853Y0251812D01*
X0347712Y0251740D01*
X0347570Y0251670D01*
X0347426Y0251605D01*
X0347280Y0251543D01*
X0347133Y0251485D01*
X0346984Y0251430D01*
X0346834Y0251379D01*
X0346683Y0251332D01*
X0346531Y0251289D01*
X0346378Y0251250D01*
X0346223Y0251214D01*
X0346068Y0251183D01*
X0345912Y0251155D01*
X0345756Y0251131D01*
X0345599Y0251111D01*
X0345441Y0251095D01*
X0345284Y0251083D01*
X0345125Y0251075D01*
X0344967Y0251071D01*
X0344809Y0251071D01*
X0344651Y0251075D01*
X0344492Y0251083D01*
X0344335Y0251095D01*
X0344177Y0251111D01*
X0344020Y0251131D01*
X0343864Y0251155D01*
X0343708Y0251183D01*
X0343553Y0251214D01*
X0343398Y0251250D01*
X0343245Y0251289D01*
X0343093Y0251332D01*
X0342942Y0251379D01*
X0342792Y0251430D01*
X0342643Y0251485D01*
X0342496Y0251543D01*
X0342350Y0251605D01*
X0342206Y0251670D01*
X0342064Y0251740D01*
X0341923Y0251812D01*
X0341784Y0251889D01*
X0341648Y0251968D01*
X0341513Y0252052D01*
X0341380Y0252138D01*
X0341250Y0252228D01*
X0341122Y0252321D01*
X0340996Y0252417D01*
X0340873Y0252517D01*
X0340752Y0252619D01*
X0340634Y0252724D01*
X0340519Y0252833D01*
X0340406Y0252944D01*
X0340296Y0253058D01*
X0340189Y0253175D01*
X0340085Y0253294D01*
X0339984Y0253416D01*
X0339887Y0253541D01*
X0339792Y0253668D01*
X0339701Y0253797D01*
X0339612Y0253928D01*
X0339528Y0254062D01*
X0339446Y0254198D01*
X0339368Y0254335D01*
X0339294Y0254475D01*
X0339223Y0254617D01*
X0339155Y0254760D01*
X0339091Y0254905D01*
X0339031Y0255051D01*
X0338975Y0255199D01*
X0338922Y0255348D01*
X0338873Y0255499D01*
X0338828Y0255651D01*
X0338787Y0255804D01*
X0338749Y0255957D01*
X0338716Y0256112D01*
X0338686Y0256268D01*
X0338660Y0256424D01*
X0338639Y0256581D01*
X0338621Y0256738D01*
X0338607Y0256896D01*
X0338597Y0257054D01*
X0338591Y0257212D01*
X0338589Y0257370D01*
X0150589Y0257370D02*
X0150591Y0257528D01*
X0150597Y0257686D01*
X0150607Y0257844D01*
X0150621Y0258002D01*
X0150639Y0258159D01*
X0150660Y0258316D01*
X0150686Y0258472D01*
X0150716Y0258628D01*
X0150749Y0258783D01*
X0150787Y0258936D01*
X0150828Y0259089D01*
X0150873Y0259241D01*
X0150922Y0259392D01*
X0150975Y0259541D01*
X0151031Y0259689D01*
X0151091Y0259835D01*
X0151155Y0259980D01*
X0151223Y0260123D01*
X0151294Y0260265D01*
X0151368Y0260405D01*
X0151446Y0260542D01*
X0151528Y0260678D01*
X0151612Y0260812D01*
X0151701Y0260943D01*
X0151792Y0261072D01*
X0151887Y0261199D01*
X0151984Y0261324D01*
X0152085Y0261446D01*
X0152189Y0261565D01*
X0152296Y0261682D01*
X0152406Y0261796D01*
X0152519Y0261907D01*
X0152634Y0262016D01*
X0152752Y0262121D01*
X0152873Y0262223D01*
X0152996Y0262323D01*
X0153122Y0262419D01*
X0153250Y0262512D01*
X0153380Y0262602D01*
X0153513Y0262688D01*
X0153648Y0262772D01*
X0153784Y0262851D01*
X0153923Y0262928D01*
X0154064Y0263000D01*
X0154206Y0263070D01*
X0154350Y0263135D01*
X0154496Y0263197D01*
X0154643Y0263255D01*
X0154792Y0263310D01*
X0154942Y0263361D01*
X0155093Y0263408D01*
X0155245Y0263451D01*
X0155398Y0263490D01*
X0155553Y0263526D01*
X0155708Y0263557D01*
X0155864Y0263585D01*
X0156020Y0263609D01*
X0156177Y0263629D01*
X0156335Y0263645D01*
X0156492Y0263657D01*
X0156651Y0263665D01*
X0156809Y0263669D01*
X0156967Y0263669D01*
X0157125Y0263665D01*
X0157284Y0263657D01*
X0157441Y0263645D01*
X0157599Y0263629D01*
X0157756Y0263609D01*
X0157912Y0263585D01*
X0158068Y0263557D01*
X0158223Y0263526D01*
X0158378Y0263490D01*
X0158531Y0263451D01*
X0158683Y0263408D01*
X0158834Y0263361D01*
X0158984Y0263310D01*
X0159133Y0263255D01*
X0159280Y0263197D01*
X0159426Y0263135D01*
X0159570Y0263070D01*
X0159712Y0263000D01*
X0159853Y0262928D01*
X0159992Y0262851D01*
X0160128Y0262772D01*
X0160263Y0262688D01*
X0160396Y0262602D01*
X0160526Y0262512D01*
X0160654Y0262419D01*
X0160780Y0262323D01*
X0160903Y0262223D01*
X0161024Y0262121D01*
X0161142Y0262016D01*
X0161257Y0261907D01*
X0161370Y0261796D01*
X0161480Y0261682D01*
X0161587Y0261565D01*
X0161691Y0261446D01*
X0161792Y0261324D01*
X0161889Y0261199D01*
X0161984Y0261072D01*
X0162075Y0260943D01*
X0162164Y0260812D01*
X0162248Y0260678D01*
X0162330Y0260542D01*
X0162408Y0260405D01*
X0162482Y0260265D01*
X0162553Y0260123D01*
X0162621Y0259980D01*
X0162685Y0259835D01*
X0162745Y0259689D01*
X0162801Y0259541D01*
X0162854Y0259392D01*
X0162903Y0259241D01*
X0162948Y0259089D01*
X0162989Y0258936D01*
X0163027Y0258783D01*
X0163060Y0258628D01*
X0163090Y0258472D01*
X0163116Y0258316D01*
X0163137Y0258159D01*
X0163155Y0258002D01*
X0163169Y0257844D01*
X0163179Y0257686D01*
X0163185Y0257528D01*
X0163187Y0257370D01*
X0163185Y0257212D01*
X0163179Y0257054D01*
X0163169Y0256896D01*
X0163155Y0256738D01*
X0163137Y0256581D01*
X0163116Y0256424D01*
X0163090Y0256268D01*
X0163060Y0256112D01*
X0163027Y0255957D01*
X0162989Y0255804D01*
X0162948Y0255651D01*
X0162903Y0255499D01*
X0162854Y0255348D01*
X0162801Y0255199D01*
X0162745Y0255051D01*
X0162685Y0254905D01*
X0162621Y0254760D01*
X0162553Y0254617D01*
X0162482Y0254475D01*
X0162408Y0254335D01*
X0162330Y0254198D01*
X0162248Y0254062D01*
X0162164Y0253928D01*
X0162075Y0253797D01*
X0161984Y0253668D01*
X0161889Y0253541D01*
X0161792Y0253416D01*
X0161691Y0253294D01*
X0161587Y0253175D01*
X0161480Y0253058D01*
X0161370Y0252944D01*
X0161257Y0252833D01*
X0161142Y0252724D01*
X0161024Y0252619D01*
X0160903Y0252517D01*
X0160780Y0252417D01*
X0160654Y0252321D01*
X0160526Y0252228D01*
X0160396Y0252138D01*
X0160263Y0252052D01*
X0160128Y0251968D01*
X0159992Y0251889D01*
X0159853Y0251812D01*
X0159712Y0251740D01*
X0159570Y0251670D01*
X0159426Y0251605D01*
X0159280Y0251543D01*
X0159133Y0251485D01*
X0158984Y0251430D01*
X0158834Y0251379D01*
X0158683Y0251332D01*
X0158531Y0251289D01*
X0158378Y0251250D01*
X0158223Y0251214D01*
X0158068Y0251183D01*
X0157912Y0251155D01*
X0157756Y0251131D01*
X0157599Y0251111D01*
X0157441Y0251095D01*
X0157284Y0251083D01*
X0157125Y0251075D01*
X0156967Y0251071D01*
X0156809Y0251071D01*
X0156651Y0251075D01*
X0156492Y0251083D01*
X0156335Y0251095D01*
X0156177Y0251111D01*
X0156020Y0251131D01*
X0155864Y0251155D01*
X0155708Y0251183D01*
X0155553Y0251214D01*
X0155398Y0251250D01*
X0155245Y0251289D01*
X0155093Y0251332D01*
X0154942Y0251379D01*
X0154792Y0251430D01*
X0154643Y0251485D01*
X0154496Y0251543D01*
X0154350Y0251605D01*
X0154206Y0251670D01*
X0154064Y0251740D01*
X0153923Y0251812D01*
X0153784Y0251889D01*
X0153648Y0251968D01*
X0153513Y0252052D01*
X0153380Y0252138D01*
X0153250Y0252228D01*
X0153122Y0252321D01*
X0152996Y0252417D01*
X0152873Y0252517D01*
X0152752Y0252619D01*
X0152634Y0252724D01*
X0152519Y0252833D01*
X0152406Y0252944D01*
X0152296Y0253058D01*
X0152189Y0253175D01*
X0152085Y0253294D01*
X0151984Y0253416D01*
X0151887Y0253541D01*
X0151792Y0253668D01*
X0151701Y0253797D01*
X0151612Y0253928D01*
X0151528Y0254062D01*
X0151446Y0254198D01*
X0151368Y0254335D01*
X0151294Y0254475D01*
X0151223Y0254617D01*
X0151155Y0254760D01*
X0151091Y0254905D01*
X0151031Y0255051D01*
X0150975Y0255199D01*
X0150922Y0255348D01*
X0150873Y0255499D01*
X0150828Y0255651D01*
X0150787Y0255804D01*
X0150749Y0255957D01*
X0150716Y0256112D01*
X0150686Y0256268D01*
X0150660Y0256424D01*
X0150639Y0256581D01*
X0150621Y0256738D01*
X0150607Y0256896D01*
X0150597Y0257054D01*
X0150591Y0257212D01*
X0150589Y0257370D01*
X0777313Y0098220D02*
X0777315Y0098317D01*
X0777321Y0098414D01*
X0777331Y0098510D01*
X0777345Y0098606D01*
X0777363Y0098702D01*
X0777384Y0098796D01*
X0777410Y0098890D01*
X0777439Y0098982D01*
X0777473Y0099073D01*
X0777509Y0099163D01*
X0777550Y0099251D01*
X0777594Y0099337D01*
X0777642Y0099422D01*
X0777693Y0099504D01*
X0777747Y0099585D01*
X0777805Y0099663D01*
X0777866Y0099738D01*
X0777929Y0099811D01*
X0777996Y0099882D01*
X0778066Y0099949D01*
X0778138Y0100014D01*
X0778213Y0100075D01*
X0778291Y0100134D01*
X0778370Y0100189D01*
X0778452Y0100241D01*
X0778536Y0100289D01*
X0778622Y0100334D01*
X0778710Y0100376D01*
X0778799Y0100414D01*
X0778890Y0100448D01*
X0778982Y0100478D01*
X0779075Y0100505D01*
X0779170Y0100527D01*
X0779265Y0100546D01*
X0779361Y0100561D01*
X0779457Y0100572D01*
X0779554Y0100579D01*
X0779651Y0100582D01*
X0779748Y0100581D01*
X0779845Y0100576D01*
X0779941Y0100567D01*
X0780037Y0100554D01*
X0780133Y0100537D01*
X0780228Y0100516D01*
X0780321Y0100492D01*
X0780414Y0100463D01*
X0780506Y0100431D01*
X0780596Y0100395D01*
X0780684Y0100356D01*
X0780771Y0100312D01*
X0780856Y0100266D01*
X0780939Y0100215D01*
X0781020Y0100162D01*
X0781098Y0100105D01*
X0781175Y0100045D01*
X0781248Y0099982D01*
X0781319Y0099916D01*
X0781387Y0099847D01*
X0781453Y0099775D01*
X0781515Y0099701D01*
X0781574Y0099624D01*
X0781630Y0099545D01*
X0781683Y0099463D01*
X0781733Y0099380D01*
X0781778Y0099294D01*
X0781821Y0099207D01*
X0781860Y0099118D01*
X0781895Y0099028D01*
X0781926Y0098936D01*
X0781953Y0098843D01*
X0781977Y0098749D01*
X0781997Y0098654D01*
X0782013Y0098558D01*
X0782025Y0098462D01*
X0782033Y0098365D01*
X0782037Y0098268D01*
X0782037Y0098172D01*
X0782033Y0098075D01*
X0782025Y0097978D01*
X0782013Y0097882D01*
X0781997Y0097786D01*
X0781977Y0097691D01*
X0781953Y0097597D01*
X0781926Y0097504D01*
X0781895Y0097412D01*
X0781860Y0097322D01*
X0781821Y0097233D01*
X0781778Y0097146D01*
X0781733Y0097060D01*
X0781683Y0096977D01*
X0781630Y0096895D01*
X0781574Y0096816D01*
X0781515Y0096739D01*
X0781453Y0096665D01*
X0781387Y0096593D01*
X0781319Y0096524D01*
X0781248Y0096458D01*
X0781175Y0096395D01*
X0781098Y0096335D01*
X0781020Y0096278D01*
X0780939Y0096225D01*
X0780856Y0096174D01*
X0780771Y0096128D01*
X0780684Y0096084D01*
X0780596Y0096045D01*
X0780506Y0096009D01*
X0780414Y0095977D01*
X0780321Y0095948D01*
X0780228Y0095924D01*
X0780133Y0095903D01*
X0780037Y0095886D01*
X0779941Y0095873D01*
X0779845Y0095864D01*
X0779748Y0095859D01*
X0779651Y0095858D01*
X0779554Y0095861D01*
X0779457Y0095868D01*
X0779361Y0095879D01*
X0779265Y0095894D01*
X0779170Y0095913D01*
X0779075Y0095935D01*
X0778982Y0095962D01*
X0778890Y0095992D01*
X0778799Y0096026D01*
X0778710Y0096064D01*
X0778622Y0096106D01*
X0778536Y0096151D01*
X0778452Y0096199D01*
X0778370Y0096251D01*
X0778291Y0096306D01*
X0778213Y0096365D01*
X0778138Y0096426D01*
X0778066Y0096491D01*
X0777996Y0096558D01*
X0777929Y0096629D01*
X0777866Y0096702D01*
X0777805Y0096777D01*
X0777747Y0096855D01*
X0777693Y0096936D01*
X0777642Y0097018D01*
X0777594Y0097103D01*
X0777550Y0097189D01*
X0777509Y0097277D01*
X0777473Y0097367D01*
X0777439Y0097458D01*
X0777410Y0097550D01*
X0777384Y0097644D01*
X0777363Y0097738D01*
X0777345Y0097834D01*
X0777331Y0097930D01*
X0777321Y0098026D01*
X0777315Y0098123D01*
X0777313Y0098220D01*
X0787156Y0098220D02*
X0787158Y0098317D01*
X0787164Y0098414D01*
X0787174Y0098510D01*
X0787188Y0098606D01*
X0787206Y0098702D01*
X0787227Y0098796D01*
X0787253Y0098890D01*
X0787282Y0098982D01*
X0787316Y0099073D01*
X0787352Y0099163D01*
X0787393Y0099251D01*
X0787437Y0099337D01*
X0787485Y0099422D01*
X0787536Y0099504D01*
X0787590Y0099585D01*
X0787648Y0099663D01*
X0787709Y0099738D01*
X0787772Y0099811D01*
X0787839Y0099882D01*
X0787909Y0099949D01*
X0787981Y0100014D01*
X0788056Y0100075D01*
X0788134Y0100134D01*
X0788213Y0100189D01*
X0788295Y0100241D01*
X0788379Y0100289D01*
X0788465Y0100334D01*
X0788553Y0100376D01*
X0788642Y0100414D01*
X0788733Y0100448D01*
X0788825Y0100478D01*
X0788918Y0100505D01*
X0789013Y0100527D01*
X0789108Y0100546D01*
X0789204Y0100561D01*
X0789300Y0100572D01*
X0789397Y0100579D01*
X0789494Y0100582D01*
X0789591Y0100581D01*
X0789688Y0100576D01*
X0789784Y0100567D01*
X0789880Y0100554D01*
X0789976Y0100537D01*
X0790071Y0100516D01*
X0790164Y0100492D01*
X0790257Y0100463D01*
X0790349Y0100431D01*
X0790439Y0100395D01*
X0790527Y0100356D01*
X0790614Y0100312D01*
X0790699Y0100266D01*
X0790782Y0100215D01*
X0790863Y0100162D01*
X0790941Y0100105D01*
X0791018Y0100045D01*
X0791091Y0099982D01*
X0791162Y0099916D01*
X0791230Y0099847D01*
X0791296Y0099775D01*
X0791358Y0099701D01*
X0791417Y0099624D01*
X0791473Y0099545D01*
X0791526Y0099463D01*
X0791576Y0099380D01*
X0791621Y0099294D01*
X0791664Y0099207D01*
X0791703Y0099118D01*
X0791738Y0099028D01*
X0791769Y0098936D01*
X0791796Y0098843D01*
X0791820Y0098749D01*
X0791840Y0098654D01*
X0791856Y0098558D01*
X0791868Y0098462D01*
X0791876Y0098365D01*
X0791880Y0098268D01*
X0791880Y0098172D01*
X0791876Y0098075D01*
X0791868Y0097978D01*
X0791856Y0097882D01*
X0791840Y0097786D01*
X0791820Y0097691D01*
X0791796Y0097597D01*
X0791769Y0097504D01*
X0791738Y0097412D01*
X0791703Y0097322D01*
X0791664Y0097233D01*
X0791621Y0097146D01*
X0791576Y0097060D01*
X0791526Y0096977D01*
X0791473Y0096895D01*
X0791417Y0096816D01*
X0791358Y0096739D01*
X0791296Y0096665D01*
X0791230Y0096593D01*
X0791162Y0096524D01*
X0791091Y0096458D01*
X0791018Y0096395D01*
X0790941Y0096335D01*
X0790863Y0096278D01*
X0790782Y0096225D01*
X0790699Y0096174D01*
X0790614Y0096128D01*
X0790527Y0096084D01*
X0790439Y0096045D01*
X0790349Y0096009D01*
X0790257Y0095977D01*
X0790164Y0095948D01*
X0790071Y0095924D01*
X0789976Y0095903D01*
X0789880Y0095886D01*
X0789784Y0095873D01*
X0789688Y0095864D01*
X0789591Y0095859D01*
X0789494Y0095858D01*
X0789397Y0095861D01*
X0789300Y0095868D01*
X0789204Y0095879D01*
X0789108Y0095894D01*
X0789013Y0095913D01*
X0788918Y0095935D01*
X0788825Y0095962D01*
X0788733Y0095992D01*
X0788642Y0096026D01*
X0788553Y0096064D01*
X0788465Y0096106D01*
X0788379Y0096151D01*
X0788295Y0096199D01*
X0788213Y0096251D01*
X0788134Y0096306D01*
X0788056Y0096365D01*
X0787981Y0096426D01*
X0787909Y0096491D01*
X0787839Y0096558D01*
X0787772Y0096629D01*
X0787709Y0096702D01*
X0787648Y0096777D01*
X0787590Y0096855D01*
X0787536Y0096936D01*
X0787485Y0097018D01*
X0787437Y0097103D01*
X0787393Y0097189D01*
X0787352Y0097277D01*
X0787316Y0097367D01*
X0787282Y0097458D01*
X0787253Y0097550D01*
X0787227Y0097644D01*
X0787206Y0097738D01*
X0787188Y0097834D01*
X0787174Y0097930D01*
X0787164Y0098026D01*
X0787158Y0098123D01*
X0787156Y0098220D01*
D11*
X0638730Y0051543D02*
X0634793Y0051543D01*
X0630856Y0051543D02*
X0626919Y0051543D01*
X0622982Y0051543D02*
X0619045Y0051543D01*
X0619045Y0046293D01*
X0619045Y0042356D02*
X0619045Y0037107D01*
X0619045Y0033170D02*
X0619045Y0027921D01*
X0622982Y0027921D01*
X0626919Y0027921D02*
X0630856Y0027921D01*
X0634793Y0027921D02*
X0638730Y0027921D01*
X0638730Y0035795D01*
X0638730Y0043669D02*
X0638730Y0051543D01*
X0629329Y0349889D02*
X0684447Y0349889D01*
X0684447Y0363669D01*
X0682478Y0363669D01*
X0682478Y0369574D01*
X0631297Y0369574D01*
X0631297Y0363669D01*
X0629329Y0363669D01*
X0629329Y0349889D01*
X0580447Y0349889D02*
X0580447Y0363669D01*
X0578478Y0363669D01*
X0578478Y0369574D01*
X0527297Y0369574D01*
X0527297Y0363669D01*
X0525329Y0363669D01*
X0525329Y0349889D01*
X0580447Y0349889D01*
X0535171Y0373511D02*
X0531234Y0373511D01*
X0533203Y0371543D01*
X0535171Y0373511D01*
X0476447Y0363669D02*
X0474478Y0363669D01*
X0474478Y0369574D01*
X0423297Y0369574D01*
X0423297Y0363669D01*
X0421329Y0363669D01*
X0421329Y0349889D01*
X0476447Y0349889D01*
X0476447Y0363669D01*
X0431171Y0373511D02*
X0427234Y0373511D01*
X0429203Y0371543D01*
X0431171Y0373511D01*
X0372447Y0363669D02*
X0370478Y0363669D01*
X0370478Y0369574D01*
X0319297Y0369574D01*
X0319297Y0363669D01*
X0317329Y0363669D01*
X0317329Y0349889D01*
X0372447Y0349889D01*
X0372447Y0363669D01*
X0327171Y0373511D02*
X0323234Y0373511D01*
X0325203Y0371543D01*
X0327171Y0373511D01*
X0184447Y0363669D02*
X0184447Y0349889D01*
X0129329Y0349889D01*
X0129329Y0363669D01*
X0131297Y0363669D01*
X0131297Y0369574D01*
X0182478Y0369574D01*
X0182478Y0363669D01*
X0184447Y0363669D01*
X0139171Y0373511D02*
X0135234Y0373511D01*
X0137203Y0371543D01*
X0139171Y0373511D01*
X0635234Y0373511D02*
X0639171Y0373511D01*
X0637203Y0371543D01*
X0635234Y0373511D01*
D12*
X0624465Y0366554D02*
X0623898Y0367121D01*
X0623330Y0367121D01*
X0622763Y0366554D01*
X0622196Y0367121D01*
X0621629Y0367121D01*
X0621062Y0366554D01*
X0621062Y0365420D01*
X0621629Y0364853D01*
X0621062Y0363438D02*
X0621062Y0361169D01*
X0623330Y0363438D01*
X0623898Y0363438D01*
X0624465Y0362871D01*
X0624465Y0361737D01*
X0623898Y0361169D01*
X0624465Y0359755D02*
X0621629Y0359755D01*
X0621062Y0359188D01*
X0621062Y0358053D01*
X0621629Y0357486D01*
X0624465Y0357486D01*
X0623898Y0364853D02*
X0624465Y0365420D01*
X0624465Y0366554D01*
X0622763Y0366554D02*
X0622763Y0365987D01*
X0520465Y0367121D02*
X0519898Y0365987D01*
X0518763Y0364853D01*
X0518763Y0366554D01*
X0518196Y0367121D01*
X0517629Y0367121D01*
X0517062Y0366554D01*
X0517062Y0365420D01*
X0517629Y0364853D01*
X0518763Y0364853D01*
X0519330Y0363438D02*
X0519898Y0363438D01*
X0520465Y0362871D01*
X0520465Y0361737D01*
X0519898Y0361169D01*
X0520465Y0359755D02*
X0517629Y0359755D01*
X0517062Y0359188D01*
X0517062Y0358053D01*
X0517629Y0357486D01*
X0520465Y0357486D01*
X0517062Y0361169D02*
X0519330Y0363438D01*
X0517062Y0363438D02*
X0517062Y0361169D01*
X0416465Y0361737D02*
X0415898Y0361169D01*
X0416465Y0361737D02*
X0416465Y0362871D01*
X0415898Y0363438D01*
X0415330Y0363438D01*
X0413062Y0361169D01*
X0413062Y0363438D01*
X0414763Y0364853D02*
X0414763Y0367121D01*
X0413062Y0366554D02*
X0416465Y0366554D01*
X0414763Y0364853D01*
X0413629Y0359755D02*
X0416465Y0359755D01*
X0416465Y0357486D02*
X0413629Y0357486D01*
X0413062Y0358053D01*
X0413062Y0359188D01*
X0413629Y0359755D01*
X0312465Y0359755D02*
X0309629Y0359755D01*
X0309062Y0359188D01*
X0309062Y0358053D01*
X0309629Y0357486D01*
X0312465Y0357486D01*
X0311898Y0361169D02*
X0312465Y0361737D01*
X0312465Y0362871D01*
X0311898Y0363438D01*
X0311330Y0363438D01*
X0309062Y0361169D01*
X0309062Y0363438D01*
X0309062Y0364853D02*
X0309629Y0364853D01*
X0311898Y0367121D01*
X0312465Y0367121D01*
X0312465Y0364853D01*
X0124465Y0364853D02*
X0122763Y0364853D01*
X0123330Y0365987D01*
X0123330Y0366554D01*
X0122763Y0367121D01*
X0121629Y0367121D01*
X0121062Y0366554D01*
X0121062Y0365420D01*
X0121629Y0364853D01*
X0121062Y0363438D02*
X0121062Y0361169D01*
X0123330Y0363438D01*
X0123898Y0363438D01*
X0124465Y0362871D01*
X0124465Y0361737D01*
X0123898Y0361169D01*
X0124465Y0359755D02*
X0121629Y0359755D01*
X0121062Y0359188D01*
X0121062Y0358053D01*
X0121629Y0357486D01*
X0124465Y0357486D01*
X0124465Y0364853D02*
X0124465Y0367121D01*
M02*
